<svg xmlns="http://www.w3.org/2000/svg" viewBox="0 0 572.2 116.39"><defs><style>.cls-1{fill:#fff4e2;}</style></defs><title>Asset 1</title><g id="Layer_2" data-name="Layer 2"><g id="Layer_1-2" data-name="Layer 1"><path class="cls-1" d="M10.09,77.53H1.63A1.63,1.63,0,0,1,.11,75.31L13.82,39.9a1.64,1.64,0,0,1,1.52-1h8.05a1.62,1.62,0,0,1,1.51,1L39,75.3a1.63,1.63,0,0,1-1.52,2.23h-8.8a1.63,1.63,0,0,1-1.52-1l-1.68-4.37a1.63,1.63,0,0,0-1.52-1H14.71a1.64,1.64,0,0,0-1.54,1.08l-1.54,4.31A1.64,1.64,0,0,1,10.09,77.53ZM19,52.21l-3.35,9a.58.58,0,0,0,.54.77h6.12a.57.57,0,0,0,.54-.75l-3.07-9A.41.41,0,0,0,19,52.21Z"/><path class="cls-1" d="M75.85,49.78a1.11,1.11,0,0,1-1.46.2,11.35,11.35,0,0,0-6.57-1.78,9.48,9.48,0,0,0-7.18,2.87,10.58,10.58,0,0,0,0,14.25,9.48,9.48,0,0,0,7.18,2.87,17.17,17.17,0,0,0,3.77-.37,1.12,1.12,0,0,0,.87-1.1V64.45a1.12,1.12,0,0,0-1.12-1.12H65.58a1.12,1.12,0,0,1-1.12-1.12v-6.1A1.12,1.12,0,0,1,65.58,55H82.39a1.12,1.12,0,0,1,1.12,1.12V70.58a2.76,2.76,0,0,1-1,2.16,22.91,22.91,0,0,1-14.69,5.39q-9.52,0-15.57-5.79a19.14,19.14,0,0,1-6-14.15,18.9,18.9,0,0,1,6-14.08c4-3.92,9.22-5.86,15.57-5.86a21.7,21.7,0,0,1,12.85,4.09A1.12,1.12,0,0,1,80.85,44Z"/><path class="cls-1" d="M124.39,77.53H98.92A1.33,1.33,0,0,1,97.6,76.2v-36a1.32,1.32,0,0,1,1.32-1.33h25.47a1.32,1.32,0,0,1,1.32,1.33v7.29a1.32,1.32,0,0,1-1.32,1.32H110a.76.76,0,0,0-.75.76v3.51a.76.76,0,0,0,.75.76h12.34a1.32,1.32,0,0,1,1.32,1.33v6.18a1.33,1.33,0,0,1-1.32,1.33H110a.76.76,0,0,0-.75.76v3.4a.75.75,0,0,0,.75.75h14.44a1.33,1.33,0,0,1,1.32,1.33V76.2A1.33,1.33,0,0,1,124.39,77.53Z"/><path class="cls-1" d="M164.76,76.92,152.93,60a.37.37,0,0,0-.67.21V76.1a1.43,1.43,0,0,1-1.43,1.43h-8.75a1.43,1.43,0,0,1-1.42-1.43V40.29a1.43,1.43,0,0,1,1.42-1.43H149a1.4,1.4,0,0,1,1.16.6L161.92,56a.37.37,0,0,0,.67-.22V40.29A1.42,1.42,0,0,1,164,38.86h8.75a1.43,1.43,0,0,1,1.43,1.43V76.1a1.43,1.43,0,0,1-1.43,1.43h-6.84A1.41,1.41,0,0,1,164.76,76.92Z"/><path class="cls-1" d="M221.48,45.66l-4.4,5a1.6,1.6,0,0,1-2.26.12,10.59,10.59,0,0,0-7.19-2.61,9.48,9.48,0,0,0-7.18,2.87,10.58,10.58,0,0,0,0,14.25,9.48,9.48,0,0,0,7.18,2.87,10.59,10.59,0,0,0,7.19-2.61,1.61,1.61,0,0,1,2.26.11l4.4,5a1.61,1.61,0,0,1-.21,2.31c-4.13,3.33-8.23,5.1-13.64,5.1q-9.52,0-15.57-5.79a19.14,19.14,0,0,1-6-14.15,18.9,18.9,0,0,1,6-14.08c4-3.92,9.22-5.86,15.57-5.86,5.41,0,9.51,1.78,13.64,5.11A1.6,1.6,0,0,1,221.48,45.66Z"/><path class="cls-1" d="M239.88,39.44l7.26,11.86a.6.6,0,0,0,1,0l7.32-11.86a1.21,1.21,0,0,1,1-.58h10.81a1.22,1.22,0,0,1,1.22,1.22h0a1.2,1.2,0,0,1-.23.7l-14,19.72a4.72,4.72,0,0,0-.87,2.74V76.31a1.22,1.22,0,0,1-1.22,1.22h-9.17a1.22,1.22,0,0,1-1.21-1.22V63.45a4.75,4.75,0,0,0-.86-2.73L227,40.78a1.19,1.19,0,0,1-.22-.7h0A1.22,1.22,0,0,1,228,38.86h10.87A1.21,1.21,0,0,1,239.88,39.44Z"/><rect class="cls-1" x="320.31" width="116.39" height="116.39" rx="7.76" ry="7.76"/><path class="cls-1" d="M501.47,2.82,457.58,56A7.8,7.8,0,0,0,455.81,61V93.11a7.76,7.76,0,0,0,7.76,7.76H493.9a7.75,7.75,0,0,1,7.76,7.76h0a7.77,7.77,0,0,0,7.76,7.76h55a7.76,7.76,0,0,0,7.76-7.76V7.76A7.75,7.75,0,0,0,564.44,0h-57A7.79,7.79,0,0,0,501.47,2.82Z"/></g></g></svg>