<?xml version="1.0" encoding="UTF-8" standalone="no"?>
<!DOCTYPE svg PUBLIC "-//W3C//DTD SVG 1.1//EN" "http://www.w3.org/Graphics/SVG/1.1/DTD/svg11.dtd">
<svg width="100%" height="100%" viewBox="0 0 355 247" version="1.1" xmlns="http://www.w3.org/2000/svg" xmlns:xlink="http://www.w3.org/1999/xlink" xml:space="preserve" xmlns:serif="http://www.serif.com/" style="fill-rule:evenodd;clip-rule:evenodd;stroke-linejoin:round;stroke-miterlimit:1.41421;">
    <g id="Logo">
        <path d="M312.5,95.5C314.3,95.4 315.9,96.9 315.9,98.7C316,100.5 314.5,102.1 312.7,102.1C310.9,102.2 309.3,100.7 309.3,98.9L309.3,98.8C309.3,97 310.7,95.5 312.5,95.5ZM312.5,101.7C314.1,101.7 315.3,100.4 315.3,98.9C315.3,97.3 314,96.1 312.5,96.1C310.9,96.1 309.7,97.4 309.7,98.9C309.7,100.4 311,101.6 312.5,101.7ZM311.5,97L312.8,97C313.4,97 313.8,97.4 313.9,97.9L313.9,98C313.9,98.4 313.7,98.8 313.2,98.9C313.2,99 313.3,99 313.3,99.1L314,100.4L313.4,100.4L312.7,99L312,99L312,100.4L311.5,100.4L311.5,97ZM312.6,98.7C312.9,98.7 313.2,98.5 313.2,98.1L313.2,98C313.2,97.7 313,97.4 312.7,97.4L312.6,97.4L312,97.4L312,98.7L312.6,98.7Z" style="fill:rgb(255,246,231);fill-rule:nonzero;"/>
        <path d="M57.8,131C58.2,131.9 58.5,132.8 58.8,133.8C59.1,134.7 59.3,135.7 59.4,136.7C58,137.2 56.5,137.6 55,137.9C53.6,138.1 52.1,138.2 50.7,138.2C48.3,138.3 45.8,137.8 43.5,136.9C41.5,136.1 39.8,134.8 38.3,133.2C36.9,131.6 35.8,129.6 35.2,127.6C34.5,125.3 34.1,122.9 34.1,120.5C34.1,118.1 34.5,115.7 35.2,113.4C35.9,111.3 37,109.4 38.4,107.7C39.8,106.1 41.6,104.8 43.5,104C45.7,103.1 48.1,102.6 50.4,102.7C51.8,102.7 53.2,102.8 54.6,103C56,103.2 57.5,103.6 58.8,104.2C58.7,105.2 58.5,106.1 58.2,107C57.9,107.9 57.5,108.8 57.2,109.8C56.2,109.5 55.2,109.2 54.2,109C53.2,108.8 52.2,108.7 51.1,108.8C48.4,108.6 45.8,109.7 44,111.8C42.3,113.8 41.5,116.8 41.5,120.7C41.5,128.5 44.8,132.4 51.4,132.4C52.4,132.4 53.5,132.3 54.5,132.2C55.9,131.6 56.9,131.3 57.8,131Z" style="fill:rgb(255,246,231);fill-rule:nonzero;"/>
        <path d="M74,121.2C74,120.6 73.9,119.9 73.6,119.3C73.4,118.8 73,118.5 72.6,118.2C72.1,117.9 71.5,117.7 70.9,117.6C70.2,117.5 69.4,117.4 68.7,117.4C66.8,117.4 65,117.8 63.2,118.4C62.8,117.7 62.5,116.9 62.2,116.1C62,115.2 61.8,114.4 61.9,113.5C63.3,113 64.7,112.7 66.1,112.5C67.4,112.3 68.7,112.2 70,112.2C73.3,112.2 75.9,113 77.8,114.6C79.7,116.2 80.6,118.8 80.6,122.3L80.6,136.7C79.3,137.1 77.9,137.4 76.5,137.7C74.7,138 72.9,138.2 71.1,138.2C69.6,138.2 68.1,138.1 66.6,137.8C65.4,137.6 64.2,137.1 63.1,136.4C62.1,135.7 61.4,134.9 60.9,133.8C60.3,132.6 60.1,131.3 60.1,129.9C60.1,128.5 60.4,127.2 61.1,126C61.7,125 62.6,124.1 63.6,123.5C64.6,122.9 65.7,122.4 66.9,122.1C68.2,121.8 69.4,121.7 70.7,121.7C71.6,121.7 72.7,121.8 73.8,121.8L74,121.2ZM74,126.1C73.6,126 73.2,126 72.8,125.9C72.4,125.9 72,125.8 71.6,125.8C70.3,125.7 69,126 67.9,126.6C67,127.2 66.4,128.2 66.5,129.3C66.5,130 66.6,130.7 67,131.2C67.3,131.6 67.8,132 68.3,132.2C68.8,132.4 69.3,132.5 69.9,132.6C70.5,132.7 70.9,132.7 71.4,132.7C71.9,132.7 72.4,132.7 72.8,132.6L74,132.4L74,126.1Z" style="fill:rgb(255,246,231);fill-rule:nonzero;"/>
        <path d="M83.8,102.4C84.9,102.2 86.1,102.1 87.2,102.1C88.3,102.1 89.4,102.2 90.6,102.4L90.6,127.6C90.6,128.4 90.6,129.2 90.8,130C90.9,130.5 91.1,131 91.3,131.4C91.5,131.7 91.8,132 92.2,132.1C92.7,132.2 93.2,132.3 93.6,132.3C93.8,132.3 94.1,132.3 94.4,132.2C94.7,132.2 95,132.1 95.3,132.1C95.6,133.4 95.8,134.6 95.8,135.9L95.8,136.6C95.8,136.8 95.8,137.1 95.7,137.3C95.1,137.5 94.5,137.6 93.9,137.6C93.2,137.7 92.5,137.7 91.9,137.7C89.7,137.8 87.6,137.1 86,135.7C84.5,134.4 83.8,132.1 83.8,129.1L83.8,102.4Z" style="fill:rgb(255,246,231);fill-rule:nonzero;"/>
        <path d="M96.7,102.4C97.8,102.2 99,102.1 100.1,102.1C101.2,102.1 102.3,102.2 103.4,102.4L103.4,127.6C103.4,128.4 103.4,129.2 103.6,130C103.7,130.5 103.9,131 104.1,131.4C104.3,131.7 104.7,132 105,132.1C105.5,132.2 106,132.3 106.4,132.3C106.7,132.3 106.9,132.3 107.2,132.2C107.5,132.2 107.8,132.1 108.1,132.1C108.4,133.4 108.6,134.6 108.6,135.9L108.6,136.6C108.6,136.8 108.6,137.1 108.5,137.3C107.9,137.5 107.3,137.6 106.7,137.6C106,137.7 105.3,137.7 104.7,137.7C102.5,137.8 100.4,137.1 98.8,135.7C97.3,134.4 96.6,132.1 96.6,129.1L96.7,102.4Z" style="fill:rgb(255,246,231);fill-rule:nonzero;"/>
        <path d="M111.1,117.9L107.9,117.9C107.8,117.5 107.7,117 107.7,116.6C107.6,116.2 107.6,115.7 107.6,115.3C107.6,114.4 107.7,113.6 107.9,112.8L117.8,112.8L117.8,137.6C116.7,137.8 115.6,137.9 114.5,137.9C113.4,137.9 112.3,137.8 111.2,137.6L111.2,117.9L111.1,117.9ZM110.1,108.5C109.9,107.4 109.8,106.4 109.8,105.3C109.8,104.2 109.9,103.1 110.1,102.1C110.7,102 111.3,101.9 111.9,101.9C112.5,101.9 113.1,101.8 113.6,101.8C114.1,101.8 114.7,101.8 115.4,101.9C116,101.9 116.6,102 117.2,102.1C117.3,102.6 117.4,103.2 117.4,103.7L117.4,106.9C117.4,107.4 117.3,108 117.2,108.5C116.6,108.6 116,108.7 115.4,108.7L111.9,108.7C111.3,108.7 110.7,108.6 110.1,108.5Z" style="fill:rgb(255,246,231);fill-rule:nonzero;"/>
        <path d="M136.7,102.4C137.3,102.3 137.8,102.2 138.4,102.2L141.8,102.2C142.4,102.2 143,102.3 143.5,102.4L143.5,136.6C142,137 140.5,137.4 138.9,137.6C137,137.9 135.2,138 133.3,138C131.7,138 130,137.8 128.4,137.3C126.9,136.9 125.5,136.1 124.3,135.1C123.1,134 122.1,132.7 121.5,131.2C120.2,127.7 120.1,123.8 121.4,120.2C122,118.6 122.8,117.2 123.9,116C125,114.8 126.4,113.8 127.9,113.2C129.6,112.5 131.3,112.2 133.1,112.2C133.7,112.2 134.3,112.2 134.9,112.3C135.5,112.3 136.1,112.5 136.7,112.6L136.7,102.4ZM136.7,117.8C136.2,117.7 135.7,117.6 135.1,117.5C134.6,117.4 134.1,117.4 133.6,117.4C132.6,117.4 131.7,117.6 130.8,118C130,118.4 129.4,119 128.9,119.7C128.4,120.5 128,121.3 127.8,122.2C127.6,123.2 127.4,124.2 127.4,125.2C127.4,126.3 127.5,127.5 127.9,128.5C128.2,129.3 128.6,130.1 129.2,130.7C129.8,131.2 130.4,131.6 131.2,131.9C132,132.1 132.9,132.3 133.7,132.3C134.2,132.3 134.7,132.3 135.2,132.2C135.7,132.1 136.2,132 136.7,131.9L136.7,117.8Z" style="fill:rgb(255,246,231);fill-rule:nonzero;"/>
        <path d="M147,112.7C148.1,112.5 149.3,112.4 150.4,112.4C151.5,112.4 152.7,112.5 153.8,112.7L153.8,125.8C153.8,126.9 153.9,128 154.1,129C154.3,129.7 154.6,130.4 155.1,131C155.5,131.5 156.1,131.9 156.7,132.1C157.4,132.3 158.2,132.4 159,132.4C160,132.4 161,132.3 162,132.1L162,112.7C163.1,112.5 164.2,112.4 165.4,112.4C166.5,112.4 167.7,112.5 168.8,112.7L168.8,136.5C167.5,136.9 166.1,137.3 164.7,137.5C163,137.8 161.2,138 159.5,138C157.9,138 156.4,137.9 154.8,137.6C153.4,137.4 152,136.8 150.8,136C149.6,135.1 148.6,133.8 148.1,132.4C147.4,130.4 147,128.2 147.1,126L147,112.7Z" style="fill:rgb(255,246,231);fill-rule:nonzero;"/>
        <path d="M177,126.7C175.4,126.3 174,125.5 172.8,124.4C171.7,123.1 171.2,121.5 171.3,119.9C171.2,117.7 172.2,115.6 173.9,114.2C176,112.7 178.5,112 181,112.1C182.2,112.1 183.5,112.2 184.7,112.4C186,112.6 187.2,113 188.4,113.4C188.3,114.3 188.2,115.1 187.9,116C187.7,116.8 187.4,117.6 187,118.3C186.2,118 185.3,117.7 184.4,117.5C183.4,117.3 182.5,117.1 181.5,117.1C180.6,117.1 179.8,117.2 179,117.6C178.4,117.9 178,118.5 178.1,119.2C178,119.8 178.3,120.3 178.7,120.7C179.3,121.1 179.9,121.3 180.6,121.5L183.3,122.3C184.1,122.5 184.9,122.8 185.7,123.2C186.4,123.5 187,124 187.6,124.6C188.1,125.2 188.5,125.9 188.8,126.6C189.1,127.5 189.3,128.5 189.2,129.5C189.2,130.6 189,131.8 188.5,132.8C188,133.8 187.2,134.7 186.3,135.5C185.3,136.3 184.1,136.9 182.9,137.3C181.4,137.8 179.9,138 178.3,137.9C177.5,137.9 176.8,137.9 176.2,137.8C175.6,137.8 175,137.7 174.4,137.6C173.8,137.5 173.2,137.4 172.6,137.2C172,137 171.3,136.8 170.7,136.6C170.8,135.7 170.9,134.8 171.1,134C171.3,133.1 171.7,132.3 172,131.4C173,131.8 174,132.1 175,132.3C176,132.5 177,132.6 178,132.6C178.5,132.6 179,132.6 179.5,132.5C180,132.4 180.5,132.3 181,132.1C181.4,131.9 181.8,131.6 182.1,131.3C182.4,130.9 182.6,130.5 182.5,130C182.6,129.4 182.3,128.7 181.8,128.4C181.2,128 180.6,127.7 179.9,127.5L177,126.7Z" style="fill:rgb(255,246,231);fill-rule:nonzero;"/>
        <path d="M214.4,131C214.8,131.9 215.1,132.8 215.4,133.8C215.7,134.7 215.9,135.7 216,136.7C214.5,137.2 213,137.6 211.5,137.9C210.1,138.1 208.6,138.2 207.2,138.2C204.8,138.3 202.3,137.8 200.1,136.9C198.1,136.1 196.4,134.8 194.9,133.2C193.5,131.6 192.4,129.6 191.8,127.6C191.1,125.3 190.7,122.9 190.7,120.5C190.7,118.1 191,115.7 191.8,113.4C192.5,111.3 193.6,109.4 195,107.7C196.4,106.1 198.2,104.8 200.1,104C202.3,103.1 204.7,102.6 207,102.7C208.4,102.7 209.8,102.8 211.2,103C212.6,103.2 214.1,103.6 215.4,104.2C215.3,105.2 215.1,106.1 214.8,107C214.5,107.9 214.1,108.8 213.7,109.8C212.7,109.5 211.7,109.2 210.7,109C209.7,108.8 208.7,108.7 207.6,108.8C204.9,108.6 202.3,109.7 200.5,111.8C198.9,113.8 198,116.8 198,120.7C198,128.5 201.3,132.4 207.9,132.4C208.9,132.4 210,132.3 211,132.2C212.4,131.6 213.4,131.4 214.4,131Z" style="fill:rgb(255,246,231);fill-rule:nonzero;"/>
        <path d="M218.5,102.4C219.6,102.2 220.8,102.1 221.9,102.1C223,102.1 224.1,102.2 225.3,102.4L225.3,127.6C225.3,128.4 225.3,129.2 225.5,130C225.6,130.5 225.8,131 226,131.4C226.2,131.7 226.6,132 226.9,132.1C227.4,132.2 227.9,132.3 228.3,132.3C228.5,132.3 228.8,132.3 229.1,132.2C229.4,132.2 229.7,132.1 230,132.1C230.3,133.4 230.5,134.6 230.5,135.9L230.5,136.6C230.5,136.8 230.5,137.1 230.4,137.3C229.8,137.5 229.2,137.6 228.6,137.6C227.9,137.7 227.2,137.7 226.6,137.7C224.4,137.8 222.3,137.1 220.7,135.7C219.2,134.3 218.5,132.1 218.5,129.1L218.5,102.4Z" style="fill:rgb(255,246,231);fill-rule:nonzero;"/>
        <path d="M242.1,138.1C240.3,138.1 238.5,137.8 236.9,137.1C235.5,136.5 234.2,135.5 233.2,134.4C232.2,133.2 231.4,131.8 231,130.3C230.5,128.7 230.2,126.9 230.3,125.2C230.3,123.5 230.5,121.7 231,120.1C231.5,118.6 232.2,117.2 233.2,115.9C234.2,114.7 235.5,113.8 236.9,113.1C238.6,112.4 240.3,112.1 242.1,112.1C243.9,112.1 245.7,112.4 247.4,113.1C248.8,113.7 250.1,114.7 251.1,115.9C252.1,117.1 252.9,118.5 253.3,120.1C253.8,121.8 254,123.5 254,125.2C254,126.9 253.8,128.6 253.3,130.3C252.9,131.8 252.1,133.2 251.1,134.4C250.1,135.6 248.8,136.5 247.4,137.1C245.7,137.8 243.9,138.1 242.1,138.1ZM242.1,132.9C243.7,133 245.2,132.2 246,130.9C246.9,129.1 247.3,127.2 247.2,125.2C247.3,123.2 246.9,121.2 246,119.5C245.2,118.2 243.7,117.4 242.1,117.5C240.6,117.4 239.1,118.2 238.3,119.5C237.4,121.3 237,123.2 237.1,125.2C237,127.2 237.4,129.2 238.3,130.9C239,132.2 240.5,133 242.1,132.9Z" style="fill:rgb(255,246,231);fill-rule:nonzero;"/>
        <path d="M256.3,112.7C258.6,112.3 260.9,112.3 263.1,112.7L263.1,125.8C263.1,126.9 263.2,128 263.4,129C263.6,129.7 263.9,130.4 264.4,131C264.8,131.5 265.4,131.9 266,132.1C266.7,132.3 267.5,132.4 268.2,132.4C269.2,132.4 270.2,132.3 271.2,132.1L271.2,112.7C272.3,112.5 273.4,112.4 274.6,112.4C275.7,112.4 276.9,112.5 278,112.7L278,136.5C276.7,136.9 275.3,137.3 273.9,137.5C272.2,137.8 270.4,138 268.7,138C267.1,138 265.6,137.9 264,137.6C262.6,137.4 261.2,136.8 260,136C258.8,135.1 257.8,133.8 257.3,132.4C256.6,130.4 256.2,128.2 256.3,126L256.3,112.7Z" style="fill:rgb(255,246,231);fill-rule:nonzero;"/>
        <path d="M296.4,102.4C297,102.3 297.5,102.2 298.1,102.2L301.4,102.2C302,102.2 302.6,102.3 303.1,102.4L303.1,136.6C301.6,137 300.1,137.4 298.5,137.6C296.6,137.9 294.7,138 292.9,138C291.3,138 289.6,137.8 288,137.3C286.5,136.9 285.1,136.1 283.9,135.1C282.7,134 281.7,132.7 281.1,131.2C280.4,129.3 280,127.3 280.1,125.4C280.1,123.6 280.4,121.9 281,120.2C281.6,118.6 282.4,117.2 283.5,116C284.6,114.8 286,113.8 287.5,113.2C289.2,112.5 290.9,112.2 292.7,112.2C293.3,112.2 293.9,112.2 294.5,112.3C295.1,112.3 295.7,112.5 296.3,112.6L296.4,102.4ZM296.4,117.8C295.9,117.7 295.4,117.6 294.8,117.5C294.3,117.4 293.8,117.4 293.3,117.4C292.3,117.4 291.4,117.6 290.5,118C289.7,118.4 289.1,119 288.5,119.7C288,120.5 287.6,121.3 287.4,122.2C287.2,123.2 287,124.2 287,125.2C287,126.3 287.1,127.5 287.5,128.5C287.8,129.3 288.2,130.1 288.8,130.7C289.4,131.2 290,131.6 290.8,131.9C291.6,132.1 292.4,132.3 293.3,132.3C293.8,132.3 294.3,132.3 294.8,132.2C295.3,132.1 295.8,132 296.3,131.9L296.4,117.8Z" style="fill:rgb(255,246,231);fill-rule:nonzero;"/>
        <path d="M219.6,70C214.8,70 210.6,66.8 209.4,62.2C200.4,64.6 195.2,73.9 197.6,82.9C200,91.9 209.3,97.1 218.3,94.7C221.8,93.7 224.9,91.7 227.2,88.8C223,83.4 220.5,76.9 220,70.1L219.6,70.1L219.6,70Z" style="fill:rgb(255,250,241);fill-rule:nonzero;"/>
        <path d="M220.1,62.8C220.7,58.4 222.1,54.1 224.4,50.2C219.2,47.5 212.9,49.6 210.2,54.7C209,57 208.7,59.7 209.4,62.2C212.9,61.2 216.7,61.4 220.1,62.8Z" style="fill:rgb(255,251,244);fill-rule:nonzero;"/>
        <path d="M219.6,70L219.9,70C219.8,69.1 219.8,68.3 219.8,67.4C219.8,65.9 219.9,64.3 220.1,62.8C216.7,61.4 212.9,61.2 209.4,62.2C210.6,66.8 214.8,70 219.6,70Z" style="fill:rgb(255,248,237);fill-rule:nonzero;"/>
        <path d="M290.3,54.2C289.1,54.2 287.9,54.3 286.7,54.5C292.2,68.1 288.5,83.7 277.5,93.4C287.2,100.4 300.7,98.3 307.8,88.6C314.9,78.9 312.7,65.4 303,58.3C299.3,55.6 294.8,54.2 290.3,54.2Z" style="fill:rgb(255,247,235);fill-rule:nonzero;"/>
        <path d="M268.6,75.8C268.6,65.2 276.3,56.1 286.7,54.4C279.5,36.6 259.3,28 241.5,35.1C234.3,38 228.2,43.3 224.3,50C229.5,52.7 231.5,59 228.8,64.2C228.2,65.4 227.4,66.4 226.4,67.2C231.7,73.3 231.9,82.2 227,88.5C238.8,103.6 260.6,106.3 275.7,94.6C276.3,94.2 276.8,93.7 277.4,93.2C271.9,89.3 268.6,82.8 268.6,75.8Z" style="fill:rgb(255,248,236);fill-rule:nonzero;"/>
        <path d="M226.6,67.4C224.8,69 222.4,70 220,70C220.5,76.8 223,83.3 227.2,88.7C232,82.4 231.8,73.4 226.6,67.4Z" style="fill:rgb(255,246,233);fill-rule:nonzero;"/>
        <path d="M226.6,67.4C230.9,63.5 231.3,56.9 227.5,52.5C226.6,51.5 225.6,50.7 224.5,50.1C222.3,54 220.8,58.3 220.2,62.7C222.6,63.8 224.8,65.3 226.6,67.4Z" style="fill:rgb(255,246,232);fill-rule:nonzero;"/>
        <path d="M220.1,62.8C219.9,64.3 219.8,65.9 219.8,67.4C219.8,68.3 219.8,69.2 219.9,70C222.4,69.9 224.7,69 226.5,67.4C224.8,65.3 222.6,63.8 220.1,62.8Z" style="fill:rgb(255,246,231);fill-rule:nonzero;"/>
        <path d="M289.2,67.4C289.2,63 288.4,58.6 286.7,54.5C274.9,56.5 266.9,67.6 268.9,79.4C269.8,85 272.9,90 277.5,93.4C285,86.8 289.2,77.3 289.2,67.4Z" style="fill:rgb(255,244,227);fill-rule:nonzero;"/>
    </g>
    <g id="sap">
        <path d="M71.4,173.9L73.6,173.9L80.6,185.6L80.6,182.9L80.6,173.9L82.3,173.9L82.3,187.7L80,187.7L73,176.1L73,187.7L71.4,187.7L71.4,173.9Z" style="fill:rgb(255,245,228);fill-rule:nonzero;"/>
        <path d="M86.8,187.2C86.1,186.7 85.5,186.1 85.2,185.3C84.8,184.4 84.6,183.4 84.6,182.4C84.6,181.4 84.8,180.4 85.1,179.5C85.4,178.7 86,178 86.7,177.6C87.5,177.1 88.4,176.9 89.3,176.9C90.6,176.8 92,177.3 92.8,178.4C93.6,179.6 94,181 94,182.4C94,183.4 93.8,184.4 93.4,185.3C93.1,186.1 92.5,186.8 91.8,187.2C91,187.7 90.1,187.9 89.2,187.9C88.4,187.9 87.5,187.7 86.8,187.2ZM91.4,185.4C92,184.5 92.2,183.5 92.2,182.4C92.3,181.3 92,180.3 91.5,179.4C91,178.7 90.2,178.4 89.4,178.4C88.6,178.4 87.8,178.7 87.2,179.4C86.6,180.3 86.3,181.3 86.4,182.4C86.4,183.2 86.5,183.9 86.8,184.6C87,185.1 87.3,185.6 87.8,185.9C88.2,186.2 88.7,186.3 89.2,186.3C90.1,186.4 90.9,186.1 91.4,185.4Z" style="fill:rgb(255,245,228);fill-rule:nonzero;"/>
        <path d="M94.9,177.1L96.6,177.1L98.4,184.3C98.5,184.5 98.5,184.9 98.6,185.3C98.7,185.7 98.8,186 98.8,186.2L99,185.4L99.2,184.4L101.1,177.2L103,177.2L104.9,184.8C105.1,185.5 105.2,186 105.2,186.2C105.2,186.1 105.2,186.1 105.2,186C105.2,185.9 105.2,185.8 105.3,185.7C105.4,185.3 105.5,184.9 105.6,184.4L107.5,177.2L109.2,177.2L106.2,187.8L104.2,187.8L102.5,181C102.4,180.7 102.3,180.3 102.2,179.8L102,178.7C102,178.8 101.9,179.1 101.8,179.6C101.7,180.1 101.6,180.6 101.5,181L99.8,187.8L97.8,187.8L94.9,177.1Z" style="fill:rgb(255,245,228);fill-rule:nonzero;"/>
        <path d="M116.2,179.3L116.2,177.2L117.9,177.2C117.9,177.2 117.9,177.4 118,177.8C118.1,178.2 118,178.4 118,178.7C118.7,177.6 120,176.9 121.3,177C122.1,177 123,177.2 123.6,177.7C124.2,178.2 124.7,178.9 125,179.6C125.3,180.5 125.5,181.4 125.4,182.4C125.4,183.4 125.3,184.3 125,185.2C124.7,186 124.2,186.7 123.6,187.2C122.9,187.7 122.1,188 121.2,187.9C120.5,187.9 119.9,187.8 119.3,187.5C118.7,187.3 118.3,186.8 118,186.3L118,191.9L116.2,191.9L116.2,179.3ZM123,185.3C123.5,184.4 123.7,183.4 123.7,182.4C123.8,181.4 123.5,180.4 123,179.6C122.6,178.9 121.8,178.5 121,178.5C120.2,178.5 119.4,178.8 118.9,179.4C118.2,180.3 117.9,181.4 118.1,182.5C118,183.5 118.3,184.6 118.9,185.4C119.4,186 120.2,186.4 121,186.3C121.8,186.4 122.6,186 123,185.3Z" style="fill:rgb(255,245,228);fill-rule:nonzero;"/>
        <path d="M128,187C127.4,186.4 127.1,185.6 127.2,184.7C127.1,183.7 127.6,182.7 128.5,182.2C129.5,181.7 130.6,181.4 131.8,181.4L133.9,181.4L133.9,180.8C133.9,180.2 133.7,179.6 133.3,179.1C132.9,178.7 132.3,178.4 131.7,178.5C131.2,178.5 130.6,178.6 130.2,178.9C129.6,179.2 129.1,179.6 128.7,180.1L127.6,179C128.1,178.4 128.7,178 129.3,177.6C130,177.2 130.9,177 131.7,177C132.4,177 133.1,177.1 133.8,177.5C134.4,177.8 134.8,178.2 135.1,178.8C135.4,179.4 135.6,180 135.5,180.7L135.5,185.6C135.5,186.4 135.5,187.2 135.6,187.8L134,187.8C133.9,187.3 133.9,186.8 133.9,186.2C133.6,186.7 133.1,187.2 132.5,187.5C131.9,187.8 131.2,188 130.5,187.9C129.6,187.9 128.7,187.6 128,187ZM132.5,186C132.9,185.8 133.3,185.4 133.5,185C133.7,184.6 133.9,184.2 133.9,183.7L133.9,182.7L132.2,182.7C131.4,182.7 130.6,182.9 129.9,183.2C129.3,183.5 129,184.1 129,184.7C129,185.2 129.2,185.6 129.5,185.9C129.9,186.2 130.4,186.4 130.9,186.3C131.4,186.4 132,186.3 132.5,186Z" style="fill:rgb(255,245,228);fill-rule:nonzero;"/>
        <path d="M138.4,179.6C138.4,178.5 138.4,177.7 138.4,177.1L140,177.1L140,178.8C140.2,178.2 140.5,177.7 141,177.3C141.4,177 141.9,176.8 142.4,176.8C142.7,176.8 143,176.8 143.3,176.9L143.2,178.6C142.9,178.5 142.6,178.5 142.4,178.5C141.7,178.5 141,178.9 140.7,179.5C140.3,180.3 140.1,181.2 140.1,182.1L140.1,187.6L138.3,187.6L138.4,179.6Z" style="fill:rgb(255,245,228);fill-rule:nonzero;"/>
        <path d="M145.3,185.4L145.3,178.5L144,178.5L144,177L145.3,177L145.4,174.8L147,174.6L147,177L149.3,177L149.3,178.5L147,178.5L147,185C147,185.3 147.1,185.7 147.3,185.9C147.6,186.1 147.9,186.2 148.2,186.2L148.7,186.2L149.1,186.1L149.3,186.1L149.5,187.6C149.2,187.7 148.9,187.7 148.6,187.8C148.3,187.8 148,187.9 147.7,187.9C146.5,188.1 145.4,187.3 145.3,186.1C145.2,185.9 145.2,185.7 145.3,185.4Z" style="fill:rgb(255,245,228);fill-rule:nonzero;"/>
        <path d="M158.3,187.2C157.6,186.7 157,186.1 156.7,185.3C156.3,184.4 156.1,183.4 156.1,182.4C156.1,181.4 156.3,180.4 156.6,179.5C156.9,178.7 157.5,178 158.2,177.6C159,177.1 159.9,176.9 160.8,176.9C162.1,176.8 163.5,177.3 164.3,178.4C165.1,179.6 165.5,181 165.5,182.4C165.5,183.4 165.3,184.4 165,185.3C164.7,186.1 164.1,186.8 163.4,187.2C162.6,187.7 161.7,187.9 160.8,187.9C159.9,187.9 159.1,187.7 158.3,187.2ZM163,185.4C164,183.5 164,181.3 163,179.4C162.5,178.7 161.7,178.4 160.9,178.4C160.1,178.4 159.3,178.7 158.8,179.4C158.2,180.3 157.9,181.3 158,182.4C158,183.2 158.1,183.9 158.4,184.6C158.6,185.1 158.9,185.6 159.4,185.9C159.8,186.2 160.3,186.3 160.9,186.3C161.6,186.5 162.5,186.1 163,185.4Z" style="fill:rgb(255,245,228);fill-rule:nonzero;"/>
        <path d="M168.2,178.6L166.8,178.6L166.8,177.1L168.2,177.1L168.2,176.1C168.2,175.3 168.4,174.6 168.9,174C169.4,173.4 170.2,173.1 171,173.2C171.5,173.2 172,173.3 172.5,173.4L172.3,174.9L171.8,174.8C171.6,174.8 171.4,174.8 171.2,174.8C170.8,174.8 170.5,174.9 170.3,175.2C170.1,175.6 170,176 170.1,176.4L170.1,177.2L172.4,177.2L172.4,178.7L170.1,178.7L170.1,187.8L168.3,187.8L168.3,178.6L168.2,178.6Z" style="fill:rgb(255,245,228);fill-rule:nonzero;"/>
        <path d="M185.8,203.7L231.5,203.7L276.3,159L185.8,159L185.8,203.7" style="fill:url(#_Linear1);fill-rule:nonzero;"/>
        <path d="M239.5,167.4L230.6,167.4L230.6,188.6L222.8,167.4L215.1,167.4L208.5,185.1C207.8,180.6 203.2,179.1 199.5,177.9C197.1,177.1 194.6,176 194.6,174.8C194.6,173.8 196,172.8 198.6,173C200.9,173.1 203.1,173.7 205.1,174.8L208.2,169.4C205.1,167.9 201.6,167.1 198.1,167C194.3,167 191.1,168.2 189.2,170.2C187.8,171.6 187.1,173.5 187.1,175.4C186.9,177.9 188.1,180.2 190.2,181.6C192.1,182.8 194.1,183.8 196.3,184.4C198.8,185.2 200.8,185.8 200.8,187.3C200.8,187.8 200.6,188.3 200.2,188.7C199.4,189.4 198.4,189.7 197.3,189.6C194.7,189.7 192.1,189 189.9,187.5L187.1,193C190.2,194.7 193.6,195.7 197.2,195.7L197.7,195.7C200.5,195.7 203.2,194.8 205.4,193.1C205.5,193 205.6,192.9 205.7,192.8L204.8,195.2L212.9,195.2L214.3,191.1C217.4,192.1 220.6,192.1 223.7,191.1L225,195.2L238,195.2L238,186.7L241,186.7C248,186.7 252.1,183.1 252.1,177.2C252,170.4 248,167.4 239.5,167.4ZM218.9,185.5C217.9,185.5 217,185.3 216,185L218.8,176.1L221.6,185C220.8,185.3 219.9,185.5 218.9,185.5ZM240,180.4L238,180.4L238,173.2L240,173.2C242.6,173.2 244.7,174.1 244.7,176.7C244.7,179.3 242.7,180.4 240,180.4" style="fill:rgb(35,31,32);fill-rule:nonzero;"/>
    </g>
    <defs>
        <linearGradient id="_Linear1" x1="0" y1="0" x2="1" y2="0" gradientUnits="userSpaceOnUse" gradientTransform="matrix(2.74076e-15,44.76,-44.76,2.74076e-15,231.06,158.96)"><stop offset="0" style="stop-color:rgb(255,248,237);stop-opacity:1"/><stop offset="1" style="stop-color:rgb(255,246,232);stop-opacity:1"/></linearGradient>
    </defs>
</svg>
