<?xml version="1.0" encoding="utf-8"?>
<!-- Generator: Adobe Illustrator 22.1.0, SVG Export Plug-In . SVG Version: 6.00 Build 0)  -->
<svg version="1.1" id="Layer_1" xmlns="http://www.w3.org/2000/svg" xmlns:xlink="http://www.w3.org/1999/xlink" x="0px" y="0px"
	 viewBox="0 0 240 100" style="enable-background:new 0 0 240 100;" xml:space="preserve">
<style type="text/css">
	.st0{opacity:0.8;fill:#FFF4E2;}
	.st1{fill:#FFF4E2;}
</style>
<g>
	<g>
		<path class="st0" d="M50.7,29.9c-2.7,0.3-6.3,2.2-8.3,4.4c-0.8,0.9-1,1.1-1.5,1.8c-5.1,7.2-2.8,17.2,4.9,21.6
			c4,2.3,9,2.6,13.1,0.8c0.9-0.4,2.7-1.4,2.8-1.5c0-0.1,0.3-0.3,0.6-0.5c4.3-2.9,7.5-11.8,4.8-13.6l-0.6-0.4h-7h-7l-0.5,0.4
			c-1.2,0.9-1.3,2.5-0.2,3.5l0.5,0.5l5.5,0.1l5.5,0.1l0,0.5c0,0.3-0.2,0.8-0.4,1.2c-0.2,0.4-0.4,0.8-0.4,0.8c0,0.2-1.1,1.7-1.6,2.3
			c-4,4.3-10.9,4.5-15,0.3c-4.5-4.5-4.1-11.8,1-15.7c0.4-0.3,0.8-0.6,0.9-0.6c0,0,0.3-0.1,0.6-0.3c2.4-1.5,6.7-1.5,9.6-0.1
			c0.8,0.4,1.5,0.9,2.4,1.7c1.7,1.5,4,0.7,4-1.3c0-1-0.2-1.4-1.7-2.6c-1.2-1-2.3-1.7-3.6-2.2C56.7,29.8,53.8,29.5,50.7,29.9"/>
		<path class="st1" d="M51,20.4c-1.6,0.2-3.4,0.5-3.8,0.7c-0.2,0.1-0.6,0.2-0.8,0.2c-0.4,0.1-0.8,0.2-1.4,0.5
			c-0.2,0.1-0.5,0.2-0.6,0.2c-0.1,0-0.4,0.1-0.6,0.2c-0.4,0.2-1.1,0.5-1.5,0.7c-0.1,0-0.5,0.3-0.9,0.5c-0.4,0.2-0.8,0.4-0.9,0.5
			c-0.1,0-0.4,0.3-0.7,0.5c-0.3,0.2-0.5,0.4-0.6,0.4c-0.1,0-0.3,0.1-0.5,0.3c-0.2,0.2-0.4,0.3-0.5,0.3c-0.1,0-0.2,0.1-0.3,0.2
			c-0.1,0.1-0.4,0.4-0.6,0.6c-1.2,1-4.4,4.6-4.4,5c0,0.1,0,0.1-0.1,0.1c-0.1,0-0.2,0.1-0.3,0.3c-0.1,0.2-0.3,0.6-0.5,1
			c-0.2,0.4-0.4,0.8-0.5,1c-0.1,0.2-0.3,0.6-0.5,1c-0.6,1.3-0.7,1.7-0.7,1.9c0,0.1-0.1,0.2-0.1,0.3c-0.1,0-0.1,0.2-0.1,0.4
			c0,0.1-0.1,0.5-0.2,0.7c-0.3,0.6-0.5,1.7-0.9,4.3c-0.2,1.2-0.2,4,0,5.1c0.1,0.5,0.2,1.2,0.2,1.5c0.2,1.3,0.4,2.3,0.6,2.6
			c0.1,0.2,0.2,0.5,0.2,0.7c0,0.2,0.1,0.4,0.1,0.4c0.1,0.1,0.2,0.5,0.4,0.9c0.2,0.7,0.6,1.4,1.2,2.6c0.1,0.2,0.5,0.9,0.9,1.5
			c0.4,0.6,0.7,1.1,0.7,1.2c0,0.1,0.1,0.2,0.3,0.4c0.2,0.2,0.4,0.4,0.5,0.6c0.2,0.3,1.4,1.7,2,2.3c0.2,0.2,0.7,0.8,1.2,1.3
			c0.5,0.5,1.2,1.3,1.5,1.7c0.9,0.9,0.8,0.8,1.8,2c0.5,0.5,0.9,1,0.9,1.1c0.2,0.2,1.9,2,2.4,2.7c0.4,0.4,0.9,1,1.2,1.3
			c0.3,0.3,0.9,1,1.4,1.5c0.5,0.5,1.1,1.2,1.3,1.5c0.7,0.8,0.7,0.8,1.2,1.4c2.8,3.3,2.9,3.3,3.8,3.3h0.8l1.2-1.3
			c0.7-0.7,1.4-1.5,1.6-1.8c0.2-0.2,0.6-0.7,0.8-0.9c0.5-0.5,2.1-2.4,2.9-3.2c0.2-0.2,0.7-0.8,1.1-1.3c0.4-0.5,1-1.1,1.3-1.4
			c0.3-0.3,0.6-0.6,0.6-0.6c0,0,0.1-0.2,0.2-0.3c0.1-0.1,0.7-0.8,1.3-1.4c0.6-0.6,1.2-1.3,1.4-1.5c0.2-0.2,0.6-0.7,0.9-1.1
			c0.3-0.4,1-1.1,1.4-1.5c1.2-1.2,2.6-2.8,3-3.3c0.2-0.2,0.4-0.4,0.5-0.5s0.2-0.2,0.2-0.3c0-0.1,0-0.2,0.1-0.2
			c0.1,0,0.2-0.2,0.4-0.5c0.2-0.3,0.4-0.5,0.4-0.6c0,0,0.1-0.2,0.2-0.3c0.1-0.1,0.3-0.5,0.5-0.9c0.2-0.4,0.5-0.8,0.5-1
			c0.1-0.2,0.2-0.4,0.3-0.4c0.1,0,0.1-0.1,0.1-0.2c0-0.1,0.1-0.4,0.2-0.6c0.3-0.6,0.6-1.3,1.1-2.7c0.7-1.9,1.4-7.2,1.1-8
			c-0.6-1.6-2.2-2-3.4-1l-0.6,0.6l-0.1,1.2c-0.2,2-0.3,3.2-0.5,3.9c-0.3,1.2-0.9,3-1.3,3.8c-0.8,1.6-1.2,2.4-1.3,2.4
			c-0.1,0-0.1,0.1-0.1,0.1c0,0.1-0.4,0.7-0.9,1.4c-1.7,2.2-4,4.3-6,5.4c-0.2,0.1-0.4,0.2-0.5,0.3c-0.1,0.1-1.8,0.9-1.9,0.9
			c0,0-0.3,0.1-0.5,0.2c-0.8,0.3-1.3,0.5-1.9,0.6c-0.3,0.1-0.6,0.1-0.7,0.2c-0.8,0.5-7.8,0.5-8.8,0c-0.1-0.1-0.4-0.1-0.6-0.1
			c-0.3,0-1.5-0.4-1.9-0.6c-0.2-0.1-0.4-0.2-0.6-0.2c-0.2,0-0.3-0.1-0.3-0.1c0-0.1-0.1-0.1-0.2-0.1c-1.2,0-5.7-3.4-7.4-5.6
			c-0.3-0.3-0.5-0.7-0.6-0.7c-0.3-0.3-0.7-1-0.7-1.1c0-0.1-0.1-0.1-0.1-0.1c-0.1,0-1.3-2.4-1.3-2.6c0-0.1,0-0.1-0.1-0.2
			c-0.1,0-0.3-0.5-0.5-1c-0.4-1-0.4-1.2-0.7-2.8c-0.1-0.4-0.2-1-0.3-1.3c-0.1-0.3-0.2-1.4-0.2-2.6c0-1.9,0.1-2.5,0.5-4.2
			c0.1-0.3,0.2-0.8,0.2-1.1c0.1-0.3,0.2-0.7,0.3-0.8c0.1-0.2,0.2-0.4,0.2-0.5c0-0.1,0.2-0.7,0.5-1.3c0.3-0.6,0.6-1.2,0.6-1.3
			c0-0.1,0.2-0.4,0.3-0.6c0.1-0.2,0.3-0.5,0.3-0.6c0-0.1,0.1-0.2,0.2-0.2c0.1,0,0.1-0.1,0.1-0.2c0-0.1,0.1-0.3,0.3-0.5
			c0.2-0.2,0.4-0.5,0.6-0.8c0.4-0.6,2.5-2.8,3.4-3.5c0.9-0.7,2.8-2,3-2c0.1,0,0.2-0.1,0.3-0.2c0.1-0.1,0.2-0.2,0.3-0.2
			c0.1,0,0.4-0.1,0.8-0.3c0.9-0.4,1.6-0.7,2.6-0.9c0.5-0.1,1-0.3,1.2-0.4c1-0.4,7.9-0.4,8.3,0c0.1,0.1,0.3,0.1,0.5,0.1
			c0.2,0,0.6,0.1,0.9,0.2c0.3,0.1,0.8,0.3,1.1,0.3c1.1,0.3,2.9,1.2,3.6,1.7c0.2,0.2,0.5,0.3,0.5,0.3c0.2,0,2.2,1.6,3,2.3
			c1.3,1.3,2.6,1.4,3.6,0.4c1.5-1.6,0.3-3.3-4.7-6.6c-0.1-0.1-0.3-0.2-0.5-0.3c-0.1,0-0.4-0.2-0.7-0.4c-0.3-0.2-0.9-0.5-1.5-0.7
			c-0.6-0.2-1.2-0.5-1.5-0.6c-0.2-0.1-0.5-0.2-0.6-0.2c-0.1,0-0.2-0.1-0.3-0.1c0-0.1-0.3-0.1-0.5-0.1c-0.2,0-0.6-0.1-0.8-0.2
			C58,20.6,53,20.2,51,20.4"/>
	</g>
	<path class="st1" d="M96.5,41.1c-1.5,0.3-3.2,1.2-4.1,2.2c-1.3,1.3-1.4,1.4-1.7,2.2c-0.2,0.4-0.5,1.1-0.6,1.4
		c-1.1,2.1-0.1,6.2,2.1,8.5c3.1,3.4,9.1,3.6,12,0.4c1.4-1.6,0.1-2.8-1.7-1.5c-1.6,1.1-2.3,1.4-4.1,1.4c-1.6,0-3.3-0.5-3.3-0.9
		c0-0.1-0.1-0.2-0.3-0.2c-0.3,0-1.9-1.8-1.9-2.1c0-0.1-0.1-0.3-0.2-0.3c-0.7,0-0.7-4-0.1-5.4c0.6-1.2,2.3-2.8,3.6-3.3
		c1.5-0.6,5.3-0.2,5.3,0.5c0,0.1,0.1,0.2,0.3,0.2c0.1,0,0.4,0.2,0.6,0.4c0.5,0.5,1.3,0.5,1.9-0.1c0.6-0.6,0.6-0.8-0.4-1.6
		C102,41.3,99.1,40.5,96.5,41.1"/>
	<path class="st1" d="M176,41.1c-0.6,0.1-1.2,0.3-1.4,0.5c-0.2,0.1-0.6,0.2-0.8,0.2c-0.2,0-0.3,0.1-0.3,0.2c0,0.1-0.3,0.4-0.8,0.6
		c-0.4,0.3-1.1,0.9-1.4,1.4c-0.4,0.5-0.8,1-1,1.2c-0.1,0.2-0.3,0.4-0.3,0.5c0,0.1-0.1,0.5-0.3,0.8c-0.5,0.9-0.8,3.1-0.5,4
		c0.1,0.4,0.2,1.1,0.2,1.4c0,0.3,0.1,0.8,0.3,1c0.2,0.2,0.3,0.5,0.3,0.6c0,0.1,0.1,0.4,0.2,0.5c0.1,0.1,0.5,0.6,0.9,1.1
		c3.6,4.4,11.5,3.9,13.9-1c0.1-0.3,0.4-0.6,0.5-0.8c0.1-0.2,0.4-1.1,0.6-2l0.4-1.7l-0.5-0.5c-0.4-0.5-0.5-0.5-3.9-0.5h-3.5l-0.4,0.6
		c-0.4,0.5-0.4,0.6-0.1,1.1c0.5,0.8,0.6,0.8,3.1,0.8c2.7,0,2.8,0.1,2,1.5c-2.1,3.7-7.4,4.3-10.1,1.2c-5-5.7,2.2-13.8,8.4-9.3
		c1.4,1,2.5,0.6,2.2-0.8c-0.1-0.5-1.6-1.8-2.2-1.8c-0.1,0-0.4-0.1-0.7-0.3C180.1,40.9,177.6,40.7,176,41.1"/>
	<path class="st1" d="M127.8,45.9c-0.1-0.2-0.4-0.8-0.6-1.2c-0.4-0.9-2.3-2.9-2.8-2.9c-0.2,0-0.5-0.1-0.6-0.3
		c-0.8-0.6-2.9-0.9-4.5-0.4c-2,0.5-4.9,2.8-4.9,3.9c0,0.1-0.1,0.4-0.3,0.8c-0.5,1-0.4,11.1,0.1,11.6c1.1,1,1.7,0.2,1.8-2.3
		c0.1-2.5-0.3-2.3,5.1-2.3c5.4,0,5-0.2,4.9,2.5c-0.1,2.3,0.7,3.2,1.8,2.1C128.2,56.7,128.3,46.8,127.8,45.9z M120.7,50.2l-4.7-0.1
		l-0.1-1.3c-0.2-4,3.7-6.9,6.9-5.2c2,1.1,2.8,2.4,3,4.9C126,50.3,126.2,50.2,120.7,50.2z"/>
	<path class="st1" d="M148.2,50.8c3-2,3.5-5.6,1.1-8.3c-0.3-0.4-0.7-0.7-0.8-0.7c-0.1,0-0.4-0.1-0.5-0.3c-0.9-0.8-9.3-1.1-10-0.3
		c-0.6,0.6-0.6,15.6,0,16.1c1.2,1.1,1.8,0.2,1.8-2.9c0-3.1-0.1-3,2.7-3h2.2l0.4,0.6c0.2,0.3,0.4,0.7,0.4,0.7c0,0.1,0.2,0.4,0.5,0.8
		c0.3,0.4,0.5,0.7,0.5,0.8c0,0.1,0.3,0.5,0.6,1c0.3,0.5,0.6,1,0.6,1.1c0,0.3,1.1,1.3,1.4,1.3c1.4,0,1.2-1.4-0.3-3.9
		C147.4,51.3,147.4,51.4,148.2,50.8z M147.1,48.7c-0.7,0.5-6.1,0.7-6.9,0.3c-0.5-0.3-0.7-5.5-0.2-5.7c0.7-0.3,6.4-0.1,6.9,0.2
		C149,44.8,149.1,47.3,147.1,48.7z"/>
	<path class="st1" d="M210.8,47.9c-0.1-0.1-0.2-0.4-0.3-0.8c-0.2-0.8-0.8-2.2-1-2.2c-0.1,0-0.2-0.1-0.2-0.3c0-0.3-1.9-2.3-2.4-2.5
		c-0.2-0.1-0.4-0.2-0.4-0.3c0-0.1-0.1-0.2-0.3-0.2c-0.2,0-0.5-0.1-0.8-0.2c-1.2-0.7-3.2-0.8-5-0.5c-0.6,0.1-1.3,0.3-1.5,0.5
		c-0.2,0.1-0.5,0.2-0.7,0.2c-0.7,0-3.8,3.1-3.8,3.9c0,0.2-0.1,0.4-0.2,0.5c-1,1-1,5.8,0,6.8c0.1,0.1,0.2,0.4,0.2,0.6
		c0,0.2,0.1,0.4,0.2,0.4c0.1,0,0.2,0.2,0.3,0.4c0.8,2.4,5.7,4.5,8.8,3.8c2.2-0.5,4.9-2.1,4.9-2.9c0-0.1,0.1-0.2,0.3-0.3
		c0.2-0.1,0.3-0.2,0.3-0.4s0.1-0.4,0.3-0.6C210.5,52.9,211.4,48.3,210.8,47.9z M208.1,51.9c-0.5,1.2-1.8,2.7-2.3,2.7
		c-0.1,0-0.3,0.1-0.3,0.2c0,0.9-4.3,1.2-5.9,0.4c-1-0.5-3.1-2.4-3.1-2.9c0-0.1-0.1-0.5-0.3-0.8c-0.2-0.4-0.3-1.1-0.3-2
		c0-0.9,0.1-1.6,0.3-2c0.2-0.3,0.3-0.7,0.3-0.9c0-0.5,2.5-2.8,3.4-3.1c1.2-0.4,3.3-0.5,4.5,0C207.7,44.7,209.5,48.9,208.1,51.9z"/>
	<path class="st0" d="M159.5,44.5c-1.1,0.4-1.3,1.8-0.4,2.5c1.5,1.3,3.4-0.7,1.9-2.2C160.4,44.3,160.1,44.2,159.5,44.5"/>
	<path class="st0" d="M159.1,51.6c-1,1-0.4,2.5,1,2.5c1.6,0,2-2.3,0.6-3C159.9,50.8,159.8,50.9,159.1,51.6"/>
</g>
</svg>
