<svg clip-rule="evenodd" fill-rule="evenodd" stroke-linejoin="round" stroke-miterlimit="1.41421" viewBox="0 0 240 100" xmlns="http://www.w3.org/2000/svg" xmlns:xlink="http://www.w3.org/1999/xlink"><clipPath id="a"><path clip-rule="evenodd" d="m61.3 62.9c-.6 0-1.1-.5-1.1-1.1 0-.4.2-.8.5-1l-1.5-2.1c0 .1.1.2.1.3 0 .6-.5 1.1-1.1 1.1s-1.1-.5-1.1-1.1.5-1.1 1.1-1.1c.3 0 .5.1.7.2l-1-1.4c-1.1.7-1.9 1.1-2.8 1.4.6 0 1.1.5 1.1 1.1s-.5 1.1-1.1 1.1-1.1-.5-1.1-1.1c0-.4.2-.7.5-.9-.4.1-.9.2-1.4.2-2.7 0-4.6-1.2-4.6-6.8 0-5.7 1.7-7.5 4.7-7.5 1.4 0 2.6.4 4 1.2.1-.5.6-.9 1.1-.9.3 0 .6.1.8.3l1.6-2.3c-.3-.2-.4-.5-.4-.9 0-.6.5-1.1 1.1-1.1.2 0 .4.1.6.2l.5-.7c-.3-.2-.5-.4-.8-.6h-.3c-.6 0-1.1-.4-1.1-1-1.3-.8-2.7-1.4-4.3-1.7-.2.2-.5.3-.8.3-.4 0-.8-.2-1-.6-.3 0-.7-.1-1-.1v-.1c0-.6-.5-1.1-1.1-1.1s-1.1.5-1.1 1.1v.2c0 .1 0 .1 0 0-.3 0-.6.1-.9.1 0-.6-.5-1.1-1.1-1.1s-1.1.5-1.1 1.1c0 .1 0 .3.1.4s.1.1 0 0c-.4.1-.7.2-1 .3.1-.1.1-.3.1-.4 0-.6-.5-1.1-1.1-1.1s-1.1.5-1.1 1.1c0 .5.3.9.7 1 .2-.1.2-.1 0 0-.9.4-1.7.9-2.4 1.5.5.1.8.6.8 1.1 0 .6-.5 1.1-1.1 1.1-.5 0-1-.4-1.1-.9-.7.7-1.2 1.5-1.7 2.3.2 0 .2 0 0 0-.1.2-.1.2 0 0h-.3c-.6 0-1.1.5-1.1 1.1 0 .4.2.7.4.9-.8 2-1.2 4.2-1.2 6.7 0 2 .3 3.8.8 5.5.1-.5.6-.8 1.1-.8.6 0 1.1.5 1.1 1.1s-.5 1.1-1.1 1.1c-.2 0-.4-.1-.6-.2.2.4.4.9.6 1.3.6 0 1.1.5 1.1 1.1 0 .2 0 .3-.1.4.5.6.9 1.1 1.5 1.7.2-.1.4-.2.6-.2.6 0 1.1.5 1.1 1.1 0 .1 0 .2-.1.3 1.2.8 2.6 1.4 4.2 1.8.2-.3.6-.6 1-.6.6 0 1 .4 1.1 1 .3 0 .6.1.9.1v-.3c0-.6.5-1.1 1.1-1.1s1.1.5 1.1 1.1v.3c.4 0 .7 0 1.1-.1-.1-.2-.1-.3-.1-.6 0-.6.5-1.1 1.1-1.1s1.1.5 1.1 1.1v.2c.3-.1.6-.2.9-.2v-.3c0-.6.5-1.1 1.1-1.1.4 0 .8.3 1 .6.4-.2.8-.4 1.1-.6.2-.4.6-.6 1-.6.4-.3.7-.5 1.1-.8l-.7-.1c-.2.1-.5.2-.7.2zm-3.2-24.9c.6 0 1.1.5 1.1 1.1s-.5 1.1-1.1 1.1-1.1-.5-1.1-1.1.5-1.1 1.1-1.1zm0 3.3c.6 0 1.1.5 1.1 1.1s-.5 1.1-1.1 1.1-1.1-.5-1.1-1.1.5-1.1 1.1-1.1zm-3.1-3c.6 0 1.1.5 1.1 1.1s-.5 1.1-1.1 1.1-1.1-.5-1.1-1.1.5-1.1 1.1-1.1zm0 3.3c.6 0 1.1.5 1.1 1.1s-.5 1.1-1.1 1.1-1.1-.5-1.1-1.1.5-1.1 1.1-1.1zm-15.6 13.8c-.6 0-1.1-.5-1.1-1.1s.5-1.1 1.1-1.1 1.1.5 1.1 1.1-.5 1.1-1.1 1.1zm0-3.4c-.6 0-1.1-.5-1.1-1.1s.5-1.1 1.1-1.1 1.1.5 1.1 1.1-.5 1.1-1.1 1.1zm0-3.3c-.6 0-1.1-.5-1.1-1.1s.5-1.1 1.1-1.1 1.1.5 1.1 1.1-.5 1.1-1.1 1.1zm3.1 13c-.6 0-1.1-.5-1.1-1.1s.5-1.1 1.1-1.1 1.1.5 1.1 1.1c.1.6-.4 1.1-1.1 1.1zm0-3.3c-.6 0-1.1-.5-1.1-1.1s.5-1.1 1.1-1.1 1.1.5 1.1 1.1c.1.6-.4 1.1-1.1 1.1zm0-3.4c-.6 0-1.1-.5-1.1-1.1s.5-1.1 1.1-1.1 1.1.5 1.1 1.1c.1.6-.4 1.1-1.1 1.1zm0-6.6c-.6 0-1.1-.5-1.1-1.1s.5-1.1 1.1-1.1 1.1.5 1.1 1.1c.1.6-.4 1.1-1.1 1.1zm0-3.3c-.6 0-1.1-.5-1.1-1.1s.5-1.1 1.1-1.1 1.1.5 1.1 1.1c.1.6-.4 1.1-1.1 1.1zm9.4-3.2c.6 0 1.1.5 1.1 1.1s-.5 1.1-1.1 1.1-1.1-.5-1.1-1.1.5-1.1 1.1-1.1zm-3.1-3c.6 0 1.1.5 1.1 1.1s-.5 1.1-1.1 1.1-1.1-.5-1.1-1.1.5-1.1 1.1-1.1zm0 3.3c.6 0 1.1.5 1.1 1.1s-.5 1.1-1.1 1.1-1.1-.5-1.1-1.1.5-1.1 1.1-1.1zm-3.1 19.2c-.6 0-1.1-.5-1.1-1.1s.5-1.1 1.1-1.1 1.1.5 1.1 1.1-.5 1.1-1.1 1.1zm0-6.7c-.6 0-1.1-.5-1.1-1.1s.5-1.1 1.1-1.1 1.1.5 1.1 1.1-.5 1.1-1.1 1.1zm0-3.3c-.6 0-1.1-.5-1.1-1.1s.5-1.1 1.1-1.1 1.1.5 1.1 1.1-.5 1.1-1.1 1.1zm0-3.3c-.6 0-1.1-.5-1.1-1.1s.5-1.1 1.1-1.1 1.1.5 1.1 1.1-.5 1.1-1.1 1.1zm0-6.7c-.6 0-1.1-.5-1.1-1.1s.5-1.1 1.1-1.1 1.1.5 1.1 1.1-.5 1.1-1.1 1.1zm3.1 23c-.6 0-1.1-.5-1.1-1.1s.5-1.1 1.1-1.1 1.1.5 1.1 1.1-.5 1.1-1.1 1.1zm0-3.3c-.6 0-1.1-.5-1.1-1.1s.5-1.1 1.1-1.1 1.1.5 1.1 1.1-.5 1.1-1.1 1.1zm3.1 3c-.6 0-1.1-.5-1.1-1.1s.5-1.1 1.1-1.1 1.1.5 1.1 1.1-.5 1.1-1.1 1.1zm6.2-.6c-.6 0-1.1-.5-1.1-1.1s.5-1.1 1.1-1.1 1.1.5 1.1 1.1c.1.6-.4 1.1-1.1 1.1z"/></clipPath><clipPath id="b"><path clip-rule="evenodd" d="m88.2 45.4c0-.6.5-1.1 1.1-1.1.2 0 .4.1.6.2 0-.5 0-.9-.1-1.4-.1.1-.3.1-.5.1-.6 0-1.1-.5-1.1-1.1s.5-1.1 1.1-1.1c-.2-.5-.4-.9-.7-1.3-.2-.1-.3-.3-.4-.5-1-1.3-2.4-2.2-4.2-2.5-.2 0-.2 0 0 0 .1-.2.2-.4.2-.6 0-.6-.5-1.1-1.1-1.1s-1.1.5-1.1 1.1c0 .1 0 .3.1.4-.3 0-.7 0-1 .1-.1.5-.5.9-1.1.9-.4 0-.7-.2-.9-.5-1.5.5-2.9 1.4-4.3 2.8.1.2.1.3.1.5 0 .6-.5 1.1-1.1 1.1s-1.1-.5-1.1-1.1.5-1.1 1.1-1.1c.3 0 .5.1.7.2v-1.6c-.2.1-.4.2-.7.2-.6 0-1.1-.5-1.1-1.1s.5-1.1 1.1-1.1c.3 0 .5.1.7.2v-8.2c-.2.1-.4.2-.7.2-.6 0-1.1-.5-1.1-1.1s.5-1.1 1.1-1.1c.3 0 .5.1.7.2v-.7l-10.5 1.2v.4c-.4.2-.8.6-.8 1.1s.3.9.8 1.1c.1 0 .1 0 0 0v1.2c-.4.2-.8.6-.8 1.1s.3.9.8 1.1v1.2c-.4.2-.8.6-.8 1.1s.3.9.8 1.1v1.2c.1 0 .2-.1.4-.1.6 0 1.1.5 1.1 1.1s-.5 1.1-1.1 1.1c-.1 0-.2 0-.4-.1v1.2c.1 0 .2-.1.4-.1.6 0 1.1.5 1.1 1.1s-.5 1.1-1.1 1.1c-.1 0-.2 0-.4-.1v1.2c.1 0 .2-.1.4-.1.6 0 1.1.5 1.1 1.1s-.5 1.1-1.1 1.1c-.1 0-.2 0-.4-.1v1.2c-.4.2-.8.6-.8 1.1s.3.9.8 1.1c.1 0 .1 0 0 0v1.2c.1 0 .2-.1.4-.1.6 0 1.1.5 1.1 1.1s-.5 1.1-1.1 1.1c-.1 0-.2 0-.4-.1v4.3c.1 0 .2-.1.4-.1.6 0 1.1.5 1.1 1.1s-.5 1.1-1.1 1.1c-.1 0-.2 0-.4-.1v1.4c.1 0 .2-.1.4-.1.6 0 1.1.5 1.1 1.1s-.5 1.1-1.1 1.1c-.1 0-.2 0-.4-.1v3.4h10.4v-1.1c-.2.2-.4.2-.7.2-.6 0-1.1-.5-1.1-1.1s.5-1.1 1.1-1.1c.3 0 .5.1.7.2v-1.6c-.2.1-.4.2-.7.2-.6 0-1.1-.5-1.1-1.1s.5-1.1 1.1-1.1c.3 0 .5.1.7.2v-8.2c-.2.2-.4.2-.7.2-.6 0-1.1-.5-1.1-1.1s.5-1.1 1.1-1.1c.3 0 .5.1.7.2v-1.6c-.2.1-.4.2-.7.2-.6 0-1.1-.5-1.1-1.1s.5-1.1 1.1-1.1c.4 0 .8.2 1 .6.7-.9 1.3-1.6 2-2-.5-.1-.9-.5-.9-1.1s.5-1.1 1.1-1.1 1.1.5 1.1 1.1c0 .3-.1.5-.3.7h.3c.9 0 1.6.5 1.6 2.7v11.9c.1-.1.3-.1.5-.1.6 0 1.1.5 1.1 1.1s-.5 1.1-1.1 1.1c-.2 0-.3 0-.5-.1v1.9c.1-.1.3-.1.5-.1.6 0 1.1.5 1.1 1.1s-.5 1.1-1.1 1.1c-.2 0-.3 0-.5-.1v1.3c.1-.1.3-.1.5-.1.3 0 .6.2.8.4h1.2c.2-.4.6-.7 1-.7.5 0 .9.3 1 .7h1c.1-.6.5-1 1.1-1s1 .4 1.1 1h.9v-.2c0-.6.5-1.1 1.1-1.1.2 0 .4.1.6.2v-8.1c-.2.1-.4.2-.6.2-.6 0-1.1-.5-1.1-1.1s.5-1.1 1.1-1.1c.2 0 .4.1.6.2v-1.4c-.2.1-.4.2-.6.2-.6 0-1.1-.5-1.1-1.1s.5-1.1 1.1-1.1c.2 0 .4.1.6.2v-4.8c-.2.1-.4.2-.6.2-.6-.2-1.1-.7-1.1-1.4zm-20.7 19.9c-.6 0-1.1-.5-1.1-1.1s.5-1.1 1.1-1.1 1.1.5 1.1 1.1-.5 1.1-1.1 1.1zm0-3.3c-.6 0-1.1-.5-1.1-1.1s.5-1.1 1.1-1.1 1.1.5 1.1 1.1-.5 1.1-1.1 1.1zm0-3.3c-.6 0-1.1-.5-1.1-1.1s.5-1.1 1.1-1.1 1.1.5 1.1 1.1-.5 1.1-1.1 1.1zm0-3.3c-.6 0-1.1-.5-1.1-1.1s.5-1.1 1.1-1.1 1.1.5 1.1 1.1-.5 1.1-1.1 1.1zm0-3.4c-.6 0-1.1-.5-1.1-1.1s.5-1.1 1.1-1.1 1.1.5 1.1 1.1-.5 1.1-1.1 1.1zm0-3.3c-.6 0-1.1-.5-1.1-1.1s.5-1.1 1.1-1.1 1.1.5 1.1 1.1-.5 1.1-1.1 1.1zm0-6.7c-.6 0-1.1-.5-1.1-1.1s.5-1.1 1.1-1.1 1.1.5 1.1 1.1-.5 1.1-1.1 1.1zm0-3.3c-.6 0-1.1-.5-1.1-1.1s.5-1.1 1.1-1.1 1.1.5 1.1 1.1-.5 1.1-1.1 1.1zm0-3.3c-.6 0-1.1-.5-1.1-1.1s.5-1.1 1.1-1.1 1.1.5 1.1 1.1-.5 1.1-1.1 1.1zm0-3.4c-.6 0-1.1-.5-1.1-1.1s.5-1.1 1.1-1.1 1.1.5 1.1 1.1-.5 1.1-1.1 1.1zm0-3.3c-.6 0-1.1-.5-1.1-1.1s.5-1.1 1.1-1.1 1.1.5 1.1 1.1-.5 1.1-1.1 1.1zm3.1 36.3c-.6 0-1.1-.5-1.1-1.1s.5-1.1 1.1-1.1 1.1.5 1.1 1.1-.5 1.1-1.1 1.1zm0-3.3c-.6 0-1.1-.5-1.1-1.1s.5-1.1 1.1-1.1 1.1.5 1.1 1.1-.5 1.1-1.1 1.1zm0-3.3c-.6 0-1.1-.5-1.1-1.1s.5-1.1 1.1-1.1 1.1.5 1.1 1.1-.5 1.1-1.1 1.1zm0-6.7c-.6 0-1.1-.5-1.1-1.1s.5-1.1 1.1-1.1 1.1.5 1.1 1.1-.5 1.1-1.1 1.1zm0-3.3c-.6 0-1.1-.5-1.1-1.1s.5-1.1 1.1-1.1 1.1.5 1.1 1.1-.5 1.1-1.1 1.1zm0-6.7c-.6 0-1.1-.5-1.1-1.1s.5-1.1 1.1-1.1 1.1.5 1.1 1.1-.5 1.1-1.1 1.1zm0-3.3c-.6 0-1.1-.5-1.1-1.1s.5-1.1 1.1-1.1 1.1.5 1.1 1.1-.5 1.1-1.1 1.1zm0-6.7c-.6 0-1.1-.5-1.1-1.1s.5-1.1 1.1-1.1 1.1.5 1.1 1.1-.5 1.1-1.1 1.1zm0-3.3c-.6 0-1.1-.5-1.1-1.1s.5-1.1 1.1-1.1 1.1.5 1.1 1.1-.5 1.1-1.1 1.1zm3.1 16.4c-.6 0-1.1-.5-1.1-1.1s.5-1.1 1.1-1.1 1.1.5 1.1 1.1c.1.6-.4 1.1-1.1 1.1zm8.4-8.3c.1.3.1.3 0 0zm-2.1 7.6c-.6 0-1.1-.5-1.1-1.1s.5-1.1 1.1-1.1 1.1.5 1.1 1.1-.5 1.1-1.1 1.1zm0-3.3c-.6 0-1.1-.5-1.1-1.1s.5-1.1 1.1-1.1 1.1.5 1.1 1.1-.5 1.1-1.1 1.1zm3.1 19.7c-.6 0-1.1-.5-1.1-1.1s.5-1.1 1.1-1.1 1.1.5 1.1 1.1-.5 1.1-1.1 1.1zm0-3.3c-.6 0-1.1-.5-1.1-1.1s.5-1.1 1.1-1.1 1.1.5 1.1 1.1-.5 1.1-1.1 1.1zm0-3.4c-.6 0-1.1-.5-1.1-1.1s.5-1.1 1.1-1.1 1.1.5 1.1 1.1-.5 1.1-1.1 1.1zm0-3.3c-.6 0-1.1-.5-1.1-1.1s.5-1.1 1.1-1.1 1.1.5 1.1 1.1-.5 1.1-1.1 1.1zm0-3.3c-.6 0-1.1-.5-1.1-1.1s.5-1.1 1.1-1.1 1.1.5 1.1 1.1-.5 1.1-1.1 1.1zm3.1 16.3c-.6 0-1.1-.5-1.1-1.1s.5-1.1 1.1-1.1 1.1.5 1.1 1.1c.1.6-.4 1.1-1.1 1.1zm0-6.6c-.6 0-1.1-.5-1.1-1.1s.5-1.1 1.1-1.1 1.1.5 1.1 1.1c.1.6-.4 1.1-1.1 1.1zm0-3.4c-.6 0-1.1-.5-1.1-1.1s.5-1.1 1.1-1.1 1.1.5 1.1 1.1c.1.6-.4 1.1-1.1 1.1zm0-6.6c-.6 0-1.1-.5-1.1-1.1s.5-1.1 1.1-1.1 1.1.5 1.1 1.1c.1.6-.4 1.1-1.1 1.1zm0-3.4c-.6 0-1.1-.5-1.1-1.1s.5-1.1 1.1-1.1 1.1.5 1.1 1.1c.1.6-.4 1.1-1.1 1.1zm0-3.3c-.6 0-1.1-.5-1.1-1.1s.5-1.1 1.1-1.1 1.1.5 1.1 1.1c.1.6-.4 1.1-1.1 1.1z"/></clipPath><clipPath id="c"><path clip-rule="evenodd" d="m118.9 56.5v-9.7c0-1.5-.2-2.9-.5-4.1-.2.3-.5.5-.9.5-.6 0-1.1-.5-1.1-1.1s.5-1.1 1.1-1.1h.1c-.6-1-1.3-1.8-2.3-2.4.1.2.1.3.1.5 0 .6-.5 1.1-1.1 1.1s-1.1-.5-1.1-1.1.5-1.1 1.1-1.1c-.8-.4-1.6-.7-2.6-.9-.2.1-.3.1-.5.1-.3 0-.7-.2-.9-.4-.4-.1-.8-.1-1.2-.2-.1.5-.6.9-1.1.9-.6 0-1-.4-1.1-1h-.7-.2v.2c0 .6-.5 1.1-1.1 1.1s-1.1-.5-1.1-1.1v-.1c-.3 0-.6.1-.9.1v.3c0 .6-.5 1.1-1.1 1.1s-1.1-.5-1.1-1c-.3.1-.6.1-.9.2 0 .6-.5 1.1-1.1 1.1-.4 0-.8-.2-1-.6-.9.3-1.8.6-2.6.9l.4 1.1c-.6 0-1 .5-1 1.1s.5 1.1 1.1 1.1c.2 0 .4-.1.6-.2l1.2 3.5c.3-.1.6-.2 1-.3-.5-.1-.8-.6-.8-1.1 0-.6.5-1.1 1.1-1.1s1.1.5 1.1 1.1c0 .3-.1.5-.3.7.5-.1 1-.2 1.4-.3-.2-.2-.2-.4-.2-.7 0-.6.5-1.1 1.1-1.1s1.1.5 1.1 1.1c0 .1 0 .2-.1.3.7-.1 1.3-.1 1.8-.1 2.1 0 3.2.3 3.7 1.5.5.1.8.6.8 1.1 0 .4-.2.7-.5.9v.8h-2c-3.3 0-6 .5-8.1 1.4h.1c.6 0 1.1.5 1.1 1.1s-.5 1.1-1.1 1.1-1.1-.5-1.1-1.1c0-.3.1-.6.3-.8-.4.2-.9.5-1.3.8 0 .1.1.2.1.3 0 .6-.5 1.1-1.1 1.1-.2 0-.3 0-.4-.1-.7.8-1.2 1.8-1.6 2.8v.1c0 .2-.1.4-.2.6-.1.6-.2 1.2-.2 1.8.3.2.4.5.4.9 0 .3-.1.6-.3.8.2 1.7.8 3.1 1.7 4.3.2-.1.4-.2.6-.2.6 0 1.1.5 1.1 1.1 0 .2-.1.5-.2.6 1.2.9 2.6 1.5 4.3 1.7.2-.4.6-.7 1-.7.5 0 .9.4 1.1.8.3 0 .6 0 .9-.1 0-.6.5-1.1 1.1-1.1.5 0 .8.3 1 .7.4-.1.8-.3 1.1-.4.2-.3.5-.5 1-.5h.1c1-.6 2-1.5 2.7-2.7 1.6 2.7 3.9 3.6 7.6 3.9l2.1-6.7c-1.1-.3-1.5-1.1-1.5-3.1zm-20.2-14.8c-.6 0-1.1-.5-1.1-1.1s.5-1.1 1.1-1.1 1.1.5 1.1 1.1-.5 1.1-1.1 1.1zm-3.1 20.3c-.6 0-1.1-.5-1.1-1.1s.5-1.1 1.1-1.1 1.1.5 1.1 1.1-.5 1.1-1.1 1.1zm0-3.3c-.6 0-1.1-.5-1.1-1.1s.5-1.1 1.1-1.1 1.1.5 1.1 1.1-.5 1.1-1.1 1.1zm0-3.3c-.6 0-1.1-.5-1.1-1.1s.5-1.1 1.1-1.1 1.1.5 1.1 1.1-.5 1.1-1.1 1.1zm3.1 6.3c-.6 0-1.1-.5-1.1-1.1s.5-1.1 1.1-1.1 1.1.5 1.1 1.1-.5 1.1-1.1 1.1zm6.3-12.8c.6 0 1.1.5 1.1 1.1s-.5 1.1-1.1 1.1-1.1-.5-1.1-1.1c-.1-.6.4-1.1 1.1-1.1zm-3.2 15.8c-.6 0-1.1-.5-1.1-1.1s.5-1.1 1.1-1.1 1.1.5 1.1 1.1c.1.6-.4 1.1-1.1 1.1zm0-3.3c-.6 0-1.1-.5-1.1-1.1s.5-1.1 1.1-1.1 1.1.5 1.1 1.1c.1.6-.4 1.1-1.1 1.1zm0-3.3c-.6 0-1.1-.5-1.1-1.1s.5-1.1 1.1-1.1 1.1.5 1.1 1.1c.1.6-.4 1.1-1.1 1.1zm0-6.7c-.6 0-1.1-.5-1.1-1.1s.5-1.1 1.1-1.1 1.1.5 1.1 1.1c.1.6-.4 1.1-1.1 1.1zm5.8 2.1h1.1v4.2c-.7.9-1.8 1.7-3.1 1.7-1.4 0-2.3-1.1-2.3-2.6 0-2.3 1.4-3.3 4.3-3.3zm-2.6 10.9c-.6 0-1.1-.5-1.1-1.1s.5-1.1 1.1-1.1 1.1.5 1.1 1.1-.5 1.1-1.1 1.1zm3.1-.3c-.6 0-1.1-.5-1.1-1.1s.5-1.1 1.1-1.1 1.1.5 1.1 1.1-.5 1.1-1.1 1.1zm0-20c-.6 0-1.1-.5-1.1-1.1s.5-1.1 1.1-1.1 1.1.5 1.1 1.1-.5 1.1-1.1 1.1zm0-3.3c-.6 0-1.1-.5-1.1-1.1s.5-1.1 1.1-1.1 1.1.5 1.1 1.1-.5 1.1-1.1 1.1zm3.1 19.7c-.6 0-1.1-.5-1.1-1.1s.5-1.1 1.1-1.1 1.1.5 1.1 1.1-.5 1.1-1.1 1.1zm0-3.3c-.6 0-1.1-.5-1.1-1.1s.5-1.1 1.1-1.1 1.1.5 1.1 1.1-.5 1.1-1.1 1.1zm0-3.4c-.6 0-1.1-.5-1.1-1.1s.5-1.1 1.1-1.1 1.1.5 1.1 1.1-.5 1.1-1.1 1.1zm0-6.6c-.6 0-1.1-.5-1.1-1.1s.5-1.1 1.1-1.1 1.1.5 1.1 1.1-.5 1.1-1.1 1.1zm0-3.4c-.6 0-1.1-.5-1.1-1.1s.5-1.1 1.1-1.1 1.1.5 1.1 1.1-.5 1.1-1.1 1.1zm0-3.3c-.6 0-1.1-.5-1.1-1.1s.5-1.1 1.1-1.1 1.1.5 1.1 1.1-.5 1.1-1.1 1.1zm3.1 13c-.6 0-1.1-.5-1.1-1.1s.5-1.1 1.1-1.1 1.1.5 1.1 1.1-.5 1.1-1.1 1.1zm0-6.6c-.6 0-1.1-.5-1.1-1.1s.5-1.1 1.1-1.1 1.1.5 1.1 1.1-.5 1.1-1.1 1.1zm0-3.4c-.6 0-1.1-.5-1.1-1.1s.5-1.1 1.1-1.1 1.1.5 1.1 1.1-.5 1.1-1.1 1.1zm3.1 19.7c-.6 0-1.1-.5-1.1-1.1s.5-1.1 1.1-1.1 1.1.5 1.1 1.1c.1.6-.4 1.1-1.1 1.1zm0-3.3c-.6 0-1.1-.5-1.1-1.1s.5-1.1 1.1-1.1 1.1.5 1.1 1.1c.1.6-.4 1.1-1.1 1.1zm0-3.3c-.6 0-1.1-.5-1.1-1.1s.5-1.1 1.1-1.1 1.1.5 1.1 1.1c.1.6-.4 1.1-1.1 1.1zm0-3.4c-.6 0-1.1-.5-1.1-1.1s.5-1.1 1.1-1.1 1.1.5 1.1 1.1c.1.6-.4 1.1-1.1 1.1zm0-3.3c-.6 0-1.1-.5-1.1-1.1s.5-1.1 1.1-1.1 1.1.5 1.1 1.1c.1.6-.4 1.1-1.1 1.1zm0-3.3c-.6 0-1.1-.5-1.1-1.1s.5-1.1 1.1-1.1 1.1.5 1.1 1.1c.1.6-.4 1.1-1.1 1.1z"/></clipPath><clipPath id="d"><path clip-rule="evenodd" d="m142.4 36.5c-3.2 0-5.8 1.1-8.3 3.7-.1.6-.5 1-1.1 1s-1.1-.5-1.1-1.1.5-1.1 1.1-1.1c.2 0 .3 0 .5.1l-.3-1.2h-.2c-.3 0-.5-.1-.7-.3h-4.4v-.3c0-.6-.5-1.1-1.1-1.1s-1.1.5-1.1 1.1v.3h-1c-.1-.4-.6-.8-1.1-.8-.6 0-1.1.5-1.1 1.1s.5 1.1 1.1 1.1c.1 0 .2 0 .4-.1s.2-.1 0 0v26.7h10.4v-18.8c.2-.4.5-.7.7-1 .1-.1.2-.3.3-.4.9-1 1.7-1.4 2.5-1.4.9 0 1.6.5 1.6 2.7v18.8h1.7c.1-.6.5-1 1.1-1s1 .4 1.1 1h.9v-.2c0-.6.5-1.1 1.1-1.1s1.1.5 1.1 1.1v.2h1c-.1-.1-.1-.3-.1-.5 0-.6.5-1.1 1.1-1.1s1.1.5 1.1 1.1c0 .2 0 .3-.1.5h.3v-20.6c.2-5.4-2.7-8.4-7.4-8.4zm-15.6 28.5c-.6 0-1.1-.5-1.1-1.1s.5-1.1 1.1-1.1 1.1.5 1.1 1.1-.5 1.1-1.1 1.1zm0-3.3c-.6 0-1.1-.5-1.1-1.1s.5-1.1 1.1-1.1 1.1.5 1.1 1.1-.5 1.1-1.1 1.1zm0-10c-.6 0-1.1-.5-1.1-1.1s.5-1.1 1.1-1.1 1.1.5 1.1 1.1-.5 1.1-1.1 1.1zm0-3.3c-.6 0-1.1-.5-1.1-1.1s.5-1.1 1.1-1.1 1.1.5 1.1 1.1-.5 1.1-1.1 1.1zm0-6.7c-.6 0-1.1-.5-1.1-1.1s.5-1.1 1.1-1.1 1.1.5 1.1 1.1-.5 1.1-1.1 1.1zm3.1 16.4c-.6 0-1.1-.5-1.1-1.1s.5-1.1 1.1-1.1 1.1.5 1.1 1.1c.1.6-.5 1.1-1.1 1.1zm0-6.7c-.6 0-1.1-.5-1.1-1.1s.5-1.1 1.1-1.1 1.1.5 1.1 1.1c.1.6-.5 1.1-1.1 1.1zm0-10c-.6 0-1.1-.5-1.1-1.1s.5-1.1 1.1-1.1 1.1.5 1.1 1.1c.1.6-.5 1.1-1.1 1.1zm3.1 16.4c-.6 0-1.1-.5-1.1-1.1s.5-1.1 1.1-1.1 1.1.5 1.1 1.1c.1.6-.4 1.1-1.1 1.1zm0-6.7c-.6 0-1.1-.5-1.1-1.1s.5-1.1 1.1-1.1 1.1.5 1.1 1.1c.1.6-.4 1.1-1.1 1.1zm0-3.3c-.6 0-1.1-.5-1.1-1.1s.5-1.1 1.1-1.1 1.1.5 1.1 1.1c.1.6-.4 1.1-1.1 1.1zm0-3.3c-.6 0-1.1-.5-1.1-1.1s.5-1.1 1.1-1.1 1.1.5 1.1 1.1c.1.6-.4 1.1-1.1 1.1zm6.3-.7c-.6 0-1.1-.5-1.1-1.1s.5-1.1 1.1-1.1 1.1.5 1.1 1.1-.5 1.1-1.1 1.1zm0-3.3c-.6 0-1.1-.5-1.1-1.1s.5-1.1 1.1-1.1 1.1.5 1.1 1.1-.5 1.1-1.1 1.1zm3.1 19.7c-.6 0-1.1-.5-1.1-1.1s.5-1.1 1.1-1.1 1.1.5 1.1 1.1-.5 1.1-1.1 1.1zm0-3.3c-.6 0-1.1-.5-1.1-1.1s.5-1.1 1.1-1.1 1.1.5 1.1 1.1-.5 1.1-1.1 1.1zm0-16.7c-.6 0-1.1-.5-1.1-1.1s.5-1.1 1.1-1.1 1.1.5 1.1 1.1-.5 1.1-1.1 1.1zm3.1 19.7c-.6 0-1.1-.5-1.1-1.1s.5-1.1 1.1-1.1 1.1.5 1.1 1.1c.1.6-.4 1.1-1.1 1.1zm0-3.3c-.6 0-1.1-.5-1.1-1.1s.5-1.1 1.1-1.1 1.1.5 1.1 1.1c.1.6-.4 1.1-1.1 1.1zm0-6.7c-.6 0-1.1-.5-1.1-1.1s.5-1.1 1.1-1.1 1.1.5 1.1 1.1c.1.6-.4 1.1-1.1 1.1zm0-3.3c-.6 0-1.1-.5-1.1-1.1s.5-1.1 1.1-1.1 1.1.5 1.1 1.1c.1.6-.4 1.1-1.1 1.1zm0-3.4c-.6 0-1.1-.5-1.1-1.1s.5-1.1 1.1-1.1 1.1.5 1.1 1.1c.1.6-.4 1.1-1.1 1.1zm0-3.3c-.6 0-1.1-.5-1.1-1.1s.5-1.1 1.1-1.1 1.1.5 1.1 1.1c.1.6-.4 1.1-1.1 1.1zm3.2 13c-.6 0-1.1-.5-1.1-1.1s.5-1.1 1.1-1.1 1.1.5 1.1 1.1-.5 1.1-1.1 1.1zm0-3.3c-.6 0-1.1-.5-1.1-1.1s.5-1.1 1.1-1.1 1.1.5 1.1 1.1-.5 1.1-1.1 1.1zm1.1-4.5c0 .6-.5 1.1-1.1 1.1s-1.1-.5-1.1-1.1.5-1.1 1.1-1.1 1.1.5 1.1 1.1z"/></clipPath><clipPath id="e"><path clip-rule="evenodd" d="m182.1 38.6c-.2-.2-.3-.4-.3-.7v-.1l-1.7-5.6c-1.7 1.1-3.5 2.2-5.6 3-.2-.3-.5-.5-.9-.5-.6 0-1.1.5-1.1 1.1v.1c0 .2 0 .2 0 0-1.8.5-3.7.7-5.8.6-6.5 0-11.2 2.5-12.7 7.1.2-.3.5-.5.9-.5.6 0 1.1.5 1.1 1.1s-.5 1.1-1.1 1.1-1.1-.5-1.1-1.1c-.2.9-.3 1.8-.3 2.7 0 3.6 1.4 6.2 5.3 8.2-1.7 1-3.1 2.7-3.5 4.6.4.1.8.6.8 1.1s-.3.9-.8 1.1c.6 2.6 3.3 4.6 9.4 4.6h3.9c2.3 0 3 1.1 3 2.1 0 1.2-.6 2.4-4.8 2.4-2.4 0-3.7-.2-4.5-.7 0 .6-.5 1.1-1.1 1.1s-1.1-.5-1.1-1.1.5-1.1 1.1-1.1c.2 0 .3 0 .4.1-.1-.3-.1-.7-.1-1.1h-9.3c0 5.5 2.7 9.4 14.3 9.4 3.8 0 7-.5 9.4-1.5-.1-.2-.2-.4-.2-.6 0-.6.5-1.1 1.1-1.1.5 0 .9.3 1 .7.4-.2.8-.5 1.1-.8.1-.2.3-.4.5-.5.3-.3.6-.6.9-1-.1.1-.3.1-.5.1-.6 0-1.1-.5-1.1-1.1s.5-1.1 1.1-1.1 1.1.5 1.1 1.1c.6-1.1.9-2.2 1-3.5-.1-.1-.1-.3-.1-.4s0-.3.1-.4c-.1-1.7-.7-3.3-1.9-4.5h-.2c-.6 0-1.1-.5-1.1-1.1v-.1c-2-1.4-4.8-2.2-8.2-2.2h-4.1c-2.6 0-2.7-.8-2.7-1.3 0-.4.2-.8.6-1 .8.1 1.5.2 2.4.2-.3-.2-.5-.5-.5-1 0-.6.5-1.1 1.1-1.1s1.1.5 1.1 1.1c0 .4-.2.7-.5.9 5.2-.1 9.1-2.2 10.8-5.2v-.3c0-.5.3-.8.7-1 .1-.4.2-.8.3-1.2-.6-.1-1-.5-1-1.1s.5-1.1 1.1-1.1c0-.4-.1-.8-.1-1.1-.5-.1-1-.5-1-1.1 0-.3.1-.6.3-.8-.9-1.6-2.4-2.7-4.7-3.7 3.7 0 6.3-.5 8-1.3zm-27.2 10.1c-.6 0-1.1-.5-1.1-1.1s.5-1.1 1.1-1.1 1.1.5 1.1 1.1-.5 1.1-1.1 1.1zm3.1 26.3c-.6 0-1.1-.5-1.1-1.1s.5-1.1 1.1-1.1 1.1.5 1.1 1.1-.5 1.1-1.1 1.1zm3.1-.3c-.6 0-1.1-.5-1.1-1.1s.5-1.1 1.1-1.1 1.1.5 1.1 1.1c.1.6-.4 1.1-1.1 1.1zm3.2-.3c-.6 0-1.1-.5-1.1-1.1s.5-1.1 1.1-1.1 1.1.5 1.1 1.1-.5 1.1-1.1 1.1zm15.6-10.4c.6 0 1.1.5 1.1 1.1s-.5 1.1-1.1 1.1-1.1-.5-1.1-1.1c-.1-.6.5-1.1 1.1-1.1zm-1.2 4.5c0-.6.5-1.1 1.1-1.1s1.1.5 1.1 1.1-.5 1.1-1.1 1.1c-.5 0-1.1-.5-1.1-1.1zm-5.1-7.2c.6 0 1.1.5 1.1 1.1s-.5 1.1-1.1 1.1-1.1-.5-1.1-1.1.5-1.1 1.1-1.1zm0 6.6c.6 0 1.1.5 1.1 1.1s-.5 1.1-1.1 1.1-1.1-.5-1.1-1.1c0-.5.5-1.1 1.1-1.1zm0 3.4c.6 0 1.1.5 1.1 1.1s-.5 1.1-1.1 1.1-1.1-.5-1.1-1.1.5-1.1 1.1-1.1zm-3.1 5.9c-.6 0-1.1-.5-1.1-1.1s.5-1.1 1.1-1.1 1.1.5 1.1 1.1-.5 1.1-1.1 1.1zm-3.1-38.6c.6 0 1.1.5 1.1 1.1s-.5 1.1-1.1 1.1-1.1-.5-1.1-1.1.5-1.1 1.1-1.1zm-3.1.3c.6 0 1.1.5 1.1 1.1s-.5 1.1-1.1 1.1-1.1-.5-1.1-1.1c-.1-.6.4-1.1 1.1-1.1zm-6.3 6.2c-.6 0-1.1-.5-1.1-1.1s.5-1.1 1.1-1.1 1.1.5 1.1 1.1-.5 1.1-1.1 1.1zm3.1 19.6c-.6 0-1.1-.5-1.1-1.1s.5-1.1 1.1-1.1 1.1.5 1.1 1.1c.1.6-.4 1.1-1.1 1.1zm0-10c-.6 0-1.1-.5-1.1-1.1s.5-1.1 1.1-1.1 1.1.5 1.1 1.1c.1.6-.4 1.1-1.1 1.1zm0-6.6c-.6 0-1.1-.5-1.1-1.1s.5-1.1 1.1-1.1 1.1.5 1.1 1.1c.1.6-.4 1.1-1.1 1.1zm0-6.7c-.6 0-1.1-.5-1.1-1.1s.5-1.1 1.1-1.1 1.1.5 1.1 1.1c.1.6-.4 1.1-1.1 1.1zm3.2 20.8c.6 0 1.1.5 1.1 1.1s-.5 1.1-1.1 1.1-1.1-.5-1.1-1.1c-.1-.6.4-1.1 1.1-1.1zm0-7.8c-.6 0-1.1-.5-1.1-1.1s.5-1.1 1.1-1.1 1.1.5 1.1 1.1-.5 1.1-1.1 1.1zm3.8-3.9c-.2.2-.5.3-.7.3s-.4-.1-.5-.1c-1.7-.1-3.1-1.2-3.1-3.8 0-2.4 1.4-3.6 3.2-3.6 2.2 0 3.2 1 3.2 3.5 0 2.1-.7 3.3-2.1 3.7zm2.4 3.3c-.6 0-1.1-.5-1.1-1.1s.5-1.1 1.1-1.1 1.1.5 1.1 1.1-.5 1.1-1.1 1.1zm3.1-.3c-.6 0-1.1-.5-1.1-1.1s.5-1.1 1.1-1.1 1.1.5 1.1 1.1-.5 1.1-1.1 1.1zm3.1-5.8c.6 0 1.1.5 1.1 1.1s-.5 1.1-1.1 1.1-1.1-.5-1.1-1.1.5-1.1 1.1-1.1zm0 3.3c.6 0 1.1.5 1.1 1.1s-.5 1.1-1.1 1.1-1.1-.5-1.1-1.1.5-1.1 1.1-1.1zm-2-8.6c0 .6-.5 1.1-1.1 1.1s-1.1-.5-1.1-1.1.5-1.1 1.1-1.1 1.1.5 1.1 1.1zm-1.1-2.2c-.6 0-1.1-.5-1.1-1.1s.5-1.1 1.1-1.1 1.1.5 1.1 1.1-.5 1.1-1.1 1.1zm3.1-3.6c-.6 0-1.1-.5-1.1-1.1s.5-1.1 1.1-1.1 1.1.5 1.1 1.1c.1.6-.4 1.1-1.1 1.1zm4.3-1.4c0 .6-.5 1.1-1.1 1.1s-1.1-.5-1.1-1.1.5-1.1 1.1-1.1c.6-.1 1.1.4 1.1 1.1z"/></clipPath><clipPath id="f"><path clip-rule="evenodd" d="m210 51.5c0-.6.5-1.1 1-1.1 0-.4 0-.7-.1-1.1-.5-.1-1-.5-1-1.1 0-.5.3-.9.7-1-.1-.5-.2-1.1-.4-1.6-.2-.2-.3-.5-.3-.7v-.1c-.3-.8-.6-1.5-1-2.2-.2.4-.6.6-1 .6-.6 0-1.1-.5-1.1-1.1s.4-1.1 1-1.1c-.6-.7-1.2-1.3-1.9-1.8 0 .6-.5 1.1-1.1 1.1s-1.1-.5-1.1-1.1c0-.4.2-.8.6-1-2-1.1-4.4-1.6-7.1-1.6-7.5 0-12 4.5-13.5 10.6.2.2.3.5.3.8 0 .5-.3.9-.7 1-.1.4-.1.8-.1 1.2.5.1.8.6.8 1.1s-.4 1-.9 1.1c0 .4 0 .8.1 1.2.5.1.8.6.8 1.1 0 .4-.2.7-.5.9.3 1.7.9 3.3 1.7 4.7.2-.2.5-.4.8-.4.6 0 1.1.5 1.1 1.1 0 .5-.3.9-.7 1 .5.6 1 1.1 1.6 1.6.2-.4.6-.7 1-.7.6 0 1.1.5 1.1 1.1 0 .3-.1.6-.4.8 2.2 1.2 5 1.9 8.4 1.9 4.9 0 8.8-1.9 11.6-4.2l-1.9-2.6h-.1c-.6 0-1.1-.5-1.1-1.1 0-.1 0-.3.1-.4l-1.2-1.6c-2.4 1.7-4.4 2.5-6.4 2.5s-3.6-.3-4.6-1.8c-.2-.2-.4-.5-.4-.8-.3-.6-.5-1.3-.6-2.2h16.5c.1-.4.5-.7.9-.8 0-.4.1-.7.1-1.1-.6 0-1-.5-1-1.1zm-23.9.5c-.6 0-1.1-.5-1.1-1.1s.5-1.1 1.1-1.1 1.1.5 1.1 1.1-.5 1.1-1.1 1.1zm21.9 9c.6 0 1.1.5 1.1 1.1s-.5 1.1-1.1 1.1-1.1-.5-1.1-1.1c-.1-.6.4-1.1 1.1-1.1zm-3.2.3c.6 0 1.1.5 1.1 1.1s-.5 1.1-1.1 1.1-1.1-.5-1.1-1.1.5-1.1 1.1-1.1zm-3.1.3c.6 0 1.1.5 1.1 1.1s-.5 1.1-1.1 1.1-1.1-.5-1.1-1.1.5-1.1 1.1-1.1zm-6.2-22.7c.6 0 1.1.5 1.1 1.1s-.5 1.1-1.1 1.1-1.1-.5-1.1-1.1.5-1.1 1.1-1.1zm-6.3 12.8c-.6 0-1.1-.5-1.1-1.1s.5-1.1 1.1-1.1 1.1.5 1.1 1.1c.1.6-.4 1.1-1.1 1.1zm0-6.6c-.6 0-1.1-.5-1.1-1.1s.5-1.1 1.1-1.1 1.1.5 1.1 1.1c.1.6-.4 1.1-1.1 1.1zm3.2 19.6c-.6 0-1.1-.5-1.1-1.1s.5-1.1 1.1-1.1 1.1.5 1.1 1.1-.5 1.1-1.1 1.1zm3.1-10.3c-.6 0-1.1-.5-1.1-1.1s.5-1.1 1.1-1.1 1.1.5 1.1 1.1-.5 1.1-1.1 1.1zm3.1-.3c-.6 0-1.1-.5-1.1-1.1s.5-1.1 1.1-1.1 1.1.5 1.1 1.1-.5 1.1-1.1 1.1zm2.2-5.5h-1.8c.5.1.8.6.8 1.1 0 .6-.5 1.1-1.1 1.1s-1.1-.5-1.1-1.1c0-.5.3-.9.8-1.1h-4.6c.4-4.3 1.5-5.6 3.7-5.6 2.7 0 3.3 2.4 3.3 5.2zm4 1.6c-.6 0-1.1-.5-1.1-1.1s.5-1.1 1.1-1.1 1.1.5 1.1 1.1c.1.6-.4 1.1-1.1 1.1zm3.2-3.6c-.6 0-1.1-.5-1.1-1.1s.5-1.1 1.1-1.1 1.1.5 1.1 1.1-.5 1.1-1.1 1.1z"/></clipPath><g clip-path="url(#a)"><path d="m37.2 21.5h173.8v77.8h-173.8z" fill="#3042f2"/></g><g clip-path="url(#b)"><path d="m37.2 21.5h173.8v77.8h-173.8z" fill="#3042f2"/></g><g clip-path="url(#c)"><path d="m37.2 21.5h173.8v77.8h-173.8z" fill="#3042f2"/></g><g clip-path="url(#d)"><path d="m37.2 21.5h173.8v77.8h-173.8z" fill="#3042f2"/></g><g clip-path="url(#e)"><path d="m37.2 21.5h173.8v77.8h-173.8z" fill="#3042f2"/></g><g clip-path="url(#f)"><path d="m37.2 21.5h173.8v77.8h-173.8z" fill="#3042f2"/></g><g fill="#3042f2"><path d="m52 68.3c-.6 0-1.1.5-1.1 1.1s.5 1.1 1.1 1.1 1.1-.5 1.1-1.1-.5-1.1-1.1-1.1z" fill-rule="nonzero"/><path d="m58.2 26.9c.6 0 1.1-.5 1.1-1.1s-.5-1.1-1.1-1.1-1.1.5-1.1 1.1.5 1.1 1.1 1.1z" fill-rule="nonzero"/><path d="m45.7 28.1c.6 0 1.1-.5 1.1-1.1s-.5-1.1-1.1-1.1-1.1.5-1.1 1.1.5 1.1 1.1 1.1z" fill-rule="nonzero"/><path d="m33.2 19.2c-.6 0-1.1.5-1.1 1.1s.5 1.1 1.1 1.1 1.1-.5 1.1-1.1c.1-.6-.4-1.1-1.1-1.1z" fill-rule="nonzero"/><path d="m55.1 33.9c.6 0 1.1-.5 1.1-1.1s-.5-1.1-1.1-1.1-1.1.4-1.1 1c0 .7.5 1.2 1.1 1.2z" fill-rule="nonzero"/><path d="m45.7 34.8c.6 0 1.1-.5 1.1-1.1s-.5-1.1-1.1-1.1-1.1.5-1.1 1.1.5 1.1 1.1 1.1z" fill-rule="nonzero"/><path d="m36.4 33.4c-.6 0-1.1.5-1.1 1.1s.5 1.1 1.1 1.1 1.1-.5 1.1-1.1-.5-1.1-1.1-1.1z" fill-rule="nonzero"/><path d="m42.6 38.4c.6 0 1.1-.5 1.1-1.1s-.5-1.1-1.1-1.1-1.1.5-1.1 1.1.5 1.1 1.1 1.1z" fill-rule="nonzero"/><path d="m39.5 38.7c.6 0 1.1-.5 1.1-1.1s-.5-1.1-1.1-1.1-1.1.5-1.1 1.1.5 1.1 1.1 1.1z" fill-rule="nonzero"/><path d="m30.1 37.7c-.6 0-1.1.5-1.1 1.1s.5 1.1 1.1 1.1 1.1-.5 1.1-1.1-.5-1.1-1.1-1.1z" fill-rule="nonzero"/><path d="m36.4 40.1c-.6 0-1.1.5-1.1 1.1s.5 1.1 1.1 1.1 1.1-.5 1.1-1.1-.5-1.1-1.1-1.1z" fill-rule="nonzero"/><path d="m33.2 47.1c-.6 0-1.1.5-1.1 1.1s.5 1.1 1.1 1.1 1.1-.5 1.1-1.1c.1-.6-.4-1.1-1.1-1.1z" fill-rule="nonzero"/><path d="m50.8 53c0 .6.5 1.1 1.1 1.1s1.1-.5 1.1-1.1-.5-1.1-1.1-1.1c-.5 0-1.1.5-1.1 1.1z" fill-rule="nonzero"/><path d="m36.4 53.4c-.6 0-1.1.5-1.1 1.1s.5 1.1 1.1 1.1 1.1-.5 1.1-1.1-.5-1.1-1.1-1.1z" fill-rule="nonzero"/><path d="m61.3 24.1c-.6 0-1.1.5-1.1 1.1s.5 1.1 1.1 1.1 1.1-.5 1.1-1.1c.1-.6-.4-1.1-1.1-1.1z" fill-rule="nonzero"/><path d="m61.3 27.4c-.6 0-1.1.5-1.1 1.1s.5 1.1 1.1 1.1 1.1-.5 1.1-1.1c.1-.6-.4-1.1-1.1-1.1z" fill-rule="nonzero"/><path d="m80.1 30.8c.6 0 1.1-.5 1.1-1.1s-.5-1.1-1.1-1.1-1.1.5-1.1 1.1.4 1.1 1.1 1.1z" fill-rule="nonzero"/><path d="m61.3 34c-.6 0-1.1.5-1.1 1.1s.5 1.1 1.1 1.1 1.1-.5 1.1-1.1c.1-.5-.4-1.1-1.1-1.1z" fill-rule="nonzero"/><path d="m61.3 47.4c-.6 0-1.1.5-1.1 1.1s.5 1.1 1.1 1.1 1.1-.5 1.1-1.1c.1-.6-.4-1.1-1.1-1.1z" fill-rule="nonzero"/><path d="m61.3 50.7c-.6 0-1.1.5-1.1 1.1s.5 1.1 1.1 1.1 1.1-.5 1.1-1.1c.1-.6-.4-1.1-1.1-1.1z" fill-rule="nonzero"/><path d="m76.9 65.5c-.6 0-1.1.5-1.1 1.1s.5 1.1 1.1 1.1 1.1-.5 1.1-1.1c.1-.6-.4-1.1-1.1-1.1z" fill-rule="nonzero"/><path d="m92.5 66.8c-.6 0-1.1.5-1.1 1.1s.5 1.1 1.1 1.1 1.1-.5 1.1-1.1c.1-.6-.4-1.1-1.1-1.1z" fill-rule="nonzero"/><path d="m117.5 33.3c.6 0 1.1-.5 1.1-1.1s-.5-1.1-1.1-1.1-1.1.5-1.1 1.1.5 1.1 1.1 1.1z" fill-rule="nonzero"/><path d="m101.9 34.8c.6 0 1.1-.5 1.1-1.1s-.5-1.1-1.1-1.1-1.1.5-1.1 1.1.5 1.1 1.1 1.1z" fill-rule="nonzero"/><path d="m123.8 35.7c.6 0 1.1-.5 1.1-1.1s-.5-1.1-1.1-1.1-1.1.5-1.1 1.1c-.1.6.4 1.1 1.1 1.1z" fill-rule="nonzero"/><path d="m92.5 36c.6 0 1.1-.5 1.1-1.1s-.5-1.1-1.1-1.1-1.1.5-1.1 1.1.5 1.1 1.1 1.1z" fill-rule="nonzero"/><path d="m120.6 34c-.6 0-1.1.5-1.1 1.1s.5 1.1 1.1 1.1 1.1-.5 1.1-1.1c.1-.5-.4-1.1-1.1-1.1z" fill-rule="nonzero"/><path d="m117.5 36.6c.6 0 1.1-.5 1.1-1.1s-.5-1.1-1.1-1.1-1.1.5-1.1 1.1.5 1.1 1.1 1.1z" fill-rule="nonzero"/><path d="m97.7 20.3c.6 0 1.1-.5 1.1-1.1s-.5-1.1-1.1-1.1-1.1.5-1.1 1.1c-.1.6.4 1.1 1.1 1.1z" fill-rule="nonzero"/><path d="m92.5 42.7c.6 0 1.1-.5 1.1-1.1s-.5-1.1-1.1-1.1-1.1.5-1.1 1.1c0 .5.5 1.1 1.1 1.1z" fill-rule="nonzero"/><path d="m120.6 54c-.6 0-1.1.5-1.1 1.1s.5 1.1 1.1 1.1 1.1-.5 1.1-1.1c.1-.6-.4-1.1-1.1-1.1z" fill-rule="nonzero"/><path d="m145.4 67.7c-.6 0-1.1.5-1.1 1.1s.5 1.1 1.1 1.1 1.1-.5 1.1-1.1-.5-1.1-1.1-1.1z" fill-rule="nonzero"/><path d="m155 35.4c.6 0 1.1-.5 1.1-1.1s-.5-1.1-1.1-1.1-1.1.5-1.1 1.1c-.1.6.5 1.1 1.1 1.1z" fill-rule="nonzero"/><path d="m158.1 38.4c.6 0 1.1-.5 1.1-1.1s-.5-1.1-1.1-1.1-1.1.5-1.1 1.1.5 1.1 1.1 1.1z" fill-rule="nonzero"/><path d="m204.9 33.6c.6 0 1.1-.5 1.1-1.1s-.5-1.1-1.1-1.1-1.1.5-1.1 1.1.5 1.1 1.1 1.1z" fill-rule="nonzero"/><path d="m189.3 38.4c.6 0 1.1-.5 1.1-1.1s-.5-1.1-1.1-1.1-1.1.5-1.1 1.1.5 1.1 1.1 1.1z" fill-rule="nonzero"/><path d="m178.8 58.5c0 .6.5 1.1 1.1 1.1s1.1-.5 1.1-1.1-.5-1.1-1.1-1.1-1.1.5-1.1 1.1z" fill-rule="nonzero"/><path d="m39.5 75.2-.5 3.5c.4.1.6.2 1 .2 1.5 0 2-1.8 2-3.1 0-1-.4-1.4-1-1.4s-1.1.4-1.5.8m3.6.7c0 1.6-.8 3.8-3.1 3.8-.4 0-.7-.1-1.1-.2l-.3 2.3-1 .1 1.2-8.3h.9v.7c.6-.7 1.2-.9 1.8-.9.9.2 1.6 1 1.6 2.5" fill-rule="nonzero"/><path d="m45.4 77.4c0 1 .4 1.5 1.2 1.5 1.5 0 1.9-1.9 1.9-3 0-1-.4-1.5-1.2-1.5-1.5 0-1.9 1.8-1.9 3m4.2-1.4c0 1.4-.7 3.7-3 3.7-1.5 0-2.2-.9-2.2-2.4 0-1.4.7-3.7 3-3.7 1.4 0 2.2.9 2.2 2.4" fill-rule="nonzero"/><path d="m56 79.5h-1.4l-.3-4.9-1.7 4.9h-1.4l-.5-5.8h1l.3 5.1 1.9-5.1h1.1l.4 5.1 1.8-5.1h.9z" fill-rule="nonzero"/><path d="m62.2 75.1c0-.3-.2-.7-.8-.7-1.2 0-1.7 1.2-1.9 2.2 1.7-.2 2.7-.5 2.7-1.5m-2.7 2.3c0 1.1.5 1.5 1.3 1.5.5 0 1-.2 1.6-.5l.4.7c-.6.5-1.3.7-2.1.7-1.4 0-2.2-.9-2.2-2.4 0-1.6.8-3.7 3-3.7 1.2 0 1.9.7 1.9 1.5-.1 1.5-1.9 1.9-3.9 2.2" fill-rule="nonzero"/><path d="m68.2 73.6-.3 1c-.2 0-.3-.1-.5-.1-.8 0-1.3.7-1.7 1.9l-.4 3.1h-1l.8-5.9h.9l-.1 1.2c.4-.9 1.1-1.3 1.7-1.3.2.1.4.1.6.1" fill-rule="nonzero"/><path d="m72.1 75.1c0-.3-.2-.7-.8-.7-1.2 0-1.7 1.2-1.9 2.2 1.7-.2 2.7-.5 2.7-1.5m-2.7 2.3c0 1.1.5 1.5 1.3 1.5.5 0 1-.2 1.6-.5l.4.7c-.6.5-1.3.7-2.1.7-1.4 0-2.2-.9-2.2-2.4 0-1.6.8-3.7 3-3.7 1.2 0 1.9.7 1.9 1.5-.1 1.5-1.8 1.9-3.9 2.2" fill-rule="nonzero"/><path d="m75.3 77.4c0 1 .4 1.4 1 1.4.7 0 1.2-.5 1.7-1.4l.3-2.4c-.3-.5-.7-.7-1.2-.7-1.4.1-1.8 2-1.8 3.1m4.6-6.1-1.2 8.2h-.9v-1c-.4.7-1 1.1-1.8 1.1-1.2 0-1.9-.9-1.9-2.3 0-1.5.7-3.8 2.7-3.8.7 0 1.2.3 1.5.7l.4-3.1z" fill-rule="nonzero"/><path d="m85.3 75.2-.5 3.5c.4.1.6.2 1 .2 1.5 0 2-1.8 2-3.1 0-1-.4-1.4-1-1.4s-1.1.4-1.5.8m.1-.9c.5-.5 1.1-.7 1.7-.7 1.1 0 1.8.8 1.8 2.3 0 1.6-.8 3.8-3.1 3.8-.7 0-1.2-.1-2.1-.4l1.1-8 1-.1z" fill-rule="nonzero"/><path d="m92.4 79.6c-.6 1.2-1.4 2.1-3.1 2.3v-.8c1.2-.2 1.6-.7 2.1-1.6h-.4l-1.1-5.9h1.1l.8 5.1 2.2-5.1h1.1z" fill-rule="nonzero"/><path d="m102.2 75.3 2.7 4.2h-2.1l-2.5-4.1 2.4-3.6h1.9zm-2 4.2h-1.8v-7.7h1.8z" fill-rule="nonzero"/><path d="m105.4 71.8h1.8v7.7h-1.8z"/><path d="m114.6 79.5h-2.3l-2.2-6c.1.7.2 1.7.2 3.1v2.8h-1.6v-7.7h2.3l2.3 6c-.1-.6-.2-1.6-.2-2.9v-3.1h1.6v7.8z" fill-rule="nonzero"/><path d="m121.9 72.6-.9 1c-.5-.4-.9-.6-1.5-.6-1.1 0-1.9.8-1.9 2.7 0 2 .5 2.7 1.6 2.7.4 0 .7-.1 1-.3v-1.7h-1l-.2-1.3h2.9v3.8c-.8.5-1.8.8-2.8.8-2.3 0-3.5-1.4-3.5-4s1.6-4 3.7-4c1.2-.1 2 .3 2.6.9" fill-rule="nonzero"/><path d="m125.8 71.8h1.8v7.7h-1.8z"/><path d="m134.6 72.5-.9 1.1c-.4-.4-.8-.6-1.4-.6-1 0-1.7.8-1.7 2.7s.7 2.6 1.7 2.6c.6 0 1.1-.3 1.5-.6l.8 1.1c-.5.5-1.3 1-2.4 1-2.1 0-3.5-1.4-3.5-4.1 0-2.6 1.5-4 3.5-4 1.1-.1 1.8.3 2.4.8" fill-rule="nonzero"/><path d="m140.6 73.2h-1.9v6.3h-1.8v-6.3h-2v-1.4h5.9z" fill-rule="nonzero"/></g></svg>