<?xml version="1.0" encoding="utf-8"?>
<!-- Generator: Adobe Illustrator 22.0.0, SVG Export Plug-In . SVG Version: 6.00 Build 0)  -->
<svg version="1.1" id="Layer_1" xmlns="http://www.w3.org/2000/svg" xmlns:xlink="http://www.w3.org/1999/xlink" x="0px" y="0px"
	 viewBox="0 0 240 100" style="enable-background:new 0 0 240 100;" xml:space="preserve">
<style type="text/css">
	.st0{clip-path:url(#SVGID_2_);fill:#FFF4E2;}
	.st1{clip-path:url(#SVGID_4_);fill:#FFF4E2;}
	.st2{clip-path:url(#SVGID_6_);fill:#FFF4E2;}
	.st3{clip-path:url(#SVGID_8_);fill:#FFF4E2;}
	.st4{clip-path:url(#SVGID_10_);fill:#FFF4E2;}
	.st5{clip-path:url(#SVGID_12_);fill:#FFF4E2;}
	.st6{fill:#FFF4E2;}
</style>
<g>
	<g>
		<g>
			<g>
				<defs>
					<path id="SVGID_1_" d="M61.3,62.9c-0.6,0-1.1-0.5-1.1-1.1c0-0.4,0.2-0.8,0.5-1l-1.5-2.1c0,0.1,0.1,0.2,0.1,0.3
						c0,0.6-0.5,1.1-1.1,1.1c-0.6,0-1.1-0.5-1.1-1.1c0-0.6,0.5-1.1,1.1-1.1c0.3,0,0.5,0.1,0.7,0.2l-1-1.4c-1.1,0.7-1.9,1.1-2.8,1.4
						c0.6,0,1.1,0.5,1.1,1.1c0,0.6-0.5,1.1-1.1,1.1c-0.6,0-1.1-0.5-1.1-1.1c0-0.4,0.2-0.7,0.5-0.9c-0.4,0.1-0.9,0.2-1.4,0.2
						c-2.7,0-4.6-1.2-4.6-6.8c0-5.7,1.7-7.5,4.7-7.5c1.4,0,2.6,0.4,4,1.2c0.1-0.5,0.6-0.9,1.1-0.9c0.3,0,0.6,0.1,0.8,0.3l1.6-2.3
						c-0.3-0.2-0.4-0.5-0.4-0.9c0-0.6,0.5-1.1,1.1-1.1c0.2,0,0.4,0.1,0.6,0.2l0.5-0.7c-0.3-0.2-0.5-0.4-0.8-0.6c-0.1,0-0.2,0-0.3,0
						c-0.6,0-1.1-0.4-1.1-1c-1.3-0.8-2.7-1.4-4.3-1.7c-0.2,0.2-0.5,0.3-0.8,0.3c-0.4,0-0.8-0.2-1-0.6c-0.3,0-0.7-0.1-1-0.1
						c0,0,0-0.1,0-0.1c0-0.6-0.5-1.1-1.1-1.1c-0.6,0-1.1,0.5-1.1,1.1c0,0.1,0,0.1,0,0.2c0,0,0,0,0,0c0,0.1,0,0.1,0,0
						c-0.3,0-0.6,0.1-0.9,0.1c0,0,0,0,0,0c0,0,0,0,0,0c0-0.6-0.5-1.1-1.1-1.1c-0.6,0-1.1,0.5-1.1,1.1c0,0.1,0,0.3,0.1,0.4
						c0.1,0.1,0.1,0.1,0,0c-0.4,0.1-0.7,0.2-1,0.3c0.1-0.1,0.1-0.3,0.1-0.4c0-0.6-0.5-1.1-1.1-1.1c-0.6,0-1.1,0.5-1.1,1.1
						c0,0.5,0.3,0.9,0.7,1c0.2-0.1,0.2-0.1,0,0c0,0,0,0,0,0c-0.9,0.4-1.7,0.9-2.4,1.5c0.5,0.1,0.8,0.6,0.8,1.1
						c0,0.6-0.5,1.1-1.1,1.1c-0.5,0-1-0.4-1.1-0.9c-0.7,0.7-1.2,1.5-1.7,2.3c0.2,0,0.2,0,0,0c-0.1,0.2-0.1,0.2,0,0
						c-0.1,0-0.2,0-0.3,0c-0.6,0-1.1,0.5-1.1,1.1c0,0.4,0.2,0.7,0.4,0.9c0,0,0,0,0,0c-0.8,2-1.2,4.2-1.2,6.7c0,2,0.3,3.8,0.8,5.5
						c0.1-0.5,0.6-0.8,1.1-0.8c0.6,0,1.1,0.5,1.1,1.1c0,0.6-0.5,1.1-1.1,1.1c-0.2,0-0.4-0.1-0.6-0.2c0.2,0.4,0.4,0.9,0.6,1.3
						c0.6,0,1.1,0.5,1.1,1.1c0,0.2,0,0.3-0.1,0.4c0.5,0.6,0.9,1.1,1.5,1.7c0.2-0.1,0.4-0.2,0.6-0.2c0.6,0,1.1,0.5,1.1,1.1
						c0,0.1,0,0.2-0.1,0.3c1.2,0.8,2.6,1.4,4.2,1.8c0.2-0.3,0.6-0.6,1-0.6c0.6,0,1,0.4,1.1,1c0.3,0,0.6,0.1,0.9,0.1
						c0-0.1,0-0.2,0-0.3c0-0.6,0.5-1.1,1.1-1.1c0.6,0,1.1,0.5,1.1,1.1c0,0.1,0,0.2,0,0.3c0.4,0,0.7,0,1.1-0.1
						c-0.1-0.2-0.1-0.3-0.1-0.6c0-0.6,0.5-1.1,1.1-1.1c0.6,0,1.1,0.5,1.1,1.1c0,0.1,0,0.2,0,0.2c0.3-0.1,0.6-0.2,0.9-0.2
						c0-0.1,0-0.2,0-0.3c0-0.6,0.5-1.1,1.1-1.1c0.4,0,0.8,0.3,1,0.6c0.4-0.2,0.8-0.4,1.1-0.6c0.2-0.4,0.6-0.6,1-0.6
						c0.4-0.3,0.7-0.5,1.1-0.8L62,62.7C61.8,62.8,61.5,62.9,61.3,62.9z M58.1,38c0.6,0,1.1,0.5,1.1,1.1c0,0.6-0.5,1.1-1.1,1.1
						c-0.6,0-1.1-0.5-1.1-1.1C57,38.5,57.5,38,58.1,38z M58.1,41.3c0.6,0,1.1,0.5,1.1,1.1c0,0.6-0.5,1.1-1.1,1.1
						c-0.6,0-1.1-0.5-1.1-1.1C57,41.8,57.5,41.3,58.1,41.3z M55,38.3c0.6,0,1.1,0.5,1.1,1.1c0,0.6-0.5,1.1-1.1,1.1
						c-0.6,0-1.1-0.5-1.1-1.1C53.9,38.8,54.4,38.3,55,38.3z M55,41.6c0.6,0,1.1,0.5,1.1,1.1c0,0.6-0.5,1.1-1.1,1.1
						c-0.6,0-1.1-0.5-1.1-1.1C53.9,42.1,54.4,41.6,55,41.6z M39.4,55.4c-0.6,0-1.1-0.5-1.1-1.1c0-0.6,0.5-1.1,1.1-1.1
						s1.1,0.5,1.1,1.1C40.5,54.9,40,55.4,39.4,55.4z M39.4,52c-0.6,0-1.1-0.5-1.1-1.1c0-0.6,0.5-1.1,1.1-1.1s1.1,0.5,1.1,1.1
						C40.5,51.5,40,52,39.4,52z M39.4,48.7c-0.6,0-1.1-0.5-1.1-1.1c0-0.6,0.5-1.1,1.1-1.1s1.1,0.5,1.1,1.1
						C40.5,48.2,40,48.7,39.4,48.7z M42.5,61.7c-0.6,0-1.1-0.5-1.1-1.1c0-0.6,0.5-1.1,1.1-1.1s1.1,0.5,1.1,1.1
						C43.7,61.2,43.2,61.7,42.5,61.7z M42.5,58.4c-0.6,0-1.1-0.5-1.1-1.1c0-0.6,0.5-1.1,1.1-1.1s1.1,0.5,1.1,1.1
						C43.7,57.9,43.2,58.4,42.5,58.4z M42.5,55c-0.6,0-1.1-0.5-1.1-1.1c0-0.6,0.5-1.1,1.1-1.1s1.1,0.5,1.1,1.1
						C43.7,54.5,43.2,55,42.5,55z M42.5,48.4c-0.6,0-1.1-0.5-1.1-1.1c0-0.6,0.5-1.1,1.1-1.1s1.1,0.5,1.1,1.1
						C43.7,47.9,43.2,48.4,42.5,48.4z M42.5,45.1c-0.6,0-1.1-0.5-1.1-1.1c0-0.6,0.5-1.1,1.1-1.1s1.1,0.5,1.1,1.1
						C43.7,44.6,43.2,45.1,42.5,45.1z M51.9,41.9c0.6,0,1.1,0.5,1.1,1.1c0,0.6-0.5,1.1-1.1,1.1c-0.6,0-1.1-0.5-1.1-1.1
						C50.8,42.4,51.3,41.9,51.9,41.9z M48.8,38.9c0.6,0,1.1,0.5,1.1,1.1c0,0.6-0.5,1.1-1.1,1.1c-0.6,0-1.1-0.5-1.1-1.1
						C47.7,39.4,48.2,38.9,48.8,38.9z M48.8,42.2c0.6,0,1.1,0.5,1.1,1.1c0,0.6-0.5,1.1-1.1,1.1c-0.6,0-1.1-0.5-1.1-1.1
						C47.7,42.7,48.2,42.2,48.8,42.2z M45.7,61.4c-0.6,0-1.1-0.5-1.1-1.1c0-0.6,0.5-1.1,1.1-1.1c0.6,0,1.1,0.5,1.1,1.1
						C46.8,60.9,46.3,61.4,45.7,61.4z M45.7,54.7c-0.6,0-1.1-0.5-1.1-1.1c0-0.6,0.5-1.1,1.1-1.1c0.6,0,1.1,0.5,1.1,1.1
						C46.8,54.2,46.3,54.7,45.7,54.7z M45.7,51.4c-0.6,0-1.1-0.5-1.1-1.1c0-0.6,0.5-1.1,1.1-1.1c0.6,0,1.1,0.5,1.1,1.1
						C46.8,50.9,46.3,51.4,45.7,51.4z M45.7,48.1c-0.6,0-1.1-0.5-1.1-1.1c0-0.6,0.5-1.1,1.1-1.1c0.6,0,1.1,0.5,1.1,1.1
						C46.8,47.6,46.3,48.1,45.7,48.1z M45.7,41.4c-0.6,0-1.1-0.5-1.1-1.1c0-0.6,0.5-1.1,1.1-1.1c0.6,0,1.1,0.5,1.1,1.1
						C46.8,40.9,46.3,41.4,45.7,41.4z M48.8,64.4c-0.6,0-1.1-0.5-1.1-1.1c0-0.6,0.5-1.1,1.1-1.1c0.6,0,1.1,0.5,1.1,1.1
						C49.9,63.9,49.4,64.4,48.8,64.4z M48.8,61.1c-0.6,0-1.1-0.5-1.1-1.1c0-0.6,0.5-1.1,1.1-1.1c0.6,0,1.1,0.5,1.1,1.1
						C49.9,60.6,49.4,61.1,48.8,61.1z M51.9,64.1c-0.6,0-1.1-0.5-1.1-1.1c0-0.6,0.5-1.1,1.1-1.1c0.6,0,1.1,0.5,1.1,1.1
						C53,63.6,52.5,64.1,51.9,64.1z M58.1,63.5c-0.6,0-1.1-0.5-1.1-1.1c0-0.6,0.5-1.1,1.1-1.1c0.6,0,1.1,0.5,1.1,1.1
						C59.3,63,58.8,63.5,58.1,63.5z"/>
				</defs>
				<clipPath id="SVGID_2_">
					<use xlink:href="#SVGID_1_"  style="overflow:visible;"/>
				</clipPath>
				<rect x="37.2" y="21.5" class="st0" width="173.8" height="77.8"/>
			</g>
			<g>
				<defs>
					<path id="SVGID_3_" d="M88.2,45.4c0-0.6,0.5-1.1,1.1-1.1c0.2,0,0.4,0.1,0.6,0.2c0-0.5,0-0.9-0.1-1.4c-0.1,0.1-0.3,0.1-0.5,0.1
						c-0.6,0-1.1-0.5-1.1-1.1c0-0.6,0.5-1.1,1.1-1.1c-0.2-0.5-0.4-0.9-0.7-1.3c-0.2-0.1-0.3-0.3-0.4-0.5c-1-1.3-2.4-2.2-4.2-2.5v0
						c-0.2,0-0.2,0,0,0c0.1-0.2,0.2-0.4,0.2-0.6c0-0.6-0.5-1.1-1.1-1.1c-0.6,0-1.1,0.5-1.1,1.1c0,0.1,0,0.3,0.1,0.4
						c-0.3,0-0.7,0-1,0.1c-0.1,0.5-0.5,0.9-1.1,0.9c-0.4,0-0.7-0.2-0.9-0.5c-1.5,0.5-2.9,1.4-4.3,2.8c0.1,0.2,0.1,0.3,0.1,0.5
						c0,0.6-0.5,1.1-1.1,1.1c-0.6,0-1.1-0.5-1.1-1.1c0-0.6,0.5-1.1,1.1-1.1c0.3,0,0.5,0.1,0.7,0.2v-1.6c-0.2,0.1-0.4,0.2-0.7,0.2
						c-0.6,0-1.1-0.5-1.1-1.1c0-0.6,0.5-1.1,1.1-1.1c0.3,0,0.5,0.1,0.7,0.2v-8.2c-0.2,0.1-0.4,0.2-0.7,0.2c-0.6,0-1.1-0.5-1.1-1.1
						c0-0.6,0.5-1.1,1.1-1.1c0.3,0,0.5,0.1,0.7,0.2v-0.7L64,26.5v0.4l0,0c-0.4,0.2-0.8,0.6-0.8,1.1c0,0.5,0.3,0.9,0.8,1.1
						c0.1,0,0.1,0,0,0v1.2l0,0c-0.4,0.2-0.8,0.6-0.8,1.1c0,0.5,0.3,0.9,0.8,1.1l0,0v1.2l0,0c-0.4,0.2-0.8,0.6-0.8,1.1
						c0,0.5,0.3,0.9,0.8,1.1l0,0v1.2c0.1,0,0.2-0.1,0.4-0.1c0.6,0,1.1,0.5,1.1,1.1c0,0.6-0.5,1.1-1.1,1.1c-0.1,0-0.2,0-0.4-0.1v1.2
						c0.1,0,0.2-0.1,0.4-0.1c0.6,0,1.1,0.5,1.1,1.1c0,0.6-0.5,1.1-1.1,1.1c-0.1,0-0.2,0-0.4-0.1v1.2c0.1,0,0.2-0.1,0.4-0.1
						c0.6,0,1.1,0.5,1.1,1.1c0,0.6-0.5,1.1-1.1,1.1c-0.1,0-0.2,0-0.4-0.1v1.2l0,0c-0.4,0.2-0.8,0.6-0.8,1.1c0,0.5,0.3,0.9,0.8,1.1
						c0.1,0,0.1,0,0,0v1.2c0.1,0,0.2-0.1,0.4-0.1c0.6,0,1.1,0.5,1.1,1.1c0,0.6-0.5,1.1-1.1,1.1c-0.1,0-0.2,0-0.4-0.1v4.3
						c0.1,0,0.2-0.1,0.4-0.1c0.6,0,1.1,0.5,1.1,1.1c0,0.6-0.5,1.1-1.1,1.1c-0.1,0-0.2,0-0.4-0.1v1.4c0.1,0,0.2-0.1,0.4-0.1
						c0.6,0,1.1,0.5,1.1,1.1c0,0.6-0.5,1.1-1.1,1.1c-0.1,0-0.2,0-0.4-0.1v3.4h10.4v-1.1c-0.2,0.2-0.4,0.2-0.7,0.2
						c-0.6,0-1.1-0.5-1.1-1.1c0-0.6,0.5-1.1,1.1-1.1c0.3,0,0.5,0.1,0.7,0.2v-1.6c-0.2,0.1-0.4,0.2-0.7,0.2c-0.6,0-1.1-0.5-1.1-1.1
						c0-0.6,0.5-1.1,1.1-1.1c0.3,0,0.5,0.1,0.7,0.2v-8.2c-0.2,0.2-0.4,0.2-0.7,0.2c-0.6,0-1.1-0.5-1.1-1.1c0-0.6,0.5-1.1,1.1-1.1
						c0.3,0,0.5,0.1,0.7,0.2v-1.6c-0.2,0.1-0.4,0.2-0.7,0.2c-0.6,0-1.1-0.5-1.1-1.1c0-0.6,0.5-1.1,1.1-1.1c0.4,0,0.8,0.2,1,0.6
						c0.7-0.9,1.3-1.6,2-2c-0.5-0.1-0.9-0.5-0.9-1.1c0-0.6,0.5-1.1,1.1-1.1c0.6,0,1.1,0.5,1.1,1.1c0,0.3-0.1,0.5-0.3,0.7
						c0.1,0,0.2,0,0.3,0c0.9,0,1.6,0.5,1.6,2.7v11.9c0.1-0.1,0.3-0.1,0.5-0.1c0.6,0,1.1,0.5,1.1,1.1c0,0.6-0.5,1.1-1.1,1.1
						c-0.2,0-0.3,0-0.5-0.1V62c0.1-0.1,0.3-0.1,0.5-0.1c0.6,0,1.1,0.5,1.1,1.1c0,0.6-0.5,1.1-1.1,1.1c-0.2,0-0.3,0-0.5-0.1v1.3
						c0.1-0.1,0.3-0.1,0.5-0.1c0.3,0,0.6,0.2,0.8,0.4h1.2c0.2-0.4,0.6-0.7,1-0.7c0.5,0,0.9,0.3,1,0.7h1c0.1-0.6,0.5-1,1.1-1
						c0.6,0,1,0.4,1.1,1h0.9c0-0.1,0-0.1,0-0.2c0-0.6,0.5-1.1,1.1-1.1c0.2,0,0.4,0.1,0.6,0.2v-8.1c-0.2,0.1-0.4,0.2-0.6,0.2
						c-0.6,0-1.1-0.5-1.1-1.1c0-0.6,0.5-1.1,1.1-1.1c0.2,0,0.4,0.1,0.6,0.2v-1.4c-0.2,0.1-0.4,0.2-0.6,0.2c-0.6,0-1.1-0.5-1.1-1.1
						c0-0.6,0.5-1.1,1.1-1.1c0.2,0,0.4,0.1,0.6,0.2v-4.8c-0.2,0.1-0.4,0.2-0.6,0.2C88.7,46.6,88.2,46.1,88.2,45.4z M67.5,65.3
						c-0.6,0-1.1-0.5-1.1-1.1c0-0.6,0.5-1.1,1.1-1.1c0.6,0,1.1,0.5,1.1,1.1C68.6,64.8,68.1,65.3,67.5,65.3z M67.5,62
						c-0.6,0-1.1-0.5-1.1-1.1c0-0.6,0.5-1.1,1.1-1.1c0.6,0,1.1,0.5,1.1,1.1C68.6,61.5,68.1,62,67.5,62z M67.5,58.7
						c-0.6,0-1.1-0.5-1.1-1.1s0.5-1.1,1.1-1.1c0.6,0,1.1,0.5,1.1,1.1S68.1,58.7,67.5,58.7z M67.5,55.4c-0.6,0-1.1-0.5-1.1-1.1
						c0-0.6,0.5-1.1,1.1-1.1c0.6,0,1.1,0.5,1.1,1.1C68.6,54.9,68.1,55.4,67.5,55.4z M67.5,52c-0.6,0-1.1-0.5-1.1-1.1
						c0-0.6,0.5-1.1,1.1-1.1c0.6,0,1.1,0.5,1.1,1.1C68.6,51.5,68.1,52,67.5,52z M67.5,48.7c-0.6,0-1.1-0.5-1.1-1.1
						c0-0.6,0.5-1.1,1.1-1.1c0.6,0,1.1,0.5,1.1,1.1C68.6,48.2,68.1,48.7,67.5,48.7z M67.5,42c-0.6,0-1.1-0.5-1.1-1.1
						c0-0.6,0.5-1.1,1.1-1.1c0.6,0,1.1,0.5,1.1,1.1C68.6,41.5,68.1,42,67.5,42z M67.5,38.7c-0.6,0-1.1-0.5-1.1-1.1
						c0-0.6,0.5-1.1,1.1-1.1c0.6,0,1.1,0.5,1.1,1.1C68.6,38.2,68.1,38.7,67.5,38.7z M67.5,35.4c-0.6,0-1.1-0.5-1.1-1.1
						c0-0.6,0.5-1.1,1.1-1.1c0.6,0,1.1,0.5,1.1,1.1C68.6,34.9,68.1,35.4,67.5,35.4z M67.5,32c-0.6,0-1.1-0.5-1.1-1.1
						c0-0.6,0.5-1.1,1.1-1.1c0.6,0,1.1,0.5,1.1,1.1C68.6,31.5,68.1,32,67.5,32z M67.5,28.7c-0.6,0-1.1-0.5-1.1-1.1
						c0-0.6,0.5-1.1,1.1-1.1c0.6,0,1.1,0.5,1.1,1.1C68.6,28.2,68.1,28.7,67.5,28.7z M70.6,65c-0.6,0-1.1-0.5-1.1-1.1
						c0-0.6,0.5-1.1,1.1-1.1c0.6,0,1.1,0.5,1.1,1.1C71.7,64.5,71.2,65,70.6,65z M70.6,61.7c-0.6,0-1.1-0.5-1.1-1.1s0.5-1.1,1.1-1.1
						c0.6,0,1.1,0.5,1.1,1.1S71.2,61.7,70.6,61.7z M70.6,58.4c-0.6,0-1.1-0.5-1.1-1.1c0-0.6,0.5-1.1,1.1-1.1c0.6,0,1.1,0.5,1.1,1.1
						C71.7,57.9,71.2,58.4,70.6,58.4z M70.6,51.7c-0.6,0-1.1-0.5-1.1-1.1c0-0.6,0.5-1.1,1.1-1.1c0.6,0,1.1,0.5,1.1,1.1
						C71.7,51.2,71.2,51.7,70.6,51.7z M70.6,48.4c-0.6,0-1.1-0.5-1.1-1.1c0-0.6,0.5-1.1,1.1-1.1c0.6,0,1.1,0.5,1.1,1.1
						C71.7,47.9,71.2,48.4,70.6,48.4z M70.6,41.7c-0.6,0-1.1-0.5-1.1-1.1c0-0.6,0.5-1.1,1.1-1.1c0.6,0,1.1,0.5,1.1,1.1
						C71.7,41.2,71.2,41.7,70.6,41.7z M70.6,38.4c-0.6,0-1.1-0.5-1.1-1.1c0-0.6,0.5-1.1,1.1-1.1c0.6,0,1.1,0.5,1.1,1.1
						C71.7,37.9,71.2,38.4,70.6,38.4z M70.6,31.7c-0.6,0-1.1-0.5-1.1-1.1c0-0.6,0.5-1.1,1.1-1.1c0.6,0,1.1,0.5,1.1,1.1
						C71.7,31.2,71.2,31.7,70.6,31.7z M70.6,28.4c-0.6,0-1.1-0.5-1.1-1.1c0-0.6,0.5-1.1,1.1-1.1c0.6,0,1.1,0.5,1.1,1.1
						C71.7,27.9,71.2,28.4,70.6,28.4z M73.7,44.8c-0.6,0-1.1-0.5-1.1-1.1c0-0.6,0.5-1.1,1.1-1.1c0.6,0,1.1,0.5,1.1,1.1
						C74.9,44.3,74.4,44.8,73.7,44.8z M82.1,36.5C82.2,36.8,82.2,36.8,82.1,36.5L82.1,36.5z M80,44.1c-0.6,0-1.1-0.5-1.1-1.1
						c0-0.6,0.5-1.1,1.1-1.1c0.6,0,1.1,0.5,1.1,1.1C81.1,43.6,80.6,44.1,80,44.1z M80,40.8c-0.6,0-1.1-0.5-1.1-1.1
						c0-0.6,0.5-1.1,1.1-1.1c0.6,0,1.1,0.5,1.1,1.1C81.1,40.3,80.6,40.8,80,40.8z M83.1,60.5c-0.6,0-1.1-0.5-1.1-1.1
						c0-0.6,0.5-1.1,1.1-1.1c0.6,0,1.1,0.5,1.1,1.1C84.2,60,83.7,60.5,83.1,60.5z M83.1,57.2c-0.6,0-1.1-0.5-1.1-1.1
						c0-0.6,0.5-1.1,1.1-1.1c0.6,0,1.1,0.5,1.1,1.1C84.2,56.7,83.7,57.2,83.1,57.2z M83.1,53.8c-0.6,0-1.1-0.5-1.1-1.1
						c0-0.6,0.5-1.1,1.1-1.1c0.6,0,1.1,0.5,1.1,1.1C84.2,53.3,83.7,53.8,83.1,53.8z M83.1,50.5c-0.6,0-1.1-0.5-1.1-1.1
						c0-0.6,0.5-1.1,1.1-1.1c0.6,0,1.1,0.5,1.1,1.1C84.2,50,83.7,50.5,83.1,50.5z M83.1,47.2c-0.6,0-1.1-0.5-1.1-1.1
						c0-0.6,0.5-1.1,1.1-1.1c0.6,0,1.1,0.5,1.1,1.1C84.2,46.7,83.7,47.2,83.1,47.2z M86.2,63.5c-0.6,0-1.1-0.5-1.1-1.1
						c0-0.6,0.5-1.1,1.1-1.1c0.6,0,1.1,0.5,1.1,1.1C87.4,63,86.9,63.5,86.2,63.5z M86.2,56.9c-0.6,0-1.1-0.5-1.1-1.1
						c0-0.6,0.5-1.1,1.1-1.1c0.6,0,1.1,0.5,1.1,1.1C87.4,56.4,86.9,56.9,86.2,56.9z M86.2,53.5c-0.6,0-1.1-0.5-1.1-1.1
						c0-0.6,0.5-1.1,1.1-1.1c0.6,0,1.1,0.5,1.1,1.1C87.4,53,86.9,53.5,86.2,53.5z M86.2,46.9c-0.6,0-1.1-0.5-1.1-1.1
						c0-0.6,0.5-1.1,1.1-1.1c0.6,0,1.1,0.5,1.1,1.1C87.4,46.4,86.9,46.9,86.2,46.9z M86.2,43.5c-0.6,0-1.1-0.5-1.1-1.1
						c0-0.6,0.5-1.1,1.1-1.1c0.6,0,1.1,0.5,1.1,1.1C87.4,43,86.9,43.5,86.2,43.5z M86.2,40.2c-0.6,0-1.1-0.5-1.1-1.1
						c0-0.6,0.5-1.1,1.1-1.1c0.6,0,1.1,0.5,1.1,1.1C87.4,39.7,86.9,40.2,86.2,40.2z"/>
				</defs>
				<clipPath id="SVGID_4_">
					<use xlink:href="#SVGID_3_"  style="overflow:visible;"/>
				</clipPath>
				<rect x="37.2" y="21.5" class="st1" width="173.8" height="77.8"/>
			</g>
			<g>
				<defs>
					<path id="SVGID_5_" d="M118.9,56.5v-9.7c0-1.5-0.2-2.9-0.5-4.1c-0.2,0.3-0.5,0.5-0.9,0.5c-0.6,0-1.1-0.5-1.1-1.1
						c0-0.6,0.5-1.1,1.1-1.1c0,0,0.1,0,0.1,0c-0.6-1-1.3-1.8-2.3-2.4c0.1,0.2,0.1,0.3,0.1,0.5c0,0.6-0.5,1.1-1.1,1.1
						c-0.6,0-1.1-0.5-1.1-1.1c0-0.6,0.5-1.1,1.1-1.1c-0.8-0.4-1.6-0.7-2.6-0.9c-0.2,0.1-0.3,0.1-0.5,0.1c-0.3,0-0.7-0.2-0.9-0.4
						c-0.4-0.1-0.8-0.1-1.2-0.2c-0.1,0.5-0.6,0.9-1.1,0.9c-0.6,0-1-0.4-1.1-1c-0.2,0-0.5,0-0.7,0c-0.1,0-0.1,0-0.2,0
						c0,0.1,0,0.1,0,0.2c0,0.6-0.5,1.1-1.1,1.1c-0.6,0-1.1-0.5-1.1-1.1c0,0,0,0,0-0.1c-0.3,0-0.6,0.1-0.9,0.1c0,0.1,0,0.2,0,0.3
						c0,0.6-0.5,1.1-1.1,1.1c-0.6,0-1.1-0.5-1.1-1c-0.3,0.1-0.6,0.1-0.9,0.2c0,0,0,0,0,0c0,0.6-0.5,1.1-1.1,1.1
						c-0.4,0-0.8-0.2-1-0.6c-0.9,0.3-1.8,0.6-2.6,0.9l0.4,1.1l0,0c-0.6,0-1,0.5-1,1.1c0,0.6,0.5,1.1,1.1,1.1c0.2,0,0.4-0.1,0.6-0.2
						l1.2,3.5c0.3-0.1,0.6-0.2,1-0.3c-0.5-0.1-0.8-0.6-0.8-1.1c0-0.6,0.5-1.1,1.1-1.1c0.6,0,1.1,0.5,1.1,1.1c0,0.3-0.1,0.5-0.3,0.7
						c0.5-0.1,1-0.2,1.4-0.3c-0.2-0.2-0.2-0.4-0.2-0.7c0-0.6,0.5-1.1,1.1-1.1c0.6,0,1.1,0.5,1.1,1.1c0,0.1,0,0.2-0.1,0.3
						c0.7-0.1,1.3-0.1,1.8-0.1c2.1,0,3.2,0.3,3.7,1.5c0.5,0.1,0.8,0.6,0.8,1.1c0,0.4-0.2,0.7-0.5,0.9c0,0.1,0,0.1,0,0.1v0.7h-2
						c-3.3,0-6,0.5-8.1,1.4c0,0,0.1,0,0.1,0c0.6,0,1.1,0.5,1.1,1.1c0,0.6-0.5,1.1-1.1,1.1c-0.6,0-1.1-0.5-1.1-1.1
						c0-0.3,0.1-0.6,0.3-0.8c-0.4,0.2-0.9,0.5-1.3,0.8c0,0.1,0.1,0.2,0.1,0.3c0,0.6-0.5,1.1-1.1,1.1c-0.2,0-0.3,0-0.4-0.1
						c-0.7,0.8-1.2,1.8-1.6,2.8c0,0,0,0,0,0.1c0,0.2-0.1,0.4-0.2,0.6c-0.1,0.6-0.2,1.2-0.2,1.8c0.3,0.2,0.4,0.5,0.4,0.9
						c0,0.3-0.1,0.6-0.3,0.8c0.2,1.7,0.8,3.1,1.7,4.3c0.2-0.1,0.4-0.2,0.6-0.2c0.6,0,1.1,0.5,1.1,1.1c0,0.2-0.1,0.5-0.2,0.6
						c1.2,0.9,2.6,1.5,4.3,1.7c0.2-0.4,0.6-0.7,1-0.7c0.5,0,0.9,0.4,1.1,0.8c0.3,0,0.6,0,0.9-0.1c0-0.6,0.5-1.1,1.1-1.1
						c0.5,0,0.8,0.3,1,0.7c0.4-0.1,0.8-0.3,1.1-0.4c0.2-0.3,0.5-0.5,1-0.5c0,0,0,0,0.1,0c1-0.6,2-1.5,2.7-2.7
						c1.6,2.7,3.9,3.6,7.6,3.9l2.1-6.7C119.3,59.3,118.9,58.5,118.9,56.5z M98.7,41.7c-0.6,0-1.1-0.5-1.1-1.1c0-0.6,0.5-1.1,1.1-1.1
						c0.6,0,1.1,0.5,1.1,1.1C99.8,41.2,99.3,41.7,98.7,41.7z M95.6,62c-0.6,0-1.1-0.5-1.1-1.1c0-0.6,0.5-1.1,1.1-1.1
						c0.6,0,1.1,0.5,1.1,1.1C96.7,61.5,96.2,62,95.6,62z M95.6,58.7c-0.6,0-1.1-0.5-1.1-1.1s0.5-1.1,1.1-1.1c0.6,0,1.1,0.5,1.1,1.1
						S96.2,58.7,95.6,58.7z M95.6,55.4c-0.6,0-1.1-0.5-1.1-1.1c0-0.6,0.5-1.1,1.1-1.1c0.6,0,1.1,0.5,1.1,1.1
						C96.7,54.9,96.2,55.4,95.6,55.4z M98.7,61.7c-0.6,0-1.1-0.5-1.1-1.1c0-0.6,0.5-1.1,1.1-1.1c0.6,0,1.1,0.5,1.1,1.1
						C99.8,61.2,99.3,61.7,98.7,61.7z M105,48.9c0.6,0,1.1,0.5,1.1,1.1c0,0.6-0.5,1.1-1.1,1.1c-0.6,0-1.1-0.5-1.1-1.1
						C103.8,49.4,104.3,48.9,105,48.9z M101.8,64.7c-0.6,0-1.1-0.5-1.1-1.1c0-0.6,0.5-1.1,1.1-1.1c0.6,0,1.1,0.5,1.1,1.1
						C103,64.2,102.5,64.7,101.8,64.7z M101.8,61.4c-0.6,0-1.1-0.5-1.1-1.1c0-0.6,0.5-1.1,1.1-1.1c0.6,0,1.1,0.5,1.1,1.1
						C103,60.9,102.5,61.4,101.8,61.4z M101.8,58.1c-0.6,0-1.1-0.5-1.1-1.1c0-0.6,0.5-1.1,1.1-1.1c0.6,0,1.1,0.5,1.1,1.1
						C103,57.6,102.5,58.1,101.8,58.1z M101.8,51.4c-0.6,0-1.1-0.5-1.1-1.1c0-0.6,0.5-1.1,1.1-1.1c0.6,0,1.1,0.5,1.1,1.1
						C103,50.9,102.5,51.4,101.8,51.4z M107.6,53.5h1.1v4.2c-0.7,0.9-1.8,1.7-3.1,1.7c-1.4,0-2.3-1.1-2.3-2.6
						C103.3,54.5,104.7,53.5,107.6,53.5z M105,64.4c-0.6,0-1.1-0.5-1.1-1.1c0-0.6,0.5-1.1,1.1-1.1c0.6,0,1.1,0.5,1.1,1.1
						C106.1,63.9,105.6,64.4,105,64.4z M108.1,64.1c-0.6,0-1.1-0.5-1.1-1.1c0-0.6,0.5-1.1,1.1-1.1c0.6,0,1.1,0.5,1.1,1.1
						C109.2,63.6,108.7,64.1,108.1,64.1z M108.1,44.1c-0.6,0-1.1-0.5-1.1-1.1c0-0.6,0.5-1.1,1.1-1.1c0.6,0,1.1,0.5,1.1,1.1
						C109.2,43.6,108.7,44.1,108.1,44.1z M108.1,40.8c-0.6,0-1.1-0.5-1.1-1.1c0-0.6,0.5-1.1,1.1-1.1c0.6,0,1.1,0.5,1.1,1.1
						C109.2,40.3,108.7,40.8,108.1,40.8z M111.2,60.5c-0.6,0-1.1-0.5-1.1-1.1c0-0.6,0.5-1.1,1.1-1.1c0.6,0,1.1,0.5,1.1,1.1
						C112.3,60,111.8,60.5,111.2,60.5z M111.2,57.2c-0.6,0-1.1-0.5-1.1-1.1c0-0.6,0.5-1.1,1.1-1.1c0.6,0,1.1,0.5,1.1,1.1
						C112.3,56.7,111.8,57.2,111.2,57.2z M111.2,53.8c-0.6,0-1.1-0.5-1.1-1.1c0-0.6,0.5-1.1,1.1-1.1c0.6,0,1.1,0.5,1.1,1.1
						C112.3,53.3,111.8,53.8,111.2,53.8z M111.2,47.2c-0.6,0-1.1-0.5-1.1-1.1c0-0.6,0.5-1.1,1.1-1.1c0.6,0,1.1,0.5,1.1,1.1
						C112.3,46.7,111.8,47.2,111.2,47.2z M111.2,43.8c-0.6,0-1.1-0.5-1.1-1.1c0-0.6,0.5-1.1,1.1-1.1c0.6,0,1.1,0.5,1.1,1.1
						C112.3,43.3,111.8,43.8,111.2,43.8z M111.2,40.5c-0.6,0-1.1-0.5-1.1-1.1c0-0.6,0.5-1.1,1.1-1.1c0.6,0,1.1,0.5,1.1,1.1
						C112.3,40,111.8,40.5,111.2,40.5z M114.3,53.5c-0.6,0-1.1-0.5-1.1-1.1c0-0.6,0.5-1.1,1.1-1.1c0.6,0,1.1,0.5,1.1,1.1
						C115.4,53,114.9,53.5,114.3,53.5z M114.3,46.9c-0.6,0-1.1-0.5-1.1-1.1c0-0.6,0.5-1.1,1.1-1.1c0.6,0,1.1,0.5,1.1,1.1
						C115.4,46.4,114.9,46.9,114.3,46.9z M114.3,43.5c-0.6,0-1.1-0.5-1.1-1.1c0-0.6,0.5-1.1,1.1-1.1c0.6,0,1.1,0.5,1.1,1.1
						C115.4,43,114.9,43.5,114.3,43.5z M117.4,63.2c-0.6,0-1.1-0.5-1.1-1.1c0-0.6,0.5-1.1,1.1-1.1c0.6,0,1.1,0.5,1.1,1.1
						C118.6,62.7,118.1,63.2,117.4,63.2z M117.4,59.9c-0.6,0-1.1-0.5-1.1-1.1c0-0.6,0.5-1.1,1.1-1.1c0.6,0,1.1,0.5,1.1,1.1
						C118.6,59.4,118.1,59.9,117.4,59.9z M117.4,56.6c-0.6,0-1.1-0.5-1.1-1.1c0-0.6,0.5-1.1,1.1-1.1c0.6,0,1.1,0.5,1.1,1.1
						C118.6,56.1,118.1,56.6,117.4,56.6z M117.4,53.2c-0.6,0-1.1-0.5-1.1-1.1c0-0.6,0.5-1.1,1.1-1.1c0.6,0,1.1,0.5,1.1,1.1
						C118.6,52.7,118.1,53.2,117.4,53.2z M117.4,49.9c-0.6,0-1.1-0.5-1.1-1.1c0-0.6,0.5-1.1,1.1-1.1c0.6,0,1.1,0.5,1.1,1.1
						C118.6,49.4,118.1,49.9,117.4,49.9z M117.4,46.6c-0.6,0-1.1-0.5-1.1-1.1c0-0.6,0.5-1.1,1.1-1.1c0.6,0,1.1,0.5,1.1,1.1
						C118.6,46.1,118.1,46.6,117.4,46.6z"/>
				</defs>
				<clipPath id="SVGID_6_">
					<use xlink:href="#SVGID_5_"  style="overflow:visible;"/>
				</clipPath>
				<rect x="37.2" y="21.5" class="st2" width="173.8" height="77.8"/>
			</g>
			<g>
				<defs>
					<path id="SVGID_7_" d="M142.4,36.5c-3.2,0-5.8,1.1-8.3,3.7c-0.1,0.6-0.5,1-1.1,1c-0.6,0-1.1-0.5-1.1-1.1c0-0.6,0.5-1.1,1.1-1.1
						c0.2,0,0.3,0,0.5,0.1l-0.3-1.2c-0.1,0-0.1,0-0.2,0c-0.3,0-0.5-0.1-0.7-0.3h-4.4c0-0.1,0-0.2,0-0.3c0-0.6-0.5-1.1-1.1-1.1
						c-0.6,0-1.1,0.5-1.1,1.1c0,0.1,0,0.2,0,0.3h-1c-0.1-0.4-0.6-0.8-1.1-0.8c-0.6,0-1.1,0.5-1.1,1.1c0,0.6,0.5,1.1,1.1,1.1
						c0.1,0,0.2,0,0.4-0.1c0.2-0.1,0.2-0.1,0,0v26.7h10.4V46.8c0.2-0.4,0.5-0.7,0.7-1c0.1-0.1,0.2-0.3,0.3-0.4
						c0.9-1,1.7-1.4,2.5-1.4c0.9,0,1.6,0.5,1.6,2.7v18.8h1.7c0.1-0.6,0.5-1,1.1-1c0.6,0,1,0.4,1.1,1h0.9c0-0.1,0-0.1,0-0.2
						c0-0.6,0.5-1.1,1.1-1.1c0.6,0,1.1,0.5,1.1,1.1c0,0.1,0,0.1,0,0.2h1c-0.1-0.1-0.1-0.3-0.1-0.5c0-0.6,0.5-1.1,1.1-1.1
						c0.6,0,1.1,0.5,1.1,1.1c0,0.2,0,0.3-0.1,0.5h0.3V44.9C150,39.5,147.1,36.5,142.4,36.5z M126.8,65c-0.6,0-1.1-0.5-1.1-1.1
						c0-0.6,0.5-1.1,1.1-1.1c0.6,0,1.1,0.5,1.1,1.1C127.9,64.5,127.4,65,126.8,65z M126.8,61.7c-0.6,0-1.1-0.5-1.1-1.1
						c0-0.6,0.5-1.1,1.1-1.1c0.6,0,1.1,0.5,1.1,1.1C127.9,61.2,127.4,61.7,126.8,61.7z M126.8,51.7c-0.6,0-1.1-0.5-1.1-1.1
						s0.5-1.1,1.1-1.1c0.6,0,1.1,0.5,1.1,1.1S127.4,51.7,126.8,51.7z M126.8,48.4c-0.6,0-1.1-0.5-1.1-1.1c0-0.6,0.5-1.1,1.1-1.1
						c0.6,0,1.1,0.5,1.1,1.1C127.9,47.9,127.4,48.4,126.8,48.4z M126.8,41.7c-0.6,0-1.1-0.5-1.1-1.1c0-0.6,0.5-1.1,1.1-1.1
						c0.6,0,1.1,0.5,1.1,1.1C127.9,41.2,127.4,41.7,126.8,41.7z M129.9,58.1c-0.6,0-1.1-0.5-1.1-1.1c0-0.6,0.5-1.1,1.1-1.1
						c0.6,0,1.1,0.5,1.1,1.1C131.1,57.6,130.5,58.1,129.9,58.1z M129.9,51.4c-0.6,0-1.1-0.5-1.1-1.1c0-0.6,0.5-1.1,1.1-1.1
						c0.6,0,1.1,0.5,1.1,1.1C131.1,50.9,130.5,51.4,129.9,51.4z M129.9,41.4c-0.6,0-1.1-0.5-1.1-1.1c0-0.6,0.5-1.1,1.1-1.1
						c0.6,0,1.1,0.5,1.1,1.1C131.1,40.9,130.5,41.4,129.9,41.4z M133,57.8c-0.6,0-1.1-0.5-1.1-1.1c0-0.6,0.5-1.1,1.1-1.1
						c0.6,0,1.1,0.5,1.1,1.1C134.2,57.3,133.7,57.8,133,57.8z M133,51.1c-0.6,0-1.1-0.5-1.1-1.1c0-0.6,0.5-1.1,1.1-1.1
						c0.6,0,1.1,0.5,1.1,1.1C134.2,50.6,133.7,51.1,133,51.1z M133,47.8c-0.6,0-1.1-0.5-1.1-1.1c0-0.6,0.5-1.1,1.1-1.1
						c0.6,0,1.1,0.5,1.1,1.1C134.2,47.3,133.7,47.8,133,47.8z M133,44.5c-0.6,0-1.1-0.5-1.1-1.1c0-0.6,0.5-1.1,1.1-1.1
						c0.6,0,1.1,0.5,1.1,1.1C134.2,44,133.7,44.5,133,44.5z M139.3,43.8c-0.6,0-1.1-0.5-1.1-1.1c0-0.6,0.5-1.1,1.1-1.1
						c0.6,0,1.1,0.5,1.1,1.1C140.4,43.3,139.9,43.8,139.3,43.8z M139.3,40.5c-0.6,0-1.1-0.5-1.1-1.1c0-0.6,0.5-1.1,1.1-1.1
						c0.6,0,1.1,0.5,1.1,1.1C140.4,40,139.9,40.5,139.3,40.5z M142.4,60.2c-0.6,0-1.1-0.5-1.1-1.1c0-0.6,0.5-1.1,1.1-1.1
						c0.6,0,1.1,0.5,1.1,1.1C143.5,59.7,143,60.2,142.4,60.2z M142.4,56.9c-0.6,0-1.1-0.5-1.1-1.1c0-0.6,0.5-1.1,1.1-1.1
						c0.6,0,1.1,0.5,1.1,1.1C143.5,56.4,143,56.9,142.4,56.9z M142.4,40.2c-0.6,0-1.1-0.5-1.1-1.1c0-0.6,0.5-1.1,1.1-1.1
						c0.6,0,1.1,0.5,1.1,1.1C143.5,39.7,143,40.2,142.4,40.2z M145.5,59.9c-0.6,0-1.1-0.5-1.1-1.1c0-0.6,0.5-1.1,1.1-1.1
						c0.6,0,1.1,0.5,1.1,1.1C146.7,59.4,146.2,59.9,145.5,59.9z M145.5,56.6c-0.6,0-1.1-0.5-1.1-1.1c0-0.6,0.5-1.1,1.1-1.1
						c0.6,0,1.1,0.5,1.1,1.1C146.7,56.1,146.2,56.6,145.5,56.6z M145.5,49.9c-0.6,0-1.1-0.5-1.1-1.1c0-0.6,0.5-1.1,1.1-1.1
						c0.6,0,1.1,0.5,1.1,1.1C146.7,49.4,146.2,49.9,145.5,49.9z M145.5,46.6c-0.6,0-1.1-0.5-1.1-1.1c0-0.6,0.5-1.1,1.1-1.1
						c0.6,0,1.1,0.5,1.1,1.1C146.7,46.1,146.2,46.6,145.5,46.6z M145.5,43.2c-0.6,0-1.1-0.5-1.1-1.1c0-0.6,0.5-1.1,1.1-1.1
						c0.6,0,1.1,0.5,1.1,1.1C146.7,42.7,146.2,43.2,145.5,43.2z M145.5,39.9c-0.6,0-1.1-0.5-1.1-1.1c0-0.6,0.5-1.1,1.1-1.1
						c0.6,0,1.1,0.5,1.1,1.1C146.7,39.4,146.2,39.9,145.5,39.9z M148.7,52.9c-0.6,0-1.1-0.5-1.1-1.1c0-0.6,0.5-1.1,1.1-1.1
						c0.6,0,1.1,0.5,1.1,1.1C149.8,52.4,149.3,52.9,148.7,52.9z M148.7,49.6c-0.6,0-1.1-0.5-1.1-1.1c0-0.6,0.5-1.1,1.1-1.1
						c0.6,0,1.1,0.5,1.1,1.1C149.8,49.1,149.3,49.6,148.7,49.6z M149.8,45.1c0,0.6-0.5,1.1-1.1,1.1c-0.6,0-1.1-0.5-1.1-1.1
						c0-0.6,0.5-1.1,1.1-1.1C149.3,44,149.8,44.5,149.8,45.1z"/>
				</defs>
				<clipPath id="SVGID_8_">
					<use xlink:href="#SVGID_7_"  style="overflow:visible;"/>
				</clipPath>
				<rect x="37.2" y="21.5" class="st3" width="173.8" height="77.8"/>
			</g>
			<g>
				<defs>
					<path id="SVGID_9_" d="M182.1,38.6c-0.2-0.2-0.3-0.4-0.3-0.7c0,0,0-0.1,0-0.1l-1.7-5.6c-1.7,1.1-3.5,2.2-5.6,3v0
						c-0.2-0.3-0.5-0.5-0.9-0.5c-0.6,0-1.1,0.5-1.1,1.1c0,0,0,0.1,0,0.1c0,0.2,0,0.2,0,0c-1.8,0.5-3.7,0.7-5.8,0.6
						c-6.5,0-11.2,2.5-12.7,7.1c0.2-0.3,0.5-0.5,0.9-0.5c0.6,0,1.1,0.5,1.1,1.1c0,0.6-0.5,1.1-1.1,1.1c-0.6,0-1.1-0.5-1.1-1.1
						c-0.2,0.9-0.3,1.8-0.3,2.7c0,3.6,1.4,6.2,5.3,8.2c-1.7,1-3.1,2.7-3.5,4.6c0.4,0.1,0.8,0.6,0.8,1.1c0,0.5-0.3,0.9-0.8,1.1
						c0.6,2.6,3.3,4.6,9.4,4.6h3.9c2.3,0,3,1.1,3,2.1c0,1.2-0.6,2.4-4.8,2.4c-2.4,0-3.7-0.2-4.5-0.7c0,0,0,0,0,0
						c0,0.6-0.5,1.1-1.1,1.1c-0.6,0-1.1-0.5-1.1-1.1c0-0.6,0.5-1.1,1.1-1.1c0.2,0,0.3,0,0.4,0.1c-0.1-0.3-0.1-0.7-0.1-1.1h-9.3
						c0,5.5,2.7,9.4,14.3,9.4c3.8,0,7-0.5,9.4-1.5c-0.1-0.2-0.2-0.4-0.2-0.6c0-0.6,0.5-1.1,1.1-1.1c0.5,0,0.9,0.3,1,0.7
						c0.4-0.2,0.8-0.5,1.1-0.8c0.1-0.2,0.3-0.4,0.5-0.5c0.3-0.3,0.6-0.6,0.9-1c-0.1,0.1-0.3,0.1-0.5,0.1c-0.6,0-1.1-0.5-1.1-1.1v0
						c0-0.6,0.5-1.1,1.1-1.1c0.6,0,1.1,0.5,1.1,1.1v0c0,0,0,0,0,0c0.6-1.1,0.9-2.2,1-3.5c-0.1-0.1-0.1-0.3-0.1-0.4
						c0-0.1,0-0.3,0.1-0.4c-0.1-1.7-0.7-3.3-1.9-4.5c-0.1,0-0.1,0-0.2,0c-0.6,0-1.1-0.5-1.1-1.1c0,0,0-0.1,0-0.1
						c-2-1.4-4.8-2.2-8.2-2.2h-4.1c-2.6,0-2.7-0.8-2.7-1.3c0-0.4,0.2-0.8,0.6-1c0.8,0.1,1.5,0.2,2.4,0.2c-0.3-0.2-0.5-0.5-0.5-1
						c0-0.6,0.5-1.1,1.1-1.1c0.6,0,1.1,0.5,1.1,1.1c0,0.4-0.2,0.7-0.5,0.9c5.2-0.1,9.1-2.2,10.8-5.2c0-0.1,0-0.2,0-0.3
						c0-0.5,0.3-0.8,0.7-1c0.1-0.4,0.2-0.8,0.3-1.2c-0.6-0.1-1-0.5-1-1.1c0-0.6,0.5-1.1,1.1-1.1c0-0.4-0.1-0.8-0.1-1.1
						c-0.5-0.1-1-0.5-1-1.1c0-0.3,0.1-0.6,0.3-0.8c-0.9-1.6-2.4-2.7-4.7-3.7c3.7,0,6.3-0.5,8-1.3L182.1,38.6z M154.9,48.7
						c-0.6,0-1.1-0.5-1.1-1.1c0-0.6,0.5-1.1,1.1-1.1c0.6,0,1.1,0.5,1.1,1.1C156,48.2,155.5,48.7,154.9,48.7z M158,75
						c-0.6,0-1.1-0.5-1.1-1.1c0-0.6,0.5-1.1,1.1-1.1c0.6,0,1.1,0.5,1.1,1.1C159.1,74.5,158.6,75,158,75z M161.1,74.7
						c-0.6,0-1.1-0.5-1.1-1.1c0-0.6,0.5-1.1,1.1-1.1c0.6,0,1.1,0.5,1.1,1.1C162.3,74.2,161.8,74.7,161.1,74.7z M164.3,74.4
						c-0.6,0-1.1-0.5-1.1-1.1c0-0.6,0.5-1.1,1.1-1.1c0.6,0,1.1,0.5,1.1,1.1C165.4,73.9,164.9,74.4,164.3,74.4z M179.9,64
						c0.6,0,1.1,0.5,1.1,1.1c0,0.6-0.5,1.1-1.1,1.1c-0.6,0-1.1-0.5-1.1-1.1C178.7,64.5,179.3,64,179.9,64z M178.7,68.5
						c0-0.6,0.5-1.1,1.1-1.1c0.6,0,1.1,0.5,1.1,1.1v0c0,0.6-0.5,1.1-1.1,1.1C179.3,69.6,178.7,69.1,178.7,68.5L178.7,68.5z
						 M173.6,61.3c0.6,0,1.1,0.5,1.1,1.1c0,0.6-0.5,1.1-1.1,1.1s-1.1-0.5-1.1-1.1C172.5,61.8,173,61.3,173.6,61.3z M173.6,67.9
						c0.6,0,1.1,0.5,1.1,1.1c0,0.6-0.5,1.1-1.1,1.1s-1.1-0.5-1.1-1.1C172.5,68.5,173,67.9,173.6,67.9z M173.6,71.3
						c0.6,0,1.1,0.5,1.1,1.1c0,0.6-0.5,1.1-1.1,1.1s-1.1-0.5-1.1-1.1C172.5,71.8,173,71.3,173.6,71.3z M170.5,77.2
						c-0.6,0-1.1-0.5-1.1-1.1c0-0.6,0.5-1.1,1.1-1.1c0.6,0,1.1,0.5,1.1,1.1C171.6,76.7,171.1,77.2,170.5,77.2z M167.4,38.6
						c0.6,0,1.1,0.5,1.1,1.1c0,0.6-0.5,1.1-1.1,1.1c-0.6,0-1.1-0.5-1.1-1.1C166.3,39.1,166.8,38.6,167.4,38.6z M164.3,38.9
						c0.6,0,1.1,0.5,1.1,1.1c0,0.6-0.5,1.1-1.1,1.1c-0.6,0-1.1-0.5-1.1-1.1C163.1,39.4,163.6,38.9,164.3,38.9z M158,45.1
						c-0.6,0-1.1-0.5-1.1-1.1c0-0.6,0.5-1.1,1.1-1.1c0.6,0,1.1,0.5,1.1,1.1C159.1,44.6,158.6,45.1,158,45.1z M161.1,64.7
						c-0.6,0-1.1-0.5-1.1-1.1c0-0.6,0.5-1.1,1.1-1.1c0.6,0,1.1,0.5,1.1,1.1C162.3,64.2,161.8,64.7,161.1,64.7z M161.1,54.7
						c-0.6,0-1.1-0.5-1.1-1.1c0-0.6,0.5-1.1,1.1-1.1c0.6,0,1.1,0.5,1.1,1.1C162.3,54.2,161.8,54.7,161.1,54.7z M161.1,48.1
						c-0.6,0-1.1-0.5-1.1-1.1c0-0.6,0.5-1.1,1.1-1.1c0.6,0,1.1,0.5,1.1,1.1C162.3,47.6,161.8,48.1,161.1,48.1z M161.1,41.4
						c-0.6,0-1.1-0.5-1.1-1.1c0-0.6,0.5-1.1,1.1-1.1c0.6,0,1.1,0.5,1.1,1.1C162.3,40.9,161.8,41.4,161.1,41.4z M164.3,62.2
						c0.6,0,1.1,0.5,1.1,1.1c0,0.6-0.5,1.1-1.1,1.1c-0.6,0-1.1-0.5-1.1-1.1C163.1,62.7,163.6,62.2,164.3,62.2z M164.3,54.4
						c-0.6,0-1.1-0.5-1.1-1.1c0-0.6,0.5-1.1,1.1-1.1c0.6,0,1.1,0.5,1.1,1.1C165.4,53.9,164.9,54.4,164.3,54.4z M168.1,50.5
						c-0.2,0.2-0.5,0.3-0.7,0.3c-0.2,0-0.4-0.1-0.5-0.1c-1.7-0.1-3.1-1.2-3.1-3.8c0-2.4,1.4-3.6,3.2-3.6c2.2,0,3.2,1,3.2,3.5
						C170.2,48.9,169.5,50.1,168.1,50.5z M170.5,53.8c-0.6,0-1.1-0.5-1.1-1.1c0-0.6,0.5-1.1,1.1-1.1c0.6,0,1.1,0.5,1.1,1.1
						C171.6,53.3,171.1,53.8,170.5,53.8z M173.6,53.5c-0.6,0-1.1-0.5-1.1-1.1c0-0.6,0.5-1.1,1.1-1.1s1.1,0.5,1.1,1.1
						C174.7,53,174.2,53.5,173.6,53.5z M176.7,47.7c0.6,0,1.1,0.5,1.1,1.1c0,0.6-0.5,1.1-1.1,1.1c-0.6,0-1.1-0.5-1.1-1.1
						C175.6,48.2,176.1,47.7,176.7,47.7z M176.7,51c0.6,0,1.1,0.5,1.1,1.1c0,0.6-0.5,1.1-1.1,1.1c-0.6,0-1.1-0.5-1.1-1.1
						C175.6,51.5,176.1,51,176.7,51z M174.7,42.4c0,0.6-0.5,1.1-1.1,1.1s-1.1-0.5-1.1-1.1c0-0.6,0.5-1.1,1.1-1.1
						S174.7,41.8,174.7,42.4z M173.6,40.2c-0.6,0-1.1-0.5-1.1-1.1c0-0.6,0.5-1.1,1.1-1.1s1.1,0.5,1.1,1.1
						C174.7,39.7,174.2,40.2,173.6,40.2z M176.7,36.6c-0.6,0-1.1-0.5-1.1-1.1c0-0.6,0.5-1.1,1.1-1.1c0.6,0,1.1,0.5,1.1,1.1
						C177.9,36.1,177.4,36.6,176.7,36.6z M181,35.2c0,0.6-0.5,1.1-1.1,1.1c-0.6,0-1.1-0.5-1.1-1.1v0c0-0.6,0.5-1.1,1.1-1.1
						C180.5,34,181,34.5,181,35.2L181,35.2z"/>
				</defs>
				<clipPath id="SVGID_10_">
					<use xlink:href="#SVGID_9_"  style="overflow:visible;"/>
				</clipPath>
				<rect x="37.2" y="21.5" class="st4" width="173.8" height="77.8"/>
			</g>
			<g>
				<defs>
					<path id="SVGID_11_" d="M210,51.5c0-0.6,0.5-1.1,1-1.1c0-0.4,0-0.7-0.1-1.1c-0.5-0.1-1-0.5-1-1.1c0-0.5,0.3-0.9,0.7-1
						c-0.1-0.5-0.2-1.1-0.4-1.6c-0.2-0.2-0.3-0.5-0.3-0.7c0,0,0-0.1,0-0.1c-0.3-0.8-0.6-1.5-1-2.2c-0.2,0.4-0.6,0.6-1,0.6
						c-0.6,0-1.1-0.5-1.1-1.1c0-0.6,0.4-1.1,1-1.1c-0.6-0.7-1.2-1.3-1.9-1.8c0,0.6-0.5,1.1-1.1,1.1c-0.6,0-1.1-0.5-1.1-1.1
						c0-0.4,0.2-0.8,0.6-1c-2-1.1-4.4-1.6-7.1-1.6c-7.5,0-12,4.5-13.5,10.6c0.2,0.2,0.3,0.5,0.3,0.8c0,0.5-0.3,0.9-0.7,1
						c-0.1,0.4-0.1,0.8-0.1,1.2c0.5,0.1,0.8,0.6,0.8,1.1c0,0.5-0.4,1-0.9,1.1c0,0.4,0,0.8,0.1,1.2c0.5,0.1,0.8,0.6,0.8,1.1
						c0,0.4-0.2,0.7-0.5,0.9c0.3,1.7,0.9,3.3,1.7,4.7c0.2-0.2,0.5-0.4,0.8-0.4c0.6,0,1.1,0.5,1.1,1.1c0,0.5-0.3,0.9-0.7,1
						c0.5,0.6,1,1.1,1.6,1.6c0.2-0.4,0.6-0.7,1-0.7c0.6,0,1.1,0.5,1.1,1.1c0,0.3-0.1,0.6-0.4,0.8c2.2,1.2,5,1.9,8.4,1.9
						c4.9,0,8.8-1.9,11.6-4.2l-1.9-2.6c0,0,0,0-0.1,0c-0.6,0-1.1-0.5-1.1-1.1c0-0.1,0-0.3,0.1-0.4l-1.2-1.6
						c-2.4,1.7-4.4,2.5-6.4,2.5c-2,0-3.6-0.3-4.6-1.8c-0.2-0.2-0.4-0.5-0.4-0.8c-0.3-0.6-0.5-1.3-0.6-2.2H210
						c0.1-0.4,0.5-0.7,0.9-0.8c0-0.4,0.1-0.7,0.1-1.1C210.4,52.6,210,52.1,210,51.5z M186.1,52c-0.6,0-1.1-0.5-1.1-1.1
						c0-0.6,0.5-1.1,1.1-1.1c0.6,0,1.1,0.5,1.1,1.1C187.2,51.5,186.7,52,186.1,52z M208,61c0.6,0,1.1,0.5,1.1,1.1
						c0,0.6-0.5,1.1-1.1,1.1c-0.6,0-1.1-0.5-1.1-1.1C206.8,61.5,207.3,61,208,61z M204.8,61.3c0.6,0,1.1,0.5,1.1,1.1
						c0,0.6-0.5,1.1-1.1,1.1c-0.6,0-1.1-0.5-1.1-1.1C203.7,61.8,204.2,61.3,204.8,61.3z M201.7,61.6c0.6,0,1.1,0.5,1.1,1.1
						c0,0.6-0.5,1.1-1.1,1.1c-0.6,0-1.1-0.5-1.1-1.1C200.6,62.1,201.1,61.6,201.7,61.6z M195.5,38.9c0.6,0,1.1,0.5,1.1,1.1
						c0,0.6-0.5,1.1-1.1,1.1c-0.6,0-1.1-0.5-1.1-1.1C194.4,39.4,194.9,38.9,195.5,38.9z M189.2,51.7c-0.6,0-1.1-0.5-1.1-1.1
						c0-0.6,0.5-1.1,1.1-1.1c0.6,0,1.1,0.5,1.1,1.1C190.4,51.2,189.9,51.7,189.2,51.7z M189.2,45.1c-0.6,0-1.1-0.5-1.1-1.1
						c0-0.6,0.5-1.1,1.1-1.1c0.6,0,1.1,0.5,1.1,1.1C190.4,44.6,189.9,45.1,189.2,45.1z M192.4,64.7c-0.6,0-1.1-0.5-1.1-1.1
						c0-0.6,0.5-1.1,1.1-1.1c0.6,0,1.1,0.5,1.1,1.1C193.5,64.2,193,64.7,192.4,64.7z M195.5,54.4c-0.6,0-1.1-0.5-1.1-1.1
						c0-0.6,0.5-1.1,1.1-1.1c0.6,0,1.1,0.5,1.1,1.1C196.6,53.9,196.1,54.4,195.5,54.4z M198.6,54.1c-0.6,0-1.1-0.5-1.1-1.1
						c0-0.6,0.5-1.1,1.1-1.1c0.6,0,1.1,0.5,1.1,1.1C199.7,53.6,199.2,54.1,198.6,54.1z M200.8,48.6h-1.8c0.5,0.1,0.8,0.6,0.8,1.1
						c0,0.6-0.5,1.1-1.1,1.1c-0.6,0-1.1-0.5-1.1-1.1c0-0.5,0.3-0.9,0.8-1.1h-4.6c0.4-4.3,1.5-5.6,3.7-5.6c2.7,0,3.3,2.4,3.3,5.2
						V48.6z M204.8,50.2c-0.6,0-1.1-0.5-1.1-1.1c0-0.6,0.5-1.1,1.1-1.1c0.6,0,1.1,0.5,1.1,1.1C206,49.7,205.5,50.2,204.8,50.2z
						 M208,46.6c-0.6,0-1.1-0.5-1.1-1.1c0-0.6,0.5-1.1,1.1-1.1c0.6,0,1.1,0.5,1.1,1.1C209.1,46.1,208.6,46.6,208,46.6z"/>
				</defs>
				<clipPath id="SVGID_12_">
					<use xlink:href="#SVGID_11_"  style="overflow:visible;"/>
				</clipPath>
				<rect x="37.2" y="21.5" class="st5" width="173.8" height="77.8"/>
			</g>
		</g>
		<path class="st6" d="M52,68.3c-0.6,0-1.1,0.5-1.1,1.1c0,0.6,0.5,1.1,1.1,1.1c0.6,0,1.1-0.5,1.1-1.1C53.1,68.8,52.6,68.3,52,68.3z"
			/>
		<path class="st6" d="M58.2,26.9c0.6,0,1.1-0.5,1.1-1.1c0-0.6-0.5-1.1-1.1-1.1c-0.6,0-1.1,0.5-1.1,1.1
			C57.1,26.4,57.6,26.9,58.2,26.9z"/>
		<path class="st6" d="M45.7,28.1c0.6,0,1.1-0.5,1.1-1.1c0-0.6-0.5-1.1-1.1-1.1c-0.6,0-1.1,0.5-1.1,1.1
			C44.6,27.6,45.1,28.1,45.7,28.1z"/>
		<path class="st6" d="M33.2,19.2c-0.6,0-1.1,0.5-1.1,1.1c0,0.6,0.5,1.1,1.1,1.1c0.6,0,1.1-0.5,1.1-1.1
			C34.4,19.7,33.9,19.2,33.2,19.2z"/>
		<path class="st6" d="M55.1,33.9c0.6,0,1.1-0.5,1.1-1.1c0-0.6-0.5-1.1-1.1-1.1S54,32.1,54,32.7C54,33.4,54.5,33.9,55.1,33.9z"/>
		<path class="st6" d="M45.7,34.8c0.6,0,1.1-0.5,1.1-1.1c0-0.6-0.5-1.1-1.1-1.1c-0.6,0-1.1,0.5-1.1,1.1
			C44.6,34.3,45.1,34.8,45.7,34.8z"/>
		<path class="st6" d="M36.4,33.4c-0.6,0-1.1,0.5-1.1,1.1c0,0.6,0.5,1.1,1.1,1.1c0.6,0,1.1-0.5,1.1-1.1C37.5,33.9,37,33.4,36.4,33.4
			z"/>
		<path class="st6" d="M42.6,38.4c0.6,0,1.1-0.5,1.1-1.1c0-0.6-0.5-1.1-1.1-1.1s-1.1,0.5-1.1,1.1C41.5,37.9,42,38.4,42.6,38.4z"/>
		<path class="st6" d="M39.5,38.7c0.6,0,1.1-0.5,1.1-1.1c0-0.6-0.5-1.1-1.1-1.1c-0.6,0-1.1,0.5-1.1,1.1
			C38.4,38.2,38.9,38.7,39.5,38.7z"/>
		<path class="st6" d="M30.1,37.7c-0.6,0-1.1,0.5-1.1,1.1c0,0.6,0.5,1.1,1.1,1.1c0.6,0,1.1-0.5,1.1-1.1
			C31.2,38.2,30.7,37.7,30.1,37.7z"/>
		<path class="st6" d="M36.4,40.1c-0.6,0-1.1,0.5-1.1,1.1c0,0.6,0.5,1.1,1.1,1.1c0.6,0,1.1-0.5,1.1-1.1C37.5,40.6,37,40.1,36.4,40.1
			z"/>
		<path class="st6" d="M33.2,47.1c-0.6,0-1.1,0.5-1.1,1.1c0,0.6,0.5,1.1,1.1,1.1c0.6,0,1.1-0.5,1.1-1.1
			C34.4,47.6,33.9,47.1,33.2,47.1z"/>
		<path class="st6" d="M50.8,53c0,0.6,0.5,1.1,1.1,1.1c0.6,0,1.1-0.5,1.1-1.1c0-0.6-0.5-1.1-1.1-1.1C51.4,51.9,50.8,52.4,50.8,53z"
			/>
		<path class="st6" d="M36.4,53.4c-0.6,0-1.1,0.5-1.1,1.1c0,0.6,0.5,1.1,1.1,1.1c0.6,0,1.1-0.5,1.1-1.1C37.5,53.9,37,53.4,36.4,53.4
			z"/>
		<path class="st6" d="M61.3,24.1c-0.6,0-1.1,0.5-1.1,1.1c0,0.6,0.5,1.1,1.1,1.1c0.6,0,1.1-0.5,1.1-1.1C62.5,24.6,62,24.1,61.3,24.1
			z"/>
		<path class="st6" d="M61.3,27.4c-0.6,0-1.1,0.5-1.1,1.1c0,0.6,0.5,1.1,1.1,1.1c0.6,0,1.1-0.5,1.1-1.1C62.5,27.9,62,27.4,61.3,27.4
			z"/>
		<path class="st6" d="M80.1,30.8c0.6,0,1.1-0.5,1.1-1.1s-0.5-1.1-1.1-1.1c-0.6,0-1.1,0.5-1.1,1.1S79.4,30.8,80.1,30.8z"/>
		<path class="st6" d="M61.3,34c-0.6,0-1.1,0.5-1.1,1.1v0c0,0.6,0.5,1.1,1.1,1.1c0.6,0,1.1-0.5,1.1-1.1v0C62.5,34.6,62,34,61.3,34z"
			/>
		<path class="st6" d="M61.3,47.4c-0.6,0-1.1,0.5-1.1,1.1c0,0.6,0.5,1.1,1.1,1.1c0.6,0,1.1-0.5,1.1-1.1C62.5,47.9,62,47.4,61.3,47.4
			z"/>
		<path class="st6" d="M61.3,50.7c-0.6,0-1.1,0.5-1.1,1.1c0,0.6,0.5,1.1,1.1,1.1c0.6,0,1.1-0.5,1.1-1.1C62.5,51.2,62,50.7,61.3,50.7
			z"/>
		<path class="st6" d="M76.9,65.5c-0.6,0-1.1,0.5-1.1,1.1c0,0.6,0.5,1.1,1.1,1.1c0.6,0,1.1-0.5,1.1-1.1C78.1,66,77.6,65.5,76.9,65.5
			z"/>
		<path class="st6" d="M92.5,66.8c-0.6,0-1.1,0.5-1.1,1.1c0,0.6,0.5,1.1,1.1,1.1c0.6,0,1.1-0.5,1.1-1.1
			C93.7,67.3,93.2,66.8,92.5,66.8z"/>
		<path class="st6" d="M117.5,33.3c0.6,0,1.1-0.5,1.1-1.1c0-0.6-0.5-1.1-1.1-1.1c-0.6,0-1.1,0.5-1.1,1.1
			C116.4,32.8,116.9,33.3,117.5,33.3z"/>
		<path class="st6" d="M101.9,34.8c0.6,0,1.1-0.5,1.1-1.1c0-0.6-0.5-1.1-1.1-1.1s-1.1,0.5-1.1,1.1C100.8,34.3,101.3,34.8,101.9,34.8
			z"/>
		<path class="st6" d="M123.8,35.7c0.6,0,1.1-0.5,1.1-1.1c0-0.6-0.5-1.1-1.1-1.1c-0.6,0-1.1,0.5-1.1,1.1
			C122.6,35.2,123.1,35.7,123.8,35.7z"/>
		<path class="st6" d="M92.5,36c0.6,0,1.1-0.5,1.1-1.1c0-0.6-0.5-1.1-1.1-1.1c-0.6,0-1.1,0.5-1.1,1.1C91.4,35.5,91.9,36,92.5,36z"/>
		<path class="st6" d="M120.6,34c-0.6,0-1.1,0.5-1.1,1.1c0,0.6,0.5,1.1,1.1,1.1c0.6,0,1.1-0.5,1.1-1.1C121.8,34.6,121.3,34,120.6,34
			z"/>
		<path class="st6" d="M117.5,36.6c0.6,0,1.1-0.5,1.1-1.1c0-0.6-0.5-1.1-1.1-1.1c-0.6,0-1.1,0.5-1.1,1.1
			C116.4,36.1,116.9,36.6,117.5,36.6z"/>
		<path class="st6" d="M97.7,20.3c0.6,0,1.1-0.5,1.1-1.1c0-0.6-0.5-1.1-1.1-1.1c-0.6,0-1.1,0.5-1.1,1.1C96.5,19.8,97,20.3,97.7,20.3
			z"/>
		<path class="st6" d="M92.5,42.7c0.6,0,1.1-0.5,1.1-1.1v0c0-0.6-0.5-1.1-1.1-1.1c-0.6,0-1.1,0.5-1.1,1.1v0
			C91.4,42.1,91.9,42.7,92.5,42.7z"/>
		<path class="st6" d="M120.6,54c-0.6,0-1.1,0.5-1.1,1.1c0,0.6,0.5,1.1,1.1,1.1c0.6,0,1.1-0.5,1.1-1.1C121.8,54.5,121.3,54,120.6,54
			z"/>
		<path class="st6" d="M145.4,67.7c-0.6,0-1.1,0.5-1.1,1.1c0,0.6,0.5,1.1,1.1,1.1c0.6,0,1.1-0.5,1.1-1.1
			C146.5,68.2,146,67.7,145.4,67.7z"/>
		<path class="st6" d="M155,35.4c0.6,0,1.1-0.5,1.1-1.1c0-0.6-0.5-1.1-1.1-1.1c-0.6,0-1.1,0.5-1.1,1.1
			C153.8,34.9,154.4,35.4,155,35.4z"/>
		<path class="st6" d="M158.1,38.4c0.6,0,1.1-0.5,1.1-1.1c0-0.6-0.5-1.1-1.1-1.1c-0.6,0-1.1,0.5-1.1,1.1
			C157,37.9,157.5,38.4,158.1,38.4z"/>
		<path class="st6" d="M204.9,33.6c0.6,0,1.1-0.5,1.1-1.1c0-0.6-0.5-1.1-1.1-1.1c-0.6,0-1.1,0.5-1.1,1.1
			C203.8,33.1,204.3,33.6,204.9,33.6z"/>
		<path class="st6" d="M189.3,38.4c0.6,0,1.1-0.5,1.1-1.1c0-0.6-0.5-1.1-1.1-1.1c-0.6,0-1.1,0.5-1.1,1.1
			C188.2,37.9,188.7,38.4,189.3,38.4z"/>
		<path class="st6" d="M178.8,58.5c0,0.6,0.5,1.1,1.1,1.1c0.6,0,1.1-0.5,1.1-1.1c0-0.6-0.5-1.1-1.1-1.1
			C179.3,57.4,178.8,57.9,178.8,58.5z"/>
	</g>
	<g>
		<path class="st6" d="M39.5,75.2L39,78.7c0.4,0.1,0.6,0.2,1,0.2c1.5,0,2-1.8,2-3.1c0-1-0.4-1.4-1-1.4
			C40.4,74.4,39.9,74.8,39.5,75.2 M43.1,75.9c0,1.6-0.8,3.8-3.1,3.8c-0.4,0-0.7-0.1-1.1-0.2l-0.3,2.3l-1,0.1l1.2-8.3h0.9l0,0.7
			c0.6-0.7,1.2-0.9,1.8-0.9C42.4,73.6,43.1,74.4,43.1,75.9"/>
		<path class="st6" d="M45.4,77.4c0,1,0.4,1.5,1.2,1.5c1.5,0,1.9-1.9,1.9-3c0-1-0.4-1.5-1.2-1.5C45.8,74.4,45.4,76.2,45.4,77.4
			 M49.6,76c0,1.4-0.7,3.7-3,3.7c-1.5,0-2.2-0.9-2.2-2.4c0-1.4,0.7-3.7,3-3.7C48.8,73.6,49.6,74.5,49.6,76"/>
		<polygon class="st6" points="56,79.5 54.6,79.5 54.3,74.6 52.6,79.5 51.2,79.5 50.7,73.7 51.7,73.7 52,78.8 53.9,73.7 55,73.7 
			55.4,78.8 57.2,73.7 58.1,73.7 		"/>
		<path class="st6" d="M62.2,75.1c0-0.3-0.2-0.7-0.8-0.7c-1.2,0-1.7,1.2-1.9,2.2C61.2,76.4,62.2,76.1,62.2,75.1 M59.5,77.4
			c0,1.1,0.5,1.5,1.3,1.5c0.5,0,1-0.2,1.6-0.5l0.4,0.7c-0.6,0.5-1.3,0.7-2.1,0.7c-1.4,0-2.2-0.9-2.2-2.4c0-1.6,0.8-3.7,3-3.7
			c1.2,0,1.9,0.7,1.9,1.5C63.3,76.7,61.5,77.1,59.5,77.4"/>
		<path class="st6" d="M68.2,73.6l-0.3,1c-0.2,0-0.3-0.1-0.5-0.1c-0.8,0-1.3,0.7-1.7,1.9l-0.4,3.1h-1l0.8-5.9H66l-0.1,1.2
			c0.4-0.9,1.1-1.3,1.7-1.3C67.8,73.6,68,73.6,68.2,73.6"/>
		<path class="st6" d="M72.1,75.1c0-0.3-0.2-0.7-0.8-0.7c-1.2,0-1.7,1.2-1.9,2.2C71.1,76.4,72.1,76.1,72.1,75.1 M69.4,77.4
			c0,1.1,0.5,1.5,1.3,1.5c0.5,0,1-0.2,1.6-0.5l0.4,0.7c-0.6,0.5-1.3,0.7-2.1,0.7c-1.4,0-2.2-0.9-2.2-2.4c0-1.6,0.8-3.7,3-3.7
			c1.2,0,1.9,0.7,1.9,1.5C73.2,76.7,71.5,77.1,69.4,77.4"/>
		<path class="st6" d="M75.3,77.4c0,1,0.4,1.4,1,1.4c0.7,0,1.2-0.5,1.7-1.4l0.3-2.4c-0.3-0.5-0.7-0.7-1.2-0.7
			C75.7,74.4,75.3,76.3,75.3,77.4 M79.9,71.3l-1.2,8.2h-0.9l0-1c-0.4,0.7-1,1.1-1.8,1.1c-1.2,0-1.9-0.9-1.9-2.3
			c0-1.5,0.7-3.8,2.7-3.8c0.7,0,1.2,0.3,1.5,0.7l0.4-3.1L79.9,71.3z"/>
		<path class="st6" d="M85.3,75.2l-0.5,3.5c0.4,0.1,0.6,0.2,1,0.2c1.5,0,2-1.8,2-3.1c0-1-0.4-1.4-1-1.4
			C86.2,74.4,85.7,74.8,85.3,75.2 M85.4,74.3c0.5-0.5,1.1-0.7,1.7-0.7c1.1,0,1.8,0.8,1.8,2.3c0,1.6-0.8,3.8-3.1,3.8
			c-0.7,0-1.2-0.1-2.1-0.4l1.1-8l1-0.1L85.4,74.3z"/>
		<path class="st6" d="M92.4,79.6c-0.6,1.2-1.4,2.1-3.1,2.3l0-0.8c1.2-0.2,1.6-0.7,2.1-1.6l-0.4,0l-1.1-5.9h1.1l0.8,5.1l2.2-5.1h1.1
			L92.4,79.6z"/>
		<path class="st6" d="M102.2,75.3l2.7,4.2h-2.1l-2.5-4.1l2.4-3.6h1.9L102.2,75.3z M100.2,79.5h-1.8v-7.7h1.8V79.5z"/>
		<rect x="105.4" y="71.8" class="st6" width="1.8" height="7.7"/>
		<path class="st6" d="M114.6,79.5h-2.3l-2.2-6c0.1,0.7,0.2,1.7,0.2,3.1v2.8h-1.6v-7.7h2.3l2.3,6c-0.1-0.6-0.2-1.6-0.2-2.9v-3.1h1.6
			V79.5z"/>
		<path class="st6" d="M121.9,72.6l-0.9,1c-0.5-0.4-0.9-0.6-1.5-0.6c-1.1,0-1.9,0.8-1.9,2.7c0,2,0.5,2.7,1.6,2.7
			c0.4,0,0.7-0.1,1-0.3v-1.7h-1l-0.2-1.3h2.9v3.8c-0.8,0.5-1.8,0.8-2.8,0.8c-2.3,0-3.5-1.4-3.5-4c0-2.6,1.6-4,3.7-4
			C120.5,71.6,121.3,72,121.9,72.6"/>
		<rect x="125.8" y="71.8" class="st6" width="1.8" height="7.7"/>
		<path class="st6" d="M134.6,72.5l-0.9,1.1c-0.4-0.4-0.8-0.6-1.4-0.6c-1,0-1.7,0.8-1.7,2.7c0,1.9,0.7,2.6,1.7,2.6
			c0.6,0,1.1-0.3,1.5-0.6l0.8,1.1c-0.5,0.5-1.3,1-2.4,1c-2.1,0-3.5-1.4-3.5-4.1c0-2.6,1.5-4,3.5-4C133.3,71.6,134,72,134.6,72.5"/>
		<polygon class="st6" points="140.6,73.2 138.7,73.2 138.7,79.5 136.9,79.5 136.9,73.2 134.9,73.2 134.9,71.8 140.8,71.8 		"/>
	</g>
</g>
</svg>
