<svg enable-background="new 0 0 240 100" height="100" viewBox="0 0 240 100" width="240" xmlns="http://www.w3.org/2000/svg"><path d="m56.236 48.257c-3.344 0-6.03-2.713-6.03-6.03v-4.384c-.026-.384-.246-1.343-.958-2.028-.713-.712-1.863-.877-2.138-.904h-4.193c-3.343 0-6.03-2.712-6.03-6.028 0-3.343 2.714-6.03 6.03-6.03h4.193s1.343-.11 2.192-.986c.713-.712.904-1.89.904-2.138v-4.22c0-3.343 2.713-6.03 6.03-6.03 2.904 0 5.343 2.057 5.918 4.797.055.41.137.822.137 1.206v4.304c.03.274.248 1.397.906 2.055.877.876 2.165.985 2.165.985h4.194c3.343 0 6.03 2.713 6.03 6.03 0 3.342-2.714 6.028-6.03 6.028-3.343 0-6.03-2.713-6.03-6.03v-4.384c-.054-.384-.273-1.343-.958-2.028-.685-.686-1.754-.877-2.11-.904h-8.44s-1.315.137-2.138.96c-.713.71-.877 1.643-.96 2.027v8.66c.028.247.193 1.397.906 2.11.877.877 2.165.96 2.165.96h4.192c3.343 0 6.03 2.712 6.03 6.028.053 3.26-2.633 5.974-5.977 5.974zm7.235-32.83c0 3.342 2.714 6.028 6.03 6.028h4.193s1.288.055 2.165.96c.712.71.904 1.862.904 2.11v8.66c-.027.33-.247 1.315-.96 2.028-.82.822-2.137.96-2.137.96h-8.496c-.3-.028-1.425-.247-2.11-.905-.685-.657-.877-1.617-.96-2.028v-4.385c0-3.343-2.712-6.03-6.028-6.03-3.343 0-6.03 2.714-6.03 6.03 0 3.343 2.714 6.03 6.03 6.03h4.22s1.288.108 2.166.985c.712.712.876 1.782.904 2.056v4.302c0 .41.027.822.137 1.206.575 2.74 3.014 4.823 5.92 4.823 3.342 0 6.028-2.713 6.028-6.03v-4.22c.027-.246.192-1.424.904-2.137.85-.85 2.192-.986 2.192-.986h4.193c3.344 0 6.03-2.713 6.03-6.03 0-3.342-2.714-6.028-6.03-6.028h-4.22c-.274-.027-1.425-.247-2.11-.904-.685-.685-.877-1.644-.96-2.028v-4.384c0-3.344-2.712-6.03-6.028-6.03-3.236-.056-5.95 2.63-5.95 5.946zm35.462 38.093h-14.388c.44 4.192 2.795 5.946 5.48 5.946 1.837 0 3.29-.685 4.742-1.727l2.55 2.739c-1.892 1.836-4.194 2.851-7.482 2.851-5.098 0-9.4-4.083-9.4-11.29 0-7.373 3.89-11.32 9.51-11.32 6.166 0 9.125 5.016 9.125 10.881 0 .767-.11 1.479-.137 1.92zm-9.318-8.962c-2.85 0-4.604 2-4.96 5.48h10.112c-.246-3.014-1.617-5.48-5.152-5.48zm25.131 18.335v-12.279c0-4.384-1.645-5.947-4.467-5.947-2.85 0-4.468 2.028-4.468 5.536v12.717h-4.248v-21.707h4.275v2.055c1.068-1.563 3.206-2.55 5.48-2.55 5.042 0 7.756 3.316 7.756 9.73v12.468l-4.33-.025zm20.8 0v-2.057c-1.562 1.453-3.37 2.55-5.673 2.55-4.66 0-8.357-3.372-8.357-11.675 0-7.453 4.055-10.96 8.549-10.96 2.192 0 4.275 1.15 5.48 2.466v-8.304l4.221-2.192v30.173h-4.221zm.056-15.403c-.959-1.288-2.931-2.85-5.097-2.85-3.069 0-4.714 2.33-4.714 6.906 0 5.479 1.727 7.894 4.878 7.894 2.028 0 3.81-1.345 4.933-2.771zm38.75 15.403h-4.274l-7.783-21.706h4.495l3.89 11.813c.713 2.109 1.316 4.137 1.618 5.343.247-1.178.822-3.206 1.479-5.344l3.728-11.813h4.495l-7.648 21.705zm-17.922 0v-2.057c-1.562 1.453-3.371 2.55-5.674 2.55-4.66 0-8.357-3.372-8.357-11.675 0-7.453 4.056-10.96 8.55-10.96 2.192 0 4.274 1.15 5.479 2.466v-2.028h4.221v21.731h-4.221v-.027zm.026-15.403c-.96-1.288-2.933-2.85-5.099-2.85-3.069 0-4.713 2.33-4.713 6.906 0 5.479 1.728 7.894 4.879 7.894 2.027 0 3.81-1.345 4.933-2.771zm39.355 15.403v-2.057c-1.562 1.453-3.371 2.55-5.674 2.55-4.66 0-8.359-3.372-8.359-11.675 0-7.453 4.057-10.96 8.552-10.96 2.19 0 4.274 1.15 5.479 2.466v-2.028h4.221v21.731h-4.221v-.027zm.026-15.403c-.96-1.288-2.933-2.85-5.097-2.85-3.07 0-4.715 2.33-4.715 6.906 0 5.479 1.728 7.894 4.879 7.894 2.027 0 3.81-1.345 4.933-2.771z" fill="#384af4"/></svg>