<svg xmlns="http://www.w3.org/2000/svg" width="240" height="100" viewBox="0 0 240 100"><g fill="#FFF4E2"><path d="M56.236 48.257c-3.344 0-6.03-2.713-6.03-6.03v-4.384c-.026-.384-.246-1.343-.958-2.028-.713-.712-1.863-.877-2.138-.904h-4.193c-3.343 0-6.03-2.712-6.03-6.028 0-3.343 2.714-6.03 6.03-6.03h4.193s1.343-.11 2.192-.986c.713-.712.904-1.89.904-2.138v-4.22c0-3.343 2.713-6.03 6.03-6.03 2.904 0 5.343 2.057 5.918 4.797.055.41.137.822.137 1.206v4.304c.03.274.248 1.397.906 2.055.877.876 2.165.985 2.165.985h4.194c3.343 0 6.03 2.713 6.03 6.03 0 3.342-2.714 6.028-6.03 6.028-3.343 0-6.03-2.713-6.03-6.03V24.47c-.054-.384-.273-1.343-.958-2.028-.685-.686-1.754-.877-2.11-.904h-8.44s-1.315.137-2.138.96c-.713.71-.877 1.643-.96 2.027v8.66c.028.247.193 1.397.906 2.11.877.877 2.165.96 2.165.96h4.192c3.343 0 6.03 2.712 6.03 6.028.053 3.26-2.633 5.974-5.976 5.974zm7.235-32.83c0 3.342 2.714 6.028 6.03 6.028h4.193s1.288.055 2.165.96c.712.71.904 1.862.904 2.11v8.66c-.027.33-.247 1.315-.96 2.028-.82.822-2.137.96-2.137.96H65.17c-.3-.028-1.425-.247-2.11-.905-.685-.657-.877-1.617-.96-2.028v-4.385c0-3.343-2.712-6.03-6.028-6.03-3.343 0-6.03 2.714-6.03 6.03 0 3.343 2.714 6.03 6.03 6.03h4.22s1.288.108 2.166.985c.712.712.876 1.782.904 2.056v4.302c0 .41.027.822.137 1.206.575 2.74 3.014 4.823 5.92 4.823 3.342 0 6.028-2.713 6.028-6.03v-4.22c.027-.246.192-1.424.904-2.137.85-.85 2.192-.986 2.192-.986h4.193c3.344 0 6.03-2.713 6.03-6.03 0-3.342-2.714-6.028-6.03-6.028h-4.22c-.274-.027-1.425-.247-2.11-.904-.685-.685-.877-1.644-.96-2.028V15.51c0-3.344-2.712-6.03-6.028-6.03-3.236-.056-5.95 2.63-5.95 5.946zM98.933 53.52H84.545c.44 4.192 2.795 5.946 5.48 5.946 1.837 0 3.29-.685 4.742-1.727l2.55 2.74c-1.892 1.836-4.194 2.85-7.482 2.85-5.098 0-9.4-4.083-9.4-11.29 0-7.373 3.89-11.32 9.51-11.32 6.166 0 9.125 5.016 9.125 10.88 0 .768-.11 1.48-.137 1.92zm-9.318-8.962c-2.85 0-4.604 2-4.96 5.48h10.112c-.246-3.014-1.617-5.48-5.152-5.48zM114.746 62.892V50.614c0-4.384-1.645-5.947-4.467-5.947-2.85 0-4.468 2.028-4.468 5.536V62.92h-4.248V41.213h4.275v2.055c1.068-1.563 3.206-2.55 5.48-2.55 5.042 0 7.756 3.316 7.756 9.73v12.468l-4.33-.026zM135.546 62.892v-2.056c-1.562 1.453-3.37 2.55-5.673 2.55-4.66 0-8.358-3.372-8.358-11.675 0-7.453 4.056-10.96 8.55-10.96 2.192 0 4.275 1.15 5.48 2.466v-8.304l4.22-2.192v30.173h-4.22zm.055-15.402c-.958-1.288-2.93-2.85-5.096-2.85-3.07 0-4.714 2.33-4.714 6.906 0 5.48 1.727 7.893 4.878 7.893 2.028 0 3.81-1.344 4.933-2.77v-9.18zM174.352 62.892h-4.275l-7.783-21.705h4.495L170.68 53c.713 2.11 1.316 4.137 1.618 5.343.247-1.178.822-3.206 1.48-5.344l3.727-11.813H182l-7.648 21.705zM156.43 62.892v-2.056c-1.563 1.453-3.372 2.55-5.674 2.55-4.66 0-8.358-3.372-8.358-11.675 0-7.453 4.056-10.96 8.55-10.96 2.193 0 4.275 1.15 5.48 2.466v-2.028h4.22V62.92h-4.22v-.028zm.026-15.402c-.96-1.288-2.933-2.85-5.098-2.85-3.07 0-4.713 2.33-4.713 6.906 0 5.48 1.727 7.893 4.878 7.893 2.028 0 3.81-1.344 4.933-2.77v-9.18zM195.81 62.892v-2.056c-1.562 1.453-3.37 2.55-5.673 2.55-4.66 0-8.36-3.372-8.36-11.675 0-7.453 4.057-10.96 8.552-10.96 2.19 0 4.274 1.15 5.48 2.466v-2.028h4.22V62.92h-4.22v-.028zm.027-15.402c-.96-1.288-2.933-2.85-5.097-2.85-3.07 0-4.714 2.33-4.714 6.906 0 5.48 1.727 7.893 4.878 7.893 2.028 0 3.81-1.344 4.933-2.77v-9.18z"/></g></svg>