<svg enable-background="new 0 0 907.1 400" viewBox="0 0 907.1 400" xmlns="http://www.w3.org/2000/svg"><path d="m191 250.3c-14.1 0-25.4-11.4-25.4-25.4v-18.5c-.1-1.6-1-5.7-4-8.6-3-3-7.9-3.7-9-3.8h-17.7c-14.1 0-25.4-11.4-25.4-25.4 0-14.1 11.4-25.4 25.4-25.4h17.7s5.7-.5 9.2-4.2c3-3 3.8-8 3.8-9v-17.8c0-14.1 11.4-25.4 25.4-25.4 12.2 0 22.5 8.7 25 20.2.2 1.7.6 3.5.6 5.1v18.2c.1 1.2 1 5.9 3.8 8.7 3.7 3.7 9.1 4.2 9.1 4.2h17.7c14.1 0 25.4 11.4 25.4 25.4 0 14.1-11.4 25.4-25.4 25.4-14.1 0-25.4-11.4-25.4-25.4v-18.6c-.2-1.6-1.2-5.7-4-8.6-2.9-2.9-7.4-3.7-8.9-3.8h-35.6s-5.5.6-9 4c-3 3-3.7 6.9-4 8.5v36.5c.1 1 .8 5.9 3.8 8.9 3.7 3.7 9.1 4 9.1 4h17.7c14.1 0 25.4 11.4 25.4 25.4.2 14-11.2 25.4-25.3 25.4zm30.5-138.5c0 14.1 11.4 25.4 25.4 25.4h17.7s5.4.2 9.1 4c3 3 3.8 7.9 3.8 8.9v36.5c-.1 1.4-1 5.5-4 8.6-3.5 3.5-9 4-9 4h-35.8c-1.3-.1-6-1-8.9-3.8s-3.7-6.8-4-8.6v-18.5c0-14.1-11.4-25.4-25.4-25.4-14.1 0-25.4 11.4-25.4 25.4 0 14.1 11.4 25.4 25.4 25.4h17.8s5.4.5 9.1 4.2c3 3 3.7 7.5 3.8 8.7v18.1c0 1.7.1 3.5.6 5.1 2.4 11.6 12.7 20.3 25 20.3 14.1 0 25.4-11.4 25.4-25.4v-17.8c.1-1 .8-6 3.8-9 3.6-3.6 9.2-4.2 9.2-4.2h17.7c14.1 0 25.4-11.4 25.4-25.4 0-14.1-11.4-25.4-25.4-25.4h-17.8c-1.2-.1-6-1-8.9-3.8-2.9-2.9-3.7-6.9-4-8.6v-18.5c0-14.1-11.4-25.4-25.4-25.4-13.7-.1-25.2 11.2-25.2 25.2zm149.6 160.7h-60.7c1.9 17.7 11.8 25.1 23.1 25.1 7.7 0 13.9-2.9 20-7.3l10.8 11.6c-8 7.7-17.7 12-31.6 12-21.5 0-39.6-17.2-39.6-47.6 0-31.1 16.4-47.7 40.1-47.7 26 0 38.5 21.2 38.5 45.9 0 3.1-.5 6.1-.6 8zm-39.3-37.8c-12 0-19.4 8.4-20.9 23.1h42.6c-1-12.7-6.8-23.1-21.7-23.1zm106 77.3v-51.8c0-18.5-6.9-25.1-18.8-25.1-12 0-18.8 8.6-18.8 23.3v53.6h-17.9v-91.6h18v8.7c4.5-6.6 13.5-10.8 23.1-10.8 21.3 0 32.7 14 32.7 41v52.6zm87.7 0v-8.7c-6.6 6.1-14.2 10.8-23.9 10.8-19.7 0-35.2-14.2-35.2-49.2 0-31.4 17.1-46.2 36.1-46.2 9.2 0 18 4.9 23.1 10.4v-35l17.8-9.2v127.1zm.3-64.9c-4-5.4-12.4-12-21.5-12-12.9 0-19.9 9.8-19.9 29.1 0 23.1 7.3 33.3 20.6 33.3 8.6 0 16.1-5.7 20.8-11.7zm163.4 64.9h-18l-32.8-91.5h19l16.4 49.8c3 8.9 5.6 17.4 6.8 22.5 1-5 3.5-13.5 6.2-22.5l15.7-49.8h19zm-75.6 0v-8.7c-6.6 6.1-14.2 10.8-23.9 10.8-19.7 0-35.2-14.2-35.2-49.2 0-31.4 17.1-46.2 36.1-46.2 9.2 0 18 4.9 23.1 10.4v-8.6h17.8v91.7h-17.8zm.1-64.9c-4-5.4-12.4-12-21.5-12-12.9 0-19.9 9.8-19.9 29.1 0 23.1 7.3 33.3 20.6 33.3 8.5 0 16.1-5.7 20.8-11.7zm166 64.9v-8.7c-6.6 6.1-14.2 10.8-23.9 10.8-19.7 0-35.3-14.2-35.3-49.2 0-31.4 17.1-46.2 36.1-46.2 9.2 0 18 4.9 23.1 10.4v-8.6h17.8v91.7h-17.8zm.1-64.9c-4-5.4-12.4-12-21.5-12-12.9 0-19.9 9.8-19.9 29.1 0 23.1 7.3 33.3 20.6 33.3 8.5 0 16.1-5.7 20.8-11.7z" fill="#384af4"/></svg>