<svg enable-background="new 0 0 907.1 400" viewBox="0 0 907.1 400" xmlns="http://www.w3.org/2000/svg"><path d="m155.6 228.7c-6.8-6.7-10.1-15.4-10.1-26.3s3.3-19.6 10.1-26.2 15.9-9.9 27.3-9.9 20.5 3.3 27.3 9.7 10.2 14.9 10.2 25.2v3.9c0 2.3-1.1 3.3-3.3 3.3h-53.5c.4 4.6 2.6 9 6.1 12.1 3.6 3.3 8.4 5.2 13.2 5 7.4 0 12.9-2.7 16.5-7.8 1.4-2.3 3-3.3 4.6-3.3h9.9c1.8-.1 3.2 1.2 3.3 3v.2c-1.1 5.9-4.6 10.9-10.4 15s-13.7 6.1-23.8 6.1c-11.5-.1-20.6-3.4-27.4-10zm15-44.6c-3.6 3.2-5.6 6.6-5.9 10.4h36.8c-.3-3.8-2.3-7.2-5.9-10.4-7.3-6.3-17.9-6.3-25 0zm119.1 10.5c.2-8.3-6.3-15-14.4-15.1h-.6c-3.8 0-7.5.8-10.9 2.5-2.9 1.2-5.7 2.8-8 4.8l-2.7 2.5v43.4c0 2.3-1.1 3.3-3.3 3.3h-11.1c-2.3 0-3.3-1.1-3.3-3.3v-60.6c0-2.3 1.1-3.3 3.3-3.3h11.1c2.3 0 3.3 1.1 3.3 3.3v3.9h.7l1-1c.9-.8 1.9-1.6 3-2.4 1.6-1.1 3.1-2.2 4.8-3 2.1-1 4.3-1.8 6.6-2.4 2.8-.7 5.5-1 8.4-1 9.2 0 16.5 2.7 22 7.8 5.5 5.3 8.3 12.1 8.4 20.4v38.2c-.2 1.8-1.6 3.1-3.3 3.3h-11.1c-2.3 0-3.3-1.1-3.3-3.3zm15.7 54.5c0-2.3 1.1-3.3 3.3-3.3h2c1.3.1 2.7.2 3.9.7 1.2.4 2.6.6 3.9.7 2.9.1 5.7-1.1 7.5-3.3 2-2.3 2.9-5.4 2.9-9.2v-62.6c0-2.3 1.1-3.3 3.3-3.3h11.1c2.3 0 3.3 1.1 3.3 3.3v62.5c0 7.9-2.5 14.4-7.5 19.1-5.1 4.9-12 7.1-20.7 7.2-1.7 0-3.2-.1-4.8-.3-1.2-.2-2.5-.4-3.8-.7l-1.2-.2c-2.3-.7-3.3-2.1-3.3-3.9zm36.2-108.5c3.5 0 5.3 1.8 5.3 5.3v8.6c0 3.5-1.8 5.3-5.3 5.3h-7.2c-3.5 0-5.3-1.8-5.3-5.3v-8.6c0-3.5 1.8-5.3 5.3-5.3zm87.7 88.1c-6.9 6.6-16.4 9.9-28.4 9.9s-21.6-3.3-28.4-9.9-10.4-15.4-10.4-26.3 3.4-19.7 10.4-26.3c6.9-6.6 16.4-9.9 28.4-9.9s21.6 3.3 28.4 9.9c6.9 6.6 10.4 15.4 10.4 26.3-.1 10.9-3.5 19.8-10.4 26.3zm-13.2-43.1c-3.8-4.1-8.9-6.2-15.3-6.2-6.3 0-11.5 2.1-15.3 6.2s-5.8 9.8-5.8 16.8 2 12.7 5.8 16.8 8.9 6.2 15.3 6.2c6.3 0 11.5-2.1 15.3-6.2s5.8-9.8 5.8-16.8c-.1-7-2-12.7-5.8-16.8zm53.7 43c-4.2-4-7.8-10.5-10.9-19.6l-12.5-36.8c-.3-.7-.3-1.7.1-2.3s1.1-1 1.7-.9h12.5c2 0 3.3 1.1 3.9 3.3l11.9 36.8c.9 3 2.5 5.8 4.3 8.3 1.9 2.4 3.9 3.5 6.1 3.5h3.9l13.8-48.7c.6-2.3 2-3.3 3.9-3.3h11.1c.8-.1 1.8.3 2.2 1s.6 1.4.4 2.3l-17.7 62.5c-2.2 7.4-5.7 13.4-10.8 18.1-5 4.5-11.4 7-18.2 6.9h-10.4c-2.3 0-3.3-1.1-3.3-3.3v-8.6c0-2.3 1.1-3.3 3.3-3.3h3.3c1.2 0 2.7.2 3.8.7 1.1.3 2.3.6 3.3.7 5.3 0 9-3.7 11.1-11.1-6.7-.1-12.6-2.2-16.8-6.2zm58.3-5c-.1-2.5 1.9-4.5 4.3-4.6h8.8c2.5 0 4.5 2 4.5 4.4v8.1c.1 2.5-1.9 4.5-4.3 4.6h-8.8c-2.5.1-4.5-1.9-4.6-4.3v-.2zm46.8-83c3.5 0 5.3 1.8 5.3 5.3v8.6c0 3.5-1.7 5.3-5.3 5.3h-7.2c-3.5 0-5.3-1.8-5.3-5.3v-8.6c0-3.5 1.7-5.3 5.3-5.3zm5.2 92c0 2.3-1.1 3.3-3.3 3.3h-11.2c-2.3 0-3.3-1.1-3.3-3.3v-60.5c0-2.3 1.1-3.3 3.3-3.3h11.3c2.3 0 3.3 1.1 3.3 3.3zm73.8-38c.2-8.3-6.3-15-14.4-15.2h-.6c-3.8 0-7.5.8-10.9 2.5-2.9 1.2-5.7 2.8-8.1 4.9l-2.7 2.5v43.4c0 2.3-1.1 3.3-3.3 3.3h-11.4c-2.3 0-3.3-1.1-3.3-3.3v-60.5c0-2.3 1.1-3.3 3.3-3.3h11.1c2.3 0 3.3 1.1 3.3 3.3v3.9h.7l1-1c.9-.8 1.9-1.6 3-2.4 1.6-1.1 3.1-2.2 4.8-3 2.1-1 4.3-1.8 6.6-2.4 2.8-.7 5.5-1 8.4-1 9.2 0 16.5 2.7 22 7.8 5.5 5.2 8.3 12.1 8.4 20.4v38.2c-.2 1.8-1.5 3.1-3.3 3.3h-11.1c-2.3 0-3.3-1.1-3.3-3.3zm105.9 35.4c.2 8.5-3.6 16.6-10.1 22.1-6.8 5.9-15.9 8.9-27.3 8.9-10 0-18.1-2-24.2-6-6.2-4-9.3-8.6-9.3-13.7 0-2.3 1.1-3.3 3.3-3.3h9.2c1.8 0 3.6 1.1 5.3 3.3 3.3 4.3 8.6 6.6 15.8 6.6 5.9 0 10.5-1.7 14.2-5.2 3.6-3.2 5.6-7.8 5.6-12.6v-2h-.7l-2.6 1.4c-2.3 1-4.5 1.8-6.9 2.4-3.5.9-7.2 1.4-10.9 1.4-10.4 0-18.9-3.2-25.6-9.4-6.5-6-10.2-14.6-10-23.5 0-10.2 3.6-18.5 10.7-24.7s17.1-9.4 30.1-9.4c4.9.1 9.7.6 14.4 1.7 3.8.7 7.5 1.8 11.3 3 2.3.8 3.8 1.4 4.5 1.9 2.1.5 3.4 2.5 3.3 4.6zm-17.8-47.3c-5-2.3-10.4-3.3-15.8-3.3-7.1 0-12.7 1.9-16.8 5.8s-6.2 8.9-6.2 15.4c-.2 5.4 2 10.4 5.9 14 3.8 3.8 8.8 5.7 14.5 5.7 3 0 6.1-.5 8.9-1.4 2.5-.7 4.8-1.8 7.1-3l2.4-1.4z" fill="#384af4"/></svg>