<svg xmlns="http://www.w3.org/2000/svg" width="240" height="100" viewBox="0 0 240 100"><g fill="#FFF4E2"><path d="M42.16 58.17c-1.8-1.773-2.672-4.063-2.672-6.954s.872-5.18 2.672-6.925c1.8-1.744 4.2-2.617 7.226-2.617s5.425.873 7.225 2.563c1.8 1.69 2.7 3.926 2.7 6.653v1.035c0 .6-.3.872-.872.872H44.314c.11 1.227.68 2.373 1.608 3.19.955.873 2.21 1.364 3.49 1.31 1.963 0 3.408-.71 4.363-2.073.38-.6.79-.872 1.227-.872h2.617c.463-.028.845.327.872.79v.056c-.3 1.554-1.228 2.89-2.754 3.953-1.527 1.09-3.626 1.61-6.298 1.61-3.08.027-5.48-.845-7.28-2.59zm3.954-11.78c-.955.846-1.472 1.746-1.554 2.754h9.733c-.082-1.008-.6-1.91-1.554-2.753-1.937-1.662-4.745-1.662-6.626 0zM77.577 49.145c.056-2.18-1.662-3.953-3.816-3.98h-.163c-1.008 0-1.99.218-2.89.654-.764.326-1.5.735-2.127 1.28l-.71.656v11.48c0 .6-.3.87-.87.87h-2.946c-.6 0-.872-.298-.872-.87V43.227c0-.6.3-.873.872-.873H67c.6 0 .87.3.87.873v1.036h.19l.273-.273c.246-.217.49-.435.792-.626.41-.3.817-.572 1.28-.79.545-.273 1.146-.464 1.746-.628.736-.19 1.445-.273 2.208-.273 2.428 0 4.363.71 5.808 2.072 1.445 1.39 2.182 3.19 2.21 5.398V59.23c-.055.464-.41.82-.874.873h-2.944c-.6 0-.872-.3-.872-.872l-.11-10.085zM81.748 63.568c0-.6.3-.873.873-.873h.52c.354.027.71.055 1.035.19.327.11.683.164 1.036.19.765.028 1.502-.3 1.992-.872.518-.6.763-1.418.763-2.427v-16.55c0-.6.3-.873.873-.873h2.945c.6 0 .872.3.872.873V59.75c0 2.098-.654 3.816-1.99 5.043-1.336 1.282-3.163 1.88-5.48 1.908-.437 0-.846-.026-1.28-.08-.328-.056-.656-.11-1.01-.192l-.327-.054c-.6-.19-.872-.545-.872-1.036l.052-1.77zm9.543-28.683c.93 0 1.393.463 1.393 1.39v2.263c0 .927-.464 1.39-1.392 1.39h-1.907c-.927 0-1.39-.463-1.39-1.39v-2.263c0-.927.463-1.39 1.39-1.39h1.908zM114.467 58.17c-1.827 1.744-4.335 2.616-7.498 2.616s-5.7-.872-7.498-2.617c-1.8-1.746-2.754-4.063-2.754-6.954s.9-5.208 2.754-6.953c1.826-1.745 4.334-2.617 7.497-2.617s5.697.873 7.497 2.617c1.827 1.745 2.754 4.062 2.754 6.953-.027 2.89-.926 5.236-2.753 6.953zm-3.49-11.397c-1.008-1.09-2.344-1.636-4.034-1.636-1.664 0-3.026.545-4.036 1.636-1.008 1.09-1.527 2.59-1.527 4.444s.52 3.354 1.527 4.444c1.01 1.09 2.345 1.637 4.036 1.637 1.662 0 3.026-.545 4.034-1.636 1.01-1.09 1.526-2.59 1.526-4.443s-.517-3.354-1.526-4.444zM125.182 58.142c-1.116-1.063-2.07-2.78-2.89-5.18l-3.3-9.734c-.08-.19-.08-.436.03-.6.106-.164.298-.273.46-.245h3.3c.52 0 .874.3 1.037.872l3.134 9.734c.245.79.654 1.526 1.145 2.207.49.626 1.036.926 1.608.926h1.036l3.653-12.87c.163-.6.52-.87 1.036-.87h2.945c.218-.03.463.08.572.27.108.19.163.383.108.6l-4.688 16.523c-.573 1.963-1.5 3.545-2.864 4.77-1.31 1.2-3.026 1.855-4.798 1.828h-2.754c-.6 0-.873-.3-.873-.872V63.24c0-.6.302-.874.874-.874h.873c.326 0 .71.054 1.01.19.3.083.6.165.87.192 1.39 0 2.373-.982 2.945-2.945-1.798-.052-3.352-.598-4.47-1.66zM140.587 56.806c-.027-.654.49-1.2 1.145-1.227h2.319c.655 0 1.2.517 1.2 1.17v2.128c.026.654-.49 1.2-1.146 1.227H141.786c-.654.027-1.2-.49-1.227-1.145v-.054l.027-2.1zM152.938 34.885c.928 0 1.39.463 1.39 1.39v2.263c0 .927-.462 1.39-1.39 1.39h-1.908c-.928 0-1.39-.463-1.39-1.39v-2.263c0-.927.462-1.39 1.39-1.39h1.908zm1.39 24.32c0 .6-.3.873-.872.873h-2.972c-.6 0-.873-.3-.873-.873V43.228c0-.6.3-.873.874-.873h2.972c.6 0 .872.3.872.873v15.977zM173.823 49.145c.054-2.18-1.664-3.953-3.817-4.008h-.163c-1.01 0-1.99.218-2.89.654-.764.33-1.5.737-2.128 1.282l-.71.655v11.478c0 .6-.3.873-.872.873h-3c-.6 0-.87-.3-.87-.873V43.228c0-.6.3-.873.87-.873h2.947c.6 0 .87.3.87.873v1.036h.192l.272-.273c.245-.217.49-.435.79-.626.41-.3.818-.572 1.282-.79.545-.273 1.145-.464 1.744-.628.737-.19 1.445-.273 2.21-.273 2.425 0 4.36.71 5.807 2.072 1.445 1.363 2.182 3.19 2.208 5.398V59.23c-.055.464-.408.82-.873.873h-2.943c-.6 0-.874-.3-.874-.872l-.053-10.085zM201.796 58.524c.056 2.235-.953 4.39-2.672 5.834-1.8 1.554-4.197 2.345-7.225 2.345-2.646 0-4.772-.518-6.408-1.582-1.636-1.06-2.454-2.262-2.454-3.624 0-.6.3-.873.872-.873h2.427c.464 0 .955.3 1.392.873.87 1.145 2.262 1.745 4.17 1.745 1.554 0 2.78-.462 3.763-1.362.954-.845 1.473-2.072 1.473-3.327v-.517h-.19l-.683.382c-.6.272-1.2.463-1.826.627-.928.245-1.91.382-2.89.382-2.755 0-4.99-.845-6.763-2.48-1.718-1.583-2.7-3.846-2.645-6.218 0-2.7.954-4.88 2.835-6.517 1.88-1.637 4.525-2.48 7.96-2.48 1.282.025 2.564.162 3.817.462 1.01.19 1.99.464 2.973.79.6.22 1.01.382 1.2.492.544.136.9.654.872 1.227v13.824zm-4.69-12.515c-1.31-.6-2.753-.873-4.17-.873-1.882 0-3.355.49-4.445 1.526-1.09 1.037-1.635 2.345-1.635 4.063-.055 1.417.518 2.754 1.554 3.708 1.008 1.01 2.317 1.5 3.844 1.5.79 0 1.608-.137 2.346-.382.653-.19 1.28-.464 1.88-.79l.628-.383v-8.37z"/></g></svg>