<svg enable-background="new 0 0 240 100" height="100" viewBox="0 0 240 100" width="240" xmlns="http://www.w3.org/2000/svg"><path d="m42.16 58.17c-1.8-1.773-2.672-4.062-2.672-6.954 0-2.891.872-5.18 2.672-6.925 1.8-1.744 4.2-2.617 7.226-2.617s5.425.873 7.225 2.563 2.7 3.926 2.7 6.654v1.034c0 .601-.3.872-.872.872h-14.125c.11 1.227.68 2.373 1.608 3.189.955.873 2.21 1.365 3.49 1.311 1.963 0 3.408-.71 4.363-2.072.38-.601.79-.873 1.227-.873h2.617c.463-.027.845.328.872.791v.056c-.3 1.554-1.228 2.89-2.754 3.952-1.527 1.091-3.626 1.61-6.298 1.61-3.08.027-5.48-.845-7.279-2.591zm3.954-11.78c-.955.846-1.472 1.746-1.554 2.754h9.733c-.082-1.008-.6-1.91-1.554-2.753-1.937-1.662-4.745-1.662-6.625-.001zm31.463 2.755c.056-2.18-1.662-3.953-3.816-3.98h-.163c-1.008 0-1.99.218-2.89.654-.764.326-1.5.735-2.127 1.28l-.71.656v11.479c0 .601-.3.871-.87.871h-2.946c-.6 0-.872-.299-.872-.871v-16.007c0-.6.3-.873.872-.873h2.945c.6 0 .87.3.87.873v1.036h.19l.273-.273c.246-.217.49-.435.792-.626.41-.3.817-.572 1.28-.79.545-.273 1.146-.464 1.746-.628.736-.19 1.445-.273 2.208-.273 2.428 0 4.363.71 5.808 2.072 1.445 1.39 2.182 3.19 2.21 5.398v10.087c-.055.463-.41.819-.874.873h-2.944c-.6 0-.872-.301-.872-.873zm4.171 14.423c0-.601.3-.873.873-.873h.52c.354.027.71.055 1.035.189.327.11.683.164 1.036.19.765.028 1.502-.3 1.992-.872.518-.6.763-1.418.763-2.428v-16.548c0-.6.3-.873.873-.873h2.945c.6 0 .872.3.872.873v16.524c0 2.098-.654 3.816-1.99 5.043-1.336 1.282-3.163 1.88-5.48 1.908-.437 0-.846-.026-1.28-.08-.328-.057-.656-.11-1.01-.191l-.327-.055c-.6-.189-.872-.545-.872-1.036l.052-1.771zm9.543-28.683c.93 0 1.393.463 1.393 1.39v2.263c0 .927-.464 1.39-1.392 1.39h-1.907c-.927 0-1.39-.463-1.39-1.39v-2.263c0-.927.463-1.39 1.39-1.39h1.908zm23.176 23.285c-1.827 1.744-4.335 2.616-7.498 2.616s-5.7-.872-7.498-2.617c-1.8-1.746-2.754-4.063-2.754-6.954s.9-5.208 2.754-6.953c1.826-1.745 4.334-2.617 7.497-2.617s5.697.873 7.497 2.617c1.827 1.745 2.754 4.062 2.754 6.953-.027 2.891-.926 5.236-2.753 6.953zm-3.49-11.397c-1.008-1.09-2.344-1.636-4.034-1.636-1.664 0-3.026.545-4.036 1.636-1.008 1.09-1.527 2.59-1.527 4.444s.52 3.354 1.527 4.444c1.01 1.09 2.345 1.637 4.036 1.637 1.662 0 3.026-.545 4.034-1.636 1.01-1.09 1.526-2.59 1.526-4.443s-.517-3.354-1.526-4.444zm14.205 11.37c-1.115-1.063-2.07-2.781-2.89-5.181l-3.3-9.734c-.08-.19-.08-.436.03-.6.106-.164.298-.273.46-.245h3.3c.52 0 .874.3 1.036.872l3.135 9.734c.245.79.654 1.526 1.145 2.206.49.627 1.036.927 1.608.927h1.036l3.652-12.87c.164-.6.521-.87 1.037-.87h2.944c.218-.03.463.08.572.27.108.19.163.383.108.6l-4.688 16.523c-.573 1.963-1.5 3.545-2.864 4.77-1.311 1.2-3.025 1.855-4.798 1.828h-2.754c-.601 0-.873-.3-.873-.872v-2.261c0-.6.302-.874.874-.874h.873c.326 0 .71.054 1.01.19.301.082.6.164.87.191 1.39 0 2.373-.982 2.944-2.945-1.795-.051-3.35-.597-4.467-1.659zm15.405-1.336c-.026-.654.49-1.201 1.146-1.228h2.318c.655 0 1.2.517 1.2 1.17v2.128c.026.654-.49 1.2-1.146 1.227h-2.319c-.654.027-1.2-.489-1.228-1.145v-.055l.027-2.1zm12.351-21.922c.929 0 1.391.463 1.391 1.39v2.263c0 .927-.462 1.39-1.391 1.39h-1.908c-.928 0-1.389-.463-1.389-1.39v-2.263c0-.927.461-1.39 1.389-1.39zm1.39 24.32c0 .6-.301.873-.872.873h-2.972c-.601 0-.873-.301-.873-.873v-15.977c0-.6.3-.873.873-.873h2.973c.6 0 .872.3.872.873zm19.495-10.06c.054-2.18-1.664-3.953-3.817-4.008h-.163c-1.01 0-1.989.218-2.89.654-.764.33-1.5.737-2.128 1.282l-.71.655v11.478c0 .601-.301.873-.872.873h-3c-.601 0-.87-.3-.87-.873v-15.978c0-.6.3-.873.87-.873h2.946c.601 0 .871.3.871.873v1.036h.191l.271-.273c.246-.217.49-.435.791-.626.41-.3.817-.572 1.281-.79.545-.273 1.146-.464 1.744-.628.737-.19 1.445-.273 2.21-.273 2.425 0 4.36.71 5.808 2.072 1.444 1.363 2.182 3.19 2.207 5.398v10.086c-.055.463-.407.819-.873.873h-2.942c-.601 0-.874-.301-.874-.873zm27.973 9.378c.056 2.235-.953 4.391-2.672 5.834-1.8 1.555-4.197 2.346-7.226 2.346-2.646 0-4.771-.518-6.407-1.582-1.636-1.061-2.454-2.262-2.454-3.624 0-.601.3-.873.872-.873h2.427c.464 0 .955.3 1.393.873.869 1.146 2.262 1.745 4.17 1.745 1.554 0 2.779-.462 3.763-1.362.954-.845 1.473-2.071 1.473-3.327v-.517h-.19l-.683.382c-.6.271-1.2.463-1.825.627-.929.245-1.91.382-2.891.382-2.755 0-4.99-.845-6.763-2.479-1.718-1.583-2.7-3.846-2.646-6.219 0-2.7.954-4.879 2.836-6.517 1.879-1.637 4.524-2.48 7.959-2.48 1.282.025 2.564.162 3.817.462 1.01.19 1.99.464 2.974.79.6.22 1.01.382 1.199.492.544.136.9.654.872 1.227v13.824zm-4.691-12.514c-1.31-.6-2.752-.873-4.17-.873-1.881 0-3.354.49-4.444 1.526-1.091 1.037-1.636 2.345-1.636 4.062-.055 1.418.519 2.754 1.555 3.709 1.008 1.01 2.316 1.5 3.844 1.5.79 0 1.607-.138 2.346-.383.653-.189 1.28-.464 1.881-.79l.627-.383v-8.37z" fill="#384af4"/></svg>