<?xml version="1.0" encoding="UTF-8" standalone="no"?>
<!DOCTYPE svg PUBLIC "-//W3C//DTD SVG 1.1//EN" "http://www.w3.org/Graphics/SVG/1.1/DTD/svg11.dtd">
<svg width="100%" height="100%" viewBox="0 0 1265 408" version="1.1" xmlns="http://www.w3.org/2000/svg" xmlns:xlink="http://www.w3.org/1999/xlink" xml:space="preserve" xmlns:serif="http://www.serif.com/" style="fill-rule:evenodd;clip-rule:evenodd;stroke-linejoin:round;stroke-miterlimit:2;">
    <g transform="matrix(1,0,0,1,-3.88749,-1.26673)">
        <g transform="matrix(4.16667,0,0,4.16667,0,0)">
            <path d="M0.933,80.008L13.749,80.008L13.749,82.744L4.029,82.744L4.029,87.352L13.029,87.352L13.029,89.944L4.029,89.944L4.029,95.128L13.893,95.128L13.893,97.864L0.933,97.864L0.933,80.008Z" style="fill:rgb(48,66,242);"/>
        </g>
        <g transform="matrix(4.16667,0,0,4.16667,0,0)">
            <path d="M16.413,80.008L20.085,80.008L24.117,86.344L28.365,80.008L31.893,80.008L25.989,88.576L32.253,97.864L28.509,97.864L24.045,91.024L19.509,97.864L15.981,97.864L22.245,88.576L16.413,80.008Z" style="fill:rgb(48,66,242);"/>
        </g>
        <g transform="matrix(4.16667,0,0,4.16667,0,0)">
            <path d="M46.437,85.696C45.933,83.608 44.637,82.168 42.045,82.168C38.229,82.168 36.573,85.48 36.573,88.936C36.573,92.32 38.229,95.704 42.045,95.704C44.781,95.704 46.293,93.616 46.581,91.024L49.605,91.024C49.389,95.344 46.365,98.224 42.045,98.224C36.645,98.224 33.477,94.048 33.477,88.936C33.477,83.824 36.645,79.576 42.045,79.576C46.077,79.648 49.245,81.808 49.605,85.696L46.437,85.696Z" style="fill:rgb(48,66,242);"/>
        </g>
        <g transform="matrix(4.16667,0,0,4.16667,0,0)">
            <path d="M54.069,80.008L66.957,80.008L66.957,82.744L57.237,82.744L57.237,87.352L66.237,87.352L66.237,89.944L57.237,89.944L57.237,95.128L67.101,95.128L67.101,97.864L54.069,97.864L54.069,80.008Z" style="fill:rgb(48,66,242);"/>
        </g>
        <g transform="matrix(4.16667,0,0,4.16667,0,0)">
            <path d="M71.853,80.008L84.669,80.008L84.669,82.744L74.949,82.744L74.949,87.352L83.949,87.352L83.949,89.944L74.949,89.944L74.949,95.128L84.813,95.128L84.813,97.864L71.853,97.864L71.853,80.008Z" style="fill:rgb(48,66,242);"/>
        </g>
        <g transform="matrix(4.16667,0,0,4.16667,0,0)">
            <path d="M92.661,95.272L95.757,95.272C100.653,95.272 101.661,92.464 101.661,88.936C101.661,85.336 100.653,82.528 95.757,82.528L92.661,82.528L92.661,95.272ZM89.565,80.008L96.981,80.008C102.453,80.008 104.829,84.04 104.829,88.936C104.829,93.832 102.453,97.864 96.981,97.864L89.565,97.864L89.565,80.008Z" style="fill:rgb(48,66,242);"/>
        </g>
        <g transform="matrix(4.16667,0,0,4.16667,0,0)">
            <path d="M120.669,90.88L113.973,80.008L117.573,80.008L122.325,88L126.933,80.008L130.461,80.008L123.765,90.88L123.765,97.864L120.669,97.864L120.669,90.88Z" style="fill:rgb(48,66,242);"/>
        </g>
        <g transform="matrix(4.16667,0,0,4.16667,0,0)">
            <path d="M134.205,88.936C134.205,92.32 135.789,95.704 139.605,95.704C143.421,95.704 145.077,92.32 145.077,88.936C145.077,85.48 143.421,82.168 139.605,82.168C135.789,82.168 134.205,85.48 134.205,88.936ZM148.173,88.936C148.173,94.048 145.005,98.224 139.605,98.224C134.277,98.224 131.109,94.048 131.109,88.936C131.109,83.824 134.277,79.576 139.605,79.576C145.005,79.576 148.173,83.824 148.173,88.936Z" style="fill:rgb(48,66,242);"/>
        </g>
        <g transform="matrix(4.16667,0,0,4.16667,0,0)">
            <path d="M151.917,80.008L155.085,80.008L155.085,90.376C155.085,92.824 155.229,95.56 159.261,95.56C163.293,95.56 163.437,92.824 163.437,90.376L163.437,80.008L166.533,80.008L166.533,91.456C166.533,95.992 163.653,98.224 159.261,98.224C154.869,98.224 151.917,95.992 151.917,91.456L151.917,80.008Z" style="fill:rgb(48,66,242);"/>
        </g>
        <g transform="matrix(4.16667,0,0,4.16667,0,0)">
            <path d="M174.525,88.144L179.637,88.144C181.653,88.144 182.661,87.136 182.661,85.264C182.661,83.032 181.221,82.528 179.565,82.528L174.525,82.528L174.525,88.144ZM171.429,80.008L179.925,80.008C183.813,80.008 185.829,81.808 185.829,84.832C185.829,88.288 183.453,89.152 182.877,89.296L182.877,89.368C183.957,89.512 185.541,90.304 185.541,93.112C185.541,95.2 185.829,97.072 186.477,97.864L183.165,97.864C182.661,97.072 182.661,96.064 182.661,95.2C182.661,91.96 182.013,90.52 179.133,90.52L174.525,90.52L174.525,97.864L171.429,97.864L171.429,80.008Z" style="fill:rgb(48,66,242);"/>
        </g>
        <g transform="matrix(4.16667,0,0,4.16667,0,0)">
            <path d="M197.061,80.008L200.301,80.008L204.765,94.12L204.837,94.12L209.373,80.008L212.541,80.008L206.493,97.864L202.965,97.864L197.061,80.008Z" style="fill:rgb(48,66,242);"/>
        </g>
        <g transform="matrix(4.16667,0,0,4.16667,0,0)">
            <rect x="215.781" y="80.008" width="3.096" height="17.856" style="fill:rgb(48,66,242);"/>
        </g>
        <g transform="matrix(4.16667,0,0,4.16667,0,0)">
            <path d="M225.933,91.888C225.933,94.624 227.949,95.704 230.397,95.704C233.205,95.704 234.213,94.336 234.213,93.04C234.213,91.672 233.421,91.096 232.701,90.808C231.477,90.376 229.821,90.016 227.445,89.368C224.349,88.504 223.485,86.704 223.485,84.832C223.485,81.232 226.725,79.576 229.965,79.576C233.709,79.576 236.805,81.592 236.805,85.264L233.709,85.264C233.565,82.96 231.981,82.168 229.821,82.168C228.381,82.168 226.581,82.672 226.581,84.472C226.581,85.696 227.445,86.416 228.741,86.776C228.957,86.848 232.917,87.856 233.853,88.144C236.229,88.792 237.309,90.808 237.309,92.68C237.309,96.64 233.781,98.224 230.253,98.224C226.149,98.224 222.837,96.28 222.765,91.888L225.933,91.888Z" style="fill:rgb(48,66,242);"/>
        </g>
        <g transform="matrix(4.16667,0,0,4.16667,0,0)">
            <rect x="241.557" y="80.008" width="3.096" height="17.856" style="fill:rgb(48,66,242);"/>
        </g>
        <g transform="matrix(4.16667,0,0,4.16667,0,0)">
            <path d="M251.853,88.936C251.853,92.32 253.509,95.704 257.325,95.704C261.141,95.704 262.725,92.32 262.725,88.936C262.725,85.48 261.141,82.168 257.325,82.168C253.509,82.168 251.853,85.48 251.853,88.936ZM265.821,88.936C265.821,94.048 262.653,98.224 257.325,98.224C251.925,98.224 248.757,94.048 248.757,88.936C248.757,83.824 251.925,79.576 257.325,79.576C262.653,79.576 265.821,83.824 265.821,88.936Z" style="fill:rgb(48,66,242);"/>
        </g>
        <g transform="matrix(4.16667,0,0,4.16667,0,0)">
            <path d="M269.925,80.008L273.165,80.008L281.373,93.112L281.373,80.008L284.325,80.008L284.325,97.864L281.085,97.864L272.949,84.76L272.877,84.76L272.877,97.864L269.925,97.864L269.925,80.008Z" style="fill:rgb(48,66,242);"/>
        </g>
        <g transform="matrix(4.16667,0,0,4.16667,0,0)">
            <path d="M197.133,57.112C184.893,57.112 180.213,45.88 180.213,34.432C180.213,23.056 184.893,11.824 197.133,11.824C209.301,11.824 214.053,23.056 214.053,34.432C214.053,45.88 209.301,57.112 197.133,57.112ZM197.133,0.304C177.909,0.304 166.821,14.704 166.821,34.432C166.821,54.16 177.909,68.56 197.133,68.56C216.357,68.56 227.445,54.16 227.445,34.432C227.445,14.704 216.357,0.304 197.133,0.304Z" style="fill:rgb(48,66,242);"/>
        </g>
        <g transform="matrix(4.16667,0,0,4.16667,0,0)">
            <path d="M0.933,2.248L49.029,2.248L49.029,13.696L14.325,13.696L14.325,28.024L46.725,28.024L46.725,39.184L14.325,39.184L14.325,55.168L49.029,55.168L49.029,66.688L0.933,66.688L0.933,2.248Z" style="fill:rgb(48,66,242);"/>
        </g>
        <g transform="matrix(4.16667,0,0,4.16667,0,0)">
            <path d="M80.277,35.872L68.181,35.872L68.181,13.696L80.277,13.696C88.701,13.696 94.317,17.368 94.317,24.784C94.317,32.2 88.701,35.872 80.277,35.872ZM54.789,66.688L68.181,66.688L68.181,47.32L80.277,47.32C96.693,47.32 107.709,39.256 107.709,24.784C107.709,10.312 96.693,2.248 80.277,2.248L54.789,2.248L54.789,66.688Z" style="fill:rgb(48,66,242);"/>
        </g>
        <g transform="matrix(4.16667,0,0,4.16667,0,0)">
            <path d="M246.237,2.248L232.485,2.248L232.485,66.688L245.589,66.688L245.589,40.552C245.589,33.424 245.373,27.088 245.085,21.472C246.669,24.712 251.349,34.36 253.509,38.032L270.645,66.688L284.397,66.688L284.397,2.248L271.221,2.248L271.221,27.664C271.221,34.792 271.509,41.776 271.725,47.392C270.213,44.152 265.461,34.504 263.301,30.832L246.237,2.248Z" style="fill:rgb(48,66,242);"/>
        </g>
        <g transform="matrix(4.16667,0,0,4.16667,0,0)">
            <path d="M122.901,45.304C122.901,54.016 130.101,57.4 137.805,57.4C142.773,57.4 150.909,55.888 150.909,49.264C150.909,42.208 140.973,40.912 131.397,38.392C121.389,35.728 111.741,31.912 111.741,20.032C111.741,6.712 124.269,0.304 136.077,0.304C149.613,0.304 162.141,6.208 162.141,21.256L148.749,21.256C148.245,13.408 142.269,11.464 135.429,11.464C130.893,11.464 125.133,13.336 125.133,18.808C125.133,23.848 128.373,24.64 144.717,28.816C149.469,29.968 164.301,32.848 164.301,47.608C164.301,59.56 154.941,68.488 137.229,68.488C122.829,68.488 109.365,61.36 109.509,45.304L122.901,45.304Z" style="fill:rgb(48,66,242);"/>
        </g>
        <g transform="matrix(4.16667,0,0,4.16667,0,0)">
            <path d="M297.285,15.784C301.173,15.784 304.341,12.616 304.341,8.656C304.341,4.768 301.173,1.6 297.285,1.6C293.325,1.6 290.157,4.768 290.157,8.656C290.157,12.616 293.325,15.784 297.285,15.784ZM290.805,8.656C290.805,5.128 293.685,2.248 297.285,2.248C300.813,2.248 303.693,5.128 303.693,8.656C303.693,12.256 300.813,15.136 297.285,15.136C293.685,15.136 290.805,12.256 290.805,8.656Z" style="fill:rgb(48,66,242);"/>
        </g>
        <g transform="matrix(4.16667,0,0,4.16667,0,0)">
            <path d="M297.933,8.512C298.653,8.512 299.301,7.936 299.301,7.072C299.301,6.136 298.653,5.632 297.933,5.632L295.773,5.632L295.773,12.832L294.333,12.832L294.333,4.552L297.933,4.552C299.661,4.552 300.741,5.632 300.741,7.072C300.741,8.296 299.805,9.232 298.869,9.376L301.173,12.832L299.445,12.832L296.709,8.512L297.933,8.512Z" style="fill:rgb(48,66,242);"/>
        </g>
    </g>
</svg>
