<?xml version="1.0" encoding="UTF-8" standalone="no"?>
<!DOCTYPE svg PUBLIC "-//W3C//DTD SVG 1.1//EN" "http://www.w3.org/Graphics/SVG/1.1/DTD/svg11.dtd">
<svg width="100%" height="100%" viewBox="0 0 819 148" version="1.1" xmlns="http://www.w3.org/2000/svg" xmlns:xlink="http://www.w3.org/1999/xlink" xml:space="preserve" xmlns:serif="http://www.serif.com/" style="fill-rule:evenodd;clip-rule:evenodd;stroke-linejoin:round;stroke-miterlimit:2;">
    <g transform="matrix(1,0,0,1,-64.7424,-186.276)">
        <g transform="matrix(1,0,0,1,296.07,248.549)">
            <path d="M0,51.01C2.948,50.982 5.502,50.699 7.698,50.153C9.868,49.612 11.935,48.851 13.916,47.898L13.829,35.128L5.034,35.191C4.194,35.197 3.517,34.965 3.041,34.509C2.554,34.034 2.309,33.443 2.309,32.783L2.246,25.398L25.623,25.24L25.795,53.643C24.019,54.962 22.181,56.078 20.267,57.075C18.345,58.017 16.295,58.835 14.114,59.454C11.935,60.086 9.592,60.561 7.112,60.893C4.628,61.22 1.93,61.378 -0.973,61.395C-6.081,61.423 -10.779,60.583 -15.109,58.818C-19.422,57.081 -23.16,54.623 -26.348,51.461C-29.494,48.349 -31.96,44.549 -33.768,40.152C-35.554,35.782 -36.462,30.968 -36.499,25.742C-36.535,20.476 -35.698,15.594 -34.021,11.219C-32.341,6.788 -29.925,2.976 -26.779,-0.198C-23.665,-3.388 -19.845,-5.891 -15.349,-7.661C-10.878,-9.437 -5.81,-10.362 -0.226,-10.39C5.502,-10.413 10.474,-9.606 14.691,-7.927C18.9,-6.263 22.44,-4.087 25.369,-1.37L21.637,4.567C20.91,5.773 19.923,6.376 18.689,6.376C17.899,6.376 17.122,6.139 16.31,5.626C15.261,5.023 14.207,4.426 13.102,3.822C12.028,3.197 10.818,2.678 9.5,2.232C8.197,1.776 6.723,1.421 5.071,1.127C3.442,0.857 1.562,0.727 -0.592,0.75C-4.057,0.761 -7.191,1.376 -9.99,2.537C-12.767,3.726 -15.146,5.406 -17.097,7.589C-19.056,9.787 -20.561,12.392 -21.609,15.447C-22.658,18.509 -23.16,21.885 -23.146,25.663C-23.115,29.705 -22.523,33.319 -21.37,36.458C-20.228,39.587 -18.613,42.255 -16.564,44.403C-14.492,46.568 -12.062,48.208 -9.237,49.335C-6.424,50.463 -3.335,51.021 0,51.01" style="fill:rgb(255,244,226);fill-rule:nonzero;"/>
        </g>
        <g transform="matrix(1,0,0,1,332.731,257.974)">
            <path d="M0,50.937L-0.333,1.111L6.712,1.083C7.932,1.078 8.783,1.286 9.288,1.743C9.775,2.177 10.114,2.966 10.274,4.054L11.033,10.092C12.798,7.002 14.878,4.54 17.251,2.74C19.633,0.948 22.339,0.041 25.299,0.023C27.768,0 29.79,0.564 31.444,1.669L29.924,10.673C29.834,11.27 29.637,11.67 29.322,11.93C28.975,12.172 28.563,12.28 28.014,12.28C27.526,12.28 26.855,12.189 26.015,11.981C25.152,11.738 24.053,11.648 22.646,11.665C20.18,11.682 18.035,12.375 16.27,13.746C14.475,15.138 13,17.173 11.78,19.851L11.991,50.875L0,50.937Z" style="fill:rgb(255,244,226);fill-rule:nonzero;"/>
        </g>
        <g transform="matrix(1,0,0,1,382.58,286.508)">
            <path d="M0,-27.738L0.313,22.082L-11.681,22.161L-12.002,-27.659L0,-27.738ZM1.672,-42.272C1.683,-41.24 1.505,-40.276 1.071,-39.357C0.671,-38.461 0.121,-37.66 -0.575,-36.961C-1.282,-36.29 -2.086,-35.727 -3.011,-35.332C-3.96,-34.932 -4.966,-34.706 -6.038,-34.706C-7.07,-34.706 -8.044,-34.898 -8.964,-35.281C-9.905,-35.687 -10.709,-36.222 -11.385,-36.899C-12.07,-37.592 -12.609,-38.353 -13.025,-39.261C-13.434,-40.163 -13.648,-41.144 -13.648,-42.176C-13.668,-43.247 -13.465,-44.245 -13.065,-45.175C-12.645,-46.139 -12.127,-46.945 -11.447,-47.65C-10.793,-48.327 -9.981,-48.879 -9.06,-49.291C-8.141,-49.696 -7.168,-49.888 -6.131,-49.899C-5.057,-49.899 -4.059,-49.73 -3.104,-49.319C-2.17,-48.93 -1.358,-48.383 -0.643,-47.712C0.067,-47.03 0.615,-46.224 1.035,-45.265C1.475,-44.346 1.672,-43.365 1.672,-42.272" style="fill:rgb(255,244,226);fill-rule:nonzero;"/>
        </g>
        <g transform="matrix(1,0,0,1,413.891,245.634)">
            <path d="M0,53.947C2.492,53.947 4.595,53.417 6.328,52.357C8.074,51.32 9.714,49.843 11.256,47.909L11.121,25.578C9.74,23.943 8.259,22.753 6.644,22.1C5.041,21.428 3.301,21.108 1.458,21.124C-0.358,21.124 -1.99,21.468 -3.453,22.168C-4.938,22.844 -6.162,23.882 -7.185,25.274C-8.197,26.683 -8.961,28.403 -9.504,30.551C-10.035,32.67 -10.305,35.162 -10.294,38.043C-10.263,40.974 -9.998,43.416 -9.527,45.434C-9.034,47.492 -8.354,49.104 -7.48,50.373C-6.604,51.664 -5.53,52.565 -4.256,53.14C-2.996,53.682 -1.573,53.969 0,53.947M16.006,62.64C14.464,62.657 13.452,61.941 12.953,60.459L11.935,55.683C10.887,56.828 9.838,57.916 8.696,58.846C7.58,59.788 6.359,60.611 5.088,61.293C3.752,62.004 2.332,62.533 0.835,62.917C-0.659,63.283 -2.28,63.498 -4.028,63.498C-6.739,63.52 -9.257,62.972 -11.54,61.857C-13.809,60.74 -15.763,59.094 -17.423,56.985C-19.063,54.815 -20.34,52.176 -21.254,48.997C-22.173,45.823 -22.641,42.215 -22.672,38.122C-22.691,34.424 -22.209,31.013 -21.234,27.844C-20.242,24.665 -18.835,21.88 -16.955,19.551C-15.103,17.195 -12.859,15.351 -10.238,14.009C-7.642,12.701 -4.693,12.002 -1.418,11.991C1.375,11.991 3.752,12.42 5.717,13.288C7.704,14.167 9.469,15.351 11.047,16.823L10.887,-9.488L22.864,-9.573L23.346,62.595L16.006,62.64Z" style="fill:rgb(255,244,226);fill-rule:nonzero;"/>
        </g>
        <g transform="matrix(1,0,0,1,523.338,272.994)">
            <path d="M0,-0.473C-0.036,-4.324 -0.574,-7.763 -1.635,-10.83C-2.677,-13.857 -4.168,-16.462 -6.119,-18.57C-8.03,-20.668 -10.35,-22.291 -13.102,-23.385C-15.863,-24.49 -18.937,-25.065 -22.378,-25.02L-35.996,-24.947L-35.686,24.507L-22.043,24.411C-18.615,24.394 -15.531,23.792 -12.806,22.635C-10.06,21.491 -7.766,19.85 -5.871,17.719C-3.96,15.611 -2.505,12.984 -1.493,9.911C-0.476,6.85 0.018,3.394 0,-0.473M13.34,-0.547C13.371,4.601 12.545,9.331 10.879,13.654C9.176,17.962 6.791,21.711 3.713,24.817C0.629,27.946 -3.098,30.392 -7.47,32.13C-11.85,33.872 -16.679,34.773 -21.97,34.796L-48.774,34.982L-49.23,-35.241L-22.437,-35.416C-17.129,-35.455 -12.298,-34.627 -7.895,-32.93C-3.528,-31.222 0.234,-28.826 3.387,-25.758C6.495,-22.702 8.942,-18.999 10.681,-14.731C12.409,-10.402 13.297,-5.7 13.34,-0.547" style="fill:rgb(255,244,226);fill-rule:nonzero;"/>
        </g>
        <g transform="matrix(1,0,0,1,563.767,260.056)">
            <path d="M0,61.009C-0.327,61.866 -0.814,62.515 -1.388,62.938C-1.937,63.383 -2.805,63.631 -3.952,63.637L-12.908,63.694L-3.713,43.652L-24.172,-2.341L-13.675,-2.42C-12.711,-2.425 -11.972,-2.222 -11.453,-1.76C-10.923,-1.304 -10.529,-0.796 -10.264,-0.204L0.55,25.56C0.898,26.4 1.221,27.274 1.485,28.17C1.738,29.084 1.979,29.991 2.165,30.91C2.436,29.941 2.709,29.05 3.021,28.17C3.323,27.29 3.634,26.394 4.002,25.481L13.829,-0.379C14.074,-1.005 14.514,-1.546 15.106,-1.98C15.698,-2.42 16.38,-2.623 17.102,-2.623L26.73,-2.685L0,61.009Z" style="fill:rgb(255,244,226);fill-rule:nonzero;"/>
        </g>
        <g transform="matrix(1,0,0,1,596.432,256.385)">
            <path d="M0,50.773L-0.333,0.941L6.982,0.908C8.566,0.89 9.604,1.612 10.071,3.061L10.948,6.991C11.92,5.953 12.983,4.989 14.085,4.155C15.201,3.293 16.368,2.576 17.614,1.928C18.86,1.33 20.18,0.845 21.604,0.524C23.024,0.186 24.589,0 26.285,0C29.006,0 31.41,0.417 33.532,1.33C35.641,2.238 37.389,3.529 38.823,5.181C40.229,6.844 41.341,8.817 42.051,11.14C42.81,13.445 43.204,15.994 43.204,18.784L43.427,50.48L31.43,50.576L31.227,18.869C31.189,15.797 30.479,13.468 29.042,11.799C27.645,10.136 25.516,9.33 22.702,9.341C20.625,9.358 18.674,9.849 16.879,10.773C15.077,11.737 13.369,13.029 11.748,14.652L11.982,50.688L0,50.773Z" style="fill:rgb(255,244,226);fill-rule:nonzero;"/>
        </g>
        <g transform="matrix(1,0,0,1,665.411,264.193)">
            <path d="M0,35.044C1.215,35.027 2.348,34.92 3.385,34.66C4.42,34.44 5.396,34.103 6.328,33.634C7.247,33.206 8.135,32.643 8.986,31.994C9.823,31.312 10.7,30.545 11.552,29.648L11.501,21.299C8.005,21.339 5.088,21.564 2.751,22.026C0.411,22.478 -1.479,23.041 -2.887,23.751C-4.324,24.44 -5.336,25.245 -5.917,26.164C-6.509,27.101 -6.805,28.065 -6.791,29.152C-6.779,31.277 -6.162,32.789 -4.916,33.702C-3.659,34.598 -2.005,35.044 0,35.044M23.373,42.35L17.964,42.4C16.826,42.4 15.949,42.237 15.289,41.894C14.636,41.555 14.167,40.879 13.81,39.841L12.724,36.301C11.479,37.451 10.269,38.454 9.028,39.312C7.831,40.191 6.584,40.907 5.285,41.51C3.978,42.091 2.621,42.525 1.164,42.847C-0.305,43.14 -1.926,43.298 -3.707,43.315C-5.793,43.337 -7.755,43.043 -9.517,42.485C-11.313,41.939 -12.859,41.088 -14.146,39.977C-15.428,38.85 -16.432,37.44 -17.142,35.749C-17.88,34.074 -18.252,32.118 -18.264,29.852C-18.264,27.985 -17.79,26.113 -16.834,24.265C-15.822,22.427 -14.225,20.769 -11.898,19.27C-9.615,17.77 -6.582,16.53 -2.746,15.532C1.06,14.534 5.778,14.021 11.439,13.964L11.428,11.027C11.402,7.667 10.675,5.181 9.282,3.591C7.851,1.973 5.795,1.19 3.115,1.207C1.164,1.207 -0.435,1.454 -1.723,1.922C-3.03,2.385 -4.158,2.892 -5.097,3.478C-6.077,4.037 -6.926,4.561 -7.729,5.012C-8.544,5.48 -9.443,5.745 -10.407,5.745C-11.233,5.745 -11.918,5.508 -12.479,5.096C-13.102,4.685 -13.551,4.177 -13.908,3.557L-16.124,-0.276C-10.425,-5.542 -3.541,-8.214 4.544,-8.265C7.456,-8.293 10.071,-7.831 12.366,-6.9C14.672,-5.959 16.62,-4.645 18.187,-2.954C19.785,-1.257 20.986,0.761 21.852,3.123C22.697,5.463 23.134,8.056 23.151,10.903L23.373,42.35Z" style="fill:rgb(255,244,226);fill-rule:nonzero;"/>
        </g>
        <g transform="matrix(1,0,0,1,699.271,255.511)">
            <path d="M0,50.987L-0.326,1.139L6.988,1.099C8.556,1.071 9.564,1.799 10.047,3.23L10.872,6.946C11.724,5.943 12.643,5.069 13.613,4.239C14.549,3.445 15.555,2.723 16.629,2.125C17.708,1.533 18.867,1.071 20.112,0.739C21.37,0.389 22.729,0.22 24.22,0.192C27.354,0.174 29.956,1.009 32.006,2.678C34.026,4.363 35.568,6.636 36.569,9.443C37.339,7.78 38.309,6.354 39.473,5.187C40.62,3.969 41.886,2.999 43.267,2.249C44.673,1.483 46.128,0.947 47.712,0.581C49.262,0.203 50.847,0.017 52.431,0.011C55.188,0 57.662,0.395 59.766,1.224C61.905,2.041 63.731,3.264 65.197,4.888C66.666,6.489 67.776,8.473 68.565,10.779C69.344,13.096 69.725,15.763 69.738,18.796L69.967,50.514L57.976,50.576L57.772,18.869C57.753,15.678 57.025,13.311 55.628,11.71C54.221,10.108 52.172,9.336 49.482,9.353C48.262,9.353 47.126,9.584 46.08,10.002C45.006,10.424 44.087,11.05 43.314,11.845C42.525,12.634 41.908,13.644 41.466,14.839C40.998,16.045 40.8,17.432 40.822,18.983L41.021,50.688L28.97,50.773L28.761,19.061C28.722,15.713 28.045,13.288 26.712,11.783C25.342,10.272 23.368,9.522 20.725,9.545C19.017,9.545 17.413,10.002 15.913,10.858C14.433,11.732 13.032,12.922 11.737,14.41L11.972,50.885L0,50.987Z" style="fill:rgb(255,244,226);fill-rule:nonzero;"/>
        </g>
        <g transform="matrix(1,0,0,1,791.54,283.762)">
            <path d="M0,-27.732L0.338,22.1L-11.665,22.167L-11.997,-27.647L0,-27.732ZM1.708,-42.283C1.708,-41.223 1.522,-40.248 1.091,-39.368C0.685,-38.426 0.13,-37.637 -0.561,-36.961C-1.266,-36.256 -2.066,-35.727 -2.999,-35.332C-3.943,-34.914 -4.947,-34.711 -6.007,-34.689C-7.064,-34.677 -8.025,-34.881 -8.949,-35.293C-9.852,-35.676 -10.703,-36.194 -11.357,-36.893C-12.07,-37.564 -12.614,-38.348 -13.009,-39.255C-13.429,-40.157 -13.643,-41.121 -13.657,-42.17C-13.657,-43.235 -13.445,-44.239 -13.057,-45.18C-12.656,-46.122 -12.127,-46.934 -11.431,-47.616C-10.776,-48.304 -9.95,-48.845 -9.043,-49.274C-8.144,-49.679 -7.163,-49.877 -6.1,-49.877C-5.051,-49.899 -4.042,-49.713 -3.104,-49.313C-2.143,-48.907 -1.353,-48.366 -0.631,-47.701C0.079,-47.013 0.623,-46.212 1.065,-45.265C1.485,-44.346 1.708,-43.349 1.708,-42.283" style="fill:rgb(255,244,226);fill-rule:nonzero;"/>
        </g>
        <g transform="matrix(1,0,0,1,838.308,295.161)">
            <path d="M0,-28.91C-0.35,-28.453 -0.696,-28.093 -1.035,-27.833C-1.381,-27.569 -1.875,-27.439 -2.515,-27.427C-3.146,-27.427 -3.737,-27.614 -4.305,-27.979C-4.896,-28.358 -5.587,-28.764 -6.413,-29.226C-7.217,-29.688 -8.188,-30.105 -9.3,-30.466C-10.436,-30.844 -11.816,-31.03 -13.457,-31.018C-15.571,-31.008 -17.435,-30.596 -18.996,-29.818C-20.569,-29.056 -21.895,-27.94 -22.937,-26.531C-23.98,-25.088 -24.744,-23.34 -25.248,-21.322C-25.768,-19.309 -26.001,-17.003 -25.99,-14.466C-25.979,-11.822 -25.663,-9.427 -25.082,-7.374C-24.51,-5.288 -23.695,-3.546 -22.621,-2.159C-21.525,-0.75 -20.206,0.293 -18.7,1.004C-17.158,1.736 -15.456,2.08 -13.52,2.08C-11.62,2.069 -10.083,1.821 -8.905,1.336C-7.71,0.846 -6.74,0.338 -5.925,-0.243C-5.136,-0.817 -4.408,-1.319 -3.837,-1.793C-3.22,-2.289 -2.565,-2.52 -1.812,-2.52C-0.863,-2.52 -0.099,-2.159 0.383,-1.431L3.851,2.92C2.543,4.499 1.085,5.813 -0.432,6.872C-1.984,7.938 -3.6,8.789 -5.291,9.403C-6.943,10.074 -8.646,10.542 -10.436,10.802C-12.2,11.072 -13.962,11.213 -15.715,11.225C-18.799,11.236 -21.686,10.678 -24.423,9.55C-27.148,8.423 -29.53,6.765 -31.565,4.577C-33.601,2.397 -35.235,-0.288 -36.414,-3.473C-37.635,-6.675 -38.237,-10.289 -38.269,-14.376C-38.288,-18.035 -37.795,-21.417 -36.758,-24.54C-35.724,-27.692 -34.198,-30.398 -32.194,-32.704C-30.147,-34.982 -27.625,-36.814 -24.646,-38.099C-21.635,-39.43 -18.176,-40.101 -14.246,-40.135C-10.551,-40.146 -7.259,-39.571 -4.42,-38.398C-1.652,-37.225 0.888,-35.517 3.135,-33.285L0,-28.91Z" style="fill:rgb(255,244,226);fill-rule:nonzero;"/>
        </g>
        <g transform="matrix(1,0,0,1,879.559,295.776)">
            <path d="M0,-30.624C-0.311,-30.094 -0.643,-29.739 -1.001,-29.525C-1.37,-29.293 -1.802,-29.198 -2.346,-29.198C-2.938,-29.198 -3.591,-29.362 -4.251,-29.66C-4.911,-29.987 -5.657,-30.342 -6.562,-30.743C-7.419,-31.148 -8.438,-31.498 -9.553,-31.819C-10.67,-32.124 -11.978,-32.293 -13.508,-32.27C-15.851,-32.259 -17.708,-31.757 -19.084,-30.737C-20.417,-29.711 -21.107,-28.42 -21.082,-26.773C-21.082,-25.725 -20.736,-24.817 -20.015,-24.107C-19.344,-23.391 -18.41,-22.748 -17.246,-22.196C-16.093,-21.661 -14.791,-21.147 -13.322,-20.747C-11.879,-20.302 -10.388,-19.834 -8.852,-19.337C-7.315,-18.819 -5.847,-18.261 -4.355,-17.601C-2.918,-16.958 -1.63,-16.107 -0.439,-15.109C0.707,-14.088 1.641,-12.882 2.325,-11.445C3.053,-10.041 3.428,-8.31 3.441,-6.297C3.441,-3.918 2.996,-1.698 2.139,0.344C1.319,2.35 0.03,4.116 -1.655,5.609C-3.318,7.075 -5.39,8.248 -7.859,9.093C-10.337,9.927 -13.161,10.362 -16.369,10.396C-18.071,10.407 -19.763,10.254 -21.39,9.95C-23.03,9.674 -24.617,9.234 -26.128,8.705C-27.625,8.158 -29.062,7.52 -30.319,6.793C-31.565,6.054 -32.713,5.249 -33.702,4.375L-30.968,-0.22C-30.61,-0.767 -30.204,-1.167 -29.722,-1.483C-29.234,-1.782 -28.611,-1.928 -27.867,-1.934C-27.126,-1.934 -26.424,-1.72 -25.756,-1.314C-25.091,-0.891 -24.29,-0.434 -23.45,0.039C-22.551,0.507 -21.525,0.975 -20.347,1.364C-19.171,1.798 -17.678,1.996 -15.833,1.996C-14.421,1.967 -13.224,1.798 -12.194,1.42C-11.177,1.099 -10.337,0.626 -9.66,0.056C-9.018,-0.468 -8.536,-1.127 -8.217,-1.844C-7.907,-2.571 -7.767,-3.315 -7.777,-4.105C-7.792,-5.278 -8.149,-6.224 -8.852,-6.974C-9.553,-7.696 -10.472,-8.338 -11.608,-8.902C-12.767,-9.416 -14.089,-9.912 -15.563,-10.329C-17.055,-10.774 -18.54,-11.242 -20.102,-11.749C-21.624,-12.223 -23.166,-12.86 -24.617,-13.525C-26.108,-14.218 -27.433,-15.103 -28.575,-16.152C-29.722,-17.201 -30.642,-18.515 -31.352,-20.076C-32.073,-21.61 -32.442,-23.476 -32.456,-25.686C-32.468,-27.732 -32.073,-29.671 -31.27,-31.521C-30.469,-33.375 -29.302,-34.999 -27.732,-36.38C-26.176,-37.767 -24.228,-38.878 -21.871,-39.724C-19.526,-40.575 -16.832,-40.986 -13.754,-41.02C-10.337,-41.031 -7.205,-40.501 -4.355,-39.391C-1.557,-38.274 0.789,-36.786 2.7,-34.948L0,-30.624Z" style="fill:rgb(255,244,226);fill-rule:nonzero;"/>
        </g>
        <g transform="matrix(1,0,0,1,212.104,234.218)">
            <path d="M0,27.388C-8.129,-9.866 -49.995,-44.679 -78.564,-47.729L-78.552,-47.723C-80.87,-46.235 -82.784,-44.38 -84.326,-42.215C-67.683,-40.794 -53.098,-29.75 -36.29,-12.008C-23.241,1.776 -14.446,23.909 -12.144,47.273C-11.238,56.495 -11.349,65.921 -12.614,75.117C0.666,60.368 3.541,43.636 0,27.388" style="fill:rgb(255,244,226);fill-rule:nonzero;"/>
        </g>
        <g transform="matrix(-0.454806,-0.890591,-0.890591,0.454806,96.8824,272.284)">
            <path d="M-55.079,-87.614C-63.705,-84.225 -72.049,-79.841 -79.663,-74.532C-88.159,-53.274 -72.183,-2.603 -55.079,26.052C-46.425,27.333 -38.208,26.068 -30.528,22.934C-56.572,-11.316 -65.474,-57.532 -55.079,-87.614" style="fill:rgb(255,244,226);fill-rule:nonzero;"/>
        </g>
        <g transform="matrix(1,0,0,1,167.857,271.122)">
            <path d="M0,-43.055C9.869,-27.557 8.084,0.457 -2.664,16.682L-4.054,16.349C-11.374,13.317 -18.81,6.173 -25.324,-2.999C-3.712,-29.558 -15.907,-49.561 -31.196,-53.581C-35.76,-54.798 -40.571,-54.567 -44.865,-52.656C-30.277,-59.737 -10.903,-58.948 0,-43.055" style="fill:rgb(255,244,226);fill-rule:nonzero;"/>
        </g>
        <g transform="matrix(1,0,0,1,122.993,227.739)">
            <path d="M0,-9.273C4.293,-11.185 9.104,-11.416 13.668,-10.198C9.883,-6.59 5.886,-2.44 1.931,2.143C0.97,-1.719 0.273,-5.513 -0.146,-9.217L-0.135,-9.228C-0.09,-9.262 -0.048,-9.262 0,-9.273" style="fill:rgb(255,244,226);fill-rule:nonzero;"/>
        </g>
        <g transform="matrix(1,0,0,1,163.804,214.87)">
            <path d="M0,72.601C-7.32,69.569 -14.756,62.425 -21.271,53.253C-29.054,42.316 -35.542,28.402 -38.88,15.013C-39.841,11.151 -40.538,7.356 -40.958,3.652L-40.946,3.642C-42.088,-6.811 -40.76,-16.282 -36.025,-22.867C-34.483,-25.032 -32.569,-26.887 -30.251,-28.375L-30.263,-28.381C-38.911,-29.294 -46.336,-27.315 -51.232,-21.593L-51.246,-21.593C-54.97,-17.269 -57.253,-10.825 -57.524,-1.878C-58.099,2.711 -58.51,9.228 -58.536,16.698C-58.561,23.982 -58.192,32.151 -57.228,40.32C-53.589,71.243 -41.29,101.895 -8.271,82.518C-4.507,80.302 -1.274,76.976 1.39,72.934L0,72.601Z" style="fill:rgb(255,244,226);fill-rule:nonzero;"/>
        </g>
        <g transform="matrix(1,0,0,1,90.3418,254.851)">
            <path d="M0,55.052C-1.517,37.305 5.762,17.798 16.234,0.339C15.27,-7.83 14.901,-16 14.926,-23.283C-2.356,-7.024 -23.049,24.293 -25.38,47.808C-26.602,60.07 -22.844,70.218 -10.991,75.004C-6.032,76.718 0.674,77.818 8.389,78.335C3.313,71.21 0.702,63.317 0,55.052" style="fill:rgb(255,244,226);fill-rule:nonzero;"/>
        </g>
    </g>
</svg>
