<?xml version="1.0" encoding="UTF-8" standalone="no"?>
<!DOCTYPE svg PUBLIC "-//W3C//DTD SVG 1.1//EN" "http://www.w3.org/Graphics/SVG/1.1/DTD/svg11.dtd">
<svg width="100%" height="100%" viewBox="0 0 621 141" version="1.1" xmlns="http://www.w3.org/2000/svg" xmlns:xlink="http://www.w3.org/1999/xlink" xml:space="preserve" xmlns:serif="http://www.serif.com/" style="fill-rule:evenodd;clip-rule:evenodd;stroke-linejoin:round;stroke-miterlimit:2;">
    <g transform="matrix(1,0,0,1,-381.563,-189.591)">
        <g transform="matrix(4.16667,0,0,4.16667,0,-927.013)">
            <g transform="matrix(0.341815,0,0,0.341815,22.1783,183.015)">
                <path d="M348.082,318.782L340.709,318.782L340.709,301.006L325.092,301.006L325.092,318.782L317.719,318.782L317.719,277.866L325.092,277.866L325.092,294.682L340.709,294.682L340.709,277.866L348.082,277.866L348.082,318.782Z" style="fill:rgb(48,66,242);fill-rule:nonzero;"/>
            </g>
        </g>
        <g transform="matrix(4.16667,0,0,4.16667,0,-927.013)">
            <g transform="matrix(0.341815,0,0,0.341815,22.1783,183.015)">
                <path d="M375.51,300.076C375.488,297.899 374.834,296.119 373.547,294.742C372.258,293.364 370.664,292.674 368.766,292.674C366.887,292.674 365.318,293.319 364.059,294.606C362.801,295.895 362.061,297.719 361.842,300.076L375.51,300.076ZM375.93,309.129L382.104,309.969C381.305,312.707 379.746,314.965 377.428,316.742C375.109,318.522 372.201,319.41 368.705,319.41C364.51,319.41 361.131,318.002 358.574,315.184C356.016,312.366 354.736,308.549 354.736,303.735C354.736,299.158 356.025,295.371 358.604,292.373C361.182,289.375 364.678,287.877 369.096,287.877C373.412,287.877 376.748,289.356 379.105,292.313C381.465,295.272 382.643,299.069 382.643,303.703L382.613,304.483L361.842,304.483C361.842,306.541 362.035,308.19 362.426,309.428C362.814,310.668 363.59,311.746 364.748,312.666C365.908,313.586 367.355,314.045 369.096,314.045C372.471,314.045 374.75,312.407 375.93,309.129Z" style="fill:rgb(48,66,242);fill-rule:nonzero;"/>
            </g>
        </g>
        <g transform="matrix(4.16667,0,0,4.16667,0,-927.013)">
            <g transform="matrix(0.341815,0,0,0.341815,22.1783,183.015)">
                <rect x="388.848" y="277.866" width="6.834" height="40.916" style="fill:rgb(48,66,242);fill-rule:nonzero;"/>
            </g>
        </g>
        <g transform="matrix(4.16667,0,0,4.16667,0,-927.013)">
            <g transform="matrix(0.341815,0,0,0.341815,22.1783,183.015)">
                <rect x="403.865" y="277.866" width="6.834" height="40.916" style="fill:rgb(48,66,242);fill-rule:nonzero;"/>
            </g>
        </g>
        <g transform="matrix(4.16667,0,0,4.16667,0,-927.013)">
            <g transform="matrix(0.341815,0,0,0.341815,22.1783,183.015)">
                <path d="M430.992,313.776C435.588,313.776 437.885,310.348 437.885,303.494C437.885,300.397 437.336,297.953 436.236,296.164C435.137,294.377 433.449,293.483 431.172,293.483C428.813,293.483 427.064,294.407 425.926,296.256C424.787,298.104 424.217,300.557 424.217,303.614C424.217,306.91 424.82,309.428 426.031,311.168C427.24,312.907 428.893,313.776 430.992,313.776ZM430.752,319.41C426.275,319.41 422.857,317.801 420.5,314.584C418.143,311.367 416.963,307.68 416.963,303.524C416.963,299.047 418.268,295.321 420.875,292.344C423.482,289.366 426.924,287.877 431.201,287.877C435.258,287.877 438.59,289.326 441.197,292.223C443.805,295.121 445.109,298.889 445.109,303.524C445.109,308.301 443.756,312.141 441.047,315.049C438.34,317.957 434.908,319.41 430.752,319.41Z" style="fill:rgb(48,66,242);fill-rule:nonzero;"/>
            </g>
        </g>
        <g transform="matrix(4.16667,0,0,4.16667,0,-927.013)">
            <g transform="matrix(0.341815,0,0,0.341815,22.1783,183.015)">
                <path d="M500.891,277.866L489.951,318.782L482.217,318.782L474.064,288.686L466.66,318.782L459.076,318.782L447.896,277.866L455.721,277.866L463.633,307.69L471.006,277.866L478.471,277.866L486.623,307.69L494.387,277.866L500.891,277.866Z" style="fill:rgb(48,66,242);fill-rule:nonzero;"/>
            </g>
        </g>
        <g transform="matrix(4.16667,0,0,4.16667,0,-927.013)">
            <g transform="matrix(0.341815,0,0,0.341815,22.1783,183.015)">
                <path d="M516.029,313.776C520.625,313.776 522.922,310.348 522.922,303.494C522.922,300.397 522.373,297.953 521.273,296.164C520.174,294.377 518.486,293.483 516.209,293.483C513.849,293.483 512.102,294.407 510.963,296.256C509.824,298.104 509.254,300.557 509.254,303.614C509.254,306.91 509.857,309.428 511.068,311.168C512.276,312.907 513.93,313.776 516.029,313.776ZM515.789,319.41C511.313,319.41 507.895,317.801 505.537,314.584C503.18,311.367 502,307.68 502,303.524C502,299.047 503.305,295.321 505.912,292.344C508.52,289.366 511.961,287.877 516.237,287.877C520.294,287.877 523.627,289.326 526.234,292.223C528.842,295.121 530.146,298.889 530.146,303.524C530.146,308.301 528.793,312.141 526.084,315.049C523.377,317.957 519.945,319.41 515.789,319.41Z" style="fill:rgb(48,66,242);fill-rule:nonzero;"/>
            </g>
        </g>
        <g transform="matrix(4.16667,0,0,4.16667,0,-927.013)">
            <g transform="matrix(0.341815,0,0,0.341815,22.1783,183.015)">
                <path d="M543.244,318.782L536.41,318.782L536.41,288.506L542.586,288.506L542.586,295.731C543.465,292.912 544.674,290.856 546.213,289.557C547.75,288.258 549.33,287.608 550.947,287.608C551.168,287.608 551.467,287.617 551.848,287.637L551.848,294.981C548.371,294.981 546.066,296.09 544.938,298.309C543.809,300.526 543.244,302.674 543.244,304.752L543.244,318.782Z" style="fill:rgb(48,66,242);fill-rule:nonzero;"/>
            </g>
        </g>
        <g transform="matrix(4.16667,0,0,4.16667,0,-927.013)">
            <g transform="matrix(0.341815,0,0,0.341815,22.1783,183.015)">
                <rect x="556.732" y="277.866" width="6.834" height="40.916" style="fill:rgb(48,66,242);fill-rule:nonzero;"/>
            </g>
        </g>
        <g transform="matrix(4.16667,0,0,4.16667,0,-927.013)">
            <g transform="matrix(0.341815,0,0,0.341815,22.1783,183.015)">
                <path d="M589.824,300.916C589.824,298.459 589.24,296.545 588.07,295.176C586.902,293.807 585.389,293.123 583.529,293.123C581.512,293.123 579.934,294.002 578.793,295.76C577.654,297.52 577.086,300.147 577.086,303.645C577.086,310.399 579.203,313.776 583.439,313.776C585.119,313.776 586.602,313.051 587.891,311.602C589.18,310.153 589.824,308.301 589.824,306.041L589.824,300.916ZM596.658,318.782L590.273,318.782L590.273,312.666C588.516,317.162 585.537,319.41 581.342,319.41C577.625,319.41 574.777,317.862 572.799,314.764C570.82,311.666 569.832,307.821 569.832,303.225C569.832,298.948 570.861,295.221 572.918,292.043C574.977,288.867 577.904,287.278 581.701,287.278C585.598,287.278 588.305,289.057 589.824,292.614L589.824,277.866L596.658,277.866L596.658,318.782Z" style="fill:rgb(48,66,242);fill-rule:nonzero;"/>
            </g>
        </g>
        <g transform="matrix(4.16667,0,0,4.16667,0,-927.013)">
            <g transform="matrix(0.341815,0,0,0.341815,22.1783,183.015)">
                <rect x="602.988" y="313.981" width="4.524" height="4.801" style="fill:rgb(48,66,242);fill-rule:nonzero;"/>
            </g>
        </g>
        <g transform="matrix(4.16667,0,0,4.16667,0,-927.013)">
            <g transform="matrix(0.341815,0,0,0.341815,22.1783,183.015)">
                <path d="M616.451,318.782L612.275,318.782L612.275,300.28L616.049,300.28L616.049,304.694C616.586,302.973 617.324,301.715 618.266,300.922C619.205,300.127 620.17,299.731 621.16,299.731C621.293,299.731 621.477,299.737 621.709,299.748L621.709,304.237C619.584,304.237 618.176,304.914 617.486,306.27C616.797,307.625 616.451,308.938 616.451,310.207L616.451,318.782Z" style="fill:rgb(48,66,242);fill-rule:nonzero;"/>
            </g>
        </g>
        <g transform="matrix(4.16667,0,0,4.16667,0,-927.013)">
            <g transform="matrix(0.341815,0,0,0.341815,22.1783,183.015)">
                <path d="M622.918,314.532L626.838,313.78C627.436,315.282 628.756,316.033 630.795,316.033C633.383,316.033 634.678,315.27 634.678,313.744C634.678,313.256 634.477,312.852 634.074,312.535C633.67,312.217 633.193,312.004 632.645,311.893L629.273,311.252C625.537,310.532 623.67,308.705 623.67,305.776C623.67,304.139 624.262,302.75 625.445,301.608C626.631,300.467 628.395,299.895 630.74,299.895C634.646,299.895 637.035,301.33 637.902,304.199L634.184,304.951C633.793,303.559 632.682,302.864 630.85,302.864C628.627,302.864 627.516,303.559 627.516,304.951C627.516,305.916 628.414,306.58 630.209,306.948L634.184,307.772C637.273,308.407 638.818,310.178 638.818,313.084C638.818,315.123 638.023,316.647 636.436,317.655C634.85,318.662 632.963,319.166 630.775,319.166C628.883,319.166 627.211,318.783 625.758,318.02C624.305,317.258 623.357,316.094 622.918,314.532Z" style="fill:rgb(48,66,242);fill-rule:nonzero;"/>
            </g>
        </g>
        <g transform="matrix(4.16667,0,0,4.16667,0,-927.013)">
            <g transform="matrix(0.341815,0,0,0.341815,22.1783,183.015)">
                <path d="M302.025,334.824C302.025,341.87 296.313,347.583 289.266,347.583L215.785,347.583C208.738,347.583 203.025,341.87 203.025,334.824L203.025,261.343C203.025,254.296 208.738,248.583 215.785,248.583L289.266,248.583C296.313,248.583 302.025,254.296 302.025,261.343L302.025,334.824Z" style="fill:rgb(48,66,242);fill-rule:nonzero;"/>
            </g>
        </g>
        <g transform="matrix(4.16667,0,0,4.16667,0,-927.013)">
            <g transform="matrix(0.341815,0,0,0.341815,22.1783,183.015)">
                <path d="M301.887,303.409L267.156,268.657C267.156,268.657 266.947,268.419 266.434,268.176L261.086,266.169C260.109,265.799 259.004,266.294 258.637,267.268L251.207,286.928L241.074,276.941C240.338,276.203 239.139,276.203 238.402,276.941L218.021,297.322C217.281,298.059 217.281,299.256 218.021,299.994L222.039,304.016C222.043,304.02 222.047,304.022 222.051,304.026C222.051,304.026 238.488,320.448 238.533,320.485L236.186,326.705C235.904,327.449 236.125,328.12 236.68,328.626L255.559,347.583L289.121,347.583C296.162,347.583 302.025,342.32 302.025,335.35L302.025,303.662L301.887,303.409Z" style="fill:rgb(48,66,242);fill-rule:nonzero;"/>
            </g>
        </g>
        <g transform="matrix(1.42423,0,0,1.42423,92.4095,-164.448)">
            <path d="M285.643,296.963L281.623,292.583L281.621,292.583L265.262,276.582C265.221,276.54 265.172,276.689 265.129,276.653L267.477,270.522C267.846,269.544 267.354,268.5 266.377,268.131L261.057,266.147C260.079,265.777 258.989,266.283 258.621,267.258L242.195,310.78L230.068,298.656L245.094,283.632C245.83,282.894 245.83,281.699 245.094,280.96L241.072,276.941C240.336,276.203 239.137,276.203 238.4,276.941L218.02,297.322C217.281,298.059 217.281,299.256 218.02,299.994L222.039,304.016C222.043,304.02 222.047,304.022 222.051,304.026L238.4,320.374C238.441,320.416 238.488,320.448 238.533,320.485L236.186,326.705C235.816,327.681 236.309,328.772 237.285,329.139L242.605,331.149C243.582,331.516 244.672,331.024 245.041,330.047L261.467,286.532L273.594,298.658L258.568,313.682C257.832,314.42 257.832,315.617 258.568,316.355L262.59,320.374C263.326,321.116 264.525,321.116 265.262,320.374L281.611,304.026C281.615,304.022 281.619,304.02 281.623,304.016L285.643,299.815C286.381,299.077 286.381,297.7 285.643,296.963Z" style="fill:white;fill-rule:nonzero;"/>
        </g>
    </g>
</svg>
