<svg xmlns="http://www.w3.org/2000/svg" width="240" height="100" viewBox="0 0 240 100"><path fill-rule="evenodd" clip-rule="evenodd" fill="#FFF4E2" d="M65.438 70.543H34.324c-2.754 0-4.986-2.232-4.986-4.986V34.442c0-2.754 2.232-4.986 4.986-4.986h31.114c2.754 0 4.986 2.232 4.986 4.986v31.114c0 2.755-2.233 4.987-4.986 4.987zm-1.58-20.718c-.044-.073-.092-.144-.154-.206l-1.453-1.45c-.048-.05-.1-.093-.156-.13l-6.537-6.525c-.115-.114-.25-.19-.396-.237l.96-2.556c.19-.52-.076-1.093-.595-1.282l-1.928-.704c-.52-.19-1.095.077-1.286.597l-6.723 17.902-4.928-4.928 6.083-6.084c.39-.39.39-1.02 0-1.41L45.3 41.366c-.39-.39-1.02-.39-1.41 0l-6.5 6.5c-.125.05-.244.12-.345.223l-1.434 1.434c-.347.348-.38.89-.1 1.275.04.07.09.142.153.204l1.445 1.445c.05.048.102.09.157.127l6.506 6.506c.09.088.19.153.297.2L43.1 61.86c-.19.52.077 1.094.596 1.283l1.927.705c.52.19 1.095-.077 1.286-.597l6.74-17.952 5.032 5.02-6.114 6.105c-.392.39-.392 1.024 0 1.415l1.452 1.45c.39.39 1.025.39 1.417 0l6.532-6.52c.124-.05.243-.123.345-.225l1.44-1.438c.35-.346.382-.89.103-1.277z"/><path fill="#FFF4E2" d="M86.842 48.23H80.26v-6.702h-2.99v16.61h2.99v-7.492h6.582v7.49h2.99v-16.61h-2.99v6.703zm11.75-2.73c-3.492 0-5.886 2.608-5.886 6.51s2.37 6.462 5.96 6.462c2.8 0 4.785-1.364 5.67-3.877l-2.655-.287c-.453 1.34-1.53 2.082-2.87 2.082-1.94 0-3.16-1.412-3.16-3.925v-.072h8.808v-.43c0-3.998-2.3-6.463-5.865-6.463zm-2.895 5.17c.168-2.06 1.293-3.207 2.896-3.207 1.82 0 2.872 1.1 2.944 3.207h-5.84zm11.44 7.467h2.802v-16.61h-2.802v16.61zm6.248 0h2.8v-16.61h-2.8v16.61zm11.32-12.637c-3.47 0-5.864 2.537-5.864 6.486 0 3.948 2.37 6.485 5.865 6.485s5.887-2.536 5.887-6.484c0-3.95-2.393-6.486-5.887-6.486zm0 10.938c-1.82 0-2.92-1.556-2.92-4.45 0-2.897 1.1-4.477 2.92-4.477 1.795 0 2.943 1.604 2.943 4.477 0 2.87-1.148 4.45-2.943 4.45zm21.85-2.25l-3.254-12.66h-2.44l-3.23 12.78-3.087-12.78h-2.896l4.212 16.61h2.967l3.088-11.99 3.063 11.99h2.824l4.26-16.61h-2.44l-3.066 12.66zm12.112-8.688c-3.47 0-5.864 2.537-5.864 6.486 0 3.948 2.37 6.485 5.864 6.485s5.888-2.536 5.888-6.484c0-3.95-2.394-6.486-5.888-6.486zm0 10.938c-1.82 0-2.92-1.556-2.92-4.45 0-2.897 1.1-4.477 2.92-4.477 1.795 0 2.943 1.604 2.943 4.477 0 2.87-1.148 4.45-2.943 4.45zm11.248-7.946v-2.657h-2.513v12.302h2.753v-6.104c0-2.416 1.292-3.877 3.278-3.877.12 0 .335 0 .6.024v-2.657c-.24-.023-.456-.023-.647-.023-1.724 0-2.848.98-3.47 2.992zm6.224 9.645h2.8v-16.61h-2.8v16.61zm13.927-10.674c-.886-1.293-2.01-1.915-3.398-1.915-2.753 0-4.836 2.49-4.836 6.51 0 3.925 2.01 6.39 4.74 6.39 1.58 0 2.8-.837 3.66-2.465v2.154h2.562v-16.61h-2.73v5.936zm0 5.647c0 1.963-1.173 3.184-2.608 3.184-1.7 0-2.682-1.508-2.682-4.332 0-2.85 1.03-4.355 2.632-4.355 1.604 0 2.657 1.125 2.657 3.087v2.416zm5.983 5.027h2.052V56.07h-2.052v2.067zm5.74-5.95V50.55h-1.55v7.587h1.698v-3.764c0-1.49.798-2.392 2.022-2.392.073 0 .207 0 .37.016v-1.638c-.148-.015-.28-.015-.4-.015-1.062 0-1.755.605-2.14 1.845zm6.938 1.433c-1.46-.325-2.243-.31-2.243-1.107 0-.604.473-.974 1.328-.974.842 0 1.358.323 1.61 1.017l1.445-.28c-.442-1.27-1.476-1.933-2.996-1.933-1.846 0-2.98 1.018-2.98 2.376 0 1.328.87 1.86 2.64 2.243 1.285.28 2.01.325 2.01 1.107 0 .605-.548 1.048-1.507 1.048-1.02 0-1.756-.487-1.992-1.27l-1.462.236c.385 1.417 1.61 2.23 3.41 2.23 1.964 0 3.204-1.05 3.204-2.466 0-1.24-.813-1.86-2.466-2.228z"/></svg>