<svg enable-background="new 0 0 907.1 400" viewBox="0 0 907.1 400" xmlns="http://www.w3.org/2000/svg"><g fill="#384af4"><path d="m152.4 159.6v33.4h-34.4l-18.7 17.2h53v33.7h18.7v-84.3m465.6 42.6v-.2c0-24.1 19-43.9 45.2-43.9s45.1 19.5 45.1 43.6v.2c0 24.1-19 43.9-45.2 43.9s-45.1-19.6-45.1-43.6zm70.7 0v-.2c0-14.6-10.7-26.8-25.8-26.8s-25.5 11.9-25.5 26.4v.2c0 14.6 10.6 26.8 25.8 26.8 15.1 0 25.5-11.9 25.5-26.4z"/><path d="m118 193h-18.7v-33.4h18.7zm-18.7 17.3h18.7v33.7h-18.7zm75-7.8v-.2c0-24.1 19-44 45.2-44s45.1 19.5 45.1 43.6v.2c0 24.1-19 43.9-45.2 43.9-26.2.1-45.1-19.3-45.1-43.5zm70.6 0v-.2c0-14.6-10.6-26.8-25.8-26.8-15.1 0-25.4 11.9-25.4 26.4v.2c0 14.6 10.7 26.8 25.8 26.8 15.1-.1 25.4-11.9 25.4-26.4z"/><path d="m254.7 202.2v-.2c0-24.1 19-43.9 45.2-43.9s44.8 19.5 44.8 43.6v.2c0 24.1-19 43.9-45.2 43.9s-44.8-19.6-44.8-43.6zm70.6 0v-.2c0-14.6-10.7-26.8-25.8-26.8s-25.3 12-25.3 26.5v.2c0 14.6 10.6 26.8 25.8 26.8s25.3-12 25.3-26.5z"/><path d="m254.7 202.2c0 7 1.7 14 4.9 20.2 3.2-6.2 5-13.2 4.9-20.2v-.2c0-7-1.7-14-4.9-20.2-3.2 6.2-5 13.2-4.9 20.2zm93.8-42.7h18.5v84.4l-18.6-17v-67.4zm18.5 67.4h42.2v16.9h-42.2z"/><path d="m401.9 202.2v-.2c0-24.1 19-43.9 45.2-43.9s45.1 19.5 45.1 43.6v.2c0 24.1-19 43.9-45.2 43.9s-45.1-19.6-45.1-43.6zm70.6 0v-.2c0-14.6-10.7-26.8-25.8-26.8s-25.4 11.9-25.4 26.4v.2c0 14.6 10.6 26.8 25.8 26.8 15.1 0 25.4-11.9 25.4-26.4z"/><path d="m482.3 202.2v-.2c0-24.1 19-44 45.2-44s45.1 19.5 45.1 43.6v.2c0 24.1-19 43.9-45.2 43.9-26.2.1-45.1-19.5-45.1-43.5zm70.6 0v-.2c0-14.6-10.7-26.8-25.8-26.8s-25.5 11.9-25.5 26.4v.2c0 14.6 10.6 26.8 25.8 26.8s25.5-11.9 25.5-26.4z"/><path d="m482.3 202.2c0 7 1.7 13.9 4.9 20.1 3.3-6.3 5-13.2 5-20.3v-.2c0-7-1.7-13.9-4.9-20.1-3.3 6.3-5 13.2-5 20.3zm234.7 0v-.2c0-24.1 19-43.9 45.2-43.9s44.8 19.5 44.8 43.6v.2c0 24.1-19 43.9-45.2 43.9s-44.8-19.6-44.8-43.6zm70.7 0v-.2c0-14.6-10.7-26.8-25.8-26.8s-25.5 11.9-25.5 26.4v.2c0 14.6 10.6 26.8 25.8 26.8s25.5-11.9 25.5-26.4z"/><path d="m717 202.2c0 7 1.7 13.9 4.9 20.1 3.3-6.3 5-13.2 5-20.3v-.2c0-7-1.7-13.9-4.9-20.1-3.3 6.3-5 13.2-5 20.3zm-90.2-42.7-21.8 58.7 8 25.7 33.9-84.4m-41.9 58.7-21.8-58.7h-20.7l33.9 84.4h16.6"/></g></svg>