<svg xmlns="http://www.w3.org/2000/svg" width="240" height="100" viewBox="0 0 240 100"><g fill="#FFF4E2"><path d="M42.297 38.966v8.578h-8.822l-4.792 4.426H42.297v8.64h4.793V38.965M166.602 49.895v-.06c0-6.198 4.884-11.265 11.6-11.265 6.717 0 11.57 5.006 11.57 11.203v.06c0 6.198-4.884 11.265-11.6 11.265s-11.57-5.037-11.57-11.203zm18.132 0v-.06c0-3.756-2.747-6.87-6.624-6.87s-6.533 3.053-6.533 6.777v.06c0 3.756 2.716 6.87 6.625 6.87 3.876 0 6.532-3.053 6.532-6.777z"/><path d="M33.475 47.544h-4.792v-8.578h4.792v8.578zM28.683 51.97h4.792v8.64h-4.792v-8.64zM47.915 49.986v-.06c0-6.198 4.884-11.296 11.6-11.296s11.57 5.006 11.57 11.204v.06c0 6.198-4.884 11.265-11.6 11.265-6.717 0-11.57-4.977-11.57-11.174zm18.132 0v-.06c0-3.755-2.717-6.87-6.625-6.87-3.876 0-6.532 3.054-6.532 6.777v.06c0 3.756 2.747 6.87 6.624 6.87 3.878-.03 6.533-3.053 6.533-6.777z"/><path d="M68.55 49.895v-.06c0-6.198 4.884-11.265 11.6-11.265 6.717 0 11.51 5.006 11.51 11.203v.06c0 6.198-4.885 11.265-11.6 11.265S68.55 56.06 68.55 49.895zm18.134 0v-.06c0-3.756-2.748-6.87-6.625-6.87-3.878 0-6.503 3.083-6.503 6.808v.06c0 3.755 2.716 6.87 6.624 6.87s6.504-3.084 6.504-6.808z"/><path d="M68.55 49.895c0 1.8.428 3.602 1.252 5.19.824-1.588 1.282-3.39 1.25-5.19v-.06c0-1.802-.426-3.604-1.25-5.19-.824 1.586-1.282 3.388-1.252 5.19v.06zM92.636 38.935h4.762V60.61l-4.762-4.367V38.935zM97.398 56.244h10.836v4.335H97.398v-4.336z"/><path d="M106.342 49.895v-.06c0-6.198 4.884-11.265 11.6-11.265 6.715 0 11.57 5.006 11.57 11.203v.06c0 6.198-4.884 11.265-11.6 11.265-6.716 0-11.57-5.037-11.57-11.203zm18.133 0v-.06c0-3.756-2.748-6.87-6.624-6.87-3.876 0-6.532 3.053-6.532 6.777v.06c0 3.756 2.717 6.87 6.624 6.87 3.877 0 6.533-3.053 6.533-6.777z"/><path d="M126.98 49.895v-.06c0-6.198 4.883-11.296 11.6-11.296s11.57 5.005 11.57 11.202v.06c0 6.198-4.885 11.266-11.6 11.266-6.718.03-11.57-5.007-11.57-11.173zm18.13 0v-.06c0-3.756-2.746-6.87-6.623-6.87-3.878 0-6.534 3.053-6.534 6.777v.06c0 3.756 2.717 6.87 6.625 6.87 3.877 0 6.533-3.053 6.533-6.777z"/><path d="M126.98 49.895c0 1.8.426 3.572 1.25 5.16.854-1.62 1.282-3.39 1.282-5.22v-.062c0-1.8-.427-3.572-1.252-5.16-.854 1.62-1.282 3.39-1.282 5.22v.062zM187.238 49.895v-.06c0-6.198 4.884-11.265 11.6-11.265 6.717 0 11.51 5.006 11.51 11.203v.06c0 6.198-4.885 11.265-11.6 11.265s-11.51-5.037-11.51-11.203zm18.133 0v-.06c0-3.756-2.747-6.87-6.624-6.87s-6.533 3.053-6.533 6.777v.06c0 3.756 2.717 6.87 6.625 6.87 3.907 0 6.533-3.053 6.533-6.777z"/><path d="M187.238 49.895c0 1.8.428 3.572 1.252 5.16.854-1.62 1.282-3.39 1.282-5.22v-.062c0-1.8-.427-3.572-1.25-5.16-.855 1.62-1.283 3.39-1.283 5.22v.062h-.002zM164.068 38.935l-5.587 15.08 2.047 6.594 8.7-21.675M158.48 54.016l-5.585-15.08h-5.312l8.7 21.673h4.244"/></g></svg>