<svg enable-background="new 0 0 240 100" height="100" viewBox="0 0 240 100" width="240" xmlns="http://www.w3.org/2000/svg"><g fill="#384af4"><path d="m42.297 38.966v8.578h-8.822l-4.792 4.426h13.614v8.64h4.793v-21.645m119.512 10.93v-.06c0-6.198 4.885-11.265 11.601-11.265 6.717 0 11.569 5.006 11.569 11.203v.06c0 6.198-4.883 11.265-11.6 11.265-6.716 0-11.57-5.037-11.57-11.203zm18.132 0v-.06c0-3.756-2.748-6.87-6.625-6.87s-6.532 3.053-6.532 6.777v.06c0 3.757 2.716 6.87 6.625 6.87 3.876 0 6.532-3.053 6.532-6.777z"/><path d="m33.475 47.544h-4.792v-8.578h4.792zm-4.792 4.426h4.792v8.64h-4.792zm19.232-1.984v-.06c0-6.198 4.884-11.296 11.6-11.296s11.57 5.006 11.57 11.204v.06c0 6.198-4.884 11.265-11.6 11.265-6.717 0-11.57-4.977-11.57-11.173zm18.132 0v-.06c0-3.755-2.717-6.87-6.625-6.87-3.876 0-6.532 3.054-6.532 6.777v.06c0 3.755 2.747 6.871 6.624 6.871 3.878-.032 6.533-3.054 6.533-6.778z"/><path d="m68.55 49.895v-.06c0-6.198 4.884-11.265 11.6-11.265 6.717 0 11.51 5.006 11.51 11.203v.06c0 6.198-4.885 11.265-11.6 11.265s-11.51-5.037-11.51-11.203zm18.134 0v-.06c0-3.756-2.748-6.87-6.625-6.87-3.878 0-6.503 3.083-6.503 6.808v.06c0 3.755 2.716 6.87 6.624 6.87s6.504-3.084 6.504-6.808z"/><path d="m68.55 49.895c0 1.8.428 3.602 1.252 5.19.824-1.588 1.282-3.39 1.25-5.19v-.06c0-1.802-.426-3.604-1.25-5.19-.824 1.586-1.282 3.388-1.252 5.19zm24.086-10.96h4.762v21.674l-4.762-4.366zm4.762 17.309h10.836v4.335h-10.836z"/><path d="m106.342 49.895v-.06c0-6.198 4.884-11.265 11.6-11.265 6.715 0 11.57 5.006 11.57 11.203v.06c0 6.198-4.884 11.265-11.6 11.265s-11.57-5.037-11.57-11.203zm18.133 0v-.06c0-3.756-2.748-6.87-6.624-6.87s-6.532 3.053-6.532 6.777v.06c0 3.757 2.717 6.87 6.624 6.87 3.877 0 6.534-3.053 6.534-6.777z"/><path d="m126.98 49.895v-.06c0-6.198 4.883-11.296 11.6-11.296s11.57 5.005 11.57 11.202v.06c0 6.198-4.885 11.266-11.601 11.266-6.717.031-11.569-5.006-11.569-11.172zm18.129 0v-.06c0-3.756-2.745-6.87-6.623-6.87-3.877 0-6.533 3.053-6.533 6.777v.06c0 3.757 2.717 6.87 6.625 6.87 3.877 0 6.533-3.053 6.533-6.777z"/><path d="m126.98 49.895c0 1.8.426 3.572 1.25 5.16.854-1.619 1.281-3.39 1.281-5.22v-.062c0-1.8-.427-3.572-1.252-5.16-.854 1.62-1.281 3.39-1.281 5.22v.062zm60.258 0v-.06c0-6.198 4.884-11.265 11.6-11.265 6.717 0 11.51 5.006 11.51 11.203v.06c0 6.198-4.885 11.265-11.6 11.265s-11.51-5.037-11.51-11.203zm18.133 0v-.06c0-3.756-2.747-6.87-6.624-6.87s-6.533 3.053-6.533 6.777v.06c0 3.757 2.718 6.87 6.625 6.87s6.533-3.053 6.532-6.777z"/><path d="m187.238 49.895c0 1.8.428 3.572 1.252 5.16.854-1.619 1.281-3.39 1.281-5.22v-.062c0-1.8-.426-3.572-1.25-5.16-.854 1.62-1.282 3.39-1.282 5.22l-.001.062h-.002zm-23.17-10.96-5.588 15.081 2.047 6.594 8.701-21.675m-10.748 15.081-5.586-15.08h-5.312l8.7 21.673h4.244"/></g></svg>