<svg xmlns="http://www.w3.org/2000/svg" width="240" height="100" viewBox="0 0 240 100"><g fill="#FFF4E2"><path d="M35.926 46.06V33.467c0-.218-.05-.385-.152-.5-.102-.117-.283-.21-.545-.284v-.35h4.64v.35c-.26.065-.443.158-.544.277-.102.12-.153.29-.153.507V46.06c0 .225.053.397.158.517.106.12.286.212.54.278v.35h-4.64v-.35c.26-.072.442-.167.544-.283.1-.117.152-.288.152-.512zM45.62 39.164v6.918c0 .225.054.4.16.522s.284.22.54.293v.305h-4.053v-.305c.254-.065.434-.16.54-.283.104-.123.157-.298.157-.523v-9.977c0-.225-.05-.396-.152-.512-.102-.115-.283-.213-.544-.293v-.305h4.686v.305c-.32.08-.48.222-.48.425 0 .174.117.377.35.61l6.544 6.493v-6.72c0-.226-.05-.4-.15-.52-.104-.12-.285-.215-.546-.288v-.305h4.052v.305c-.26.073-.443.17-.545.29-.103.12-.153.29-.153.516v9.97c0 .224.05.396.152.516.1.12.283.22.544.298v.305h-4.37v-.305c.32-.064.48-.198.48-.4 0-.1-.044-.205-.132-.313-.087-.107-.287-.32-.6-.637l-6.48-6.384zM65.588 37.214v8.868c0 .225.05.397.153.517s.285.22.546.298v.305h-4.313v-.305c.254-.065.434-.16.54-.283.103-.123.156-.298.156-.523v-8.878h-3.595c-.233 0-.41.052-.53.155-.12.103-.215.283-.287.54h-.295v-3.604h.295c.065.254.157.434.278.54.12.104.296.157.528.157h10.118c.233 0 .41-.05.53-.152.118-.1.215-.282.288-.544h.294v3.605H70c-.072-.256-.17-.437-.29-.54-.12-.105-.295-.156-.527-.156h-3.595zM75.306 42.018v2.974h7.745c.227 0 .398-.05.52-.15.12-.1.215-.283.287-.547h.306V47.9h-.306c-.064-.254-.16-.434-.282-.54-.124-.104-.298-.157-.523-.157H71.69v-.305c.253-.065.433-.16.538-.283.105-.123.157-.298.157-.523v-9.978c0-.225-.05-.396-.152-.512-.102-.116-.283-.214-.544-.294v-.305H82.71c.232 0 .41-.05.53-.152.118-.1.215-.282.287-.544h.293v3.605h-.293c-.072-.263-.17-.446-.288-.546-.12-.1-.297-.15-.53-.15h-7.406v2.68h4.598c.225 0 .396-.05.517-.152.12-.102.22-.283.3-.545h.295v3.52h-.295c-.072-.258-.17-.44-.29-.543-.118-.104-.295-.156-.526-.156h-4.598zM89.62 42.192v3.89c0 .226.05.398.152.517.102.12.283.22.544.298v.305h-4.312v-.305c.254-.065.434-.16.54-.283.104-.123.156-.298.156-.523v-9.978c0-.225-.05-.396-.152-.512-.102-.116-.283-.214-.544-.294v-.305H94c1.037 0 1.83.053 2.374.158.545.106 1.03.297 1.46.573.878.574 1.317 1.51 1.317 2.81 0 .988-.27 1.76-.81 2.315s-1.415.957-2.62 1.204l2.31 3.218c.42.594.756.998 1.007 1.212.25.214.535.35.855.407v.304h-5.13V46.9c.377-.103.566-.265.566-.49 0-.16-.117-.402-.35-.728l-2.438-3.49h-2.92zm0-2.21h4.4c.67 0 1.162-.074 1.48-.22.452-.195.677-.583.677-1.165 0-.516-.158-.875-.474-1.08-.316-.202-.877-.304-1.684-.304h-4.4v2.768zM108.94 42.88l3.945-8.728c.167-.37.25-.657.25-.86 0-.313-.24-.517-.72-.61v-.35h5.09v.35c-.318.042-.54.133-.664.27-.122.14-.337.538-.642 1.2l-5.156 11.12c-.218.473-.327.782-.327.927 0 .37.23.587.687.653v.35h-5.122v-.35c.457-.065.687-.287.687-.665 0-.138-.11-.443-.327-.915l-5.156-11.122c-.305-.66-.52-1.06-.643-1.197-.123-.138-.345-.23-.664-.272v-.348h5.282v.35c-.48.093-.72.297-.72.61 0 .203.084.49.25.86l3.95 8.728zM121.733 42.018v2.974h7.746c.224 0 .396-.05.516-.15.12-.1.216-.283.29-.547h.304V47.9h-.305c-.065-.254-.16-.434-.283-.54-.124-.104-.298-.157-.522-.157h-11.362v-.305c.255-.065.435-.16.54-.283.104-.123.157-.298.157-.523v-9.978c0-.225-.05-.396-.152-.512-.103-.116-.283-.214-.545-.294v-.305h11.023c.234 0 .41-.05.53-.152.12-.1.216-.282.288-.544h.294v3.605h-.294c-.072-.263-.168-.446-.288-.546s-.296-.15-.53-.15h-7.406v2.68h4.598c.225 0 .397-.05.517-.152s.22-.283.3-.545h.294v3.52h-.295c-.073-.258-.17-.44-.29-.543-.12-.104-.295-.156-.527-.156h-4.6zM135.786 39.164v6.918c0 .225.053.4.158.522s.285.22.54.293v.305h-4.054v-.305c.254-.065.434-.16.54-.283.104-.123.158-.298.158-.523v-9.977c0-.225-.052-.396-.153-.512-.102-.115-.283-.213-.545-.293v-.305h4.687v.305c-.32.08-.48.222-.48.425 0 .174.117.377.35.61l6.545 6.493v-6.72c0-.226-.05-.4-.152-.52s-.283-.215-.545-.288v-.305h4.053v.305c-.262.073-.443.17-.545.29s-.152.29-.152.516v9.97c0 .224.052.396.153.516.102.12.283.22.545.298v.305h-4.37v-.305c.32-.064.48-.198.48-.4 0-.1-.044-.205-.13-.313-.09-.107-.288-.32-.6-.637l-6.482-6.384zM155.754 37.214v8.868c0 .225.05.397.153.517.1.12.282.22.544.298v.305h-4.313v-.305c.255-.065.435-.16.54-.283.105-.123.158-.298.158-.523v-8.878h-3.596c-.233 0-.408.052-.53.155-.118.103-.215.283-.287.54h-.295v-3.604h.295c.064.254.158.434.278.54.12.104.297.157.53.157h10.118c.232 0 .408-.05.528-.152.12-.1.216-.282.288-.544h.295v3.605h-.296c-.072-.256-.168-.437-.287-.54-.12-.105-.297-.156-.53-.156h-3.593zM174.512 36.114v6.46c0 1.474-.29 2.555-.87 3.246-.938 1.096-2.702 1.645-5.295 1.645-1.735 0-3.137-.265-4.205-.795-.77-.385-1.296-.933-1.58-1.645-.26-.654-.392-1.47-.392-2.45v-6.46c0-.225-.05-.396-.152-.512-.102-.116-.283-.214-.545-.294v-.306h4.314v.305c-.266.072-.447.168-.548.288-.1.12-.15.292-.15.518v5.87c0 .684.06 1.207.18 1.57s.328.66.626.894c.596.472 1.456.708 2.582.708s1.986-.236 2.582-.708c.29-.232.493-.53.61-.894.115-.363.174-.886.174-1.57v-5.87c0-.225-.05-.396-.147-.512-.098-.116-.28-.214-.55-.294v-.305h4.063v.305c-.262.073-.443.17-.545.29-.102.116-.153.29-.153.514zM180.733 42.192v3.89c0 .226.05.398.152.517.102.12.282.22.544.298v.305h-4.314v-.305c.254-.065.434-.16.54-.283.104-.123.157-.298.157-.523v-9.978c0-.225-.05-.396-.152-.512-.102-.116-.283-.214-.544-.294v-.305h7.995c1.04 0 1.83.053 2.376.158.545.106 1.03.297 1.46.573.88.574 1.318 1.51 1.318 2.81 0 .988-.27 1.76-.812 2.315s-1.415.957-2.62 1.204l2.31 3.218c.42.594.757.998 1.008 1.212.25.214.535.35.854.407v.304h-5.13V46.9c.377-.103.567-.265.567-.49 0-.16-.116-.402-.35-.728l-2.437-3.49h-2.92zm0-2.21h4.4c.668 0 1.162-.074 1.48-.22.45-.195.677-.583.677-1.165 0-.516-.158-.875-.475-1.08-.315-.202-.876-.304-1.683-.304h-4.4v2.768zM196.093 42.018v2.974h7.745c.226 0 .397-.05.518-.15.12-.1.216-.283.288-.547h.306V47.9h-.306c-.065-.254-.16-.434-.283-.54-.122-.104-.296-.157-.52-.157h-11.363v-.305c.255-.065.435-.16.54-.283.104-.123.157-.298.157-.523v-9.978c0-.225-.05-.396-.152-.512-.102-.116-.283-.214-.545-.294v-.305H203.5c.232 0 .408-.05.528-.152.12-.1.216-.282.29-.544h.293v3.605h-.293c-.073-.263-.17-.446-.29-.546s-.295-.15-.527-.15h-7.407v2.68h4.597c.225 0 .397-.05.518-.152.12-.102.22-.283.3-.545h.294v3.52h-.295c-.072-.258-.168-.44-.288-.543-.12-.104-.297-.156-.53-.156h-4.597zM35.92 53.34h169.153v2.357H35.92z"/><g><path d="M40.48 62.917c-.1-.43-.344-.732-.732-.903-.217-.094-.458-.142-.724-.142-.508 0-.926.192-1.252.575-.327.383-.49.96-.49 1.73 0 .774.177 1.322.53 1.644s.757.484 1.21.484c.44 0 .804-.127 1.086-.38s.457-.587.522-1h-1.46v-1.052h2.63v3.387h-.875l-.133-.79c-.254.3-.482.51-.685.632-.348.213-.776.32-1.284.32-.836 0-1.52-.29-2.055-.87-.557-.58-.835-1.377-.835-2.387 0-1.02.28-1.84.844-2.456.562-.617 1.306-.926 2.23-.926.802 0 1.446.204 1.933.61.486.408.766.915.837 1.523H40.48zM52.145 61.11c.233.1.43.247.59.44.134.16.24.337.318.53s.117.417.117.665c0 .3-.075.594-.226.884-.152.29-.402.494-.75.613.292.118.497.284.62.5.12.214.18.543.18.986v.423c0 .288.012.483.035.586.034.162.116.282.243.36v.158h-1.455c-.04-.14-.07-.253-.086-.338-.035-.177-.053-.358-.056-.544l-.008-.586c-.006-.403-.075-.67-.208-.805-.134-.134-.384-.2-.752-.2H49.42v2.474h-1.29v-6.313h3.02c.43.01.763.063.995.163zm-2.726.933v1.695h1.418c.282 0 .493-.034.634-.103.25-.12.374-.357.374-.71 0-.383-.12-.64-.362-.772-.135-.074-.338-.11-.61-.11H49.42zM64.335 66.697c-.478.49-1.166.736-2.068.736-.9 0-1.59-.245-2.068-.736-.64-.603-.96-1.47-.96-2.603 0-1.156.32-2.024.96-2.604.477-.49 1.166-.736 2.067-.736.902 0 1.59.245 2.068.736.637.58.954 1.447.954 2.604 0 1.133-.318 2-.955 2.603zm-.824-.96c.308-.384.46-.933.46-1.643 0-.708-.152-1.255-.46-1.642-.307-.387-.72-.58-1.243-.58s-.94.192-1.25.577c-.312.384-.467.933-.467 1.644 0 .71.155 1.26.467 1.644.31.385.728.578 1.25.578s.936-.192 1.244-.578zM72.196 60.947l.834 3.614.18 1.007.184-.985.713-3.635H75.5l.748 3.614.192 1.007.194-.967.842-3.653h1.344l-1.776 6.312H75.78l-.762-3.692-.223-1.22-.223 1.22-.763 3.69h-1.226l-1.79-6.31h1.402zM85.86 67.258h-1.312v-6.312h1.31v6.312zM92.113 60.947h1.383l2.505 4.4v-4.4h1.23v6.312h-1.318l-2.57-4.48v4.48h-1.228v-6.313zM107.753 62.917c-.1-.43-.345-.732-.73-.903-.22-.094-.46-.142-.726-.142-.508 0-.926.192-1.252.575-.327.383-.49.96-.49 1.73 0 .774.177 1.322.53 1.644.354.323.757.484 1.208.484.442 0 .806-.127 1.088-.38s.457-.587.523-1h-1.46v-1.052h2.63v3.387h-.875l-.133-.79c-.254.3-.482.51-.685.632-.35.213-.776.32-1.285.32-.836 0-1.52-.29-2.056-.87-.557-.58-.835-1.377-.835-2.387 0-1.02.28-1.84.844-2.456.56-.617 1.305-.926 2.23-.926.8 0 1.444.204 1.932.61s.767.915.837 1.523h-1.297zM127.437 60.947v1.118h-1.888v5.194h-1.33v-5.195h-1.895v-1.118h5.112zM137.956 66.697c-.478.49-1.167.736-2.068.736-.903 0-1.593-.245-2.068-.736-.64-.603-.96-1.47-.96-2.603 0-1.156.32-2.024.96-2.604.476-.49 1.165-.736 2.068-.736.9 0 1.59.245 2.068.736.636.58.954 1.447.954 2.604 0 1.133-.318 2-.954 2.603zm-.825-.96c.308-.384.462-.933.462-1.643 0-.708-.154-1.255-.46-1.642-.308-.387-.723-.58-1.244-.58-.522 0-.94.192-1.25.577s-.468.933-.468 1.644c0 .71.155 1.26.467 1.644s.73.578 1.25.578c.522 0 .937-.192 1.244-.578zM149.202 62.917c-.1-.43-.345-.732-.732-.903-.217-.094-.46-.142-.724-.142-.508 0-.927.192-1.253.575s-.49.96-.49 1.73c0 .774.177 1.322.53 1.644.355.323.757.484 1.208.484.444 0 .807-.127 1.09-.38s.455-.587.52-1h-1.46v-1.052h2.63v3.387h-.873l-.134-.79c-.254.3-.48.51-.685.632-.35.213-.776.32-1.285.32-.836 0-1.52-.29-2.055-.87-.557-.58-.835-1.377-.835-2.387 0-1.02.28-1.84.844-2.456s1.307-.926 2.23-.926c.803 0 1.447.204 1.933.61.487.408.767.915.837 1.523h-1.295zM161.488 62.064h-3.34v1.34h3.065V64.5h-3.064v1.623h3.492v1.135h-4.782v-6.312h4.628v1.118zM172.298 60.947v1.118h-1.89v5.194h-1.326v-5.195h-1.896v-1.118h5.112zM178.103 67.258v-6.312h1.31v2.406h2.454v-2.406h1.31v6.312h-1.31V64.44h-2.454v2.818h-1.31zM194.152 62.064h-3.34v1.34h3.066V64.5h-3.066v1.623h3.494v1.135h-4.783v-6.312h4.63v1.118zM204.42 61.11c.233.1.43.247.592.44.133.16.24.337.317.53s.116.417.116.665c0 .3-.076.594-.227.884-.153.29-.403.494-.75.613.29.118.496.284.617.5.122.214.183.543.183.986v.423c0 .288.012.483.034.586.035.162.117.282.244.36v.158h-1.456c-.04-.14-.068-.253-.086-.338-.033-.177-.053-.358-.055-.544l-.008-.586c-.006-.403-.075-.67-.21-.805-.132-.134-.383-.2-.75-.2h-1.288v2.474h-1.29v-6.313h3.02c.432.01.764.063.997.163zm-2.725.933v1.695h1.42c.28 0 .492-.034.634-.103.248-.12.373-.357.373-.71 0-.383-.12-.64-.362-.772-.135-.074-.338-.11-.608-.11h-1.457z"/></g></g></svg>