<svg xmlns="http://www.w3.org/2000/svg" viewBox="0 0 399.13 84.53"><defs><style>.cls-1,.cls-2{fill:#fff4e3;}.cls-2{fill-rule:evenodd;}.cls-3{fill:#fff9ef;}</style></defs><title>Asset 1</title><g id="Layer_2" data-name="Layer 2"><g id="Layer_1-2" data-name="Layer 1"><rect class="cls-1" x="170.56" y="16.86" width="7.46" height="7.46"/><path class="cls-2" d="M383.87,43.86l-3,6.71H387Zm7.5,17.08h7.76L385.5,31.41h-3.21L368.7,60.94h7.76l1.71-3.67h11.49Zm-27.3-29.16H352.2v6.63h4.25v12.7c0,2.33-1.46,3.5-3.63,3.5S349,53.4,349,51.11V47.44h-7v3.79c0,6.37,4.92,10,10.91,10s11.25-3.67,11.25-10ZM327,46.61V60.94h7.7V31.66H332L317.23,46.07V31.78h-7.62V61h2.67Zm-35.09.17h-5.33V38.45c1.7,0,3.58,0,5.33,0C296.22,38.51,296,46.78,291.89,46.78Zm-5.33,14.16V53.48h5.37c13.95,0,13.95-21.66,0-21.7-4.29,0-8.62,0-12.83,0V60.94ZM270.75,31.78h-18.2V60.94h18.57V54.31H260V49.19h9.91V42.57H260V38.45h10.79Zm-38.88,6.67V60.94h7.37V38.45h7.12V31.78H224.71v6.67Zm-12.64-6.67H201V60.94H219.6V54.31H208.44V49.19h9.91V42.57h-9.91V38.45h10.79Zm-35.89,15H178V38.45c1.71,0,3.59,0,5.33,0C187.68,38.51,187.43,46.78,183.34,46.78ZM143.19,50.9h-6.66l3.29-7.66Zm4.12,10h7.81L141.44,31.41h-3.21l-13.6,29.53h7.77l1.71-3.67H145.6Zm23.25-22.49c-1.71,0-3.58,0-5.33,0-4.33.06-4.08,8.33,0,8.33h5.33Zm0,15h-5.37c-13.95,0-13.95-21.7,0-21.7h5.37c4.21,0,8.54,0,12.83,0,14,0,14,21.7,0,21.7H178v7.46h-7.45Zm97.36-17.95H256.76V45.4h10.57v.92H256.76V57.19h11.78v.91H255.8V34.62h12.37v.91Zm-32.8,22.62V35.53h-7.87v-.87h16.53v.87H236V58.4h-.87Zm141.31-4.88h15L383.9,37.12ZM373.15,58l10.37-22.45.07-.14h.57l.06.14L394.68,58l.16.35h-1.09l-.07-.14-1.84-4H376l-1.89,4-.07.14H373Zm-26.1-1.65a7,7,0,0,1-2.18-5.24V50h1v1.08a6.07,6.07,0,0,0,1.87,4.59,7.34,7.34,0,0,0,5,1.78,7.63,7.63,0,0,0,5.19-1.75,6,6,0,0,0,1.89-4.62V35.49h-5.08v-.92h6V51.11a6.86,6.86,0,0,1-2.22,5.26,8.7,8.7,0,0,1-5.86,2A8.21,8.21,0,0,1,347.05,56.35ZM312.94,55V34.37h1V53.73c2.68-2.64,5.39-5.28,8.09-7.92s5.71-5.57,8.59-8.41h.81V58.31h-1V39c-2.79,2.67-5.5,5.34-8.22,8s-5.74,5.53-8.54,8.32h-.69ZM283.27,35.57v14H292a5.9,5.9,0,0,0,5.77-4.1,8.77,8.77,0,0,0,0-5.78A6,6,0,0,0,292,35.57Zm-1,22.58V34.7H292a6.8,6.8,0,0,1,6.64,4.71,9.62,9.62,0,0,1,0,6.47A6.81,6.81,0,0,1,292,50.61h-8.7V58.4h-1ZM104.22,60.94V49.82a16.55,16.55,0,0,0,2.87-.17l6.41,11.29h9l-8.64-14c5.79-3.7,5.62-9.2,5.62-15.16h-7.66c0,5.46.37,11-7.08,11h-.54v-11H96.64V60.94Z"/><path class="cls-1" d="M54,28.6a16.28,16.28,0,0,1-1.59,8.24c7.37-1.06,7.45-7.47,2.49-8.85-.89-.24-.94-.18-.9.61M22,61.39a16.82,16.82,0,0,1,1.62-8.22c-7.35,1.06-7.91,7.56-2.48,8.89C22.13,62.3,22,62.33,22,61.39ZM41.12,44.32C49,41.08,53,36.44,52.27,27.52A169.18,169.18,0,0,0,23.05,28c-.15,9,3.71,13.21,11.76,16.15.79.29,1.18,1.11.07,1.57C27.16,48.89,23,53.39,23.59,62a.22.22,0,0,1,0,.08c0,.36,0,.4.41.46h.09A142.41,142.41,0,0,0,52,62.33a.62.62,0,0,0,.19,0c.53-.11.78-.14.79-1,0,0,0-.09,0-.13-.14-8.32-4-12.55-11.73-15.38C40.08,45.45,40.28,44.67,41.12,44.32ZM49.45,33c-8.53.09-16.53.21-24.31.38-.42,0-.62,0-.49.42,1.34,4.36,5,8.22,12.4,10.18a.68.68,0,0,1,.39.51l.13,13.21a.42.42,0,0,1-.29.38l-12.09.12c-.42,0-.49,0-.51.26a19.17,19.17,0,0,0,0,2.74c0,.49,0,.44.63.49a146.68,146.68,0,0,0,26.1-.27c.57-.06.51-.07.53-.66a8.54,8.54,0,0,0-.18-2.27c-.1-.56-.15-.54-.92-.54l-12,.12a.49.49,0,0,1-.33-.39l-.13-13.18a.78.78,0,0,1,.28-.55c8.09-2,10.77-6.07,12.11-10.5C50.85,33,50.12,33,49.45,33ZM40,0c-7.4,4,16,16.2-2.77,23.39,12.44-8-11.12-20.06,2.76-23.4ZM33.59,21.93h0c8.19-5.28-4.46-11.6.47-16.86C33.78,10.06,45.23,17.48,33.59,21.93ZM32.39,45c-7.45-3.32-11.39-9.11-11-17.79l0-.57a238.64,238.64,0,0,1,31.3-.4c9.28.35,10.21,9.21,1.45,12.11-2,.67-2.93.81-4.26,2.24A21.3,21.3,0,0,1,43.67,45c7.45,3.32,11.39,9.11,11,17.79l0,.57C49.47,64.84,29,65.52,21,63.35c-6.72-1.85-6.91-9.08.91-11.69,2-.68,2.93-.81,4.27-2.24A21,21,0,0,1,32.39,45Z"/><path class="cls-3" d="M43.22,8.71a38.07,38.07,0,1,1-12,.28l.35-.06A10.14,10.14,0,0,0,33,12.67a34.13,34.13,0,1,0,12.61.45h0a11.37,11.37,0,0,0-2.37-4.41"/></g></g></svg>