<svg enable-background="new 0 0 907.1 400" viewBox="0 0 907.1 400" xmlns="http://www.w3.org/2000/svg"><g fill="#384af4"><path d="m236.7 160.1h-7.1v84.4h50v-6.8h-42.9z"/><path d="m319.4 159c-21.8 0-36.4 17.4-36.4 43.3s14.6 43.3 36.4 43.3 36.4-17.4 36.4-43.3-14.6-43.3-36.4-43.3zm0 6.8c14.2 0 29.3 9.6 29.3 36.5 0 16.8-7.7 36.5-29.3 36.5s-29.4-18.9-29.4-36.6 7.8-36.4 29.4-36.4z"/><path d="m361.6 166.8h25v77.6h7.1v-77.6h25v-6.8h-57.1z"/><path d="m484.3 210.9c0 7.4 0 15-4.1 20.2s-12 7.6-17.8 7.6-13.7-2.4-17.8-7.6c-4-5.2-4.1-12.9-4.1-20.2v-50.9h-7.1v52.4c0 8.6 0 16 5.8 23.2 12.1 12.8 32.3 13.3 45.1 1.2.4-.4.8-.8 1.2-1.2 5.8-7.1 5.8-14.6 5.8-23.1v-52.4h-7.1z"/><path d="m531.5 188.5c-10.7-2.6-15.1-4.2-15.1-9.4 0-12.2 15.5-12.3 16.1-12.3 6.5 0 11.4 2.2 14.5 6.5l.3.4h8.1l-.7-1.4c-2.9-5.8-9.1-12.6-22.2-12.6-8.1 0-23.3 4.1-23.3 19.4 0 11.3 10.8 14 20.5 16.3 12.3 3 23.9 5.9 23.6 22.3-.3 13.8-10.8 19.9-21.3 19.9h-.3c-8.5-.1-18.3-4.5-19.8-14l-.1-.8h-7.2l.1 1c1.6 14.2 15 20.8 26.8 20.9h.3c13.5 0 28.1-8.4 28.4-26.9.7-22-16.3-26.2-28.7-29.3z"/><path d="m660.5 160.7v71.5h35.7v11.8h-48.3v-70.7z"/><path d="m590.4 204.3v39.7h-12.6v-83.3h56.5l-11.8 11.8h-32.2z"/><path d="m597.6 197.6v-17.9h17.9z"/><path d="m762.3 223.7h-35.7l-9.3 20.2h-13.5l41.2-88.5 39.8 88.5h-13.8zm-5.2-11.8-12.4-28.3-13 28.3z"/><path d="m823.9 208.4 25.8 35.5h-15.4l-23.8-34.1h-2.2v34.1h-12.6v-83.3h14.7c11 0 19 2.1 23.8 6.2 5.4 4.5 8.4 11.2 8.1 18.2.1 5.5-1.7 10.9-5.1 15.2-3.3 4.3-8 7.2-13.3 8.2zm-15.6-9.5h4.1c11.9 0 17.8-4.6 17.8-13.7 0-8.5-5.8-12.8-17.4-12.8h-4.5z"/><path d="m907 172.4h-33.4v20h32.5v11.8h-32.5v27.8h33.4v11.8h-46v-83.3h46z"/><path d="m127 254.3h-98.4v-98.5l-28.6-28.6v155.6h155.6z"/><path d="m38.7 145.7h98.5v98.5l28.6 28.6v-155.7h-155.7z"/><path d="m116.7 166.5h-57.1l57.1 57.1z"/></g></svg>