<svg enable-background="new 0 0 907.09 1275.59" height="1275.59" viewBox="0 0 907.09 1275.59" width="907.09" xmlns="http://www.w3.org/2000/svg"><g fill="#384af4"><path d="m236.685 597.876h-7.091v84.357h50v-6.765h-42.909z"/><path d="m319.377 596.78c-21.772 0-36.414 17.388-36.414 43.302 0 25.913 14.627 43.302 36.414 43.302s36.414-17.389 36.414-43.302c0-25.914-14.628-43.302-36.414-43.302zm0 6.766c14.168 0 29.323 9.594 29.323 36.536 0 16.847-7.672 36.535-29.323 36.535-21.65 0-29.377-18.917-29.377-36.562s7.767-36.509 29.377-36.509z"/><path d="m361.569 604.643h24.993v77.59h7.091v-77.59h24.98v-6.767h-57.064z"/><path d="m484.33 648.688c0 7.374 0 15.006-4.06 20.229s-12.044 7.632-17.768 7.632-13.734-2.382-17.78-7.564c-4.047-5.183-4.06-12.854-4.06-20.229v-50.88h-7.091v52.354c0 8.565 0 15.968 5.805 23.153 12.102 12.779 32.271 13.329 45.051 1.228.42-.397.83-.808 1.229-1.228 5.777-7.146 5.777-14.561 5.777-23.126v-52.382h-7.09z"/><path d="m531.475 626.307c-10.704-2.639-15.074-4.222-15.074-9.392 0-12.179 15.48-12.272 16.143-12.272 6.496 0 11.381 2.165 14.521 6.454l.271.379h8.119l-.677-1.354c-2.896-5.751-9.107-12.625-22.179-12.625-8.052 0-23.274 4.06-23.274 19.405 0 11.258 10.825 13.951 20.487 16.319 12.3 3.03 23.938 5.899 23.626 22.26-.257 13.762-10.825 19.905-21.299 19.905h-.257c-8.512-.082-18.322-4.493-19.757-14.006l-.122-.785h-7.172l.108 1.016c1.569 14.222 14.979 20.812 26.807 20.906h.338c13.451 0 28.093-8.417 28.417-26.901.446-22.043-16.591-26.238-29.026-29.309z"/><path d="m660.486 598.458v71.475h35.737v11.813h-48.308v-70.717z"/><path d="m590.405 642.098v39.648h-12.571v-83.288h56.55l-11.772 11.813h-32.206v31.827z"/><path d="m597.563 635.346v-17.93h17.93z"/><path d="m762.259 661.476h-35.683l-9.283 20.23h-13.531l41.204-88.498 39.756 88.524h-13.748zm-5.128-11.814-12.354-28.322-12.964 28.322z"/><path d="m823.896 646.198 25.778 35.494h-15.372l-23.789-34.087h-2.246v34.087h-12.585v-83.275h14.723c11.006 0 18.953 2.066 23.843 6.198 5.364 4.505 8.358 11.227 8.119 18.228.13 5.506-1.665 10.884-5.074 15.209-3.351 4.227-8.102 7.117-13.397 8.146zm-15.628-9.54h4.06c11.898 0 17.848-4.551 17.848-13.653 0-8.525-5.791-12.788-17.374-12.788h-4.533v26.441z"/><path d="m907.049 610.23h-33.355v20.014h32.477v11.813h-32.477v27.821h33.355v11.813h-46.008v-83.275h46.008z"/><path d="m127.037 692.084h-98.472v-98.471l-28.565-28.579v155.616h155.616z"/><path d="m38.674 583.506h98.471v98.471l28.565 28.579v-155.617h-155.615z"/><path d="m116.698 604.276h-57.145l57.145 57.132z"/></g></svg>