<svg id="Layer_1" data-name="Layer 1" xmlns="http://www.w3.org/2000/svg" viewBox="0 0 670.34 122.46"><defs><style>.cls-1{fill:#fff3e1;}</style></defs><title>lf-logo_1</title><polygon class="cls-1" points="174.91 31.73 169.67 31.73 169.67 94.07 206.62 94.07 206.62 89.07 174.91 89.07 174.91 31.73"/><path class="cls-1" d="M240.71,39.64c-16.09,0-26.91,12.85-26.91,32s10.81,32,26.91,32,26.91-12.85,26.91-32S256.81,39.64,240.71,39.64Zm0,5c10.47,0,21.67,7.09,21.67,27,0,12.45-5.67,27-21.67,27S219,84.66,219,71.62,224.74,44.64,240.71,44.64Z" transform="translate(-4.69 -8.72)"/><polygon class="cls-1" points="267.2 36.73 285.67 36.73 285.67 94.07 290.91 94.07 290.91 36.73 309.37 36.73 309.37 31.73 267.2 31.73 267.2 36.73"/><path class="cls-1" d="M362.61,78c0,5.45,0,11.09-3,14.95s-8.9,5.64-13.13,5.64S336.33,96.83,333.34,93s-3-9.5-3-14.95V40.45h-5.24V79.14c0,6.33,0,11.8,4.29,17.11a23.55,23.55,0,0,0,34.2,0c4.27-5.28,4.27-10.76,4.27-17.09V40.45h-5.24Z" transform="translate(-4.69 -8.72)"/><path class="cls-1" d="M397.45,61.46c-7.91-1.95-11.14-3.12-11.14-6.94,0-9,11.44-9.07,11.93-9.07,4.8,0,8.41,1.6,10.73,4.77l.2.28h6l-.5-1c-2.14-4.25-6.73-9.33-16.39-9.33-5.95,0-17.2,3-17.2,14.34,0,8.32,8,10.31,15.14,12.06,9.09,2.24,17.69,4.36,17.46,16.45-.19,10.17-8,14.71-15.74,14.71h-.19c-6.29-.06-13.54-3.32-14.6-10.35l-.09-.58h-5.3l.08.75C379,98.06,388.91,102.93,397.65,103h.25c9.94,0,20.76-6.22,21-19.88C419.23,66.83,406.64,63.73,397.45,61.46Z" transform="translate(-4.69 -8.72)"/><path class="cls-1" d="M492.79,40.88V93.7H519.2v8.73H483.5V50.17Z" transform="translate(-4.69 -8.72)"/><path class="cls-1" d="M441,73.13v29.3h-9.29V40.88H473.5l-8.7,8.73H441V73.13Z" transform="translate(-4.69 -8.72)"/><polygon class="cls-1" points="441.6 59.42 441.6 46.17 454.85 46.17 441.6 59.42"/><path class="cls-1" d="M568,87.45H541.63l-6.86,14.95h-10L555.22,37l29.38,65.42H574.44Zm-3.79-8.73-9.13-20.93L545.5,78.72Z" transform="translate(-4.69 -8.72)"/><path class="cls-1" d="M613.55,76.16l19.05,26.23H621.24L603.66,77.2H602v25.19H592.7V40.85h10.88q12.2,0,17.62,4.58a16.84,16.84,0,0,1,6,13.47,17.49,17.49,0,0,1-3.75,11.24A16.7,16.7,0,0,1,613.55,76.16ZM602,69.11h3q13.19,0,13.19-10.09,0-9.45-12.84-9.45H602Z" transform="translate(-4.69 -8.72)"/><path class="cls-1" d="M675,49.58H650.35V64.37h24V73.1h-24V93.66H675v8.73h-34V40.85h34Z" transform="translate(-4.69 -8.72)"/><polygon class="cls-1" points="93.88 101.35 21.11 101.35 21.11 28.58 0 7.46 0 122.46 115 122.46 93.88 101.35"/><polygon class="cls-1" points="28.58 21.11 101.35 21.11 101.35 93.88 122.46 115 122.46 0 7.46 0 28.58 21.11"/><polygon class="cls-1" points="86.24 36.46 44.01 36.46 86.24 78.68 86.24 36.46"/></svg>