<svg enable-background="new 0 0 907.09 1275.59" height="1275.59" viewBox="0 0 907.09 1275.59" width="907.09" xmlns="http://www.w3.org/2000/svg"><g fill="#384af4"><path d="m338.414 679.185c-6.422-1.823-10.625-5.946-12.052-11.814l-.476-2.22h7.453c6.739 0 7.453.158 7.85 1.586.476 1.982 3.568 3.172 8.088 3.172 2.775 0 4.123-.477 6.105-2.3 2.22-1.982 2.537-2.775 2.854-7.295l.317-5.074-1.745 1.902c-5.55 5.788-17.047 5.393-24.104-.793-5.312-4.678-7.136-9.673-7.136-19.347-.079-9.277.951-13.321 4.52-17.999 6.502-8.563 19.109-10.229 26.324-3.489l2.775 2.617v-2.617-2.695h6.344 6.343v24.818c0 13.955-.396 26.324-.872 28.307-2.141 9.356-8.484 13.559-21.25 14.034-4.757.159-9.038-.159-11.338-.793zm14.193-30.448c3.568-1.665 5.709-6.185 5.788-11.974 0-9.99-7.057-16.175-14.193-12.448-5.867 3.013-7.215 15.938-2.378 22.201 2.934 3.648 6.343 4.362 10.783 2.221z"/><path d="m30.369 662.454c-11.577-3.806-19.03-13.162-19.902-25.056-.476-6.978.873-12.369 4.52-18.078 9.753-15.065 32.271-16.89 44.482-3.647 5.312 5.788 7.454 11.339 7.454 19.347.079 5.947-.238 7.374-2.458 12.053-4.837 10.229-13.242 15.857-24.343 16.254-3.965.158-7.692-.159-9.753-.873z"/><path d="m164.45 619.32c.238.237.476.396.713.634-.238-.237-.475-.396-.713-.634z"/><path d="m119.888 661.503c7.057-1.665 10.308-3.727 19.664-12.369 13.876-12.846 13.955-14.748 1.665-26.562-8.96-8.643-13.559-11.656-21.091-13.797l-4.678-1.428c-25.69-.237-58.913-.158-60.261.396-.951.396-.476 1.031 2.062 2.617 13.956 8.881 17.682 29.021 7.771 42.183-2.537 3.409-6.105 6.66-9.991 9.198-1.348.872 42.5 1.188 70.093.951-9.436-.079-9.199-.238-5.234-1.189z"/><path d="m559.795 661.741c-7.057-1.982-11.973-6.105-15.303-12.846-3.172-6.343-3.965-10.466-4.044-20.219-.079-7.454.237-10.07 1.744-14.669 3.093-9.516 9.674-16.413 17.603-18.634 4.281-1.189 12.766-.951 17.127.556 5.551 1.902 11.655 8.166 13.32 13.717 1.903 6.344 1.903 6.344-3.092 6.344-3.489 0-4.361-.238-4.361-1.27 0-2.616-3.647-7.69-6.898-9.594-6.898-3.965-17.127-1.903-21.646 4.44-7.215 10.229-6.739 31.24 1.031 39.646 4.281 4.599 12.448 6.105 18.554 3.251 3.807-1.665 7.691-6.978 9.198-12.449l.872-3.409h4.281 4.203l-.556 3.013c-1.744 9.437-7.453 17.603-14.589 20.695-4.995 2.141-12.686 2.776-17.444 1.428z"/><path d="m618.471 661.661c-12.607-3.33-20.616-16.254-20.616-32.984.079-14.986 6.423-27.276 16.572-32.034 3.013-1.348 5.153-1.665 11.973-1.665 7.532 0 8.722.238 12.29 2.141 8.484 4.44 13.955 13.321 15.62 25.136 1.507 10.546-1.109 22.677-6.502 30.051-6.026 8.325-18.475 12.29-29.337 9.355zm15.699-9.673c7.533-3.727 11.497-11.894 11.497-23.708 0-15.225-7.611-25.136-19.268-25.136-5.63 0-9.911 2.062-13.797 6.581-4.123 4.916-5.63 9.912-5.63 19.348 0 7.215.238 8.404 2.459 13.162 5.075 10.704 15.065 14.59 24.739 9.753z"/><path d="m739.548 661.979c-4.837-1.269-8.722-3.568-12.211-7.374-6.739-7.295-9.356-15.699-8.722-28.307.713-16.334 7.611-27.197 19.426-30.606 6.423-1.903 16.017-1.189 21.25 1.507 11.181 5.709 17.682 21.25 15.462 37.267-2.379 17.285-11.655 27.117-26.245 27.91-3.251.157-7.295-.001-8.96-.397zm14.114-9.436c9.039-4.202 13.717-15.62 12.131-29.417s-12.052-22.519-23.47-19.585c-4.679 1.269-7.691 3.489-10.704 7.85-3.172 4.758-4.124 8.802-4.124 17.286 0 9.911 1.665 14.827 6.74 19.901 5.471 5.472 12.925 6.978 19.427 3.965z"/><path d="m286.399 660.552c-6.423-2.3-10.387-6.661-11.497-12.607l-.476-2.617h7.057c6.422 0 7.136.159 7.136 1.428 0 2.775 2.934 4.44 8.326 4.758 4.599.316 5.233.158 7.057-1.666 3.647-3.646 1.903-4.916-10.229-7.69-13.4-3.093-17.048-6.186-17.048-14.59 0-11.26 9.119-17.523 23.312-15.938 9.912 1.03 15.937 5.788 17.365 13.717l.555 2.538h-6.581c-6.502 0-6.581 0-7.453-2.3-.634-1.744-1.665-2.616-4.203-3.33-6.819-2.062-13.876 3.013-8.167 5.867 1.189.635 4.361 1.586 6.978 2.142 10.229 2.062 14.352 3.806 17.444 7.215 2.935 3.251 2.935 3.33 2.617 9.039-.317 6.898-2.458 10.309-8.326 13.163-5.312 2.615-17.761 3.011-23.867.871z"/><path d="m198.228 637.002v-24.184h6.343 6.343v2.695 2.696l2.617-2.616c5.63-5.63 16.017-5.709 21.646-.08l2.538 2.538 3.171-2.935c7.691-7.215 22.677-3.25 25.453 6.819.476 1.903.872 10.467.872 21.25v17.999h-6.661-6.74l-.238-17.364c-.238-15.779-.396-17.523-1.744-19.03-2.141-2.379-6.819-2.22-9.753.238l-2.22 1.902-.238 17.127-.238 17.127h-6.74-6.661v-16.968c0-15.938-.079-17.048-1.665-19.03-1.269-1.586-2.299-2.062-4.678-2.062-7.453 0-7.929 1.348-7.929 21.805v16.255h-6.74-6.74v-24.182z"/><path d="m382.183 628.677v-32.51h5.075 4.995l13.797 24.739 13.796 24.738.238-24.738.158-24.739h4.361 4.361v32.51 32.588l-4.916-.237-4.916-.238-13.876-24.58-13.955-24.58-.238 24.818-.158 24.738h-4.361-4.361z"/><path d="m440.858 628.677v-32.51h21.408 21.409v4.361 4.36h-17.048-17.047v9.119 9.118h15.858 15.858v4.361 4.36h-15.858-15.858v10.309 10.308h17.444 17.444v4.361 4.36h-21.806-21.805v-32.507z"/><path d="m508.256 633.037v-28.148h-9.911-9.912v-4.36-4.361h23.788 23.787v4.361 4.36h-9.516-9.515v28.148 28.148h-4.36-4.361z"/><path d="m662.873 628.677v-32.589l5.312.237 5.312.238 14.114 25.373 14.113 25.373v-25.61-25.532h3.965 3.965v32.51 32.509h-4.679-4.678l-14.114-25.056-14.192-25.056-.238 25.056-.158 25.056h-4.361-4.361z"/><path d="m783.396 628.677v-32.589l6.026.237 6.026.238 8.008 26.325 8.009 26.324 8.008-26.483 7.93-26.562h6.185 6.105v32.51 32.509h-4.361-4.36l-.159-24.977-.237-24.977-7.454 24.977-7.532 24.977h-4.202-4.123l-1.982-6.502c-1.11-3.647-4.679-15.303-7.93-26.007l-5.946-19.427v26.008l-.079 25.928h-3.965-3.965v-32.509z"/><path d="m867.444 648.341v-12.846l-9.277-16.334c-5.074-8.96-10.069-17.761-11.18-19.585l-1.903-3.409h5.154 5.233l7.771 14.669c4.281 8.009 7.929 14.669 8.246 14.669.238 0 3.965-6.581 8.246-14.669l7.85-14.669h4.996c2.775 0 4.995.158 4.995.396 0 .158-4.837 8.802-10.704 19.188l-10.705 18.871v13.321 13.241h-4.36-4.361v-12.843z"/><path d="m119.888 661.503c7.057-1.665 10.308-3.727 19.664-12.369 13.876-12.846 13.955-14.748 1.665-26.562-8.96-8.643-13.559-11.656-21.091-13.797l-4.757-1.428h12.766c21.091-.079 25.373 1.428 38.298 13.797 13.479 12.925 13.479 14.748-.159 27.831-13.083 12.767-15.858 13.797-37.029 13.718-13.559-.08-13.797-.08-9.357-1.19z" opacity=".6"/></g></svg>