<?xml version="1.0" encoding="utf-8"?>
<!-- Generator: Adobe Illustrator 22.1.0, SVG Export Plug-In . SVG Version: 6.00 Build 0)  -->
<svg version="1.1" id="Layer_1" xmlns="http://www.w3.org/2000/svg" xmlns:xlink="http://www.w3.org/1999/xlink" x="0px" y="0px"
	 viewBox="0 0 1144 125" style="enable-background:new 0 0 1144 125;" xml:space="preserve">
<style type="text/css">
	.st0{fill:#FFF4E2;}
	.st1{opacity:0.6;fill:#FFF4E2;enable-background:new    ;}
</style>
<path class="st0" d="M426.8,114.7c-8.1-2.3-13.4-7.5-15.2-14.9L411,97h9.4c8.5,0,9.4,0.2,9.9,2c0.6,2.5,4.5,4,10.2,4
	c3.5,0,5.2-0.6,7.7-2.9c2.8-2.5,3.2-3.5,3.6-9.2l0.4-6.4l-2.2,2.4c-7,7.3-21.5,6.8-30.4-1c-6.7-5.9-9-12.2-9-24.4
	c-0.1-11.7,1.2-16.8,5.7-22.7c8.2-10.8,24.1-12.9,33.2-4.4l3.5,3.3v-3.3V31h8h8v31.3c0,17.6-0.5,33.2-1.1,35.7
	c-2.7,11.8-10.7,17.1-26.8,17.7C435.1,115.9,429.7,115.5,426.8,114.7z M444.7,76.3c4.5-2.1,7.2-7.8,7.3-15.1
	c0-12.6-8.9-20.4-17.9-15.7c-7.4,3.8-9.1,20.1-3,28C434.8,78.1,439.1,79,444.7,76.3z"/>
<path class="st0" d="M38.3,93.6C23.7,88.8,14.3,77,13.2,62c-0.6-8.8,1.1-15.6,5.7-22.8c12.3-19,40.7-21.3,56.1-4.6
	c6.7,7.3,9.4,14.3,9.4,24.4c0.1,7.5-0.3,9.3-3.1,15.2c-6.1,12.9-16.7,20-30.7,20.5C45.6,94.9,40.9,94.5,38.3,93.6z"/>
<g>
	<path class="st0" d="M207.4,39.2c0.3,0.3,0.6,0.5,0.9,0.8C208,39.7,207.7,39.5,207.4,39.2z"/>
	<path class="st0" d="M151.2,92.4c8.9-2.1,13-4.7,24.8-15.6c17.5-16.2,17.6-18.6,2.1-33.5c-11.3-10.9-17.1-14.7-26.6-17.4l-5.9-1.8
		c-32.4-0.3-74.3-0.2-76,0.5c-1.2,0.5-0.6,1.3,2.6,3.3C89.8,39.1,94.5,64.5,82,81.1c-3.2,4.3-7.7,8.4-12.6,11.6
		c-1.7,1.1,53.6,1.5,88.4,1.2C145.9,93.8,146.2,93.6,151.2,92.4z"/>
</g>
<path class="st0" d="M706,92.7c-8.9-2.5-15.1-7.7-19.3-16.2c-4-8-5-13.2-5.1-25.5c-0.1-9.4,0.3-12.7,2.2-18.5
	C687.7,20.5,696,11.8,706,9c5.4-1.5,16.1-1.2,21.6,0.7c7,2.4,14.7,10.3,16.8,17.3c2.4,8,2.4,8-3.9,8c-4.4,0-5.5-0.3-5.5-1.6
	c0-3.3-4.6-9.7-8.7-12.1c-8.7-5-21.6-2.4-27.3,5.6c-9.1,12.9-8.5,39.4,1.3,50c5.4,5.8,15.7,7.7,23.4,4.1c4.8-2.1,9.7-8.8,11.6-15.7
	l1.1-4.3h5.4h5.3l-0.7,3.8C744.2,76.7,737,87,728,90.9C721.7,93.6,712,94.4,706,92.7z"/>
<path class="st0" d="M780,92.6c-15.9-4.2-26-20.5-26-41.6c0.1-18.9,8.1-34.4,20.9-40.4c3.8-1.7,6.5-2.1,15.1-2.1
	c9.5,0,11,0.3,15.5,2.7c10.7,5.6,17.6,16.8,19.7,31.7c1.9,13.3-1.4,28.6-8.2,37.9C809.4,91.3,793.7,96.3,780,92.6z M799.8,80.4
	c9.5-4.7,14.5-15,14.5-29.9c0-19.2-9.6-31.7-24.3-31.7c-7.1,0-12.5,2.6-17.4,8.3c-5.2,6.2-7.1,12.5-7.1,24.4
	c0,9.1,0.3,10.6,3.1,16.6C775,81.6,787.6,86.5,799.8,80.4z"/>
<path class="st0" d="M932.7,93c-6.1-1.6-11-4.5-15.4-9.3c-8.5-9.2-11.8-19.8-11-35.7c0.9-20.6,9.6-34.3,24.5-38.6
	c8.1-2.4,20.2-1.5,26.8,1.9c14.1,7.2,22.3,26.8,19.5,47c-3,21.8-14.7,34.2-33.1,35.2C939.9,93.7,934.8,93.5,932.7,93z M950.5,81.1
	c11.4-5.3,17.3-19.7,15.3-37.1s-15.2-28.4-29.6-24.7c-5.9,1.6-9.7,4.4-13.5,9.9c-4,6-5.2,11.1-5.2,21.8c0,12.5,2.1,18.7,8.5,25.1
	C932.9,83,942.3,84.9,950.5,81.1z"/>
<path class="st0" d="M361.2,91.2c-8.1-2.9-13.1-8.4-14.5-15.9l-0.6-3.3h8.9c8.1,0,9,0.2,9,1.8c0,3.5,3.7,5.6,10.5,6
	c5.8,0.4,6.6,0.2,8.9-2.1c4.6-4.6,2.4-6.2-12.9-9.7c-16.9-3.9-21.5-7.8-21.5-18.4c0-14.2,11.5-22.1,29.4-20.1
	c12.5,1.3,20.1,7.3,21.9,17.3L401,50h-8.3c-8.2,0-8.3,0-9.4-2.9c-0.8-2.2-2.1-3.3-5.3-4.2c-8.6-2.6-17.5,3.8-10.3,7.4
	c1.5,0.8,5.5,2,8.8,2.7c12.9,2.6,18.1,4.8,22,9.1c3.7,4.1,3.7,4.2,3.3,11.4c-0.4,8.7-3.1,13-10.5,16.6
	C384.6,93.4,368.9,93.9,361.2,91.2z"/>
<path class="st0" d="M250,61.5V31h8h8v3.4v3.4l3.3-3.3c7.1-7.1,20.2-7.2,27.3-0.1l3.2,3.2l4-3.7c9.7-9.1,28.6-4.1,32.1,8.6
	c0.6,2.4,1.1,13.2,1.1,26.8V92h-8.4h-8.5l-0.3-21.9c-0.3-19.9-0.5-22.1-2.2-24c-2.7-3-8.6-2.8-12.3,0.3l-2.8,2.4l-0.3,21.6L301.9,92
	h-8.5H285V70.6c0-20.1-0.1-21.5-2.1-24c-1.6-2-2.9-2.6-5.9-2.6c-9.4,0-10,1.7-10,27.5V92h-8.5H250V61.5z"/>
<path class="st0" d="M482,51V10h6.4h6.3l17.4,31.2l17.4,31.2l0.3-31.2L530,10h5.5h5.5v41v41.1l-6.2-0.3l-6.2-0.3l-17.5-31l-17.6-31
	l-0.3,31.3L493,92h-5.5H482V51z"/>
<path class="st0" d="M556,51V10h27h27v5.5V21h-21.5H567v11.5V44h20h20v5.5V55h-20h-20v13v13h22h22v5.5V92h-27.5H556V51z"/>
<path class="st0" d="M641,56.5V21h-12.5H616v-5.5V10h30h30v5.5V21h-12h-12v35.5V92h-5.5H641V56.5z"/>
<path class="st0" d="M836,51V9.9l6.7,0.3l6.7,0.3l17.8,32l17.8,32V42.2V10h5h5v41v41h-5.9h-5.9l-17.8-31.6l-17.9-31.6l-0.3,31.6
	L847,92h-5.5H836V51z"/>
<path class="st0" d="M988,51V9.9l7.6,0.3l7.6,0.3l10.1,33.2l10.1,33.2l10.1-33.4l10-33.5h7.8h7.7v41v41h-5.5h-5.5l-0.2-31.5
	l-0.3-31.5l-9.4,31.5l-9.5,31.5h-5.3h-5.2l-2.5-8.2c-1.4-4.6-5.9-19.3-10-32.8l-7.5-24.5v32.8L998,92h-5h-5V51z"/>
<path class="st0" d="M1094,75.8V59.6L1082.3,39c-6.4-11.3-12.7-22.4-14.1-24.7l-2.4-4.3h6.5h6.6l9.8,18.5
	c5.4,10.1,10,18.5,10.4,18.5c0.3,0,5-8.3,10.4-18.5l9.9-18.5h6.3c3.5,0,6.3,0.2,6.3,0.5c0,0.2-6.1,11.1-13.5,24.2L1105,58.5v16.8V92
	h-5.5h-5.5V75.8z"/>
<path class="st1" d="M151.2,92.4c8.9-2.1,13-4.7,24.8-15.6c17.5-16.2,17.6-18.6,2.1-33.5c-11.3-10.9-17.1-14.7-26.6-17.4l-6-1.8
	h16.1c26.6-0.1,32,1.8,48.3,17.4c17,16.3,17,18.6-0.2,35.1c-16.5,16.1-20,17.4-46.7,17.3C145.9,93.8,145.6,93.8,151.2,92.4z"/>
</svg>
