<?xml version="1.0" encoding="utf-8"?>
<!-- Generator: Adobe Illustrator 22.1.0, SVG Export Plug-In . SVG Version: 6.00 Build 0)  -->
<svg version="1.1" id="Layer_1" xmlns="http://www.w3.org/2000/svg" xmlns:xlink="http://www.w3.org/1999/xlink" x="0px" y="0px"
	 viewBox="0 0 240 100" style="enable-background:new 0 0 240 100;" xml:space="preserve">
<style type="text/css">
	.st0{display:none;fill:none;stroke:#FFF200;stroke-width:1.0445;stroke-miterlimit:10;}
	.st1{fill:#FFF4E2;}
</style>
<rect class="st0" width="240" height="100"/>
<g>
	<polyline class="st1" points="27.2,56.7 27.2,43 37.3,43 37.3,45.4 29.9,45.4 29.9,48.4 36.8,48.4 36.8,50.7 29.9,50.7 29.9,54.4 
		37.6,54.4 37.6,56.7 27.2,56.7 	"/>
	<rect x="39.6" y="50.5" class="st1" width="5.2" height="2.6"/>
	<path class="st1" d="M46.3,43h5.5c1.1,0,1.9,0,2.4,0.1c0.5,0.1,1,0.3,1.4,0.6c0.4,0.3,0.8,0.7,1.1,1.1c0.3,0.5,0.4,1,0.4,1.6
		c0,0.6-0.2,1.2-0.5,1.8c-0.3,0.5-0.8,0.9-1.4,1.2c0.8,0.2,1.5,0.7,1.9,1.2c0.4,0.6,0.7,1.3,0.7,2.1c0,0.6-0.1,1.2-0.4,1.8
		c-0.3,0.6-0.7,1.1-1.2,1.4c-0.5,0.4-1.1,0.6-1.9,0.6c-0.5,0.1-1.6,0.1-3.3,0.1h-4.7V43 M49.1,45.3v3.2h1.8c1.1,0,1.7,0,2,0
		c0.5-0.1,0.8-0.2,1.1-0.5c0.3-0.3,0.4-0.6,0.4-1.1c0-0.4-0.1-0.8-0.4-1c-0.2-0.3-0.6-0.4-1-0.5c-0.3,0-1.1,0-2.4,0H49.1z
		 M49.1,50.8v3.7h2.6c1,0,1.6,0,1.9-0.1c0.4-0.1,0.7-0.3,1-0.5c0.3-0.3,0.4-0.7,0.4-1.2c0-0.4-0.1-0.8-0.3-1
		c-0.2-0.3-0.5-0.5-0.9-0.6c-0.4-0.1-1.2-0.2-2.5-0.2H49.1z"/>
	<path class="st1" d="M66.7,56.7v-1.5c-0.4,0.5-0.8,0.9-1.4,1.3C64.6,56.8,64,57,63.4,57c-0.7,0-1.3-0.1-1.8-0.4
		c-0.5-0.3-0.9-0.7-1.1-1.2c-0.2-0.5-0.4-1.3-0.4-2.2v-6.3h2.6v4.6c0,1.4,0,2.3,0.1,2.6c0.1,0.3,0.3,0.6,0.5,0.7
		c0.3,0.2,0.6,0.3,1,0.3c0.4,0,0.9-0.1,1.2-0.4c0.4-0.2,0.6-0.6,0.7-0.9c0.1-0.4,0.2-1.3,0.2-2.7v-4.2h2.6v9.9H66.7"/>
	<path class="st1" d="M70.9,53.9l2.6-0.4c0.1,0.5,0.3,0.9,0.7,1.2c0.3,0.3,0.8,0.4,1.4,0.4c0.7,0,1.2-0.1,1.5-0.4
		c0.2-0.2,0.3-0.4,0.3-0.7c0-0.2-0.1-0.4-0.2-0.5c-0.1-0.1-0.4-0.2-0.9-0.3c-2.1-0.5-3.5-0.9-4-1.3c-0.8-0.5-1.2-1.3-1.2-2.2
		c0-0.9,0.3-1.6,1-2.2c0.7-0.6,1.7-0.9,3.2-0.9c1.4,0,2.4,0.2,3,0.7c0.7,0.4,1.1,1.1,1.4,2l-2.5,0.5c-0.1-0.4-0.3-0.7-0.6-0.9
		c-0.3-0.2-0.7-0.3-1.3-0.3c-0.7,0-1.2,0.1-1.5,0.3c-0.2,0.1-0.3,0.3-0.3,0.5c0,0.2,0.1,0.3,0.3,0.5c0.2,0.2,1.1,0.4,2.5,0.7
		c1.4,0.3,2.4,0.7,2.9,1.2c0.5,0.5,0.8,1.1,0.8,2c0,0.9-0.4,1.7-1.1,2.3c-0.8,0.7-1.9,1-3.4,1c-1.4,0-2.4-0.3-3.2-0.8
		S71.1,54.8,70.9,53.9"/>
	<path class="st1" d="M85.1,45.5h-2.6V43h2.6V45.5z M85.1,56.7h-2.6v-9.9h2.6V56.7z"/>
	<path class="st1" d="M96.8,56.7h-2.6v-5.1c0-1.1-0.1-1.8-0.2-2.1c-0.1-0.3-0.3-0.6-0.5-0.7c-0.3-0.2-0.6-0.3-0.9-0.3
		c-0.5,0-0.9,0.1-1.2,0.4c-0.4,0.2-0.6,0.6-0.7,1c-0.1,0.4-0.2,1.2-0.2,2.3v4.5h-2.6v-9.9h2.4v1.5c0.9-1.1,2-1.7,3.3-1.7
		c0.6,0,1.1,0.1,1.6,0.3c0.5,0.2,0.8,0.5,1.1,0.8c0.2,0.3,0.4,0.7,0.5,1.1c0.1,0.4,0.1,1,0.1,1.8V56.7"/>
	<path class="st1" d="M105.2,53.6l2.6,0.4c-0.3,1-0.9,1.7-1.6,2.2c-0.7,0.5-1.6,0.8-2.7,0.8c-1.7,0-3-0.6-3.8-1.7
		c-0.7-0.9-1-2-1-3.4c0-1.6,0.4-2.9,1.3-3.9c0.9-0.9,1.9-1.4,3.3-1.4c1.5,0,2.6,0.5,3.5,1.5c0.9,1,1.3,2.5,1.2,4.5h-6.6
		c0,0.8,0.2,1.4,0.6,1.8c0.4,0.4,0.9,0.7,1.5,0.7c0.4,0,0.8-0.1,1-0.3C104.9,54.4,105.1,54.1,105.2,53.6 M105.4,50.9
		c0-0.8-0.2-1.3-0.6-1.7c-0.4-0.4-0.8-0.6-1.4-0.6c-0.6,0-1,0.2-1.4,0.6c-0.4,0.4-0.6,1-0.6,1.7H105.4z"/>
	<path class="st1" d="M109.2,53.9l2.6-0.4c0.1,0.5,0.3,0.9,0.7,1.2c0.3,0.3,0.8,0.4,1.4,0.4c0.7,0,1.2-0.1,1.5-0.4
		c0.2-0.2,0.3-0.4,0.3-0.7c0-0.2-0.1-0.4-0.2-0.5c-0.1-0.1-0.4-0.2-0.9-0.3c-2.1-0.5-3.5-0.9-4-1.3c-0.8-0.5-1.2-1.3-1.2-2.2
		c0-0.9,0.3-1.6,1-2.2c0.7-0.6,1.7-0.9,3.2-0.9c1.4,0,2.4,0.2,3,0.7c0.7,0.4,1.1,1.1,1.4,2l-2.5,0.5c-0.1-0.4-0.3-0.7-0.6-0.9
		c-0.3-0.2-0.7-0.3-1.3-0.3c-0.7,0-1.2,0.1-1.5,0.3c-0.2,0.1-0.3,0.3-0.3,0.5c0,0.2,0.1,0.3,0.3,0.5c0.2,0.2,1.1,0.4,2.5,0.7
		c1.4,0.3,2.4,0.7,2.9,1.2c0.5,0.5,0.8,1.1,0.8,2c0,0.9-0.4,1.7-1.1,2.3c-0.8,0.7-1.9,1-3.4,1c-1.4,0-2.4-0.3-3.2-0.8
		S109.5,54.8,109.2,53.9"/>
	<path class="st1" d="M119.9,53.9l2.6-0.4c0.1,0.5,0.3,0.9,0.7,1.2c0.3,0.3,0.8,0.4,1.4,0.4c0.7,0,1.2-0.1,1.5-0.4
		c0.2-0.2,0.3-0.4,0.3-0.7c0-0.2-0.1-0.4-0.2-0.5c-0.1-0.1-0.4-0.2-0.9-0.3c-2.1-0.5-3.5-0.9-4-1.3c-0.8-0.5-1.2-1.3-1.2-2.2
		c0-0.9,0.3-1.6,1-2.2c0.7-0.6,1.7-0.9,3.2-0.9c1.4,0,2.4,0.2,3,0.7c0.7,0.4,1.1,1.1,1.4,2l-2.5,0.5c-0.1-0.4-0.3-0.7-0.6-0.9
		c-0.3-0.2-0.7-0.3-1.3-0.3c-0.7,0-1.2,0.1-1.5,0.3c-0.2,0.1-0.3,0.3-0.3,0.5c0,0.2,0.1,0.3,0.3,0.5c0.2,0.2,1.1,0.4,2.5,0.7
		s2.4,0.7,2.9,1.2c0.5,0.5,0.8,1.1,0.8,2c0,0.9-0.4,1.7-1.1,2.3c-0.8,0.7-1.9,1-3.4,1c-1.4,0-2.4-0.3-3.2-0.8
		C120.6,55.6,120.1,54.8,119.9,53.9"/>
	<rect x="131.4" y="54.1" class="st1" width="2.6" height="2.6"/>
	<polyline class="st1" points="142.1,56.7 142.1,43 144.8,43 150.4,52.2 150.4,43 153,43 153,56.7 150.2,56.7 144.7,47.8 
		144.7,56.7 142.1,56.7 	"/>
	<path class="st1" d="M157.9,49.8l-2.4-0.4c0.3-1,0.7-1.7,1.4-2.1c0.7-0.5,1.6-0.7,2.9-0.7c1.2,0,2,0.1,2.6,0.4
		c0.6,0.3,1,0.6,1.2,1.1c0.2,0.4,0.4,1.2,0.4,2.4l0,3.1c0,0.9,0,1.5,0.1,1.9s0.2,0.9,0.5,1.3h-2.6c-0.1-0.2-0.2-0.4-0.3-0.8
		c0-0.2-0.1-0.3-0.1-0.3c-0.4,0.4-0.9,0.8-1.4,1c-0.5,0.2-1.1,0.3-1.6,0.3c-1,0-1.8-0.3-2.4-0.8c-0.6-0.6-0.9-1.3-0.9-2.1
		c0-0.6,0.1-1.1,0.4-1.5c0.3-0.4,0.6-0.8,1.1-1c0.5-0.2,1.2-0.4,2.1-0.6c1.2-0.2,2.1-0.4,2.6-0.6V50c0-0.5-0.1-0.9-0.4-1.1
		c-0.2-0.2-0.7-0.3-1.4-0.3c-0.5,0-0.8,0.1-1.1,0.3C158.2,49.1,158,49.4,157.9,49.8 M161.4,52c-0.3,0.1-0.9,0.2-1.6,0.4
		c-0.7,0.2-1.2,0.3-1.4,0.5c-0.3,0.2-0.5,0.6-0.5,0.9c0,0.4,0.1,0.7,0.4,1c0.3,0.3,0.6,0.4,1,0.4c0.5,0,0.9-0.2,1.4-0.5
		c0.3-0.2,0.5-0.5,0.6-0.9c0.1-0.2,0.1-0.7,0.1-1.3V52z"/>
	<path class="st1" d="M166.4,46.8h2.4v1.4c0.9-1.1,1.9-1.6,3.1-1.6c0.6,0,1.2,0.1,1.7,0.4c0.5,0.3,0.9,0.7,1.2,1.2
		c0.4-0.5,0.9-0.9,1.4-1.2c0.5-0.3,1-0.4,1.6-0.4c0.7,0,1.3,0.1,1.9,0.4c0.5,0.3,0.9,0.7,1.1,1.3c0.2,0.4,0.3,1.1,0.3,2.1v6.3h-2.6
		v-5.7c0-1-0.1-1.6-0.3-1.9c-0.2-0.4-0.6-0.6-1.1-0.6c-0.4,0-0.7,0.1-1,0.3c-0.3,0.2-0.6,0.6-0.7,1c-0.1,0.4-0.2,1.1-0.2,2.1v4.8
		h-2.6v-5.4c0-1,0-1.6-0.1-1.9c-0.1-0.3-0.2-0.5-0.4-0.6c-0.2-0.1-0.5-0.2-0.8-0.2c-0.4,0-0.8,0.1-1.1,0.3c-0.3,0.2-0.6,0.5-0.7,0.9
		c-0.1,0.4-0.2,1.1-0.2,2v4.8h-2.6V46.8"/>
	<path class="st1" d="M186.2,45.5h-2.6V43h2.6V45.5z M186.2,56.7h-2.6v-9.9h2.6V56.7z"/>
	<path class="st1" d="M197.6,49.7l-2.6,0.5c-0.1-0.5-0.3-0.9-0.6-1.2c-0.3-0.3-0.7-0.4-1.2-0.4c-0.7,0-1.2,0.2-1.6,0.7
		c-0.4,0.5-0.6,1.2-0.6,2.3c0,1.2,0.2,2,0.6,2.5c0.4,0.5,0.9,0.7,1.6,0.7c0.5,0,0.9-0.1,1.2-0.4c0.3-0.3,0.5-0.8,0.7-1.5l2.6,0.4
		c-0.3,1.2-0.8,2.1-1.5,2.7c-0.8,0.6-1.8,0.9-3.1,0.9c-1.5,0-2.6-0.5-3.5-1.4c-0.9-0.9-1.3-2.2-1.3-3.8c0-1.6,0.4-2.9,1.3-3.8
		c0.9-0.9,2-1.4,3.5-1.4c1.2,0,2.2,0.3,2.9,0.8C196.7,47.9,197.3,48.7,197.6,49.7"/>
	<path class="st1" d="M198.6,53.9l2.6-0.4c0.1,0.5,0.3,0.9,0.7,1.2c0.3,0.3,0.8,0.4,1.4,0.4c0.7,0,1.2-0.1,1.5-0.4
		c0.2-0.2,0.3-0.4,0.3-0.7c0-0.2-0.1-0.4-0.2-0.5c-0.1-0.1-0.4-0.2-0.9-0.3c-2.1-0.5-3.5-0.9-4-1.3c-0.8-0.5-1.2-1.3-1.2-2.2
		c0-0.9,0.3-1.6,1-2.2c0.7-0.6,1.7-0.9,3.2-0.9c1.4,0,2.4,0.2,3,0.7c0.7,0.4,1.1,1.1,1.4,2l-2.5,0.5c-0.1-0.4-0.3-0.7-0.6-0.9
		c-0.3-0.2-0.7-0.3-1.3-0.3c-0.7,0-1.2,0.1-1.5,0.3c-0.2,0.1-0.3,0.3-0.3,0.5c0,0.2,0.1,0.3,0.3,0.5c0.2,0.2,1.1,0.4,2.5,0.7
		c1.4,0.3,2.4,0.7,2.9,1.2c0.5,0.5,0.8,1.1,0.8,2c0,0.9-0.4,1.7-1.1,2.3c-0.8,0.7-1.9,1-3.4,1c-1.4,0-2.4-0.3-3.2-0.8
		C199.4,55.6,198.9,54.8,198.6,53.9"/>
	<rect x="210.2" y="54.1" class="st1" width="2.6" height="2.6"/>
</g>
</svg>
