<svg enable-background="new 0 0 907.1 900" viewBox="0 0 907.1 900" xmlns="http://www.w3.org/2000/svg"><g fill="#384af4"><path d="m102.8 663.1v-51.8h38.2v9.1h-28v11.3h26.1v8.7h-26.1v14h29.1v8.7z"/><path d="m149.7 639.7h19.7v9.8h-19.7z"/><path d="m175 611.3h20.8c4.2 0 7.2 0 9.1.4s3.8 1.1 5.3 2.3 3 2.6 4.2 4.2c1.1 1.9 1.5 3.8 1.5 6s-.8 4.5-1.9 6.8c-1.1 1.9-3 3.4-5.3 4.5 3 .8 5.7 2.6 7.2 4.5 1.5 2.3 2.6 4.9 2.6 7.9 0 2.3-.4 4.5-1.5 6.8s-2.6 4.2-4.5 5.3c-1.9 1.5-4.2 2.3-7.2 2.3-1.9.4-6 .4-12.5.4h-17.8zm10.6 8.7v12.1h6.8 7.6c1.9-.4 3-.8 4.2-1.9 1.1-1.1 1.5-2.3 1.5-4.2 0-1.5-.4-3-1.5-3.8-.8-1.1-2.3-1.5-3.8-1.9-1.1 0-4.2 0-9.1 0h-5.7zm0 20.8v14h9.8c3.8 0 6 0 7.2-.4 1.5-.4 2.6-1.1 3.8-1.9 1.1-1.1 1.5-2.6 1.5-4.5 0-1.5-.4-3-1.1-3.8-.8-1.1-1.9-1.9-3.4-2.3s-4.5-.8-9.4-.8h-8.3z"/><path d="m252.1 663.1v-5.7c-1.5 1.9-3 3.4-5.3 4.9-2.6 1.1-4.9 1.9-7.2 1.9-2.6 0-4.9-.4-6.8-1.5s-3.4-2.6-4.2-4.5-1.5-4.9-1.5-8.3v-23.8h9.8v17.4c0 5.3 0 8.7.4 9.8s1.1 2.3 1.9 2.6c1.1.8 2.3 1.1 3.8 1.1s3.4-.4 4.5-1.5c1.5-.8 2.3-2.3 2.6-3.4.4-1.5.8-4.9.8-10.2v-15.9h9.8v37.4h-8.7"/><path d="m268 652.5 9.8-1.5c.4 1.9 1.1 3.4 2.6 4.5 1.1 1.1 3 1.5 5.3 1.5 2.6 0 4.5-.4 5.7-1.5.8-.8 1.1-1.5 1.1-2.6 0-.8-.4-1.5-.8-1.9s-1.5-.8-3.4-1.1c-7.9-1.9-13.2-3.4-15.1-4.9-3-1.9-4.5-4.9-4.5-8.3s1.1-6 3.8-8.3c2.6-2.3 6.4-3.4 12.1-3.4 5.3 0 9.1.8 11.3 2.6 2.6 1.5 4.2 4.2 5.3 7.6l-9.4 1.9c-.4-1.5-1.1-2.6-2.3-3.4s-2.6-1.1-4.9-1.1c-2.6 0-4.5.4-5.7 1.1-.8.4-1.1 1.1-1.1 1.9s.4 1.1 1.1 1.9 4.2 1.5 9.4 2.6 9.1 2.6 11 4.5 3 4.2 3 7.6-1.5 6.4-4.2 8.7c-3 2.6-7.2 3.8-12.9 3.8-5.3 0-9.1-1.1-12.1-3-2.9-2-4.4-5.8-5.1-9.2"/><path d="m321.6 620.8h-9.8v-9.4h9.8zm0 42.3h-9.8v-37.4h9.8z"/><path d="m365.9 663.1h-9.9v-19.3c0-4.2-.4-6.8-.8-7.9s-1.1-2.3-1.9-2.6c-1.1-.8-2.3-1.1-3.4-1.1-1.9 0-3.4.4-4.5 1.5-1.5.8-2.3 2.3-2.6 3.8s-.8 4.5-.8 8.7v17h-9.8v-37.4h9.1v5.7c3.4-4.2 7.6-6.4 12.5-6.4 2.3 0 4.2.4 6 1.1s3 1.9 4.2 3c.8 1.1 1.5 2.6 1.9 4.2s.4 3.8.4 6.8v23.1"/><path d="m397.6 651.4 9.8 1.5c-1.1 3.8-3.4 6.4-6 8.3s-6 3-10.2 3c-6.4 0-11.3-2.3-14.4-6.4-2.6-3.4-3.8-7.6-3.8-12.9 0-6 1.5-11 4.9-14.7 3.4-3.4 7.2-5.3 12.5-5.3 5.7 0 9.8 1.9 13.2 5.7s4.9 9.4 4.5 17h-24.9c0 3 .8 5.3 2.3 6.8s3.4 2.6 5.7 2.6c1.5 0 3-.4 3.8-1.1 1.5-1.5 2.2-2.6 2.6-4.5m.8-10.2c0-3-.8-4.9-2.3-6.4s-3-2.3-5.3-2.3-3.8.8-5.3 2.3-2.3 3.8-2.3 6.4z"/><path d="m412.7 652.5 9.8-1.5c.4 1.9 1.1 3.4 2.6 4.5 1.1 1.1 3 1.5 5.3 1.5 2.6 0 4.5-.4 5.7-1.5.8-.8 1.1-1.5 1.1-2.6 0-.8-.4-1.5-.8-1.9s-1.5-.8-3.4-1.1c-7.9-1.9-13.2-3.4-15.1-4.9-3-1.9-4.5-4.9-4.5-8.3s1.1-6 3.8-8.3 6.4-3.4 12.1-3.4c5.3 0 9.1.8 11.3 2.6 2.6 1.5 4.2 4.2 5.3 7.6l-9.4 1.9c-.4-1.5-1.1-2.6-2.3-3.4s-2.6-1.1-4.9-1.1c-2.6 0-4.5.4-5.7 1.1-.8.4-1.1 1.1-1.1 1.9s.4 1.1 1.1 1.9 4.2 1.5 9.4 2.6c5.3 1.1 9.1 2.6 11 4.5s3 4.2 3 7.6-1.5 6.4-4.2 8.7c-3 2.6-7.2 3.8-12.9 3.8-5.3 0-9.1-1.1-12.1-3-2.8-2-3.9-5.8-5.1-9.2"/><path d="m453.2 652.5 9.8-1.5c.4 1.9 1.1 3.4 2.6 4.5 1.1 1.1 3 1.5 5.3 1.5 2.6 0 4.5-.4 5.7-1.5.8-.8 1.1-1.5 1.1-2.6 0-.8-.4-1.5-.8-1.9s-1.5-.8-3.4-1.1c-7.9-1.9-13.2-3.4-15.1-4.9-3-1.9-4.5-4.9-4.5-8.3s1.1-6 3.8-8.3c2.6-2.3 6.4-3.4 12.1-3.4 5.3 0 9.1.8 11.3 2.6 2.6 1.5 4.2 4.2 5.3 7.6l-9.4 1.8c-.4-1.5-1.1-2.6-2.3-3.4s-2.6-1.1-4.9-1.1c-2.6 0-4.5.4-5.7 1.1-.8.4-1.1 1.1-1.1 1.9s.4 1.1 1.1 1.9 4.2 1.5 9.4 2.6c5.3 1.1 9.1 2.6 11 4.5s3 4.2 3 7.6-1.5 6.4-4.2 8.7c-3 2.6-7.2 3.8-12.9 3.8-5.3 0-9.1-1.1-12.1-3-2.5-2.6-4.4-5.7-5.1-9.1"/><path d="m496.6 653.3h9.8v9.8h-9.8z"/><path d="m537.1 663.1v-51.8h10.2l21.2 34.8v-34.8h9.8v51.8h-10.6l-20.8-33.6v33.6z"/><path d="m596.8 637-9.1-1.5c1.1-3.8 2.6-6.4 5.3-7.9 2.6-1.9 6-2.6 11-2.6 4.5 0 7.6.4 9.8 1.5s3.8 2.3 4.5 4.2c.8 1.5 1.5 4.5 1.5 9.1v11.7c0 3.4 0 5.7.4 7.2s.8 3.4 1.9 4.9h-9.8c-.4-.8-.8-1.5-1.1-3 0-.8-.4-1.1-.4-1.1-1.5 1.5-3.4 3-5.3 3.8s-4.2 1.1-6 1.1c-3.8 0-6.8-1.1-9.1-3-2.3-2.3-3.4-4.9-3.4-7.9 0-2.3.4-4.2 1.5-5.7s2.3-3 4.2-3.8 4.5-1.5 7.9-2.3c4.5-.8 7.9-1.5 9.8-2.3v-1.5c0-1.9-.4-3.4-1.5-4.2-.8-.8-2.6-1.1-5.3-1.1-1.9 0-3 .4-4.2 1.1-1.5.7-2.2 1.8-2.6 3.3m13.2 8.4c-1.1.4-3.4.8-6 1.5s-4.5 1.1-5.3 1.9c-1.1.8-1.9 2.3-1.9 3.4 0 1.5.4 2.6 1.5 3.8 1.1 1.1 2.3 1.5 3.8 1.5 1.9 0 3.4-.8 5.3-1.9 1.1-.8 1.9-1.9 2.3-3.4.4-.8.4-2.6.4-4.9z"/><path d="m628.9 625.7h9.1v5.3c3.4-4.2 7.2-6 11.7-6 2.3 0 4.5.4 6.4 1.5s3.4 2.6 4.5 4.5c1.5-1.9 3.4-3.4 5.3-4.5s3.8-1.5 6-1.5c2.6 0 4.9.4 7.2 1.5 1.9 1.1 3.4 2.6 4.2 4.9.8 1.5 1.1 4.2 1.1 7.9v23.8h-9.8v-21.5c0-3.8-.4-6-1.1-7.2-.8-1.5-2.3-2.3-4.2-2.3-1.5 0-2.6.4-3.8 1.1s-2.3 2.3-2.6 3.8-.8 4.2-.8 7.9v18.1h-9.8v-20.4c0-3.8 0-6-.4-7.2s-.8-1.9-1.5-2.3-1.9-.8-3-.8c-1.5 0-3 .4-4.2 1.1-1.1.8-2.3 1.9-2.6 3.4s-.8 4.2-.8 7.6v18.1h-9.8v-37"/><path d="m703.8 620.8h-9.8v-9.4h9.8zm0 42.3h-9.8v-37.4h9.8z"/><path d="m746.8 636.7-9.8 1.9c-.4-1.9-1.1-3.4-2.3-4.5s-2.6-1.5-4.5-1.5c-2.6 0-4.5.8-6 2.6s-2.3 4.5-2.3 8.7c0 4.5.8 7.6 2.3 9.4s3.4 2.6 6 2.6c1.9 0 3.4-.4 4.5-1.5s1.9-3 2.6-5.7l9.8 1.5c-1.1 4.5-3 7.9-5.7 10.2-3 2.3-6.8 3.4-11.7 3.4-5.7 0-9.8-1.9-13.2-5.3s-4.9-8.3-4.9-14.4c0-6 1.5-11 4.9-14.4s7.6-5.3 13.2-5.3c4.5 0 8.3 1.1 11 3 2.7 2.5 5 5.5 6.1 9.3"/><path d="m750.6 652.5 9.8-1.5c.4 1.9 1.1 3.4 2.6 4.5 1.1 1.1 3 1.5 5.3 1.5 2.6 0 4.5-.4 5.7-1.5.8-.8 1.1-1.5 1.1-2.6 0-.8-.4-1.5-.8-1.9s-1.5-.8-3.4-1.1c-7.9-1.9-13.2-3.4-15.1-4.9-3-1.9-4.5-4.9-4.5-8.3s1.1-6 3.8-8.3c2.6-2.3 6.4-3.4 12.1-3.4 5.3 0 9.1.8 11.3 2.6 2.6 1.5 4.2 4.2 5.3 7.6l-9.4 1.9c-.4-1.5-1.1-2.6-2.3-3.4s-2.6-1.1-4.9-1.1c-2.6 0-4.5.4-5.7 1.1-.8.4-1.1 1.1-1.1 1.9s.4 1.1 1.1 1.9 4.2 1.5 9.4 2.6 9.1 2.6 11 4.5 3 4.2 3 7.6-1.5 6.4-4.2 8.7c-3 2.6-7.2 3.8-12.9 3.8-5.3 0-9.1-1.1-12.1-3-2.1-2.7-3.9-5.8-5.1-9.2"/><path d="m794.5 653.3h9.8v9.8h-9.8z"/></g></svg>