<?xml version="1.0" encoding="UTF-8" standalone="no"?>
<!DOCTYPE svg PUBLIC "-//W3C//DTD SVG 1.1//EN" "http://www.w3.org/Graphics/SVG/1.1/DTD/svg11.dtd">
<svg width="100%" height="100%" viewBox="0 0 301 97" version="1.1" xmlns="http://www.w3.org/2000/svg" xmlns:xlink="http://www.w3.org/1999/xlink" xml:space="preserve" xmlns:serif="http://www.serif.com/" style="fill-rule:evenodd;clip-rule:evenodd;stroke-linejoin:round;stroke-miterlimit:1.41421;">
    <g>
        <path d="M54.86,43.48C55.31,42.16 55.54,40.58 55.54,38.75C55.54,36.67 55.3,34.92 54.81,33.5C54.33,32.08 53.62,30.88 52.69,29.9C51.76,28.92 50.64,28.24 49.34,27.85C48.37,27.57 46.96,27.43 45.11,27.43L36.91,27.43L36.91,49.65L45.35,49.65C47.01,49.65 48.33,49.49 49.32,49.18C50.64,48.76 51.69,48.16 52.47,47.41C53.51,46.41 54.3,45.1 54.86,43.48ZM50.45,42.63C50.15,43.63 49.76,44.34 49.28,44.77C48.8,45.2 48.2,45.51 47.47,45.69C46.91,45.83 46.01,45.9 44.76,45.9L41.4,45.9L41.4,31.19L43.42,31.19C45.25,31.19 46.48,31.26 47.1,31.4C47.94,31.58 48.63,31.93 49.18,32.45C49.73,32.97 50.15,33.68 50.45,34.6C50.546,34.894 50.626,35.228 50.692,35.604C50.831,36.404 50.9,37.389 50.9,38.56C50.9,40.27 50.75,41.63 50.45,42.63Z" style="fill:rgb(56,74,244);fill-rule:nonzero;"/>
        <rect x="59.31" y="33.56" width="4.26" height="16.09" style="fill:rgb(56,74,244);"/>
        <rect x="59.31" y="27.43" width="4.26" height="3.94" style="fill:rgb(56,74,244);"/>
        <path d="M78.7,35.81C77.41,34.06 75.76,33.19 73.77,33.19C71.84,33.19 70.23,33.9 68.93,35.33C67.63,36.76 66.98,38.82 66.98,41.51C66.98,43.66 67.48,45.46 68.47,46.91C69.73,48.74 71.45,49.65 73.61,49.65C75.55,49.65 77.16,48.78 78.43,47.04L78.43,49.39C78.43,50.34 78.36,50.99 78.23,51.35C78.04,51.85 77.75,52.2 77.38,52.43C76.82,52.76 75.99,52.93 74.88,52.93C74.01,52.93 73.37,52.78 72.97,52.47C72.68,52.26 72.49,51.87 72.41,51.3L67.55,50.71C67.54,50.91 67.53,51.08 67.53,51.23C67.53,52.66 68.1,53.85 69.24,54.78C70.38,55.71 72.32,56.18 75.04,56.18C76.48,56.18 77.68,56.03 78.62,55.72C79.56,55.42 80.32,55 80.89,54.46C81.46,53.92 81.89,53.19 82.21,52.25C82.52,51.31 82.68,49.89 82.68,47.99L82.68,33.56L78.7,33.56L78.7,35.81ZM77.42,44.99C76.7,45.8 75.82,46.21 74.78,46.21C73.81,46.21 72.99,45.81 72.33,45.02C71.67,44.23 71.34,42.98 71.34,41.27C71.34,39.64 71.67,38.43 72.33,37.64C72.99,36.85 73.83,36.45 74.85,36.45C75.9,36.45 76.77,36.85 77.46,37.66C78.15,38.47 78.49,39.71 78.49,41.37C78.5,42.97 78.14,44.18 77.42,44.99Z" style="fill:rgb(56,74,244);fill-rule:nonzero;"/>
        <rect x="86.9" y="33.56" width="4.26" height="16.09" style="fill:rgb(56,74,244);"/>
        <g transform="matrix(0.924883,0,0,1,6.5277,0)">
            <rect x="86.9" y="27.43" width="4.26" height="3.94" style="fill:rgb(56,74,244);"/>
        </g>
        <path d="M99.88,50.01C101.13,50.01 102.25,49.8 103.24,49.37L102.88,46.07C102.13,46.34 101.56,46.48 101.17,46.48C100.89,46.48 100.65,46.41 100.45,46.27C100.25,46.13 100.13,45.95 100.07,45.73C100.01,45.51 99.99,44.75 99.99,43.43L99.99,36.94L102.9,36.94L102.9,33.55L99.99,33.55L99.99,27.87L95.72,30.36L95.72,33.56L93.76,33.56L93.76,36.95L95.72,36.95L95.72,43.97C95.72,45.48 95.77,46.48 95.86,46.97C95.97,47.67 96.17,48.22 96.46,48.63C96.75,49.04 97.2,49.37 97.82,49.63C98.44,49.89 99.12,50.01 99.88,50.01Z" style="fill:rgb(56,74,244);fill-rule:nonzero;"/>
        <path d="M119.84,49.65C119.47,48.88 119.21,48.16 119.07,47.49C118.93,46.82 118.87,45.78 118.87,44.36L118.92,39.39C118.92,37.54 118.73,36.27 118.35,35.58C117.97,34.89 117.32,34.32 116.39,33.87C115.46,33.42 114.05,33.2 112.15,33.2C110.06,33.2 108.48,33.57 107.42,34.32C106.36,35.07 105.61,36.22 105.18,37.78L109.04,38.48C109.3,37.73 109.65,37.21 110.07,36.91C110.49,36.61 111.09,36.46 111.84,36.46C112.96,36.46 113.72,36.63 114.13,36.98C114.53,37.33 114.74,37.91 114.74,38.73L114.74,39.15C113.97,39.47 112.59,39.82 110.6,40.2C109.12,40.48 108,40.81 107.21,41.19C106.43,41.57 105.82,42.11 105.38,42.83C104.95,43.54 104.73,44.35 104.73,45.26C104.73,46.63 105.21,47.77 106.16,48.67C107.11,49.57 108.42,50.02 110.08,50.02C111.02,50.02 111.9,49.84 112.73,49.49C113.56,49.14 114.34,48.61 115.06,47.9C115.09,47.98 115.14,48.15 115.21,48.4C115.37,48.96 115.51,49.37 115.62,49.66L119.84,49.66L119.84,49.65ZM114.74,42.77C114.74,43.79 114.68,44.48 114.57,44.85C114.41,45.41 114.07,45.88 113.55,46.26C112.85,46.76 112.12,47.02 111.35,47.02C110.66,47.02 110.1,46.8 109.65,46.37C109.21,45.94 108.98,45.42 108.98,44.83C108.98,44.22 109.26,43.72 109.81,43.33C110.17,43.09 110.95,42.84 112.13,42.59C113.31,42.34 114.18,42.12 114.72,41.94L114.72,42.77L114.74,42.77Z" style="fill:rgb(56,74,244);fill-rule:nonzero;"/>
        <rect x="123.12" y="27.43" width="4.26" height="22.22" style="fill:rgb(56,74,244);"/>
        <rect x="131.74" y="45.39" width="4.26" height="4.26" style="fill:rgb(56,74,244);"/>
        <path d="M162.52,42.27L153.43,27.43L149.06,27.43L149.06,49.65L153.23,49.65L153.23,35.16L162.19,49.65L166.69,49.65L166.69,27.43L162.52,27.43L162.52,42.27Z" style="fill:rgb(56,74,244);fill-rule:nonzero;"/>
        <path d="M184.42,44.36L184.46,39.39C184.46,37.54 184.27,36.27 183.89,35.58C183.51,34.89 182.86,34.32 181.93,33.87C181,33.42 179.59,33.2 177.69,33.2C175.6,33.2 174.02,33.57 172.96,34.32C171.9,35.07 171.15,36.22 170.72,37.78L174.58,38.48C174.84,37.73 175.19,37.21 175.61,36.91C176.03,36.61 176.63,36.46 177.38,36.46C178.5,36.46 179.26,36.63 179.67,36.98C180.07,37.33 180.28,37.91 180.28,38.73L180.28,39.15C179.51,39.47 178.13,39.82 176.14,40.2C174.66,40.48 173.54,40.81 172.75,41.19C171.96,41.57 171.36,42.11 170.92,42.83C170.49,43.54 170.27,44.35 170.27,45.26C170.27,46.63 170.75,47.77 171.7,48.67C172.66,49.57 173.96,50.02 175.62,50.02C176.56,50.02 177.44,49.84 178.27,49.49C179.1,49.14 179.88,48.61 180.6,47.9C180.63,47.98 180.68,48.15 180.75,48.4C180.91,48.96 181.05,49.37 181.16,49.66L185.37,49.66C185,48.89 184.74,48.17 184.6,47.5C184.49,46.82 184.42,45.78 184.42,44.36ZM180.28,42.77C180.28,43.79 180.22,44.48 180.11,44.85C179.95,45.41 179.61,45.88 179.09,46.26C178.39,46.76 177.66,47.02 176.89,47.02C176.2,47.02 175.64,46.8 175.19,46.37C174.75,45.94 174.52,45.42 174.52,44.83C174.52,44.22 174.8,43.72 175.35,43.33C175.71,43.09 176.49,42.84 177.67,42.59C178.85,42.34 179.72,42.12 180.26,41.94L180.26,42.77L180.28,42.77Z" style="fill:rgb(56,74,244);fill-rule:nonzero;"/>
        <path d="M209.74,33.91C208.92,33.43 207.92,33.19 206.74,33.19C205.81,33.19 204.94,33.4 204.12,33.83C203.3,34.25 202.54,34.9 201.83,35.75C201.34,34.89 200.72,34.25 199.97,33.83C199.21,33.41 198.32,33.19 197.29,33.19C195.35,33.19 193.68,34.04 192.27,35.75L192.27,33.55L188.34,33.55L188.34,49.64L192.6,49.64L192.6,41.82C192.6,40.27 192.71,39.17 192.94,38.5C193.17,37.83 193.54,37.32 194.07,36.97C194.6,36.62 195.19,36.44 195.84,36.44C196.39,36.44 196.82,36.55 197.14,36.77C197.46,36.99 197.69,37.33 197.85,37.78C198,38.24 198.08,39.25 198.08,40.81L198.08,49.63L202.34,49.63L202.34,41.9C202.34,40.39 202.46,39.28 202.69,38.57C202.92,37.86 203.3,37.33 203.83,36.97C204.36,36.61 204.92,36.42 205.51,36.42C206.33,36.42 206.93,36.72 207.33,37.33C207.62,37.79 207.77,38.83 207.77,40.42L207.77,49.62L212.03,49.62L212.03,39.36C212.03,37.82 211.88,36.71 211.59,36.03C211.17,35.1 210.56,34.39 209.74,33.91Z" style="fill:rgb(56,74,244);fill-rule:nonzero;"/>
        <rect x="216.26" y="33.56" width="4.26" height="16.09" style="fill:rgb(56,74,244);"/>
        <rect x="216.26" y="27.43" width="4.26" height="3.94" style="fill:rgb(56,74,244);"/>
        <path d="M233.85,45.86C233.34,46.32 232.67,46.55 231.86,46.55C230.78,46.55 229.92,46.16 229.28,45.37C228.64,44.58 228.32,43.23 228.32,41.32C228.32,39.6 228.64,38.38 229.27,37.64C229.9,36.91 230.75,36.54 231.81,36.54C232.61,36.54 233.26,36.75 233.76,37.18C234.26,37.6 234.58,38.24 234.72,39.07L238.92,38.31C238.41,36.58 237.58,35.3 236.43,34.45C235.27,33.61 233.71,33.19 231.75,33.19C229.36,33.19 227.46,33.93 226.05,35.41C224.65,36.89 223.94,38.96 223.94,41.62C223.94,44.25 224.64,46.3 226.04,47.79C227.44,49.28 229.32,50.02 231.67,50.02C233.74,50.02 235.39,49.53 236.63,48.55C237.86,47.57 238.7,46.12 239.13,44.2L234.95,43.49C234.73,44.6 234.37,45.4 233.85,45.86Z" style="fill:rgb(56,74,244);fill-rule:nonzero;"/>
        <path d="M249.59,39.56C247.32,39.05 246,38.65 245.61,38.36C245.33,38.15 245.19,37.89 245.19,37.59C245.19,37.24 245.35,36.95 245.67,36.73C246.16,36.42 246.96,36.26 248.08,36.26C248.97,36.26 249.65,36.43 250.13,36.76C250.61,37.09 250.94,37.57 251.11,38.2L255.13,37.46C254.73,36.06 253.99,35 252.92,34.28C251.85,33.56 250.21,33.2 248.01,33.2C245.7,33.2 243.99,33.67 242.89,34.62C241.79,35.57 241.24,36.74 241.24,38.14C241.24,39.69 241.88,40.89 243.15,41.76C244.07,42.39 246.25,43.08 249.68,43.84C250.42,44.01 250.89,44.2 251.1,44.4C251.3,44.61 251.4,44.88 251.4,45.2C251.4,45.68 251.21,46.05 250.84,46.34C250.28,46.74 249.46,46.95 248.35,46.95C247.35,46.95 246.57,46.74 246.02,46.31C245.46,45.88 245.1,45.25 244.91,44.42L240.64,45.07C241.03,46.6 241.87,47.8 243.15,48.69C244.43,49.58 246.16,50.02 248.36,50.02C250.78,50.02 252.6,49.49 253.83,48.43C255.06,47.37 255.68,46.1 255.68,44.63C255.68,43.28 255.23,42.22 254.35,41.46C253.44,40.7 251.86,40.07 249.59,39.56Z" style="fill:rgb(56,74,244);fill-rule:nonzero;"/>
        <rect x="259.41" y="45.39" width="4.26" height="4.26" style="fill:rgb(56,74,244);"/>
        <path d="M41.21,60.19L37.38,68.95L38.94,68.95L39.83,66.85L43.94,66.85L44.82,68.95L46.43,68.95L42.6,60.19L41.21,60.19ZM40.4,65.5L41.89,62.02L43.39,65.5L40.4,65.5Z" style="fill:rgb(56,74,244);fill-rule:nonzero;"/>
        <path d="M56.18,64.37L53.53,60.26L51.91,60.26L51.91,68.95L53.41,68.95L53.41,62.74L56.13,66.81L56.18,66.81L58.92,62.71L58.92,68.95L60.45,68.95L60.45,60.26L58.82,60.26L56.18,64.37Z" style="fill:rgb(56,74,244);fill-rule:nonzero;"/>
        <path d="M65.48,62.26C63.6,62.26 62.28,63.8 62.28,65.68L62.28,65.71C62.28,67.73 63.75,69.11 65.65,69.11C66.86,69.11 67.71,68.63 68.33,67.88L67.45,67.1C66.93,67.61 66.41,67.88 65.67,67.88C64.7,67.88 63.94,67.28 63.78,66.22L68.6,66.22C68.61,66.07 68.62,65.93 68.62,65.8C68.62,63.89 67.56,62.26 65.48,62.26ZM63.76,65.21C63.9,64.19 64.54,63.48 65.46,63.48C66.45,63.48 67.02,64.24 67.12,65.21L63.76,65.21Z" style="fill:rgb(56,74,244);fill-rule:nonzero;"/>
        <path d="M71.76,63.87L71.76,62.39L70.24,62.39L70.24,68.95L71.76,68.95L71.76,66.45C71.76,64.71 72.68,63.85 74,63.85L74.09,63.85L74.09,62.26C72.93,62.22 72.17,62.89 71.76,63.87Z" style="fill:rgb(56,74,244);fill-rule:nonzero;"/>
        <path d="M81.56,62.39L79.73,62.39L77.01,65.3L77.01,59.88L75.49,59.88L75.49,68.95L77.01,68.95L77.01,67.07L77.94,66.11L79.88,68.95L81.64,68.95L78.95,65.06L81.56,62.39Z" style="fill:rgb(56,74,244);fill-rule:nonzero;"/>
        <rect x="82.93" y="59.88" width="1.52" height="9.07" style="fill:rgb(56,74,244);"/>
        <path d="M89.37,62.26C87.49,62.26 86.17,63.8 86.17,65.68L86.17,65.71C86.17,67.73 87.64,69.11 89.54,69.11C90.75,69.11 91.6,68.63 92.22,67.88L91.34,67.1C90.82,67.61 90.3,67.88 89.56,67.88C88.59,67.88 87.83,67.28 87.67,66.22L92.49,66.22C92.5,66.07 92.51,65.93 92.51,65.8C92.52,63.89 91.46,62.26 89.37,62.26ZM87.66,65.21C87.8,64.19 88.44,63.48 89.36,63.48C90.35,63.48 90.92,64.24 91.02,65.21L87.66,65.21Z" style="fill:rgb(56,74,244);fill-rule:nonzero;"/>
        <path d="M102.26,67.68C100.6,67.68 99.39,66.3 99.39,64.6L99.39,64.58C99.39,62.88 100.61,61.52 102.25,61.52C103.26,61.52 103.99,61.94 104.7,62.59L105.68,61.46C104.85,60.67 103.88,60.11 102.26,60.11C99.64,60.11 97.79,62.13 97.79,64.61L97.79,64.64C97.79,67.14 99.67,69.11 102.21,69.11C103.84,69.11 104.83,68.51 105.74,67.57L104.76,66.58C104.01,67.26 103.33,67.68 102.26,67.68Z" style="fill:rgb(56,74,244);fill-rule:nonzero;"/>
        <path d="M110.32,62.26C108.31,62.26 106.82,63.81 106.82,65.69L106.82,65.71C106.82,67.57 108.3,69.1 110.3,69.1C112.32,69.1 113.82,67.55 113.82,65.68L113.82,65.66C113.81,63.78 112.33,62.26 110.32,62.26ZM112.31,65.71C112.31,66.84 111.54,67.78 110.32,67.78C109.15,67.78 108.32,66.82 108.32,65.68L108.32,65.66C108.32,64.52 109.09,63.57 110.3,63.57C111.48,63.57 112.31,64.53 112.31,65.68L112.31,65.71Z" style="fill:rgb(56,74,244);fill-rule:nonzero;"/>
        <path d="M123.13,62.26C122.14,62.26 121.44,62.72 120.92,63.41C120.57,62.71 119.9,62.26 118.96,62.26C117.95,62.26 117.38,62.81 116.96,63.39L116.96,62.4L115.44,62.4L115.44,68.96L116.96,68.96L116.96,65.26C116.96,64.25 117.53,63.63 118.36,63.63C119.19,63.63 119.69,64.2 119.69,65.22L119.69,68.96L121.19,68.96L121.19,65.26C121.19,64.2 121.77,63.63 122.59,63.63C123.43,63.63 123.92,64.19 123.92,65.23L123.92,68.96L125.42,68.96L125.42,64.77C125.43,63.16 124.56,62.26 123.13,62.26Z" style="fill:rgb(56,74,244);fill-rule:nonzero;"/>
        <path d="M131.1,62.26C130.03,62.26 129.35,62.81 128.86,63.49L128.86,62.4L127.34,62.4L127.34,70.95L128.86,70.95L128.86,67.94C129.32,68.55 130,69.1 131.1,69.1C132.65,69.1 134.14,67.87 134.14,65.7L134.14,65.68C134.14,63.47 132.64,62.26 131.1,62.26ZM132.62,65.68C132.62,66.97 131.78,67.78 130.74,67.78C129.72,67.78 128.83,66.94 128.83,65.68L128.83,65.66C128.83,64.41 129.72,63.56 130.74,63.56C131.75,63.56 132.62,64.39 132.62,65.66L132.62,65.68Z" style="fill:rgb(56,74,244);fill-rule:nonzero;"/>
        <path d="M138.43,62.3C137.39,62.3 136.68,62.51 135.95,62.83L136.36,64.01C136.96,63.76 137.5,63.6 138.24,63.6C139.3,63.6 139.87,64.1 139.87,65.03L139.87,65.19C139.36,65.03 138.84,64.92 138.11,64.92C136.51,64.92 135.39,65.62 135.39,67.03L135.39,67.06C135.39,68.38 136.49,69.08 137.72,69.08C138.73,69.08 139.41,68.66 139.86,68.12L139.86,68.94L141.33,68.94L141.33,65.05C141.33,64.19 141.11,63.5 140.62,63.03C140.14,62.57 139.41,62.3 138.43,62.3ZM139.88,66.59C139.88,67.42 139.12,67.99 138.13,67.99C137.41,67.99 136.85,67.63 136.85,67L136.85,66.98C136.85,66.3 137.42,65.89 138.39,65.89C138.99,65.89 139.5,66 139.88,66.15L139.88,66.59Z" style="fill:rgb(56,74,244);fill-rule:nonzero;"/>
        <path d="M146.78,62.26C145.76,62.26 145.15,62.79 144.73,63.4L144.73,62.39L143.21,62.39L143.21,68.95L144.73,68.95L144.73,65.25C144.73,64.23 145.34,63.62 146.21,63.62C147.1,63.62 147.61,64.2 147.61,65.22L147.61,68.95L149.11,68.95L149.11,64.76C149.12,63.25 148.26,62.26 146.78,62.26Z" style="fill:rgb(56,74,244);fill-rule:nonzero;"/>
        <path d="M153.7,67.26L151.86,62.39L150.25,62.39L152.98,68.96C152.73,69.52 152.47,69.71 152.05,69.71C151.74,69.71 151.44,69.61 151.17,69.46L150.66,70.57C151.12,70.83 151.59,70.98 152.21,70.98C153.27,70.98 153.85,70.48 154.37,69.13L156.98,62.4L155.42,62.4L153.7,67.26Z" style="fill:rgb(56,74,244);fill-rule:nonzero;"/>
    </g>
</svg>
