<svg enable-background="new 0 0 907.09 1275.59" height="1275.59" viewBox="0 0 907.09 1275.59" width="907.09" xmlns="http://www.w3.org/2000/svg"><g fill="#384af4"><path d="m102.804 663.118v-51.78h38.173v9.071h-27.969v11.339h26.079v8.692h-26.079v13.985h29.103v8.693z"/><path d="m149.67 639.685h19.653v9.827h-19.653z"/><path d="m174.993 611.338h20.788c4.157 0 7.181 0 9.071.378s3.78 1.134 5.292 2.268 3.023 2.646 4.157 4.158c1.134 1.89 1.512 3.779 1.512 6.047s-.756 4.535-1.89 6.804c-1.134 1.89-3.023 3.401-5.291 4.535 3.023.756 5.669 2.646 7.181 4.535 1.512 2.268 2.646 4.913 2.646 7.938 0 2.268-.378 4.535-1.512 6.803s-2.646 4.157-4.536 5.291c-1.89 1.513-4.157 2.269-7.181 2.269-1.89.378-6.047.378-12.472.378h-17.764v-51.404m10.581 8.693v12.095h6.803 7.559c1.89-.378 3.024-.756 4.158-1.89 1.134-1.135 1.512-2.269 1.512-4.158 0-1.512-.378-3.023-1.512-3.779-.756-1.134-2.268-1.512-3.78-1.89-1.134 0-4.157 0-9.071 0h-5.669zm0 20.787v13.984h9.827c3.779 0 6.047 0 7.181-.378 1.512-.378 2.646-1.134 3.779-1.89 1.134-1.134 1.512-2.646 1.512-4.535 0-1.512-.378-3.023-1.134-3.78-.756-1.134-1.89-1.89-3.401-2.268s-4.536-.756-9.449-.756h-8.315z"/><path d="m252.095 663.118v-5.67c-1.512 1.89-3.023 3.402-5.291 4.914-2.646 1.134-4.914 1.89-7.181 1.89-2.646 0-4.914-.378-6.803-1.512s-3.402-2.646-4.158-4.536-1.512-4.913-1.512-8.314v-23.812h9.827v17.386c0 5.292 0 8.693.378 9.827s1.134 2.268 1.89 2.646c1.134.756 2.268 1.134 3.779 1.134s3.402-.378 4.536-1.512c1.512-.756 2.268-2.268 2.646-3.401.378-1.512.756-4.913.756-10.205v-15.874h9.827v37.418h-8.693"/><path d="m267.969 652.535 9.827-1.512c.378 1.89 1.134 3.401 2.646 4.535 1.134 1.134 3.024 1.512 5.292 1.512 2.646 0 4.535-.378 5.669-1.512.756-.756 1.134-1.512 1.134-2.646 0-.756-.378-1.512-.756-1.89s-1.512-.756-3.402-1.134c-7.937-1.89-13.229-3.401-15.118-4.913-3.023-1.891-4.535-4.914-4.535-8.315s1.134-6.047 3.779-8.315c2.646-2.268 6.425-3.401 12.095-3.401 5.291 0 9.071.756 11.338 2.646 2.646 1.512 4.158 4.158 5.292 7.56l-9.449 1.89c-.378-1.512-1.134-2.646-2.268-3.401s-2.646-1.134-4.913-1.134c-2.646 0-4.536.378-5.669 1.134-.756.378-1.134 1.134-1.134 1.89s.378 1.134 1.134 1.89 4.157 1.512 9.449 2.646 9.071 2.646 10.961 4.535c1.89 1.891 3.023 4.158 3.023 7.56s-1.512 6.425-4.157 8.692c-3.024 2.646-7.181 3.78-12.851 3.78-5.292 0-9.071-1.134-12.095-3.023-3.024-1.893-4.535-5.672-5.292-9.074"/><path d="m321.639 620.787h-9.826v-9.449h9.826zm0 42.331h-9.826v-37.418h9.826z"/><path d="m365.859 663.118h-9.826v-19.276c0-4.157-.378-6.803-.756-7.937-.379-1.134-1.135-2.268-1.891-2.646-1.134-.756-2.268-1.134-3.401-1.134-1.89 0-3.401.378-4.535 1.512-1.512.756-2.268 2.268-2.646 3.779s-.756 4.535-.756 8.693v17.008h-9.827v-37.417h9.071v5.67c3.401-4.158 7.559-6.426 12.472-6.426 2.269 0 4.158.378 6.048 1.134s3.023 1.89 4.157 3.023c.756 1.135 1.512 2.646 1.89 4.158s.378 3.779.378 6.803v23.056"/><path d="m397.607 651.401 9.827 1.512c-1.134 3.779-3.401 6.425-6.048 8.315-2.646 1.89-6.047 3.023-10.204 3.023-6.425 0-11.339-2.268-14.362-6.426-2.646-3.401-3.779-7.559-3.779-12.851 0-6.047 1.512-10.96 4.913-14.739 3.401-3.402 7.181-5.292 12.473-5.292 5.669 0 9.827 1.89 13.229 5.669 3.401 3.78 4.913 9.449 4.535 17.009h-24.945c0 3.023.756 5.291 2.269 6.803 1.512 1.512 3.401 2.646 5.669 2.646 1.512 0 3.023-.378 3.779-1.134 1.511-1.511 2.266-2.645 2.644-4.535m.756-10.205c0-3.023-.756-4.913-2.268-6.425s-3.023-2.268-5.291-2.268-3.779.756-5.291 2.268c-1.513 1.512-2.269 3.779-2.269 6.425z"/><path d="m412.726 652.535 9.827-1.512c.378 1.89 1.134 3.401 2.646 4.535 1.134 1.134 3.023 1.512 5.291 1.512 2.646 0 4.536-.378 5.67-1.512.756-.756 1.134-1.512 1.134-2.646 0-.756-.378-1.512-.756-1.89s-1.512-.756-3.401-1.134c-7.938-1.89-13.229-3.401-15.118-4.913-3.024-1.891-4.536-4.914-4.536-8.315s1.134-6.047 3.78-8.315 6.425-3.401 12.094-3.401c5.292 0 9.071.756 11.339 2.646 2.646 1.512 4.157 4.158 5.292 7.56l-9.449 1.89c-.378-1.512-1.134-2.646-2.268-3.401s-2.646-1.134-4.914-1.134c-2.646 0-4.535.378-5.669 1.134-.756.378-1.134 1.134-1.134 1.89s.378 1.134 1.134 1.89 4.157 1.512 9.449 2.646c5.291 1.134 9.07 2.646 10.96 4.535 1.891 1.891 3.024 4.158 3.024 7.56s-1.513 6.425-4.158 8.692c-3.023 2.646-7.181 3.78-12.851 3.78-5.291 0-9.07-1.134-12.094-3.023-3.024-1.893-4.159-5.672-5.292-9.074"/><path d="m453.167 652.535 9.827-1.512c.378 1.89 1.134 3.401 2.646 4.535 1.134 1.134 3.023 1.512 5.291 1.512 2.646 0 4.535-.378 5.669-1.512.757-.756 1.135-1.512 1.135-2.646 0-.756-.378-1.512-.756-1.89s-1.512-.756-3.402-1.134c-7.937-1.89-13.229-3.401-15.118-4.913-3.023-1.891-4.535-4.914-4.535-8.315s1.134-6.047 3.779-8.315c2.646-2.268 6.426-3.401 12.095-3.401 5.291 0 9.071.756 11.339 2.646 2.646 1.512 4.157 4.158 5.291 7.56l-9.448 1.89c-.379-1.512-1.135-2.646-2.269-3.401s-2.646-1.134-4.913-1.134c-2.646 0-4.535.378-5.669 1.134-.756.378-1.134 1.134-1.134 1.89s.378 1.134 1.134 1.89 4.157 1.512 9.448 2.646c5.292 1.134 9.071 2.646 10.961 4.535 1.89 1.891 3.023 4.158 3.023 7.56s-1.512 6.425-4.157 8.692c-3.023 2.646-7.181 3.78-12.851 3.78-5.291 0-9.07-1.134-12.095-3.023-2.646-2.649-4.535-5.672-5.291-9.074"/><path d="m496.632 653.291h9.827v9.827h-9.827z"/><path d="m537.073 663.118v-51.78h10.204l21.166 34.772v-34.772h9.827v51.78h-10.582l-20.789-33.639v33.639z"/><path d="m596.789 637.039-9.07-1.512c1.134-3.779 2.646-6.426 5.291-7.938 2.646-1.89 6.048-2.646 10.961-2.646 4.535 0 7.559.378 9.827 1.512s3.779 2.268 4.535 4.157c.756 1.513 1.512 4.536 1.512 9.071v11.717c0 3.401 0 5.669.378 7.181s.756 3.402 1.89 4.914h-9.827c-.378-.756-.756-1.512-1.134-3.023 0-.757-.378-1.135-.378-1.135-1.512 1.513-3.401 3.024-5.291 3.78s-4.157 1.134-6.047 1.134c-3.78 0-6.804-1.134-9.071-3.023-2.268-2.269-3.401-4.914-3.401-7.938 0-2.268.378-4.157 1.512-5.669s2.268-3.024 4.157-3.78 4.535-1.512 7.938-2.268c4.535-.756 7.937-1.512 9.826-2.268v-1.512c0-1.89-.378-3.401-1.512-4.157-.756-.756-2.646-1.134-5.291-1.134-1.89 0-3.023.378-4.157 1.134-1.513.758-2.269 1.891-2.648 3.403m13.229 8.315c-1.134.379-3.401.757-6.047 1.513s-4.535 1.134-5.291 1.89c-1.135.756-1.891 2.268-1.891 3.401 0 1.512.379 2.646 1.512 3.779 1.135 1.134 2.269 1.512 3.78 1.512 1.89 0 3.401-.756 5.291-1.89 1.134-.756 1.89-1.89 2.268-3.401.378-.756.378-2.646.378-4.913z"/><path d="m628.916 625.7h9.07v5.292c3.401-4.158 7.182-6.048 11.717-6.048 2.268 0 4.535.378 6.425 1.512s3.402 2.646 4.536 4.536c1.512-1.891 3.401-3.402 5.291-4.536s3.779-1.512 6.047-1.512c2.646 0 4.914.378 7.182 1.512 1.89 1.134 3.401 2.646 4.157 4.914.756 1.512 1.134 4.157 1.134 7.937v23.812h-9.826v-21.544c0-3.779-.379-6.047-1.135-7.181-.756-1.512-2.268-2.268-4.157-2.268-1.512 0-2.646.378-3.779 1.134s-2.268 2.268-2.646 3.779-.756 4.157-.756 7.937v18.143h-9.827v-20.41c0-3.779 0-6.047-.378-7.181s-.756-1.89-1.512-2.268-1.89-.756-3.023-.756c-1.512 0-3.023.378-4.158 1.134-1.134.756-2.268 1.89-2.646 3.401s-.756 4.157-.756 7.559v18.143h-9.826v-37.041"/><path d="m703.751 620.787h-9.827v-9.449h9.827zm0 42.331h-9.827v-37.418h9.827z"/><path d="m746.837 636.661-9.826 1.89c-.378-1.89-1.134-3.401-2.268-4.535s-2.646-1.512-4.536-1.512c-2.646 0-4.535.756-6.047 2.646s-2.268 4.535-2.268 8.692c0 4.536.756 7.56 2.268 9.449s3.401 2.646 6.047 2.646c1.89 0 3.402-.378 4.536-1.512s1.89-3.023 2.646-5.669l9.826 1.512c-1.134 4.535-3.023 7.937-5.669 10.205-3.023 2.268-6.803 3.401-11.717 3.401-5.669 0-9.826-1.89-13.229-5.292-3.401-3.401-4.913-8.314-4.913-14.362 0-6.047 1.512-10.96 4.913-14.362 3.402-3.401 7.56-5.291 13.229-5.291 4.536 0 8.315 1.134 10.961 3.023 2.646 2.267 4.913 5.292 6.047 9.071"/><path d="m750.617 652.535 9.826-1.512c.378 1.89 1.134 3.401 2.646 4.535 1.134 1.134 3.023 1.512 5.291 1.512 2.646 0 4.535-.378 5.669-1.512.756-.756 1.134-1.512 1.134-2.646 0-.756-.378-1.512-.756-1.89s-1.512-.756-3.401-1.134c-7.937-1.89-13.229-3.401-15.118-4.913-3.023-1.891-4.535-4.914-4.535-8.315s1.134-6.047 3.779-8.315c2.646-2.268 6.425-3.401 12.095-3.401 5.291 0 9.07.756 11.339 2.646 2.646 1.512 4.157 4.158 5.291 7.56l-9.449 1.89c-.378-1.512-1.134-2.646-2.268-3.401s-2.646-1.134-4.913-1.134c-2.646 0-4.536.378-5.67 1.134-.756.378-1.134 1.134-1.134 1.89s.378 1.134 1.134 1.89 4.158 1.512 9.449 2.646 9.071 2.646 10.961 4.535c1.89 1.891 3.023 4.158 3.023 7.56s-1.512 6.425-4.157 8.692c-3.024 2.646-7.182 3.78-12.851 3.78-5.292 0-9.071-1.134-12.095-3.023-2.266-2.649-4.156-5.672-5.29-9.074"/><path d="m794.46 653.291h9.826v9.827h-9.826z"/></g></svg>