<svg xmlns="http://www.w3.org/2000/svg" width="240" height="100" viewBox="0 0 240 100"><g fill="#FFF4E2"><path d="M111.13 38.764c.176-.025.4-.075.574-.075.175 0 .376-.026.55-.026.7 0 1.2.175 1.45.5.3.375.4.8.4 1.3v.323c0 .1-.025.226-.025.325l-2.576 15.62h-3.024l-4.797-11.87-1.925 11.87h-3.3l2.95-17.894c.175-.025.425-.075.7-.1.25-.025.55-.075.823-.075.627 0 1.1.15 1.376.424.3.3.575.7.775 1.225l4.074 10.322 1.975-11.87zM123.727 52.76c.9.475 1.374 1.024 1.374 1.7 0 .374-.1.7-.324.974-.225.25-.424.5-.698.65-.4.25-.9.5-1.525.774-.625.225-1.45.375-2.475.375-.975 0-1.824-.15-2.474-.425-.65-.274-1.2-.7-1.6-1.2-.4-.5-.7-1.05-.876-1.7-.174-.65-.25-1.3-.25-2 0-1.1.175-2.15.5-3.124.325-.975.825-1.85 1.45-2.575.625-.726 1.375-1.3 2.324-1.75.9-.426 1.95-.65 3.125-.65.623 0 1.2.1 1.674.25.476.174.9.424 1.226.724s.574.65.775 1.1c.176.4.25.874.25 1.35 0 1.024-.225 1.824-.65 2.423-.424.625-1.024 1.1-1.7 1.45-.698.375-1.423.575-2.223.725-.8.1-1.55.175-2.3.175h-.55c-.15 0-.3 0-.425-.025v.15c0 .4.075.774.225 1.1.15.3.3.55.5.775.226.175.425.325.7.425.25.1.5.15.775.15.724 0 1.35-.176 1.9-.5.475-.498.925-.897 1.275-1.322m-4.325-3.024c.4 0 .824-.025 1.226-.15.398-.076.798-.226 1.124-.4.324-.175.626-.425.824-.7.225-.3.324-.625.324-.975 0-.3-.074-.574-.25-.8-.173-.224-.5-.324-.948-.324-.774 0-1.425.3-1.95.9-.55.625-.898 1.425-1.124 2.424.15 0 .3.025.4.025h.374zM134.773 56.26c-.426.324-.9.55-1.425.7-.524.15-1.1.224-1.75.224-1.35 0-2.35-.375-3.023-1.05-.65-.7-.975-1.674-.975-2.898 0-.225 0-.425.025-.65.024-.225.075-.474.1-.724l1.95-11.77c.224-.026.423-.077.648-.077s.4-.024.575-.024c.724 0 1.274.176 1.55.5.325.375.475.8.475 1.3v.324c0 .1-.024.225-.024.325l-.252 1.55h3.45l-.476 2.748h-3.45l-.874 5.224c-.024.175-.074.325-.074.5-.025.15-.025.3-.025.426 0 .95.398 1.374 1.224 1.374.4 0 .774-.1 1.1-.375.3-.25.575-.55.824-.875.476.175.8.426.975.725.176.3.3.575.3.875 0 .25-.073.55-.224.825-.05.322-.302.572-.627.822M149.793 51.835c.4.3.726.625.95.95.226.325.325.625.325.9 0 .5-.148.95-.4 1.274-.3.374-.65.7-1.15.974-.55.325-1.198.65-1.997.875-.8.25-1.7.374-2.648.374-1.15 0-2.15-.175-2.976-.575-.824-.376-1.524-.9-2.074-1.55-.55-.65-.948-1.45-1.2-2.35-.25-.9-.398-1.924-.398-3.024 0-1.3.174-2.625.55-3.95.374-1.323.95-2.548 1.7-3.623.772-1.1 1.698-1.95 2.897-2.65 1.15-.7 2.576-1.023 4.176-1.023 1.2 0 2.174.225 2.95.65.773.424 1.35.95 1.748 1.5.1.174.225.4.25.624.025.225.074.4.074.625 0 .5-.175.95-.5 1.3-.323.374-.8.574-1.45.724-.323-.775-.725-1.35-1.273-1.775-.5-.426-1.226-.65-2.174-.65-.725 0-1.424.174-2.073.574-.626.375-1.2.95-1.625 1.674-.476.725-.825 1.625-1.124 2.725-.302 1.1-.4 2.325-.4 3.75 0 .574.074 1.124.225 1.6.15.5.375.95.624 1.3.302.374.626.648 1.025.874.4.225.874.325 1.375.325.5 0 1.024-.075 1.45-.225.424-.15.875-.325 1.224-.55.402-.225.727-.475 1.05-.774.324-.303.624-.578.873-.878M159.966 55.36c-.4.548-.9.974-1.45 1.3-.574.324-1.224.5-2.023.5-.726 0-1.35-.1-1.824-.376-.478-.25-.826-.575-1.126-.975-.3-.426-.476-.95-.575-1.525-.1-.575-.175-1.225-.175-1.925 0-1.124.174-2.174.498-3.224.376-1.05.826-1.95 1.5-2.75.65-.8 1.45-1.45 2.35-1.95.9-.5 1.924-.724 3.05-.724.724 0 1.5.1 2.35.325.85.225 1.674.575 2.424 1.024l-1.375 8.474c-.025.25-.075.575-.075.875 0 .4.025.8.1 1.2.075.4.15.774.3 1.05-.3.174-.624.3-.974.374-.326.075-.7.1-1.025.1-.574 0-1.024-.15-1.373-.425-.33-.25-.53-.726-.58-1.35m.076-9c-.474 0-.9.15-1.348.4-.426.3-.8.65-1.15 1.15-.325.5-.624 1.125-.825 1.85-.2.725-.3 1.55-.3 2.475 0 1.425.476 2.1 1.45 2.1.324 0 .624-.075.874-.225s.5-.375.726-.625c.226-.25.4-.55.55-.875.15-.325.25-.7.3-1.05l.824-4.95c-.325-.148-.7-.25-1.1-.25M170.313 57.183c-1.024 0-1.774-.075-2.325-.225-.55-.15-1.05-.375-1.5-.65-.3-.175-.55-.4-.724-.65-.175-.225-.25-.474-.25-.724 0-.425.1-.8.324-1.1.226-.3.5-.575.875-.825.5.5 1.025.874 1.5 1.1.475.224.95.324 1.5.324.624 0 1.025-.1 1.274-.375.25-.25.374-.55.374-.9s-.174-.725-.573-1.05c-.4-.324-.824-.65-1.3-1.024-.3-.175-.576-.4-.825-.625-.3-.224-.5-.474-.726-.724-.225-.25-.398-.575-.498-.95-.15-.375-.225-.775-.225-1.225 0-.424.075-.874.25-1.35.174-.474.473-.874.874-1.224.4-.375.95-.7 1.6-.95.648-.25 1.45-.375 2.424-.375.3 0 .576.026.902.1.323.076.647.15.974.25.324.1.624.25.9.4.3.15.498.376.7.576.25.325.398.65.398 1.05 0 .375-.15.724-.4 1.024-.3.3-.624.55-1.05.65-.324-.5-.723-.875-1.2-1.124-.475-.25-.948-.375-1.35-.375-.424 0-.8.076-1.05.25-.248.15-.398.425-.398.875 0 .225.075.4.225.625.15.174.325.375.576.574.25.175.5.4.825.625.325.224.65.474.976.724.624.5 1.1 1.05 1.35 1.55s.4 1.1.4 1.7c0 .5-.075.974-.252 1.498-.174.475-.474.9-.822 1.3-.377.375-.877.7-1.45.9-.724.202-1.45.35-2.3.35M184.384 56.26c-.425.324-.9.55-1.424.7-.526.15-1.1.224-1.75.224-1.35 0-2.35-.375-3.024-1.05-.675-.674-.975-1.674-.975-2.898 0-.225 0-.425.026-.65.025-.225.074-.474.1-.724l1.95-11.77c.225-.026.425-.077.65-.077s.398-.024.574-.024c.725 0 1.274.176 1.55.5.3.325.474.8.474 1.3v.324c0 .1-.025.225-.025.325l-.25 1.55h3.5l-.5 2.748h-3.45l-.875 5.224c-.024.175-.075.325-.075.5-.024.15-.024.3-.024.426 0 .95.4 1.374 1.226 1.374.4 0 .774-.1 1.1-.375.3-.25.574-.55.824-.875.476.175.8.426.975.725.176.3.3.575.3.875 0 .25-.074.55-.224.825-.127.322-.327.572-.652.822M91.81 71.205h-1.7l.975-5.95c.176-.023.4-.023.626-.023.226 0 .424.024.576.15.15.124.25.3.324.5.174-.226.425-.4.7-.55.3-.15.624-.25 1.05-.25.4 0 .7.074.948.25.225.174.4.4.5.65.075.25.1.5.1.798 0 .15 0 .3-.024.426 0 .15-.024.3-.074.424l-.576 3.55h-1.7l.576-3.55c0-.1.025-.174.025-.25v-.25c0-.174-.025-.374-.15-.5-.074-.15-.25-.223-.55-.223-.25 0-.5.1-.7.325-.224.225-.324.5-.4.875l-.525 3.598zM100.934 69.305c.424.225.65.475.65.8 0 .174-.026.324-.152.424l-.324.324c-.174.1-.425.25-.725.375-.3.1-.7.174-1.15.174-.475 0-.824-.075-1.15-.225-.323-.15-.548-.326-.772-.55-.175-.227-.325-.5-.4-.8-.074-.3-.1-.626-.1-.95 0-.5.075-1.025.25-1.45.15-.475.4-.875.7-1.2.3-.325.65-.625 1.1-.825.425-.225.898-.3 1.45-.3.3 0 .55.025.8.1.224.075.398.175.575.325.15.15.3.324.374.5s.1.4.1.625c0 .475-.1.825-.325 1.125-.225.3-.476.5-.8.7-.326.2-.65.3-1.05.324-.376.075-.725.075-1.05.075h-.452v.074c0 .175.025.375.1.5.075.15.15.25.25.375.1.1.225.15.326.224.1.025.25.075.373.075.325 0 .65-.076.875-.25.15-.175.374-.35.526-.575m-2.05-1.374c.174 0 .4-.024.574-.074.175-.05.374-.1.55-.175.15-.074.3-.174.4-.324.1-.15.148-.3.148-.475 0-.15-.024-.25-.1-.374-.074-.1-.224-.15-.424-.15-.376 0-.65.15-.9.424-.25.3-.425.65-.55 1.125h.175l.126.026zM106.106 70.98c-.226.15-.425.25-.65.324-.25.075-.5.1-.825.1-.623 0-1.098-.175-1.424-.5-.324-.325-.474-.8-.474-1.35 0-.1 0-.225.024-.324 0-.1.025-.225.025-.325l.9-5.523c.1 0 .226-.025.3-.025h.3c.325 0 .574.075.727.25.15.175.225.375.225.625v.15c0 .05 0 .1-.026.15l-.1.724h1.6l-.226 1.3h-1.6l-.398 2.475c0 .076-.025.15-.025.226v.226c0 .424.174.65.574.65.176 0 .376-.076.5-.176.126-.1.3-.25.4-.4.226.1.375.226.475.326.1.15.15.25.15.4 0 .15-.025.25-.1.4-.074.047-.2.197-.35.297M112.654 71.205h-1.274l-.426-2.5c-.225.425-.474.825-.648 1.275-.226.4-.426.825-.65 1.275h-1.224l-.976-5.8c.325-.1.574-.173.824-.173s.426.075.625.15c.15.1.25.3.3.55l.425 3.274 1.05-2.024-.324-1.775c.175-.075.3-.1.425-.1.1-.025.226-.025.376-.025.25 0 .424.075.573.225.15.15.225.325.25.575l.4 3.05 1.124-2.8c.15-.374.325-.65.5-.8.176-.15.425-.25.775-.25.174 0 .3 0 .398.026s.225.075.325.15l-2.85 5.697zM117.802 71.38c-.424 0-.8-.076-1.124-.226-.3-.15-.55-.325-.725-.55-.175-.225-.324-.5-.4-.8s-.1-.625-.1-.95c0-.5.076-1.024.226-1.45.148-.473.374-.874.623-1.198.3-.325.625-.625 1.025-.825.4-.2.875-.298 1.424-.298.426 0 .8.075 1.1.225.3.15.55.325.726.55.176.225.325.5.4.8s.1.624.1.95c0 .5-.075.974-.175 1.45-.15.474-.325.874-.575 1.224-.25.376-.625.626-1.024.826-.45.2-.95.273-1.502.273m-.65-2.425c0 .4.076.7.226.875.15.175.375.3.574.3.176 0 .376-.076.55-.176.175-.1.325-.3.477-.5.148-.2.224-.475.3-.8.072-.325.1-.7.1-1.125 0-.4-.076-.65-.227-.876-.15-.175-.375-.3-.575-.3-.174 0-.374.075-.55.175-.175.1-.325.3-.475.5-.15.225-.225.474-.324.8-.026.35-.077.726-.077 1.125M125.825 67.155c-.1-.424-.375-.65-.8-.65-.25 0-.475.1-.648.3-.225.226-.326.5-.4.9l-.575 3.475h-1.7l.975-5.948c.176-.025.4-.025.626-.025.5 0 .8.25.9.726.175-.226.398-.4.648-.576.25-.175.55-.25.952-.25.174 0 .374.025.474.075.1.075.225.1.3.225.074.075.1.175.15.3.023.1.023.226.023.3 0 .3-.075.55-.25.725-.125.15-.35.324-.675.423M129.074 67.78c.024-.15.15-.3.3-.474.15-.175.3-.375.426-.55l1.1-1.2c.15-.174.3-.3.425-.374.15-.075.324-.1.5-.1.225 0 .4.025.55.1.148.075.3.175.4.325l-2.15 2.4.975 1.898c.075.15.175.325.326.55.15.225.324.4.55.55-.1.1-.3.226-.5.3-.227.075-.426.15-.7.15-.15 0-.25 0-.4-.025-.1-.025-.226-.075-.324-.15-.1-.075-.175-.15-.3-.25s-.177-.25-.3-.425l-.652-1.275c-.024-.1-.1-.225-.226-.4-.1-.174-.15-.374-.174-.574l-.5 3.024h-1.675l1.5-8.873c.1 0 .224-.025.3-.025h.3c.324 0 .574.076.724.25.15.175.225.375.225.625v.15c0 .05 0 .1-.025.15l-.676 4.224zM136.397 65.23c.1 0 .225-.024.3-.024h.3c.326 0 .575.075.725.25.15.175.226.375.226.625v.15s0 .102-.024.15l-.55 3.3c0 .1-.025.175-.025.3v.3c0 .15 0 .325.023.475.025.15.025.3.1.4-.148.075-.3.15-.424.175-.15.025-.3.025-.427.025-.324 0-.575-.075-.775-.225-.198-.15-.25-.4-.25-.726v-.15c0-.024 0-.1.026-.15l.773-4.873zm1.05-.998c-.25 0-.475-.075-.625-.25-.15-.175-.225-.375-.225-.55 0-.4.1-.65.3-.875.226-.176.426-.3.725-.3.25 0 .476.075.625.25.15.175.225.374.225.55 0 .4-.1.65-.3.874-.2.176-.476.302-.725.302M140.172 71.205h-1.7l.975-5.95c.176-.023.4-.023.626-.023s.424.024.575.15c.15.124.25.3.324.5.174-.226.425-.4.7-.55.3-.15.623-.25 1.05-.25.4 0 .7.074.948.25.225.174.4.4.5.65.075.25.102.5.102.798 0 .15 0 .3-.026.426 0 .15-.024.3-.074.424l-.576 3.55h-1.7l.576-3.55c0-.1.025-.174.025-.25v-.25c0-.174-.025-.374-.15-.5-.074-.15-.25-.223-.55-.223-.25 0-.5.1-.7.325-.224.225-.324.5-.4.875l-.525 3.598zM148.52 70.98c-.225.15-.426.25-.65.324-.25.075-.5.1-.824.1-.626 0-1.1-.175-1.426-.5-.324-.325-.475-.8-.475-1.35 0-.1 0-.225.026-.324 0-.1.025-.225.025-.325l.9-5.523c.1 0 .224-.025.3-.025h.3c.324 0 .574.075.724.25.15.175.225.375.225.625v.15c0 .05 0 .1-.024.15l-.1.724h1.6l-.226 1.3h-1.6l-.4 2.475c0 .076-.023.15-.023.226v.226c0 .424.176.65.576.65.175 0 .374-.076.5-.176.124-.1.3-.25.4-.4.224.1.374.226.474.326.1.15.15.25.15.4 0 .15-.026.25-.1.4-.076.047-.2.197-.35.297M153.643 69.305c.425.225.65.475.65.8 0 .174-.026.324-.15.424l-.324.324c-.177.1-.426.25-.727.375-.3.1-.7.174-1.15.174-.474 0-.824-.075-1.15-.225-.323-.15-.548-.326-.773-.55-.175-.227-.324-.5-.4-.8-.074-.3-.1-.626-.1-.95 0-.5.075-1.025.25-1.45.15-.475.4-.875.7-1.2.3-.325.65-.625 1.1-.825.425-.225.9-.3 1.45-.3.3 0 .55.025.8.1.225.075.398.175.574.325.15.15.3.324.374.5.075.175.1.4.1.625 0 .475-.1.825-.324 1.125-.225.3-.475.5-.8.7-.325.2-.65.3-1.05.324-.375.075-.724.075-1.05.075h-.451v.074c0 .175.024.375.1.5.075.15.15.25.25.375.1.1.226.15.325.224.1.025.25.075.374.075.324 0 .65-.076.875-.25.123-.175.35-.35.523-.575m-2.025-1.374c.175 0 .4-.024.575-.074.175-.05.374-.1.55-.175.15-.074.3-.174.4-.324.1-.15.148-.3.148-.475 0-.15-.023-.25-.1-.374-.073-.1-.224-.15-.424-.15-.375 0-.65.15-.9.424-.25.3-.425.65-.55 1.125h.176l.126.026zM156.767 62.332c.1 0 .226-.025.3-.025h.3c.325 0 .575.075.725.25.15.175.226.375.226.625v.15c0 .05 0 .1-.025.15l-1.024 6.247c0 .1-.025.174-.025.3v.3c0 .15 0 .324.024.474.024.15.024.3.1.4-.15.075-.3.15-.425.175-.15.024-.3.024-.426.024-.325 0-.576-.075-.776-.225-.174-.15-.25-.4-.25-.726v-.15c0-.024 0-.1.026-.15l1.247-7.822zM159.892 62.332c.1 0 .225-.025.3-.025h.3c.324 0 .573.075.726.25.15.175.225.375.225.625v.15c0 .05 0 .1-.025.15l-1.024 6.247c0 .1-.025.174-.025.3v.3c0 .15 0 .324.024.474.024.15.024.3.1.4-.15.075-.3.15-.426.175-.15.024-.3.024-.425.024-.324 0-.575-.075-.774-.225-.175-.15-.25-.4-.25-.726v-.15c0-.024 0-.1.023-.15l1.25-7.822zM162.515 65.23c.1 0 .226-.024.3-.024h.3c.326 0 .575.075.726.25.15.175.226.375.226.625v.15s0 .102-.024.15l-.55 3.3c0 .1-.025.175-.025.3v.3c0 .15 0 .325.024.475.026.15.026.3.102.4-.15.075-.3.15-.425.175-.15.025-.3.025-.425.025-.375 0-.574-.075-.775-.225-.2-.15-.25-.4-.25-.726v-.15c0-.024 0-.1.025-.15l.773-4.873zm1.05-.998c-.25 0-.475-.075-.625-.25-.15-.175-.226-.375-.226-.55 0-.4.1-.65.3-.875.226-.176.426-.3.726-.3.25 0 .475.075.624.25.15.175.225.374.225.55 0 .4-.1.65-.3.874-.175.176-.424.302-.726.302M166.64 74.054c-.4 0-.775-.024-1.05-.1-.3-.075-.55-.225-.775-.4-.1-.1-.226-.175-.25-.3-.025-.124-.075-.224-.1-.324 0-.175.024-.375.148-.55.127-.175.252-.325.426-.425.15.224.374.4.625.55.25.15.573.224.95.224.423 0 .773-.15 1.023-.4.25-.3.426-.7.5-1.2l.075-.5c-.176.225-.426.375-.7.5-.3.1-.55.175-.874.175-.327 0-.627-.075-.876-.175-.225-.1-.4-.25-.55-.475-.15-.175-.25-.425-.3-.725-.075-.3-.1-.575-.1-.9 0-.5.074-1.025.25-1.5.174-.475.398-.9.724-1.274.325-.375.7-.65 1.125-.875.426-.224.9-.324 1.425-.324.374 0 .774.025 1.15.15.4.1.773.25 1.124.475l-.826 5.025c-.174 1.15-.55 2-1.1 2.55-.472.55-1.17.8-2.046.8m2.272-7.575c-.174-.1-.373-.15-.573-.15s-.402.076-.627.175c-.224.1-.398.3-.55.55-.15.225-.3.5-.398.825-.1.325-.15.725-.15 1.125 0 .65.25.975.726.975.15 0 .3-.025.425-.1.125-.075.25-.175.375-.3.1-.1.176-.25.25-.4.075-.15.1-.325.15-.5l.372-2.2zM175.486 69.305c.426.225.65.475.65.8 0 .174-.025.324-.15.424l-.325.324c-.174.1-.424.25-.724.375-.3.1-.7.174-1.15.174-.475 0-.824-.075-1.148-.225-.326-.15-.55-.326-.774-.55-.176-.227-.326-.5-.4-.8-.075-.3-.1-.626-.1-.95 0-.5.074-1.025.25-1.45.15-.475.4-.875.698-1.2.302-.325.65-.625 1.102-.825.424-.225.9-.3 1.448-.3.3 0 .55.025.8.1.226.075.4.175.575.325.15.15.3.324.375.5s.1.4.1.625c0 .475-.1.825-.324 1.125-.225.3-.475.5-.8.7-.324.2-.65.3-1.05.324-.374.075-.725.075-1.05.075h-.451v.074c0 .175.025.375.1.5.075.15.15.25.25.375.102.1.226.15.326.224.1.025.25.075.373.075.326 0 .65-.076.875-.25.152-.175.377-.35.526-.575m-2.048-1.374c.175 0 .4-.024.574-.074.176-.05.376-.1.55-.175.15-.074.3-.174.4-.324.1-.15.148-.3.148-.475 0-.15-.023-.25-.1-.374-.074-.1-.225-.15-.424-.15-.375 0-.65.15-.9.424-.25.3-.425.65-.55 1.125h.175l.128.026zM178.86 71.205h-1.7l.976-5.95c.175-.023.4-.023.625-.023s.425.024.576.15c.15.124.25.3.324.5.175-.226.425-.4.7-.55.3-.15.625-.25 1.05-.25.4 0 .7.074.95.25.224.174.4.4.5.65.074.25.1.5.1.798 0 .15 0 .3-.025.426 0 .15-.024.3-.075.424l-.575 3.55h-1.698l.574-3.55c0-.1.026-.174.026-.25v-.25c0-.174-.025-.374-.15-.5-.076-.15-.25-.223-.55-.223-.25 0-.5.1-.7.325-.225.225-.324.5-.4.875l-.526 3.598zM188.108 67.13c-.1-.3-.25-.474-.4-.574-.15-.1-.4-.174-.65-.174-.225 0-.425.075-.65.225-.173.15-.374.325-.474.575-.15.25-.225.5-.3.825-.074.325-.1.65-.1 1.025 0 .4.1.65.3.825.2.175.4.25.65.25s.5-.075.725-.225c.224-.15.397-.325.548-.55.227.1.4.226.5.325.1.15.176.3.176.425 0 .25-.15.5-.425.774-.152.1-.377.25-.65.375-.302.1-.65.176-1.1.176-.45 0-.825-.075-1.126-.225-.3-.15-.55-.324-.725-.55-.176-.225-.326-.5-.4-.8-.075-.3-.1-.624-.1-.95 0-.5.074-1.023.224-1.448.15-.475.376-.875.65-1.2.274-.325.625-.625 1.05-.825.4-.225.874-.3 1.375-.3.423 0 .774.075 1.048.225.25.15.474.325.575.5.1.175.15.325.15.425 0 .224-.075.4-.226.55-.2.15-.424.25-.65.324M193.407 69.305c.424.225.65.475.65.8 0 .174-.026.324-.152.424l-.324.324c-.173.1-.423.25-.724.375-.3.1-.7.174-1.15.174-.475 0-.823-.075-1.173-.225-.325-.15-.55-.326-.774-.55-.178-.227-.327-.5-.402-.8-.075-.3-.1-.626-.1-.95 0-.5.075-1.025.25-1.45.15-.475.4-.875.7-1.2.3-.325.65-.625 1.1-.825.425-.225.898-.3 1.45-.3.3 0 .55.025.8.1.224.075.4.175.574.325.15.15.3.324.375.5.074.175.1.4.1.625 0 .475-.1.825-.325 1.125-.225.3-.476.5-.8.7-.324.2-.65.3-1.05.324-.375.075-.725.075-1.05.075h-.451v.074c0 .175.026.375.102.5.075.15.15.25.25.375.1.1.225.15.325.224.1.025.25.075.374.075.327 0 .65-.076.876-.25.2-.175.4-.35.55-.575m-1.998-1.374c.174 0 .398-.024.573-.074.176-.05.377-.1.552-.175.15-.074.3-.174.398-.324.102-.15.15-.3.15-.475 0-.15-.024-.25-.1-.374-.075-.1-.225-.15-.425-.15-.375 0-.65.15-.9.424-.248.3-.425.65-.55 1.125h.175l.128.026zM61.37 78.127c-.95 0-1.85-.225-2.575-.65l-10.422-6.023c-1.475-.85-2.575-2.724-2.575-4.424V54.984c0-1.7 1.1-3.6 2.575-4.474l10.422-6.048c1.425-.824 3.698-.824 5.148 0l10.422 6.023c1.5.875 2.574 2.725 2.574 4.474v12.045c0 1.7-1.1 3.6-2.575 4.475l-10.422 5.998c-.725.424-1.625.65-2.574.65m0-30.217c-.3 0-.477.076-.502.1l-10.446 6.024c-.225.1-.5.65-.5.9V66.98c0 .25.3.775.5.9l10.422 6.023c.024.025.226.1.5.1.275 0 .474-.075.5-.1l10.423-6.023c.225-.1.5-.65.5-.9V54.934c0-.25-.326-.8-.5-.9l-10.35-6.023c-.073-.024-.25-.1-.548-.1"/><path d="M74.916 54.685c-.95 0-1.852-.226-2.575-.65L61.92 48.037c-1.5-.875-2.574-2.724-2.574-4.474V31.516c0-1.7 1.1-3.6 2.574-4.474l10.423-6c1.45-.823 3.7-.823 5.15 0l10.422 6.024c1.5.875 2.573 2.725 2.573 4.475v12.047c0 1.7-1.1 3.6-2.573 4.474l-10.422 6c-.725.4-1.625.625-2.574.625m0-30.193c-.3 0-.477.076-.5.1l-10.447 6c-.226.1-.502.65-.502.9v12.046c0 .25.325.8.5.9l10.423 6.022c.025.025.226.1.5.1.3 0 .476-.075.5-.1l10.422-6.023c.226-.1.5-.65.5-.9v-12.02c0-.25-.3-.8-.5-.9l-10.397-6.024c-.025-.025-.2-.1-.5-.1M66.867 66.03c-1.124 0-2.023-.898-2.023-2.023V58.86l-3.425-2-3.45 2v5.147c0 1.125-.9 2.024-2.024 2.024-1.125 0-2.025-.898-2.025-2.023v-5.624c0-1.124.7-2.3 1.676-2.875l4.224-2.424c.975-.574 2.324-.574 3.3 0l4.223 2.424c.975.55 1.625 1.75 1.625 2.875v5.6c-.076 1.123-.976 2.048-2.1 2.048"/><path d="M74.89 45.712c-.574 0-1.175-.15-1.674-.425l-4.224-2.424c-.975-.575-1.625-1.75-1.625-2.874v-4.9c0-1.124.7-2.3 1.625-2.874l4.25-2.425c.973-.55 2.322-.55 3.296 0l4.075 2.325c.975.576 1.3 1.824.774 2.8-.575.975-1.823 1.3-2.8.774l-3.672-2.1-3.424 1.95v3.948l3.425 2 3.773-2.175c.975-.575 2.25-.226 2.798.775.575.975.225 2.25-.774 2.8l-4.175 2.424c-.497.25-1.072.4-1.647.4"/></g></svg>