<svg enable-background="new 0 0 240 100" height="100" viewBox="0 0 240 100" width="240" xmlns="http://www.w3.org/2000/svg"><g fill="#384af4"><path d="m111.13 38.764c.176-.025.4-.075.574-.075.175 0 .376-.026.55-.026.7 0 1.2.175 1.45.5.3.375.4.8.4 1.3v.323c0 .1-.025.226-.025.325l-2.576 15.62h-3.024l-4.797-11.87-1.925 11.87h-3.3l2.95-17.894c.175-.025.425-.075.7-.1.25-.025.55-.075.823-.075.627 0 1.1.15 1.376.424.3.3.575.7.775 1.225l4.074 10.322zm12.597 13.996c.9.475 1.375 1.024 1.375 1.7 0 .374-.101.7-.324.974-.226.25-.424.5-.698.65-.399.25-.899.5-1.524.773-.625.226-1.451.375-2.476.375-.975 0-1.824-.149-2.474-.424s-1.2-.701-1.6-1.201-.7-1.049-.876-1.699c-.174-.65-.25-1.301-.25-2 0-1.1.175-2.15.5-3.124.325-.975.825-1.85 1.45-2.575.625-.726 1.375-1.3 2.324-1.75.9-.426 1.951-.65 3.125-.65.623 0 1.201.1 1.675.25.476.174.899.424 1.226.724.326.3.574.65.775 1.1.176.4.25.874.25 1.35 0 1.024-.225 1.824-.65 2.423-.424.625-1.023 1.1-1.699 1.449-.699.375-1.424.576-2.224.726-.8.101-1.55.175-2.3.175h-.55c-.15 0-.3 0-.425-.025v.15c0 .4.075.773.225 1.1.15.301.3.551.5.775.226.176.425.325.7.426.25.1.5.149.775.149.725 0 1.35-.177 1.9-.5.475-.498.925-.897 1.275-1.322m-4.327-3.024c.4 0 .824-.025 1.226-.15.398-.076.799-.226 1.124-.4.324-.175.626-.425.824-.7.226-.3.323-.625.323-.975 0-.3-.073-.574-.25-.8-.172-.224-.5-.324-.947-.324-.773 0-1.425.3-1.95.9-.55.625-.898 1.425-1.124 2.424.15 0 .3.025.4.025zm15.368 6.525c-.426.324-.9.551-1.426.7-.523.149-1.1.224-1.75.224-1.35 0-2.35-.375-3.022-1.05-.65-.7-.976-1.674-.976-2.897 0-.226 0-.426.025-.65.023-.225.075-.475.1-.725l1.95-11.77c.224-.026.423-.077.648-.077s.399-.024.575-.024c.724 0 1.273.176 1.55.5.325.375.475.8.475 1.3v.324c0 .1-.024.225-.024.325l-.252 1.55h3.451l-.477 2.748h-3.45l-.874 5.224c-.023.175-.074.325-.074.5-.024.149-.024.3-.024.427 0 .949.397 1.373 1.224 1.373.4 0 .773-.1 1.1-.375.301-.25.576-.55.824-.875.477.176.801.426.976.725.176.301.3.576.3.875 0 .25-.073.551-.225.826-.049.321-.301.571-.627.821m15.023-4.424c.4.3.727.625.95.95.226.324.325.625.325.9 0 .5-.148.949-.4 1.273-.3.374-.65.7-1.15.975-.55.324-1.197.649-1.996.875-.801.25-1.701.373-2.648.373-1.15 0-2.15-.175-2.977-.574-.823-.377-1.523-.9-2.073-1.551-.55-.649-.948-1.449-1.2-2.35-.25-.9-.398-1.924-.398-3.024 0-1.3.174-2.625.551-3.95.373-1.323.949-2.548 1.699-3.623.772-1.1 1.698-1.95 2.897-2.65 1.149-.7 2.576-1.023 4.176-1.023 1.2 0 2.175.225 2.95.65.773.424 1.35.95 1.748 1.5.1.174.225.4.25.624.025.225.074.4.074.625 0 .5-.176.95-.5 1.3-.323.374-.801.574-1.45.724-.323-.775-.726-1.35-1.272-1.775-.5-.426-1.227-.65-2.175-.65-.725 0-1.424.174-2.073.574-.625.375-1.199.95-1.625 1.674-.476.725-.824 1.625-1.123 2.725-.303 1.1-.4 2.325-.4 3.75 0 .574.074 1.124.225 1.6.15.5.375.95.624 1.301.302.373.626.647 1.025.873s.874.325 1.375.325c.5 0 1.024-.075 1.45-.225.424-.15.875-.325 1.224-.55.401-.226.728-.476 1.05-.774.324-.303.624-.578.873-.878m10.167 3.53c-.399.549-.899.975-1.45 1.301-.574.324-1.224.5-2.022.5-.726 0-1.351-.1-1.824-.376-.478-.25-.826-.575-1.126-.976-.3-.426-.477-.949-.575-1.524-.1-.575-.175-1.226-.175-1.925 0-1.125.174-2.174.498-3.225.376-1.05.826-1.95 1.5-2.75.65-.8 1.45-1.45 2.35-1.95s1.924-.724 3.051-.724c.724 0 1.5.1 2.35.325s1.674.575 2.424 1.024l-1.375 8.474c-.025.25-.074.575-.074.875 0 .399.024.8.1 1.2.074.399.15.773.3 1.05-.3.174-.624.3-.974.374-.326.074-.7.1-1.025.1-.574 0-1.023-.15-1.373-.425-.33-.25-.529-.726-.58-1.351m.073-8.998c-.475 0-.9.15-1.348.4-.426.3-.801.65-1.15 1.15-.325.5-.624 1.125-.825 1.85-.2.725-.3 1.551-.3 2.475 0 1.426.477 2.101 1.45 2.101.323 0 .624-.075.874-.226.25-.149.5-.375.726-.625s.4-.549.55-.875c.15-.324.25-.699.301-1.049l.824-4.951c-.327-.148-.702-.25-1.102-.25m10.273 10.826c-1.023 0-1.773-.076-2.324-.226s-1.051-.375-1.5-.649c-.301-.176-.551-.4-.725-.65-.175-.225-.25-.475-.25-.725 0-.425.101-.8.324-1.1.227-.3.5-.575.875-.825.5.5 1.025.874 1.5 1.101.475.224.95.324 1.5.324.624 0 1.025-.101 1.273-.375.25-.25.375-.551.375-.9s-.174-.725-.573-1.051c-.399-.323-.824-.649-1.3-1.023-.301-.175-.576-.4-.825-.625-.3-.224-.5-.474-.726-.724s-.398-.575-.498-.95c-.15-.375-.226-.775-.226-1.225 0-.424.075-.874.25-1.35.175-.474.474-.874.874-1.224.4-.375.95-.7 1.6-.95.648-.25 1.451-.375 2.424-.375.301 0 .576.026.902.1.323.076.647.15.975.25.324.1.623.25.9.4.299.15.497.376.699.576.25.325.398.65.398 1.05 0 .375-.15.724-.4 1.024-.3.3-.624.55-1.05.65-.324-.5-.724-.875-1.2-1.124-.475-.25-.947-.375-1.35-.375-.424 0-.801.076-1.051.25-.248.15-.397.425-.397.875 0 .225.075.4.226.625.149.174.324.375.575.574.25.175.5.4.825.625.324.224.65.474.977.724.623.5 1.1 1.051 1.35 1.551s.4 1.1.4 1.699c0 .5-.076.975-.252 1.498-.175.475-.475.9-.822 1.301-.377.375-.877.699-1.45.899-.724.202-1.45.351-2.3.351m14.069-.925c-.425.324-.899.551-1.424.7-.526.149-1.101.224-1.75.224-1.351 0-2.351-.375-3.024-1.05-.675-.674-.975-1.674-.975-2.897 0-.226 0-.426.025-.65s.074-.475.101-.725l1.95-11.77c.225-.026.425-.077.65-.077s.397-.024.573-.024c.726 0 1.274.176 1.55.5.301.325.475.8.475 1.3v.324c0 .1-.025.225-.025.325l-.25 1.55h3.5l-.5 2.748h-3.449l-.875 5.224c-.024.175-.076.325-.076.5-.023.149-.023.3-.023.427 0 .949.4 1.373 1.227 1.373.399 0 .773-.1 1.1-.375.3-.25.574-.55.824-.875.476.176.8.426.975.725.176.301.301.576.301.875 0 .25-.074.551-.225.826-.129.321-.329.571-.655.822m-92.574 14.945h-1.7l.975-5.95c.176-.022.4-.022.626-.022s.424.023.576.149c.15.124.25.3.324.5.174-.226.425-.399.7-.55.3-.15.624-.25 1.05-.25.4 0 .7.074.948.25.225.174.4.4.5.65.075.25.1.5.1.798 0 .149 0 .3-.024.426 0 .149-.024.3-.074.424l-.576 3.55h-1.7l.576-3.55c0-.1.025-.174.025-.25v-.25c0-.174-.025-.374-.15-.5-.074-.149-.25-.223-.55-.223-.25 0-.5.1-.7.325-.224.225-.324.5-.4.875zm9.124-1.9c.424.226.65.476.65.801 0 .174-.026.324-.152.424l-.324.324c-.174.1-.425.25-.725.375-.3.1-.7.174-1.15.174-.475 0-.824-.075-1.15-.226-.323-.149-.548-.325-.772-.55-.175-.227-.325-.5-.4-.8-.074-.3-.1-.626-.1-.95 0-.5.075-1.025.25-1.45.15-.475.4-.875.7-1.2.3-.324.65-.625 1.1-.824.425-.226.898-.301 1.45-.301.3 0 .55.025.8.101.224.075.398.175.575.325.15.149.3.324.374.5s.1.399.1.625c0 .475-.1.824-.325 1.125-.225.3-.476.5-.8.699-.326.2-.65.301-1.05.324-.376.075-.725.075-1.05.075h-.452v.074c0 .175.025.375.1.5.075.149.15.25.25.375.1.1.225.149.326.224.1.025.25.075.373.075.325 0 .65-.076.875-.25.15-.175.374-.351.526-.575m-2.05-1.374c.174 0 .4-.024.574-.073.175-.051.374-.101.55-.176.15-.074.3-.174.4-.324.1-.149.148-.3.148-.475 0-.15-.024-.25-.1-.374-.074-.101-.224-.149-.424-.149-.376 0-.65.149-.9.424-.25.3-.425.649-.55 1.125h.175l.126.025zm7.223 3.055c-.226.149-.425.25-.65.324-.25.074-.5.1-.825.1-.623 0-1.098-.176-1.424-.5-.324-.325-.474-.801-.474-1.35 0-.101 0-.226.024-.324 0-.101.025-.226.025-.325l.9-5.523c.1 0 .226-.024.3-.024h.3c.325 0 .574.074.727.25.15.175.225.375.225.625v.149c0 .05 0 .101-.026.15l-.1.724h1.6l-.226 1.301h-1.6l-.398 2.475c0 .076-.025.15-.025.226v.226c0 .425.174.65.574.65.176 0 .376-.076.5-.176.126-.1.3-.25.4-.4.226.101.375.227.475.326.1.15.15.25.15.4s-.025.25-.1.4c-.074.047-.2.196-.35.297m6.546.224h-1.274l-.426-2.5c-.225.425-.474.825-.648 1.275-.226.399-.426.824-.65 1.274h-1.224l-.976-5.8c.325-.1.574-.173.824-.173s.426.075.625.149c.15.101.25.301.3.551l.425 3.273 1.05-2.023-.324-1.775c.175-.075.3-.1.425-.1.1-.025.226-.025.376-.025.25 0 .424.075.573.225.15.15.225.325.25.575l.4 3.05 1.124-2.8c.15-.374.325-.649.5-.8.176-.15.425-.25.775-.25.174 0 .3 0 .398.025.098.026.225.076.325.15l-2.85 5.697h.002zm5.148.175c-.424 0-.8-.075-1.124-.226-.3-.15-.55-.325-.725-.551-.175-.225-.324-.5-.4-.799-.076-.301-.1-.625-.1-.951 0-.5.076-1.023.226-1.449.148-.473.374-.874.623-1.198.3-.325.625-.625 1.025-.825.4-.199.875-.298 1.424-.298.426 0 .8.075 1.1.226.3.149.55.324.726.549.176.226.325.5.399.801.075.3.101.624.101.949 0 .5-.075.975-.175 1.451-.15.474-.325.873-.575 1.224-.25.376-.625.626-1.024.825-.45.201-.95.273-1.501.272m-.651-2.424c0 .399.076.7.226.875s.375.3.574.3c.176 0 .376-.076.55-.176.175-.1.325-.3.477-.5.148-.2.224-.475.3-.8.072-.325.1-.7.1-1.125 0-.4-.076-.65-.227-.876-.15-.176-.375-.301-.575-.301-.174 0-.374.076-.55.176-.175.1-.325.3-.475.5-.15.225-.225.474-.324.8-.026.351-.077.726-.077 1.125m8.675-1.799c-.101-.425-.375-.65-.8-.65-.25 0-.476.101-.648.3-.225.227-.326.5-.4.9l-.574 3.475h-1.7l.975-5.947c.177-.025.4-.025.626-.025.5 0 .801.25.9.727.175-.227.398-.4.648-.576s.549-.25.951-.25c.174 0 .374.024.475.074.1.075.225.101.3.226.073.075.1.175.149.3.023.1.023.227.023.3 0 .3-.075.55-.25.726-.125.147-.35.322-.675.42m3.249.625c.023-.15.15-.3.3-.474.149-.176.3-.375.426-.551l1.101-1.199c.149-.175.3-.301.425-.375.149-.074.323-.1.5-.1.225 0 .399.025.55.1.148.075.3.176.4.325l-2.15 2.4.975 1.897c.075.15.176.325.326.551.15.225.324.399.551.55-.101.1-.301.226-.5.3-.228.075-.427.15-.701.15-.149 0-.25 0-.399-.025-.101-.025-.226-.075-.323-.15-.101-.074-.176-.149-.301-.25-.125-.1-.177-.25-.3-.425l-.654-1.274c-.024-.101-.1-.226-.226-.4-.1-.174-.15-.374-.174-.574l-.5 3.024h-1.676l1.5-8.873c.101 0 .225-.025.301-.025h.3c.323 0 .573.076.724.25.15.175.225.375.225.625v.15c0 .05 0 .1-.024.149zm7.322-2.55c.101 0 .226-.024.301-.024h.3c.326 0 .575.075.726.25.149.175.226.375.226.625v.149s0 .103-.024.15l-.55 3.301c0 .1-.024.174-.024.299v.301c0 .15 0 .324.022.475.024.15.024.301.101.4-.148.074-.301.15-.425.175-.149.024-.3.024-.427.024-.324 0-.575-.074-.775-.225-.197-.15-.25-.4-.25-.726v-.15c0-.024 0-.1.026-.149l.772-4.873zm1.051-.998c-.25 0-.475-.075-.625-.25-.15-.176-.225-.375-.225-.551 0-.399.1-.649.299-.875.227-.176.427-.3.726-.3.25 0 .476.075.625.25s.226.374.226.55c0 .4-.101.65-.301.875-.199.176-.477.301-.725.301m2.725 6.973h-1.699l.975-5.95c.176-.022.4-.022.626-.022s.424.023.575.149c.149.124.25.3.324.5.174-.226.424-.399.699-.55.301-.15.623-.25 1.051-.25.399 0 .699.074.947.25.225.174.4.4.5.65.075.25.102.5.102.798 0 .149 0 .3-.025.426 0 .149-.023.3-.074.424l-.576 3.55h-1.699l.576-3.55c0-.1.024-.174.024-.25v-.25c0-.174-.024-.374-.149-.5-.074-.149-.25-.223-.551-.223-.25 0-.5.1-.699.325-.225.225-.324.5-.4.875zm8.348-.225c-.225.149-.426.25-.649.324-.25.074-.5.1-.824.1-.626 0-1.101-.176-1.426-.5-.324-.325-.476-.801-.476-1.35 0-.101 0-.226.026-.324 0-.101.024-.226.024-.325l.9-5.523c.1 0 .225-.024.301-.024h.299c.324 0 .574.074.725.25.15.175.225.375.225.625v.149c0 .05 0 .101-.023.15l-.1.724h1.6l-.227 1.301h-1.6l-.4 2.475c0 .076-.022.15-.022.226v.226c0 .425.176.65.576.65.175 0 .374-.076.5-.176.124-.1.3-.25.399-.4.225.101.375.227.475.326.1.15.15.25.15.4s-.027.25-.101.4c-.076.047-.2.196-.351.297m5.122-1.676c.426.226.65.476.65.801 0 .174-.025.324-.15.424l-.324.324c-.176.1-.426.25-.727.375-.3.1-.699.174-1.15.174-.474 0-.823-.075-1.149-.226-.323-.149-.548-.325-.772-.55-.176-.227-.324-.5-.4-.8-.074-.3-.1-.626-.1-.95 0-.5.074-1.025.25-1.45.149-.475.399-.875.699-1.2.301-.324.65-.625 1.1-.824.426-.226.9-.301 1.451-.301.299 0 .549.025.799.101.226.075.398.175.574.325.15.149.301.324.375.5.074.175.1.399.1.625 0 .475-.1.824-.324 1.125-.225.3-.475.5-.8.699-.325.2-.65.301-1.05.324-.375.075-.725.075-1.051.075h-.451v.074c0 .175.024.375.101.5.075.149.149.25.25.375.101.1.226.149.325.224.1.025.25.075.374.075.323 0 .649-.076.875-.25.123-.175.35-.351.522-.575m-2.026-1.374c.175 0 .399-.024.575-.073.175-.051.373-.101.55-.176.149-.074.3-.174.399-.324.101-.149.148-.3.148-.475 0-.15-.023-.25-.1-.374-.074-.101-.225-.149-.424-.149-.375 0-.65.149-.9.424-.25.3-.426.649-.551 1.125h.176l.127.025zm5.154-5.593c.1 0 .226-.025.299-.025h.301c.324 0 .574.075.725.25.15.176.227.375.227.625v.15c0 .05 0 .1-.025.15l-1.023 6.246c0 .101-.025.174-.025.301v.3c0 .149 0 .323.023.474.024.15.024.301.101.4-.15.074-.3.15-.425.175-.15.024-.301.024-.426.024-.326 0-.576-.075-.776-.226-.175-.149-.25-.399-.25-.726v-.15c0-.023 0-.1.026-.15l1.246-7.821zm3.125 0c.1 0 .225-.025.299-.025h.301c.324 0 .572.075.726.25.15.176.226.375.226.625v.15c0 .05 0 .1-.025.15l-1.023 6.246c0 .101-.025.174-.025.301v.3c0 .149 0 .323.023.474.024.15.024.301.101.4-.15.074-.3.15-.427.175-.149.024-.299.024-.424.024-.324 0-.576-.075-.774-.226-.175-.149-.25-.399-.25-.726v-.15c0-.023 0-.1.022-.15l1.25-7.821zm2.623 2.898c.1 0 .226-.024.299-.024h.301c.326 0 .574.075.726.25.15.175.226.375.226.625v.149s0 .103-.023.15l-.55 3.301c0 .1-.025.174-.025.299v.301c0 .15 0 .324.024.475.025.15.025.301.102.4-.15.074-.3.15-.425.175-.149.024-.3.024-.425.024-.375 0-.574-.074-.775-.225-.199-.15-.25-.4-.25-.726v-.15c0-.024 0-.1.025-.149l.773-4.873zm1.048-.998c-.25 0-.475-.075-.625-.25-.149-.176-.226-.375-.226-.551 0-.399.101-.649.3-.875.227-.176.426-.3.727-.3.25 0 .475.075.624.25s.225.374.225.55c0 .4-.1.65-.3.875-.175.176-.424.301-.727.301m3.079 9.823c-.4 0-.775-.024-1.051-.101-.3-.075-.55-.226-.775-.399-.1-.101-.226-.176-.25-.301-.024-.124-.074-.224-.1-.324 0-.175.024-.375.148-.55.127-.175.252-.325.426-.425.15.225.374.4.625.55.25.15.572.224.949.224.424 0 .773-.149 1.023-.399.25-.3.426-.7.5-1.2l.075-.5c-.176.225-.426.375-.7.5-.3.1-.55.176-.873.176-.328 0-.628-.076-.877-.176-.225-.1-.4-.25-.55-.475-.149-.176-.25-.426-.3-.725-.075-.301-.1-.576-.1-.9 0-.5.073-1.025.25-1.5.174-.475.397-.9.724-1.274.325-.375.7-.649 1.125-.875.426-.224.899-.323 1.425-.323.374 0 .773.024 1.15.149.399.101.772.25 1.123.476l-.825 5.024c-.175 1.149-.55 2-1.101 2.55-.472.551-1.17.801-2.046.801m2.274-7.578c-.174-.1-.373-.149-.573-.149s-.401.076-.627.175c-.224.1-.397.301-.55.551-.15.225-.301.5-.398.824-.1.325-.15.725-.15 1.125 0 .65.25.975.727.975.15 0 .3-.024.425-.1.125-.074.25-.175.375-.3.101-.101.177-.25.25-.399.075-.15.101-.326.15-.5zm6.576 2.825c.426.226.649.476.649.801 0 .174-.024.324-.149.424l-.325.324c-.175.1-.425.25-.724.375-.301.1-.701.174-1.15.174-.475 0-.824-.075-1.148-.226-.326-.149-.55-.325-.773-.55-.176-.227-.326-.5-.4-.8s-.1-.626-.1-.95c0-.5.074-1.025.25-1.45.15-.475.4-.875.697-1.2.303-.324.65-.625 1.103-.824.424-.226.899-.301 1.448-.301.3 0 .55.025.8.101.226.075.399.175.575.325.15.149.3.324.375.5.074.176.1.399.1.625 0 .475-.1.824-.324 1.125-.225.3-.475.5-.8.699-.323.2-.649.301-1.05.324-.374.075-.725.075-1.05.075h-.451v.074c0 .175.024.375.101.5.074.149.149.25.25.375.102.1.226.149.325.224.101.025.25.075.373.075.326 0 .649-.076.875-.25.152-.175.377-.351.526-.575m-2.05-1.374c.176 0 .4-.024.574-.073.176-.051.377-.101.551-.176.149-.074.3-.174.399-.324.101-.149.147-.3.147-.475 0-.15-.022-.25-.1-.374-.074-.101-.225-.149-.424-.149-.375 0-.65.149-.9.424-.25.3-.424.649-.549 1.125h.174l.129.025zm5.42 3.28h-1.699l.976-5.95c.175-.022.4-.022.625-.022.226 0 .425.023.576.149.149.124.25.3.324.5.175-.226.425-.399.7-.55.3-.15.625-.25 1.05-.25.399 0 .7.074.95.25.224.174.399.4.5.65.074.25.1.5.1.798 0 .149 0 .3-.025.426 0 .149-.023.3-.074.424l-.575 3.55h-1.698l.574-3.55c0-.1.025-.174.025-.25v-.25c0-.174-.024-.374-.149-.5-.076-.149-.25-.223-.55-.223-.25 0-.5.1-.7.325-.226.225-.324.5-.399.875l-.526 3.598zm9.248-4.075c-.1-.3-.25-.474-.399-.573-.149-.101-.399-.175-.649-.175-.226 0-.426.075-.65.226-.174.149-.374.324-.475.574-.149.25-.225.5-.3.825-.073.325-.1.65-.1 1.025 0 .399.1.649.3.825.2.175.4.25.65.25s.5-.075.725-.226c.225-.149.396-.325.548-.55.228.1.4.227.5.325.101.149.177.3.177.425 0 .25-.15.5-.426.773-.152.101-.377.25-.65.375-.301.101-.649.177-1.1.177-.449 0-.824-.075-1.126-.226-.3-.149-.55-.324-.725-.55-.177-.225-.326-.5-.4-.8-.075-.3-.1-.624-.1-.95 0-.5.073-1.022.224-1.448.15-.475.376-.875.65-1.199.273-.325.625-.625 1.05-.825.399-.226.874-.3 1.375-.3.423 0 .774.074 1.048.225.25.15.475.325.575.5s.149.325.149.425c0 .224-.074.4-.226.55-.2.15-.424.25-.649.324m5.304 2.173c.424.226.649.476.649.801 0 .174-.025.324-.152.424l-.323.324c-.173.1-.423.25-.724.375-.301.1-.7.174-1.15.174-.475 0-.823-.075-1.173-.226-.325-.149-.55-.325-.774-.55-.178-.227-.326-.5-.402-.8-.074-.3-.1-.626-.1-.95 0-.5.075-1.025.25-1.45.15-.475.4-.875.7-1.2.3-.324.649-.625 1.101-.824.424-.226.897-.301 1.449-.301.301 0 .551.025.801.101.224.075.399.175.573.325.15.149.3.324.375.5.074.175.101.399.101.625 0 .475-.101.824-.325 1.125-.226.3-.476.5-.8.699-.324.2-.65.301-1.051.324-.375.075-.725.075-1.05.075h-.45v.074c0 .175.025.375.102.5.074.149.15.25.25.375.1.1.225.149.324.224.101.025.25.075.375.075.326 0 .649-.076.875-.25.201-.175.4-.351.551-.575m-1.999-1.374c.174 0 .398-.024.572-.073.177-.051.377-.101.553-.176.15-.074.3-.174.398-.324.102-.149.149-.3.149-.475 0-.15-.024-.25-.101-.374-.074-.101-.225-.149-.424-.149-.375 0-.65.149-.9.424-.248.3-.426.649-.551 1.125h.176l.128.025zm-130.04 10.202c-.95 0-1.85-.225-2.575-.65l-10.422-6.022c-1.475-.851-2.575-2.724-2.575-4.424v-12.047c0-1.7 1.1-3.601 2.575-4.475l10.422-6.048c1.425-.824 3.698-.824 5.148 0l10.422 6.023c1.5.875 2.574 2.725 2.574 4.474v12.045c0 1.7-1.1 3.6-2.575 4.475l-10.422 5.998c-.725.424-1.625.65-2.574.65m0-30.216c-.3 0-.477.076-.502.1l-10.446 6.024c-.225.1-.5.649-.5.899v12.047c0 .25.3.774.5.899l10.422 6.022c.024.025.226.101.5.101.275 0 .474-.075.5-.101l10.423-6.022c.225-.1.5-.649.5-.899v-12.046c0-.25-.326-.8-.5-.899l-10.35-6.023c-.073-.025-.25-.101-.547-.102"/><path d="m74.916 54.686c-.95 0-1.852-.227-2.575-.65l-10.421-5.999c-1.5-.875-2.574-2.724-2.574-4.474v-12.047c0-1.7 1.1-3.6 2.574-4.474l10.423-6c1.45-.823 3.7-.823 5.15 0l10.422 6.024c1.5.875 2.573 2.725 2.573 4.475v12.047c0 1.7-1.1 3.6-2.573 4.474l-10.422 6c-.725.399-1.625.625-2.574.625m0-30.193c-.3 0-.477.076-.5.1l-10.447 6c-.226.1-.502.65-.502.9v12.046c0 .25.325.8.5.9l10.423 6.022c.025.025.226.101.5.101.3 0 .476-.076.5-.101l10.422-6.023c.226-.1.5-.65.5-.9v-12.02c0-.25-.3-.8-.5-.9l-10.397-6.024c-.025-.025-.2-.1-.499-.101m-8.052 41.536c-1.124 0-2.023-.898-2.023-2.023v-5.147l-3.425-2-3.45 2v5.147c0 1.125-.9 2.024-2.024 2.024-1.125 0-2.025-.898-2.025-2.023v-5.624c0-1.124.7-2.3 1.676-2.875l4.224-2.424c.975-.574 2.324-.574 3.3 0l4.223 2.424c.975.55 1.625 1.75 1.625 2.875v5.601c-.076 1.123-.976 2.048-2.1 2.048"/><path d="m74.89 45.712c-.574 0-1.175-.15-1.674-.425l-4.224-2.424c-.975-.575-1.625-1.75-1.625-2.874v-4.9c0-1.124.7-2.3 1.625-2.874l4.25-2.425c.973-.55 2.322-.55 3.296 0l4.075 2.325c.975.576 1.3 1.824.774 2.8-.575.975-1.823 1.3-2.8.774l-3.672-2.1-3.424 1.95v3.948l3.425 2 3.773-2.175c.975-.575 2.25-.226 2.798.775.575.975.225 2.25-.774 2.8l-4.175 2.424c-.497.25-1.072.4-1.648.401"/></g></svg>