<svg enable-background="new 0 0 907.1 400" viewBox="0 0 907.1 400" xmlns="http://www.w3.org/2000/svg"><g fill="#384af4" transform="translate(-47.75 -318.548)"><path d="m747.3 463.5h-22.7c-1.4 0-2.5 1.1-2.5 2.5v104.1c0 1.4 1.1 2.5 2.5 2.5h22.7c1.4 0 2.5-1.1 2.5-2.5v-104.2c0-1.3-1.1-2.5-2.5-2.4.1-.1 0-.1 0 0"/><path d="m925.4 557.6h-4.3c-.1 0-.1 0-.2 0-.8 0-1.5-.7-1.5-1.5s.7-1.5 1.5-1.5h.2 11.7c.7.1 1.3.7 1.3 1.4s-.6 1.4-1.3 1.4h-4.3v13.6c0 .9-.7 1.6-1.6 1.6s-1.6-.7-1.6-1.6z"/><path d="m937.4 556.2c0-.1 0-.1 0 0 0-.9.7-1.6 1.6-1.6h.3c.6 0 1.1.3 1.4.8l5.4 8.5 5.4-8.5c.3-.5.8-.8 1.4-.8h.3c.9 0 1.6.7 1.6 1.6v14.8c0 .8-.7 1.5-1.5 1.5-.8 0-1.5-.7-1.5-1.5v-10.6l-4.3 6.5c-.2.5-.7.8-1.3.8s-1.1-.3-1.3-.8l-4.3-6.4v10.5c-.1.8-.7 1.4-1.5 1.4s-1.4-.6-1.5-1.4v-14.8z"/><path d="m313.6 463.5h-19.3c-2.3 0-4.2 1.9-4.2 4.2v70.7c0 7.5-10.4 9.9-23.2 9.9h-28.6c-12.8 0-23.2-2.4-23.2-9.9v-70.8c0-2.3-1.9-4.2-4.2-4.2h-19.3c-2.3 0-4.2 1.9-4.2 4.2v72.4c0 12.5 5.4 20.3 15.8 26.6 10.3 6.3 34.4 5.9 41.6 5.9h15.6c7.2 0 31.3.3 41.6-5.9s15.8-14.1 15.8-26.6 0-72.4 0-72.4c0-2.3-1.9-4.2-4.2-4.1"/><path d="m879 464.2c.5-.5 1.1-.7 1.8-.7h31.6c1.4 0 2.6 1.2 2.6 2.6 0 .8-.4 1.5-1 2l-46.4 40.4c-.5.5-1.1.7-1.8.7s-1.4-.3-1.9-.8l-15.8-13.7c-.4-.5-.6-1.1-.7-1.7 0-.8.3-1.5.9-1.9z"/><path d="m879 571.8c.5.5 1.1.7 1.8.7h31.6c1.4 0 2.5-1.1 2.5-2.5 0-.8-.4-1.5-1-2l-46.4-40.4c-.5-.5-1.1-.7-1.8-.7s-1.4.3-1.9.8l-15.8 13.7c-.4.5-.7 1.1-.7 1.7 0 .8.3 1.5.9 2z"/><path d="m794.7 571.8c-.5.4-1.1.6-1.7.7h-31.7c-1.4 0-2.5-1.2-2.5-2.6 0-.7.3-1.3.7-1.8l55.4-48.2c.6-.5.9-1.2.9-1.9s-.3-1.4-.8-1.9l-55.4-48.2c-.6-.5-.9-1.2-.9-1.9 0-1.4 1.2-2.6 2.6-2.6h31.7c.6 0 1.2.2 1.7.7l59.7 51.9c.6.5.9 1.2.9 1.9s-.3 1.4-.9 1.9z"/><path d="m400.4 490.3c0-1.4 1.1-2.6 2.5-2.6h39.2c2.3 0 4.2-1.9 4.2-4.2v-15.9c0-2.3-1.9-4.2-4.2-4.2h-111.2c-2.3 0-4.2 1.9-4.2 4.2v15.9c0 2.3 1.9 4.2 4.2 4.2h39.2c1.4 0 2.6 1.2 2.6 2.6v78.1c0 2.3 1.9 4.2 4.2 4.2h19.2c2.3 0 4.2-1.9 4.2-4.2z"/><path d="m147.8 531.2c.3.3.8.5 1.3.5.9 0 1.7-.8 1.7-1.7v-62.4c0-2.3 1.9-4.2 4.2-4.2h19.3c2.3 0 4.2 1.9 4.2 4.2v90.2c0 9.2-3.6 13.2-7.1 14.8s-14.2.9-20.6-4.6-68.9-60.1-68.9-60.1-3.7-3.2-4-3.4-.6-.3-.9-.3c-.8 0-1.5.7-1.5 1.5v62.6c0 2.3-1.9 4.2-4.2 4.2h-19.4c-2.3 0-4.2-1.9-4.2-4.1v-90.2c0-9.2 3.6-13.2 7.1-14.8s14.2-.9 20.6 4.6l69 60.1z"/><path d="m682.5 531.2c.3.3.8.5 1.3.5.9 0 1.7-.8 1.7-1.7v-62.4c0-2.3 1.9-4.2 4.2-4.2h19.3c2.3 0 4.2 1.9 4.2 4.2v90.2c0 9.2-3.6 13.2-7.1 14.8s-14.2.9-20.6-4.6l-69-60.1s-3.7-3.2-3.9-3.4-.5-.4-.8-.4c-.8 0-1.5.7-1.5 1.5v62.6c0 2.3-1.9 4.2-4.2 4.2h-19.3c-2.2 0-4.1-1.8-4.2-4v-90.2c0-9.2 3.6-13.2 7.1-14.8s14.2-.9 20.6 4.6l69 60.1z"/><path d="m749.8 467.6c0-2.3-1.9-4.2-4.2-4.2h-19.3c-2.3 0-4.2 1.9-4.2 4.2v100.7c0 2.3 1.9 4.2 4.2 4.2h19.3c2.3 0 4.2-1.9 4.2-4.2z"/><path d="m505.5 520h-28.2c-.8 0-1.5-.7-1.5-1.5 0-.4.2-.8.4-1.1l13.9-20.1c.1-.1.2-.2.3-.3.1 0 .2-.2.3-.2.2-.1.4-.1.6-.2h.3c.2 0 .4.1.6.2.1 0 .2.2.3.2l.3.3 13.9 20c.3.3.5.7.5 1.1-.2.9-.9 1.6-1.7 1.6m67.4 48.4-68.2-98.4c-3-4.4-8-7-13.4-7-5.3 0-10.3 2.6-13.3 6.9l-68.2 98.5c-.4.5-.6 1.1-.6 1.7 0 1.4 1.1 2.5 2.5 2.5h24.9c.9 0 1.8-.5 2.2-1.3l17.6-25.5c.4-.9 1.3-1.4 2.3-1.4h65c1 0 1.9.6 2.3 1.4l17.6 25.5c.5.8 1.3 1.3 2.2 1.3h24.9c1.4 0 2.5-1.1 2.6-2.5.2-.6 0-1.2-.4-1.7"/></g></svg>