<svg enable-background="new 0 0 907.09 1275.59" height="1275.59" viewBox="0 0 907.09 1275.59" width="907.09" xmlns="http://www.w3.org/2000/svg"><g fill="#384af4" transform="translate(-47.75 -318.548)"><path d="m747.343 901.261h-22.66c-.005 0-.012 0-.017 0-1.364 0-2.488 1.124-2.488 2.487v104.13c0 1.363 1.124 2.487 2.488 2.487h.017 22.66.018c1.363 0 2.487-1.124 2.487-2.487v-104.163c0-1.364-1.124-2.488-2.487-2.488-.006 0-.013 0-.018 0"/><path d="m925.41 995.371h-4.281c-.053.005-.105.009-.158.009-.797 0-1.455-.656-1.455-1.455s.658-1.456 1.455-1.456c.053 0 .105.004.158.009h11.744c.734.079 1.299.707 1.299 1.447 0 .739-.564 1.367-1.299 1.446h-4.315v13.387c0 .863-.711 1.573-1.573 1.573-.863 0-1.574-.71-1.574-1.573v-13.387z"/><path d="m937.442 993.95c0-.006 0-.013 0-.018 0-.854.702-1.557 1.558-1.557h.017.321c.594.01 1.141.332 1.438.846l5.365 8.462 5.381-8.462c.284-.514.835-.829 1.422-.812h.321c.863 0 1.574.71 1.574 1.573v14.809c0 .844-.695 1.539-1.54 1.539-.012 0-.022 0-.034 0-.838-.019-1.521-.702-1.54-1.539v-10.611l-4.332 6.498c-.24.496-.745.811-1.295.811s-1.054-.314-1.294-.811l-4.299-6.447v10.594c-.083.78-.748 1.38-1.531 1.38-.784 0-1.449-.6-1.532-1.38z"/><path d="m313.599 901.261h-19.259c-2.312 0-4.214 1.902-4.214 4.214v70.723c0 7.463-10.408 9.866-23.185 9.866h-28.634c-12.777 0-23.185-2.403-23.185-9.866v-70.757c0-2.312-1.902-4.214-4.214-4.214h-19.259c-.005 0-.012 0-.017 0-2.303 0-4.197 1.894-4.197 4.197v.017 72.364c0 12.507 5.433 20.309 15.772 26.569 10.34 6.262 34.439 5.924 41.581 5.924h15.62c7.159 0 31.258.287 41.598-5.924 10.34-6.21 15.772-14.08 15.772-26.569s0-72.364 0-72.364c0-2.312-1.902-4.214-4.214-4.214"/><path d="m878.989 901.955c.494-.452 1.141-.701 1.812-.694h31.578.006c1.402 0 2.555 1.154 2.555 2.556 0 .795-.37 1.548-1.003 2.03l-46.37 40.362c-.48.479-1.133.746-1.811.745-.716.003-1.398-.3-1.879-.83l-15.807-13.741c-.416-.467-.649-1.068-.66-1.692.002-.751.337-1.466.914-1.946z"/><path d="m878.989 1009.57c.479.469 1.124.729 1.794.728h31.579.017c1.393 0 2.539-1.146 2.539-2.539 0-.005 0-.012 0-.017-.004-.794-.373-1.543-.999-2.03l-46.37-40.362c-.48-.479-1.132-.747-1.811-.745-.719-.003-1.404.307-1.878.847l-15.807 13.741c-.425.471-.66 1.082-.66 1.715 0 .755.335 1.472.914 1.958z"/><path d="m794.678 1009.57c-.467.416-1.068.649-1.692.66h-31.664c-1.393-.014-2.529-1.163-2.529-2.556 0-.672.266-1.316.735-1.794l55.425-48.231c.564-.489.894-1.198.896-1.946.007-.713-.288-1.396-.812-1.879l-55.356-48.163c-.57-.486-.899-1.198-.899-1.946 0-1.403 1.153-2.556 2.555-2.556h.037 31.63c.63.002 1.235.244 1.692.677l59.672 51.938c.563.481.887 1.188.88 1.93 0 .739-.321 1.443-.88 1.929z"/><path d="m400.381 928.068c0-.005 0-.012 0-.017 0-1.394 1.146-2.539 2.539-2.539h39.228.018c2.302 0 4.196-1.894 4.196-4.197v-15.874c-.008-2.296-1.9-4.18-4.196-4.18-.005 0-.012 0-.018 0h-111.22c-2.312 0-4.214 1.902-4.214 4.214v15.874c.009 2.305 1.909 4.197 4.214 4.197h39.229c1.401 0 2.556 1.154 2.556 2.556v78.084c0 2.302 1.896 4.196 4.196 4.196h19.191.017c2.302 0 4.197-1.894 4.197-4.196z"/><path d="m147.834 968.954c.342.318.785.504 1.252.524.929 0 1.692-.763 1.692-1.692v-62.362c0-2.302 1.896-4.197 4.197-4.197h19.259.017c2.301 0 4.197 1.894 4.197 4.197v90.167c0 9.207-3.604 13.218-7.108 14.774-3.503 1.558-14.198.931-20.562-4.62s-68.929-60.061-68.929-60.061-3.707-3.232-3.96-3.385c-.268-.203-.594-.313-.931-.313-.836 0-1.526.679-1.54 1.515v62.616c-.008 2.306-1.909 4.197-4.214 4.197h-19.257c-2.278 0-4.16-1.853-4.197-4.129v-90.185c0-9.206 3.588-13.234 7.108-14.774s14.182-.931 20.562 4.604l68.997 60.078 3.385 2.995"/><path d="m682.526 968.954c.344.316.787.501 1.253.524.929 0 1.692-.763 1.692-1.692v-62.362c.008-2.305 1.909-4.197 4.214-4.197h19.259c2.302 0 4.196 1.896 4.196 4.197v90.167c0 9.207-3.587 13.218-7.107 14.774-3.52 1.558-14.182.931-20.562-4.62l-68.997-60.061s-3.688-3.232-3.942-3.385c-.222-.22-.507-.367-.812-.423-.005 0-.012 0-.017 0-.837 0-1.523.687-1.523 1.522v62.617c0 2.301-1.896 4.196-4.197 4.196h-19.326c-2.246.011-4.123-1.783-4.214-4.027v-90.185c0-9.206 3.604-13.234 7.107-14.774s14.199-.931 20.562 4.604l68.997 60.078 3.385 2.995"/><path d="m749.848 905.424c0-2.316-1.88-4.197-4.197-4.197h-19.275c-2.316 0-4.197 1.881-4.197 4.197v100.677c0 2.317 1.881 4.197 4.197 4.197h19.275c2.317 0 4.197-1.88 4.197-4.197z"/><path d="m505.458 957.818h-28.178c-.836 0-1.522-.687-1.522-1.523 0-.005 0-.012 0-.017.002-.404.159-.792.439-1.083l13.86-20.088c.095-.113.203-.217.321-.305.085 0 .152-.169.254-.237.19-.095.398-.146.609-.152h.254c.217.007.43.06.626.152.102 0 .17.17.254.237.114.088.217.191.305.305l13.86 20.021c.293.284.457.675.457 1.083 0 .845-.695 1.54-1.54 1.54m67.424 48.435-68.134-98.393c-3.03-4.398-8.045-7.03-13.386-7.023-5.306-.013-10.293 2.576-13.336 6.922l-68.167 98.494c-.391.476-.601 1.076-.593 1.692 0 1.393 1.146 2.538 2.539 2.538h24.928c.907.004 1.75-.482 2.2-1.27l17.634-25.486c.429-.88 1.323-1.44 2.302-1.438h65.003c.978-.002 1.873.559 2.301 1.438l17.635 25.486c.458.787 1.305 1.273 2.217 1.27h24.911c1.396 0 2.547-1.143 2.556-2.538.002-.618-.215-1.219-.61-1.692"/></g></svg>