<?xml version="1.0" encoding="UTF-8" standalone="no"?>
<!DOCTYPE svg PUBLIC "-//W3C//DTD SVG 1.1//EN" "http://www.w3.org/Graphics/SVG/1.1/DTD/svg11.dtd">
<svg width="100%" height="100%" viewBox="0 0 536 66" version="1.1" xmlns="http://www.w3.org/2000/svg" xmlns:xlink="http://www.w3.org/1999/xlink" xml:space="preserve" xmlns:serif="http://www.serif.com/" style="fill-rule:evenodd;clip-rule:evenodd;stroke-linejoin:round;stroke-miterlimit:1.41421;">
    <g transform="matrix(1,0,0,1,-47.75,-318.548)">
        <g>
            <path d="M461.14,319L447.75,319C447.747,319 447.743,319 447.74,319C446.934,319 446.27,319.664 446.27,320.47L446.27,382C446.27,382.806 446.934,383.47 447.74,383.47C447.743,383.47 447.747,383.47 447.75,383.47L461.14,383.47C461.143,383.47 461.147,383.47 461.15,383.47C461.956,383.47 462.62,382.806 462.62,382C462.62,382 462.62,382 462.62,382L462.62,320.45C462.62,320.45 462.62,320.45 462.62,320.45C462.62,319.644 461.956,318.98 461.15,318.98C461.147,318.98 461.143,318.98 461.14,318.98" style="fill:rgb(255,244,227);fill-rule:nonzero;"/>
            <path d="M566.36,374.61L563.83,374.61C563.799,374.613 563.768,374.615 563.737,374.615C563.266,374.615 562.877,374.227 562.877,373.755C562.877,373.283 563.266,372.895 563.737,372.895C563.768,372.895 563.799,372.897 563.83,372.9L570.77,372.9C571.204,372.947 571.537,373.318 571.537,373.755C571.537,374.192 571.204,374.563 570.77,374.61L568.22,374.61L568.22,382.52C568.22,383.03 567.8,383.45 567.29,383.45C566.78,383.45 566.36,383.03 566.36,382.52L566.36,374.61Z" style="fill:rgb(255,244,227);fill-rule:nonzero;"/>
            <path d="M573.47,373.77C573.47,373.767 573.47,373.763 573.47,373.76C573.47,373.255 573.885,372.84 574.39,372.84C574.393,372.84 574.397,372.84 574.4,372.84L574.59,372.84C574.941,372.846 575.264,373.036 575.44,373.34L578.61,378.34L581.79,373.34C581.958,373.036 582.283,372.85 582.63,372.86L582.82,372.86C583.33,372.86 583.75,373.28 583.75,373.79L583.75,382.54C583.75,383.039 583.339,383.45 582.84,383.45C582.833,383.45 582.827,383.45 582.82,383.45C582.325,383.439 581.921,383.035 581.91,382.54L581.91,376.27L579.35,380.11C579.208,380.403 578.91,380.589 578.585,380.589C578.26,380.589 577.962,380.403 577.82,380.11L575.28,376.3L575.28,382.56C575.231,383.021 574.838,383.375 574.375,383.375C573.912,383.375 573.519,383.021 573.47,382.56L573.47,373.77Z" style="fill:rgb(255,244,227);fill-rule:nonzero;"/>
            <path d="M204.84,319L193.46,319C192.094,319 190.97,320.124 190.97,321.49L190.97,363.28C190.97,367.69 184.82,369.11 177.27,369.11L160.35,369.11C152.8,369.11 146.65,367.69 146.65,363.28L146.65,321.47C146.65,320.104 145.526,318.98 144.16,318.98L132.78,318.98C132.777,318.98 132.773,318.98 132.77,318.98C131.409,318.98 130.29,320.099 130.29,321.46C130.29,321.463 130.29,321.467 130.29,321.47C130.29,321.473 130.29,356.84 130.29,364.23C130.29,371.62 133.5,376.23 139.61,379.93C145.72,383.63 159.96,383.43 164.18,383.43L173.41,383.43C177.64,383.43 191.88,383.6 197.99,379.93C204.1,376.26 207.31,371.61 207.31,364.23C207.31,356.85 207.31,321.47 207.31,321.47C207.31,320.104 206.186,318.98 204.82,318.98" style="fill:rgb(255,244,227);fill-rule:nonzero;"/>
            <path d="M538.93,319.41C539.222,319.143 539.604,318.996 540,319L558.66,319C558.661,319 558.662,319 558.663,319C559.492,319 560.173,319.682 560.173,320.51C560.173,320.98 559.954,321.425 559.58,321.71L532.18,345.56C531.896,345.843 531.511,346.001 531.11,346C530.687,346.002 530.284,345.823 530,345.51L520.66,337.39C520.414,337.114 520.276,336.759 520.27,336.39C520.271,335.946 520.469,335.524 520.81,335.24L538.93,319.41Z" style="fill:rgb(255,244,227);fill-rule:nonzero;"/>
            <path d="M538.93,383C539.213,383.277 539.594,383.431 539.99,383.43L558.65,383.43C558.653,383.43 558.657,383.43 558.66,383.43C559.483,383.43 560.16,382.753 560.16,381.93C560.16,381.927 560.16,381.923 560.16,381.92C560.158,381.451 559.94,381.008 559.57,380.72L532.17,356.87C531.886,356.587 531.501,356.429 531.1,356.43C530.675,356.428 530.27,356.611 529.99,356.93L520.65,365.05C520.399,365.328 520.26,365.689 520.26,366.063C520.26,366.509 520.458,366.933 520.8,367.22L538.93,383Z" style="fill:rgb(255,244,227);fill-rule:nonzero;"/>
            <path d="M489.11,383C488.834,383.246 488.479,383.384 488.11,383.39L469.4,383.39C468.577,383.382 467.905,382.703 467.905,381.88C467.905,381.483 468.062,381.102 468.34,380.82L501.09,352.32C501.424,352.031 501.618,351.612 501.62,351.17C501.624,350.749 501.45,350.345 501.14,350.06L468.43,321.6C468.093,321.313 467.898,320.892 467.898,320.45C467.898,319.621 468.58,318.94 469.408,318.94C469.416,318.94 469.423,318.94 469.43,318.94L488.12,318.94C488.492,318.941 488.85,319.084 489.12,319.34L524.38,350.03C524.713,350.314 524.904,350.732 524.9,351.17C524.9,351.607 524.71,352.023 524.38,352.31L489.11,383Z" style="fill:rgb(255,244,227);fill-rule:nonzero;"/>
            <path d="M256.12,334.84C256.12,334.837 256.12,334.833 256.12,334.83C256.12,334.007 256.797,333.33 257.62,333.33L280.8,333.33C280.803,333.33 280.807,333.33 280.81,333.33C282.17,333.33 283.29,332.211 283.29,330.85C283.29,330.85 283.29,330.85 283.29,330.85L283.29,321.47C283.285,320.113 282.167,319 280.81,319C280.807,319 280.803,319 280.8,319L215.08,319C213.714,319 212.59,320.124 212.59,321.49L212.59,330.87C212.595,332.232 213.718,333.35 215.08,333.35L238.26,333.35C239.088,333.35 239.77,334.032 239.77,334.86L239.77,381C239.77,382.36 240.89,383.48 242.25,383.48L253.59,383.48C253.593,383.48 253.597,383.48 253.6,383.48C254.96,383.48 256.08,382.361 256.08,381C256.08,381 256.08,381 256.08,381L256.12,334.84Z" style="fill:rgb(255,244,227);fill-rule:nonzero;"/>
            <path d="M106.89,359C107.092,359.188 107.354,359.298 107.63,359.31C108.179,359.31 108.63,358.859 108.63,358.31L108.63,321.46C108.63,320.1 109.75,318.98 111.11,318.98L122.49,318.98C122.493,318.98 122.497,318.98 122.5,318.98C123.86,318.98 124.98,320.099 124.98,321.46L124.98,374.74C124.98,380.18 122.85,382.55 120.78,383.47C118.71,384.39 112.39,384.02 108.63,380.74C104.87,377.46 67.9,345.25 67.9,345.25C67.9,345.25 65.71,343.34 65.56,343.25C65.402,343.13 65.209,343.065 65.01,343.065C64.516,343.065 64.108,343.466 64.1,343.96L64.1,380.96C64.095,382.322 62.972,383.44 61.61,383.44L50.23,383.44C48.884,383.44 47.772,382.345 47.75,381L47.75,327.71C47.75,322.27 49.87,319.89 51.95,318.98C54.03,318.07 60.33,318.43 64.1,321.7L104.87,357.2L106.87,358.97" style="fill:rgb(255,244,227);fill-rule:nonzero;"/>
            <path d="M422.84,359C423.043,359.187 423.305,359.296 423.58,359.31C424.129,359.31 424.58,358.859 424.58,358.31L424.58,321.46C424.585,320.098 425.708,318.98 427.07,318.98L438.45,318.98C439.81,318.98 440.93,320.1 440.93,321.46L440.93,374.74C440.93,380.18 438.81,382.55 436.73,383.47C434.65,384.39 428.35,384.02 424.58,380.74L383.81,345.25C383.81,345.25 381.63,343.34 381.48,343.25C381.349,343.12 381.181,343.033 381,343C380.997,343 380.993,343 380.99,343C380.496,343 380.09,343.406 380.09,343.9L380.09,380.9C380.09,382.26 378.97,383.38 377.61,383.38L366.19,383.38C364.863,383.386 363.754,382.326 363.7,381L363.7,327.71C363.7,322.27 365.83,319.89 367.9,318.98C369.97,318.07 376.29,318.43 380.05,321.7L420.82,357.2L422.82,358.97" style="fill:rgb(255,244,227);fill-rule:nonzero;"/>
            <path d="M462.62,321.46C462.62,320.091 461.509,318.98 460.14,318.98L448.75,318.98C447.381,318.98 446.27,320.091 446.27,321.46L446.27,380.95C446.27,382.319 447.381,383.43 448.75,383.43L460.14,383.43C461.509,383.43 462.62,382.319 462.62,380.95L462.62,321.46Z" style="fill:rgb(255,244,227);"/>
            <path d="M318.21,352.42L301.56,352.42C301.56,352.42 301.56,352.42 301.56,352.42C301.066,352.42 300.66,352.014 300.66,351.52C300.66,351.517 300.66,351.513 300.66,351.51C300.661,351.271 300.754,351.042 300.92,350.87L309.11,339C309.166,338.933 309.23,338.872 309.3,338.82C309.35,338.82 309.39,338.72 309.45,338.68C309.562,338.624 309.685,338.594 309.81,338.59L309.96,338.59C310.088,338.594 310.214,338.625 310.33,338.68C310.39,338.68 310.43,338.78 310.48,338.82C310.547,338.872 310.608,338.933 310.66,339L318.85,350.83C319.023,350.998 319.12,351.229 319.12,351.47C319.12,351.969 318.709,352.38 318.21,352.38M358.05,381L317.79,322.86C315.999,320.261 313.036,318.706 309.88,318.71C306.745,318.702 303.798,320.232 302,322.8L261.72,381C261.489,381.281 261.365,381.636 261.37,382C261.37,382.823 262.047,383.5 262.87,383.5L277.6,383.5C278.136,383.502 278.634,383.215 278.9,382.75L289.32,367.69C289.573,367.17 290.102,366.839 290.68,366.84L329.09,366.84C329.668,366.839 330.197,367.17 330.45,367.69L340.87,382.75C341.141,383.215 341.641,383.502 342.18,383.5L356.9,383.5C357.725,383.5 358.405,382.825 358.41,382C358.412,381.635 358.284,381.28 358.05,381" style="fill:rgb(255,244,227);fill-rule:nonzero;"/>
        </g>
    </g>
</svg>
