<?xml version="1.0" encoding="UTF-8" standalone="no"?>
<!DOCTYPE svg PUBLIC "-//W3C//DTD SVG 1.1//EN" "http://www.w3.org/Graphics/SVG/1.1/DTD/svg11.dtd">
<svg width="100%" height="100%" viewBox="0 0 479 170" version="1.1" xmlns="http://www.w3.org/2000/svg" xmlns:xlink="http://www.w3.org/1999/xlink" xml:space="preserve" xmlns:serif="http://www.serif.com/" style="fill-rule:evenodd;clip-rule:evenodd;stroke-linejoin:round;stroke-miterlimit:2;">
    <path d="M207.31,84.93C207.31,96.73 200.65,104.15 191.04,104.15C186.116,104.13 181.504,101.694 178.71,97.64L178.71,114.64C178.621,116.132 177.37,117.312 175.875,117.312C174.38,117.312 173.129,116.132 173.04,114.64L173.04,69.19C173.129,67.698 174.38,66.518 175.875,66.518C177.37,66.518 178.621,67.698 178.71,69.19L178.71,72.19C181.545,68.217 186.119,65.835 191,65.79C200.65,65.79 207.31,73.05 207.31,84.93ZM201.31,84.93C201.31,76.84 196.92,70.86 189.58,70.86C185.226,70.933 181.165,73.107 178.69,76.69L178.69,93.17C181.156,96.772 185.215,98.971 189.58,99.07C196.95,99.07 201.33,93 201.33,84.93L201.31,84.93Z" style="fill:rgb(48,66,242);fill-rule:nonzero;"/>
    <path d="M233.19,68.81C233.19,70.17 232.06,71.38 230.09,71.61C226.76,71.84 222.3,74.41 220.63,77.36L220.63,100.74C220.541,102.232 219.29,103.412 217.795,103.412C216.3,103.412 215.049,102.232 214.96,100.74L214.96,69.19C215.049,67.698 216.3,66.518 217.795,66.518C219.29,66.518 220.541,67.698 220.63,69.19L220.63,72.59C222.82,69.59 225.85,67.22 228.8,66.46C229.383,66.24 229.997,66.111 230.62,66.08C230.632,66.08 230.645,66.08 230.657,66.08C232.051,66.08 233.197,67.226 233.197,68.62C233.197,68.683 233.195,68.747 233.19,68.81Z" style="fill:rgb(48,66,242);fill-rule:nonzero;"/>
    <path d="M234.78,84.93C234.78,74.34 241.78,65.79 252.86,65.79C263.94,65.79 270.94,74.34 270.94,84.93C270.94,95.52 263.94,104.15 252.86,104.15C241.78,104.15 234.78,95.52 234.78,84.93ZM264.96,84.93C264.96,77.52 260.65,70.86 252.86,70.86C245.07,70.86 240.68,77.52 240.68,84.93C240.68,92.34 245.07,99.08 252.86,99.08C260.65,99.08 265,92.42 265,84.93L264.96,84.93Z" style="fill:rgb(48,66,242);fill-rule:nonzero;"/>
    <path d="M294.77,65.79C299.14,65.603 303.395,67.25 306.5,70.33C307.012,70.828 307.31,71.506 307.33,72.22C307.33,72.227 307.33,72.233 307.33,72.24C307.33,73.639 306.179,74.79 304.78,74.79C304.773,74.79 304.767,74.79 304.76,74.79C304.14,74.786 303.544,74.543 303.1,74.11C301.016,71.943 298.105,70.76 295.1,70.86C287.31,70.86 282.47,76.86 282.47,84.93C282.47,93 287.31,99.08 295.1,99.08C298.079,99.183 300.961,97.994 303,95.82C303.464,95.368 304.092,95.122 304.74,95.14C304.747,95.14 304.753,95.14 304.76,95.14C306.159,95.14 307.31,96.291 307.31,97.69C307.31,97.697 307.31,97.703 307.31,97.71C307.306,98.427 307.005,99.112 306.48,99.6C303.375,102.68 299.12,104.327 294.75,104.14C283.86,104.14 276.52,95.82 276.52,84.92C276.52,74.02 283.88,65.79 294.77,65.79Z" style="fill:rgb(48,66,242);fill-rule:nonzero;"/>
    <path d="M330.41,100.81C330.453,101.755 329.864,102.622 328.97,102.93C327.401,103.799 325.622,104.218 323.83,104.14C318.46,104.14 315.74,101.04 315.74,95.59L315.74,71.69L311.88,71.69C310.509,71.69 309.38,70.561 309.38,69.19C309.38,67.819 310.509,66.69 311.88,66.69L315.74,66.69L315.74,59.21C315.829,57.718 317.08,56.538 318.575,56.538C320.07,56.538 321.321,57.718 321.41,59.21L321.41,66.7L326.63,66.7C328.001,66.7 329.13,67.829 329.13,69.2C329.13,70.571 328.001,71.7 326.63,71.7L321.41,71.7L321.41,94.4C321.41,97.12 322.62,99.09 325.12,99.09C326.71,99.09 327.24,98.41 327.99,98.41C328.031,98.408 328.072,98.407 328.112,98.407C329.374,98.407 330.412,99.445 330.412,100.707C330.412,100.741 330.412,100.776 330.41,100.81Z" style="fill:rgb(48,66,242);fill-rule:nonzero;"/>
    <path d="M333.21,84.93C333.21,74.34 340.21,65.79 351.29,65.79C362.37,65.79 369.37,74.34 369.37,84.93C369.37,95.52 362.37,104.15 351.29,104.15C340.21,104.15 333.21,95.52 333.21,84.93ZM363.39,84.93C363.39,77.52 359.08,70.86 351.29,70.86C343.5,70.86 339.11,77.52 339.11,84.93C339.11,92.34 343.5,99.08 351.29,99.08C359.08,99.08 363.39,92.42 363.39,84.93Z" style="fill:rgb(48,66,242);fill-rule:nonzero;"/>
    <path d="M395.33,68.81C395.33,70.17 394.2,71.38 392.23,71.61C388.9,71.84 384.44,74.41 382.77,77.36L382.77,100.74C382.681,102.232 381.43,103.412 379.935,103.412C378.44,103.412 377.189,102.232 377.1,100.74L377.1,69.19C377.189,67.698 378.44,66.518 379.935,66.518C381.43,66.518 382.681,67.698 382.77,69.19L382.77,72.59C384.96,69.59 387.99,67.22 390.94,66.46C391.523,66.24 392.137,66.111 392.76,66.08C392.772,66.08 392.785,66.08 392.797,66.08C394.191,66.08 395.337,67.226 395.337,68.62C395.337,68.683 395.335,68.747 395.33,68.81Z" style="fill:rgb(48,66,242);fill-rule:nonzero;"/>
    <path d="M399.56,55.5C399.56,53.404 401.284,51.68 403.38,51.68C405.476,51.68 407.2,53.404 407.2,55.5C407.2,57.596 405.476,59.32 403.38,59.32C401.284,59.32 399.56,57.596 399.56,55.5ZM400.56,100.74L400.56,69.19C400.649,67.698 401.9,66.518 403.395,66.518C404.89,66.518 406.141,67.698 406.23,69.19L406.23,100.74C406.141,102.232 404.89,103.412 403.395,103.412C401.9,103.412 400.649,102.232 400.56,100.74Z" style="fill:rgb(48,66,242);fill-rule:nonzero;"/>
    <path d="M413.94,84.93C413.94,74.34 420.94,65.79 432.02,65.79C443.1,65.79 450.1,74.34 450.1,84.93C450.1,95.52 443.1,104.15 432.02,104.15C420.94,104.15 413.94,95.52 413.94,84.93ZM444.12,84.93C444.12,77.52 439.81,70.86 432.02,70.86C424.23,70.86 419.84,77.52 419.84,84.93C419.84,92.34 424.23,99.07 432,99.07C439.77,99.07 444.12,92.42 444.12,84.93Z" style="fill:rgb(48,66,242);fill-rule:nonzero;"/>
    <path d="M118,28.18L76.75,28.18C68.871,28.191 62.391,34.671 62.38,42.55L62.38,73.35L67.23,73.35L67.23,42.55C67.23,42.543 67.23,42.537 67.23,42.53C67.23,37.306 71.526,33.005 76.75,33L118,33C123.22,33.005 127.515,37.3 127.52,42.52L127.52,95.6C127.515,100.82 123.22,105.115 118,105.12L99.88,105.12L99.88,110L118,110C125.89,109.989 132.375,103.49 132.37,95.6L132.37,42.55C132.359,34.671 125.879,28.191 118,28.18Z" style="fill:rgb(48,66,242);fill-rule:nonzero;"/>
    <path d="M87.06,140.92L76.75,140.92C68.871,140.909 62.391,134.429 62.38,126.55L62.38,85.3C62.391,77.421 68.871,70.941 76.75,70.93L87.06,70.93C94.939,70.941 101.419,77.421 101.43,85.3L101.43,126.54C101.425,134.423 94.943,140.909 87.06,140.92ZM76.75,75.78C71.53,75.785 67.235,80.08 67.23,85.3L67.23,126.54C67.235,131.76 71.53,136.055 76.75,136.06L87.06,136.06C92.28,136.055 96.575,131.76 96.58,126.54L96.58,85.3C96.575,80.08 92.28,75.785 87.06,75.78L76.75,75.78Z" style="fill:rgb(48,66,242);fill-rule:nonzero;"/>
    <path d="M81.9,100.84C76.2,100.84 71.51,96.15 71.51,90.45C71.51,84.75 76.2,80.06 81.9,80.06C87.6,80.06 92.29,84.75 92.29,90.45C92.285,96.148 87.598,100.835 81.9,100.84ZM81.9,84.91C78.861,84.91 76.36,87.411 76.36,90.45C76.36,93.489 78.861,95.99 81.9,95.99C84.939,95.99 87.44,93.489 87.44,90.45C87.435,87.413 84.937,84.915 81.9,84.91Z" style="fill:rgb(48,66,242);fill-rule:nonzero;"/>
    <path d="M87.06,110L42.55,110C34.66,109.989 28.175,103.49 28.18,95.6L28.18,85.3C28.191,77.421 34.671,70.941 42.55,70.93L87.05,70.93C94.933,70.935 101.419,77.417 101.43,85.3L101.43,95.6C101.435,103.49 94.95,109.989 87.06,110ZM42.56,75.8C42.55,75.8 42.54,75.8 42.53,75.8C37.313,75.8 33.016,80.083 33,85.3L33,95.6C33.005,100.82 37.3,105.115 42.52,105.12L87.02,105.12C92.24,105.115 96.535,100.82 96.54,95.6L96.54,85.3C96.535,80.08 92.24,75.785 87.02,75.78L42.56,75.8Z" style="fill:rgb(48,66,242);fill-rule:nonzero;"/>
</svg>
