<svg viewBox="0 0 5669.29 907.09" xmlns="http://www.w3.org/2000/svg" xmlns:xlink="http://www.w3.org/1999/xlink"><clipPath id="a"><path d="m694.3 77.7h4467.2v752.57h-4467.2z"/></clipPath><g clip-path="url(#a)" fill="#fef4e2"><path d="m946.69 249.68h-252.39v408.38h82.7v-103.65h169.73c83.91 0 152.18-68.3 152.18-152.25 0-84.18-68.27-152.51-152.18-152.51m0 222-169.73-.1v-139.23h169.69c38.33 0 69.51 31.53 69.51 69.87a69.57 69.57 0 0 1 -69.51 69.46"/><path d="m1456.79 249.67h-259v408.39h82.66v-103.78h175l54.71 103.78h93.23l-66.69-126.54c47.1-31 72.1-79.39 72.1-129.72 0-83.83-68.19-152.13-152-152.13m-.27 221.81h-176.1v-139.14h176.29a69.57 69.57 0 0 1 -.19 139.14"/><path d="m2143.41 507.86v-106.3c0-83.59-67.19-151.88-150.69-151.88h-145.72c-83.56 0-150.79 68.29-150.79 152v106.13c0 83.67 67.26 150.22 150.77 150.22h145.94c83.34 0 150.53-66.55 150.53-150.2m-82.65-.39c0 39-29.45 68.15-68.06 68.15h-145.74c-38.43 0-68.14-29.14-68.14-68.19v-105.73c0-38.57 29.64-69.34 68.15-69.34h145.76c38.44 0 68 30.77 68 69.29z"/><path d="m2642.75 508.3v-106.54c0-83.79-67.21-152.07-150.63-152.07h-249v408.37h250.44c82 0 149.22-67.91 149.22-149.76m-82.65-.55c0 38.64-29.36 67.86-68.07 67.86h-166.3v-243.27h166.24c38.71 0 68.07 30.68 68.07 69.33z"/><path d="m3056.67 249.68-143.79 220.45-143.8-220.45h-97.95l200.3 307.44v100.94h82.7v-100.63l200.5-307.75z"/><path d="m3593.72 658.06h86.72v-408.38h-82.7l.19 293.33-281.94-293.33h-87.06v408.38h82.7l.05-294.25z"/><path d="m3891.69 554.45h274.37l54 103.61h93.36l-213.07-408.38h-143l-212.93 408.38h93.23zm115.92-222.12h42.59l72.8 139.48h-188.16z"/><path d="m4785.22 77.7c-207.84 0-376.3 168.5-376.3 376.3s168.46 376.27 376.3 376.27 376.28-168.47 376.28-376.27-168.5-376.3-376.28-376.3m-245.56 500.08 90.79-90.71-142.8-142.83h126.52l142.62 142.76-90.67 90.89zm385.42 80.28h-220.08l157.95-158.83-248.45-249.55h220.09l248.21 249.37z"/></g></svg>