<svg enable-background="new 0 0 907.09 1275.59" height="1275.59" viewBox="0 0 907.09 1275.59" width="907.09" xmlns="http://www.w3.org/2000/svg" xmlns:xlink="http://www.w3.org/1999/xlink"><clipPath id="a"><path d="m111.088 577.659h714.754v120.412h-714.754z"/></clipPath><g clip-path="url(#a)" fill="#384af4"><path d="m151.471 605.177h-40.383v65.341h13.232v-16.584h27.157c13.425 0 24.349-10.929 24.349-24.36 0-13.469-10.923-24.401-24.349-24.401m.001 35.518-27.157-.016v-22.277h27.15c6.133 0 11.122 5.045 11.122 11.18-.01 6.137-4.985 11.108-11.122 11.113"/><path d="m233.087 605.175h-41.44v65.343h13.226v-16.605h28l8.753 16.605h14.917l-10.67-20.247c7.536-4.96 11.536-12.702 11.536-20.755 0-13.413-10.911-24.341-24.32-24.341m-.043 35.489h-28.176v-22.262h28.207c6.147.008 11.125 4.998 11.116 11.146s-5 11.125-11.147 11.116z"/><path d="m342.947 646.485v-17.008c0-13.375-10.751-24.301-24.111-24.301h-23.315c-13.37 0-24.126 10.926-24.126 24.319v16.981c0 13.387 10.762 24.035 24.124 24.035h23.35c13.335 0 24.085-10.648 24.085-24.032m-13.225-.061c0 6.24-4.712 10.904-10.89 10.904h-23.319c-6.149 0-10.902-4.662-10.902-10.91v-16.917c0-6.172 4.743-11.095 10.904-11.095h23.322c6.15 0 10.88 4.923 10.88 11.087z"/><path d="m422.842 646.556v-17.047c0-13.406-10.754-24.331-24.102-24.331h-39.84v65.34h40.07c13.12 0 23.876-10.866 23.876-23.962m-13.224-.088c0 6.183-4.697 10.857-10.891 10.857h-26.608v-38.923h26.599c6.193 0 10.892 4.908 10.892 11.093z"/><path d="m489.069 605.177-23.007 35.271-23.008-35.271h-15.672l32.048 49.19v16.15h13.231v-16.101l32.08-49.24h-15.672z"/><path d="m574.997 670.518h13.876v-65.341h-13.232l.03 46.933-45.11-46.933h-13.93v65.341h13.232l.008-47.08z"/><path d="m622.673 653.939h43.899l8.64 16.578h14.938l-34.091-65.341h-22.88l-34.069 65.341h14.917zm18.547-35.539h6.814l11.648 22.316h-30.105z"/><path d="m765.638 577.659c-33.254 0-60.208 26.96-60.208 60.208 0 33.249 26.954 60.204 60.208 60.204 33.255 0 60.205-26.955 60.205-60.203 0-33.249-26.96-60.209-60.205-60.209m-39.289 80.014 14.526-14.514-22.849-22.854h20.244l22.819 22.842-14.508 14.543zm61.667 12.845h-35.213l25.272-25.413-39.752-39.928h35.214l39.714 39.899z"/></g></svg>