<svg enable-background="new 0 0 907.1 400" viewBox="0 0 907.1 400" xmlns="http://www.w3.org/2000/svg" xmlns:xlink="http://www.w3.org/1999/xlink"><clipPath id="a"><path d="m111.1 141.7h714.8v120.4h-714.8z"/></clipPath><g clip-path="url(#a)" fill="#384af4"><path d="m151.5 169.2h-40.4v65.3h13.2v-16.6h27.2c13.4 0 24.3-10.9 24.3-24.4 0-13.4-10.9-24.3-24.3-24.3m0 35.5h-27.2v-22.3h27.1c6.1 0 11.1 5 11.1 11.2.1 6.1-4.9 11.1-11 11.1"/><path d="m233.1 169.2h-41.4v65.3h13.2v-16.6h28l8.8 16.6h14.9l-10.7-20.2c7.5-5 11.5-12.7 11.5-20.8 0-13.4-10.9-24.3-24.3-24.3m-.1 35.5h-28.2v-22.3h28.2c6.1 0 11.1 5 11.1 11.1s-4.9 11.2-11.1 11.2z"/><path d="m342.9 210.5v-17c0-13.4-10.8-24.3-24.1-24.3h-23.3c-13.4 0-24.1 10.9-24.1 24.3v17c0 13.4 10.8 24 24.1 24h23.4c13.3 0 24.1-10.6 24-24m-13.2-.1c0 6.2-4.7 10.9-10.9 10.9h-23.3c-6.1 0-10.9-4.7-10.9-10.9v-16.9c0-6.2 4.7-11.1 10.9-11.1h23.3c6.1 0 10.9 4.9 10.9 11.1z"/><path d="m422.8 210.6v-17c0-13.4-10.8-24.3-24.1-24.3h-39.8v65.3h40.1c13.1-.1 23.8-10.9 23.8-24m-13.2-.1c0 6.2-4.7 10.9-10.9 10.9h-26.6v-38.9h26.6c6.2 0 10.9 4.9 10.9 11.1z"/><path d="m489.1 169.2-23 35.3-23-35.3h-15.7l32 49.2v16.2h13.2v-16.1l32.1-49.2z"/><path d="m575 234.5h13.9v-65.3h-13.2v46.9l-45.1-46.9h-13.9v65.3h13.2v-47.1z"/><path d="m622.7 217.9h43.9l8.6 16.6h14.9l-34.1-65.3h-22.9l-34.1 65.3h15zm18.5-35.5h6.8l11.6 22.3h-30.1z"/><path d="m765.6 141.7c-33.3 0-60.2 27-60.2 60.2s27 60.2 60.2 60.2c33.3 0 60.2-27 60.2-60.2 0-33.3-26.9-60.2-60.2-60.2m-39.3 80 14.5-14.5-22.8-22.9h20.2l22.8 22.8-14.5 14.5zm61.7 12.8h-35.2l25.3-25.4-39.8-39.9h35.2l39.7 39.9z"/></g></svg>