<svg id="Layer_1" data-name="Layer 1" xmlns="http://www.w3.org/2000/svg" viewBox="0 0 3494.1 783.33"><defs><style>.cls-1,.cls-2{fill:#fff3e0;}.cls-2{fill-rule:evenodd;}</style></defs><title>red-bull-logo</title><path class="cls-1" d="M3412,84.72c5.67,0,32.37.47,32.37,28.11,0,13.7-10.4,21.73-22,23.86v-1.42c5,.71,9.22,5.9,11.58,11.33l17.72,40.87h-14.65l-17.25-38c-2.36-5.2-3.78-8.5-12.28-8.5H3396v46.54h-13.47V84.72ZM3396,129.13h12.53c14.65,0,21.73-8.5,21.73-16.3,0-6.14-1.65-16.31-18.66-16.31H3396v32.61Zm18-80.8h0a87.18,87.18,0,1,1-87.18,87.18,87.42,87.42,0,0,1,87.18-87.18Zm0,162.54h0a75.36,75.36,0,1,0-75.37-75.36,74.82,74.82,0,0,0,75.37,75.36Z" transform="translate(-7 -48.33)"/><path class="cls-2" d="M670.5,529.37h177s-7.37-83.54-87.24-83.54-89.71,83.54-89.71,83.54ZM762.67,345.1c238.37,0,228.54,232.24,228.54,232.24v36.84H668.05c0,52.82,44.23,98.29,104.45,98.29s90.92-57.76,90.92-57.76l114.25,56.52C924.85,791.12,853.59,823,773.73,823c-248.22,0-253.13-206.41-253.13-232.21s3.7-245.73,242.07-245.73Zm530.81,347.7h0c-7.38,0-99.55,1.25-99.55-111.79s100.77-116.74,100.77-116.74,113,3.68,113,114.28S1300.85,692.8,1293.48,692.8ZM1401.63,57.25V397.91s-68.82-52.81-147.5-52.81-211.32,55.29-211.32,229.74,113,240.86,210.12,240.86,151.14-63.91,151.14-63.91v56.74h140.06V57.25Zm944.88,311.17H2489V620.32s4.92,84.81,84.78,84.81,78.65-84.81,78.65-84.81V369.65h143.73V628.93s18.46,202.73-218.71,202.73-231-178.17-231-210.1V368.43ZM2879.17,57.25h140.68V808.53H2879.17V57.25Zm239,0H3257V808.53H3118.14V57.25ZM2060.81,683h-133.3V213h71.25s96.82-7.29,96.82,77.18-77,77-77,77h-44.35V493.83h86.58c22.7,0,95,11,95,94.22s-95,94.94-95,94.94Zm119.82-266.62s65.11-50.62,65.11-146.6S2176,87.16,2027.51,87.16H1778.83V808.53h306.31s219.54-2.49,219.54-200.86c0-115.19-44.71-159.3-124.05-191.32ZM7,71.78V808.53H155.67V212.37h70S335.06,207.45,335.06,307,238,404.05,238,404.05H202.35V573.63l148.7,234.9H525.51L317.87,507.28S488.66,492.55,488.66,307s-129-235.21-301-235.21Z" transform="translate(-7 -48.33)"/></svg>