<?xml version="1.0" encoding="UTF-8" standalone="no"?>
<!DOCTYPE svg PUBLIC "-//W3C//DTD SVG 1.1//EN" "http://www.w3.org/Graphics/SVG/1.1/DTD/svg11.dtd">
<svg width="100%" height="100%" viewBox="0 0 1123 270" version="1.1" xmlns="http://www.w3.org/2000/svg" xmlns:xlink="http://www.w3.org/1999/xlink" xml:space="preserve" xmlns:serif="http://www.serif.com/" style="fill-rule:evenodd;clip-rule:evenodd;stroke-linejoin:round;stroke-miterlimit:2;">
    <g transform="matrix(1,0,0,1,-71.3591,-56.0297)">
        <g transform="matrix(3.23748,0,0,3.23748,71.3591,50.2702)">
            <path d="M264.8,35.548L249.132,35.548L249.132,66.3C249.132,76.324 259.837,84.887 273.072,84.887C286.307,84.887 297.888,76.226 297.888,66.3L297.888,35.548L282.22,35.548L282.22,63.283C282.22,67.857 278.327,71.555 273.559,71.555C268.693,71.555 264.8,67.857 264.8,63.186L264.8,35.548Z" style="fill:rgb(48,66,242);fill-rule:nonzero;"/>
        </g>
        <g transform="matrix(3.23748,0,0,3.23748,71.3591,50.2702)">
            <path d="M16.252,18.614L16.252,82.454L0,82.454L0,5.477L29.292,5.477C42.041,5.477 52.454,15.792 52.454,28.346C52.454,39.051 44.96,48.004 34.839,50.34L57.417,82.454L38.051,82.454L21.799,57.249L21.799,38.856L25.594,38.856C31.628,38.856 36.493,34.38 36.493,28.833C36.493,23.286 31.92,18.614 25.886,18.614L16.252,18.614Z" style="fill:rgb(48,66,242);fill-rule:nonzero;"/>
        </g>
        <g transform="matrix(3.23748,0,0,3.23748,71.3591,50.2702)">
            <path d="M139.65,70.679C133.422,70.679 128.36,65.132 128.36,58.32C128.36,51.508 133.422,45.961 139.65,45.961C145.878,45.961 150.939,51.508 150.939,58.32C150.842,65.132 145.781,70.679 139.65,70.679ZM165.829,82.454L165.829,1.779L150.452,1.779L150.452,39.83C146.365,35.84 141.207,33.601 135.271,33.601C122.62,33.601 112.304,44.793 112.304,58.709C112.304,72.528 122.62,83.817 135.271,83.817C141.305,83.817 146.949,81.481 150.452,77.199L150.452,82.454L165.829,82.454Z" style="fill:rgb(48,66,242);fill-rule:nonzero;"/>
        </g>
        <g transform="matrix(3.23748,0,0,3.23748,71.3591,50.2702)">
            <path d="M217.407,69.122L202.712,69.122L202.712,19.296L213.027,19.296C217.504,19.296 221.299,22.702 221.299,27.276C221.299,31.85 217.504,35.548 213.027,35.548L207.578,35.548L207.578,49.464L217.601,49.464C223.051,49.464 227.138,53.941 227.138,59.39C226.944,64.84 223.343,68.83 217.407,69.122ZM230.447,40.608C234.632,36.715 237.259,31.46 237.259,25.719C237.259,20.463 235.216,15.695 231.712,11.9C228.014,7.91 221.591,5.477 212.833,5.477L186.654,5.477L186.654,82.454L220.521,82.454C233.464,82.26 243.974,72.431 243.974,60.363C243.877,51.605 240.763,45.377 230.447,40.608Z" style="fill:rgb(48,66,242);fill-rule:nonzero;"/>
        </g>
        <g transform="matrix(3.23748,0,0,3.23748,71.3591,50.2702)">
            <path d="M104.908,61.726C105.005,60.655 105.103,59.585 105.103,58.514C105.297,41.873 94.397,32.823 80.384,32.823C66.37,32.823 54.984,44.306 54.984,58.514C54.984,72.723 66.37,84.206 80.384,84.206C91.088,84.206 99.458,79.34 103.74,71.75L91.283,66.008C89.726,69.414 86.028,71.847 81.649,71.847C75.907,71.847 71.138,67.468 71.138,61.726L104.908,61.726ZM71.041,52.967C71.041,47.81 75.226,43.625 80.384,43.625C85.541,43.625 89.726,47.81 89.726,52.967L71.041,52.967Z" style="fill:rgb(48,66,242);fill-rule:nonzero;"/>
        </g>
        <g transform="matrix(3.23748,0,0,3.23748,71.3591,50.2702)">
            <rect x="305.089" y="1.779" width="15.377" height="80.675" style="fill:rgb(48,66,242);fill-rule:nonzero;"/>
        </g>
        <g transform="matrix(3.23748,0,0,3.23748,71.3591,50.2702)">
            <rect x="331.268" y="1.779" width="15.376" height="80.675" style="fill:rgb(48,66,242);fill-rule:nonzero;"/>
        </g>
    </g>
</svg>
