<?xml version="1.0" encoding="utf-8"?>
<!-- Generator: Adobe Illustrator 22.1.0, SVG Export Plug-In . SVG Version: 6.00 Build 0)  -->
<svg version="1.1" id="Layer_1" xmlns="http://www.w3.org/2000/svg" xmlns:xlink="http://www.w3.org/1999/xlink" x="0px" y="0px"
	 viewBox="0 0 240 100" style="enable-background:new 0 0 240 100;" xml:space="preserve">
<style type="text/css">
	.st0{opacity:0.8;fill:#FFF4E2;}
	.st1{fill:#FFF4E2;}
	.st2{fill:none;}
</style>
<g>
	<path class="st0" d="M173.9,57.2c0-0.3,0.3-0.6,0.6-0.6h2.7c0.3,0,0.6,0.3,0.6,0.6v2.8c0,0.3-0.3,0.6-0.6,0.6h-2.7
		c-0.3,0-0.6-0.3-0.6-0.6V57.2z"/>
	<path class="st1" d="M104.9,41.7c0-0.3-0.3-0.6-0.6-0.6h-4.1c-4.8,0-8.4,4-8.4,9.6c0,5.9,3.6,9.8,8.4,9.8h4.1
		c0.3,0,0.6-0.3,0.6-0.6v-2.6c0-0.3-0.3-0.6-0.6-0.6c0,0-1.5,0-2.9,0c-3.5,0-4.9-2.4-4.9-6.1c0-3.6,1.8-5.7,4.9-5.7h2.9
		c0.3,0,0.6-0.3,0.6-0.6L104.9,41.7L104.9,41.7z"/>
	<path class="st1" d="M159.8,50.1c0,3.7,1,6.8,4.3,6.8c3.2,0,4.2-3.5,4.2-6.7c0-3-1.1-6-4.2-6C161.2,44.3,159.8,47.2,159.8,50.1z
		 M155.4,50.7c0-6.4,3.4-10.2,8.9-10.2c5.3,0,8.5,4,8.5,10.4c0,5.5-3.1,9.8-8.7,9.8C158.1,60.7,155.4,56.3,155.4,50.7L155.4,50.7z"
		/>
	<path class="st1" d="M85,39.1c0,0.3,0.3,0.6,0.6,0.6h3.3c0.3,0,0.6-0.3,0.6-0.6v-3.2c0-0.3-0.3-0.6-0.6-0.6h-3.3
		c-0.3,0-0.6,0.3-0.6,0.6L85,39.1L85,39.1z M85,59.9c0,0.3,0.3,0.6,0.6,0.6h3.3c0.3,0,0.6-0.3,0.6-0.6V41.7c0-0.3-0.3-0.6-0.6-0.6
		h-3.3c-0.3,0-0.6,0.3-0.6,0.6L85,59.9L85,59.9z M77.7,41.7c0-0.3-0.3-0.6-0.6-0.6h-3.3c-0.3,0-0.6,0.3-0.6,0.6v18.2
		c0,0.3,0.3,0.6,0.6,0.6h3.3c0.3,0,0.6-0.3,0.6-0.6l0-6.6c0-2.8-0.4-7.3,3.1-8.2c0.4-0.1,0.9-0.2,1.3-0.2c0.3,0,0.6-0.3,0.6-0.6
		v-2.4c0-0.3-0.3-0.6-0.6-0.7c-0.2,0-0.4,0-0.7,0c-1.2,0-2.3,0.4-3.2,1.1l-0.2,0.2c-0.1,0.1-0.4,0.2-0.4-0.1S77.7,41.7,77.7,41.7
		L77.7,41.7z M129.6,41.7c0-0.3-0.3-0.6-0.6-0.6h-3.3c-0.3,0-0.6,0.3-0.6,0.6v18.2c0,0.3,0.3,0.6,0.6,0.6h3.3c0.3,0,0.6-0.3,0.6-0.6
		l0-6.6c0-2.8-0.4-7.3,3.1-8.2c0.4-0.1,0.9-0.2,1.3-0.2c0.3,0,0.6-0.3,0.6-0.6v-2.4c0-0.3-0.3-0.6-0.6-0.7c-0.2,0-0.4,0-0.7,0
		c-1.2,0-2.3,0.4-3.2,1.1l-0.2,0.2c-0.1,0.1-0.4,0.2-0.4-0.1S129.6,41.7,129.6,41.7L129.6,41.7z"/>
	<path class="st1" d="M110.8,54.8c0,1.7,1.1,2.2,2.9,2.2c1.5,0,2.4-0.9,3.2-1.9v-3.3c0-0.2-0.1-0.4-0.2-0.5
		c-0.2-0.1-0.4-0.2-0.5-0.2h-0.5C113.5,51,110.8,52.4,110.8,54.8L110.8,54.8z M117.2,59.1c-1.3,1-2.9,1.5-4.6,1.5
		c-3.3,0-6.2-2.3-6.2-6c0-3.6,3.7-7.1,8-7.1l1.8,0l0.3,0c0.2,0,0.3-0.1,0.3-0.3c0,0,0,0,0,0c0-0.2,0-0.3,0-0.5
		c-0.2-1.1-1.1-1.9-2.2-1.9h-5.5c-0.3,0-0.6-0.3-0.6-0.6v-2.5c0-0.3,0.3-0.6,0.6-0.6h5.4l0.8,0c3.8,0,6.1,2.2,6.1,7.7v6.3
		c0,1.8,1.2,1.8,1.2,1.8c0.3,0,0.6,0.3,0.6,0.6v2.4c0,0.3-0.3,0.6-0.6,0.6c-0.7,0.1-1.5,0-2.2-0.1c-0.8-0.2-1.6-0.6-2.2-1.1
		c-0.1-0.1-0.2-0.2-0.3-0.4c-0.1-0.1-0.2-0.1-0.2-0.1c0,0,0,0,0,0C117.4,59,117.5,58.9,117.2,59.1L117.2,59.1z"/>
	<path class="st1" d="M139.5,50.5c0,2.7,0.7,6.4,4.1,6.4c4,0,4.6-3.7,4.6-6.4c0-2.7-0.6-6.1-4.2-6.1
		C140.6,44.4,139.5,47.9,139.5,50.5L139.5,50.5z M148.1,41.5v-5.8c0-0.3,0.3-0.6,0.6-0.6h3.3c0.3,0,0.6,0.3,0.6,0.6v19.4
		c0,1.8,1.2,1.8,1.2,1.8c0.3,0,0.6,0.3,0.6,0.6v2.4c0,0.3-0.3,0.6-0.6,0.6c-0.7,0.1-1.5,0-2.2-0.1c-0.8-0.2-1.6-0.6-2.2-1.1
		c-0.1-0.1-0.2-0.2-0.3-0.4c-0.1-0.1-0.3-0.1-0.4,0c-0.8,0.4-2.7,1.7-5.3,1.7c-5.5,0-8.3-4.7-8.3-10c0-5.3,3-10,8.3-10
		c2.2,0,3.4,0.5,4.1,1c0.1,0.1,0.3,0.1,0.5,0.2C148.1,41.8,148.1,41.5,148.1,41.5L148.1,41.5z"/>
	<path class="st0" d="M191.4,41h-4.1c-4.9,0-8.4,4-8.4,9.6c0,5.9,3.6,9.8,8.4,9.8h4c0.4,0,0.7-0.3,0.7-0.7v-2.6
		c0-0.4-0.3-0.7-0.7-0.7c0,0-1.5,0-2.9,0c-3.4,0-4.8-2.3-4.8-5.9c0-3.6,1.8-5.6,4.7-5.6h2.9c0.4,0,0.7-0.3,0.7-0.7v-2.5
		C192.1,41.4,191.7,41,191.4,41L191.4,41z M211,47.6c0-3.7-1.9-6.5-6.2-6.5c-2-0.1-3.9,0.8-5.3,2.2c-0.1,0.1-0.1,0.1-0.2,0.2v-7.7
		c0-0.4-0.3-0.7-0.7-0.7h-3.2c-0.4,0-0.7,0.3-0.7,0.7v24c0,0.4,0.3,0.7,0.7,0.7h3.2c0.4,0,0.7-0.3,0.7-0.7V49c0.2-2,1.1-4.3,3.9-4.3
		c2.5,0,3,1.6,3.1,3.4v11.7c0,0.4,0.3,0.7,0.7,0.7h3.2c0.4,0,0.7-0.3,0.7-0.7L211,47.6C211,47.6,211,47.6,211,47.6z"/>
	<path class="st1" d="M57.7,67.5c0,0.2-0.2,0.3-0.3,0.3H34.8c-3.2,0-5.8-2.6-5.8-5.8c0,0,0,0,0,0V39.7c0-0.2,0.1-0.3,0.3-0.3h1.4
		c0.2,0,0.3,0.2,0.3,0.3V62c0,2.2,1.6,3.6,3.8,3.6h22.5c0.2,0,0.3,0.1,0.3,0.3V67.5z M62.9,60.6c-0.2,0-0.3-0.1-0.3-0.3l0-22.3
		c0-2.2-1.5-3.7-3.7-3.7l-22.5,0c-0.2,0-0.3-0.1-0.3-0.3v-1.5c0-0.2,0.1-0.3,0.3-0.3h22.6c3.2,0,5.8,2.6,5.8,5.8c0,0,0,0,0,0v22.4
		c0,0.2-0.2,0.3-0.3,0.3L62.9,60.6z"/>
	<path class="st2" d="M39.8,48.9v1.3H41l0,1.3h1.3V41.1l2.5,0v6.5h1.3v-7.7h2.5v7.7h1.3v-6.5h2.5v7.8h1.3v-4.2l2.5,0v5.5h-1.3v3.9
		h-1.3v2.6h-1.3v3.9h-8.8v-2.8h-1.3v-1.3H41v-1.3h-1.3v-2.6h-1.3v-1.3h-1.3v-2.6C37.3,48.9,39.8,48.9,39.8,48.9z"/>
	<path class="st0" d="M36,48.9h1.3v2.6H36V48.9z M41,41.1h1.3v10.3H41L41,41.1L41,41.1z M37.3,48.9v-1.3h2.5v1.3L37.3,48.9z
		 M39.8,50.1v-1.3H41v1.3H39.8z M37.3,52.7v-1.3h1.3v1.3H37.3z M39.8,56.6v-1.3H41v1.3H39.8z M41,57.8v-1.3h1.3v1.3H41z M42.3,57.8
		h1.3v2.8h-1.3L42.3,57.8L42.3,57.8z M38.5,52.7h1.3v2.6h-1.3L38.5,52.7L38.5,52.7z M53.6,54.1h1.3v2.6h-1.3L53.6,54.1L53.6,54.1z
		 M52.4,56.7h1.3v3.9h-1.3V56.7z M54.9,50.2h1.3v3.9h-1.3V50.2L54.9,50.2z M46.1,39.9v-1.3h2.5v1.3H46.1z M52.4,41.1h1.3v2.3h2.5
		v1.3h-2.5v4.2h-1.3C52.4,48.9,52.4,41.1,52.4,41.1z M49.9,41.1v6.5h-1.3v-7.7h3.8v1.3L49.9,41.1z M46.1,39.9v7.7h-1.3v-6.5h-2.5
		v-1.3L46.1,39.9z M56.1,44.7h1.3v5.5h-1.3V44.7z"/>
</g>
</svg>
