<svg xmlns="http://www.w3.org/2000/svg" width="240" height="100" viewBox="0 0 240 100"><g fill="#FFF4E2"><path d="M173.264 48.955h-13.818l6.93-15.47 6.888 15.47m-5.24-19.47h-3.197L150.864 60.05h3.65l3.59-8.022h16.5l3.548 8.023h3.67l-13.797-30.565zm-22.192 26.442V43.84h-12.54v3.073h9.24v7.528c-2.063 1.672-5.302 3.054-8.767 3.054-7.363 0-12.023-5.384-12.023-12.644 0-6.786 4.806-12.48 11.51-12.48 4.31 0 6.908 1.445 9.238 3.466l2.208-2.6c-3.053-2.578-6.188-4.062-11.304-4.062-9.096 0-15.22 7.364-15.22 15.737 0 8.706 5.898 15.635 15.427 15.635 5.158.042 9.427-2.082 12.232-4.618zm-38.384-6.972H93.63l6.93-15.47 6.888 15.47zm-5.26-19.47h-3.197L85.174 60.05h3.506l3.59-8.022h16.498l3.55 8.023h3.67l-13.8-30.565zM63.662 37.28c0-2.784 2.518-4.928 6.457-4.928 3.114 0 5.92.99 8.765 3.3l2-2.64c-3.092-2.476-6.248-3.734-10.662-3.734-5.774 0-9.962 3.465-9.962 8.312 0 5.032 3.197 7.3 10.19 8.786 6.372 1.34 7.897 2.93 7.897 5.796 0 3.073-2.682 5.197-6.764 5.197-4.207 0-7.24-1.444-10.395-4.312l-2.146 2.537c3.65 3.26 7.59 4.847 12.375 4.847 6.042 0 10.353-3.383 10.353-8.62 0-4.663-3.113-7.158-9.9-8.623-6.66-1.402-8.207-3.01-8.207-5.92zM180.235 73.767c0 1.898-1.238 3.01-2.724 3.01-1.442 0-2.804-1.216-2.804-3.01 0-1.815 1.36-3.01 2.805-3.01 1.467 0 2.725 1.175 2.725 3.01m1.196 0c0-2.578-1.854-4.042-3.73-4.042-1.445 0-2.353.784-2.992 1.732V69.89h-1.155V80.1h1.155v-3.92c.6.866 1.547 1.65 2.99 1.65 1.897.02 3.733-1.505 3.733-4.063zm-10.703.577c0 1.465-.99 2.434-2.33 2.434-1.362 0-2.145-.887-2.145-2.352V69.89h-1.156v4.826c0 1.856 1.094 3.114 2.99 3.114 1.342 0 2.125-.68 2.682-1.526v1.362h1.154V69.87h-1.154l-.04 4.474zm-8.024-.535c0 1.67-1.176 3.01-2.867 3.01-1.65 0-2.887-1.36-2.887-3.053s1.153-3.01 2.824-3.01c1.65-.022 2.93 1.34 2.93 3.052zm1.176-.043c0-2.207-1.713-4.042-4.044-4.042-2.35 0-4.062 1.856-4.062 4.083 0 2.207 1.712 4.042 4.043 4.042s4.062-1.876 4.062-4.083zm-11.47.805c0-2.352 1.383-3.568 3.095-3.568h.082v-1.258c-1.463-.062-2.598.866-3.176 2.187V69.91h-1.153v7.796h1.154v-3.134zm-4.04-1.197c0 1.61-1.383 2.64-2.868 2.64-1.444 0-2.702-1.072-2.702-2.68 0-1.63 1.217-2.62 2.702-2.62 1.506.02 2.867 1.072 2.867 2.66zm1.134 2.95V69.89h-1.155v1.382c-.64-.845-1.568-1.567-3.054-1.567-1.856 0-3.65 1.382-3.65 3.69 0 2.29 1.773 3.652 3.65 3.652 1.443 0 2.393-.743 3.073-1.65v.928c0 1.815-1.095 2.784-2.827 2.784-1.093 0-2.104-.35-2.99-.99l-.516.886c1.052.743 2.248 1.073 3.548 1.073 2.33.02 3.92-1.24 3.92-3.755zM99.775 71.003h.083v-1.258c-1.464-.062-2.6.866-3.177 2.187V69.91h-3.36l.186-.763c.27-1.03.845-1.464 1.568-1.464.453 0 .845.103 1.277.31l.27-.99c-.392-.206-.95-.35-1.546-.35-1.342 0-2.25.742-2.682 2.31l-.27.948-.267 1.032-1.815 6.765h1.154l1.815-6.765h2.474v6.765h1.156v-3.093c.083-2.394 1.445-3.61 3.135-3.61m7.24 2.805c0 1.67-1.175 3.01-2.865 3.01-1.65 0-2.888-1.36-2.888-3.053s1.154-3.01 2.825-3.01c1.67 0 2.928 1.34 2.928 3.052zm1.197-.043c0-2.207-1.713-4.042-4.043-4.042-2.352 0-4.064 1.856-4.064 4.083 0 2.207 1.713 4.042 4.044 4.042 2.33.022 4.062-1.876 4.062-4.083zm6.786 3.92h1.154v-4.828c0-1.857-1.094-3.115-2.99-3.115-1.342 0-2.146.68-2.682 1.526v-1.36h-1.155v7.796h1.155V73.25c0-1.463.99-2.433 2.33-2.433 1.36 0 2.146.887 2.146 2.35v4.54h.042v-.02zm2.6-7.797v5.713c0 1.568.947 2.208 2.206 2.208.556 0 .99-.123 1.382-.35v-.99c-.393.185-.743.268-1.135.268-.782 0-1.318-.35-1.318-1.28v-4.537h2.475v-1.03h-3.61m5.3 7.796h1.154V69.89h-1.154v7.796zm8.765-4.33h-5.012c.165-1.527 1.177-2.642 2.517-2.642 1.567 0 2.392 1.218 2.495 2.64zm1.155.865c.02-.123.02-.267.02-.37 0-2.29-1.34-4.125-3.63-4.125-2.144 0-3.73 1.814-3.73 4.063 0 2.413 1.752 4.063 3.876 4.063 1.465 0 2.413-.577 3.197-1.463l-.743-.66c-.64.66-1.382 1.093-2.475 1.093-1.36 0-2.58-.95-2.723-2.62h6.207v.02zm5.63-3.217v-1.258c-1.464-.062-2.6.866-3.175 2.187V69.91h-1.155v7.796h1.155v-3.093c0-2.352 1.382-3.568 3.093-3.568h.083v-.042zM65.084 77.666h1.154v-4.888c0-1.856-1.092-3.115-2.99-3.115-1.34 0-2.145.68-2.68 1.526v-1.383h-1.156v7.838h1.156v-4.517c0-1.464.99-2.433 2.33-2.433 1.36 0 2.145.887 2.145 2.35v4.6m8.478-4.353h-5.01c.163-1.526 1.174-2.64 2.515-2.64 1.546 0 2.37 1.238 2.496 2.64zm1.155.847c.02-.125.02-.27.02-.373 0-2.29-1.34-4.125-3.628-4.125-2.146 0-3.734 1.815-3.734 4.063 0 2.413 1.754 4.063 3.878 4.063 1.465 0 2.414-.578 3.198-1.465l-.743-.66c-.64.66-1.38 1.093-2.475 1.093-1.36 0-2.578-.95-2.723-2.62h6.208v.023zm12.148-4.292h-1.217l-2.042 6.25-2.206-6.29h-.97l-2.166 6.27-2.042-6.25h-1.237l2.722 7.838h1.032l2.206-6.146 2.187 6.146h.99l2.743-7.818z"/></g></svg>