<?xml version="1.0" encoding="UTF-8" standalone="no"?>
<!DOCTYPE svg PUBLIC "-//W3C//DTD SVG 1.1//EN" "http://www.w3.org/Graphics/SVG/1.1/DTD/svg11.dtd">
<svg width="100%" height="100%" viewBox="0 0 773 112" version="1.1" xmlns="http://www.w3.org/2000/svg" xmlns:xlink="http://www.w3.org/1999/xlink" xml:space="preserve" xmlns:serif="http://www.serif.com/" style="fill-rule:evenodd;clip-rule:evenodd;stroke-linejoin:round;stroke-miterlimit:2;">
    <g transform="matrix(1,0,0,1,-881.018,-4.518)">
        <g transform="matrix(1,0,0,1,877.413,0)">
            <g transform="matrix(1,0,0,1,67.1118,84.9272)">
                <path d="M0,-66.325L-5.752,-54.117C-14.674,-59.517 -23.595,-61.747 -29.817,-61.747C-37.916,-61.747 -43.199,-58.695 -43.199,-53.178C-43.199,-35.217 1.174,-44.843 1.056,-15.261C1.056,-0.588 -11.856,8.452 -29.934,8.452C-42.847,8.452 -55.055,3.169 -63.507,-4.579L-57.52,-16.553C-49.068,-8.805 -38.503,-4.579 -29.699,-4.579C-20.074,-4.579 -14.321,-8.218 -14.321,-14.557C-14.321,-32.87 -58.694,-22.657 -58.694,-51.886C-58.694,-65.973 -46.603,-74.777 -28.76,-74.777C-18.078,-74.777 -7.63,-71.373 0,-66.325" style="fill:rgb(48,66,242);fill-rule:nonzero;"/>
            </g>
        </g>
        <g transform="matrix(1,0,0,1,877.413,0)">
            <g transform="matrix(1,0,0,1,124.944,66.3797)">
                <path d="M0,-9.392C-0.47,-19.487 -7.161,-25.591 -17.374,-25.591C-27.234,-25.591 -34.16,-19.37 -35.686,-9.392L0,-9.392ZM11.739,0.469L-35.451,0.469C-33.338,10.095 -25.943,16.081 -16.082,16.081C-9.274,16.081 -3.052,13.499 1.526,8.803L8.687,16.433C2.582,23.125 -6.339,26.999 -17.139,26.999C-36.39,26.999 -49.068,14.203 -49.068,-4.579C-49.068,-23.478 -36.038,-36.274 -17.491,-36.391C4.461,-36.391 13.382,-22.07 11.739,0.469" style="fill:rgb(48,66,242);fill-rule:nonzero;"/>
            </g>
        </g>
        <g transform="matrix(1,0,0,1,877.413,0)">
            <g transform="matrix(1,0,0,1,164.069,30.4579)">
                <path d="M0,62.451L-24.182,0L-10.095,0L7.278,49.186L24.417,0L37.916,0L13.969,62.451L0,62.451Z" style="fill:rgb(48,66,242);fill-rule:nonzero;"/>
            </g>
        </g>
        <g transform="matrix(1,0,0,1,877.413,0)">
            <g transform="matrix(1,0,0,1,253.413,66.3797)">
                <path d="M0,-9.392C-0.47,-19.487 -7.161,-25.591 -17.374,-25.591C-27.234,-25.591 -34.16,-19.37 -35.686,-9.392L0,-9.392ZM11.739,0.469L-35.451,0.469C-33.338,10.095 -25.943,16.081 -16.082,16.081C-9.274,16.081 -3.052,13.499 1.526,8.803L8.687,16.433C2.582,23.125 -6.339,26.999 -17.139,26.999C-36.39,26.999 -49.068,14.203 -49.068,-4.579C-49.068,-23.478 -36.038,-36.274 -17.491,-36.391C4.461,-36.391 13.382,-22.07 11.739,0.469" style="fill:rgb(48,66,242);fill-rule:nonzero;"/>
            </g>
        </g>
        <g transform="matrix(1,0,0,1,877.413,0)">
            <g transform="matrix(1,0,0,1,336.93,68.8435)">
                <path d="M0,-14.79L0,24.065L-13.5,24.065L-13.5,-11.034C-13.5,-20.425 -19.134,-26.177 -28.525,-26.177C-38.856,-26.06 -45.312,-18.899 -46.251,-9.156L-46.251,24.065L-59.751,24.065L-59.751,-38.385L-46.251,-38.385L-46.251,-26.412C-41.79,-35.098 -33.808,-38.855 -23.243,-38.855C-8.687,-38.855 0,-29.699 0,-14.79" style="fill:rgb(48,66,242);fill-rule:nonzero;"/>
            </g>
        </g>
        <g transform="matrix(1,0,0,1,877.413,0)">
            <g transform="matrix(1,0,0,1,369.206,23.183)">
                <path d="M0,57.52L21.13,57.52C31.93,57.52 38.386,53.294 38.386,45.546C38.386,38.268 31.93,33.925 21.13,33.925L0,33.925L0,57.52ZM0,21.717L21.13,21.717C29.934,21.717 35.216,17.608 35.216,10.682C35.216,3.756 29.934,0 21.13,0L0,0L0,21.717ZM21.834,-12.326C38.856,-12.326 49.421,-4.579 49.421,8.217C49.421,17.491 43.903,24.417 34.982,26.53C46.016,28.408 52.59,36.273 52.59,47.307C52.59,61.394 41.203,69.846 22.656,69.846L-13.852,69.846L-13.852,-12.326L21.834,-12.326Z" style="fill:rgb(48,66,242);fill-rule:nonzero;"/>
            </g>
        </g>
        <g transform="matrix(1,0,0,1,877.413,0)">
            <g transform="matrix(1,0,0,1,448.884,80.1155)">
                <path d="M0,-37.094C4.226,-45.547 11.739,-50.007 21.6,-50.007L21.6,-37.094C9.039,-37.799 1.056,-30.403 0,-19.721L0,12.913L-13.5,12.913L-13.5,-49.538L0,-49.538L0,-37.094Z" style="fill:rgb(48,66,242);fill-rule:nonzero;"/>
            </g>
        </g>
        <g transform="matrix(1,0,0,1,877.413,0)">
            <g transform="matrix(1,0,0,1,0,-21.786)">
                <path d="M482.756,52.364L496.138,52.364L496.138,114.815L482.756,114.815L482.756,52.364ZM497.312,34.521C497.312,39.216 493.908,42.621 489.447,42.621C484.986,42.621 481.582,39.216 481.582,34.521C481.582,29.708 484.986,26.304 489.447,26.304C493.908,26.304 497.312,29.708 497.312,34.521" style="fill:rgb(48,66,242);fill-rule:nonzero;"/>
            </g>
        </g>
        <g transform="matrix(1,0,0,1,877.413,0)">
            <g transform="matrix(1,0,0,1,559.593,37.5033)">
                <path d="M0,24.535C0,12.444 -7.865,3.992 -19.135,3.992C-30.404,3.992 -38.269,12.561 -38.386,24.535C-38.269,36.391 -30.521,44.843 -19.135,44.843C-7.865,44.843 0,36.391 0,24.535M13.499,55.525L0,55.525L0,44.843C-4.461,52.121 -11.974,56.112 -21.952,56.112C-39.912,56.112 -51.886,43.083 -51.886,24.065C-51.886,5.283 -39.795,-7.512 -22.187,-7.512C-12.091,-7.512 -4.578,-3.403 0,3.874L0,-31.577L13.499,-31.577L13.499,55.525Z" style="fill:rgb(48,66,242);fill-rule:nonzero;"/>
            </g>
        </g>
        <g transform="matrix(1,0,0,1,877.413,0)">
            <g transform="matrix(1,0,0,1,632.399,85.9852)">
                <path d="M0,-25.825C0,-37.095 -7.395,-44.96 -17.96,-44.96C-28.643,-44.96 -36.038,-36.977 -36.155,-25.825C-36.038,-14.556 -28.76,-6.573 -17.96,-6.573C-7.395,-6.573 0,-14.556 0,-25.825M13.382,0.94C13.382,18.899 0.587,30.169 -19.017,30.169C-28.76,30.169 -37.329,27.117 -44.96,21.952L-39.208,12.208C-33.338,16.552 -27.234,19.017 -19.604,19.017C-7.747,19.017 0,12.091 0,1.292L0,-6.573C-4.226,0.235 -11.269,3.992 -20.66,3.992C-37.564,3.992 -48.834,-8.217 -48.834,-26.178C-48.834,-43.786 -37.681,-55.759 -21.13,-55.876C-11.504,-55.994 -4.343,-52.12 0,-45.312L0,-55.407L13.382,-55.407L13.382,0.94Z" style="fill:rgb(48,66,242);fill-rule:nonzero;"/>
            </g>
        </g>
        <g transform="matrix(1,0,0,1,877.413,0)">
            <g transform="matrix(1,0,0,1,706.431,66.4996)">
                <path d="M0,-9.392C-0.47,-19.487 -7.161,-25.591 -17.374,-25.591C-27.234,-25.591 -34.16,-19.37 -35.686,-9.392L0,-9.392ZM11.739,0.469L-35.451,0.469C-33.338,10.095 -25.943,16.081 -16.082,16.081C-9.274,16.081 -3.052,13.499 1.526,8.803L8.687,16.433C2.582,23.125 -6.339,26.999 -17.139,26.999C-36.39,26.999 -49.069,14.203 -49.069,-4.579C-49.069,-23.478 -36.038,-36.274 -17.491,-36.391C4.461,-36.391 13.382,-22.07 11.739,0.469" style="fill:rgb(48,66,242);fill-rule:nonzero;"/>
            </g>
        </g>
        <g transform="matrix(1,0,0,1,877.413,0)">
            <g transform="matrix(1,0,0,1,775.261,87.1599)">
                <path d="M0,-50.83L-4.93,-40.851C-10.448,-44.256 -17.374,-46.369 -22.891,-46.369C-28.173,-46.369 -32.047,-44.608 -32.047,-40.147C-32.047,-28.643 1.174,-34.865 1.057,-12.209C1.057,0.586 -10.33,6.339 -22.891,6.339C-32.047,6.339 -41.79,3.286 -48.012,-2.348L-43.199,-11.974C-37.799,-7.161 -29.112,-4.227 -22.304,-4.227C-16.552,-4.227 -12.091,-6.222 -12.091,-10.918C-12.091,-23.713 -44.96,-16.553 -44.842,-39.091C-44.842,-51.769 -33.808,-57.169 -21.834,-57.169C-13.969,-57.169 -5.635,-54.821 0,-50.83" style="fill:rgb(48,66,242);fill-rule:nonzero;"/>
            </g>
        </g>
    </g>
</svg>
