<?xml version="1.0" encoding="UTF-8" standalone="no"?>
<!DOCTYPE svg PUBLIC "-//W3C//DTD SVG 1.1//EN" "http://www.w3.org/Graphics/SVG/1.1/DTD/svg11.dtd">
<svg width="100%" height="100%" viewBox="0 0 779 387" version="1.1" xmlns="http://www.w3.org/2000/svg" xmlns:xlink="http://www.w3.org/1999/xlink" xml:space="preserve" xmlns:serif="http://www.serif.com/" style="fill-rule:evenodd;clip-rule:evenodd;stroke-linejoin:round;stroke-miterlimit:2;">
    <g transform="matrix(1,0,0,1,-100.694,-273.535)">
        <g transform="matrix(1,0,0,1,218.07,411.739)">
            <path d="M0,-122.583L-10.631,-100.02C-27.12,-110 -43.609,-114.122 -55.108,-114.122C-70.078,-114.122 -79.842,-108.481 -79.842,-98.284C-79.842,-65.089 2.17,-82.88 1.953,-28.205C1.953,-1.086 -21.913,15.621 -55.325,15.621C-79.19,15.621 -101.754,5.857 -117.376,-8.463L-106.31,-30.593C-90.69,-16.273 -71.163,-8.463 -54.891,-8.463C-37.1,-8.463 -26.469,-15.188 -26.469,-26.904C-26.469,-60.75 -108.48,-41.874 -108.48,-95.897C-108.48,-121.932 -86.133,-138.204 -53.155,-138.204C-33.412,-138.204 -14.103,-131.913 0,-122.583" style="fill:rgb(255,244,226);fill-rule:nonzero;"/>
        </g>
        <g transform="matrix(1,0,0,1,324.956,377.46)">
            <path d="M0,-17.359C-0.868,-36.017 -13.235,-47.298 -32.11,-47.298C-50.335,-47.298 -63.135,-35.8 -65.956,-17.359L0,-17.359ZM21.696,0.866L-65.522,0.866C-61.617,18.657 -47.948,29.722 -29.723,29.722C-17.14,29.722 -5.641,24.949 2.82,16.27L16.055,30.372C4.773,42.74 -11.716,49.9 -31.676,49.9C-67.257,49.9 -90.689,26.251 -90.689,-8.464C-90.689,-43.393 -66.607,-67.042 -32.327,-67.259C8.245,-67.259 24.733,-40.79 21.696,0.866" style="fill:rgb(255,244,226);fill-rule:nonzero;"/>
        </g>
        <g transform="matrix(1,0,0,1,397.269,311.068)">
            <path d="M0,115.423L-44.694,0L-18.658,0L13.451,90.907L45.127,0L70.078,0L25.818,115.423L0,115.423Z" style="fill:rgb(255,244,226);fill-rule:nonzero;"/>
        </g>
        <g transform="matrix(1,0,0,1,562.397,377.46)">
            <path d="M0,-17.359C-0.868,-36.017 -13.235,-47.298 -32.11,-47.298C-50.335,-47.298 -63.135,-35.8 -65.956,-17.359L0,-17.359ZM21.696,0.866L-65.522,0.866C-61.617,18.657 -47.948,29.722 -29.724,29.722C-17.14,29.722 -5.641,24.949 2.82,16.27L16.055,30.372C4.773,42.74 -11.716,49.9 -31.676,49.9C-67.257,49.9 -90.689,26.251 -90.689,-8.464C-90.689,-43.393 -66.607,-67.042 -32.327,-67.259C8.245,-67.259 24.733,-40.79 21.696,0.866" style="fill:rgb(255,244,226);fill-rule:nonzero;"/>
        </g>
        <g transform="matrix(1,0,0,1,716.755,382.014)">
            <path d="M0,-27.336L0,44.477L-24.951,44.477L-24.951,-20.394C-24.951,-37.75 -35.364,-48.381 -52.721,-48.381C-71.814,-48.165 -83.747,-34.93 -85.482,-16.923L-85.482,44.477L-110.433,44.477L-110.433,-70.945L-85.482,-70.945L-85.482,-48.815C-77.238,-64.871 -62.484,-71.813 -42.958,-71.813C-16.055,-71.813 0,-54.89 0,-27.336" style="fill:rgb(255,244,226);fill-rule:nonzero;"/>
        </g>
        <g transform="matrix(1,0,0,1,127.136,488.572)">
            <path d="M0,106.31L39.053,106.31C59.013,106.31 70.946,98.5 70.946,84.18C70.946,70.729 59.013,62.7 39.053,62.7L0,62.7L0,106.31ZM0,40.137L39.053,40.137C55.325,40.137 65.088,32.543 65.088,19.743C65.088,6.942 55.325,0 39.053,0L0,0L0,40.137ZM40.354,-22.781C71.814,-22.781 91.34,-8.462 91.34,15.187C91.34,32.327 81.143,45.127 64.654,49.033C85.048,52.504 97.198,67.04 97.198,87.434C97.198,113.47 76.153,129.091 41.873,129.091L-25.601,129.091L-25.601,-22.781L40.354,-22.781Z" style="fill:rgb(255,244,226);fill-rule:nonzero;"/>
        </g>
        <g transform="matrix(1,0,0,1,274.399,593.796)">
            <path d="M0,-68.558C7.81,-84.18 21.696,-92.424 39.921,-92.424L39.921,-68.558C16.706,-69.861 1.953,-56.192 0,-36.449L0,23.866L-24.95,23.866L-24.95,-91.556L0,-91.556L0,-68.558Z" style="fill:rgb(255,244,226);fill-rule:nonzero;"/>
        </g>
        <g transform="matrix(1,0,0,1,0,121.737)">
            <path d="M337.001,380.503L361.734,380.503L361.734,495.926L337.001,495.926L337.001,380.503ZM363.904,347.525C363.904,356.203 357.613,362.496 349.368,362.496C341.124,362.496 334.832,356.203 334.832,347.525C334.832,338.63 341.124,332.337 349.368,332.337C357.613,332.337 363.904,338.63 363.904,347.525" style="fill:rgb(255,244,226);fill-rule:nonzero;"/>
        </g>
        <g transform="matrix(1,0,0,1,479.013,515.04)">
            <path d="M0,45.345C0,22.998 -14.537,7.377 -35.365,7.377C-56.193,7.377 -70.729,23.215 -70.946,45.345C-70.729,67.257 -56.41,82.878 -35.365,82.878C-14.537,82.878 0,67.257 0,45.345M24.95,102.622L0,102.622L0,82.878C-8.245,96.331 -22.13,103.707 -40.571,103.707C-73.767,103.707 -95.897,79.625 -95.897,44.477C-95.897,9.764 -73.549,-13.885 -41.006,-13.885C-22.347,-13.885 -8.462,-6.292 0,7.16L0,-58.362L24.95,-58.362L24.95,102.622Z" style="fill:rgb(255,244,226);fill-rule:nonzero;"/>
        </g>
        <g transform="matrix(1,0,0,1,613.574,604.645)">
            <path d="M0,-47.731C0,-68.56 -13.668,-83.096 -33.195,-83.096C-52.938,-83.096 -66.606,-68.342 -66.823,-47.731C-66.606,-26.903 -53.155,-12.15 -33.195,-12.15C-13.668,-12.15 0,-26.903 0,-47.731M24.733,1.736C24.733,34.93 1.085,55.759 -35.147,55.759C-53.155,55.759 -68.993,50.118 -83.096,40.572L-72.465,22.563C-61.617,30.592 -50.335,35.147 -36.232,35.147C-14.319,35.147 0,22.347 0,2.386L0,-12.15C-7.81,0.433 -20.828,7.377 -38.185,7.377C-69.427,7.377 -90.255,-15.188 -90.255,-48.383C-90.255,-80.926 -69.644,-103.056 -39.052,-103.273C-21.262,-103.49 -8.028,-96.331 0,-83.747L0,-102.406L24.733,-102.406L24.733,1.736Z" style="fill:rgb(255,244,226);fill-rule:nonzero;"/>
        </g>
        <g transform="matrix(1,0,0,1,750.403,568.631)">
            <path d="M0,-17.359C-0.868,-36.017 -13.235,-47.298 -32.11,-47.298C-50.335,-47.298 -63.135,-35.8 -65.956,-17.359L0,-17.359ZM21.696,0.866L-65.522,0.866C-61.617,18.657 -47.948,29.722 -29.724,29.722C-17.14,29.722 -5.641,24.949 2.82,16.27L16.055,30.372C4.773,42.74 -11.716,49.9 -31.676,49.9C-67.258,49.9 -90.69,26.251 -90.69,-8.464C-90.69,-43.393 -66.607,-67.042 -32.327,-67.259C8.245,-67.259 24.733,-40.79 21.696,0.866" style="fill:rgb(255,244,226);fill-rule:nonzero;"/>
        </g>
        <g transform="matrix(1,0,0,1,877.616,606.815)">
            <path d="M0,-93.944L-9.112,-75.501C-19.31,-81.794 -32.11,-85.699 -42.307,-85.699C-52.071,-85.699 -59.23,-82.445 -59.23,-74.2C-59.23,-52.938 2.17,-64.438 1.953,-22.564C1.953,1.084 -19.093,11.716 -42.307,11.716C-59.23,11.716 -77.238,6.074 -88.737,-4.339L-79.842,-22.129C-69.861,-13.234 -53.806,-7.811 -41.222,-7.811C-30.591,-7.811 -22.347,-11.499 -22.347,-20.177C-22.347,-43.825 -83.096,-30.592 -82.878,-72.248C-82.878,-95.68 -62.484,-105.66 -40.354,-105.66C-25.818,-105.66 -10.414,-101.32 0,-93.944" style="fill:rgb(255,244,226);fill-rule:nonzero;"/>
        </g>
    </g>
</svg>
