<svg id="Layer_1" data-name="Layer 1" xmlns="http://www.w3.org/2000/svg" viewBox="0 0 530.1 255.12"><defs><style>.cls-1{fill:#fef4e2;}</style></defs><title>Artboard 1</title><path class="cls-1" d="M95.65,188.68v.14c-.07.71-.22,2.74.56,3.17a22.06,22.06,0,0,0,6.11,1.26c.91,0,3.79.14,4.43.21.21.35,2.39,4.29,3.22,4.78h-.06c.84.49,2.31.49,2.6.07l.28-.56a2.14,2.14,0,0,0-.07-2c-.21-.28-.57-.7-.91-1.13s-.71-.91-1.06-1.33a10.76,10.76,0,0,1-1-1.26,1.45,1.45,0,0,1-.41-.5s-.15-.07.13-.07a4.47,4.47,0,0,0,.28-.7,1.26,1.26,0,0,0-.34-1.33c-1.41-1.34-8.22-8.22-8-8.71s3.86-.85,6.81-.85c1.2,0,3,.07,4.85.14,3,.07,6.25.15,8.15.07,1.47-.07,4.7.08,7.44.22s5.13.28,5.27.07a3.27,3.27,0,0,0-1.83-3,10.05,10.05,0,0,0-1.68.36,13.86,13.86,0,0,1-2.46.42c-.29,0-1,.07-1.9.07-1.68.07-4.07.07-6,.07h-2c-1,0-3-.14-5-.28-2.81-.14-5.76-.28-7.09-.28a34.28,34.28,0,0,0-5.42.49c-1.89.28-3.23.7-3.23,1.12A5.42,5.42,0,0,0,98.67,181a26.15,26.15,0,0,1,2,2c.56.56,2,2,3.16,3.3s2.38,2.53,2.67,2.88a15.54,15.54,0,0,1,1.33,2.81H104a28.79,28.79,0,0,1-3.37-.14c-1-.14-1.9-.43-1.9-1.13a3.87,3.87,0,0,1,.91-2.11c.07-.14.28-.42.35-.56v.07a3.23,3.23,0,0,0,.35-.7c0-.14.08-.21.14-.35a3.09,3.09,0,0,0,.21-1.2c0-.49-.06-.84-.63-1.05a2.71,2.71,0,0,0-2.8.77A22.43,22.43,0,0,1,93.05,189l-.56.22-.64.42h.08c-.15.07-.49.28-.64.35a12,12,0,0,0-1,.77c-1.26.91-2.53,1.76-2.81,1.9s-.7.28-1.06.49h.07c-.49.28-1.05.56-1.47.77-.77.5-1.4.56-1.48,0-.13-1,1.55-3,2.75-4.07a3.45,3.45,0,0,1,1.26-.85l1.05-.7h-.07a7.4,7.4,0,0,0,2.25-1.68,10.26,10.26,0,0,0,.84-.92l.91-.91c.5-.56.85-1,.85-1.26a9.06,9.06,0,0,0-.07-1.34c-.07-.42-.28-.84-.84-.7-1.13.21-1.48.49-2.32,1.68a24.06,24.06,0,0,1-3.09,3.17c-1.41,1.33-3,2.74-4,3.79-.49.49-1.19,1.12-1.75,1.76s-1.55,1.47-2.11,2c-1.26,1.2-2.31,2.39-2.25,2.81.21.92,2.11,1.2,2.6,1.12a8.76,8.76,0,0,0,1.41-.77l.77-.42a.64.64,0,0,1,.35-.21,17.25,17.25,0,0,0,4.29-1.19,42,42,0,0,0,7-4.71C94.17,189.81,95.3,189,95.65,188.68Z"/><path class="cls-1" d="M140.61,183.56a.07.07,0,0,1-.07-.07,2.45,2.45,0,0,0-1.69.35,22,22,0,0,0-3.72,2.53c-.14.14-.63.49-.78.63v-.07c-.13.07.15-.28-.7.56v-.07l-1.05.7-.56.35a1.76,1.76,0,0,1-.57.29,1.21,1.21,0,0,0-.49.21h-.07c2.32-2.81,4.71-5.48,7-8.29h-.07c.84-.92,1.61-1.69,2.25-2.39l2-2a29.31,29.31,0,0,0,3.37-3.93c.57-1,0-1.55-.62-1.62-1.2-.14-6.19,5.62-7.31,7h.07c-1.13,1.26-2.25,2.38-3.23,3.58-.29.21-.21.28-.49.49a8.6,8.6,0,0,1-1.13.91l-5.55,3.73-8,5.27-2.11,1.26c-.63,1,.42,1.12,1.12,1.19a31.64,31.64,0,0,0,3.51-2c.36-.28.85-.5,1.27-.78.21-.14.56-.28.77-.42,1.54-1,2.81-1.75,4-2.6.28-.21.64-.21.92-.42s.21-.14.35-.21.21-.14.35-.28a.26.26,0,0,0,.07.21,113.14,113.14,0,0,1-7.87,9.48c-1.26,1.34-4.35,4.57-6.6,6.75-3.3,3.3-6.74,7-8.78,9.13-3.16,3.65-6.39,7.23-8.78,9.83-2.46,2.81-5.9,6.53-7.3,8.43h.06a7.79,7.79,0,0,0-.91,1c-.49.57-1,1.13-1.4,1.69a4.28,4.28,0,0,0-1.27,2.46c0,.56,1.83.91,2.74.28.14-.14,1-1,2.18-2.11.42-.49.91-1,1.48-1.61l1.47-1.48c1.75-1.9,14.19-15.66,17.07-19.38,1.26-1.55,2.88-3.52,4.43-5.27H116c.85-.92,1.76-1.83,2.46-2.67h-.07c1-1.06,2-2.18,2.53-2.81,1.27-1.62,7.94-7.8,7.94-7.8l.35-.35a2.67,2.67,0,0,1,.42-.35,27.34,27.34,0,0,1,2.18-1.69c.7-.42,1.61-1.12,2.59-1.82l1.41-1.06c.07-.07.35-.28.43-.35v.07c.06,0,.13-.07.34-.28v.07a7.54,7.54,0,0,1,2-1.12.45.45,0,0,1,.56.35,3.76,3.76,0,0,1-1,2,21,21,0,0,1-4.36,4.92c-.63.42-1.19.85-1.61,1.13-.07.07-.42.35-.49.42v-.07a2,2,0,0,0-.85.84c-.28.42.57,1.4,1.27,1.34a12.09,12.09,0,0,0,3.93-2.32l2-2a3.55,3.55,0,0,1,.49-.42c.14-.07.21-.28.28-.35a32.78,32.78,0,0,0,3.44-5.55C142.64,185.8,142.85,183.91,140.61,183.56Z"/><path class="cls-1" d="M214.87,156.23c-7.59,0-15.87,7-22.34,13.35-3.23,3.16-9,9.41-11.94,12.64-4.35,4.78-9,10.33-18.82,13.77h-.07v-.14c0-.07-.07-.28-.07-.35a7.68,7.68,0,0,1,.7-1.69h-.07c2.81-.91,13.21-6.32,13.21-11.73,0-1.26-1-1.75-2-1.75-3.19,0-10.83,7.29-12.44,11.09-6.49,3.53-9.75,4.43-12.45,4.43-2.95,0-4.57-.49-4.57-2.18a8.16,8.16,0,0,1,.63-2.39c3.3-.63,10-2.81,10-6.88,0-1.06-.7-1.69-2-1.69a6.64,6.64,0,0,0-4.14,1.13c-2.82,1.68-7.87,8.08-7.87,11.45,0,2,2.25,3.09,4,3.09a25.84,25.84,0,0,0,7.59-1.17.61.61,0,0,0,.45.26c1.12,0,4.7-2.25,6.11-2.61.14-.06.49-.14.7-.2-.28.84-.63,1.75-.91,2.59l-.42.14c-.5.22-.91.49-.91.78,0,.49,1.33,1.12,2.31,1.12h.21c1.9-.91,2.46-1,2.74-1.26h-.07c.49-.21,1.13-.5,1.41-.64,8.71-2.88,15.38-10.18,20.93-16.71,8.92-10.47,17-18.76,27.6-22a4.76,4.76,0,0,1,1.13-.07c.7,0,1.4.07,1.47.35-.07,2-2.74,4.92-3.93,6.53,0,0,.35.5.42.57l.49.49c.07.07.14.07.28.07.84,0,3.66-2.74,4.43-5.48a11.68,11.68,0,0,0,.56-2.88C217.26,156.65,216.14,156.23,214.87,156.23ZM150.43,185c.35,0,1.12.14,1.12.56,0,1.76-5.12,3.66-6,3.8C146.5,187.42,149.09,185,150.43,185Zm21.45-2.1.56-.08a.45.45,0,0,1,.5.49c0,2.91-6.7,6.94-9.73,8.35a1.18,1.18,0,0,0,.36-.76.34.34,0,0,0-.13-.27C165.3,187.22,170.47,183.12,171.88,182.93Z"/><path class="cls-1" d="M204.5,192a15.82,15.82,0,0,1-6.32,1.89c-1.83,0-3.45-.56-4-1.82-.49-1.06.14-2.74,1.47-2.74a1.28,1.28,0,0,1,.43.07v-.5a2.59,2.59,0,0,0-.43-1.33,3.1,3.1,0,0,1-.21-1.12,2.76,2.76,0,0,1,.5-1.48,2.33,2.33,0,0,0,.42-1.05c0-.77-2-2.18-2.53-2.18a3.18,3.18,0,0,1-.56.21h.07c-.07.07-.28.07-.36.07s-.13.07-.2.07h.07a3.47,3.47,0,0,1-.85.21,5.86,5.86,0,0,1-.7.14,13.12,13.12,0,0,0-3.51,2.46,9.65,9.65,0,0,1-1.26.91,5.3,5.3,0,0,0-1.06.71,12.75,12.75,0,0,0-1.61,2,17.08,17.08,0,0,1-1.76,2.25,20.33,20.33,0,0,0-3.37,5.55c-.29.84.77,2.11,1.61,2.11,2.82,0,5.55-2.25,7.45-3.72.35-.29.77-.57,1.05-.78a.58.58,0,0,1,.49.07,1.38,1.38,0,0,0,.21.14,2.18,2.18,0,0,0,.78-1.05,1.2,1.2,0,0,0,.28-.49,4.29,4.29,0,0,1,.35-.42.54.54,0,0,1,.21.07,3.39,3.39,0,0,1,.63.91c.57,1.12,1.48,2.95,5,2.95,2,0,3.3,0,7.52-2.18,1.33-.63,2.31-1.54,2.31-2.18a.33.33,0,0,0-.28-.21A3.58,3.58,0,0,0,204.5,192Zm-11.59-6.33a.78.78,0,0,0-.07.35c-.21,2.39-6.32,7.52-9.14,8.93-.34.14-1.75.63-1.75,0,0-2.6,7.3-10.26,9.76-10.26.15,0,.28-.07.43-.07s.42,0,.83.21h.08C193.12,184.89,193,185.38,192.91,185.66Z"/><path class="cls-1" d="M243.11,193.44a22,22,0,0,0-1.42,2.83c-.29.84.77,2.11,1.61,2.11,2.82,0,5.55-2.25,7.45-3.72.35-.29.77-.57,1.05-.78a.57.57,0,0,1,.49.07,1,1,0,0,0,.21.14,2.11,2.11,0,0,0,.77-1.05,1.14,1.14,0,0,0,.29-.49,4.29,4.29,0,0,1,.35-.42.54.54,0,0,1,.21.07,3.39,3.39,0,0,1,.63.91c.57,1.12,1.48,2.95,5,2.95,2,0,3.3,0,7.52-2.18,1.33-.63,2.31-1.54,2.31-2.18a.33.33,0,0,0-.28-.21,3.58,3.58,0,0,0-1.82.5,15.82,15.82,0,0,1-6.32,1.89c-1.83,0-3.45-.56-4-1.82-.49-1.06.14-2.74,1.47-2.74a1.28,1.28,0,0,1,.43.07v-.5a2.59,2.59,0,0,0-.43-1.33,3.1,3.1,0,0,1-.21-1.12,2.76,2.76,0,0,1,.5-1.48,2.22,2.22,0,0,0,.42-1.05c0-.77-2-2.18-2.53-2.18a3.18,3.18,0,0,1-.56.21h.07c-.07.07-.28.07-.36.07s-.13.07-.21.07h.08a3.61,3.61,0,0,1-.85.21,5.86,5.86,0,0,1-.7.14,13.12,13.12,0,0,0-3.51,2.46,9.65,9.65,0,0,1-1.26.91,5.3,5.3,0,0,0-1.06.71,13.37,13.37,0,0,0-1.61,2,18,18,0,0,1-1.76,2.25c-.45.55-.85,1.07-1.2,1.57m12-6.63a.78.78,0,0,0-.07.35c-.21,2.39-6.32,7.52-9.14,8.93-.35.14-1.75.63-1.75,0,0-2.6,7.3-10.26,9.76-10.26.14,0,.28-.07.43-.07s.42,0,.83.21H256C256.09,184.89,255.94,185.38,255.88,185.66Z"/><path class="cls-1" d="M414.58,180c3,.07,6.25.15,8.15.07,1.47-.07,4.7.08,7.45.22s5.12.28,5.26.07a3.26,3.26,0,0,0-1.82-3,10.18,10.18,0,0,0-1.69.36,13.86,13.86,0,0,1-2.46.42c-.28,0-1,.07-1.89.07-1.69.07-4.08.07-6,.07h-2c-1.05,0-2.95-.14-5-.28-2.81-.14-5.76-.28-7.09-.28a34.17,34.17,0,0,0-5.41.49c-1.9.28-3.23.7-3.23,1.12a5.37,5.37,0,0,0,1.33,1.69,22.89,22.89,0,0,1,2,2c.56.56,2,2,3.16,3.3s2.39,2.53,2.67,2.88a16.44,16.44,0,0,1,1.34,2.81h-3.8a28.87,28.87,0,0,1-3.37-.14c-1-.14-1.9-.43-1.9-1.13a3.87,3.87,0,0,1,.91-2.11c.07-.14.28-.42.36-.56v.07a3.23,3.23,0,0,0,.35-.7c0-.14.07-.21.14-.35a3.29,3.29,0,0,0,.21-1.2c0-.49-.07-.84-.63-1.05a2.72,2.72,0,0,0-2.81.77,22.43,22.43,0,0,1-4.22,3.51l-.56.22-.63.42h.07l-.63.35a10.67,10.67,0,0,0-1,.77c-1.26.91-2.53,1.76-2.81,1.9s-.7.28-1.05.49H388c-.49.28-1,.56-1.47.77-.78.5-1.41.56-1.48,0-.14-1,1.54-3,2.74-4.07a3.45,3.45,0,0,1,1.26-.85l1.06-.7h-.08a7.46,7.46,0,0,0,2.26-1.68c.13-.14.63-.64.84-.92l.91-.91c.49-.56.84-1,.84-1.26a9.06,9.06,0,0,0-.07-1.34c-.06-.42-.28-.84-.84-.7-1.12.21-1.48.49-2.32,1.68a23.41,23.41,0,0,1-3.09,3.17c-1.4,1.33-2.95,2.74-4,3.79-.41.4-.94.91-1.43,1.42A3.22,3.22,0,0,0,382,192a15.82,15.82,0,0,1-6.32,1.89c-1.83,0-3.44-.56-4-1.82-.49-1.06.14-2.74,1.48-2.74a1.23,1.23,0,0,1,.42.07v-.5a2.67,2.67,0,0,0-.42-1.33,2.9,2.9,0,0,1-.21-1.12,2.84,2.84,0,0,1,.49-1.48,2.22,2.22,0,0,0,.42-1.05c0-.77-2-2.18-2.53-2.18a3.18,3.18,0,0,1-.56.21h.07c-.07.07-.28.07-.35.07s-.14.07-.21.07h.07a3.49,3.49,0,0,1-.84.21,6.31,6.31,0,0,1-.71.14,13.12,13.12,0,0,0-3.51,2.46,9,9,0,0,1-1.26.91,5.6,5.6,0,0,0-1.06.71,13.37,13.37,0,0,0-1.61,2,17.08,17.08,0,0,1-1.76,2.25c-.18.22-.32.43-.49.64a9.86,9.86,0,0,0-1.22.7c-.7.42-1.19.77-2,1.19-2.18,1.12-4.64,2.39-7.1,2.6-1.06.14-1.47-1-1.47-2.32a13.38,13.38,0,0,1,2-6.74l.21-.28A4,4,0,0,0,350,186a2.49,2.49,0,0,0,.78-1.27c0-.91-1.19-1.26-1.76-1.26h-.42a2,2,0,0,0-.85,1.05c-.06.14-.06.21-.13.28a4.91,4.91,0,0,1-.42.63.61.61,0,0,0-.22.35,1,1,0,0,1-.14.36,1.53,1.53,0,0,1-.28.35l-.21.28c-.07.14-.21.49-.28.63a1.53,1.53,0,0,1-.28.35c-1.41,1.33-6.46,5.41-8.57,5.62-.07,0-.14-.14-.14-.14a19.17,19.17,0,0,0,.63-3c.22-1.13.5-2.11.78-3.09s.77-2.32,1.75-2.74a1.13,1.13,0,0,1,.63-.21c.14-.07.22-.07.28-.14a2.38,2.38,0,0,0,.71-1.69c0-.28-.28-.91-.71-.91-1.33,0-4.28,2.46-5.19,3.37a63,63,0,0,1-8.29,7.38c-1.27,1.05-4.08,3.51-5.76,2.88v-.35l-.21-.64c-.07-.14-.21-.56-.36-.84a3.78,3.78,0,0,1-.13-.42,1.48,1.48,0,0,0-.53-.88c.4-.37.72-.72.72-1s-.28-.35-.41-.35a9.81,9.81,0,0,0-3.52,1.62c-2.1,1.26-5.12,2.88-7.79,2.88-1.48,0-2.18-.35-2.18-2.32a11.42,11.42,0,0,1,.77-3.51,8.87,8.87,0,0,1,.42-.85,17,17,0,0,0,1.55-3c0-.35-.77-.84-.91-.84-.71,0-1.83,1.4-2.46,2.18l-.29.28c-1.26,1.26-2.59,2.46-3.93,3.58-1.05.91-3.93,3.3-6.6,3.3-.35,0-1.06,0-1.06-.63,0-1.26,1.62-3.09,3.38-4.92a22.59,22.59,0,0,0,3.58-4.7,3.21,3.21,0,0,0-1.33-1.76c-.5,0-3.09,2-3.58,2.53l-.43.42c-.28.21-.84.56-.7.49-1.41.92-2.46,1.62-3.65,2.46-2.53,1.69-4.78,3.3-7.45,4.78-.07.07-.14.14-.21.14-.49.21-.91.49-.91,1s.21.63.56.63a3,3,0,0,0,1.47-.49c3.94-2.39,6.61-4.07,10-6.25a.45.45,0,0,1,.35-.14c.07.7-1.47,2.39-1.47,2.39s-3.73,3.37-3.73,5.9c0,1.12.85,1.4,2.25,1.4,3.09,0,9.2-4.07,12.29-6.6a17.26,17.26,0,0,0-.7,4.21c0,2.25,1.06,2.81,2.88,2.81,2.61,0,7-1.74,10.33-3.79a5.43,5.43,0,0,0-.14.84,3.59,3.59,0,0,1-.14.85,2.87,2.87,0,0,0-.07.77c0,.7,2.18,1.62,2.53,1.62,1.76,0,3.51-.85,6-2.32a40.44,40.44,0,0,0,4.78-3.58c2.74-2.39,2.25-2,4.49-3.94a7.22,7.22,0,0,1-.49,2.25c-.56,1.55-1.05,3.86-1.47,4.49.35,1.27,1.4,1.55,2.53,1.55a3.41,3.41,0,0,1,.77-.28,50.53,50.53,0,0,0,7.94-4.92c-.08.28-.14.92-.21,1.27a12.94,12.94,0,0,0-.29,2.46c0,1.75.57,3.3,2.46,3.58,2.47.27,6.52-1.46,10.47-3.85-.3.59-.58,1.17-.82,1.74a1.94,1.94,0,0,0,1.61,2.11c2.82,0,5.55-2.25,7.45-3.72.35-.29.77-.57,1.05-.78a.57.57,0,0,1,.49.07,1.38,1.38,0,0,0,.21.14,2.18,2.18,0,0,0,.78-1.05,1.2,1.2,0,0,0,.28-.49,4.29,4.29,0,0,1,.35-.42.54.54,0,0,1,.21.07,3.18,3.18,0,0,1,.63.91c.57,1.12,1.48,2.95,5,2.95a11.22,11.22,0,0,0,5.51-1.21c-.82.85-1.39,1.6-1.34,1.91.21.92,2.1,1.2,2.59,1.12a8,8,0,0,0,1.41-.77l.77-.42a.66.66,0,0,1,.36-.21,17.23,17.23,0,0,0,4.28-1.19,41.59,41.59,0,0,0,6.95-4.71c.85-.77,2-1.61,2.32-1.9v.14c-.07.71-.21,2.74.56,3.17a22.14,22.14,0,0,0,6.11,1.26c.92,0,3.8.14,4.43.21.21.35,2.39,4.29,3.23,4.78h-.07c.85.49,2.32.49,2.6.07l.28-.56a2.11,2.11,0,0,0-.07-2c-.21-.28-.56-.7-.91-1.13s-.71-.91-1.05-1.33a9.78,9.78,0,0,1-1-1.26,1.37,1.37,0,0,1-.42-.5s-.14-.07.14-.07a4.47,4.47,0,0,0,.28-.7,1.29,1.29,0,0,0-.35-1.33c-1.41-1.34-8.22-8.22-8-8.71s3.86-.85,6.81-.85C410.93,179.83,412.69,179.9,414.58,180Zm-44.13,5.69a.78.78,0,0,0-.07.35c-.21,2.39-6.32,7.52-9.14,8.93-.34.14-1.75.63-1.75,0,0-2.6,7.3-10.26,9.76-10.26.15,0,.29-.07.43-.07s.42,0,.84.21h.07C370.66,184.89,370.52,185.38,370.45,185.66Z"/><path class="cls-1" d="M452.72,190.51a9.78,9.78,0,0,0-3.51,1.62c-2.11,1.26-5.12,2.88-7.79,2.88-1.48,0-2.18-.35-2.18-2.32a11.42,11.42,0,0,1,.77-3.51,8.87,8.87,0,0,1,.42-.85,17,17,0,0,0,1.55-3c0-.35-.77-.84-.92-.84-.7,0-1.82,1.4-2.46,2.18l-.28.28c-1.26,1.26-2.6,2.46-3.93,3.58-1.05.91-3.93,3.3-6.6,3.3-.35,0-1.06,0-1.06-.63,0-1.26,1.62-3.09,3.38-4.92a23,23,0,0,0,3.58-4.7,3.18,3.18,0,0,0-1.34-1.76c-.49,0-3.08,2-3.58,2.53l-.42.42c-.28.21-.84.56-.7.49-1.41.92-2.46,1.62-3.65,2.46-2.53,1.69-4.78,3.3-7.45,4.78-.07.07-.14.14-.21.14-.5.21-.91.49-.91,1s.21.63.56.63a3.05,3.05,0,0,0,1.47-.49c3.93-2.39,6.6-4.07,10-6.25a.45.45,0,0,1,.35-.14c.07.7-1.48,2.39-1.48,2.39s-3.72,3.37-3.72,5.9c0,1.12.84,1.4,2.25,1.4,3.09,0,9.2-4.07,12.29-6.6a17.26,17.26,0,0,0-.7,4.21c0,2.25,1.05,2.81,2.88,2.81,2.74,0,7.45-1.89,10.82-4.07.63-.35,3-1.76,3-2.6C453.14,190.65,452.86,190.51,452.72,190.51Z"/><path class="cls-1" d="M231.1,178.91c.61,0,1.94.12,3.22.25.92.12,1.78.24,2.25.24h.92c.86,0,1.94,0,2.71-.06.41,0,.73-.06.85-.06a3.45,3.45,0,0,0,1.12-.37,2.74,2.74,0,0,1,.76-.3c.64.42.83,1.89.83,2.62-.07.18-1.08.12-2.39-.06A25.33,25.33,0,0,0,238,181a36.7,36.7,0,0,1-3.68-.06c-.86-.06-1.66-.12-2.2-.12Z"/><path class="cls-1" d="M245.55,192.08c-.48.37-.9.75-1.37,1.13a19.07,19.07,0,0,1-3.43,2.38,8.12,8.12,0,0,1-3.48,1.06,4.49,4.49,0,0,1-1.26-.12c-1.7-.38-2.36-4-2.73-6.52a9.83,9.83,0,0,1-.19-1.06,14.69,14.69,0,0,0-1,1.5,19.36,19.36,0,0,1-2.78,3.7c-.23.19-.7.62-1.12,1-1.79,1.56-4.85,4.32-5.32,4.32a1,1,0,0,1-.89-1.06,75.73,75.73,0,0,0,10.29-11.15l.47-.63c1-1.44,2.78-3.88,3.39-3.88a1.22,1.22,0,0,1,1.17,1.12,6.62,6.62,0,0,1-.37,1.32,9.67,9.67,0,0,0-.61,1.5,13.85,13.85,0,0,0-1,4.7c0,2.32,1.08,3.45,2.68,3.45,2.07,0,4.75-2.07,6.82-3.64.28-.18.61-.5,1.17-.87a.58.58,0,0,1,.33.5,1.39,1.39,0,0,1-.75,1.25Z"/><path class="cls-1" d="M28,52.16H56.11v82.18h26V52.16h28.11v82.18h26V52.16h28.11V159.68H28Z"/><path class="cls-1" d="M193.79,159.68H166.92v-4L215.31,50.78h11.83l48.52,104.91v4H248.79l-27.64-63Z"/><path class="cls-1" d="M288.55,159.84h-9.83V52.16h28.12v52.69l54.37-53.14h10v108H342.78V106.84Z"/><path class="cls-1" d="M425.32,151.08c-27.81-.92-50.69-11.83-50.69-45.31,0-33.33,22.73-44.08,50.52-45V51.71h26.43v9.06c27.8.92,50.53,11.67,50.53,45,0,33.48-22.89,44.39-50.68,45.31v9.07H425.32Zm.3-25.34V86c-11.82.46-22.89,4.45-22.89,19.81S414.41,125.12,425.62,125.74ZM451.12,86v39.78c11.22-.62,22.89-4.61,22.89-20S463,86.42,451.12,86Z"/></svg>