<svg enable-background="new 0 0 907.09 1275.59" height="1275.59" viewBox="0 0 907.09 1275.59" width="907.09" xmlns="http://www.w3.org/2000/svg"><g fill="#384af4"><path d="m88.985 566.833h-6.708c-10.428-32.812-13.181-45.272-32.252-45.272-19.072 0-30.318 8.311-30.318 22.75 0 34.994 78.353 21.437 78.353 75.676 0 33.683-19.685 55.12-53.948 55.12-14.955 0-28.135-5.032-42.531-14.438v-45.929h6.687c12.998 45.929 15.384 55.551 40.359 55.551 13.976 0 29.727-9.622 29.727-26.685-.001-36.317-78.354-22.739-78.354-78.74 0-27.555 18.696-48.122 49.616-48.122 13.576.046 26.991 2.951 39.37 8.526v41.563z"/><path d="m109.262 563.619h-7.525v-3.548h36.553l20.168 75.256h.291l21.749-75.256h35.242v3.548h-7.525v104.445h7.525v3.494h-44.391v-3.537h10.428v-100.843h-.29l-29.436 104.381h-8.407l-29.877-104.381h-.441v100.887h10.439v3.494h-22.05v-3.537h7.525z"/><path d="m266.064 671.559h-41.477v-3.537h7.525v-104.403h-7.525v-3.548h41.477v3.548h-7.525v104.445h7.525z"/><path d="m293.759 671.559v-3.537h7.526v-104.403h-4.559c-11.75 0-14.073 21.275-16.825 32.403h-4.924v-35.951h79.192v35.951h-4.946c-2.806-11.128-5.128-32.403-17.019-32.403h-4.505v104.445h7.526v3.494h-41.466z"/><path d="m405.311 671.559h-42.337v-3.537h7.525v-104.403h-7.525v-3.548h42.337v3.548h-8.429v48.035h26.404v-48.035h-8.407v-3.548h42.359v3.548h-7.526v104.445h7.526v3.494h-42.359v-3.537h8.407v-52.819h-26.372v52.862h8.396v3.495z"/><path d="m504.639 520.238 34.07 119.003h.784l35.618-119.003h36.833v4.816h-12.601v141.73h12.601v4.773h-52.755v-4.816h18.878v-139.493h-.387l-43.294 144.311h-6.72l-41.336-144.311h-.387v139.537h15.352v4.773h-35.048v-4.816h14.191v-141.687h-14.191v-4.816h38.392z"/><path d="m619.566 671.559v-3.537h8.697v-104.403h-8.697v-3.548h33.017v3.548h-8.602v104.445h8.602v3.494h-33.017z"/><path d="m728.076 595.861h-3.226c-8.944-30.941-11.708-34.823-23.018-34.823-15.052 0-24.813 12.901-24.813 54.83s8.429 54.83 26.125 54.83c12.17-.172 16.126-9.676 22.577-39.66h3.225v36.435c-7.863 4.467-16.759 6.798-25.802 6.763-24.663 0-44.079-22.577-44.079-58.346s19.438-58.334 44.079-58.334c8.687-.044 17.251 2.058 24.932 6.117z"/><path d="m741.009 671.559v-3.537h8.698v-104.403h-8.698v-3.548h42.198c24.361 0 32.93 12.9 32.93 26.877 0 15.632-11.03 26.437-31.898 27.888l34.5 53.186h7.106v3.537h-23.061l-36.833-56.68h-.58v53.186h11.03v3.494zm24.362-59.303h8.601c17.266 0 25.662-9.354 25.662-25.308 0-11.277-5.085-23.372-21.018-23.372h-13.245z"/><path d="m865.312 557.502c21.911 0 41.778 22.878 41.778 58.334 0 35.457-19.867 58.346-41.778 58.346-21.91 0-41.789-22.878-41.789-58.346-.001-35.467 19.9-58.334 41.789-58.334zm0 113.143c16.127 0 23.792-12.568 23.792-54.83s-7.688-54.83-23.792-54.83-23.781 12.579-23.781 54.83 7.687 54.83 23.781 54.83z"/><path d="m68.591 743.654c.035 5.645 4.58 10.224 10.225 10.299 5.805 0 10.568-4.214 10.568-10.095-.046-2.815-1.333-5.468-3.516-7.246-2.354-1.946-4.978-2.634-7.87-3.387-3.225-.839-6.451-1.655-8.977-3.87-2.773-2.377-4.348-5.862-4.3-9.515 0-8.235 6.451-13.761 14.514-13.761 7.605-.113 13.862 5.96 13.975 13.565.001.083.001.166.001.249h-5.279c-.111-5.028-4.277-9.014-9.305-8.902-.009 0-.018 0-.027.001-4.869.053-8.772 4.042-8.719 8.911v.033c0 6.149 5.106 7.59 10.084 8.978 3.656 1.074 6.838 1.666 9.805 4.354 3.066 2.728 4.803 6.647 4.763 10.751 0 8.418-7.246 14.912-15.535 14.912-8.698 0-15.89-6.29-15.826-15.191z"/><path d="m213.75 732.258c-.106 14.79-12.183 26.694-26.973 26.588-.008 0-.015 0-.023 0-14.299 0-26.942-11.536-26.942-26.179.077-14.761 12.104-26.665 26.865-26.588.025 0 .051 0 .077.001 14.439 0 26.996 11.535 26.996 26.178zm-5.096 0c0-11.826-10.16-21.265-21.835-21.265-11.994-.096-21.793 9.55-21.888 21.544 0 .043 0 .086-.001.13 0 11.826 10.289 21.286 21.889 21.286 11.994.065 21.77-9.604 21.835-21.598 0-.032 0-.064 0-.097z"/><path d="m282.825 706.907h25.899v4.634h-20.803v18.438h20.04v4.634h-20.04v23.33h-5.096z"/><path d="m384.045 711.541h-11.729v-4.634h28.457v4.634h-11.589v46.401h-5.118z"/><path d="m462.699 706.907h5.376l12.492 44.477 12.224-44.477h4.827l12.235 44.412 12.503-44.412h5.311l-14.578 51.035h-6.719l-11.182-41.842-11.256 41.843h-6.72z"/><path d="m611.88 706.907h5.654l21.911 51.035h-5.526l-7.386-17.126h-23.76l-7.396 17.126h-5.537zm12.642 29.286-9.805-23.405-9.944 23.405z"/><path d="m706.229 706.907h12.149c4.838 0 10.224.075 14.503 2.483 5.056 2.896 8.112 8.335 7.955 14.159-.056 8.336-6.718 15.122-15.051 15.331l14.374 19.062h-6.365l-17.352-23.126h1.526c3.591 0 7.72.141 11.116-1.387 4.091-1.804 6.7-5.884 6.623-10.353-.05-3.626-1.816-7.014-4.763-9.128-3.365-2.408-7.525-2.408-11.525-2.408h-8.073v46.401h-5.118v-51.034z"/><path d="m808.901 706.907h27.952v4.634h-22.792v18.362h22.029v4.623h-22.062v18.793h22.792v4.623h-27.952z"/></g></svg>