<svg xmlns="http://www.w3.org/2000/svg" viewBox="0 0 843.73 225.19"><defs><style>.cls-1{fill:#fff3df;}</style></defs><title>Asset 19</title><g id="Layer_2" data-name="Layer 2"><g id="Layer_1-2" data-name="Layer 1"><path class="cls-1" d="M82.77,46.59H76.53c-9.7-30.52-12.26-42.11-30-42.11s-28.2,7.73-28.2,21.16c0,32.55,72.88,19.94,72.88,70.39,0,31.33-18.31,51.27-50.18,51.27-13.91,0-26.17-4.68-39.56-13.43V91.15H7.69C19.78,133.87,22,142.82,45.23,142.82c13,0,27.65-8.95,27.65-24.82C72.88,84.22,0,96.85,0,44.76,0,19.13,17.39,0,46.15,0A89.92,89.92,0,0,1,82.77,7.93Z"/><path class="cls-1" d="M101.63,43.6h-7V40.3h34l18.76,70h.27l20.23-70h32.78v3.3h-7v97.15h7V144H159.38v-3.29h9.7V46.91h-.27L141.43,144h-7.82L105.82,46.91h-.41v93.84h9.71V144H94.61v-3.29h7Z"/><path class="cls-1" d="M247.48,144H208.9v-3.29h7V43.6h-7V40.3h38.58v3.3h-7v97.15h7Z"/><path class="cls-1" d="M273.24,144v-3.29h7V43.6H276c-10.93,0-13.09,19.79-15.65,30.14h-4.58V40.3h73.66V73.74h-4.6C322.22,63.39,320.06,43.6,309,43.6h-4.19v97.15h7V144Z"/><path class="cls-1" d="M377,144H337.62v-3.29h7V43.6h-7V40.3H377v3.3h-7.84V88.28h24.56V43.6h-7.82V40.3h39.4v3.3h-7v97.15h7V144h-39.4v-3.29h7.82V91.58H369.19v49.17H377Z"/><path class="cls-1" d="M469.39,3.25l31.69,110.69h.73L534.94,3.25H569.2V7.73H557.48V139.56H569.2V144H520.13v-4.48h17.56V9.77h-.36L497.06,144h-6.25L452.36,9.77H452V139.56h14.28V144H433.68v-4.48h13.2V7.73h-13.2V3.25Z"/><path class="cls-1" d="M576.29,144v-3.29h8.09V43.6h-8.09V40.3H607v3.3H599v97.15H607V144Z"/><path class="cls-1" d="M677.22,73.59h-3C665.9,44.81,663.33,41.2,652.81,41.2c-14,0-23.08,12-23.08,51s7.84,51,24.3,51c11.32-.16,15-9,21-36.89h3v33.89a48.22,48.22,0,0,1-24,6.29c-22.94,0-41-21-41-54.27s18.08-54.26,41-54.26a49.11,49.11,0,0,1,23.19,5.69Z"/><path class="cls-1" d="M689.25,144v-3.29h8.09V43.6h-8.09V40.3H728.5c22.66,0,30.63,12,30.63,25,0,14.54-10.26,24.59-29.67,25.94l32.09,49.47h6.61V144H746.71L712.45,91.28h-.54v49.47h10.26V144Zm22.66-55.16h8c16.06,0,23.87-8.7,23.87-23.54,0-10.49-4.73-21.74-19.55-21.74H711.91Z"/><path class="cls-1" d="M804.87,37.91c20.38,0,38.86,21.28,38.86,54.26s-18.48,54.27-38.86,54.27S766,125.16,766,92.17,784.51,37.91,804.87,37.91Zm0,105.24c15,0,22.13-11.69,22.13-51s-7.15-51-22.13-51-22.12,11.7-22.12,51S789.9,143.15,804.87,143.15Z"/><path class="cls-1" d="M63.8,211.06a9.64,9.64,0,0,0,9.51,9.58c5.4,0,9.83-3.92,9.83-9.39a8.88,8.88,0,0,0-3.27-6.74c-2.19-1.81-4.63-2.45-7.32-3.15-3-.78-6-1.54-8.35-3.6a11.46,11.46,0,0,1-4-8.85c0-7.66,6-12.8,13.5-12.8a12.81,12.81,0,0,1,13,12.85H81.79a8.47,8.47,0,0,0-8.68-8.28A8.2,8.2,0,0,0,65,189c0,5.72,4.75,7.06,9.38,8.35,3.4,1,6.36,1.55,9.12,4.05a13.21,13.21,0,0,1,4.43,10c0,7.83-6.74,13.87-14.45,13.87-8.09,0-14.78-5.85-14.72-14.13Z"/><path class="cls-1" d="M198.82,200.46a24.91,24.91,0,0,1-25.11,24.73c-13.3,0-25.06-10.73-25.06-24.35a24.86,24.86,0,0,1,25.06-24.73C187.14,176.11,198.82,186.84,198.82,200.46Zm-4.74,0c0-11-9.45-19.78-20.31-19.78a20.2,20.2,0,0,0-20.36,20.16c0,11,9.57,19.8,20.36,19.8A20.2,20.2,0,0,0,194.08,200.46Z"/><path class="cls-1" d="M263.07,176.88h24.09v4.31H267.81v17.15h18.64v4.31H267.81v21.7h-4.74Z"/><path class="cls-1" d="M357.22,181.19H346.31v-4.31h26.47v4.31H362v43.16h-4.76Z"/><path class="cls-1" d="M430.38,176.88h5L447,218.25l11.37-41.37h4.49l11.38,41.31,11.63-41.31h4.94l-13.56,47.47H471l-10.4-38.92-10.47,38.92h-6.25Z"/><path class="cls-1" d="M569.14,176.88h5.26l20.38,47.47h-5.14l-6.87-15.93h-22.1l-6.88,15.93h-5.15Zm11.76,27.24-9.12-21.77-9.25,21.77Z"/><path class="cls-1" d="M656.9,176.88h11.3c4.5,0,9.51.07,13.49,2.31a14.72,14.72,0,0,1,7.4,13.17,14.36,14.36,0,0,1-14,14.26l13.37,17.73h-5.92L666.4,202.84h1.42c3.34,0,7.18.13,10.34-1.29a10.33,10.33,0,0,0,6.16-9.63,10.63,10.63,0,0,0-4.43-8.49c-3.13-2.24-7-2.24-10.72-2.24h-7.51v43.16H656.9Z"/><path class="cls-1" d="M752.4,176.88h26v4.31h-21.2v17.08h20.49v4.3H757.17v17.48h21.2v4.3h-26Z"/></g></g></svg>