<svg enable-background="new 0 0 907.1 400" viewBox="0 0 907.1 400" xmlns="http://www.w3.org/2000/svg"><g fill="#384af4"><path d="m177.1 146.2h-5.1c-7.9-24.9-10-34.3-24.5-34.3s-23 6.3-23 17.3c0 26.5 59.4 16.3 59.4 57.4 0 25.5-14.9 41.8-40.9 41.8-11.3 0-21.3-3.8-32.3-10.9v-34.8h5.1c9.9 34.8 11.7 42.1 30.6 42.1 10.6 0 22.5-7.3 22.5-20.2 0-27.5-59.4-17.2-59.4-59.7 0-20.9 14.2-36.5 37.6-36.5 10.3 0 20.5 2.2 29.9 6.5z"/><path d="m192.5 143.8h-5.7v-2.7h27.7l15.3 57.1h.2l16.5-57.1h26.7v2.7h-5.7v79.2h5.7v2.6h-33.7v-2.7h7.9v-76.5h-.2l-22.3 79.2h-6.4l-22.7-79.2h-.3v76.6h7.9v2.6h-16.7v-2.7h5.7z"/><path d="m311.4 225.6h-31.5v-2.7h5.7v-79.2h-5.7v-2.7h31.5v2.7h-5.7v79.3h5.7z"/><path d="m332.4 225.6v-2.7h5.7v-79.2h-3.5c-8.9 0-10.7 16.1-12.8 24.6h-3.7v-27.3h60.1v27.3h-3.8c-2.1-8.4-3.9-24.6-12.9-24.6h-3.4v79.3h5.7v2.6z"/><path d="m417 225.6h-32.1v-2.7h5.7v-79.2h-5.7v-2.7h32.1v2.7h-6.4v36.4h20v-36.4h-6.4v-2.7h32.1v2.7h-5.7v79.3h5.7v2.6h-32.1v-2.7h6.4v-40.1h-20v40.2h6.4z"/><path d="m492.3 110.9 25.8 90.2h.6l27-90.2h27.9v3.7h-9.6v107.4h9.6v3.6h-40v-3.6h14.4v-105.8h-.3l-32.8 109.4h-5.1l-31.3-109.4h-.3v105.8h11.6v3.6h-26.6v-3.6h10.8v-107.5h-10.8v-3.7z"/><path d="m579.4 225.6v-2.7h6.6v-79.2h-6.6v-2.7h25v2.7h-6.4v79.3h6.5v2.6z"/><path d="m661.7 168.2h-2.4c-6.8-23.5-8.9-26.4-17.5-26.4-11.4 0-18.8 9.8-18.8 41.6s6.4 41.6 19.8 41.6c9.2-.1 12.2-7.3 17.1-30.1h2.4v27.6c-6 3.4-12.7 5.2-19.6 5.1-18.7 0-33.4-17.1-33.4-44.2s14.7-44.2 33.4-44.2c6.6 0 13.1 1.6 18.9 4.6v24.4z"/><path d="m671.5 225.6v-2.7h6.6v-79.2h-6.6v-2.7h32c18.5 0 25 9.8 25 20.4 0 11.9-8.4 20-24.2 21.1l26.2 40.3h5.4v2.7h-17.5l-27.9-43h-.5v40.5h8.4v2.6zm18.5-45h6.5c13.1 0 19.5-7.1 19.5-19.2 0-8.6-3.9-17.7-15.9-17.7h-10v36.9z"/><path d="m765.8 139.1c16.6 0 31.7 17.3 31.7 44.2s-15.1 44.2-31.7 44.2-31.7-17.3-31.7-44.2c0-26.8 15.1-44.2 31.7-44.2zm0 85.8c12.2 0 18-9.5 18-41.6s-5.8-41.6-18-41.6-18 9.5-18 41.6 5.8 41.6 18 41.6z"/><path d="m161.6 280.3c0 4.3 3.5 7.8 7.8 7.8 4.4 0 8-3.2 8-7.7 0-2.1-1-4.1-2.7-5.5-1.8-1.5-3.8-2-6-2.6-2.4-.6-4.9-1.3-6.8-2.9-2.1-1.8-3.3-4.4-3.3-7.2 0-6.2 4.9-10.4 11-10.4 5.8-.1 10.5 4.5 10.6 10.3v.2h-4c-.1-3.8-3.2-6.8-7.1-6.8-3.7 0-6.7 3.1-6.6 6.8 0 4.7 3.9 5.8 7.6 6.8 2.8.8 5.2 1.3 7.4 3.3 2.3 2.1 3.6 5 3.6 8.2 0 6.4-5.5 11.3-11.8 11.3-6.6 0-12-4.8-12-11.5z"/><path d="m271.7 271.6c-.1 11.2-9.2 20.2-20.5 20.2-10.8 0-20.4-8.7-20.4-19.9.1-11.2 9.2-20.2 20.4-20.2h.1c10.9.1 20.4 8.8 20.4 19.9zm-3.9 0c0-9-7.7-16.1-16.6-16.1-9.1-.1-16.5 7.2-16.6 16.3v.1c0 9 7.8 16.1 16.6 16.1 9.2.1 16.6-7.2 16.6-16.4 0 .1 0 .1 0 0z"/><path d="m324.1 252.4h19.6v3.5h-15.8v14h15.2v3.5h-15.2v17.7h-3.9z"/><path d="m400.8 255.9h-8.9v-3.5h21.6v3.5h-8.8v35.2h-3.9z"/><path d="m460.5 252.4h4.1l9.5 33.7 9.3-33.7h3.7l9.3 33.7 9.5-33.7h4l-11.1 38.7h-5.1l-8.5-31.7-8.5 31.7h-5.1z"/><path d="m573.6 252.4h4.3l16.6 38.7h-4.2l-5.6-13h-18l-5.6 13h-4.2zm9.6 22.2-7.4-17.7-7.5 17.7z"/><path d="m645.2 252.4h9.2c3.7 0 7.8.1 11 1.9 3.8 2.2 6.2 6.3 6 10.7 0 6.3-5.1 11.5-11.4 11.6l10.9 14.5h-4.8l-13.2-17.5h1.2c2.7 0 5.9.1 8.4-1.1 3.1-1.4 5.1-4.5 5-7.9 0-2.7-1.4-5.3-3.6-6.9-2.6-1.8-5.7-1.8-8.7-1.8h-6.2v35.2h-3.9z"/><path d="m723 252.4h21.2v3.5h-17.3v13.9h16.7v3.5h-16.7v14.3h17.3v3.5h-21.2z"/></g></svg>