<svg xmlns="http://www.w3.org/2000/svg" viewBox="0 0 1090.26 137.11"><defs><style>.cls-1{fill:#fff3df;}</style></defs><title>Asset 2</title><g id="Layer_2" data-name="Layer 2"><g id="Layer_1-2" data-name="Layer 1"><rect class="cls-1" x="34.19" width="34.19" height="34.19"/><rect class="cls-1" y="68.37" width="34.19" height="34.19"/><rect class="cls-1" x="68.2" y="102.92" width="34.19" height="34.19"/><path class="cls-1" d="M222.4,83.69a27.39,27.39,0,0,1-4.28,15,25.84,25.84,0,0,1-12.28,10.14,51.24,51.24,0,0,1-19.23,3.74,125.21,125.21,0,0,1-15.49-1.06,40.29,40.29,0,0,1-12.82-4.28V85.29a72.87,72.87,0,0,0,14.95,5.88,46.42,46.42,0,0,0,13.89,2.13c3.74,0,6.41-.53,8-2.13s2.67-2.67,2.67-4.81a7.65,7.65,0,0,0-1.06-3.21,5.56,5.56,0,0,0-3.21-2.67c-1.6-.53-5.34-2.67-12.29-5.87-5.87-2.67-10.68-5.34-13.35-8s-5.34-5.34-6.41-8.54a35.54,35.54,0,0,1-2.14-11.75c0-8.55,3.21-15,9.08-19.77s14.43-6.94,25.11-6.94A70.43,70.43,0,0,1,222.4,26l-7.48,19.23c-8.55-3.74-16-5.88-21.9-5.88-3.21,0-5.34.54-7,1.6s-2.67,1.61-2.67,3.21,1.07,3.2,2.67,4.81,7,4.27,15,8,13.35,7.48,16.56,11.22S222.4,77.81,222.4,83.69Z"/><path class="cls-1" d="M306.08,49.14c0,10.15-3.2,18.17-9.08,23.51s-14.42,8.55-25.64,8.55h-6.94v30.44H239.85V20.48h31.51c11.76,0,20.3,2.67,26.18,7.48C303.41,32.58,306.08,40.06,306.08,49.14Zm-42,12.29h4.28a13.5,13.5,0,0,0,9.08-3.2c2.67-2.14,3.2-4.81,3.2-8.55,0-6.41-3.2-9.08-10.15-9.08h-6.41V61.43Z"/><path class="cls-1" d="M323.71,111.47V20.3h25.11v91.17Z"/><path class="cls-1" d="M412.39,39a16.11,16.11,0,0,0-13.89,7.47c-3.21,4.81-4.81,11.22-4.81,19.77,0,17.63,6.94,26.17,20.3,26.17a41.61,41.61,0,0,0,11.75-1.6A97.06,97.06,0,0,0,437,86.54v20.83c-7.48,3.21-16,4.81-26.18,4.81-13.88,0-24.57-4.28-31.51-12.29S368.05,81.2,368.05,66.24c0-9.62,1.6-17.63,5.34-25.11s8.55-12.82,15.49-16.56a47.94,47.94,0,0,1,23.51-5.87,64.5,64.5,0,0,1,28.31,6.41l-7.48,19.23c-3.21-1.61-6.94-2.67-10.15-4.28S416.13,39,412.39,39Z"/><path class="cls-1" d="M512.1,111.47H457.61V20.3H512.1V40.06H482.72V54.49H510V74.25H482.72V91.34H512.1Z"/><path class="cls-1" d="M544.69,111.47H534V20.3h51.28v9.61H544.69V63.57h37.92v9.61H544.69Z"/><path class="cls-1" d="M660.42,111.47,649.21,82.62H612.35l-11.22,28.85H590.45l36.32-91.71h9.08l35.79,91.71ZM646,73,635.32,44.69c-1.6-3.74-2.67-8-4.28-13.35-1.06,4.27-2.13,8.55-3.74,13.35L616.62,73Z"/><path class="cls-1" d="M726.48,28.31c-10.15,0-18.16,3.21-24,10.15s-8.55,16-8.55,27.78,2.67,21.37,8.55,27.78,13.35,9.61,24,9.61a87.16,87.16,0,0,0,21.91-3.2v9.08a75,75,0,0,1-23.51,3.74c-13.35,0-24-4.28-31-12.29S682.68,81.2,682.68,66.24c0-9.62,1.6-17.63,5.34-24.57s8.55-12.82,15.49-16.56A48,48,0,0,1,727,19.23c9.61,0,18.16,1.6,25.1,5.34l-4.27,9.08A46.76,46.76,0,0,0,726.48,28.31Z"/><path class="cls-1" d="M799.49,111.47H788.81V29.91H760V20.3h68.2v9.61H799.49v81.56Z"/><path class="cls-1" d="M924.84,65.7c0,14.43-3.74,26.18-11.21,34.73s-17.63,12.82-31,12.82-24-4.28-31-12.29S840.44,81.2,840.44,66.24s3.74-26.71,11.22-34.72,17.63-12.29,31.52-12.29c13.35,0,23.5,4.27,31,12.29S924.84,51.28,924.84,65.7Zm-73,0c0,12.29,2.67,21.91,8,28.32s12.82,9.61,23,9.61,17.63-3.2,23-9.61,8-16,8-28.32-2.67-21.9-7.48-27.77-12.82-9.62-23-9.62-17.62,3.21-23,9.62S851.84,53.42,851.84,65.7Z"/><path class="cls-1" d="M959,73.54v37.93H948.35V20.3h25.1c11.22,0,19.77,2.14,25.11,6.41s8,10.68,8,19.23c0,12.29-5.87,20.3-18.16,24.57l25.11,41.13H1000.7L978.8,73.72C978.8,73.54,959,73.54,959,73.54Zm0-8.9h14.42c7.48,0,12.82-1.61,16.56-4.28s5.34-7.48,5.34-13.35-1.6-10.15-5.34-12.82-9.08-4.28-17.09-4.28H959Z"/><path class="cls-1" d="M1053.94,66.24l24.57-45.94h11.75l-30.45,56.09v35.25h-10.68V76.39l-30.45-56.63h11.75Z"/></g></g></svg>