<svg enable-background="new 0 0 907.1 900" viewBox="0 0 907.1 900" xmlns="http://www.w3.org/2000/svg"><g fill="#384af4"><path d="m125.1 598h21.6v21.6h-21.6z"/><path d="m103.5 641.1h21.6v21.6h-21.6z"/><path d="m146.4 662.8h21.6v21.6h-21.6z"/><path d="m243.7 650.7c0 3.4-.9 6.6-2.7 9.4-1.8 2.9-4.6 5.2-7.7 6.5-3.8 1.6-8 2.3-12.1 2.3-3.2 0-6.5-.2-9.7-.7-2.9-.5-5.5-1.4-8.1-2.7v-13.7c3 1.6 6.1 2.9 9.5 3.7 2.9.9 5.8 1.4 8.8 1.4 2.3 0 4-.3 5.1-1.4 1-1 1.6-1.6 1.6-3-.1-.7-.3-1.4-.7-2-.5-.8-1.2-1.4-2-1.6-1-.3-3.3-1.6-7.7-3.7-3.7-1.6-6.7-3.3-8.4-5.1-1.7-1.7-3.3-3.3-4-5.4-.8-2.4-1.4-5-1.4-7.4-.1-4.8 2-9.5 5.8-12.5 3.7-3 9.1-4.4 15.8-4.4 6.2.1 12.5 1.4 18.1 4l-4.7 12.1c-5.4-2.3-10-3.7-13.9-3.7-1.5-.1-3.1.2-4.4 1-1 .7-1.6 1-1.6 2s.7 2 1.6 3c1 1 4.4 2.7 9.5 5.1 5 2.4 8.4 4.7 10.4 7 1.9 2.4 2.9 6.1 2.9 9.8z"/><path d="m296.3 628.9c0 6.5-2 11.5-5.8 14.8-3.7 3.4-9.1 5.4-16.2 5.4h-4.3v19.2h-15.5v-57.4h19.9c7.4 0 12.8 1.6 16.5 4.7 3.7 3.2 5.4 7.7 5.4 13.3zm-26.4 7.7h2.7c2.1.1 4.2-.7 5.8-2 1.6-1.4 2-3 2-5.4 0-4-2-5.8-6.5-5.8h-4z"/><path d="m307.4 668.3v-57.5h15.8v57.5z"/><path d="m363.4 622.6c-3.6-.1-6.8 1.7-8.8 4.7s-3 7-3 12.5c0 11.1 4.4 16.5 12.8 16.5 2.5 0 5-.3 7.4-1s4.7-1.6 7-2.7v13c-5.2 2.2-10.9 3.1-16.5 3-8.8 0-15.5-2.7-19.9-7.7-4.4-5.1-7-11.8-7-21.2 0-6.1 1-11.1 3.3-15.8 2.1-4.4 5.5-8.1 9.7-10.4 4.6-2.5 9.7-3.7 14.8-3.7 6.1 0 12.2 1.4 17.8 4l-4.7 12.1c-2-1-4.4-1.6-6.5-2.7-1.8-.9-4.1-.6-6.4-.6z"/><path d="m426.2 668.3h-34.4v-57.5h34.4v12.5h-18.5v9.1h17.2v12.5h-17.2v10.7h18.5z"/><path d="m446.7 668.3h-6.7v-57.5h32.3v6.1h-25.5v21.2h23.9v6h-23.9z"/><path d="m519.6 668.3-7-18.1h-23.2l-7 18.1h-6.7l22.8-57.8h5.8l22.5 57.8zm-9.1-24.3-6.7-17.8c-1-2.8-2-5.5-2.7-8.4-.7 2.7-1.4 5.4-2.3 8.4l-6.7 17.8z"/><path d="m561.2 615.7c-6.5 0-11.5 2-15.1 6.5-3.7 4.4-5.4 10-5.4 17.4s1.6 13.5 5.4 17.4c3.7 4 8.4 6.1 15.1 6.1 4.6-.1 9.4-.7 13.8-2v5.8c-4.7 1.6-9.7 2.3-14.8 2.3-8.4 0-15.1-2.7-19.6-7.7-4.4-5.1-7-12.5-7-21.9 0-6.1 1-11.1 3.3-15.5s5.4-8.1 9.7-10.4c4.6-2.5 9.7-3.7 14.8-3.7 6.1 0 11.5 1 15.8 3.3l-2.7 5.8c-4-2.2-8.6-3.2-13.3-3.4z"/><path d="m607.2 668.3h-6.7v-51.5h-18.1v-6.1h42.9v6.1h-18.1z"/><path d="m686.3 639.3c0 9.1-2.3 16.5-7 21.9s-11.1 8.1-19.6 8.1-15.1-2.7-19.6-7.7c-4.4-5.1-7-12.5-7-21.9 0-9.5 2.3-16.9 7-21.9 4.7-5.1 11.1-7.7 19.9-7.7 8.4 0 14.8 2.7 19.6 7.7 4.6 5.1 6.7 12.5 6.7 21.5zm-46 0c0 7.7 1.6 13.8 5.1 17.8s8.1 6.1 14.4 6.1 11.1-2 14.5-6.1c3.5-4.2 5.1-10 5.1-17.8 0-7.7-1.6-13.9-4.7-17.4-3.1-3.6-8.1-6.1-14.4-6.1-6.5 0-11.1 2-14.5 6.1-3.6 4.1-5.5 9.7-5.5 17.4z"/><path d="m707.9 644.4v23.9h-6.7v-57.5h15.8c7 0 12.5 1.4 15.8 4 3.3 2.8 5.1 6.7 5.1 12.1 0 7.7-3.7 12.8-11.5 15.5l15.8 26h-8.1l-13.9-23.9c0-.1-12.3-.1-12.3-.1zm0-5.7h9.1c4.7 0 8.1-1 10.4-2.7 2.3-1.6 3.3-4.7 3.3-8.4s-1-6.5-3.3-8.1-5.8-2.7-10.7-2.7h-8.8z"/><path d="m767.6 639.6 15.6-29h7.4l-19.2 35.4v22.3h-6.7v-22.3l-19.3-35.7h7.4z"/></g></svg>