<?xml version="1.0" encoding="utf-8"?>
<!-- Generator: Adobe Illustrator 16.0.0, SVG Export Plug-In . SVG Version: 6.00 Build 0)  -->
<!DOCTYPE svg PUBLIC "-//W3C//DTD SVG 1.1//EN" "http://www.w3.org/Graphics/SVG/1.1/DTD/svg11.dtd">
<svg version="1.1" id="Layer_1" xmlns="http://www.w3.org/2000/svg" xmlns:xlink="http://www.w3.org/1999/xlink" x="0px" y="0px"
	 width="240px" height="100px" viewBox="0 0 240 100" enable-background="new 0 0 240 100" xml:space="preserve">
<rect x="-750.268" y="-641.349" display="none" fill="#221F1F" width="1489.072" height="1468.349"/>
<rect display="none" fill="none" stroke="#FFF200" stroke-width="1.0445" stroke-miterlimit="10" width="240" height="100"/>
<g id="Layer_2_4_">
	<g id="Layer_1-2_3_">
		<rect x="39.505" y="39.616" fill="#FFF4E2" width="5.382" height="5.382"/>
		<rect x="34.124" y="50.379" fill="#FFF4E2" width="5.381" height="5.381"/>
		<rect x="44.829" y="55.79" fill="#FFF4E2" width="5.382" height="5.382"/>
		<path fill="#FFF4E2" d="M69.09,52.768c0,0.835-0.23,1.641-0.662,2.332c-0.46,0.719-1.151,1.294-1.928,1.611
			c-0.95,0.403-1.986,0.575-3.022,0.575c-0.806,0-1.611-0.057-2.417-0.172c-0.72-0.115-1.381-0.345-2.015-0.662v-3.425
			c0.749,0.403,1.525,0.719,2.36,0.921c0.72,0.229,1.439,0.345,2.188,0.345c0.575,0,1.007-0.086,1.266-0.345
			c0.259-0.259,0.403-0.403,0.403-0.749c-0.029-0.173-0.086-0.345-0.173-0.489c-0.115-0.202-0.287-0.345-0.489-0.403
			c-0.259-0.086-0.835-0.403-1.929-0.921c-0.921-0.403-1.669-0.834-2.101-1.266s-0.834-0.835-1.007-1.353
			c-0.201-0.604-0.345-1.237-0.345-1.842c-0.029-1.209,0.489-2.36,1.438-3.108c0.921-0.748,2.274-1.093,3.943-1.093
			c1.554,0.029,3.108,0.345,4.518,1.007l-1.18,3.022c-1.353-0.576-2.504-0.921-3.454-0.921c-0.374-0.029-0.777,0.058-1.094,0.259
			c-0.259,0.173-0.403,0.259-0.403,0.489c0,0.259,0.173,0.49,0.403,0.748c0.259,0.259,1.094,0.663,2.36,1.267
			c1.238,0.604,2.101,1.18,2.59,1.756C68.832,50.926,69.09,51.847,69.09,52.768z"/>
		<path fill="#FFF4E2" d="M82.214,47.328c0,1.612-0.489,2.878-1.439,3.684c-0.921,0.835-2.273,1.353-4.029,1.353h-1.093v4.777
			h-3.856V42.839h4.95c1.842,0,3.195,0.403,4.116,1.18S82.214,45.918,82.214,47.328z M75.624,49.257h0.662
			c0.519,0.028,1.036-0.172,1.439-0.489c0.402-0.345,0.489-0.748,0.489-1.353c0-1.007-0.489-1.439-1.612-1.439h-1.007L75.624,49.257
			L75.624,49.257z"/>
		<path fill="#FFF4E2" d="M84.977,57.143V42.81h3.942v14.333H84.977z"/>
		<path fill="#FFF4E2" d="M98.935,45.746c-0.892-0.029-1.698,0.432-2.188,1.18C96.258,47.674,96,48.681,96,50.034
			c0,2.763,1.093,4.115,3.194,4.115c0.633,0,1.238-0.086,1.842-0.258c0.604-0.173,1.18-0.403,1.756-0.662v3.252
			c-1.295,0.547-2.706,0.777-4.116,0.749c-2.187,0-3.856-0.662-4.95-1.929c-1.094-1.266-1.755-2.935-1.755-5.295
			c0-1.525,0.259-2.763,0.834-3.943c0.518-1.093,1.381-2.015,2.418-2.59c1.151-0.633,2.417-0.921,3.683-0.921
			c1.526,0,3.051,0.346,4.433,1.008l-1.18,3.021c-0.489-0.258-1.094-0.403-1.612-0.662C100.086,45.688,99.51,45.746,98.935,45.746z"
			/>
		<path fill="#FFF4E2" d="M114.591,57.143h-8.576V42.81h8.576v3.108h-4.604v2.273h4.288V51.3h-4.288v2.677h4.604V57.143z"/>
		<path fill="#FFF4E2" d="M119.713,57.143h-1.669V42.81h8.058v1.525h-6.36v5.295h5.957v1.497h-5.957L119.713,57.143L119.713,57.143z
			"/>
		<path fill="#FFF4E2" d="M137.902,57.143l-1.756-4.519h-5.785l-1.755,4.519h-1.669l5.698-14.418h1.439l5.612,14.418H137.902z
			 M135.628,51.099l-1.669-4.432c-0.259-0.69-0.489-1.381-0.662-2.101c-0.173,0.663-0.345,1.353-0.576,2.101l-1.669,4.432H135.628z"
			/>
		<path fill="#FFF4E2" d="M148.263,44.047c-1.612,0-2.878,0.489-3.77,1.612c-0.921,1.094-1.353,2.503-1.353,4.345
			c0,1.842,0.403,3.367,1.353,4.346c0.921,1.007,2.101,1.525,3.77,1.525c1.151-0.028,2.332-0.172,3.454-0.489v1.439
			c-1.18,0.403-2.417,0.576-3.684,0.576c-2.101,0-3.771-0.662-4.893-1.928c-1.093-1.267-1.755-3.108-1.755-5.469
			c0-1.525,0.259-2.763,0.834-3.856c0.576-1.093,1.353-2.015,2.417-2.59c1.151-0.633,2.418-0.921,3.684-0.921
			c1.525,0,2.878,0.259,3.943,0.834l-0.662,1.439C150.594,44.335,149.443,44.077,148.263,44.047z"/>
		<path fill="#FFF4E2" d="M159.746,57.143h-1.669V44.307h-4.519v-1.525h10.706v1.525h-4.518V57.143z"/>
		<path fill="#FFF4E2" d="M179.459,49.919c0,2.273-0.575,4.115-1.755,5.468c-1.18,1.353-2.763,2.015-4.892,2.015
			c-2.13,0-3.771-0.662-4.893-1.928c-1.093-1.267-1.755-3.108-1.755-5.469c0-2.36,0.576-4.202,1.755-5.468
			c1.18-1.266,2.763-1.928,4.951-1.928c2.101,0,3.684,0.662,4.892,1.928C178.942,45.832,179.459,47.674,179.459,49.919z
			 M167.977,49.919c0,1.928,0.403,3.453,1.266,4.432c0.863,1.007,2.015,1.525,3.598,1.525s2.763-0.489,3.626-1.525
			s1.267-2.503,1.267-4.432s-0.403-3.454-1.18-4.346c-0.777-0.892-2.015-1.525-3.597-1.525c-1.612,0-2.763,0.489-3.626,1.525
			S167.977,47.991,167.977,49.919L167.977,49.919z"/>
		<path fill="#FFF4E2" d="M184.842,51.185v5.958h-1.669V42.81h3.943c1.756,0,3.108,0.346,3.942,1.007
			c0.835,0.691,1.267,1.669,1.267,3.022c0,1.928-0.921,3.194-2.878,3.856l3.943,6.476h-2.015l-3.454-5.958
			C187.921,51.185,184.842,51.185,184.842,51.185z M184.842,49.775h2.273c1.18,0,2.015-0.259,2.59-0.662
			c0.576-0.402,0.834-1.18,0.834-2.101c0-0.921-0.259-1.612-0.834-2.015s-1.439-0.662-2.677-0.662h-2.187V49.775L184.842,49.775z"/>
		<path fill="#FFF4E2" d="M199.721,50.005l3.885-7.223h1.842l-4.777,8.835v5.555h-1.669v-5.555l-4.806-8.893h1.842L199.721,50.005z"
			/>
	</g>
</g>
</svg>
