<svg enable-background="new 0 0 240 100" height="100" viewBox="0 0 240 100" width="240" xmlns="http://www.w3.org/2000/svg"><g fill="#384af4"><path d="m39.505 39.616h5.382v5.382h-5.382z"/><path d="m34.124 50.379h5.381v5.381h-5.381z"/><path d="m44.829 55.79h5.382v5.382h-5.382z"/><path d="m69.09 52.768c0 .836-.23 1.642-.662 2.332-.46.719-1.151 1.295-1.928 1.611-.95.403-1.986.575-3.022.575-.806 0-1.611-.058-2.417-.172-.72-.115-1.381-.345-2.015-.662v-3.425c.749.402 1.525.719 2.36.921.72.229 1.439.345 2.188.345.575 0 1.007-.086 1.266-.345s.403-.403.403-.749c-.029-.174-.086-.346-.173-.489-.115-.202-.287-.345-.489-.403-.259-.086-.835-.402-1.929-.921-.921-.403-1.669-.834-2.101-1.266s-.834-.835-1.007-1.353c-.201-.604-.345-1.237-.345-1.842-.029-1.209.489-2.36 1.438-3.108.921-.748 2.274-1.093 3.943-1.093 1.554.029 3.108.345 4.518 1.007l-1.18 3.022c-1.353-.576-2.504-.921-3.454-.921-.374-.029-.777.058-1.094.259-.259.173-.403.259-.403.489 0 .259.173.49.403.748.259.259 1.094.663 2.36 1.267 1.238.604 2.101 1.18 2.59 1.756.492.575.75 1.497.75 2.417z"/><path d="m82.214 47.328c0 1.612-.489 2.878-1.439 3.684-.921.836-2.273 1.354-4.029 1.354h-1.093v4.777h-3.856v-14.304h4.95c1.842 0 3.195.403 4.116 1.18s1.351 1.899 1.351 3.309zm-6.59 1.929h.662c.519.028 1.036-.172 1.439-.489.402-.345.489-.748.489-1.353 0-1.007-.489-1.439-1.612-1.439h-1.007z"/><path d="m84.977 57.143v-14.333h3.942v14.333z"/><path d="m98.935 45.746c-.892-.029-1.698.432-2.188 1.18-.489.748-.747 1.755-.747 3.108 0 2.763 1.093 4.114 3.194 4.114.633 0 1.238-.086 1.842-.258.604-.173 1.18-.402 1.756-.662v3.252c-1.295.547-2.706.777-4.116.75-2.187 0-3.856-.662-4.95-1.93-1.094-1.266-1.755-2.935-1.755-5.295 0-1.525.259-2.763.834-3.943.518-1.093 1.381-2.015 2.418-2.59 1.151-.633 2.417-.921 3.683-.921 1.526 0 3.051.346 4.433 1.008l-1.18 3.021c-.489-.258-1.094-.403-1.612-.662-.461-.23-1.037-.172-1.612-.172z"/><path d="m114.591 57.143h-8.576v-14.333h8.576v3.108h-4.604v2.273h4.288v3.109h-4.288v2.677h4.604z"/><path d="m119.713 57.143h-1.669v-14.333h8.058v1.525h-6.359v5.295h5.957v1.497h-5.957z"/><path d="m137.902 57.143-1.756-4.519h-5.785l-1.756 4.519h-1.668l5.697-14.417h1.439l5.611 14.417zm-2.274-6.043-1.669-4.433c-.259-.69-.488-1.381-.662-2.101-.173.663-.345 1.353-.576 2.101l-1.669 4.433z"/><path d="m148.264 44.047c-1.613 0-2.879.489-3.771 1.612-.921 1.094-1.353 2.503-1.353 4.345s.402 3.367 1.353 4.346c.921 1.008 2.101 1.525 3.771 1.525 1.15-.027 2.332-.172 3.453-.489v1.439c-1.18.403-2.417.575-3.684.575-2.102 0-3.771-.661-4.893-1.928-1.094-1.267-1.756-3.107-1.756-5.469 0-1.525.26-2.763.834-3.856.576-1.093 1.354-2.015 2.417-2.59 1.151-.633 2.419-.921 3.685-.921 1.524 0 2.878.259 3.943.834l-.662 1.439c-1.007-.574-2.158-.832-3.337-.862z"/><path d="m159.746 57.143h-1.669v-12.836h-4.519v-1.525h10.705v1.525h-4.518v12.836z"/><path d="m179.459 49.919c0 2.272-.575 4.115-1.755 5.468-1.181 1.354-2.763 2.016-4.892 2.016-2.131 0-3.771-.662-4.894-1.928-1.093-1.268-1.755-3.108-1.755-5.47 0-2.36.576-4.202 1.755-5.468 1.181-1.266 2.763-1.928 4.951-1.928 2.101 0 3.685.662 4.892 1.928 1.18 1.295 1.698 3.137 1.698 5.382zm-11.482 0c0 1.929.403 3.453 1.267 4.433.862 1.006 2.015 1.524 3.598 1.524s2.763-.489 3.626-1.524c.863-1.037 1.268-2.504 1.268-4.433s-.403-3.454-1.18-4.346-2.016-1.525-3.598-1.525c-1.611 0-2.764.489-3.626 1.525-.864 1.036-1.355 2.418-1.355 4.346z"/><path d="m184.842 51.186v5.957h-1.669v-14.333h3.943c1.756 0 3.108.346 3.942 1.007.834.691 1.267 1.669 1.267 3.022 0 1.928-.921 3.194-2.878 3.856l3.943 6.476h-2.016l-3.454-5.958c.001-.027-3.078-.027-3.078-.027zm0-1.411h2.273c1.18 0 2.015-.259 2.59-.662.576-.402.834-1.18.834-2.101s-.26-1.612-.834-2.015c-.575-.403-1.439-.662-2.678-.662h-2.187z"/><path d="m199.721 50.005 3.885-7.223h1.843l-4.777 8.835v5.555h-1.669v-5.555l-4.807-8.893h1.843z"/></g></svg>