<?xml version="1.0" encoding="utf-8"?>
<!-- Generator: Adobe Illustrator 22.1.0, SVG Export Plug-In . SVG Version: 6.00 Build 0)  -->
<svg version="1.1" id="Layer_1" xmlns="http://www.w3.org/2000/svg" xmlns:xlink="http://www.w3.org/1999/xlink" x="0px" y="0px"
	 viewBox="0 0 240 100" style="enable-background:new 0 0 240 100;" xml:space="preserve">
<style type="text/css">
	.st0{fill:#FFF4E2;}
</style>
<g>
	<path class="st0" d="M167.2,44.6h-5.7v20h5.7V44.6z M83.8,43.8h7.9v-5.3H70.2v5.3h7.9v20.8h5.7V43.8z M102.2,53h-8.5
		c0.5-2.6,2-4.2,4.3-4.2C100.4,48.8,101.9,50.5,102.2,53 M107.7,56.6c0-0.5,0.1-0.9,0.1-1.4v-0.1c0-5.7-3-10.8-9.7-10.8
		c-5.8,0-9.9,4.7-9.9,10.4v0.1c0,6.1,4.4,10.3,10.4,10.3c3.6,0,6.3-1.4,8.2-3.7l-3.2-2.9c-1.6,1.5-2.9,2-4.8,2
		c-2.5,0-4.3-1.3-4.9-3.9H107.7z M110,64.6h5.7V37.4H110V64.6z M132,53h-8.5c0.4-2.6,2-4.2,4.3-4.2C130.2,48.8,131.7,50.5,132,53
		 M137.5,56.6c0-0.5,0.1-0.9,0.1-1.4v-0.1c0-5.7-3.1-10.8-9.7-10.8c-5.8,0-9.9,4.7-9.9,10.4v0.1c0,6.1,4.4,10.3,10.4,10.3
		c3.6,0,6.3-1.4,8.2-3.7l-3.2-2.9c-1.6,1.5-2.9,2-4.8,2c-2.5,0-4.3-1.3-4.9-3.9H137.5z M159.3,56.9L159.3,56.9c0-4.6-3-6.5-8.3-7.9
		c-4.5-1.2-5.6-1.7-5.6-3.4v-0.1c0-1.3,1.2-2.3,3.4-2.3c2.2,0,4.5,1,6.8,2.6l3-4.3c-2.6-2.1-5.9-3.3-9.7-3.3c-5.3,0-9.1,3.1-9.1,7.9
		v0.1c0,5.2,3.4,6.6,8.6,8c4.4,1.1,5.3,1.9,5.3,3.3v0.1c0,1.5-1.4,2.5-3.8,2.5c-3,0-5.4-1.2-7.8-3.2l-3.4,4.1
		c3.1,2.8,7.1,4.2,11,4.2C155.3,65,159.3,62,159.3,56.9 M161.4,42.4h6v-5h-6V42.4z M184.9,53.6c0,2.7-2.1,4.6-4.9,4.6
		c-2.7,0-4.8-1.9-4.8-4.6v-0.1c0-2.7,2.1-4.6,4.8-4.6C182.8,48.9,184.9,50.8,184.9,53.6L184.9,53.6z M190.5,60.1V44.6h-5.7v2.6
		c-1.5-1.7-3.3-3-6.4-3c-4.6,0-8.9,3.4-8.9,9.3v0.1c0,5.9,4.2,9.3,8.9,9.3c3,0,4.8-1.2,6.5-3.2v1c0,3.6-1.8,5.4-5.7,5.4
		c-2.6,0-4.7-0.7-6.7-1.8l-1.9,4.2c2.5,1.3,5.6,2.1,8.8,2.1C186.7,70.6,190.5,67.6,190.5,60.1 M211,64.6V51.7c0-4.6-2.5-7.4-6.8-7.4
		c-2.9,0-4.5,1.5-5.8,3.2v-2.8h-5.7v20h5.7V53.5c0-2.7,1.4-4.1,3.5-4.1c2.2,0,3.4,1.4,3.4,4.1v11.1H211z"/>
	<path class="st0" d="M64.2,47c0-9.7-7.9-17.6-17.6-17.6C36.9,29.4,29,37.3,29,47v17.6h17.6c4.3,0,8.3-1.6,11.4-4.2
		c-4.8,3.8-11.9,3.5-16.3-0.9l-8.7-8.7l8.7-8.7c4.8-4.8,12.6-4.8,17.4,0c4.5,4.5,4.8,11.5,0.9,16.4C62.6,55.3,64.2,51.3,64.2,47
		 M52.8,62c4.9,0,8.8-3.9,8.8-8.8c0-4.9-3.9-8.8-8.8-8.8H44v8.8C44,58.1,48,62,52.8,62"/>
</g>
</svg>
