<?xml version="1.0" encoding="utf-8"?>
<!-- Generator: Adobe Illustrator 22.0.0, SVG Export Plug-In . SVG Version: 6.00 Build 0)  -->
<svg version="1.1" id="Layer_1" xmlns="http://www.w3.org/2000/svg" xmlns:xlink="http://www.w3.org/1999/xlink" x="0px" y="0px"
	 viewBox="0 0 240 100" style="enable-background:new 0 0 240 100;" xml:space="preserve">
<style type="text/css">
	.st0{fill:#F9F4E2;}
	.st1{fill:#F9F4E2;enable-background:new    ;}
</style>
<g>
	<path class="st0" d="M60.3,43.1h-7.1L50,58h-8l3.2-14.9h-7.1l1.3-6.2h22.2L60.3,43.1z"/>
	<path class="st1" d="M64.2,52c-0.3,2,1.4,2.4,3.6,2.4c2.1,0,4-0.4,5.3-1l-0.9,4.1c-2.1,0.6-4.6,0.9-7.2,0.9c-6.3,0-9-3.1-7.8-8.5
		c1.1-5.3,5.1-8,11.4-8c6.1,0,7.4,3.8,6.2,9.1l-0.1,1H64.2z M68.8,48.6c0.3-1.2,0.5-3.1-1.2-3.1s-2.5,1.9-2.7,3.1H68.8z"/>
	<path class="st1" d="M87.2,35.3L82.3,58h-7.6l4.9-22.7H87.2z"/>
	<path class="st1" d="M92.5,52c-0.3,2,1.4,2.4,3.6,2.4c2.1,0,4-0.4,5.3-1l-0.9,4.1c-2.1,0.6-4.6,0.9-7.2,0.9c-6.3,0-9-3.1-7.8-8.5
		c1.1-5.3,5.1-8,11.4-8c6.1,0,7.4,3.8,6.2,9.1l-0.2,0.9L92.5,52L92.5,52z M97.1,48.6c0.3-1.2,0.5-3.1-1.2-3.1s-2.5,1.9-2.7,3.1H97.1
		z"/>
	<path class="st0" d="M124,57.3c-2.9,0.8-5.6,1.2-8.9,1.2c-7,0-11.7-3.7-10.1-11.2c1.5-7.1,8.1-10.6,14.8-10.6
		c3.9,0,5.7,0.3,7.7,0.8l-1.2,5.7c-1-0.7-3-1.2-5.3-1.2c-4,0-7.1,2-7.9,5.9c-0.6,2.9,0,5.5,3.2,5.5c0.6,0,1.2,0,1.7-0.2l1.2-5.6h6.9
		L124,57.3z"/>
	<path class="st1" d="M136.8,42.3l-0.8,3.6h0.1c1.4-2.2,3.2-3.9,5.6-3.9c0.4,0,0.9,0.1,1.2,0.2l-1.4,6.3c-0.3-0.2-1-0.2-1.7-0.2
		c-2.1,0-4.3,1.8-4.8,4.2l-1.2,5.7h-7.6l3.4-15.8L136.8,42.3L136.8,42.3z"/>
	<path class="st1" d="M153.5,41.9c6.3,0,9.1,2.7,8,8c-1.2,5.5-5.2,8.5-11.5,8.5s-9-3.1-7.8-8.5C143.3,44.6,147.2,41.9,153.5,41.9z
		 M150.9,53.9c1.5,0,2-1.7,2.5-4c0.4-1.9,0.5-3.4-0.9-3.4c-1.5,0-2,1.5-2.4,3.4C149.7,52.2,149.5,53.9,150.9,53.9z"/>
	<path class="st1" d="M178.9,58h-7.1l0.6-2.7h-0.1c-1.4,2.2-3.6,3.1-5.8,3.1c-4,0-5-2.1-4.4-5.2l2.4-11h7.6l-1.9,9.1
		c-0.2,0.9-0.5,2.2,0.9,2.2c1.3,0,1.6-1.2,1.8-2.2l1.9-9.1h7.6L178.9,58z"/>
	<path class="st1" d="M184.5,42.3h7l-0.6,2.9h0.1c1.6-2.4,3.3-3.2,5.7-3.2c5,0,6,3.9,5,8.5c-0.9,4.3-3.7,8-8.4,8
		c-2,0-3.4-0.7-4.2-2.4H189l-1.8,8.4h-7.6L184.5,42.3z M191.4,53.7c1.6,0,2.2-1.6,2.6-3.3c0.4-1.7,0.5-3.4-1.2-3.4
		c-1.6,0-2.2,1.8-2.6,3.2C189.8,52.1,189.7,53.7,191.4,53.7z"/>
</g>
</svg>
