<svg enable-background="new 0 0 907.1 400" viewBox="0 0 907.1 400" xmlns="http://www.w3.org/2000/svg"><g fill="#384af4"><path d="m631.9 179.6h-21.5v75.6h21.5zm-315.2-3h29.9v-20h-81.3v20h29.9v78.6h21.5zm69.6 34.7h-32.1c1.9-9.8 7.6-15.9 16.3-15.9 9 .1 14.6 6.5 15.8 15.9m20.8 13.6c0-1.9.4-3.4.4-5.3v-.4c0-21.5-11.3-40.8-36.7-40.8-21.9 0-37.4 17.8-37.4 39.3v.4c0 23.1 16.6 38.9 39.3 38.9 13.6 0 23.8-5.3 31-14l-12.1-11c-6 5.7-11 7.6-18.1 7.6-9.4 0-16.3-4.9-18.5-14.7zm8.7 30.3h21.5v-102.8h-21.5zm83.1-43.9h-32.1c1.5-9.8 7.6-15.9 16.3-15.9 9 .1 14.7 6.5 15.8 15.9m20.8 13.6c0-1.9.4-3.4.4-5.3v-.4c0-21.5-11.7-40.8-36.7-40.8-21.9 0-37.4 17.8-37.4 39.3v.4c0 23.1 16.6 38.9 39.3 38.9 13.6 0 23.8-5.3 31-14l-12.1-11c-6 5.7-11 7.6-18.1 7.6-9.4 0-16.3-4.9-18.5-14.7zm82.4 1.2c0-17.4-11.3-24.6-31.4-29.9-17-4.5-21.2-6.4-21.2-12.9v-.3c0-4.9 4.5-8.7 12.9-8.7s17 3.8 25.7 9.8l11.3-16.3c-9.8-7.9-22.3-12.5-36.7-12.5-20 0-34.4 11.7-34.4 29.9v.4c0 19.7 12.9 24.9 32.5 30.2 16.6 4.2 20 7.2 20 12.5v.4c0 5.7-5.3 9.4-14.4 9.4-11.3 0-20.4-4.5-29.5-12.1l-12.8 15.5c11.7 10.6 26.8 15.9 41.6 15.9 21.3-.7 36.4-12 36.4-31.3m7.9-54.8h22.7v-18.9h-22.7zm88.8 42.3c0 10.2-7.9 17.4-18.5 17.4-10.2 0-18.1-7.2-18.1-17.4v-.4c0-10.2 7.9-17.4 18.1-17.4 10.6 0 18.5 7.2 18.5 17.8zm21.2 24.6v-58.6h-21.5v9.8c-5.7-6.4-12.5-11.3-24.2-11.3-17.4 0-33.6 12.8-33.6 35.1v.4c0 22.3 15.9 35.1 33.6 35.1 11.3 0 18.1-4.5 24.6-12.1v3.8c0 13.6-6.8 20.4-21.5 20.4-9.8 0-17.8-2.6-25.3-6.8l-7.2 15.9c9.4 4.9 21.2 7.9 33.3 7.9 27.4.1 41.8-11.3 41.8-39.6m77.5 17v-48.8c0-17.4-9.4-28-25.7-28-11 0-17 5.7-21.9 12.1v-10.5h-21.5v75.6h21.5v-42.3c0-10.2 5.3-15.5 13.2-15.5 8.3 0 12.9 5.3 12.9 15.5v42h21.5z"/><path d="m242.6 188.7c0-36.7-29.9-66.5-66.5-66.5s-66.5 29.9-66.5 66.5v66.5h66.5c16.3 0 31.4-6 43.1-15.9-18.1 14.4-45 13.2-61.6-3.4l-32.9-32.9 32.9-32.9c18.1-18.1 47.6-18.1 65.8 0 17 17 18.1 43.5 3.4 62 9.8-12.1 15.8-27.2 15.8-43.4m-43 56.7c18.5 0 33.3-14.7 33.3-33.3s-14.7-33.3-33.3-33.3h-33.3v33.3c0 18.5 15.1 33.3 33.3 33.3"/></g></svg>