<?xml version="1.0" encoding="utf-8"?>
<!-- Generator: Adobe Illustrator 22.0.0, SVG Export Plug-In . SVG Version: 6.00 Build 0)  -->
<svg version="1.1" id="Layer_1" xmlns="http://www.w3.org/2000/svg" xmlns:xlink="http://www.w3.org/1999/xlink" x="0px" y="0px"
	 viewBox="0 0 240 100" style="enable-background:new 0 0 240 100;" xml:space="preserve">
<style type="text/css">
	.st0{fill:#FFF4E2;}
</style>
<g>
	<path class="st0" d="M51.1,37.6H30.3c-0.9,0-1.3,1.6-1.3,3.1c0,1.6,0.4,3.1,1.3,3.1h7.2v17.5c0,0.9,1.6,1.3,3.1,1.3
		c1.6,0,3.1-0.4,3.1-1.3V43.9h7.2c0.9,0,1.3-1.6,1.3-3.1C52.4,39.1,51.9,37.6,51.1,37.6z"/>
	<path class="st0" d="M53.2,50c0-7,5.7-12.7,12.7-12.7c7,0,12.7,5.7,12.7,12.7c0,7-5.7,12.7-12.7,12.7C58.9,62.7,53.2,57,53.2,50z
		 M65.9,56.4c3.5,0,6.4-2.9,6.4-6.4c0-3.5-2.9-6.4-6.4-6.4c-3.5,0-6.4,2.9-6.4,6.4C59.5,53.5,62.3,56.4,65.9,56.4z"/>
	<path class="st0" d="M119.2,48.1c0-6-4.8-10.8-10.8-10.8c-3,0-5.7,1.2-7.7,3.2c-2-2-4.7-3.2-7.7-3.2c-6,0-10.8,4.8-10.8,10.8
		l0,13.2c0,0.9,1.6,1.3,3.1,1.3c1.6,0,3.1-0.4,3.1-1.3V48.1c0-2.5,2-4.5,4.5-4.5c2.5,0,4.5,2,4.5,4.5l0,13.2c0,0.9,1.6,1.3,3.1,1.3
		c1.6,0,3.1-0.4,3.1-1.3V48.1c0-2.5,2-4.5,4.5-4.5c2.5,0,4.5,2,4.5,4.5v13.2c0,0.9,1.6,1.3,3.1,1.3c1.6,0,3.1-0.4,3.1-1.3V48.1z"/>
	<path class="st0" d="M211,48.1c0-6-4.8-10.8-10.8-10.8c-3,0-5.7,1.2-7.6,3.2c-2-2-4.7-3.2-7.7-3.2c-6,0-10.8,4.8-10.8,10.8v13.2
		c0,0.9,1.6,1.3,3.1,1.3c1.6,0,3.1-0.4,3.1-1.3V48.1c0-2.5,2-4.5,4.5-4.5c2.5,0,4.5,2,4.5,4.5v13.2c0,0.9,1.6,1.3,3.1,1.3
		c1.6,0,3.1-0.4,3.1-1.3V48.1c0-2.5,2-4.5,4.5-4.5c2.5,0,4.5,2,4.5,4.5v13.2c0,0.9,1.6,1.3,3.1,1.3c1.6,0,3.1-0.4,3.1-1.3V48.1z"/>
	<path class="st0" d="M142.8,37.6h-20.7c-0.9,0-1.3,1.6-1.3,3.1c0,1.6,0.4,3.1,1.3,3.1h7.2v17.5c0,0.9,1.6,1.3,3.1,1.3
		c1.6,0,3.1-0.4,3.1-1.3V43.9h7.2c0.9,0,1.3-1.6,1.3-3.1C144.2,39.1,143.7,37.6,142.8,37.6z"/>
	<path class="st0" d="M145,50c0-7,5.7-12.7,12.7-12.7c7,0,12.7,5.7,12.7,12.7c0,7-5.7,12.7-12.7,12.7C150.6,62.7,145,57,145,50z
		 M157.6,56.4c3.5,0,6.4-2.9,6.4-6.4c0-3.5-2.9-6.4-6.4-6.4c-3.5,0-6.4,2.9-6.4,6.4C151.3,53.5,154.1,56.4,157.6,56.4z"/>
</g>
</svg>
