<svg enable-background="new 0 0 907.1 400" viewBox="0 0 907.1 400" xmlns="http://www.w3.org/2000/svg"><g fill="#384af4"><path d="m193.1 153.1h-78.6c-3.4 0-4.9 6-4.9 11.7 0 6 1.5 11.7 4.9 11.7h27.2v66.1c0 3.4 6 4.9 11.7 4.9 6 0 11.7-1.5 11.7-4.9v-65.8h27.2c3.4 0 4.9-6 4.9-11.7.8-6.3-1-12-4.1-12z"/><path d="m201.1 200c0-26.5 21.5-48 48-48s48 21.5 48 48-21.5 48-48 48-48-21.5-48-48zm48 24.2c13.2 0 24.2-11 24.2-24.2s-11-24.2-24.2-24.2-24.2 11-24.2 24.2 10.6 24.2 24.2 24.2z"/><path d="m450.5 192.8c0-22.7-18.1-40.8-40.8-40.8-11.3 0-21.5 4.5-29.1 12.1-7.6-7.6-17.8-12.1-29.1-12.1-22.7 0-40.8 18.1-40.8 40.8v49.9c0 3.4 6 4.9 11.7 4.9 6 0 11.7-1.5 11.7-4.9v-49.9c0-9.4 7.6-17 17-17s17 7.6 17 17v49.9c0 3.4 6 4.9 11.7 4.9 6 0 11.7-1.5 11.7-4.9v-49.9c0-9.4 7.6-17 17-17s17 7.6 17 17v49.9c0 3.4 6 4.9 11.7 4.9 6 0 11.7-1.5 11.7-4.9v-49.9z"/><path d="m797.5 192.8c0-22.7-18.1-40.8-40.8-40.8-11.3 0-21.5 4.5-28.7 12.1-7.6-7.6-17.8-12.1-29.1-12.1-22.7 0-40.8 18.1-40.8 40.8v49.9c0 3.4 6 4.9 11.7 4.9 6 0 11.7-1.5 11.7-4.9v-49.9c0-9.4 7.6-17 17-17s17 7.6 17 17v49.9c0 3.4 6 4.9 11.7 4.9 6 0 11.7-1.5 11.7-4.9v-49.9c0-9.4 7.6-17 17-17s17 7.6 17 17v49.9c0 3.4 6 4.9 11.7 4.9 6 0 11.7-1.5 11.7-4.9v-49.9z"/><path d="m539.7 153.1h-78.2c-3.4 0-4.9 6-4.9 11.7 0 6 1.5 11.7 4.9 11.7h27.2v66.1c0 3.4 6 4.9 11.7 4.9 6 0 11.7-1.5 11.7-4.9v-65.8h27.2c3.4 0 4.9-6 4.9-11.7.8-6.3-1.1-12-4.5-12z"/><path d="m548 200c0-26.5 21.5-48 48-48s48 21.5 48 48-21.5 48-48 48c-26.8 0-48-21.5-48-48zm47.7 24.2c13.2 0 24.2-11 24.2-24.2s-11-24.2-24.2-24.2-24.2 11-24.2 24.2c.3 13.2 10.9 24.2 24.2 24.2z"/></g></svg>