<svg enable-background="new 0 0 907.09 1275.59" height="1275.59" viewBox="0 0 907.09 1275.59" width="907.09" xmlns="http://www.w3.org/2000/svg"><g fill="#384af4"><path d="m193.135 590.929h-78.615c-3.401 0-4.914 6.047-4.914 11.717 0 6.047 1.512 11.716 4.914 11.716h27.213v66.143c0 3.401 6.047 4.913 11.716 4.913 6.047 0 11.717-1.512 11.717-4.913v-65.765h27.212c3.402 0 4.914-6.048 4.914-11.717.756-6.425-1.134-12.094-4.157-12.094z"/><path d="m201.072 637.795c0-26.457 21.543-48 48-48s48 21.543 48 48-21.543 48-48 48-48-21.543-48-48zm48 24.189c13.229 0 24.189-10.961 24.189-24.189s-10.96-24.189-24.189-24.189-24.189 10.961-24.189 24.189 10.582 24.189 24.189 24.189z"/><path d="m450.521 630.613c0-22.677-18.142-40.818-40.819-40.818-11.339 0-21.543 4.535-29.103 12.095-7.559-7.56-17.764-12.095-29.103-12.095-22.677 0-40.818 18.142-40.818 40.818v49.891c0 3.401 6.047 4.913 11.716 4.913 6.048 0 11.717-1.512 11.717-4.913v-49.891c0-9.448 7.56-17.008 17.008-17.008 9.449 0 17.008 7.56 17.008 17.008v49.891c0 3.401 6.048 4.913 11.717 4.913 6.047 0 11.717-1.512 11.717-4.913v-49.891c0-9.448 7.559-17.008 17.008-17.008s17.008 7.56 17.008 17.008v49.891c0 3.401 6.047 4.913 11.717 4.913 6.047 0 11.717-1.512 11.717-4.913v-49.891z"/><path d="m797.483 630.613c0-22.677-18.142-40.818-40.819-40.818-11.339 0-21.543 4.535-28.725 12.095-7.559-7.56-17.764-12.095-29.103-12.095-22.677 0-40.819 18.142-40.819 40.818v49.891c0 3.401 6.048 4.913 11.717 4.913 6.048 0 11.717-1.512 11.717-4.913v-49.891c0-9.448 7.56-17.008 17.008-17.008 9.449 0 17.008 7.56 17.008 17.008v49.891c0 3.401 6.048 4.913 11.717 4.913 6.048 0 11.717-1.512 11.717-4.913v-49.891c0-9.448 7.559-17.008 17.008-17.008s17.008 7.56 17.008 17.008v49.891c0 3.401 6.048 4.913 11.717 4.913 6.047 0 11.717-1.512 11.717-4.913v-49.891z"/><path d="m539.719 590.929h-78.236c-3.402 0-4.914 6.047-4.914 11.717 0 6.047 1.512 11.716 4.914 11.716h27.212v66.143c0 3.401 6.048 4.913 11.717 4.913 6.048 0 11.717-1.512 11.717-4.913v-65.765h27.213c3.401 0 4.913-6.048 4.913-11.717.755-6.425-1.135-12.094-4.536-12.094z"/><path d="m548.033 637.795c0-26.457 21.544-48 48-48 26.457 0 48.001 21.543 48.001 48s-21.544 48-48.001 48c-26.834 0-48-21.543-48-48zm47.622 24.189c13.229 0 24.189-10.961 24.189-24.189s-10.961-24.189-24.189-24.189-24.188 10.961-24.188 24.189c.378 13.228 10.961 24.189 24.188 24.189z"/></g></svg>