<?xml version="1.0" encoding="UTF-8" standalone="no"?>
<!DOCTYPE svg PUBLIC "-//W3C//DTD SVG 1.1//EN" "http://www.w3.org/Graphics/SVG/1.1/DTD/svg11.dtd">
<svg width="100%" height="100%" viewBox="0 0 123 144" version="1.1" xmlns="http://www.w3.org/2000/svg" xmlns:xlink="http://www.w3.org/1999/xlink" xml:space="preserve" xmlns:serif="http://www.serif.com/" style="fill-rule:evenodd;clip-rule:evenodd;stroke-linejoin:round;stroke-miterlimit:2;">
    <g transform="matrix(1,0,0,1,-47.4263,-653.438)">
        <g transform="matrix(0,1,1,0,-21.409,603.371)">
            <ellipse cx="108.555" cy="129.964" rx="34.711" ry="35.177" style="fill:rgb(48,66,242);"/>
        </g>
        <g transform="matrix(1,0,0,1,0,547.115)">
            <path d="M73.492,164.799L73.532,163.023L73.678,161.26L73.905,159.537L74.212,157.827L74.599,156.169L75.078,154.525L75.638,152.933L76.265,151.354L76.958,149.828L77.731,148.328L78.585,146.894L79.505,145.487L80.478,144.118L81.518,142.829L82.625,141.566L83.785,140.356L84.998,139.225L86.278,138.133L87.597,137.093L88.971,136.146L90.411,135.238L91.864,134.396L93.383,133.633L94.93,132.936L96.517,132.331L98.143,131.778L99.81,131.305L101.49,130.923L103.223,130.607L104.969,130.397L106.756,130.252L108.556,130.213L108.556,129.976L106.756,130.016L104.969,130.16L103.196,130.371L101.463,130.686L99.756,131.068L98.09,131.542L96.437,132.094L94.85,132.726L93.277,133.423L91.757,134.186L90.277,135.028L88.837,135.935L87.464,136.909L86.117,137.948L84.838,139.04L83.624,140.198L82.438,141.408L81.331,142.671L80.291,143.987L79.291,145.355L78.371,146.763L77.518,148.223L76.745,149.723L76.025,151.275L75.399,152.854L74.838,154.472L74.358,156.116L73.972,157.8L73.665,159.51L73.439,161.26L73.292,163.023L73.252,164.799L73.492,164.799Z" style="fill:rgb(35,31,32);"/>
        </g>
        <g transform="matrix(1,0,0,1,0,616.747)">
            <path d="M108.562,129.753L106.762,129.713L104.975,129.568L103.228,129.345L101.495,129.042L99.816,128.661L98.149,128.187L96.522,127.635L94.936,127.029L93.389,126.332L91.869,125.569L90.416,124.727L88.976,123.819L87.603,122.859L86.283,121.833L85.003,120.741L83.79,119.597L82.63,118.399L81.524,117.136L80.484,115.834L79.51,114.479L78.591,113.058L77.737,111.624L76.964,110.124L76.257,108.598L75.644,107.033L75.084,105.428L74.604,103.784L74.218,102.126L73.911,100.416L73.684,98.692L73.538,96.929L73.498,95.153L73.257,95.153L73.298,96.929L73.444,98.692L73.671,100.442L73.977,102.152L74.364,103.836L74.844,105.481L75.404,107.112L76.044,108.677L76.751,110.23L77.524,111.729L78.377,113.19L79.297,114.61L80.297,115.965L81.337,117.294L82.443,118.557L83.63,119.754L84.843,120.925L86.123,122.017L87.47,123.043L88.843,124.03L90.283,124.938L91.763,125.78L93.283,126.543L94.856,127.24L96.442,127.871L98.096,128.424L99.762,128.897L101.469,129.279L103.202,129.582L104.975,129.805L106.762,129.95L108.562,129.989L108.562,129.753Z" style="fill:rgb(35,31,32);"/>
        </g>
        <g transform="matrix(1,0,0,1,0,616.774)">
            <path d="M143.595,95.14L143.555,96.916L143.408,98.679L143.195,100.402L142.875,102.113L142.489,103.77L142.009,105.415L141.449,107.02L140.835,108.585L140.129,110.111L139.355,111.611L138.502,113.045L137.582,114.466L136.622,115.821L135.569,117.123L134.463,118.386L133.316,119.583L132.089,120.728L130.809,121.82L129.503,122.846L128.116,123.806L126.69,124.714L125.237,125.556L123.717,126.319L122.17,127.003L120.57,127.621L118.957,128.174L117.291,128.647L115.611,129.029L113.877,129.332L112.131,129.555L110.344,129.7L108.545,129.739L108.545,129.976L110.344,129.937L112.131,129.792L113.904,129.568L115.637,129.266L117.344,128.884L119.01,128.411L120.65,127.858L122.25,127.24L123.823,126.529L125.343,125.766L126.823,124.924L128.25,124.017L129.636,123.03L130.969,122.004L132.249,120.912L133.476,119.741L134.649,118.544L135.756,117.281L136.809,115.952L137.795,114.597L138.715,113.176L139.569,111.716L140.342,110.217L141.049,108.664L141.689,107.099L142.248,105.467L142.728,103.823L143.115,102.139L143.435,100.429L143.648,98.679L143.795,96.916L143.835,95.14L143.595,95.14Z" style="fill:rgb(35,31,32);"/>
        </g>
        <g transform="matrix(1,0,0,1,0,547.114)">
            <path d="M108.562,130.213L110.361,130.253L112.148,130.397L113.894,130.608L115.628,130.923L117.307,131.305L118.974,131.779L120.587,132.331L122.187,132.949L123.733,133.633L125.253,134.396L126.707,135.238L128.133,136.146L129.52,137.093L130.826,138.133L132.106,139.225L133.333,140.356L134.479,141.567L135.586,142.829L136.639,144.118L137.599,145.487L138.519,146.894L139.372,148.328L140.145,149.828L140.839,151.354L141.466,152.933L142.025,154.525L142.505,156.169L142.892,157.827L143.212,159.537L143.425,161.26L143.572,163.023L143.612,164.799L143.852,164.799L143.812,163.023L143.665,161.26L143.452,159.511L143.132,157.801L142.745,156.116L142.265,154.472L141.705,152.854L141.079,151.275L140.359,149.723L139.586,148.223L138.732,146.763L137.813,145.355L136.826,143.987L135.773,142.671L134.666,141.409L133.493,140.198L132.266,139.041L130.986,137.949L129.653,136.909L128.267,135.936L126.84,135.028L125.36,134.186L123.84,133.423L122.267,132.713L120.667,132.094L119.027,131.542L117.361,131.068L115.654,130.687L113.921,130.371L112.148,130.16L110.361,130.016L108.562,129.976L108.562,130.213Z" style="fill:rgb(35,31,32);"/>
        </g>
        <g transform="matrix(1,0,0,1,0,585.775)">
            <path d="M143.008,131.889L142.876,130.026L140.922,128.114L140.922,125.776L140.778,125.639L140.635,125.489L140.503,125.327L140.395,125.151L140.299,124.964L140.215,124.739L140.155,124.501L140.143,124.226L140.299,124.376L140.443,124.501L140.587,124.626L140.73,124.739L140.886,124.864L141.03,124.964L141.174,125.052L141.318,125.151L141.462,125.239L141.617,125.327L141.761,125.414L141.905,125.489L142.049,125.551L142.205,125.639L142.349,125.714L142.493,125.776L142.493,127.339L143.451,128.114L143.451,128.501L143.427,128.926L143.391,129.376L143.319,129.839L143.26,130.314L143.176,130.814L143.092,131.351L143.008,131.889Z" style="fill:white;"/>
        </g>
        <g transform="matrix(1,0,0,1,0,618.449)">
            <path d="M119.576,114.889L119.42,114.876L119.216,114.839L118.977,114.789L118.725,114.727L118.473,114.664L118.234,114.614L118.03,114.577L117.874,114.564L117.886,114.327L117.922,114.114L118.006,113.927L118.078,113.764L118.186,113.614L118.294,113.477L118.426,113.339L118.545,113.227L117.874,112.552L117.874,111.877L118.545,111.214L119.912,111.214L120.044,111.064L120.2,110.902L120.379,110.714L120.571,110.514L120.787,110.302L121.003,110.077L121.23,109.852L121.47,109.627L121.71,109.414L121.949,109.214L122.189,109.039L122.429,108.864L122.656,108.739L122.884,108.639L123.1,108.577L123.292,108.552L123.148,108.664L122.992,108.802L122.8,108.914L122.62,109.052L122.417,109.189L122.237,109.302L122.069,109.439L121.937,109.552L122.62,110.227L122.417,110.727L122.309,111.227L122.273,111.727L122.273,112.227L122.033,112.477L121.793,112.727L121.578,112.964L121.374,113.202L121.194,113.427L121.003,113.652L120.835,113.864L120.667,114.052L120.523,114.239L120.379,114.389L120.223,114.539L120.092,114.652L119.96,114.764L119.828,114.827L119.708,114.876L119.576,114.889Z" style="fill:white;"/>
        </g>
        <g transform="matrix(1,0,0,1,0,596.224)">
            <path d="M75.937,128.276C76.608,127.139 78.166,126.451 79.173,125.676L79.329,125.564L79.413,125.476L79.269,125.314L79.125,125.151C78.454,124.326 77.89,123.376 77.219,122.551L77.075,122.401L77.075,120.851C75.589,120.752 75.278,119.526 74.415,118.376C74.151,118.027 73.851,117.702 73.552,117.389L73.564,118.052C73.828,123.626 74.127,124.114 75.937,128.276" style="fill:rgb(48,66,242);"/>
        </g>
        <g transform="matrix(1,0,0,1,0,593.962)">
            <path d="M111.426,109.14L111.21,108.989C110.875,108.802 110.731,108.815 110.383,108.989L110.192,109.127L109.58,109.127C109.4,109.052 109.209,108.977 109.029,108.94C108.262,108.74 107.447,108.652 106.692,108.415L106.524,108.34C106.044,108.34 105.853,108.402 105.433,108.49C104.367,108.54 103.288,108.34 102.233,108.34L101.921,108.727L101.802,108.715C100.843,108.39 100.064,107.477 99.297,106.877L99.165,106.79C99.213,106.502 99.321,106.227 99.416,105.952L99.464,105.665L99.333,105.652L99.189,105.59C98.769,105.465 98.374,105.277 97.93,105.265C97.571,104.852 97.259,104.515 96.696,104.49L96.696,103.727C96.192,104.04 95.677,104.377 95.138,104.64L94.886,104.765L94.646,104.89L94.407,104.99C93.628,105.265 92.813,105.39 92.046,105.702L91.578,105.915C89.804,106.815 87.994,108.227 85.969,108.34L85.585,108.84C84.051,111.215 83.811,113.689 83.811,116.502L83.811,117.214L84.039,117.515L84.255,117.839C85.142,119.377 85.705,121.139 86.676,122.627L86.928,123.027L87.203,123.402L87.419,123.327L87.683,123.264C89.349,123.014 91.075,123.001 92.752,123.001L93.34,123.001L93.34,124.539L93.508,124.539C94.047,124.577 94.598,124.739 95.15,124.701L95.293,124.689L95.461,124.652L95.617,124.602L95.785,124.539L95.917,125.189C95.905,125.989 95.821,126.814 95.785,127.614L96.085,127.964C97.451,129.514 98.637,130.564 98.829,132.801L98.841,133.426L98.23,134.189C98.422,138.513 101.898,141.176 104.39,144.201C106.008,144.088 107.578,143.626 109.197,143.463L109.532,143.451L109.88,143.426L110,143.138L110.144,142.876C110.683,141.926 111.378,141.101 112.289,140.526L112.481,140.413L112.649,140.339L112.649,138.038L112.984,138.013C114.95,137.439 115.957,135.264 116.628,133.426L116.496,133.276C116.196,132.964 115.825,132.701 115.525,132.389L115.393,132.251C115.441,131.564 115.561,130.876 115.657,130.189C115.849,127.514 119.9,125.239 121.686,123.614L121.961,123.327L122.117,123.114L122.141,123.001C122.141,122.127 122.189,121.702 122.752,121.052L123.052,120.689L120.906,120.689L120.787,120.814C120.032,121.402 118.977,121.052 118.114,121.052C117.706,120.539 117.287,120.014 116.903,119.489L116.664,119.164C116.304,118.639 116.16,118.127 115.909,117.552C115.645,117.089 115.19,116.852 114.758,116.589C114.159,116.215 113.931,115.777 113.871,115.065C113.871,114.652 113.835,114.252 113.727,113.852C113.464,113.352 113.092,112.902 112.816,112.415L112.565,111.965C112.085,111.252 111.534,110.577 111.102,109.827L110.899,109.015L111.067,109.04L111.498,109.265L111.426,109.14Z" style="fill:white;"/>
        </g>
        <g transform="matrix(1,0,0,1,0,551.201)">
            <path d="M111.426,151.901L111.594,152.125L111.762,152.275C112.133,152.663 112.469,153.125 112.888,153.463C113.08,153.588 113.188,153.663 113.404,153.575L114.902,155.825L115.201,158.263L117.443,160.275L118.462,162.687L119.013,162.625L119.564,162.5C122.033,161.513 123.699,158.7 126.42,158.438L127.031,156.888L126.971,156.588L126.887,156.3L126.78,156.013L126.719,155.738L125.497,155.738L124.886,154.963L124.178,154.975C122.62,155.025 121.086,154.963 119.9,153.775L119.372,153.025C118.414,152.875 118.15,151.938 117.838,151.101L118.318,150.95C119.252,150.988 119.936,151.813 120.511,152.5C120.858,152.913 121.206,153.363 121.518,153.8C121.865,153.813 122.201,153.9 122.537,153.975C123.1,154.125 123.675,154.3 124.239,154.413C124.85,154.45 125.269,154.438 125.821,154.188L126.42,154.963C127.199,154.575 127.403,154.413 127.954,153.8L129.176,153.8C129.668,154.4 130.219,155.188 130.998,155.35C131.058,156.125 131.502,156.688 131.945,157.275C131.945,155.838 131.885,154.438 131.634,153.025C132.317,154.063 132.82,155.263 132.916,156.525L132.856,156.888L132.88,156.925C133.156,157.213 133.395,157.538 133.779,157.663C133.803,158.913 133.911,160.8 135.313,161.125C135.373,161.888 135.78,162.562 136.548,162.687C136.56,162.15 136.715,161.7 137.027,161.275L137.147,161.125L136.991,161.3L136.943,161.275C137.051,160.85 137.255,160.45 137.411,160.05L137.459,159.975L136.835,159.212L136.835,156.1C137.339,155.613 137.926,155.125 138.369,154.575C138.153,153.938 138.153,153.663 138.369,153.025C138.885,153.063 139.376,153.388 139.904,153.413C140.011,154.45 140.467,155.263 141.414,155.688L141.761,155.738L141.749,155.475C141.689,154.875 141.725,154.563 142.085,154.063L142.84,153.975C142.444,152.026 141.869,150.138 141.162,148.288C140.551,146.726 139.808,145.238 138.933,143.813L138.645,143.363C137.842,142.163 137.003,140.976 136.128,139.839C134.714,138.101 133.228,136.339 131.55,134.864C130.639,134.014 129.656,133.214 128.637,132.514L128.278,132.276L127.81,131.976C125.929,130.826 123.987,129.764 121.973,128.876C121.302,128.614 120.619,128.326 119.936,128.101L119.085,128.001C118.845,128.251 118.401,128.714 117.838,128.751C117.958,129.139 118.03,129.526 118.15,129.901L116.927,129.901C116.987,130.639 117.383,131.276 117.838,131.839C117.095,132.226 116.172,131.839 115.393,131.839C115.106,131.001 114.806,130.051 113.859,129.901C113.787,130.289 113.619,130.664 113.547,131.051C113.979,131.676 114.362,132.364 114.77,133.001C113.344,133.076 112.289,134.426 110.803,133.751C111.162,132.101 107.854,131.839 106.824,131.839L106.212,132.601L106.069,132.551L105.877,132.601C104.439,133.051 102.88,134.526 101.921,135.701L102.832,136.851C103.587,136.401 104.367,135.951 105.206,135.676C105.769,135.426 106.128,135.001 106.524,134.526C106.919,134.514 107.926,134.201 108.106,134.689L108.178,134.764C107.687,135.414 107.339,135.851 106.908,136.626L106.824,136.851C106.895,137.239 107.075,137.614 107.135,138.001C106.524,138.376 105.817,138.651 105.29,139.151L105.17,139.138C104.93,139.013 104.666,138.801 104.39,138.776C104.474,138.226 104.918,137.776 104.99,137.226C104.786,136.951 104.798,136.876 104.81,136.538L104.714,136.551C104.487,136.601 104.319,136.788 104.079,136.813L103.336,136.901C103.312,137.364 103.384,137.576 103.456,138.001L103.312,138.164C102.736,138.763 102.569,138.888 101.921,139.151C102.353,138.513 100.196,139.126 99.92,139.138L99.788,139.151L98.841,140.313C97.655,140.313 96.348,139.913 95.186,140.313C95.282,140.738 95.677,141.051 96.097,141.088C96.073,141.713 95.857,142.151 95.485,142.626C94.982,142.601 94.73,142.376 94.239,142.626L93.04,141.088C92.705,141.151 92.429,141.451 92.093,141.476C92.046,142.376 91.854,143.276 91.806,144.176L90.883,145.326L90.883,146.876C91.218,146.9 91.47,147.226 91.806,147.251C92.788,146.963 93.52,147.388 94.515,147.626L94.694,147.638L94.874,147.651L94.898,147.463C95.114,146.851 95.401,146.238 95.785,145.726C96.24,145.751 96.648,145.988 97.091,146.076L97.319,146.088C97.942,145.363 98.482,144.576 99.441,144.226L99.62,144.188L99.788,144.176L101.322,146.088C101.082,146.463 100.999,146.801 100.999,147.251L100.963,147.251C99.285,147.463 101.466,148.988 101.814,149.213L102.233,149.551C102.724,148.938 103.24,148.338 103.827,147.813L104.067,147.651L104.067,146.088L104.678,146.876L104.678,148.426L104.906,148.463C105.254,148.588 105.481,148.813 105.697,149.125C105.817,149.401 105.901,149.638 105.925,149.938L106.141,149.1C106.536,148.238 106.979,147.401 107.423,146.563L107.578,146.338C107.914,146.376 108.094,146.775 108.429,146.838L108.765,146.513C109.101,146.538 109.388,146.813 109.736,146.838C109.772,146.288 109.964,145.763 110.024,145.226C110.887,145.276 111.642,145.776 112.493,145.838L112.66,145.851C112.744,145.313 112.936,144.813 112.984,144.263L113.619,143.613C113.523,143.901 113.523,144.051 113.607,144.351C114.051,145.388 115.142,146.076 116.016,146.701C116.208,146.838 116.4,147.013 116.58,147.163C115.897,147.451 115.142,147.488 114.398,147.488L114.267,147.488L113.619,146.838C112.828,146.838 112.109,146.826 111.366,146.513L110.383,147.488C109.532,147.451 108.957,147.151 108.058,147.251L108.058,149.551L108.298,149.588C108.729,149.726 109.161,149.963 109.544,150.213L109.736,150.288L109.88,150.326L110,150.263C110.599,149.976 111.27,149.938 111.918,149.938L112.037,149.938L112.649,150.713L112.517,150.851C112.217,151.163 111.846,151.425 111.546,151.738L111.426,151.901Z" style="fill:white;"/>
        </g>
        <g transform="matrix(1,0,0,1,0,551.189)">
            <path d="M122.273,148.063L120.439,148.063L120.439,147.688L120.487,147.288L120.547,146.913L120.703,146.525L119.66,145.475L118.605,145.475L118.509,145.388L118.401,145.276L118.318,145.176L118.246,145.051L118.162,144.938L118.114,144.788L118.078,144.638L118.066,144.451L118.33,144.188L118.462,144.201L118.617,144.226L118.797,144.263L118.989,144.313L119.193,144.363L119.36,144.413L119.54,144.438L119.66,144.451L119.696,143.976L119.792,143.438L119.888,142.951L119.924,142.638L119.948,142.738L120.008,142.876L120.08,142.988L120.187,143.126L120.283,143.238L120.367,143.326L120.415,143.388L120.439,143.413L120.631,143.426L120.787,143.451L120.931,143.501L121.074,143.563L121.17,143.651L121.278,143.738L121.386,143.826L121.482,143.926L121.386,144.026L121.29,144.113L121.206,144.238L121.122,144.338L121.05,144.476L121.003,144.613L120.978,144.776L120.967,144.963L121.134,144.976L121.266,145.013L121.374,145.063L121.458,145.163L121.518,145.263L121.59,145.401L121.65,145.563L121.746,145.751L121.71,146.013L121.757,146.25L121.889,146.438L122.081,146.613L122.285,146.775L122.477,146.951L122.668,147.113L122.8,147.3L122.273,148.063Z" style="fill:rgb(48,66,242);"/>
        </g>
        <g transform="matrix(1,0,0,1,0,528.452)">
            <path d="M80.12,164.512L80.456,164.4L80.779,164.237C84.015,162.213 85.513,157.738 89.013,156.225L89.313,156.138C90.919,156.138 92.046,157.225 93.603,157.288L94.395,158.05C95.042,157.788 95.605,157.563 95.965,156.913L98.697,156.913L98.961,156.675L99.237,156.45C101.873,154.575 106.512,154.925 108.202,151.775L108.346,151.463L108.465,151.113L110.036,151.113L110.12,151.025C110.731,150.463 111.222,149.788 111.929,149.338L112.109,149.251L112.265,149.2L112.409,149.188L111.762,149.113L111.102,149.038L110.443,149.001L109.772,148.963L109.125,148.938L108.454,148.926L107.782,148.938L107.123,148.95L106.452,148.976C102.209,149.288 98.146,150.25 94.227,151.963C92.237,152.875 90.344,154.025 88.522,155.263L88.138,155.538C85.453,157.638 80.492,160.688 80.12,164.512" style="fill:white;"/>
        </g>
        <g transform="matrix(1,0,0,1,0,558.732)">
            <path d="M139.172,136.757L139.466,137.257L139.759,137.783L140.053,138.336L140.332,138.915L140.599,139.507L140.866,140.125L141.119,140.77L141.359,141.401L141.599,142.059L141.812,142.704L142.012,143.361L142.212,144.006L142.385,144.651L142.545,145.269L142.679,145.874L142.799,146.453L142.906,146.453L142.785,145.848L142.652,145.243L142.492,144.624L142.319,143.98L142.119,143.335L141.919,142.677L141.706,142.033L141.466,141.375L141.225,140.744L140.972,140.099L140.706,139.48L140.439,138.862L140.159,138.283L139.866,137.731L139.572,137.204L139.279,136.705L139.172,136.757Z" style="fill:rgb(48,66,242);"/>
        </g>
        <g transform="matrix(1,0,0,1,0,537.018)">
            <path d="M128.266,146.509L128.625,146.746L128.985,146.996L129.332,147.259L129.705,147.535L130.065,147.812L130.425,148.114L130.799,148.43L131.159,148.746L131.519,149.075L131.892,149.403L132.252,149.759L132.612,150.114L132.972,150.469L133.332,150.85L133.678,151.219L134.039,151.614L134.385,152.008L134.732,152.403L135.079,152.811L135.425,153.219L135.758,153.64L136.105,154.061L136.425,154.482L136.745,154.903L137.065,155.337L137.385,155.784L137.692,156.218L138.305,157.113L138.598,157.56L138.891,158.02L139.171,158.468L139.278,158.415L138.998,157.968L138.705,157.507L138.412,157.06L138.105,156.613L137.798,156.165L137.492,155.732L137.172,155.284L136.852,154.85L136.505,154.403L136.185,153.982L135.838,153.561L135.505,153.14L135.159,152.732L134.812,152.324L134.465,151.929L134.118,151.535L133.758,151.14L133.412,150.772L133.052,150.39L132.692,150.035L132.332,149.68L131.972,149.325L131.599,148.996L131.239,148.667L130.879,148.351L130.505,148.035L130.145,147.733L129.785,147.457L129.412,147.18L129.039,146.891L128.679,146.641L128.319,146.404L128.266,146.509Z" style="fill:rgb(48,66,242);"/>
        </g>
        <g transform="matrix(1,0,0,1,0,612.544)">
            <path d="M77.123,114.594L77.03,114.568L76.95,114.607L76.924,114.686L76.964,114.778L77.123,114.594Z" style="fill:rgb(35,31,32);"/>
        </g>
        <g transform="matrix(1,0,0,1,0,623.975)">
            <path d="M139.808,103.175C138.048,105.004 136.208,106.596 134.101,108.03C131.208,109.78 128.248,111.121 125.035,112.2C119.396,113.871 113.77,114.45 107.89,114.424C102.584,114.147 97.504,113.266 92.438,111.7C88.905,110.45 85.599,108.951 82.372,107.056C80.532,105.846 78.799,104.57 77.106,103.162L76.946,103.347C78.653,104.754 80.386,106.057 82.239,107.267C85.492,109.161 88.812,110.687 92.358,111.937C97.465,113.49 102.557,114.384 107.89,114.66C113.77,114.752 119.476,114.081 125.116,112.437C128.342,111.358 131.315,109.977 134.235,108.24C136.355,106.767 138.234,105.201 139.994,103.333L139.808,103.175Z" style="fill:rgb(48,66,242);"/>
        </g>
        <g transform="matrix(1,0,0,1,0,570.319)">
            <path d="M74.175,135.844L74.135,135.752L74.055,135.726L73.975,135.752L73.935,135.844L74.175,135.844Z" style="fill:rgb(35,31,32);"/>
        </g>
        <g transform="matrix(1,0,0,1,0,585.877)">
            <path d="M142.852,120.336C143.052,123.007 142.519,124.572 140.945,126.743C138.026,129.506 134.759,131.019 130.986,132.374C123.84,134.439 116.654,135.295 109.215,135.492C101.709,135.465 94.416,134.742 87.163,132.769C83.217,131.414 79.804,129.9 76.697,127.098C74.924,124.862 74.218,123.125 74.164,120.284L73.924,120.284C73.977,123.191 74.697,124.967 76.511,127.256C79.657,130.098 83.11,131.65 87.11,133.005C94.376,134.979 101.695,135.702 109.215,135.729C116.681,135.531 123.88,134.676 131.066,132.611C134.879,131.242 138.186,129.703 141.132,126.901C142.759,124.691 143.292,123.047 143.092,120.31L142.852,120.336Z" style="fill:rgb(48,66,242);"/>
        </g>
        <g transform="matrix(1,0,0,1,0,547.02)">
            <path d="M78.562,147.494L78.522,147.402L78.442,147.376L78.362,147.402L78.322,147.494L78.562,147.494Z" style="fill:rgb(35,31,32);"/>
        </g>
        <g transform="matrix(1,0,0,1,0,556.813)">
            <path d="M138.429,137.713C138.453,139.176 138.237,139.864 137.47,141.076C135.313,143.188 132.784,144.138 129.98,145.013C123.1,146.738 116.124,147.101 109.065,147.101C101.91,146.926 94.826,146.201 87.862,144.426C84.974,143.538 82.289,142.563 79.892,140.626C79.053,139.601 78.693,139.038 78.562,137.701L78.322,137.701C78.454,139.126 78.837,139.738 79.736,140.813C82.169,142.776 84.878,143.776 87.815,144.663C94.79,146.438 101.885,147.163 109.065,147.338C116.124,147.388 123.16,146.976 130.039,145.251C132.904,144.363 135.445,143.388 137.662,141.238C138.489,139.951 138.693,139.226 138.669,137.688L138.429,137.713Z" style="fill:rgb(48,66,242);"/>
        </g>
        <g transform="matrix(1,0,0,1,0,547.035)">
            <path d="M138.669,147.467L138.629,147.388L138.536,147.362L138.456,147.401L138.429,147.493L138.669,147.467Z" style="fill:rgb(35,31,32);"/>
        </g>
        <g transform="matrix(1,0,0,1,0,524.904)">
            <path d="M88.989,158.598L89.029,158.506L89.003,158.427L88.923,158.388L88.829,158.414L88.989,158.598Z" style="fill:rgb(35,31,32);"/>
        </g>
        <g transform="matrix(1,0,0,1,0,530.587)">
            <path d="M128.074,152.915C128.647,153.586 128.914,153.862 128.794,154.731C127.794,156.151 125.967,156.52 124.368,156.967C119.195,158.059 113.888,158.309 108.609,158.309C103.302,158.282 97.996,157.98 92.797,156.888C91.197,156.454 89.33,156.059 88.304,154.665C88.157,153.836 88.424,153.56 88.97,152.915L88.81,152.731C88.184,153.467 87.93,153.783 88.064,154.744C89.17,156.243 91.01,156.651 92.743,157.125C97.97,158.204 103.276,158.48 108.609,158.572C113.915,158.519 119.208,158.282 124.421,157.204C126.141,156.73 127.967,156.336 129.034,154.809C129.154,153.81 128.887,153.494 128.234,152.731L128.074,152.915Z" style="fill:rgb(48,66,242);"/>
        </g>
        <g transform="matrix(1,0,0,1,0,524.898)">
            <path d="M128.242,158.417L128.148,158.391L128.068,158.43L128.041,158.509L128.082,158.601L128.242,158.417Z" style="fill:rgb(35,31,32);"/>
        </g>
        <g transform="matrix(1,0,0,1,0,582.069)">
            <path d="M108.729,95.384L108.596,95.384L108.622,164.437L108.889,164.437L108.863,95.384L108.729,95.384Z" style="fill:rgb(48,66,242);"/>
        </g>
        <g transform="matrix(1,0,0,1,0,512.884)">
            <path d="M108.861,164.569L108.821,164.477L108.728,164.437L108.634,164.477L108.594,164.569L108.861,164.569Z" style="fill:rgb(35,31,32);"/>
        </g>
        <g transform="matrix(1,0,0,1,0,547.182)">
            <path d="M131.657,164.72L131.617,162.943C131.498,160.654 131.271,158.378 130.924,156.103L130.618,154.458C129.604,149.854 128.004,145.552 125.685,141.434L124.925,140.224C122.165,136.264 118.912,133.08 114.432,131.094L113.312,130.712L112.192,130.41L111.046,130.186L109.886,130.041L108.713,129.989L108.713,130.252L109.886,130.278L111.019,130.423L112.139,130.647L113.259,130.949L114.352,131.331C118.792,133.238 121.992,136.474 124.711,140.355L125.471,141.566C127.805,145.617 129.351,149.933 130.378,154.485L130.684,156.129C131.031,158.392 131.257,160.654 131.378,162.943L131.391,164.72L131.657,164.72Z" style="fill:rgb(48,66,242);"/>
        </g>
        <g transform="matrix(1,0,0,1,0,616.641)">
            <path d="M108.717,129.997L109.89,129.944L111.05,129.799C116.143,128.813 120.05,125.918 123.29,122.011L124.129,120.906L124.929,119.749C125.703,118.525 126.422,117.262 127.089,115.973C128.409,113.105 129.462,110.184 130.262,107.132L130.622,105.514L130.929,103.883L131.182,102.212C131.449,99.897 131.622,97.581 131.662,95.253L131.396,95.253C131.382,97.581 131.209,99.884 130.942,102.186L130.689,103.856L130.382,105.488L130.022,107.08C129.235,110.119 128.169,113.013 126.876,115.868C126.209,117.144 125.489,118.393 124.716,119.617L123.916,120.775L123.103,121.853C119.89,125.721 116.05,128.563 111.024,129.563L109.89,129.707L108.717,129.733L108.717,129.997Z" style="fill:rgb(48,66,242);"/>
        </g>
        <g transform="matrix(1,0,0,1,0,616.657)">
            <path d="M85.777,95.245L85.817,97.021L85.91,98.77L86.057,100.494L86.257,102.204L86.51,103.875L86.817,105.506L87.177,107.124L87.59,108.703L88.057,110.242L88.563,111.742L89.11,113.189L89.71,114.584L90.35,115.965L91.03,117.267L91.75,118.543L92.51,119.74L93.31,120.898L94.15,122.003L95.003,123.029L95.909,124.003L96.843,124.91L97.803,125.753L98.789,126.529L99.803,127.226L100.856,127.844L101.909,128.397L103.002,128.883L104.122,129.265L105.242,129.568L106.389,129.791L107.548,129.936L108.722,129.989L108.722,129.726L107.548,129.699L106.415,129.554L105.296,129.331L104.175,129.028L103.082,128.647L102.016,128.186L100.962,127.634L99.936,127.015L98.923,126.318L97.963,125.568L97.003,124.726L96.096,123.845L95.19,122.871L94.336,121.845L93.523,120.766L92.723,119.609L91.963,118.412L91.243,117.162L90.563,115.859L89.95,114.504L89.35,113.11L88.804,111.663L88.297,110.163L87.83,108.65L87.417,107.071L87.057,105.48L86.75,103.848L86.497,102.178L86.297,100.494L86.15,98.77L86.057,97.021L86.044,95.245L85.777,95.245Z" style="fill:rgb(48,66,242);"/>
        </g>
        <g transform="matrix(1,0,0,1,0,547.196)">
            <path d="M108.717,129.982L107.544,130.034C105.971,130.231 104.504,130.573 102.998,131.087C98.971,132.876 95.932,135.612 93.305,139.072L92.505,140.217C89.732,144.637 87.932,149.386 86.812,154.451C86.186,157.858 85.839,161.252 85.772,164.712L86.039,164.712C86.053,161.252 86.426,157.871 87.052,154.477C88.185,149.452 89.972,144.729 92.718,140.348L93.518,139.204C96.078,135.796 99.105,133.034 103.078,131.323C104.544,130.81 105.997,130.468 107.544,130.271L108.717,130.245L108.717,129.982Z" style="fill:rgb(48,66,242);"/>
        </g>
        <g transform="matrix(1,0,0,1,0,547.205)">
            <path d="M141.102,164.721C140.955,159.472 139.929,154.551 137.889,149.697C135.689,145.237 132.956,141.33 129.263,137.936C125.09,134.437 120.53,132.003 115.197,130.687L113.598,130.385L111.984,130.161L110.345,130.016L108.691,129.964L108.691,130.227L110.345,130.253L111.958,130.398L113.571,130.621L115.144,130.924C120.424,132.226 124.957,134.66 129.103,138.12C132.716,141.527 135.529,145.329 137.649,149.802C139.702,154.591 140.769,159.511 140.835,164.721L141.102,164.721Z" style="fill:rgb(48,66,242);"/>
        </g>
        <g transform="matrix(1,0,0,1,0,616.702)">
            <path d="M108.705,129.972L110.358,129.92L111.998,129.775L113.612,129.551L115.211,129.249C123.304,127.262 129.797,122.579 134.65,115.948L135.543,114.593L136.396,113.173C138.836,108.595 140.343,103.885 140.929,98.741L141.063,96.991L141.116,95.215L140.849,95.215L140.823,96.991L140.689,98.741C140.103,103.832 138.61,108.529 136.183,113.067L135.33,114.462L134.437,115.817C129.65,122.395 123.157,127.039 115.158,129.012L113.585,129.315L111.972,129.538L110.358,129.683L108.705,129.709L108.705,129.972Z" style="fill:rgb(35,31,32);"/>
        </g>
        <g transform="matrix(1,0,0,1,0,616.719)">
            <path d="M76.285,95.207L76.338,96.983L76.471,98.732L76.671,100.469L76.964,102.166C77.671,105.507 78.724,108.652 80.231,111.717L81.004,113.164L81.857,114.585C85.764,120.505 90.99,125.07 97.603,127.833L99.109,128.385L100.642,128.859L102.202,129.24L103.802,129.543L105.415,129.766L107.055,129.911L108.709,129.964L108.709,129.701L107.055,129.674L105.442,129.53L103.829,129.306L102.256,129.003L100.696,128.622L99.189,128.148L97.683,127.596C91.11,124.807 85.964,120.36 82.071,114.453L81.217,113.059L80.444,111.612C78.991,108.547 77.924,105.455 77.204,102.14L76.911,100.443L76.711,98.732L76.578,96.983L76.551,95.207L76.285,95.207Z" style="fill:rgb(48,66,242);"/>
        </g>
        <g transform="matrix(1,0,0,1,0,547.222)">
            <path d="M108.705,129.955L107.052,130.008L105.412,130.153C99.373,130.981 94.173,133.231 89.347,136.901L88.134,137.927C84.454,141.348 81.708,145.203 79.494,149.689C77.401,155.201 76.454,158.2 76.281,164.712L76.548,164.712C76.628,158.266 77.641,155.24 79.734,149.794C81.854,145.334 84.654,141.493 88.294,138.112L89.507,137.086C94.293,133.468 99.453,131.218 105.439,130.389L107.052,130.245L108.705,130.218L108.705,129.955Z" style="fill:rgb(48,66,242);"/>
        </g>
        <g transform="matrix(1,0,0,1,0,608.661)">
            <path d="M113.444,178.063C113.504,177.558 113.563,177.053 114.57,177.172C115.577,177.292 115.518,177.795 115.458,178.299C115.124,181.129 113.732,183.644 111.702,185.448C109.684,187.245 107.035,188.339 104.174,188.339C101.042,188.339 98.198,187.062 96.138,185.002C94.079,182.943 92.802,180.099 92.802,176.967C92.802,174.283 93.766,171.766 95.383,169.785C97.005,167.799 99.284,166.354 101.909,165.821C102.407,165.719 102.904,165.618 103.107,166.609C103.308,167.6 102.811,167.701 102.314,167.802C100.158,168.24 98.288,169.428 96.954,171.062C95.625,172.689 94.832,174.758 94.832,176.967C94.832,179.538 95.881,181.875 97.575,183.567C99.265,185.259 101.602,186.309 104.174,186.309C106.522,186.309 108.696,185.41 110.355,183.934C112.024,182.449 113.17,180.382 113.444,178.063ZM65.634,141.062C65.634,142.255 65.284,143.323 64.578,144.274C63.879,145.225 63.045,145.7 62.073,145.7C61.101,145.7 60.266,145.225 59.569,144.274C58.861,143.323 58.513,142.255 58.513,141.062C58.513,139.879 58.861,138.875 59.548,138.04C60.245,137.205 61.08,136.783 62.073,136.783C63.045,136.783 63.879,137.205 64.578,138.04C65.284,138.875 65.634,139.879 65.634,141.062ZM51.075,127.645L52.046,125.532L49.917,124.629L49.384,123.242L53.198,123.667L54.15,126.147L51.607,129.033L51.075,127.645ZM59.301,123.638L61.076,128.264L57.136,129.776L52.456,117.585L63.822,119.823L61.862,114.716L65.932,113.154L70.853,125.976L59.301,123.638ZM51.762,113.141L51.132,108.007L65.194,106.28L65.825,111.414L51.762,113.141ZM50.388,103.599L51.152,98.163L56.444,97.386C56.621,97.357 56.792,97.335 56.954,97.317C57.117,97.3 57.279,97.283 57.441,97.266C57.835,97.215 58.234,97.184 58.635,97.173C59.037,97.163 59.45,97.161 59.877,97.168L59.871,97.067C59.474,96.944 59.085,96.817 58.704,96.683C58.323,96.549 57.936,96.402 57.546,96.24C57.42,96.183 57.295,96.125 57.169,96.067C57.044,96.009 56.919,95.951 56.794,95.895L51.794,93.591L52.547,88.233L65.828,95.543L65.169,100.233L50.388,103.599ZM54.169,84.203L56.107,79.407L69.244,84.715L67.306,89.511L54.169,84.203ZM73.285,68.766C72.993,68.581 72.698,68.389 72.4,68.19C72.102,67.992 71.811,67.794 71.528,67.599C71.497,67.573 71.464,67.551 71.429,67.531C71.394,67.511 71.361,67.489 71.33,67.464C71.299,67.439 71.266,67.417 71.232,67.397C71.197,67.378 71.164,67.355 71.133,67.33C71.451,67.672 71.756,68.025 72.048,68.389C72.339,68.753 72.619,69.137 72.887,69.541L76.084,74.221L74.176,76.577L68.918,74.411C68.486,74.23 68.06,74.038 67.639,73.833C67.219,73.628 66.803,73.411 66.394,73.182C66.55,73.325 66.706,73.473 66.863,73.626C67.02,73.778 67.177,73.926 67.333,74.07C67.491,74.232 67.647,74.384 67.804,74.527C67.96,74.671 68.116,74.823 68.274,74.985L72.231,78.979L69.088,82.86L59.598,72.065L62.903,67.983L66.265,69.405C66.59,69.55 66.903,69.688 67.203,69.821C67.503,69.954 67.793,70.09 68.071,70.23C68.406,70.383 68.74,70.548 69.073,70.724C69.407,70.9 69.744,71.092 70.085,71.3L70.119,71.227C69.822,70.901 69.533,70.565 69.253,70.218C68.972,69.872 68.696,69.521 68.423,69.165C68.259,68.947 68.1,68.729 67.946,68.51C67.792,68.292 67.636,68.068 67.481,67.84L65.447,64.842L68.752,60.761L81.172,67.937L78.03,71.818L73.285,68.766ZM88.42,57.904C88.425,57.709 88.395,57.505 88.331,57.293C88.267,57.081 88.185,56.874 88.083,56.674C88.071,56.651 88.058,56.624 88.043,56.595C88.028,56.565 88.014,56.539 88.002,56.516C87.846,56.239 87.65,55.991 87.411,55.771C87.173,55.551 86.921,55.383 86.654,55.267C86.334,55.134 86.009,55.077 85.678,55.097C85.347,55.117 85.037,55.209 84.749,55.37C84.396,55.55 84.098,55.802 83.856,56.127C83.613,56.45 83.472,56.822 83.434,57.241C83.419,57.501 83.44,57.768 83.498,58.043C83.557,58.317 83.651,58.584 83.783,58.843C83.969,59.208 84.215,59.524 84.522,59.79C84.828,60.057 85.171,60.242 85.549,60.345C85.833,60.407 86.108,60.424 86.375,60.392C86.64,60.361 86.89,60.285 87.126,60.165C87.526,59.961 87.849,59.655 88.093,59.249C88.339,58.842 88.451,58.4 88.429,57.922L88.42,57.904ZM93.534,57.989C93.487,59.408 93.057,60.675 92.247,61.792C91.437,62.909 90.438,63.77 89.249,64.376C89.202,64.4 89.155,64.424 89.108,64.448C89.061,64.472 89.014,64.496 88.966,64.52C88.278,64.826 87.557,65.042 86.805,65.165C86.052,65.29 85.289,65.289 84.514,65.165C83.336,64.979 82.283,64.519 81.352,63.784C80.422,63.05 79.696,62.171 79.175,61.147C78.815,60.441 78.568,59.687 78.435,58.888C78.302,58.089 78.306,57.29 78.448,56.49C78.669,55.295 79.156,54.235 79.908,53.311C80.66,52.387 81.554,51.66 82.59,51.133C82.625,51.115 82.658,51.098 82.687,51.083C82.717,51.068 82.749,51.051 82.784,51.034C83.644,50.625 84.558,50.374 85.526,50.282C86.494,50.189 87.446,50.289 88.382,50.584C89.33,50.872 90.177,51.356 90.923,52.035C91.67,52.715 92.269,53.497 92.718,54.379C93,54.933 93.213,55.517 93.356,56.133C93.5,56.75 93.562,57.374 93.544,58.007L93.534,57.989ZM124.855,56.341L126.871,56.996C126.874,56.775 126.881,56.549 126.894,56.316C126.907,56.085 126.915,55.858 126.918,55.636C126.95,55.064 127,54.493 127.067,53.925C127.134,53.355 127.232,52.786 127.362,52.217L127.273,52.168C127.039,52.717 126.782,53.241 126.501,53.741C126.222,54.24 125.927,54.731 125.617,55.214C125.489,55.394 125.362,55.582 125.236,55.778C125.11,55.973 124.981,56.167 124.848,56.36L124.855,56.341ZM137.974,61.313L142.464,54.9L146.636,57.821L141.35,65.37C141.07,65.77 140.776,66.149 140.469,66.507C140.163,66.864 139.798,67.161 139.374,67.397C138.821,67.704 138.226,67.875 137.587,67.912C136.949,67.948 136.335,67.857 135.746,67.639C135.484,67.552 135.225,67.444 134.97,67.313C134.715,67.183 134.468,67.034 134.229,66.867C133.97,66.686 133.724,66.485 133.49,66.265C133.257,66.045 133.043,65.811 132.847,65.561C132.55,65.223 132.312,64.856 132.132,64.456C131.975,64.106 131.841,63.754 131.73,63.4L131.743,63.997L126.542,62.307L126.659,60.47L123.003,59.282L122.037,60.843L116.854,59.159L116.859,59.153L103.512,58.92L110.006,49.083L105.052,48.997L105.126,44.777L118.183,45.005L111.85,54.705L117.319,54.8L117.252,58.642L126.02,47.239L131.41,48.991L131.726,63.221L135.209,61.046C135.212,61.112 135.218,61.172 135.227,61.227C135.237,61.283 135.247,61.338 135.257,61.393C135.298,61.633 135.367,61.869 135.46,62.105C135.554,62.34 135.698,62.525 135.893,62.661C135.914,62.677 135.936,62.691 135.958,62.707C135.98,62.722 136.005,62.732 136.034,62.736C136.056,62.751 136.079,62.764 136.105,62.773C136.13,62.783 136.158,62.79 136.187,62.794C136.419,62.877 136.638,62.84 136.843,62.686C137.049,62.531 137.236,62.344 137.406,62.124C137.478,62.045 137.547,61.957 137.615,61.859C137.684,61.762 137.739,61.672 137.781,61.588C137.819,61.534 137.853,61.486 137.884,61.442C137.914,61.399 137.94,61.361 137.963,61.329L137.974,61.313ZM151.023,61.732L157.238,68.881L154.336,71.404L151.398,68.024L150.366,68.92L153.032,71.987L150.295,74.366L147.63,71.3L146.508,72.275L149.524,75.744L146.622,78.267L140.33,71.028L151.023,61.732ZM153.759,82.901C153.759,82.931 153.763,82.954 153.771,82.972C153.779,82.99 153.787,83.005 153.792,83.017C153.848,83.108 153.904,83.202 153.957,83.301C154.011,83.4 154.068,83.5 154.131,83.603C154.243,83.813 154.373,84.014 154.522,84.207C154.67,84.4 154.84,84.561 155.032,84.691C155.374,84.925 155.745,85.048 156.143,85.058C156.542,85.069 156.923,85.012 157.287,84.886C157.353,84.87 157.412,84.849 157.466,84.824C157.52,84.799 157.577,84.772 157.637,84.745C158.691,84.253 159.228,83.656 159.25,82.953C159.272,82.251 159.095,81.462 158.717,80.59L153.759,82.901ZM160.55,74.158L162.292,77.894C162.392,78.14 162.493,78.38 162.596,78.616C162.699,78.852 162.801,79.093 162.9,79.338C163.233,80.145 163.492,80.969 163.679,81.807C163.866,82.645 163.886,83.5 163.738,84.37C163.553,85.507 163.106,86.516 162.396,87.401C161.687,88.286 160.822,88.966 159.805,89.44C159.529,89.569 159.246,89.679 158.954,89.772C158.662,89.864 158.361,89.939 158.052,89.995C156.549,90.274 155.167,90.076 153.906,89.403C152.645,88.731 151.62,87.769 150.833,86.518C150.68,86.283 150.536,86.045 150.4,85.801C150.265,85.559 150.133,85.313 150.003,85.068C149.881,84.804 149.761,84.547 149.643,84.296C149.526,84.044 149.409,83.792 149.292,83.541L147.709,80.146L160.55,74.158ZM167.914,94.241L168.088,99.233L160.815,103.889C160.946,103.871 161.088,103.85 161.239,103.824C161.39,103.799 161.538,103.778 161.683,103.759C161.973,103.722 162.266,103.696 162.562,103.679C162.859,103.662 163.16,103.648 163.463,103.637L168.236,103.471L168.408,108.382L154.247,108.877L154.071,103.846L161.267,99.233C161.07,99.266 160.879,99.296 160.695,99.322C160.511,99.349 160.327,99.371 160.142,99.391C159.944,99.411 159.753,99.427 159.569,99.44C159.385,99.454 159.2,99.464 159.015,99.47L153.925,99.648L153.753,94.736L167.914,94.241ZM156.25,122.069C156.384,122.21 156.549,122.333 156.744,122.438C156.94,122.543 157.144,122.63 157.357,122.699C157.382,122.708 157.41,122.717 157.442,122.727C157.474,122.738 157.502,122.747 157.527,122.755C157.833,122.84 158.147,122.876 158.471,122.863C158.795,122.851 159.092,122.791 159.363,122.684C159.683,122.552 159.953,122.362 160.173,122.114C160.393,121.866 160.547,121.582 160.637,121.264C160.76,120.887 160.792,120.499 160.734,120.098C160.676,119.697 160.513,119.335 160.243,119.011C160.07,118.817 159.867,118.642 159.631,118.49C159.396,118.337 159.14,118.215 158.864,118.126C158.475,117.999 158.078,117.95 157.672,117.978C157.267,118.006 156.894,118.118 156.553,118.313C156.308,118.469 156.103,118.652 155.937,118.862C155.771,119.072 155.648,119.303 155.566,119.554C155.427,119.982 155.415,120.426 155.53,120.887C155.644,121.347 155.877,121.74 156.231,122.062L156.25,122.069ZM152.573,125.625C151.604,124.588 151.011,123.388 150.794,122.025C150.577,120.663 150.674,119.347 151.087,118.078C151.103,118.028 151.119,117.978 151.135,117.927C151.152,117.878 151.168,117.827 151.185,117.777C151.455,117.073 151.812,116.411 152.257,115.791C152.702,115.172 153.241,114.632 153.877,114.172C154.841,113.471 155.912,113.051 157.089,112.913C158.266,112.774 159.401,112.882 160.494,113.238C161.248,113.482 161.954,113.841 162.614,114.312C163.273,114.783 163.836,115.352 164.3,116.016C164.989,117.018 165.394,118.112 165.516,119.297C165.638,120.483 165.519,121.629 165.16,122.734C165.148,122.772 165.136,122.806 165.126,122.838C165.116,122.869 165.105,122.904 165.092,122.942C164.773,123.838 164.305,124.661 163.686,125.412C163.066,126.162 162.323,126.764 161.452,127.218C160.578,127.684 159.638,127.941 158.629,127.988C157.621,128.036 156.645,127.906 155.703,127.6C155.111,127.408 154.548,127.145 154.011,126.811C153.473,126.476 152.988,126.08 152.554,125.619L152.573,125.625ZM158.454,140.444C158.454,141.638 158.105,142.705 157.398,143.656C156.7,144.606 155.866,145.082 154.893,145.082C153.921,145.082 153.087,144.606 152.39,143.656C151.682,142.705 151.333,141.638 151.333,140.444C151.333,139.26 151.682,138.257 152.368,137.422C153.065,136.587 153.901,136.165 154.893,136.165C155.866,136.165 156.7,136.587 157.398,137.422C158.105,138.257 158.454,139.26 158.454,140.444ZM168.594,135.866L159.479,151.643L159.479,186.308C159.479,187.734 158.803,188.452 157.461,188.452C156.119,188.452 155.453,187.734 155.453,186.308L155.453,165.79L154.397,165.79L154.397,186.308C154.397,187.734 153.732,188.452 152.39,188.452C151.048,188.452 150.371,187.734 150.371,186.308L150.371,151.643L140.53,134.408C139.444,132.504 141.728,130.687 143.207,132.443L150.106,144.097C150.69,145.085 151.659,145.523 152.769,145.569L157.024,145.682C158.031,145.493 159.114,145.111 159.711,144.114L165.338,134.72C167.275,129.733 171.373,131.769 168.594,135.866ZM88.237,161.281L88.237,168.245L89.282,171.336L88.84,172.024L88.84,175.701L88.34,175.701L88.34,186.935C88.34,187.943 87.859,188.452 86.879,188.452C85.928,188.452 85.446,187.943 85.446,186.935L85.446,175.701L84.947,175.701L84.947,172.024L84.203,172.024L84.203,175.701L83.703,175.701L83.703,186.935C83.703,187.943 83.222,188.452 82.27,188.452C81.309,188.452 80.837,187.943 80.837,186.935L80.837,175.701L80.311,175.701L80.311,172.024L79.867,171.336L80.942,168.245L80.942,161.287L73.085,147.528C72.218,146.008 74.041,144.557 75.223,145.959L80.73,155.264C81.197,156.052 81.97,156.402 82.857,156.439L86.253,156.529C87.057,156.378 87.922,156.073 88.398,155.277L92.891,147.777C94.438,143.796 97.709,145.422 95.49,148.692L88.218,161.281L88.237,161.281ZM87.242,152.355C87.242,153.256 86.975,154.061 86.444,154.78C85.915,155.497 85.287,155.857 84.553,155.857C83.818,155.857 83.191,155.497 82.662,154.78C82.13,154.061 81.864,153.256 81.864,152.355C81.864,151.461 82.125,150.701 82.645,150.072C83.17,149.44 83.803,149.124 84.553,149.124C85.287,149.124 85.915,149.444 86.444,150.072C86.975,150.705 87.242,151.461 87.242,152.355ZM128.446,152.792L128.07,153.497L128.202,153.721L128.202,153.687C129.26,153.647 129.777,153.107 129.777,152.05C129.777,151.318 130.052,150.627 130.602,149.997C131.151,149.355 131.781,149.04 132.493,149.04C133.225,149.04 133.866,149.355 134.404,149.997C134.933,150.627 135.208,151.318 135.208,152.05C135.208,153.107 135.726,153.647 136.784,153.687L136.784,153.695L136.926,153.458L136.571,152.792L137.325,152.792L140.402,147.656C141.873,143.868 144.986,145.414 142.875,148.526L136.042,160.355L136.042,167.241L139.194,175.406L136.042,175.406L136.042,186.815C136.042,187.903 135.513,188.452 134.456,188.452C133.429,188.452 132.91,187.903 132.91,186.815L132.91,175.406L132.107,175.406L132.107,186.815C132.107,187.903 131.588,188.452 130.561,188.452C129.523,188.452 129.005,187.903 129.005,186.815L129.005,175.406L125.793,175.406L129.005,167.241L129.005,160.467L121.554,147.418C120.729,145.973 122.464,144.593 123.587,145.926L127.652,152.792L128.446,152.792ZM136.407,154.324C135.724,154.244 135.272,153.979 135.056,153.545C134.68,154.928 133.825,155.629 132.493,155.629C131.161,155.629 130.307,154.928 129.93,153.545C129.729,153.983 129.269,154.249 128.56,154.327L128.83,154.781C129.274,155.531 130.009,155.864 130.854,155.899L134.085,155.985C134.849,155.841 135.672,155.551 136.127,154.793L136.407,154.324ZM104.517,162.291L100.216,154.915C99.267,153.286 95.699,152.596 98.209,156.606L103.573,165.162C105.518,166.902 104.797,172.284 104.975,175.853L116.173,175.923L118.272,186.21L123.623,185.111C125.29,184.497 124.546,182.179 123.022,182.492L120.441,182.99L118.411,173.125L108.567,171.317L107.986,167.388L115.165,160.592C116.751,160.418 116.751,158.096 115.165,158.143L107.767,164.867L107.777,162.402C107.71,160.983 104.744,160.66 104.517,162.291ZM109.064,156.534C109.064,157.524 108.775,158.408 108.19,159.197C107.612,159.985 106.919,160.379 106.113,160.379C105.307,160.379 104.616,159.985 104.037,159.197C103.45,158.408 103.162,157.524 103.162,156.534C103.162,155.553 103.45,154.721 104.021,154.03C104.599,153.338 105.29,152.988 106.113,152.988C106.919,152.988 107.612,153.338 108.19,154.03C108.775,154.721 109.064,155.553 109.064,156.534ZM70.706,171.511L66.632,171.511L66.632,186.32C66.632,187.745 65.946,188.452 64.583,188.452C63.243,188.452 62.579,187.745 62.579,186.32L62.579,171.511L61.554,171.511L61.554,186.32C61.554,187.745 60.879,188.452 59.517,188.452C58.198,188.452 57.533,187.745 57.533,186.32L57.533,171.511L53.332,171.511L57.501,160.903L57.501,152.174L47.71,135.026C46.624,133.123 48.906,131.305 50.386,133.061L57.285,144.716C57.87,145.703 58.838,146.142 59.949,146.186L64.204,146.3C65.21,146.112 66.293,145.728 66.89,144.732L72.518,135.337C74.455,130.352 78.552,132.386 75.773,136.483L66.658,152.261L66.632,152.261L66.632,160.903L70.706,171.511Z" style="fill:rgb(48,66,242);fill-rule:nonzero;"/>
        </g>
    </g>
</svg>
