<?xml version="1.0" encoding="UTF-8" standalone="no"?>
<!DOCTYPE svg PUBLIC "-//W3C//DTD SVG 1.1//EN" "http://www.w3.org/Graphics/SVG/1.1/DTD/svg11.dtd">
<svg width="100%" height="100%" viewBox="0 0 1184 1184" version="1.1" xmlns="http://www.w3.org/2000/svg" xmlns:xlink="http://www.w3.org/1999/xlink" xml:space="preserve" xmlns:serif="http://www.serif.com/" style="fill-rule:evenodd;clip-rule:evenodd;stroke-linejoin:round;stroke-miterlimit:2;">
    <g transform="matrix(4.16667,0,0,4.16667,0,0)">
        <rect x="0" y="0.535" width="283.465" height="283.465" style="fill:rgb(255,244,226);"/>
        <path d="M58.092,182.053L58.092,189.473L12.224,189.473L44.306,149.656L17.485,149.656L17.485,142.34L59.413,142.34L27.511,182.053L58.092,182.053Z" style="fill:white;fill-rule:nonzero;"/>
        <path d="M73.84,168.613C73.84,176.537 74.743,183.357 84.47,183.357C94.197,183.357 95.1,176.537 95.1,168.613L95.1,142.34L103.122,142.34L103.122,169.517C103.122,182.053 98.41,190.779 84.47,190.779C70.53,190.779 65.817,182.053 65.817,169.517L65.817,142.34L73.84,142.34L73.84,168.613Z" style="fill:white;fill-rule:nonzero;"/>
        <path d="M81.428,117.152C81.428,120.162 79.022,122.568 76.013,122.568C73.004,122.568 70.599,120.162 70.599,117.152C70.599,114.144 73.004,111.737 76.013,111.737C79.022,111.737 81.428,114.144 81.428,117.152Z" style="fill:white;fill-rule:nonzero;"/>
        <path d="M98.443,117.152C98.443,120.162 96.036,122.568 93.028,122.568C90.019,122.568 87.612,120.162 87.612,117.152C87.612,114.144 90.019,111.737 93.028,111.737C96.036,111.737 98.443,114.144 98.443,117.152Z" style="fill:white;fill-rule:nonzero;"/>
        <path d="M122.83,112.004L122.83,147.855L123.031,148.056C126.34,143.543 130.651,141.035 136.468,141.035C149.506,141.035 152.512,150.462 152.512,161.494L152.512,189.473L144.49,189.473L144.49,162.898C144.49,155.277 143.888,148.457 134.564,148.457C123.532,148.457 122.83,158.685 122.83,167.109L122.83,189.473L114.805,189.473L114.805,112.004L122.83,112.004Z" style="fill:white;fill-rule:nonzero;"/>
        <rect x="164.313" y="112.004" width="8.023" height="77.469" style="fill:white;fill-rule:nonzero;"/>
        <path d="M193.566,159.791L210.719,142.34L221.447,142.34L201.291,162.396L225.258,189.473L214.628,189.473L193.566,165.602L193.566,189.473L185.545,189.473L185.545,112.004L193.566,112.004L193.566,159.791Z" style="fill:white;fill-rule:nonzero;"/>
        <path d="M262.621,174.42C259.604,179.625 255.383,183.357 249.023,183.357C240.081,183.357 233.99,176.338 233.892,167.609L270.146,167.609C270.932,153.572 263.073,141.035 248.234,141.035C233.793,141.035 225.836,152.57 225.836,166.509C225.836,180.046 234.675,190.779 248.434,190.779C257.549,190.779 264.646,186.168 269.114,178.26L262.621,174.42ZM248.333,148.457C255.211,148.457 260.811,153.973 261.893,160.793L234.283,160.793C235.267,153.973 241.555,148.457 248.333,148.457Z" style="fill:white;fill-rule:nonzero;"/>
        <path d="M27.207,227.75C25.887,230.353 23.676,231.816 20.679,231.816C15.149,231.816 12.974,227.036 12.974,222.149C12.974,217.013 15.292,212.482 20.929,212.482C23.782,212.482 25.994,213.907 27.1,216.513C27.386,217.225 27.635,218.01 27.635,218.832C27.635,219.581 27.279,219.865 26.601,219.973L15.72,221.578C15.899,224.825 17.361,228.928 21.214,228.928C23.64,228.928 25.138,227.428 26.315,225.468C26.565,225.073 26.636,224.718 27.172,224.718C27.707,224.718 27.849,225.146 27.849,225.609C27.849,226.181 27.457,227.214 27.207,227.75ZM24.21,218.511C24.032,216.476 22.606,214.514 20.394,214.514C17.29,214.514 16.006,217.119 15.72,219.865L24.21,218.511Z" style="fill:white;fill-rule:nonzero;"/>
        <path d="M54.319,230.711C54.319,231.175 54.212,231.389 53.677,231.389L51.786,231.389C51.251,231.389 51.144,231.281 51.144,230.711L51.144,219.118C51.144,216.726 50.787,214.479 47.754,214.479C46.364,214.479 45.008,215.122 44.473,216.513C44.33,216.941 44.294,217.762 44.294,218.224L44.294,230.711C44.294,231.139 44.259,231.389 43.724,231.389L41.726,231.389C41.334,231.389 41.119,231.175 41.119,230.782L41.119,218.439C41.119,216.12 40.192,214.372 37.624,214.372C36.197,214.372 34.948,214.942 34.377,216.334C34.127,216.868 34.163,217.655 34.163,218.224L34.163,230.711C34.163,231.246 34.021,231.389 33.485,231.389L31.666,231.389C31.131,231.389 31.024,231.246 31.024,230.711L31.024,216.369C31.024,215.335 30.988,214.871 31.737,214.051C32.772,212.945 36.232,212.482 37.624,212.482C39.764,212.482 41.619,212.91 42.939,214.657C44.509,212.945 46.257,212.482 48.54,212.482C52.25,212.482 54.319,214.087 54.319,217.832L54.319,230.711Z" style="fill:white;fill-rule:nonzero;"/>
        <path d="M65.556,231.816C64.022,231.816 62.952,231.389 61.703,230.532L61.703,239.165C61.703,239.557 61.525,239.772 61.132,239.772L59.206,239.772C58.742,239.772 58.528,239.665 58.528,239.13L58.528,217.547C58.528,216.691 58.421,215.514 58.957,214.764C60.026,213.124 63.772,212.482 65.521,212.482C71.014,212.482 73.833,216.084 73.832,221.328C73.832,226.181 71.085,231.816 65.556,231.816ZM64.807,214.443C62.417,214.443 61.703,215.335 61.703,217.583L61.703,228.463C62.809,229.141 64.022,229.64 65.306,229.64C69.231,229.64 70.586,225.146 70.586,221.971C70.586,218.331 69.016,214.443 64.807,214.443Z" style="fill:white;fill-rule:nonzero;"/>
        <path d="M84.356,231.816C78.933,231.816 76.151,227.001 76.151,222.112C76.151,217.369 79.112,212.482 84.356,212.482C89.636,212.482 92.418,217.583 92.418,222.327C92.418,227.036 89.493,231.816 84.356,231.816ZM89.064,221.792C89.064,218.973 87.566,214.479 84.106,214.479C80.503,214.479 79.468,218.795 79.468,221.649C79.468,224.61 80.682,229.64 84.499,229.64C88.03,229.64 89.064,225.217 89.064,222.47L89.064,221.792Z" style="fill:white;fill-rule:nonzero;"/>
        <path d="M116.462,213.944L111.183,230.853C111.076,231.175 111.04,231.389 110.647,231.389L109.399,231.389C108.864,231.389 108.792,231.389 108.65,230.853L105.118,219.366L101.586,230.853C101.444,231.389 101.408,231.389 100.873,231.389L99.874,231.389C99.41,231.389 99.303,231.281 99.16,230.853L93.738,213.944C93.631,213.694 93.596,213.515 93.596,213.338C93.596,213.016 93.844,212.91 94.13,212.91L96.092,212.91C96.663,212.91 96.771,213.016 96.948,213.587L100.873,226.751L104.726,213.587C104.904,212.839 104.833,212.91 105.689,212.91C106.082,212.91 106.045,213.16 106.153,213.48L110.219,226.893L113.965,213.587C114.108,213.052 114.144,212.91 114.715,212.91L116.035,212.91C116.284,212.91 116.641,212.945 116.641,213.266C116.641,213.515 116.57,213.694 116.462,213.944Z" style="fill:white;fill-rule:nonzero;"/>
        <path d="M132.016,227.75C130.696,230.353 128.483,231.816 125.488,231.816C119.958,231.816 117.782,227.036 117.782,222.149C117.782,217.013 120.101,212.482 125.738,212.482C128.591,212.482 130.802,213.907 131.909,216.513C132.194,217.225 132.444,218.01 132.444,218.832C132.444,219.581 132.088,219.865 131.41,219.973L120.529,221.578C120.708,224.825 122.17,228.928 126.023,228.928C128.448,228.928 129.947,227.428 131.124,225.468C131.374,225.073 131.445,224.718 131.98,224.718C132.516,224.718 132.658,225.146 132.658,225.609C132.658,226.181 132.266,227.214 132.016,227.75ZM129.02,218.511C128.841,216.476 127.414,214.514 125.203,214.514C122.099,214.514 120.814,217.119 120.529,219.865L129.02,218.511Z" style="fill:white;fill-rule:nonzero;"/>
        <path d="M144.716,216.084C143.289,216.084 143.289,214.194 141.113,214.194C139.436,214.194 139.043,215.264 139.043,216.726L139.043,230.746C139.043,231.139 138.937,231.389 138.508,231.389L136.582,231.389C136.047,231.389 135.833,231.352 135.833,230.746L135.833,215.871C135.833,215.157 135.833,214.55 136.368,214.015C137.402,212.98 141.042,212.482 142.468,212.482C143.859,212.482 146.142,212.731 146.142,214.55C146.142,215.371 145.536,216.084 144.716,216.084Z" style="fill:white;fill-rule:nonzero;"/>
        <path d="M150.062,209.734C148.955,209.734 148.136,209.021 148.136,207.879C148.136,206.773 148.955,205.953 150.062,205.953C151.239,205.953 151.952,206.773 151.952,207.951C151.952,208.984 151.096,209.734 150.062,209.734ZM151.631,230.711C151.631,231.246 151.561,231.389 151.025,231.389L148.921,231.389C148.528,231.389 148.456,231.281 148.456,230.889L148.456,213.48C148.456,213.016 148.6,212.91 149.062,212.91L150.953,212.91C151.524,212.91 151.631,213.016 151.631,213.587L151.631,230.711Z" style="fill:white;fill-rule:nonzero;"/>
        <path d="M170.154,230.675C170.154,231.067 170.047,231.389 169.583,231.389L167.728,231.389C167.192,231.389 166.979,231.316 166.979,230.746L166.979,218.689C166.979,217.938 166.979,216.941 166.657,216.226C165.944,214.692 164.339,214.3 162.805,214.3C161.557,214.3 160.059,214.587 159.346,215.691C159.023,216.226 158.953,216.905 158.953,217.511L158.953,230.675C158.953,231.209 158.846,231.389 158.311,231.389L156.349,231.389C155.885,231.389 155.777,231.139 155.777,230.711L155.777,216.334C155.777,215.478 155.813,214.801 156.49,214.194C157.847,212.91 161.593,212.482 163.377,212.482C165.944,212.482 168.655,213.016 169.798,215.585C170.118,216.405 170.154,217.547 170.154,218.367L170.154,230.675Z" style="fill:white;fill-rule:nonzero;"/>
        <path d="M173.863,237.167C173.936,237.096 174.042,236.954 174.149,236.882C174.257,236.774 174.363,236.739 174.542,236.704C175.933,236.811 177.003,237.631 178.681,237.631C182.354,237.631 184.637,235.704 184.637,231.709L184.637,230.176C182.854,230.996 181.784,232.03 179.786,232.03C175.112,232.03 172.972,227.679 172.972,223.221C172.972,217.797 176.111,212.374 181.713,212.374C183.282,212.374 187.776,213.194 187.776,215.657L187.776,232.244C187.776,237.133 183.282,239.914 179.036,239.914C178.323,239.914 176.968,239.7 175.79,239.236C174.649,238.772 173.863,238.345 173.863,237.488L173.863,237.167ZM180.855,229.462C181.604,229.462 184.637,228.89 184.637,227.928L184.637,216.441C184.637,214.801 182.533,214.372 181.354,214.372C177.468,214.372 176.111,219.118 176.111,222.433C176.111,225.752 177.253,229.462 180.855,229.462Z" style="fill:white;fill-rule:nonzero;"/>
        <path d="M201.403,209.734C200.298,209.734 199.477,209.021 199.477,207.879C199.477,206.773 200.298,205.953 201.403,205.953C202.58,205.953 203.296,206.773 203.296,207.951C203.296,208.984 202.438,209.734 201.403,209.734ZM202.975,230.711C202.975,231.246 202.903,231.389 202.367,231.389L200.262,231.389C199.869,231.389 199.799,231.281 199.799,230.889L199.799,213.48C199.799,213.016 199.94,212.91 200.405,212.91L202.296,212.91C202.866,212.91 202.975,213.016 202.975,213.587L202.975,230.711Z" style="fill:white;fill-rule:nonzero;"/>
        <path d="M221.738,227.857C221.738,228.569 221.666,229.069 221.237,229.64C219.989,231.281 216.636,231.816 214.675,231.816C209.109,231.816 206.256,228.071 206.256,222.72C206.256,217.689 209.145,212.482 214.71,212.482C216.138,212.482 217.35,212.839 218.526,213.659L218.526,204.775C218.526,204.311 218.74,204.097 219.205,204.097L221.024,204.097C221.487,204.097 221.738,204.169 221.738,204.705L221.738,227.857ZM218.526,215.657C217.529,214.801 216.493,214.337 215.103,214.337C211.25,214.337 209.466,218.511 209.466,221.828C209.466,225.539 211.071,229.604 215.353,229.604C217.456,229.604 218.526,228.928 218.526,226.786L218.526,215.657Z" style="fill:white;fill-rule:nonzero;"/>
        <path d="M239.074,227.75C237.756,230.353 235.544,231.816 232.547,231.816C227.018,231.816 224.841,227.036 224.841,222.149C224.841,217.013 227.159,212.482 232.796,212.482C235.65,212.482 237.862,213.907 238.968,216.513C239.252,217.225 239.502,218.01 239.502,218.832C239.502,219.581 239.146,219.865 238.468,219.973L227.587,221.578C227.767,224.825 229.229,228.928 233.082,228.928C235.509,228.928 237.005,227.428 238.184,225.468C238.434,225.073 238.505,224.718 239.039,224.718C239.573,224.718 239.717,225.146 239.717,225.609C239.717,226.181 239.325,227.214 239.074,227.75ZM236.078,218.511C235.9,216.475 234.474,214.514 232.262,214.514C229.158,214.514 227.873,217.119 227.587,219.865L236.078,218.511Z" style="fill:white;fill-rule:nonzero;"/>
        <path d="M254.556,227.786C254.556,228.499 254.449,229.39 254.021,229.997C252.951,231.46 249.671,231.816 247.92,231.816C244.746,231.816 241.714,230.567 241.714,226.965C241.714,222.221 247.887,221.044 251.453,220.008L251.453,218.189C251.453,216.334 251.167,214.372 248.778,214.372C247.244,214.372 246.315,215.299 245.781,216.691C245.673,216.834 245.71,217.013 245.602,217.154C245.318,217.832 244.926,218.224 244.177,218.224C243.321,218.224 242.749,217.547 242.749,216.726C242.749,213.729 246.852,212.482 249.241,212.482C253.093,212.482 254.556,214.479 254.556,218.189L254.556,227.786ZM251.453,221.685C249.028,222.433 244.997,223.255 244.997,226.502C244.997,228.677 246.46,229.89 248.601,229.89C250.418,229.89 251.453,229.283 251.453,227.321L251.453,221.685Z" style="fill:white;fill-rule:nonzero;"/>
        <path d="M263.796,231.816C261.834,231.816 260.157,231.352 258.767,229.962C258.195,229.39 257.661,228.606 257.661,227.786C257.661,226.929 258.338,226.216 259.194,226.216C261.015,226.216 260.834,229.783 264.046,229.783C265.651,229.783 266.828,228.749 266.828,227.072C266.828,222.433 258.053,223.612 258.053,217.44C258.053,214.194 260.693,212.482 263.689,212.482C265.509,212.482 267.471,212.945 268.612,214.479C269.005,214.942 269.29,215.478 269.29,216.084C269.29,216.834 268.683,217.44 267.934,217.44C266.008,217.44 266.507,214.3 263.689,214.3C262.156,214.3 260.979,215.335 260.979,216.905C260.979,221.328 269.862,220.08 269.862,226.465C269.862,230.068 267.221,231.816 263.796,231.816Z" style="fill:white;fill-rule:nonzero;"/>
    </g>
</svg>
