<?xml version="1.0" encoding="utf-8"?>
<!-- Generator: Adobe Illustrator 16.0.0, SVG Export Plug-In . SVG Version: 6.00 Build 0)  -->
<!DOCTYPE svg PUBLIC "-//W3C//DTD SVG 1.1//EN" "http://www.w3.org/Graphics/SVG/1.1/DTD/svg11.dtd">
<svg version="1.1" id="Layer_1" xmlns="http://www.w3.org/2000/svg" xmlns:xlink="http://www.w3.org/1999/xlink" x="0px" y="0px"
	 width="240px" height="100px" viewBox="0 0 240 100" enable-background="new 0 0 240 100" xml:space="preserve">
<rect x="-116.802" y="-798.349" display="none" fill="#221F1F" width="1489.072" height="1468.349"/>
<rect display="none" fill="none" stroke="#FFF200" stroke-width="1.0445" stroke-miterlimit="10" width="240" height="100"/>
<g>
	<path fill="#FFF4E2" d="M168.691,68.948"/>
	<g>
		<path fill="#FFF4E2" d="M87.636,52.333v2.813H70.178l12.196-15.125H72.197v-2.78h15.937l-12.13,15.092H87.636z"/>
		<g>
			<path fill="#FFF4E2" d="M93.594,47.236c0,2.996,0.348,5.594,4.038,5.594c3.69,0,4.037-2.582,4.037-5.594v-9.995h3.045v10.343
				c0,4.75-1.788,8.092-7.116,8.092c-5.279,0-7.116-3.31-7.116-8.092V37.241h3.045v9.995H93.594z"/>
			<path fill="#FFF4E2" d="M96.49,27.659c0,1.142-0.91,2.052-2.052,2.052c-1.142,0-2.052-0.91-2.052-2.052
				c0-1.142,0.911-2.052,2.052-2.052C95.58,25.607,96.49,26.518,96.49,27.659z"/>
			<path fill="#FFF4E2" d="M102.944,27.659c0,1.142-0.91,2.052-2.052,2.052c-1.142,0-2.052-0.91-2.052-2.052
				c0-1.142,0.91-2.052,2.052-2.052C102.034,25.607,102.944,26.518,102.944,27.659z"/>
		</g>
		<path fill="#FFF4E2" d="M112.228,25.723v13.653l0.083,0.083c1.258-1.704,2.896-2.664,5.097-2.664c4.948,0,6.089,3.575,6.089,7.794
			v10.641h-3.044V45.085c0-2.896-0.232-5.478-3.757-5.478c-4.187,0-4.452,3.873-4.452,7.116v8.506h-3.045V25.723H112.228z"/>
		<path fill="#FFF4E2" d="M131.043,55.146h-3.045V25.723h3.045V55.146z"/>
		<path fill="#FFF4E2" d="M139.102,43.894l6.537-6.652h4.071l-7.678,7.646l9.118,10.31h-4.021l-8.026-9.085v9.085h-3.044V25.723
			h3.044V43.894L139.102,43.894z"/>
		<path fill="#FFF4E2" d="M165.381,49.454c-1.142,1.97-2.73,3.376-5.163,3.376c-3.376,0-5.709-2.665-5.742-5.974h13.802
			c0.298-5.329-2.698-10.111-8.324-10.111c-5.478,0-8.522,4.369-8.522,9.697c0,5.13,3.343,9.234,8.589,9.234
			c3.458,0,6.156-1.754,7.877-4.75L165.381,49.454z M159.937,39.558c2.631,0,4.75,2.085,5.163,4.683h-10.491
			C154.956,41.66,157.355,39.558,159.937,39.558z"/>
	</g>
	<g>
		<path fill="#FFF4E2" d="M75.887,69.709c-0.496,0.993-1.324,1.555-2.466,1.555c-2.085,0-2.929-1.82-2.929-3.69
			c0-1.937,0.877-3.69,3.044-3.69c1.109,0,1.937,0.53,2.35,1.522c0.116,0.265,0.182,0.562,0.182,0.877
			c0,0.265-0.149,0.381-0.38,0.414l-4.137,0.613c0.083,1.225,0.612,2.78,2.084,2.78c0.911,0,1.49-0.562,1.937-1.324
			c0.116-0.149,0.116-0.298,0.348-0.298c0.182,0,0.265,0.149,0.265,0.348C76.103,69.097,75.954,69.527,75.887,69.709z
			 M74.745,66.218c-0.083-0.761-0.612-1.523-1.439-1.523c-1.175,0-1.671,0.993-1.787,2.052L74.745,66.218z"/>
		<path fill="#FFF4E2" d="M86.18,70.851c0,0.182-0.033,0.265-0.231,0.265h-0.712c-0.182,0-0.231-0.033-0.231-0.265v-4.418
			c0-0.91-0.148-1.754-1.291-1.754c-0.53,0-1.026,0.231-1.258,0.761c-0.033,0.149-0.083,0.463-0.083,0.645v4.75
			c0,0.149,0,0.265-0.232,0.265h-0.761c-0.149,0-0.231-0.083-0.231-0.232v-4.683c0-0.877-0.348-1.556-1.324-1.556
			c-0.529,0-1.026,0.231-1.225,0.761c-0.083,0.182-0.083,0.496-0.083,0.728v4.716c0,0.182-0.033,0.265-0.265,0.265h-0.678
			c-0.182,0-0.232-0.033-0.232-0.265V65.39c0-0.381,0-0.562,0.265-0.877c0.381-0.414,1.705-0.612,2.251-0.612
			c0.794,0,1.522,0.149,2.019,0.844c0.613-0.646,1.258-0.844,2.135-0.844c1.407,0,2.201,0.612,2.201,2.019L86.18,70.851
			L86.18,70.851z"/>
		<path fill="#FFF4E2" d="M90.45,71.265c-0.563,0-0.993-0.148-1.49-0.497v3.277c0,0.149-0.083,0.232-0.231,0.232H88.05
			c-0.182,0-0.265-0.033-0.265-0.232v-8.208c0-0.347-0.033-0.761,0.149-1.059c0.414-0.612,1.82-0.877,2.516-0.877
			c2.084,0,3.16,1.374,3.16,3.343C93.594,69.097,92.568,71.265,90.45,71.265z M90.168,64.662c-0.91,0-1.175,0.348-1.175,1.175v4.137
			c0.414,0.265,0.877,0.463,1.374,0.463c1.489,0,2.019-1.705,2.019-2.929C92.386,66.135,91.774,64.662,90.168,64.662z"/>
		<path fill="#FFF4E2" d="M97.583,71.265c-2.052,0-3.111-1.82-3.111-3.69c0-1.788,1.142-3.658,3.111-3.658
			c2.019,0,3.078,1.937,3.078,3.724S99.568,71.265,97.583,71.265z M99.37,67.475c0-1.059-0.562-2.78-1.903-2.78
			c-1.373,0-1.754,1.639-1.754,2.731c0,1.142,0.463,3.044,1.903,3.044c1.324,0,1.754-1.671,1.754-2.73V67.475z"/>
		<path fill="#FFF4E2" d="M109.795,64.463l-1.969,6.421c-0.033,0.116-0.033,0.182-0.182,0.182h-0.463c-0.182,0-0.232,0-0.265-0.182
			l-1.324-4.369l-1.324,4.369c-0.033,0.182-0.083,0.182-0.265,0.182h-0.397c-0.182,0-0.231-0.033-0.265-0.182l-2.052-6.421
			c-0.033-0.116-0.033-0.149-0.033-0.231c0-0.116,0.082-0.149,0.182-0.149h0.762c0.231,0,0.265,0.033,0.347,0.265l1.489,5.014
			l1.49-5.014c0.083-0.265,0.033-0.265,0.38-0.265c0.149,0,0.149,0.116,0.182,0.231l1.556,5.097l1.406-5.063
			c0.033-0.182,0.083-0.265,0.298-0.265h0.497c0.083,0,0.232,0,0.232,0.149C109.877,64.314,109.828,64.381,109.795,64.463z"/>
		<path fill="#FFF4E2" d="M115.72,69.709c-0.497,0.993-1.325,1.555-2.466,1.555c-2.085,0-2.929-1.82-2.929-3.69
			c0-1.937,0.877-3.69,3.045-3.69c1.108,0,1.936,0.53,2.35,1.522c0.116,0.265,0.182,0.562,0.182,0.877
			c0,0.265-0.149,0.381-0.381,0.414l-4.137,0.613c0.083,1.225,0.612,2.78,2.085,2.78c0.91,0,1.49-0.562,1.936-1.324
			c0.116-0.149,0.116-0.298,0.348-0.298c0.182,0,0.265,0.149,0.265,0.348C115.952,69.097,115.802,69.527,115.72,69.709z
			 M114.578,66.218c-0.083-0.761-0.612-1.523-1.44-1.523c-1.175,0-1.671,0.993-1.787,2.052L114.578,66.218z"/>
		<path fill="#FFF4E2" d="M120.551,65.258c-0.529,0-0.529-0.728-1.374-0.728c-0.645,0-0.794,0.414-0.794,0.943v5.328
			c0,0.149-0.033,0.232-0.182,0.232h-0.728c-0.182,0-0.265,0-0.265-0.232v-5.659c0-0.265,0-0.497,0.182-0.728
			c0.38-0.381,1.787-0.563,2.317-0.563c0.529,0,1.406,0.083,1.406,0.794C121.081,64.993,120.866,65.258,120.551,65.258z"/>
		<path fill="#FFF4E2" d="M122.57,62.875c-0.414,0-0.728-0.265-0.728-0.728c0-0.414,0.297-0.729,0.728-0.729
			c0.463,0,0.729,0.298,0.729,0.761C123.299,62.561,122.984,62.875,122.57,62.875z M123.183,70.851c0,0.182-0.033,0.265-0.231,0.265
			h-0.794c-0.149,0-0.182-0.033-0.182-0.182v-6.62c0-0.182,0.033-0.231,0.232-0.231h0.728c0.231,0,0.265,0.033,0.265,0.265
			L123.183,70.851L123.183,70.851z"/>
		<path fill="#FFF4E2" d="M130.216,70.818c0,0.149-0.033,0.265-0.232,0.265h-0.728c-0.182,0-0.265-0.033-0.265-0.232v-4.567
			c0-0.298,0-0.646-0.116-0.943c-0.265-0.562-0.877-0.728-1.489-0.728c-0.463,0-1.026,0.116-1.324,0.53
			c-0.116,0.182-0.149,0.463-0.149,0.678v5.014c0,0.182-0.033,0.265-0.231,0.265h-0.762c-0.182,0-0.231-0.116-0.231-0.265v-5.478
			c0-0.348,0-0.562,0.265-0.794c0.529-0.496,1.936-0.646,2.631-0.646c0.993,0,2.019,0.182,2.433,1.175
			c0.116,0.298,0.149,0.761,0.149,1.059v4.633L130.216,70.818L130.216,70.818z"/>
		<path fill="#FFF4E2" d="M131.623,73.284c0.033-0.033,0.083-0.083,0.116-0.116s0.083-0.033,0.149-0.083
			c0.53,0.033,0.943,0.347,1.556,0.347c1.407,0,2.284-0.728,2.284-2.25v-0.563c-0.678,0.298-1.108,0.729-1.87,0.729
			c-1.788,0-2.582-1.671-2.582-3.343c0-2.052,1.175-4.104,3.31-4.104c0.612,0,2.317,0.298,2.317,1.258v6.305
			c0,1.87-1.705,2.929-3.31,2.929c-0.265,0-0.794-0.083-1.225-0.265c-0.43-0.182-0.728-0.347-0.728-0.645V73.3L131.623,73.284
			L131.623,73.284z M134.287,70.354c0.265,0,1.44-0.231,1.44-0.562v-4.369c0-0.612-0.794-0.794-1.258-0.794
			c-1.489,0-1.969,1.788-1.969,3.078C132.5,68.948,132.913,70.354,134.287,70.354z"/>
		<path fill="#FFF4E2" d="M142.114,62.875c-0.414,0-0.728-0.265-0.728-0.728c0-0.414,0.298-0.729,0.728-0.729
			c0.463,0,0.728,0.298,0.728,0.761C142.842,62.561,142.495,62.875,142.114,62.875z M142.727,70.851
			c0,0.182-0.033,0.265-0.231,0.265h-0.844c-0.149,0-0.182-0.033-0.182-0.182v-6.62c0-0.182,0.033-0.231,0.232-0.231h0.728
			c0.232,0,0.265,0.033,0.265,0.265v6.503H142.727L142.727,70.851z"/>
		<path fill="#FFF4E2" d="M149.826,69.743c0,0.265-0.033,0.463-0.182,0.678c-0.464,0.612-1.754,0.844-2.516,0.844
			c-2.135,0-3.194-1.406-3.194-3.458c0-1.903,1.109-3.872,3.227-3.872c0.53,0,0.993,0.149,1.44,0.463v-3.426
			c0-0.182,0.083-0.265,0.265-0.265h0.678c0.182,0,0.265,0.033,0.265,0.232L149.826,69.743L149.826,69.743z M148.618,65.109
			c-0.38-0.347-0.761-0.497-1.291-0.497c-1.489,0-2.134,1.589-2.134,2.846c0,1.407,0.612,2.962,2.25,2.962
			c0.794,0,1.225-0.265,1.225-1.06L148.618,65.109L148.618,65.109z"/>
		<path fill="#FFF4E2" d="M156.412,69.709c-0.496,0.993-1.324,1.555-2.465,1.555c-2.085,0-2.929-1.82-2.929-3.69
			c0-1.937,0.877-3.69,3.044-3.69c1.109,0,1.937,0.53,2.35,1.522c0.116,0.265,0.182,0.562,0.182,0.877
			c0,0.265-0.149,0.381-0.38,0.414l-4.137,0.613c0.083,1.225,0.612,2.78,2.085,2.78c0.91,0,1.489-0.562,1.936-1.324
			c0.116-0.149,0.116-0.298,0.348-0.298c0.182,0,0.265,0.149,0.265,0.348C156.677,69.097,156.528,69.527,156.412,69.709z
			 M155.304,66.218c-0.083-0.761-0.612-1.523-1.44-1.523c-1.175,0-1.671,0.993-1.787,2.052L155.304,66.218z"/>
		<path fill="#FFF4E2" d="M162.303,69.709c0,0.265-0.033,0.612-0.182,0.844c-0.413,0.563-1.671,0.679-2.316,0.679
			c-1.225,0-2.35-0.463-2.35-1.871c0-1.787,2.35-2.25,3.69-2.664v-0.678c0-0.728-0.116-1.44-1.026-1.44
			c-0.562,0-0.943,0.348-1.142,0.877c-0.033,0.033-0.033,0.116-0.083,0.182c-0.116,0.265-0.265,0.414-0.529,0.414
			c-0.348,0-0.53-0.265-0.53-0.562c0-1.142,1.556-1.589,2.466-1.589c1.489,0,2.019,0.761,2.019,2.167v3.641H162.303z
			 M161.128,67.393c-0.91,0.265-2.466,0.612-2.466,1.82c0,0.844,0.563,1.291,1.374,1.291c0.678,0,1.108-0.231,1.108-0.993v-2.118
			H161.128z"/>
		<path fill="#FFF4E2" d="M165.828,71.265c-0.761,0-1.374-0.182-1.903-0.728c-0.232-0.231-0.414-0.529-0.414-0.844
			c0-0.348,0.265-0.612,0.563-0.612c0.678,0,0.612,1.374,1.87,1.374c0.612,0,1.059-0.381,1.059-1.026
			c0-1.754-3.343-1.324-3.343-3.657c0-1.224,0.993-1.903,2.135-1.903c0.679,0,1.439,0.182,1.87,0.761
			c0.148,0.182,0.265,0.38,0.265,0.612c0,0.298-0.232,0.529-0.529,0.529c-0.729,0-0.53-1.175-1.605-1.175
			c-0.562,0-1.026,0.381-1.026,0.993c0,1.671,3.376,1.225,3.376,3.657C168.112,70.586,167.136,71.265,165.828,71.265z"/>
	</g>
</g>
</svg>
