<svg xmlns="http://www.w3.org/2000/svg" viewBox="0 0 140.05 140"><defs><style>.cls-1{fill:none;}.cls-2{fill:#cecece;}</style></defs><title>catering</title><g id="Layer_2" data-name="Layer 2"><g id="Layer_1-2" data-name="Layer 1"><rect class="cls-1" width="140" height="140"/><path class="cls-2" d="M140.05,100.84a2.18,2.18,0,0,1-2.18,2.18H118.65c-4.24,0-7,2.75-7,7v28.08h0a1.85,1.85,0,0,1-1.85,1.86h-.63a1.85,1.85,0,0,1-1.85-1.86v-2.4h-1.88c-12.6,0-25.21,0-37.81,0a12.3,12.3,0,0,1-8.35-3.24Q40.57,115.27,21.76,98.06c-2.42-2.21-3.4-4.73-2.48-8-.49,0-.91-.07-1.34-.07-3.18,0-6.36,0-9.54,0a7.64,7.64,0,1,1,0-15.26H130.69c3.81,0,5.86.59,7.43,2.63a8.24,8.24,0,0,1,0,10c-1.57,2-3.62,2.63-7.43,2.63H97.52c.24.67.41,1.19.61,1.68q2.67,6.7,5.36,13.38c1,2.48,1,2.48,3.64,2.37a1.61,1.61,0,0,0,.38-.08c2.13-6.19,5.58-8.64,12.11-8.63h18.25a2.19,2.19,0,0,1,2.18,2.18ZM87.7,89.93c0,6.38,0,12.55,0,18.72a3.19,3.19,0,0,1-2,3.3c-6.8,3.34-13.56,6.75-20.34,10.14-1.7.85-2.26.77-3.65-.49L28,91.17a9.41,9.41,0,0,0-.83-.71,2.39,2.39,0,0,0-3.31.31,2.44,2.44,0,0,0,0,3.23,7,7,0,0,0,.78.76Q43.44,112,62.21,129.25a7.79,7.79,0,0,0,5.54,2.15c12.72,0,25.45,0,38.17,0,.44,0,.87,0,1.31-.06V111.75c-1.14,0-2.18,0-3.22,0-2.32,0-2.62-.23-3.5-2.43Q96.87,100.16,93.16,91c-.18-.43-.7-1-1.1-1C90.67,89.86,89.26,89.93,87.7,89.93ZM70.18,85.56h44c6,0,12,0,18,0a3.29,3.29,0,0,0,3.45-3.78C135.34,80,134,79,131.7,79H8.9a8.75,8.75,0,0,0-1.36,0,3.26,3.26,0,0,0,.22,6.47c.4,0,.81,0,1.22,0ZM71.6,90c-.38,8.23-.75,16.32-1.13,24.58.53-.23.89-.36,1.24-.54,3.53-1.75,7-3.54,10.59-5.25a1.64,1.64,0,0,0,1-1.78c0-5.08,0-10.16,0-15.24V90Zm-9.76,25.86a5.36,5.36,0,0,0-.21-.77Q55.2,103.24,48.76,91.4a2.4,2.4,0,0,0-3.23-1.18,2.43,2.43,0,0,0-1.25,3.2c1.08,3,2.2,6,3.31,9.07a2.51,2.51,0,0,0,.53.93C52.59,107.49,57.07,111.53,61.84,115.84Zm4-2.24.27-.06c.36-7.07.74-14.13,1.07-21.19a2.23,2.23,0,0,0-2.1-2.41,2.33,2.33,0,0,0-2.4,2.42q-.51,6.45-1,12.91a2,2,0,0,0,.15,1C63.17,108.76,64.5,111.17,65.83,113.6ZM53,90l4.55,8.34.29-.07L58.55,90ZM33.26,90l7.26,6.56c-.7-2.2-1.25-4.32-.33-6.56Z"/><path class="cls-2" d="M81.15,2.67h0A2.17,2.17,0,0,1,79,4.84H72.49V9.22h4.17a56.79,56.79,0,0,1,30.55,8.51c15.93,9.93,25.31,24.24,28,42.87.32,2.29.41,4.61.5,6.93.08,2-.74,2.77-2.79,2.77H7.89c-2.43,0-3.1-.67-3.09-3C5,40.31,24.73,16,51.13,10.64c4.29-.87,8.73-1,13.11-1.4,1.2-.12,2.43,0,3.74,0V4.89H61.51a2.17,2.17,0,0,1-2.17-2.17V2.67A2.18,2.18,0,0,1,61.51.49H79A2.18,2.18,0,0,1,81.15,2.67ZM9.21,65.84h122c0-.33,0-.56,0-.78a53.31,53.31,0,0,0-11.18-30c-9.84-12.6-22.75-19.82-38.72-21.17-5.19-.43-10.44-.28-15.66-.23a65.77,65.77,0,0,0-10.32.64C38.43,17.09,25.49,26,16.63,40.65A52.64,52.64,0,0,0,9.21,65.84Z"/><rect class="cls-2" x="103.03" y="57.27" width="4.21" height="4.23" rx="2.1" ry="2.1"/><rect class="cls-2" x="111.79" y="57.3" width="4.2" height="4.21" rx="2.1" ry="2.1"/><rect class="cls-2" x="120.44" y="57.32" width="4.24" height="4.18" rx="2.09" ry="2.09"/></g></g></svg>