<svg xmlns="http://www.w3.org/2000/svg" viewBox="0 0 140 140"><defs><style>.cls-1{fill:none;}.cls-2{fill:#cecece;}</style></defs><title>coffee</title><g id="Layer_2" data-name="Layer 2"><g id="Layer_1-2" data-name="Layer 1"><rect class="cls-1" width="140" height="140"/><path class="cls-2" d="M35.12,19.55,40.44,4.26a6.36,6.36,0,0,1,6-4.26H89.81a6.38,6.38,0,0,1,6,4.2l5.43,15.09ZM46.44,4.26a2.09,2.09,0,0,0-2,1.4l-3.34,9.61,54.05-.21L91.78,5.64a2.09,2.09,0,0,0-2-1.38Z"/><path class="cls-2" d="M102.72,31.56h-68a4.55,4.55,0,0,1-4.46-5.45l1.45-7.18a4.57,4.57,0,0,1,4.46-3.65h64.19a4.54,4.54,0,0,1,4.32,3.15l2.34,7.17a4.56,4.56,0,0,1-4.33,6Zm-66.52-12a.3.3,0,0,0-.29.23L34.46,27a.26.26,0,0,0,.06.24.27.27,0,0,0,.23.11h68a.29.29,0,0,0,.24-.12.27.27,0,0,0,0-.26l-2.33-7.18a.3.3,0,0,0-.28-.2Z"/><polygon class="cls-2" points="36.86 51.63 34.19 27.3 102.11 27.3 99.62 51.3 95.39 50.86 97.39 31.56 38.94 31.56 41.09 51.17 36.86 51.63"/><path class="cls-2" d="M83,140h-29a8.22,8.22,0,0,1-8.18-7.33L44,114.55l4.23-.42L50,132.23a4,4,0,0,0,3.94,3.51H83a4,4,0,0,0,4-3.56l1.53-18,4.24.36-1.53,18.06A8.22,8.22,0,0,1,83,140Z"/><path class="cls-2" d="M93.62,116.47h-.07l-51.69-.59a5.89,5.89,0,0,1-5.79-5.3L30.83,56.63a5.3,5.3,0,0,1,5.26-5.8H99.62a5.29,5.29,0,0,1,5.26,5.81l-5.4,54.54A5.87,5.87,0,0,1,93.62,116.47ZM36.09,55.09a1,1,0,0,0-.76.34,1,1,0,0,0-.27.79l5.25,53.94a1.62,1.62,0,0,0,1.6,1.46l51.69.59h0a1.61,1.61,0,0,0,1.62-1.46l5.41-54.53a1,1,0,0,0-1-1.13Z"/><path class="cls-2" d="M50.71,102.25a2.12,2.12,0,0,1-1.44-3.69L85.1,65.63A2.13,2.13,0,1,1,88,68.76L52.15,101.69A2.11,2.11,0,0,1,50.71,102.25Z"/></g></g></svg>