<svg xmlns="http://www.w3.org/2000/svg" width="4em" viewBox="0 0 141.3 140"><defs><style>.cls-1{fill:none;}.cls-2{fill:#5e06fa;}</style></defs><title>earlybird</title><g id="Layer_2" data-name="Layer 2"><g id="Layer_1-2" data-name="Layer 1"><rect class="cls-1" x="0.65" width="140" height="140"/><path class="cls-2" d="M140.52,48.21a8.15,8.15,0,0,0-.74-.8l-.15-.15Q129.34,37,119,26.67c-2.26-2.25-3.7-2.25-6,0l-.82.82Q100.58,39.17,88.92,50.86a4,4,0,0,0-.56.75h0L87.62,51l-4.46-4.12c-4.84-4.47-9.68-8.93-14.49-13.43a5.69,5.69,0,0,0-4.24-1.67c-19.49,0-39.73,0-60.14,0C2.71,31.72,1,32,.07,33.93L0,34.07v1.77L.16,36c.18.2.35.4.51.61A9.65,9.65,0,0,0,2,38C25.16,57.06,44.5,72.93,62.82,87.92a2.24,2.24,0,0,1,.94,2c0,9.88,0,19.75,0,29.63v7.33a7.08,7.08,0,0,0,0,1.12,3.21,3.21,0,0,0,1.83,2.61,3,3,0,0,0,1.21.26,3.41,3.41,0,0,0,1.93-.63,9.07,9.07,0,0,0,1.11-1l2.37-2.35c1.84-1.81,3.75-3.69,5.56-5.6C90,108.48,103.34,96.65,116,85.77l.59-.52c.3-.28.61-.56.93-.81a4.35,4.35,0,0,0,1.69-3.73q0-9.88,0-19.76V53.46l.89,0h17.2a8.31,8.31,0,0,0,1.21-.06,3.1,3.1,0,0,0,2-5.16ZM129.88,47H119.27V36.39Zm-46.5,59.48L70.14,119.7v-25Zm28.05-25.06L88.89,101.18,12,38.1h3.33q24.21,0,48.42,0a2,2,0,0,1,1.21.52Q80.67,53.11,96.35,67.59L110.88,81A4,4,0,0,0,111.43,81.41Zm1.39-45V73.55L94.29,55Z"/></g></g></svg>