<?xml version="1.0" encoding="utf-8"?>
<!-- Generator: Adobe Illustrator 22.0.0, SVG Export Plug-In . SVG Version: 6.00 Build 0)  -->
<svg version="1.1" id="Layer_1" xmlns="http://www.w3.org/2000/svg" xmlns:xlink="http://www.w3.org/1999/xlink" x="0px" y="0px"
	 viewBox="0 0 140 140" style="enable-background:new 0 0 140 140;" xml:space="preserve">
<style type="text/css">
	.st0{fill:#CECECE;}
	.st1{fill:none;}
</style>
<g>
	<path class="st0" d="M134.4,41.9c0-9.4-7.6-17-17-17H94v-4.5C94,9.2,84.8,0,73.5,0c-2.9,0-5.7,0.6-8.3,1.8C62.7,0.6,59.9,0,57,0
		C45.7,0,36.5,9.2,36.5,20.5v4.5H23.2c-9.4,0-17,7.6-17,17v81c0,9.4,7.6,17,17,17h94.2c3.9,0,8.2-1.9,10.3-3.5s3.3-3.3,3.3-3.3
		c2.2-2.9,3.4-6.4,3.4-10.2V41.9z M110,29.6h6.9v94.1l-6.9,7.9V29.6z M73.5,4.6c8.7,0,15.8,7.1,15.8,15.8v4.5H77.5v-4.5
		c0-6.2-2.8-11.8-7.1-15.5C71.3,4.7,72.4,4.6,73.5,4.6z M65.3,7c4.5,2.8,7.6,7.8,7.6,13.5v4.5H57.7v-4.5C57.7,14.8,60.7,9.8,65.3,7z
		 M41.2,20.5c0-8.7,7.1-15.8,15.8-15.8c1.1,0,2.2,0.1,3.2,0.3c-4.4,3.8-7.1,9.3-7.1,15.5v4.5H41.2V20.5z M10.8,123v-81
		c0-6.8,5.6-12.4,12.4-12.4h13.3v13.9c0,1.3,1,2.3,2.3,2.3c1.3,0,2.3-1,2.3-2.3V29.6h11.9v13.9c0,1.3,1,2.3,2.3,2.3
		c1.3,0,2.3-1,2.3-2.3V29.6h15.1v13.9c0,1.3,1,2.3,2.3,2.3c1.3,0,2.3-1,2.3-2.3V29.6h11.9v13.9c0,1.3,1,2.3,2.3,2.3s2.3-1,2.3-2.3
		V29.6h11.4v105.8H23.2C16.4,135.4,10.8,129.8,10.8,123z M117.4,135.4h-4.6l6.6-7.5l5.1,5.2C122.4,134.5,120,135.4,117.4,135.4z
		 M121.6,123.5V30.3c4.8,1.7,8.2,6.3,8.2,11.6v81c0,2.5-0.8,4.9-2.1,6.9L121.6,123.5z"/>
	<path class="st0" d="M82.1,67.2c-5.9-4.4-12.6-4.3-18.8,0.2c-1.1,0.8-2.2,1.8-3.2,2.7c-0.3,0.2-0.5,0.5-0.8,0.7
		c-0.3-0.3-0.7-0.6-1-0.9c-1.2-1-2.3-2-3.5-2.8c-6.1-4.2-12.6-4.3-18.3-0.1c-5.9,4.3-8.2,11.4-5.8,18c1.3,3.4,2.9,6.4,5.4,10
		c3.8,5.5,8.8,10.3,13.5,14.8c1.9,1.8,3.8,3.6,5.6,5.5c1.3,1.3,2.6,1.9,4,1.9c1.4,0,2.8-0.7,4.1-2c1-1,2-2,3.1-3
		c4.3-4.1,8.7-8.4,12.7-13c3.2-3.7,6-8.3,8.3-13.5C90.3,79.3,88.2,71.7,82.1,67.2z M81.9,85.8c-3.4,7.2-8.7,12.9-13.9,18.1
		c-1.5,1.5-3.1,3-4.7,4.5c-1.1,1-2.1,2-3.2,3c-0.7,0.7-1.1,0.8-2,0c-7.1-6.3-12.6-11.5-19.3-20.4c-2.6-3.5-4.9-8.9-3.6-13.7
		c1.4-4.7,5.9-8,11-8.1c2.4,0.2,5.1,1.6,7.9,4.3c4.3,4.1,5.6,4.1,9.8,0c3.3-3.2,7-4.7,10.5-4.2c3.1,0.4,5.7,2.4,7.5,5.6
		C83.9,78.2,83.9,81.6,81.9,85.8z"/>
</g>
<rect class="st1" width="140" height="140"/>
</svg>
