<?xml version="1.0" encoding="utf-8"?>
<!-- Generator: Adobe Illustrator 22.0.0, SVG Export Plug-In . SVG Version: 6.00 Build 0)  -->
<svg version="1.1" id="Layer_1" xmlns="http://www.w3.org/2000/svg" xmlns:xlink="http://www.w3.org/1999/xlink" x="0px" y="0px"
	 width="4em" viewBox="0 0 140 141.4" style="enable-background:new 0 0 140 141.4;" xml:space="preserve">
<style type="text/css">
	.st0{fill:none;}
	.st1{fill:#5E06FA;}
</style>
<g>
	<rect y="0.6" class="st0" width="140" height="140"/>
</g>
<g>
	<path class="st1" d="M118.1,77.8c-4.9-6.6-10.2-13.1-15.3-19.4c-2.2-2.8-4.5-5.5-6.7-8.3l-7.3-9.1c1.6-0.9,1.9-2.5,1.9-4
		c-0.1-2.7-0.1-4.8,0-6.8c0.1-1.9,0.1-4.4-2.6-5.1c0.1-0.1,0.2-0.3,0.2-0.4c0.2-0.3,0.3-0.5,0.5-0.8c3.6-6,7.3-12.2,11-18.3
		c1.2-1.9,0.9-3.2,0.5-3.9C99.9,0.9,99,0,96.8,0L83.5,0c-0.9,0-1.7,0.1-2.5,0.3c-3.4,1.2-5.2,4.9-4,8.2c0.3,1,0.2,1.2,0.2,1.3
		c0,0-0.2,0.1-1.2,0.1H64.2c-1,0-1.2-0.1-1.3-0.2c0-0.1-0.1-0.3,0.2-1.3c0.2-0.7,0.4-1.4,0.3-2.2c0-1.7-0.7-3.3-1.9-4.5
		C60.3,0.7,58.7,0,57,0c-3.1,0-6.3,0-9.4,0c-1.6,0-3.1,0-4.7,0c-1.4,0-2.4,0.5-3,1.4c-0.5,0.9-0.5,2.1,0.1,3.3
		c0.6,1.2,1.4,2.4,2.1,3.6L52.1,25c-2.4,0.7-2.7,2.7-2.6,4.9c0.1,2.6,0.1,5.2,0,7.4c-0.2,1.5,0.5,2.9,1.8,3.6c0,0,0,0.1-0.1,0.1
		c-3.2,4-6.4,8-9.6,12c-5.8,7.2-11.7,14.6-17.6,22c-10.8,13.7-12.7,28.2-5.7,43.2c6.9,14.7,19.5,22.7,36.3,23.1
		c4.1,0.1,8.1,0.1,12.2,0.1c4.8,0,9.6,0,14.3-0.1l3.9,0c2.8,0,5.6-0.3,8.3-0.8c13.4-2.5,24.4-11.8,29.5-24.8
		C127.9,102.7,126.1,88.6,118.1,77.8z M63.9,16.3h12.3c-0.4,2.8-0.8,5.6-1.3,8.5c-0.1,0.1-0.3,0.2-0.4,0.2h-9.3
		C64.8,22.1,64.4,19.2,63.9,16.3z M56.9,11.3c0.5,3.3,1,6.5,1.5,9.8l0.5,3.1L48,6.2h7.5c0.7,0,1.6,0,1.7,0.1c0.1,0.2-0.1,1-0.3,1.8
		C56.7,9.1,56.7,10.2,56.9,11.3z M55.8,34.9v-3.5h28.6v3.5H55.8z M49.6,53c3-3.7,5.9-7.3,8.8-11c0.5-0.5,1.1-0.8,1.7-0.8
		c3.3,0,6.7-0.1,10-0.1c3.3,0,6.6,0,9.8,0.1c0.7,0,1.3,0.3,1.7,0.8c2.5,3.1,5.1,6.3,7.6,9.4c7.6,9.3,15.4,19,22.8,28.7
		c8.6,11.1,10,23.5,3.9,35.8c-6.1,12.4-16.4,18.9-30.7,19.2c-5.2,0.1-28.3,0.3-34.6-0.4c-12.7-1.3-22.1-8.3-27.3-20.2
		c-5.1-11.8-3.7-23.4,3.9-33.6C34.6,71.5,42.2,62.1,49.6,53z M83,7.2c-0.1-0.8-0.1-0.9,0-1c0,0,0.1,0,0.3,0h8.9
		c-3.7,6.2-7.4,12.2-10.9,18.1l0.3-2c0.5-3.4,1.1-7,1.5-10.5C83.3,10.3,83.2,8.7,83,7.2z"/>
	<path class="st1" d="M69.9,126.4c0,0,0.1,0,0.1,0c19.6,0,35.6-15.9,35.6-35.5v0c0-9.5-3.7-18.5-10.4-25.2
		c-6.7-6.8-15.7-10.5-25.2-10.5c0,0-0.1,0-0.1,0c-19.6,0-35.6,15.9-35.6,35.5C34.3,110.2,50.2,126.3,69.9,126.4z M40.6,90.9
		c-0.1-7.7,2.9-15.1,8.4-20.7c5.6-5.7,13.1-8.9,21.1-9c0,0,0,0,0,0c16.1,0,29.4,13.1,29.5,29.3c0.1,7.9-3,15.3-8.5,20.9
		c-5.5,5.6-12.9,8.7-20.8,8.8c-0.1,0-0.1,0-0.2,0c-7.8,0-15.1-3-20.7-8.5C43.7,106.1,40.6,98.7,40.6,90.9z"/>
	<path class="st1" d="M66.9,93.1c1.2,0.3,2.4,0.5,3.6,0.6c0.1,0,0.2,0,0.3,0c2.4,0.4,4.1,2.8,3.7,5.2c-0.4,2.2-2.4,3.7-4.6,3.6
		c-2.3-0.1-3.9-1.7-4.2-4.3c-0.3-2.6-1.9-3.2-3.2-3.2c-0.8,0-1.4,0.3-2,0.8c-0.6,0.7-0.9,1.7-0.9,2.8c0.2,3.9,1.9,6.8,5,8.4
		c1.9,1,2.8,1.8,2.6,3.8c-0.1,1,1.3,2.5,2.3,2.7l0.1,0l0.1,0c1.1,0,2.2-0.5,2.9-1.3l0.1-0.1c0.5-0.7,0.6-1.6,0.5-2.4
		c-0.2-0.9,0.4-1.8,1.3-2.1c4.7-2,7.2-7.1,5.9-12.1c-1.1-4.7-5-7.8-10.1-8.1c-1.8-0.1-3.4-1.1-4.2-2.6c-0.7-1.3-0.6-2.8,0.3-4.2
		c1-1.6,2.8-2.4,4.6-1.9c2.1,0.4,3.1,1.7,3.5,4.2c0.3,2.1,1.6,3.2,3.4,3c1-0.1,2.8-0.7,2.8-3.5l0-0.1c-0.4-4.2-2.4-7.2-5.9-8.8
		c-1.2-0.3-1.9-1.5-1.7-2.8c0.1-1.1-0.2-2-0.8-2.6c-0.6-0.6-1.4-0.8-2.2-0.8c-0.2,0-0.5,0-0.7,0.1c-1.6,0.3-2.6,1.8-2.3,3.4
		c0.2,1.4-0.2,2-1.9,2.8c-2.5,1.3-4.3,3.5-5.2,6.1C58.2,85.4,61.3,91.3,66.9,93.1z"/>
</g>
</svg>
