<svg xmlns="http://www.w3.org/2000/svg" width="4em" viewBox="0 0 140 140"><defs><style>.cls-1{fill:none;}.cls-2{fill:#5e06fa;}</style></defs><title>time</title><g id="Layer_2" data-name="Layer 2"><g id="Layer_1-2" data-name="Layer 1"><rect class="cls-1" width="140" height="140"/><path class="cls-2" d="M70,140a70,70,0,1,1,70-70A70.11,70.11,0,0,1,70,140ZM6.6,69.92A63.4,63.4,0,1,0,70.16,6.6,63.46,63.46,0,0,0,6.6,69.92Z"/><path class="cls-2" d="M66.73,48.38c0-7.06,0-14.11,0-21.17a3.28,3.28,0,0,1,3.37-3.57c1.88.07,3.15,1.51,3.15,3.65q0,10.88,0,21.75c0,5.8,0,11.59,0,17.38a2.41,2.41,0,0,0,1.49,2.47c5.94,3.22,11.83,6.53,17.75,9.8a3.49,3.49,0,0,1,2.06,2.63,3.27,3.27,0,0,1-4.68,3.43c-1.34-.68-2.64-1.45-4-2.18-5.57-3.09-11.12-6.22-16.72-9.24a4.25,4.25,0,0,1-2.47-4.22C66.78,62.2,66.73,55.29,66.73,48.38Z"/></g></g></svg>