<?xml version="1.0" encoding="utf-8"?>
<!-- Generator: Adobe Illustrator 19.0.0, SVG Export Plug-In . SVG Version: 6.00 Build 0)  -->
<svg version="1.1" id="Layer_1" xmlns="http://www.w3.org/2000/svg" xmlns:xlink="http://www.w3.org/1999/xlink" x="0px" y="0px"
	 viewBox="0 0 530 167.4" style="enable-background:new 0 0 530 167.4;" xml:space="preserve">
<style type="text/css">
	.st0{fill:#595A5C;}
	.st1{fill:#DA2429;}
</style>
<g>
	<g>
		<path class="st0" d="M153.8,148.7l-3.1,9.4h-4l10.2-29.8h4.6l10.2,29.8h-4.1l-3.2-9.4H153.8z M163.6,145.7l-3-8.6
			c-0.7-1.9-1.1-3.7-1.5-5.4H159c-0.4,1.7-0.9,3.6-1.5,5.4l-2.9,8.6H163.6z"/>
		<path class="st0" d="M190.6,157.4c-1,0.5-3.3,1.2-6.1,1.2c-6.5,0-10.7-4.4-10.7-10.9c0-6.6,4.5-11.4,11.5-11.4
			c2.3,0,4.3,0.6,5.4,1.2l-0.9,3c-0.9-0.5-2.4-1-4.5-1c-4.9,0-7.6,3.7-7.6,8.1c0,5,3.2,8,7.4,8c2.2,0,3.7-0.5,4.8-1L190.6,157.4z"/>
		<path class="st0" d="M210.2,157.4c-1,0.5-3.3,1.2-6.1,1.2c-6.5,0-10.7-4.4-10.7-10.9c0-6.6,4.5-11.4,11.5-11.4
			c2.3,0,4.3,0.6,5.4,1.2l-0.9,3c-0.9-0.5-2.4-1-4.5-1c-4.9,0-7.6,3.7-7.6,8.1c0,5,3.2,8,7.4,8c2.2,0,3.7-0.5,4.8-1L210.2,157.4z"/>
		<path class="st0" d="M216.7,148.1c0.1,5.3,3.4,7.4,7.3,7.4c2.8,0,4.5-0.5,5.9-1.1l0.7,2.8c-1.4,0.6-3.8,1.4-7.2,1.4
			c-6.6,0-10.5-4.4-10.5-10.8s3.8-11.5,10-11.5c7,0,8.8,6.1,8.8,10c0,0.8,0,1.4-0.1,1.8H216.7z M228.1,145.3c0-2.4-1-6.3-5.4-6.3
			c-4,0-5.7,3.6-6,6.3H228.1z"/>
		<path class="st0" d="M236.6,126.7h3.9v31.4h-3.9V126.7z"/>
		<path class="st0" d="M249.3,148.1c0.1,5.3,3.4,7.4,7.3,7.4c2.8,0,4.5-0.5,5.9-1.1l0.7,2.8c-1.4,0.6-3.8,1.4-7.2,1.4
			c-6.6,0-10.5-4.4-10.5-10.8s3.8-11.5,10-11.5c7,0,8.8,6.1,8.8,10c0,0.8,0,1.4-0.1,1.8H249.3z M260.7,145.3c0-2.4-1-6.3-5.4-6.3
			c-4,0-5.7,3.6-6,6.3H260.7z"/>
		<path class="st0" d="M269.2,143.4c0-2.5,0-4.7-0.2-6.7h3.4l0.2,4.2h0.1c1-2.9,3.4-4.7,6-4.7c0.4,0,0.7,0,1.1,0.1v3.7
			c-0.4-0.1-0.8-0.1-1.3-0.1c-2.7,0-4.7,2-5.2,5c-0.1,0.5-0.1,1.2-0.1,1.8v11.4h-3.9V143.4z"/>
		<path class="st0" d="M298.5,153c0,1.9,0.1,3.7,0.3,5.1h-3.5l-0.3-2.7h-0.1c-1.2,1.7-3.5,3.2-6.5,3.2c-4.3,0-6.5-3.1-6.5-6.2
			c0-5.2,4.6-8,12.9-8v-0.4c0-1.7-0.5-5-4.9-4.9c-2,0-4.1,0.6-5.6,1.6l-0.9-2.6c1.8-1.1,4.4-1.9,7.1-1.9c6.5,0,8.1,4.5,8.1,8.7V153z
			 M294.8,147.2c-4.2-0.1-9.1,0.7-9.1,4.8c0,2.6,1.7,3.7,3.6,3.7c2.8,0,4.6-1.8,5.3-3.6c0.1-0.4,0.2-0.9,0.2-1.2V147.2z"/>
		<path class="st0" d="M309.3,131.6v5.1h5.6v3h-5.6v11.5c0,2.7,0.8,4.2,2.9,4.2c1.1,0,1.7-0.1,2.3-0.3l0.2,3
			c-0.8,0.3-1.9,0.5-3.5,0.5c-1.8,0-3.3-0.6-4.2-1.6c-1.1-1.2-1.5-3.1-1.5-5.6v-11.7h-3.3v-3h3.3v-4L309.3,131.6z"/>
		<path class="st0" d="M321.2,148.1c0.1,5.3,3.4,7.4,7.3,7.4c2.8,0,4.5-0.5,5.9-1.1l0.7,2.8c-1.4,0.6-3.8,1.4-7.2,1.4
			c-6.6,0-10.5-4.4-10.5-10.8s3.8-11.5,10-11.5c7,0,8.8,6.1,8.8,10c0,0.8,0,1.4-0.1,1.8H321.2z M332.6,145.3c0-2.4-1-6.3-5.4-6.3
			c-4,0-5.7,3.6-6,6.3H332.6z"/>
		<path class="st0" d="M350.7,128.7c1.9-0.4,4.8-0.6,7.4-0.6c4.1,0,6.8,0.8,8.6,2.4c1.5,1.3,2.3,3.4,2.3,5.7c0,3.9-2.5,6.5-5.6,7.6
			v0.1c2.3,0.8,3.6,2.9,4.3,6c1,4.2,1.7,7,2.3,8.2h-4c-0.5-0.9-1.2-3.4-1.9-7.1c-0.9-4.1-2.5-5.7-6-5.8h-3.6v12.9h-3.9V128.7z
			 M354.5,142.3h3.9c4.1,0,6.7-2.3,6.7-5.7c0-3.8-2.8-5.5-6.9-5.5c-1.9,0-3.1,0.1-3.8,0.3V142.3z"/>
		<path class="st0" d="M376.7,148.1c0.1,5.3,3.4,7.4,7.3,7.4c2.8,0,4.5-0.5,5.9-1.1l0.7,2.8c-1.4,0.6-3.8,1.4-7.2,1.4
			c-6.6,0-10.5-4.4-10.5-10.8s3.8-11.5,10-11.5c7,0,8.8,6.1,8.8,10c0,0.8,0,1.4-0.1,1.8H376.7z M388.1,145.3c0-2.4-1-6.3-5.4-6.3
			c-4,0-5.7,3.6-6,6.3H388.1z"/>
		<path class="st0" d="M396.7,143.7c0-2.7-0.1-5-0.2-7h3.5l0.2,3.7h0.1c1.5-2.6,4.1-4.1,7.6-4.1c5.2,0,9.1,4.4,9.1,10.8
			c0,7.7-4.7,11.5-9.8,11.5c-2.8,0-5.3-1.2-6.6-3.4h-0.1v11.6h-3.8V143.7z M400.5,149.4c0,0.6,0,1.1,0.2,1.6
			c0.7,2.7,3.1,4.6,5.8,4.6c4.1,0,6.5-3.4,6.5-8.3c0-4.2-2.3-7.9-6.4-7.9c-2.7,0-5.2,1.9-5.9,4.8c-0.1,0.5-0.3,1.1-0.3,1.6V149.4z"
			/>
		<path class="st0" d="M441.2,147.2c0,7.9-5.5,11.4-10.7,11.4c-5.8,0-10.3-4.2-10.3-11c0-7.1,4.7-11.3,10.6-11.3
			C437.1,136.3,441.2,140.7,441.2,147.2z M424.3,147.5c0,4.7,2.7,8.2,6.5,8.2c3.7,0,6.5-3.5,6.5-8.3c0-3.6-1.8-8.2-6.4-8.2
			C426.3,139.2,424.3,143.4,424.3,147.5z"/>
		<path class="st0" d="M446.1,143.4c0-2.5,0-4.7-0.2-6.7h3.4l0.2,4.2h0.1c1-2.9,3.4-4.7,6-4.7c0.4,0,0.7,0,1.1,0.1v3.7
			c-0.4-0.1-0.8-0.1-1.3-0.1c-2.7,0-4.7,2-5.2,5c-0.1,0.5-0.1,1.2-0.1,1.8v11.4h-3.9V143.4z"/>
		<path class="st0" d="M466.4,131.6v5.1h5.6v3h-5.6v11.5c0,2.7,0.8,4.2,2.9,4.2c1.1,0,1.7-0.1,2.3-0.3l0.2,3
			c-0.8,0.3-1.9,0.5-3.4,0.5c-1.8,0-3.3-0.6-4.2-1.6c-1.1-1.2-1.5-3.1-1.5-5.6v-11.7h-3.3v-3h3.3v-4L466.4,131.6z"/>
		<path class="st0" d="M480.7,130.7c0,1.3-0.9,2.4-2.5,2.4c-1.4,0-2.3-1.1-2.3-2.4c0-1.3,1-2.4,2.4-2.4
			C479.7,128.3,480.7,129.3,480.7,130.7z M476.3,158.1v-21.4h3.9v21.4H476.3z"/>
		<path class="st0" d="M486.7,142.5c0-2.3,0-4-0.2-5.8h3.5l0.2,3.5h0.1c1.1-2,3.5-4,7.1-4c3,0,7.6,1.8,7.6,9.1v12.7H501v-12.3
			c0-3.5-1.3-6.3-5-6.3c-2.5,0-4.5,1.8-5.2,4c-0.2,0.5-0.3,1.2-0.3,1.8v12.9h-3.9V142.5z"/>
		<path class="st0" d="M529.5,155c0,5-1,7.9-3.1,9.8c-2.1,1.9-5.1,2.6-7.8,2.6c-2.6,0-5.4-0.6-7.1-1.8l1-3c1.4,0.9,3.6,1.7,6.3,1.7
			c4,0,6.9-2.1,6.9-7.5v-2.3h-0.1c-1.1,2-3.5,3.6-6.8,3.6c-5.3,0-9.1-4.5-9.1-10.4c0-7.3,4.7-11.3,9.7-11.3c3.7,0,5.7,1.9,6.7,3.7
			h0.1l0.1-3.2h3.5c-0.1,1.5-0.2,3.3-0.2,5.8V155z M525.6,145.2c0-0.7,0-1.2-0.2-1.7c-0.7-2.3-2.6-4.2-5.4-4.2
			c-3.7,0-6.4,3.1-6.4,8.1c0,4.2,2.2,7.7,6.3,7.7c2.4,0,4.6-1.5,5.4-4c0.2-0.7,0.3-1.4,0.3-2.1V145.2z"/>
	</g>
	<g>
		<g>
			<g>
				<path class="st1" d="M64.1,77c-1.1,0-2.1-0.3-3.1-0.8L4.6,44.8c-3.1-1.7-4.3-5.7-2.5-8.8c1.7-3.1,5.7-4.3,8.8-2.5l56.4,31.4
					c3.1,1.7,4.3,5.7,2.5,8.8C68.6,75.8,66.4,77,64.1,77z"/>
			</g>
			<g>
				<path class="st1" d="M63.9,77c-2.3,0-4.5-1.2-5.7-3.4c-1.7-3.1-0.6-7.1,2.5-8.9l56.6-31.5c3.1-1.8,7.1-0.6,8.8,2.5
					c1.7,3.1,0.6,7.1-2.5,8.9L67,76.2C66,76.7,65,77,63.9,77z"/>
			</g>
			<g>
				<path class="st1" d="M64,139.9c-3.6,0-6.6-2.9-6.6-6.5v-63c0-3.6,3-6.5,6.6-6.5c3.6,0,6.6,2.9,6.6,6.5v63
					C70.6,137,67.6,139.9,64,139.9z"/>
			</g>
			<g>
				<path class="st1" d="M64,140.8c-1.1,0-2.2-0.3-3.2-0.8L3.4,108.1c-2.1-1.2-3.4-3.4-3.4-5.8V38.5c0-2.4,1.3-4.6,3.4-5.8L60.8,0.8
					c2-1.1,4.4-1.1,6.4,0l57.4,31.9c2.1,1.2,3.4,3.4,3.4,5.8v63.8c0,2.4-1.3,4.6-3.4,5.8L67.2,140C66.2,140.5,65.1,140.8,64,140.8z
					 M13.2,98.4L64,126.7l50.8-28.2v-56L64,14.1L13.2,42.4V98.4z"/>
			</g>
		</g>
		<g>
			<path class="st1" d="M147,83.6V47.4c0-9.6,2.5-16.7,7.6-21.1c5.1-4.4,11.8-6.7,20.3-6.7c8.5,0,15.3,2.2,20.4,6.7
				c5.1,4.4,7.7,11.5,7.7,21.1v36.2c0,8.7-2.1,15.3-6.4,19.8c-4.2,4.5-10,7.1-17.2,7.7v8.7c0,1.3-0.4,2.4-1.3,3.2
				c-0.9,0.8-1.9,1.2-3.2,1.2c-1.2,0-2.2-0.4-3.1-1.2c-0.9-0.8-1.3-1.9-1.3-3.2v-8.7c-7.2-0.7-13-3.2-17.2-7.7
				C149.1,99,147,92.4,147,83.6z M160.2,83.6c0,8.8,3.4,13.9,10.3,15.3v-7.6c0-2.8,1.5-4.2,4.4-4.2c1.2,0,2.3,0.4,3.2,1.1
				c0.9,0.7,1.3,1.8,1.3,3.2v7.5c6.9-1.5,10.3-6.6,10.3-15.2V47.4c0-5.4-1.3-9.4-3.9-12.1c-2.6-2.7-6.2-4-11-4
				c-9.8,0-14.7,5.4-14.7,16.1V83.6z"/>
			<path class="st1" d="M211.9,105.2c0-0.5,0-0.9,0.1-1.1l24.7-80.7c1.1-3,4-4.5,8.9-4.5c4.9,0,7.9,1.4,9,4.2l24.7,80.7
				c0.2,0.5,0.2,0.9,0.2,1.2c0,1.6-1,2.9-2.9,4c-1.9,1.1-4,1.7-6.2,1.7c-2.6,0-4.2-0.9-4.9-2.7l-5.2-17.8h-30.6l-5.1,17.8
				c-0.6,1.8-2.1,2.8-4.6,2.8c-2,0-3.9-0.5-5.6-1.6C212.8,107.9,211.9,106.7,211.9,105.2z M232.8,79.6h24.7l-12.5-42.7L232.8,79.6z"
				/>
			<path class="st1" d="M287.5,83.6V47.4c0-9.5,2.6-16.6,7.7-21c5.1-4.5,11.8-6.7,20-6.7c8.5,0,15.3,2.1,20.5,6.3
				c5.2,4.2,7.8,9.6,7.8,16.3c0,2.7-0.5,4.5-1.5,5.4c-1,1-2.7,1.4-5.1,1.4c-4.3,0-6.5-1.5-6.6-4.4c-0.5-8.9-5.4-13.3-14.6-13.3
				c-10,0-14.9,5.4-14.9,16.1v36.2c0,10.7,5.1,16.1,15.2,16.1c3,0,5.5-0.4,7.5-1.3c2-0.9,3.4-2.1,4.3-3.8c0.9-1.7,1.5-3.1,1.8-4.4
				c0.3-1.2,0.6-2.8,0.7-4.6c0.3-2.9,2.4-4.4,6.5-4.4c2.4,0,4.1,0.5,5.2,1.4c1,1,1.6,2.8,1.6,5.4c0,6.9-2.6,12.5-7.8,16.8
				c-5.2,4.3-12.1,6.5-20.6,6.5c-8.2,0-14.9-2.2-19.9-6.7C290,100.2,287.5,93.2,287.5,83.6z"/>
			<path class="st1" d="M353.9,87.1V56c0-1.2,0.7-2.2,2-3.1c1.3-0.9,2.9-1.3,4.6-1.3c1.7,0,3.3,0.4,4.5,1.3c1.3,0.9,1.9,1.9,1.9,3
				V87c0,3.3,1.3,6.3,3.8,8.9c2.5,2.7,5.5,4,8.9,4c3.5,0,6.5-1.3,9-3.9c2.5-2.6,3.7-5.6,3.7-9V55.8c0-1.2,0.6-2.2,1.9-3
				c1.3-0.8,2.8-1.2,4.7-1.2c1.8,0,3.3,0.4,4.5,1.2c1.2,0.8,1.8,1.8,1.8,3v31.3c0,6.6-2.5,12.3-7.6,17.2c-5.1,4.9-11.1,7.3-18.1,7.3
				c-7,0-13-2.4-18.1-7.3C356.4,99.4,353.9,93.7,353.9,87.1z"/>
			<path class="st1" d="M418.6,106.3V20.8c0-1.2,0.6-2.3,1.7-3c1.2-0.8,2.7-1.2,4.6-1.2c1.9,0,3.5,0.4,4.8,1.2
				c1.3,0.8,1.9,1.8,1.9,3v39.6c1.4-2.7,3.5-5,6.4-6.8c2.8-1.8,6.1-2.8,9.7-2.8c6.1,0,11.4,2.4,15.8,7.2c4.4,4.8,6.5,10.6,6.5,17.3
				v11.5c0,6.5-2.2,12.2-6.6,17.3c-4.4,5-9.5,7.5-15.3,7.5c-3.7,0-7.2-1-10.3-2.9c-3.2-1.9-5.4-4.2-6.8-6.9v4.4c0,1.1-0.6,2.1-1.8,3
				c-1.2,0.9-2.6,1.4-4.2,1.4c-1.8,0-3.3-0.5-4.5-1.4C419.2,108.4,418.6,107.4,418.6,106.3z M431.7,89.7c0,1.8,1.3,4,3.9,6.5
				c2.6,2.5,5.5,3.8,8.8,3.8c3.4,0,6.3-1.3,8.8-4c2.5-2.7,3.7-5.7,3.7-9.1V75.4c0-3.3-1.3-6.3-3.8-8.9c-2.5-2.6-5.5-4-8.9-4
				c-3.2,0-6.1,1.2-8.7,3.6c-2.6,2.4-3.9,5.5-3.9,9.3V89.7z"/>
			<path class="st1" d="M479.3,86.8V75c0-6.6,2.5-12.2,7.6-17c5.1-4.8,11.2-7.2,18.3-7.2c6.8,0,12.6,2.2,17.5,6.5
				c4.9,4.3,7.3,9.8,7.3,16.4c0,2.5-0.3,4.6-0.9,6.2c-0.6,1.6-1.5,2.7-2.7,3.3c-1.2,0.6-2.4,1-3.5,1.2c-1.1,0.2-2.5,0.3-4.2,0.3
				h-26.3v2.9c0,4.2,1.5,7.5,4.5,10c3,2.5,6.9,3.7,11.7,3.7c3.4,0,6.6-0.8,9.7-2.4c3-1.6,4.9-2.4,5.5-2.4c1.4,0,2.6,0.7,3.6,2
				c1,1.3,1.5,2.6,1.5,3.9c0,2.1-2,4.1-6,6.2c-4,2.1-8.9,3.1-14.7,3.1c-8.5,0-15.4-2.3-20.8-6.8C482,100.2,479.3,94.2,479.3,86.8z
				 M492.4,76.3H513c1.8,0,3.1-0.2,3.7-0.7c0.6-0.5,0.9-1.5,0.9-2.9c0-3.3-1.2-6-3.6-8.3c-2.4-2.3-5.4-3.4-9-3.4
				c-3.5,0-6.5,1.1-9,3.3c-2.5,2.2-3.7,4.9-3.7,8.3V76.3z"/>
		</g>
	</g>
</g>
</svg>
