<svg xmlns="http://www.w3.org/2000/svg" width="240" height="100" viewBox="0 0 240 100"><g fill="#FFF4E2"><path d="M178.99 40.042c0-1.514-1.223-2.717-2.716-2.717H144.79c-5.744 0-10.433 4.417-10.433 10.163s4.646 10.163 10.433 10.163h25.283c2.468 0 4.48 2.24 4.48 4.71 0 2.467-2.013 4.687-4.46 4.687H138.61c-1.515 0-2.718 1.224-2.718 2.717s1.225 2.717 2.718 2.717h31.483c5.745 0 10.433-4.417 10.433-10.162 0-5.746-4.688-10.163-10.433-10.163H144.79c-2.467 0-4.48-2.24-4.48-4.708s2.014-4.708 4.48-4.708h31.484c1.515.06 2.717-1.185 2.717-2.698M123.47 25.17c0-2.198-1.763-3.96-3.962-3.96-2.198 0-3.96 1.763-3.96 3.96 0 2.2 1.762 3.962 3.96 3.962 2.2.02 3.962-1.763 3.962-3.96"/><path opacity=".8" d="M110.818 25.17c0-2.198-1.763-3.96-3.962-3.96-2.198 0-3.96 1.763-3.96 3.96 0 2.2 1.762 3.962 3.96 3.962 2.2 0 3.962-1.763 3.962-3.96"/><path opacity=".6" d="M98.188 25.17c0-2.198-1.763-3.96-3.962-3.96s-3.962 1.763-3.962 3.96c0 2.2 1.763 3.962 3.962 3.962 2.177.02 3.962-1.763 3.962-3.96"/><path opacity=".4" d="M85.535 25.17c0-2.198-1.763-3.96-3.96-3.96s-3.983 1.763-3.983 3.96c0 2.2 1.763 3.962 3.962 3.962 2.198 0 3.98-1.763 3.98-3.96"/><path opacity=".2" d="M72.884 25.17c0-2.198-1.763-3.96-3.96-3.96-2.2 0-3.963 1.763-3.963 3.96 0 2.2 1.764 3.962 3.963 3.962 2.198 0 3.96-1.763 3.96-3.96"/><path d="M101.88 37.325c-.084 0-.167.02-.23.02v-.02H74.875c-10.64 0-17.857 6.99-17.857 17.608v14.87c0 1.64 1.327 2.967 2.966 2.967s2.966-1.328 2.966-2.966v-14.87c0-7.385 4.48-12.134 11.905-12.134h26.775v-.02c.083 0 .166.02.23.02 1.513 0 2.716-1.224 2.716-2.718.04-1.554-1.183-2.757-2.697-2.757"/><path d="M65.936 54.933c0 1.514 1.224 2.717 2.717 2.717h27.274c1.514 0 2.716-1.224 2.716-2.717s-1.223-2.717-2.716-2.717H68.652c-1.47 0-2.716 1.224-2.716 2.717M116.52 40.042v29.763c0 1.638 1.328 2.986 2.967 2.986s2.986-1.327 2.986-2.985V40.042c0-1.638-1.327-2.966-2.986-2.966-1.617 0-2.966 1.327-2.966 2.966"/></g></svg>