<svg id="Layer_1" data-name="Layer 1" xmlns="http://www.w3.org/2000/svg" viewBox="0 0 4738.35 464.84"><defs><style>.cls-1{fill:#fff3e0;}</style></defs><title>MANNING_LOGO</title><polygon class="cls-1" points="0 464.84 86.16 0.45 351.79 0 353.87 285.81 401.75 0.64 666.11 0.64 666.11 464.84 416.83 464.84 412.15 73.49 350.88 464.84 102 464.84 102 54.76 20.65 464.84 0 464.84"/><path class="cls-1" d="M877.51,135.16c.82-4.63,2.45-7.08,4.62-7.08s3.81,1.36,7.35,8.43L963.75,290l74-155.34c1.9-4.35,3.53-6.53,6-6.53s4.08,2.72,4.9,8.43l24.76,168.12c2.45,17.14,5.17,25,13.33,27.48a54.25,54.25,0,0,0,16.87,2.72c2.45,0,4.36.27,4.36,1.9,0,2.18-3.27,3-7.08,3-6.8,0-44.34-.82-55.22-1.63-6.26-.55-7.89-1.36-7.89-3,0-1.36,1.08-2.18,3-3,1.63-.54,2.45-4.08,1.36-11.7l-16.33-119.69h-1.09l-59.31,123.5c-6.26,12.79-7.62,15.23-10.06,15.23s-5.17-5.44-9.52-13.6c-6.53-12.51-28-54.13-31.29-61.75-2.45-5.71-18.77-40-28.29-60.39h-1.09L871,312a108.53,108.53,0,0,0-.81,12.79c0,5.16,3.54,7.62,8.16,8.7a52.44,52.44,0,0,0,11.43,1.35c2.17,0,4.08.55,4.08,1.9,0,2.45-2.45,3-6.53,3-11.43,0-23.67-.82-28.56-.82-5.17,0-18.23.82-26.93.82-2.72,0-4.89-.54-4.89-3,0-1.35,1.63-1.9,4.35-1.9a35.05,35.05,0,0,0,8.16-.81c7.62-1.63,9.79-12.24,11.15-21.49Z" transform="translate(-24.32 -14.88)"/><path class="cls-1" d="M1164.73,268.73c-1.36,0-1.9.54-2.45,2.17l-14.69,38.9c-2.72,6.8-4.08,13.33-4.08,16.59,0,4.9,2.45,8.43,10.88,8.43h4.08c3.26,0,4.08.55,4.08,2.18,0,2.18-1.63,2.72-4.63,2.72-8.71,0-20.4-.82-28.83-.82-3,0-18,.82-32.1.82-3.53,0-5.17-.54-5.17-2.72,0-1.63,1.09-2.18,3.26-2.18a82,82,0,0,0,8.44-.54c12.51-1.64,17.68-10.88,23.12-24.49L1194.93,139c3.26-7.89,4.9-10.88,7.62-10.88,2.45,0,4.08,2.44,6.8,8.71,6.53,15,50.05,126,67.46,167.3,10.34,24.49,18.23,28.29,23.94,29.65a59.1,59.1,0,0,0,11.42,1.09c2.18,0,3.54.27,3.54,2.18,0,2.18-2.45,2.72-12.51,2.72-9.79,0-29.65,0-51.42-.54-4.9-.27-8.16-.27-8.16-2.18,0-1.63,1.09-2.18,3.81-2.44,1.9-.55,3.81-3,2.45-6.26l-21.76-57.67a2.61,2.61,0,0,0-2.72-1.9Zm55.5-13.6c1.36,0,1.63-.82,1.36-1.64L1197.1,186.3c-.27-1.09-.54-2.45-1.36-2.45s-1.36,1.36-1.63,2.45l-25,66.92c-.27,1.08,0,1.9,1.09,1.9Z" transform="translate(-24.32 -14.88)"/><path class="cls-1" d="M1359.51,302.73c.54,21.22,4.08,28.29,9.52,30.2,4.62,1.64,9.79,1.9,14.14,1.9,3,0,4.63.55,4.63,2.18,0,2.18-2.45,2.72-6.26,2.72-17.68,0-28.56-.82-33.74-.82-2.45,0-15.23.82-29.38.82-3.53,0-6-.27-6-2.72,0-1.63,1.63-2.18,4.35-2.18a48.2,48.2,0,0,0,12.24-1.35c7.08-2.18,8.16-10.07,8.44-33.73l2.45-161.05c0-5.44.81-9.25,3.53-9.25,3,0,5.44,3.53,10.07,8.43,3.26,3.53,44.61,47.87,84.33,87.33,18.5,18.49,55.22,57.67,59.85,62h1.36l-2.72-122.14c-.27-16.6-2.72-21.77-9.25-24.49C1483,139,1476.49,139,1472.68,139c-3.26,0-4.35-.81-4.35-2.45,0-2.18,3-2.44,7.08-2.44,14.14,0,27.2.81,32.92.81,3,0,13.33-.81,26.66-.81,3.54,0,6.26.27,6.26,2.44q0,2.46-4.9,2.45a29.72,29.72,0,0,0-8.17.81c-7.62,2.18-9.79,7.89-10.06,23.12l-3,171.66c0,6-1.09,8.43-3.54,8.43-3,0-6.26-3-9.25-6-17.14-16.32-52-52-80.25-80-29.65-29.38-59.85-63.39-64.74-68.55h-.82Z" transform="translate(-24.32 -14.88)"/><path class="cls-1" d="M1617.14,302.73c.54,21.22,4.08,28.29,9.52,30.2,4.62,1.64,9.79,1.9,14.14,1.9,3,0,4.63.55,4.63,2.18,0,2.18-2.45,2.72-6.26,2.72-17.68,0-28.56-.82-33.74-.82-2.44,0-15.23.82-29.38.82-3.54,0-6-.27-6-2.72,0-1.63,1.63-2.18,4.35-2.18a48.2,48.2,0,0,0,12.24-1.35c7.08-2.18,8.16-10.07,8.44-33.73l2.45-161.05c0-5.44.81-9.25,3.53-9.25,3,0,5.44,3.53,10.07,8.43,3.26,3.53,44.61,47.87,84.33,87.33,18.5,18.49,55.22,57.67,59.85,62h1.36L1754,165.09c-.27-16.6-2.72-21.77-9.25-24.49-4.08-1.63-10.61-1.63-14.42-1.63-3.26,0-4.35-.81-4.35-2.45,0-2.18,3-2.44,7.08-2.44,14.14,0,27.2.81,32.92.81,3,0,13.33-.81,26.66-.81,3.54,0,6.26.27,6.26,2.44q0,2.46-4.89,2.45a29.68,29.68,0,0,0-8.16.81c-7.62,2.18-9.79,7.89-10.07,23.12l-3,171.66c0,6-1.08,8.43-3.53,8.43-3,0-6.26-3-9.25-6-17.14-16.32-52-52-80.25-80-29.65-29.38-59.85-63.39-64.74-68.55h-.82Z" transform="translate(-24.32 -14.88)"/><path class="cls-1" d="M1859.53,213c0-41.35,0-49-.54-57.67-.55-9.25-3.26-13.88-9.25-15.23a38.31,38.31,0,0,0-9.79-1.09c-2.72,0-4.35-.55-4.35-2.72,0-1.64,2.18-2.18,6.53-2.18,10.33,0,27.48.81,35.37.81,6.8,0,22.85-.81,33.19-.81,3.54,0,5.71.54,5.71,2.18,0,2.17-1.63,2.72-4.35,2.72a45.53,45.53,0,0,0-8.16.81c-7.35,1.36-9.52,6-10.06,15.51-.55,8.71-.55,16.32-.55,57.67v47.88c0,26.38,0,47.87,1.09,59.57.81,7.35,2.72,12.24,10.88,13.33a113.51,113.51,0,0,0,13.88,1.09c3,0,4.35.82,4.35,2.18,0,1.9-2.18,2.72-5.17,2.72-18,0-35.09-.82-42.44-.82-6.26,0-23.4.82-34.28.82-3.54,0-5.44-.82-5.44-2.72,0-1.36,1.09-2.18,4.35-2.18a44.06,44.06,0,0,0,9.79-1.09c5.44-1.09,7.07-5.71,7.89-13.6,1.36-11.42,1.36-32.92,1.36-59.3Z" transform="translate(-24.32 -14.88)"/><path class="cls-1" d="M1997.73,302.73c.54,21.22,4.08,28.29,9.52,30.2,4.62,1.64,9.79,1.9,14.14,1.9,3,0,4.63.55,4.63,2.18,0,2.18-2.45,2.72-6.26,2.72-17.68,0-28.56-.82-33.74-.82-2.44,0-15.23.82-29.38.82-3.54,0-6-.27-6-2.72,0-1.63,1.63-2.18,4.35-2.18a48.2,48.2,0,0,0,12.24-1.35c7.08-2.18,8.16-10.07,8.44-33.73l2.45-161.05c0-5.44.81-9.25,3.53-9.25,3,0,5.44,3.53,10.07,8.43,3.26,3.53,44.61,47.87,84.33,87.33,18.5,18.49,55.22,57.67,59.85,62h1.36l-2.72-122.14c-.27-16.6-2.72-21.77-9.25-24.49-4.08-1.63-10.61-1.63-14.42-1.63-3.26,0-4.35-.81-4.35-2.45,0-2.18,3-2.44,7.08-2.44,14.14,0,27.2.81,32.92.81,3,0,13.33-.81,26.66-.81,3.54,0,6.26.27,6.26,2.44q0,2.46-4.89,2.45a29.67,29.67,0,0,0-8.16.81c-7.62,2.18-9.79,7.89-10.07,23.12l-3,171.66c0,6-1.08,8.43-3.53,8.43-3,0-6.26-3-9.25-6-17.14-16.32-52-52-80.25-80-29.65-29.38-59.85-63.39-64.74-68.55h-.82Z" transform="translate(-24.32 -14.88)"/><path class="cls-1" d="M2403.93,321.5c0,7.34-.27,7.89-3.54,9.79-17.68,9.25-44.34,12.24-65.56,12.24-66.65,0-125.68-31.55-125.68-106.64,0-43.53,22.58-74,47.33-89,26.12-15.77,50.33-17.68,73.18-17.68,18.76,0,42.7,3.26,48.14,4.35,5.72,1.09,15.24,2.72,21.5,3,3.26.27,3.81,1.36,3.81,3.27,0,3-1.91,10.61-1.91,44.61,0,4.35-.82,5.71-3,5.71-1.9,0-2.44-1.36-2.71-3.54-.82-6.25-2.18-15-9.25-22.57-8.16-8.71-29.92-21.22-60.67-21.22-15,0-34.82,1.09-53.86,16.86-15.23,12.79-25,33.19-25,66.65,0,58.49,37.27,102.29,94.67,102.29,7.08,0,16.6,0,23.13-3,4.07-1.9,5.16-5.45,5.16-10.07V291c0-13.59,0-23.94-.27-32.09-.27-9.25-2.72-13.6-11.69-15.51a55.61,55.61,0,0,0-10.61-.81c-2.45,0-4.09-.55-4.09-2.18,0-2.18,1.91-2.72,5.72-2.72,14.14,0,31.28.82,39.44.82,8.43,0,22.85-.82,31.83-.82,3.54,0,5.44.54,5.44,2.72,0,1.63-1.63,2.18-3.53,2.18a42.27,42.27,0,0,0-7.34.81c-7.35,1.35-10.07,6-10.34,15.51-.27,8.16-.27,19-.27,32.64Z" transform="translate(-24.32 -14.88)"/><path class="cls-1" d="M2561.43,213c0-41.35,0-49-.54-57.67-.54-9.25-2.72-13.6-11.7-15.51a55.62,55.62,0,0,0-10.61-.81c-3,0-4.62-.55-4.62-2.45s1.9-2.44,6-2.44c14.42,0,31.55.81,39.17.81,11.15,0,26.93-.81,39.45-.81,34,0,46.24,11.42,50.59,15.51a47.24,47.24,0,0,1,13.6,32.37c0,38.63-28.29,65.83-66.92,65.83a41,41,0,0,1-5.71-.27c-1.35-.27-3.27-.55-3.27-2.45,0-2.18,1.91-3,7.62-3,15.24,0,36.46-17.14,36.46-44.88,0-9-.82-27.2-16.06-40.81a40.4,40.4,0,0,0-27.2-10.61c-4.07,0-8.16.27-10.61,1.09-1.36.54-2.17,2.17-2.17,5.16V260.84c0,25,0,46.52,1.35,58.22.82,7.62,2.45,13.59,10.61,14.68a113.54,113.54,0,0,0,13.88,1.09c3,0,4.35.82,4.35,2.18,0,1.9-2.17,2.72-5.16,2.72-18,0-35.1-.82-42.16-.82-6.26,0-23.4.82-34.28.82-3.53,0-5.45-.82-5.45-2.72,0-1.36,1.1-2.18,4.36-2.18a44,44,0,0,0,9.79-1.09c5.44-1.09,6.8-7.07,7.89-15,1.35-11.42,1.35-32.92,1.35-57.94Z" transform="translate(-24.32 -14.88)"/><path class="cls-1" d="M2727.93,213c0-41.35,0-49-.54-57.67-.55-9.25-2.73-13.6-11.71-15.51a55.54,55.54,0,0,0-10.61-.81c-3,0-4.62-.55-4.62-2.45s1.91-2.44,6-2.44c14.42,0,31.56.81,39.72.81,6.53,0,23.67-.81,33.47-.81,4.07,0,6,.54,6,2.44S2784,139,2781.25,139a40.58,40.58,0,0,0-7.89.81c-7.34,1.36-9.52,6-10.07,15.51-.54,8.71-.54,16.32-.54,57.67V251c0,39.44,7.89,56,21.22,66.92,12.25,10.06,24.75,11.15,34,11.15,12,0,26.66-3.81,37.54-14.69,15-15,15.78-39.44,15.78-67.46V213c0-41.35,0-49-.55-57.67-.54-9.25-2.72-13.6-11.69-15.51a52.35,52.35,0,0,0-9.79-.81c-3,0-4.62-.55-4.62-2.45s1.9-2.44,5.7-2.44c13.88,0,31,.81,31.29.81,3.27,0,20.4-.81,31-.81,3.81,0,5.71.54,5.71,2.44s-1.63,2.45-4.9,2.45a40.58,40.58,0,0,0-7.89.81c-7.34,1.36-9.52,6-10.06,15.51C2895,164,2895,171.61,2895,213v29.11c0,30.2-3,62.3-25.84,81.88-19.31,16.6-38.9,19.59-56.59,19.59-14.42,0-40.52-.82-60.39-18.76-13.88-12.51-24.21-32.65-24.21-72.09Z" transform="translate(-24.32 -14.88)"/><path class="cls-1" d="M2971.41,213c0-41.35,0-49-.54-57.67-.55-9.25-2.73-13.6-11.71-15.51a55.55,55.55,0,0,0-10.61-.81c-3,0-4.62-.55-4.62-2.45s1.91-2.44,6-2.44c14.42,0,31.56.81,37,.81,13.33,0,23.94-.81,33.19-.81,49.24,0,57.93,26.39,57.93,40.81,0,22.31-12.78,35.63-27.74,47.6,22.3,7.62,49.5,26.94,49.5,58.77,0,29.11-22.58,59.3-72.63,59.3-6.53,0-31.28-1.63-39.44-1.63-6.25,0-23.4.82-34.27.82-3.54,0-5.45-.82-5.45-2.72,0-1.36,1.09-2.18,4.35-2.18a44,44,0,0,0,9.79-1.09c5.45-1.09,6.8-7.07,7.9-15,1.35-11.42,1.35-32.92,1.35-57.94Zm32.64,4.62c0,2.18.82,2.73,1.9,3,2.44.55,6.54.82,12.79.82,9,0,15-1.08,19.59-5.16,7.07-5.71,11.15-15.51,11.15-28.83,0-18.23-10.61-42.17-34-42.17a43.67,43.67,0,0,0-9,.55c-1.91.54-2.45,1.63-2.45,4.62ZM3040,239.35c-5.71-4.08-12-6-22.58-6.53-4.89-.27-7.62-.27-11.69-.27-1.1,0-1.64.54-1.64,1.9v64.47c0,18,.82,22.58,9.52,26.12,7.35,3,13.6,3.27,19.86,3.27,12.24,0,32.92-6.53,32.92-34.82C3066.35,276.61,3060.63,253.77,3040,239.35Z" transform="translate(-24.32 -14.88)"/><path class="cls-1" d="M3197.75,260.84c0,34.82,0,53.59,5.71,58.48,4.62,4.08,11.7,6,32.92,6,14.42,0,25-.27,31.83-7.62,3.26-3.53,6.53-11.16,7.07-16.32.28-2.45.82-4.08,3-4.08,1.91,0,2.18,1.36,2.18,4.62,0,3-1.9,23.4-4.07,31.29-1.64,6-3,7.34-17.14,7.34-39.18,0-57.13-1.63-79.16-1.63-6.26,0-23.4.82-34.28.82-3.53,0-5.44-.82-5.44-2.72,0-1.36,1.09-2.18,4.36-2.18a44.16,44.16,0,0,0,9.79-1.09c5.44-1.09,6.8-7.07,7.88-15,1.36-11.42,1.36-32.92,1.36-57.94V213c0-41.35,0-49-.55-57.67-.54-9.25-2.72-13.6-11.69-15.51a40.17,40.17,0,0,0-9-.81c-3,0-4.62-.55-4.62-2.45s1.9-2.44,6-2.44c12.78,0,29.92.81,37.27.81,6.53,0,26.39-.81,37-.81,3.81,0,5.7.54,5.7,2.44S3222.23,139,3219,139a71.73,71.73,0,0,0-10.61.81c-7.35,1.36-9.53,6-10.07,15.51-.54,8.71-.54,16.32-.54,57.67Z" transform="translate(-24.32 -14.88)"/><path class="cls-1" d="M3328.33,213c0-41.35,0-49-.54-57.67-.55-9.25-3.27-13.88-9.25-15.23a38.29,38.29,0,0,0-9.79-1.09c-2.72,0-4.35-.55-4.35-2.72,0-1.64,2.18-2.18,6.53-2.18,10.33,0,27.48.81,35.36.81,6.8,0,22.85-.81,33.19-.81,3.54,0,5.71.54,5.71,2.18,0,2.17-1.63,2.72-4.35,2.72a45.46,45.46,0,0,0-8.17.81c-7.35,1.36-9.52,6-10.06,15.51-.55,8.71-.55,16.32-.55,57.67v47.88c0,26.38,0,47.87,1.09,59.57.81,7.35,2.72,12.24,10.88,13.33a113.51,113.51,0,0,0,13.87,1.09c3,0,4.36.82,4.36,2.18,0,1.9-2.18,2.72-5.17,2.72-18,0-35.09-.82-42.44-.82-6.25,0-23.4.82-34.27.82-3.54,0-5.45-.82-5.45-2.72,0-1.36,1.09-2.18,4.35-2.18a44,44,0,0,0,9.79-1.09c5.45-1.09,7.08-5.71,7.9-13.6,1.35-11.42,1.35-32.92,1.35-59.3Z" transform="translate(-24.32 -14.88)"/><path class="cls-1" d="M3452.73,313.89C3426.06,290.49,3419,260,3419,233.64c0-18.5,5.71-50.6,31.83-74.54,19.58-18,45.43-28.83,86-28.83a269.47,269.47,0,0,1,39.44,2.72c10.34,1.36,19,3.81,27.2,4.62,3,.27,4.08,1.63,4.08,3.27,0,2.18-.82,5.44-1.36,15-.54,9-.27,23.95-.81,29.38-.27,4.08-.82,6.25-3.27,6.25-2.18,0-2.72-2.17-2.72-6a38.81,38.81,0,0,0-10.61-25c-9-9.53-30.2-16.87-55.22-16.87-23.66,0-39.17,6-51.14,16.87-19.85,18.23-25,44.07-25,70.46,0,64.74,49.24,96.85,85.69,96.85,24.21,0,38.9-2.73,49.79-15.24a45.36,45.36,0,0,0,9.25-18c.82-4.36,1.36-5.45,3.54-5.45,1.9,0,2.44,1.9,2.44,4.08,0,3.27-3.27,26.93-6,36.18-1.35,4.62-2.44,6-7.07,7.89-10.88,4.35-31.56,6.25-49,6.25C3508.77,343.54,3477.48,335.38,3452.73,313.89Z" transform="translate(-24.32 -14.88)"/><path class="cls-1" d="M3685.26,268.73c-1.36,0-1.9.54-2.45,2.17l-14.69,38.9c-2.72,6.8-4.07,13.33-4.07,16.59,0,4.9,2.44,8.43,10.87,8.43H3679c3.27,0,4.08.55,4.08,2.18,0,2.18-1.63,2.72-4.62,2.72-8.71,0-20.4-.82-28.84-.82-3,0-18,.82-32.09.82-3.54,0-5.17-.54-5.17-2.72,0-1.63,1.09-2.18,3.27-2.18a82,82,0,0,0,8.43-.54c12.51-1.64,17.68-10.88,23.12-24.49L3715.45,139c3.27-7.89,4.9-10.88,7.62-10.88,2.44,0,4.07,2.44,6.8,8.71,6.53,15,50.05,126,67.46,167.3,10.34,24.49,18.23,28.29,23.94,29.65a59.14,59.14,0,0,0,11.42,1.09c2.18,0,3.54.27,3.54,2.18,0,2.18-2.45,2.72-12.52,2.72-9.79,0-29.65,0-51.41-.54-4.9-.27-8.17-.27-8.17-2.18,0-1.63,1.09-2.18,3.81-2.44,1.9-.55,3.81-3,2.45-6.26l-21.77-57.67a2.61,2.61,0,0,0-2.72-1.9Zm55.49-13.6c1.36,0,1.64-.82,1.36-1.64l-24.49-67.19c-.27-1.09-.54-2.45-1.35-2.45s-1.36,1.36-1.64,2.45l-25,66.92c-.27,1.08,0,1.9,1.09,1.9Z" transform="translate(-24.32 -14.88)"/><path class="cls-1" d="M3883.32,149.3l-40.53,1.09c-15.77.54-22.31,1.9-26.38,7.89a32.24,32.24,0,0,0-4.63,9.52c-.54,2.18-1.35,3.27-3,3.27-1.9,0-2.45-1.36-2.45-4.36,0-4.35,5.17-29.11,5.71-31.29.82-3.53,1.63-5.16,3.27-5.16,2.18,0,4.9,2.72,11.7,3.26,7.89.82,18.23,1.36,27.2,1.36h107.72c17.41,0,23.94-2.72,26.12-2.72,1.9,0,2.18,1.63,2.18,5.71,0,5.71-.81,24.49-.81,31.55-.27,2.72-.82,4.36-2.45,4.36-2.17,0-2.72-1.36-3-5.45l-.27-3c-.55-7.07-7.89-14.68-32.1-15.23l-34.28-.82V260.84c0,25,0,46.52,1.36,58.22.81,7.62,2.44,13.59,10.61,14.68a113.53,113.53,0,0,0,13.88,1.09c3,0,4.35.82,4.35,2.18,0,1.9-2.18,2.72-5.17,2.72-17.95,0-35.09-.82-42.7-.82-6.26,0-23.4.82-34.28.82-3.53,0-5.44-.82-5.44-2.72,0-1.36,1.09-2.18,4.35-2.18a44,44,0,0,0,9.79-1.09c5.44-1.09,7.08-7.07,7.89-15,1.35-11.42,1.35-32.92,1.35-57.94Z" transform="translate(-24.32 -14.88)"/><path class="cls-1" d="M4040.3,213c0-41.35,0-49-.55-57.67-.54-9.25-3.26-13.88-9.25-15.23a38.3,38.3,0,0,0-9.79-1.09c-2.72,0-4.35-.55-4.35-2.72,0-1.64,2.17-2.18,6.53-2.18,10.33,0,27.47.81,35.36.81,6.8,0,22.86-.81,33.19-.81,3.53,0,5.71.54,5.71,2.18,0,2.17-1.63,2.72-4.35,2.72a45.54,45.54,0,0,0-8.17.81c-7.34,1.36-9.52,6-10.07,15.51C4074,164,4074,171.61,4074,213v47.88c0,26.38,0,47.87,1.09,59.57.81,7.35,2.72,12.24,10.88,13.33a113.51,113.51,0,0,0,13.87,1.09c3,0,4.36.82,4.36,2.18,0,1.9-2.18,2.72-5.17,2.72-18,0-35.1-.82-42.44-.82-6.26,0-23.4.82-34.28.82-3.53,0-5.44-.82-5.44-2.72,0-1.36,1.09-2.18,4.36-2.18a44,44,0,0,0,9.79-1.09c5.45-1.09,7.08-5.71,7.89-13.6,1.36-11.42,1.36-32.92,1.36-59.3Z" transform="translate(-24.32 -14.88)"/><path class="cls-1" d="M4131,236.9c0-46.51,30.74-106.63,112.34-106.63,67.74,0,109.91,39.44,109.91,101.74s-43.53,111.53-112.63,111.53C4162.51,343.54,4131,285.05,4131,236.9Zm184.16,5.17c0-60.94-35.1-98.75-79.7-98.75-31.29,0-66.92,17.41-66.92,85.15,0,56.59,31.28,101.47,83.51,101.47C4271,329.93,4315.12,320.69,4315.12,242.07Z" transform="translate(-24.32 -14.88)"/><path class="cls-1" d="M4426.69,302.73c.55,21.22,4.08,28.29,9.52,30.2,4.62,1.64,9.79,1.9,14.15,1.9,3,0,4.62.55,4.62,2.18,0,2.18-2.45,2.72-6.26,2.72-17.68,0-28.56-.82-33.73-.82-2.44,0-15.23.82-29.37.82-3.54,0-6-.27-6-2.72,0-1.63,1.63-2.18,4.35-2.18a48.22,48.22,0,0,0,12.25-1.35c7.07-2.18,8.16-10.07,8.43-33.73l2.44-161.05c0-5.44.82-9.25,3.54-9.25,3,0,5.44,3.53,10.06,8.43,3.27,3.53,44.62,47.87,84.33,87.33,18.5,18.49,55.22,57.67,59.85,62h1.36l-2.72-122.14c-.27-16.6-2.73-21.77-9.25-24.49-4.08-1.63-10.61-1.63-14.42-1.63-3.26,0-4.35-.81-4.35-2.45,0-2.18,3-2.44,7.07-2.44,14.15,0,27.2.81,32.92.81,3,0,13.34-.81,26.66-.81,3.53,0,6.25.27,6.25,2.44q0,2.46-4.9,2.45a29.65,29.65,0,0,0-8.16.81c-7.62,2.18-9.79,7.89-10.07,23.12l-3,171.66c0,6-1.09,8.43-3.53,8.43-3,0-6.26-3-9.25-6-17.14-16.32-52-52-80.25-80-29.65-29.38-59.85-63.39-64.74-68.55h-.82Z" transform="translate(-24.32 -14.88)"/><path class="cls-1" d="M4654.12,336.47c-4.35-1.9-5.16-3.27-5.16-9.25,0-15,1.09-31.29,1.36-35.64.27-4.08,1.09-7.08,3.27-7.08,2.44,0,2.72,2.45,2.72,4.62a57.26,57.26,0,0,0,2.45,13.88c6,20.13,22,27.48,38.89,27.48,24.49,0,36.46-16.59,36.46-31,0-13.33-4.08-26.12-26.66-43.53l-12.51-9.79c-29.92-23.4-40.26-42.44-40.26-64.47,0-29.93,25-51.42,62.84-51.42a131.58,131.58,0,0,1,36.18,4.62c2.45.54,3.81,1.36,3.81,3.27,0,3.53-1.08,11.42-1.08,32.64,0,6-.82,8.16-3,8.16-1.9,0-2.73-1.63-2.73-4.9a32.93,32.93,0,0,0-7.07-18c-4.08-5.17-12-13.33-29.66-13.33-20.13,0-32.37,11.7-32.37,28,0,12.51,6.25,22,28.83,39.17l7.62,5.71c32.64,25.3,44.61,43.53,44.61,69.38,0,15.77-6,34.55-25.57,47.33-13.6,8.71-28.84,11.15-43.26,11.15C4678.07,343.54,4665.82,341.63,4654.12,336.47Z" transform="translate(-24.32 -14.88)"/></svg>