<svg enable-background="new 0 0 907.1 400" viewBox="0 0 907.1 400" xmlns="http://www.w3.org/2000/svg"><g fill="#384af4"><path d="m338.4 241.4c-6.4-1.8-10.6-5.9-12.1-11.8l-.5-2.2h7.5c6.7 0 7.5.2 7.9 1.6.5 2 3.6 3.2 8.1 3.2 2.8 0 4.1-.5 6.1-2.3 2.2-2 2.5-2.8 2.9-7.3l.3-5.1-1.7 1.9c-5.5 5.8-17 5.4-24.1-.8-5.3-4.7-7.1-9.7-7.1-19.3-.1-9.3 1-13.3 4.5-18 6.5-8.6 19.1-10.2 26.3-3.5l2.8 2.6v-2.6-2.8h6.3 6.3v24.8c0 14-.4 26.3-.9 28.3-2.1 9.4-8.5 13.6-21.2 14-4.8.2-9.1-.1-11.4-.7zm14.2-30.5c3.6-1.7 5.7-6.2 5.8-12 0-10-7.1-16.2-14.2-12.4-5.9 3-7.2 15.9-2.4 22.2 3 3.7 6.4 4.4 10.8 2.2z"/><path d="m30.4 224.7c-11.6-3.8-19-13.2-19.9-25.1-.5-7 .9-12.4 4.5-18.1 9.8-15.1 32.3-16.9 44.5-3.6 5.3 5.8 7.5 11.3 7.5 19.3.1 5.9-.2 7.4-2.5 12.1-4.8 10.2-13.2 15.9-24.3 16.3-4 .1-7.8-.2-9.8-.9z"/><path d="m164.4 181.5c.2.2.5.4.7.6-.2-.2-.4-.3-.7-.6z"/><path d="m119.9 223.7c7.1-1.7 10.3-3.7 19.7-12.4 13.9-12.8 14-14.7 1.7-26.6-9-8.6-13.6-11.7-21.1-13.8l-4.7-1.4c-25.7-.2-58.9-.2-60.3.4-1 .4-.5 1 2.1 2.6 14 8.9 17.7 29 7.8 42.2-2.5 3.4-6.1 6.7-10 9.2-1.3.9 42.5 1.2 70.1 1-9.5-.1-9.3-.2-5.3-1.2z"/><path d="m559.8 223.9c-7.1-2-12-6.1-15.3-12.8-3.2-6.3-4-10.5-4-20.2-.1-7.5.2-10.1 1.7-14.7 3.1-9.5 9.7-16.4 17.6-18.6 4.3-1.2 12.8-1 17.1.6 5.6 1.9 11.7 8.2 13.3 13.7 1.9 6.3 1.9 6.3-3.1 6.3-3.5 0-4.4-.2-4.4-1.3 0-2.6-3.6-7.7-6.9-9.6-6.9-4-17.1-1.9-21.6 4.4-7.2 10.2-6.7 31.2 1 39.6 4.3 4.6 12.4 6.1 18.6 3.3 3.8-1.7 7.7-7 9.2-12.4l.9-3.4h4.3 4.2l-.6 3c-1.7 9.4-7.5 17.6-14.6 20.7-5 2.2-12.6 2.8-17.4 1.4z"/><path d="m618.5 223.9c-12.6-3.3-20.6-16.3-20.6-33 .1-15 6.4-27.3 16.6-32 3-1.3 5.2-1.7 12-1.7 7.5 0 8.7.2 12.3 2.1 8.5 4.4 14 13.3 15.6 25.1 1.5 10.5-1.1 22.7-6.5 30.1-6.1 8.3-18.6 12.3-29.4 9.4zm15.7-9.7c7.5-3.7 11.5-11.9 11.5-23.7 0-15.2-7.6-25.1-19.3-25.1-5.6 0-9.9 2.1-13.8 6.6-4.1 4.9-5.6 9.9-5.6 19.3 0 7.2.2 8.4 2.5 13.2 5 10.6 15 14.5 24.7 9.7z"/><path d="m739.5 224.2c-4.8-1.3-8.7-3.6-12.2-7.4-6.7-7.3-9.4-15.7-8.7-28.3.7-16.3 7.6-27.2 19.4-30.6 6.4-1.9 16-1.2 21.2 1.5 11.2 5.7 17.7 21.2 15.5 37.3-2.4 17.3-11.7 27.1-26.2 27.9-3.2.1-7.3 0-9-.4zm14.2-9.5c9-4.2 13.7-15.6 12.1-29.4s-12.1-22.5-23.5-19.6c-4.7 1.3-7.7 3.5-10.7 7.8-3.2 4.8-4.1 8.8-4.1 17.3 0 9.9 1.7 14.8 6.7 19.9 5.5 5.6 13 7.1 19.5 4z"/><path d="m286.4 222.8c-6.4-2.3-10.4-6.7-11.5-12.6l-.5-2.6h7.1c6.4 0 7.1.2 7.1 1.4 0 2.8 2.9 4.4 8.3 4.8 4.6.3 5.2.2 7.1-1.7 3.6-3.6 1.9-4.9-10.2-7.7-13.4-3.1-17-6.2-17-14.6 0-11.3 9.1-17.5 23.3-15.9 9.9 1 15.9 5.8 17.4 13.7l.6 2.5h-6.6c-6.5 0-6.6 0-7.5-2.3-.6-1.7-1.7-2.6-4.2-3.3-6.8-2.1-13.9 3-8.2 5.9 1.2.6 4.4 1.6 7 2.1 10.2 2.1 14.4 3.8 17.4 7.2 2.9 3.3 2.9 3.3 2.6 9-.3 6.9-2.5 10.3-8.3 13.2-5.3 2.6-17.8 3-23.9.9z"/><path d="m198.2 199.2v-24.2h6.3 6.3v2.7 2.7l2.6-2.6c5.6-5.6 16-5.7 21.6-.1l2.5 2.5 3.2-2.9c7.7-7.2 22.7-3.2 25.5 6.8.5 1.9.9 10.5.9 21.2v18h-6.7-6.7l-.2-17.4c-.2-15.8-.4-17.5-1.7-19-2.1-2.4-6.8-2.2-9.8.2l-2.2 1.9-.2 17.1-.2 17.1h-6.7-6.7v-17c0-15.9-.1-17-1.7-19-1.3-1.6-2.3-2.1-4.7-2.1-7.5 0-7.9 1.3-7.9 21.8v16.3h-6.7-6.7z"/><path d="m382.2 190.9v-32.5h5.1 5l13.8 24.7 13.8 24.7.2-24.7.2-24.7h4.4 4.4v32.5 32.6l-4.9-.2-4.9-.2-13.9-24.6-14-24.6-.2 24.8-.2 24.7h-4.4-4.4z"/><path d="m440.9 190.9v-32.5h21.4 21.4v4.4 4.4h-17-17v9.1 9.1h15.9 15.9v4.4 4.4h-15.9-15.9v10.3 10.3h17.3 17.4v4.4 4.4h-21.8-21.8z"/><path d="m508.3 195.2v-28.1h-9.9-9.9v-4.4-4.4h23.8 23.7v4.4 4.4h-9.5-9.5v28.1 28.1h-4.4-4.4v-28.1z"/><path d="m662.9 190.9v-32.6l5.3.2 5.3.2 14.1 25.4 14.1 25.4v-25.6-25.5h4 4v32.5 32.5h-4.7-4.7l-14.1-25.1-14.2-25-.2 25.1-.2 25.1h-4.4-4.4v-32.6z"/><path d="m783.4 190.9v-32.6l6 .2 6 .2 8 26.3 8 26.3 8-26.5 7.9-26.6h6.2 6.1v32.5 32.5h-4.4-4.2l-.2-25-.2-25-7.5 25-7.5 25h-4.2-4.1l-2-6.5c-1.1-3.6-4.7-15.3-7.9-26l-5.9-19.4v26l-.1 25.9h-4-4z"/><path d="m867.4 210.5v-12.8l-9.3-16.3c-5.1-9-10.1-17.8-11.2-19.6l-1.9-3.4h5.2 5.2l7.8 14.7c4.3 8 7.9 14.7 8.2 14.7.2 0 4-6.6 8.2-14.7l7.8-14.7h5c2.8 0 5 .2 5 .4s-4.8 8.8-10.7 19.2l-10.7 18.9v13.3 13.2h-4.4-4.4z"/><path d="m119.9 223.7c7.1-1.7 10.3-3.7 19.7-12.4 13.9-12.8 14-14.7 1.7-26.6-9-8.6-13.6-11.7-21.1-13.8l-4.8-1.4h12.8c21.1-.1 25.4 1.4 38.3 13.8 13.5 12.9 13.5 14.7-.2 27.8-13.1 12.8-15.9 13.8-37 13.7-13.6 0-13.9 0-9.4-1.1z" opacity=".6"/></g></svg>