<svg xmlns="http://www.w3.org/2000/svg" width="240" height="100" viewBox="0 0 240 100"><g fill="#FFF4E2"><path d="M77.936 67.912h3.33v.6h-3.974v-7.193h.644v6.592zM84.462 64.915c0-1.887.333-3.685 2.686-3.685 2.354 0 2.687 1.82 2.687 3.685 0 1.886-.333 3.685-2.687 3.685-2.353.022-2.686-1.8-2.686-3.685zm4.684 0c0-1.73-.266-3.086-2-3.086-1.73 0-1.996 1.354-1.996 3.085 0 1.73.266 3.085 1.997 3.085 1.732 0 2-1.354 2-3.085zM95.76 61.94v6.57h-.644v-6.57H93.14v-.6h4.618v.6H95.76zM103.863 61.94v6.57h-.644v-6.57h-1.977v-.6h4.617v.6h-1.997zM113.52 65.07h-3.175v2.84h3.507v.6h-4.174v-7.192h4.174v.6h-3.507v2.53h3.174v.622zM118.536 68.51h-.644v-7.19h2.242c1.798 0 2.353.776 2.353 2.02 0 .954-.333 1.643-1.332 1.91l1.71 3.262h-.755l-1.6-3.152h-1.975v3.15zm0-3.728h1.775c1.267 0 1.467-.644 1.467-1.42 0-.777-.2-1.42-1.466-1.42h-1.774v2.84zM128.99 65.56v2.974h-.643V65.56l-2.597-4.22h.71l2.197 3.687 2.198-3.686h.71l-2.574 4.22zM139.957 63.25c0 1.02.598 1.11 1.73 1.266 1.4.177 2.287.533 2.287 1.93 0 .978-.51 2.176-2.664 2.176-.666 0-1.553-.177-2.02-.377v-.62c.467.154 1.02.398 2.02.398 1.487 0 1.954-.688 1.954-1.554 0-1.022-.42-1.22-1.62-1.377-1.687-.2-2.353-.6-2.353-1.82 0-.843.4-1.998 2.42-1.998.888 0 1.465.155 1.865.333v.644c-.645-.29-1.177-.378-1.888-.378-1.397-.023-1.73.62-1.73 1.376zM147.792 64.915c0-1.887.333-3.685 2.687-3.685 2.35 0 2.685 1.82 2.685 3.685 0 1.886-.333 3.685-2.686 3.685-2.355.022-2.688-1.8-2.688-3.685zm4.685 0c0-1.73-.266-3.086-1.998-3.086s-2 1.354-2 3.085c0 1.73.267 3.085 2 3.085 1.73 0 1.997-1.354 1.997-3.085zM157.848 67.912h3.33v.6h-3.974v-7.193h.644v6.592zM169.39 66.157V61.34h.645v4.93c0 2.04-1.687 2.352-2.53 2.352-.843 0-2.53-.31-2.53-2.353v-4.93h.643v4.817c0 1.732 1.243 1.843 1.887 1.843.643 0 1.886-.11 1.886-1.843zM176.45 61.94v6.57h-.644v-6.57h-1.975v-.6h4.618v.6h-1.998zM182.443 68.51v-7.19h.666v7.19h-.667zM187.35 64.915c0-1.887.332-3.685 2.685-3.685 2.354 0 2.687 1.82 2.687 3.685 0 1.886-.333 3.685-2.687 3.685-2.353.022-2.686-1.8-2.686-3.685zm4.66 0c0-1.73-.266-3.086-1.998-3.086s-1.998 1.354-1.998 3.085c0 1.73.266 3.085 1.998 3.085s1.998-1.354 1.998-3.085zM201.222 68.51l-3.86-5.86.02 5.86h-.643v-7.19h.487l3.862 5.86-.023-5.86h.645v7.19h-.49zM206.35 63.25c0 1.02.6 1.11 1.73 1.266 1.4.177 2.288.533 2.288 1.93 0 .978-.51 2.176-2.64 2.176-.667 0-1.556-.177-2.022-.377v-.62c.466.154 1.02.398 2.02.398 1.488 0 1.954-.688 1.954-1.554 0-1.022-.42-1.22-1.62-1.377-1.688-.2-2.354-.6-2.354-1.82 0-.843.4-1.998 2.42-1.998.887 0 1.464.155 1.864.333v.644c-.643-.29-1.176-.378-1.886-.378-1.42-.023-1.754.62-1.754 1.376z"/></g><path fill="#FFF4E2" d="M77.27 56.346h44.35v.555H77.27zM121.62 56.346h44.353v.555H121.62zM165.973 56.346h44.352v.555h-44.352z"/><g fill="#FFF4E2"><path d="M103.885 50.442c-1.02 0-1.998-.134-2.908-.377-.91-.244-1.71-.666-2.397-1.244-.688-.576-1.22-1.286-1.62-2.152-.4-.866-.6-1.865-.6-3.02 0-1.153.2-2.152.6-3.017.398-.865.932-1.576 1.62-2.153.688-.577 1.487-1 2.397-1.287.91-.29 1.888-.423 2.908-.423s2 .134 2.91.423c.91.288 1.708.71 2.395 1.287.688.577 1.22 1.288 1.62 2.154.4.866.6 1.887.6 3.02 0 1.153-.2 2.175-.6 3.018-.4.867-.93 1.576-1.62 2.153-.688.58-1.487.978-2.396 1.245-.91.243-1.89.377-2.91.377zm0-11.1c-.554 0-1.11.112-1.665.29-.533.2-1.022.488-1.443.844-.42.377-.755.82-1.02 1.354-.245.534-.38 1.132-.38 1.82s.135 1.288.38 1.82c.243.534.6.977 1.02 1.355.42.378.91.666 1.443.844.533.2 1.087.288 1.665.288.555 0 1.11-.09 1.666-.29.534-.198 1.022-.487 1.443-.843.42-.355.755-.82 1.02-1.354.245-.532.378-1.132.378-1.82s-.132-1.287-.376-1.82c-.245-.533-.6-.977-1.02-1.354-.423-.378-.91-.645-1.443-.844-.533-.2-1.088-.29-1.665-.29zM132.964 50.442c-1.02 0-1.997-.134-2.907-.377-.91-.244-1.71-.666-2.398-1.244-.69-.576-1.22-1.286-1.62-2.152-.4-.866-.6-1.865-.6-3.02 0-1.153.2-2.152.6-3.017.4-.865.93-1.576 1.62-2.153.687-.577 1.487-1 2.397-1.287.91-.29 1.886-.423 2.907-.423 1.02 0 1.998.134 2.91.423.91.288 1.707.71 2.396 1.287.688.577 1.22 1.288 1.62 2.154.4.866.6 1.887.6 3.02 0 1.153-.2 2.175-.6 3.018-.398.867-.93 1.576-1.62 2.153-.688.58-1.487.978-2.397 1.245-.91.243-1.888.377-2.91.377zm0-11.1c-.555 0-1.11.112-1.664.29-.533.2-1.022.488-1.443.844-.422.377-.755.82-1.02 1.354-.245.534-.378 1.132-.378 1.82s.132 1.288.376 1.82c.244.534.6.977 1.02 1.355.422.378.91.666 1.444.844.532.2 1.087.288 1.664.288.556 0 1.11-.09 1.665-.29.532-.198 1.02-.487 1.443-.843.42-.355.754-.82 1.02-1.354.245-.532.38-1.132.38-1.82s-.135-1.287-.38-1.82c-.243-.533-.598-.977-1.02-1.354-.422-.378-.91-.645-1.444-.844-.556-.2-1.11-.29-1.666-.29zM91.254 51.93L80.534 39.54V51.93h-3.265V34.525h3.418l10.3 11.92v-11.92h3.263V51.93M119.823 50.33h-2.84l-5.817-13.407h3.24l3.996 9.323 3.996-9.323h3.24M176.783 50.353V39.52H172.1v-2.575h12.386v2.576H179.8v10.833M186.728 36.923h3.04V50.33h-3.04zM170.567 50.33l-1.398-3.262h-5.862l-1.375 3.263h-3.02l5.927-13.406h2.82l5.925 13.407h-3.018zm-2.485-5.814l-1.842-4.307-1.842 4.306h3.684zM201.89 52.018c-1.288 0-2.53-.178-3.73-.533-1.177-.355-2.244-.91-3.153-1.642-.91-.733-1.643-1.665-2.176-2.753-.53-1.088-.797-2.397-.797-3.862 0-1.443.267-2.753.798-3.862.534-1.11 1.267-2.042 2.177-2.798.91-.754 1.976-1.31 3.153-1.687 1.176-.376 2.44-.554 3.73-.554 2.62 0 5.04.866 6.637 1.532.177.088 1.243.554 1.243.554l-1.643 2.753-.244-.133c-1.62-.977-3.463-1.6-5.172-1.797-.287-.045-.576-.045-.82-.045h-.223c-.8.022-1.553.156-2.263.4-.778.266-1.488.643-2.064 1.154-.578.51-1.044 1.132-1.398 1.864-.355.732-.533 1.576-.533 2.53 0 .955.176 1.798.532 2.532.354.732.82 1.376 1.398 1.864.576.51 1.287.887 2.064 1.154.8.266 1.62.4 2.485.4 2.796 0 5.15-1.288 6.614-2.376l.244-.178 1.466 2.53-.222.134c-1.843 1.176-4.662 2.62-7.57 2.797-.178.023-.356.023-.533.023zM154.296 36.923l-4.35 7.97-4.374-7.97h-2.952V50.33h2.664v-8.323l4.662 8.368 4.64-8.368v8.324h2.685V36.924"/></g><g fill="#FFF4E2"><path d="M64.24 35.702c-.866-.842-2.042-1.376-3.374-1.376-2.642 0-4.772 2.13-4.772 4.773 0 1.33.554 2.53 1.42 3.395 2.086 2.11 3.374 5.017 3.374 8.213 0 1.332-.222 2.62-.643 3.818-.044.133-.09.267-.09.422-.02.732.557 1.332 1.288 1.354.312 0 .6-.09.822-.266.444-.333.977-.533 1.554-.51 1.375.02 2.463 1.175 2.418 2.552-.022 1.376-1.176 2.464-2.553 2.42-1.376-.023-2.464-1.177-2.42-2.554-.02-.71-.576-1.287-1.287-1.31-.444 0-.843.2-1.087.51-2.086 3.13-5.66 5.195-9.7 5.195-1.287 0-2.53-.224-3.685-.6-.11-.045-.244-.068-.355-.068-.732 0-1.332.578-1.332 1.31 0 .31.11.6.288.822.333.42.533.977.533 1.554 0 1.375-1.133 2.487-2.51 2.464-1.375 0-2.485-1.132-2.463-2.508 0-1.376 1.132-2.486 2.508-2.463.71-.022 1.265-.6 1.287-1.31 0-.42-.2-.776-.488-1.043-3.263-2.064-5.438-5.705-5.438-9.855 0-1.576.31-3.085.887-4.462.022-.067.022-.156.045-.222.044-.732-.51-1.354-1.243-1.42-.31-.022-.6.066-.844.245-.443.31-.998.488-1.575.443-1.376-.088-2.42-1.266-2.33-2.642.088-1.376 1.265-2.418 2.64-2.33 1.377.087 2.42 1.265 2.332 2.64-.022.712.533 1.31 1.243 1.355.422.02.8-.157 1.066-.445 2.108-2.93 5.57-4.84 9.456-4.84 2.64 0 4.772-2.13 4.772-4.77s-2.13-4.774-4.772-4.774c-11.72 0-21.22 9.502-21.22 21.223s9.5 21.22 21.22 21.22c11.72 0 21.22-9.5 21.22-21.22.023-5.795-2.352-11.1-6.192-14.94z"/><path d="M50.92 46.29c-.11.112-.133.2-.133.2l-.11.445s-.023.11 0 .2c.043.11.176.11.176.11l.178.022s.334.066.49.244c.177.18.088.622.088.622l-.622 2.93-2.22-4.24s-.067-.2-.31-.443c-.245-.245-.622-.223-.622-.223h-4.15s-.18 0-.267.066c-.11.067-.133.245-.133.245l-.11.467s-.046.11.02.266c.067.157.556.245.556.245s.82.133 1.155.533c.332.4.2.976.2.976l-.912 4.417s-.09.423-.31.645c-.223.2-.578.222-.578.222s-.222 0-.355.066c-.11.045-.156.245-.156.245l-.066.288s-.022.11.045.222c.066.11.266.133.266.133l4.572.023s.133 0 .222-.09c.066-.066.09-.22.09-.22l.065-.423s.02-.133-.023-.2c-.066-.088-.133-.088-.355-.133-.22-.044-.333-.11-.554-.288-.267-.2-.178-.623-.178-.623l.4-2.22s.044-.155.155-.155c.155 0 .2.155.2.155l2.175 3.907s.067.134.2.222c.11.09.377.09.377.09l3.685-.023s.178 0 .29-.09c.11-.11.155-.266.155-.266l.066-.31s.044-.157-.022-.29c-.088-.177-.398-.2-.754-.31-.266-.09-.62-.267-.732-.444-.088-.133 0-.378 0-.378l1.22-5.04s.046-.198.245-.42c.2-.2.71-.31.71-.31s.132-.023.222-.112c.066-.066.088-.178.088-.178l.133-.533s.045-.132-.044-.244c-.068-.09-.268-.09-.268-.09h-4.196c.023-.02-.132-.02-.266.093z"/></g></svg>